<svg width="24" height="24" viewBox="0 0 24 24" fill="none" xmlns="http://www.w3.org/2000/svg">
<g clip-path="url(#clip0_3337_124142)">
<path d="M23.3887 10.9462L13.0544 0.612359C12.4597 0.0172344 11.4944 0.0172344 10.8987 0.612359L8.75299 2.75848L11.4751 5.48061C12.1079 5.26705 12.8332 5.4103 13.3374 5.91448C13.8442 6.42186 13.9863 7.1533 13.7675 7.78817L16.391 10.4119C17.0257 10.193 17.7582 10.3344 18.2649 10.8422C18.9736 11.5504 18.9736 12.6984 18.2649 13.407C18.0964 13.5755 17.8965 13.7092 17.6764 13.8004C17.4563 13.8916 17.2203 13.9385 16.9821 13.9385C16.7438 13.9385 16.5079 13.8916 16.2878 13.8004C16.0677 13.7092 15.8677 13.5755 15.6993 13.407C15.4463 13.1538 15.2738 12.8314 15.2035 12.4804C15.1333 12.1293 15.1685 11.7654 15.3046 11.4343L12.8581 8.9878L12.8577 15.4267C13.0352 15.5141 13.1973 15.6299 13.3376 15.7695C14.0459 16.4777 14.0459 17.6254 13.3376 18.335C12.629 19.0432 11.4806 19.0432 10.7727 18.335C10.0644 17.6255 10.0644 16.4779 10.7727 15.7695C10.9425 15.5995 11.1443 15.465 11.3666 15.3739V8.8753C11.1441 8.7844 10.9422 8.64981 10.7727 8.47948C10.2361 7.94323 10.1069 7.15573 10.3822 6.49648L7.69849 3.8128L0.612491 10.8984C0.326613 11.1844 0.166016 11.5722 0.166016 11.9765C0.166016 12.3809 0.326613 12.7687 0.612491 13.0547L10.9469 23.3885C11.5421 23.9837 12.5069 23.9837 13.103 23.3885L23.3889 13.1027C23.6747 12.8166 23.8352 12.4288 23.8352 12.0244C23.8352 11.62 23.6745 11.2322 23.3887 10.9462Z" fill="#F97316"/>
</g>
<defs>
<clipPath id="clip0_3337_124142">
<rect width="24" height="24" fill="white"/>
</clipPath>
</defs>
</svg>
