<svg width="40" height="40" viewBox="0 0 40 40" fill="none" xmlns="http://www.w3.org/2000/svg">
<rect x="0.5" y="0.5" width="39" height="39" rx="6.5" stroke="#605BFF"/>
<path d="M20.6562 19.3438V13.875C20.6562 13.701 20.5871 13.534 20.464 13.411C20.341 13.2879 20.174 13.2188 20 13.2188C19.826 13.2188 19.659 13.2879 19.536 13.411C19.4129 13.534 19.3438 13.701 19.3438 13.875V19.3438H13.875C13.701 19.3438 13.534 19.4129 13.411 19.536C13.2879 19.659 13.2188 19.826 13.2188 20C13.2188 20.174 13.2879 20.341 13.411 20.464C13.534 20.5871 13.701 20.6562 13.875 20.6562H19.3438V26.125C19.346 26.2983 19.4159 26.4639 19.5385 26.5865C19.6611 26.7091 19.8267 26.779 20 26.7812C20.174 26.7812 20.341 26.7121 20.464 26.589C20.5871 26.466 20.6562 26.299 20.6562 26.125V20.6562H26.125C26.299 20.6562 26.466 20.5871 26.589 20.464C26.7121 20.341 26.7812 20.174 26.7812 20C26.779 19.8267 26.7091 19.6611 26.5865 19.5385C26.4639 19.4159 26.2983 19.346 26.125 19.3438H20.6562Z" fill="#605BFF"/>
</svg>
