<svg width="25" height="24" viewBox="0 0 25 24" fill="none" xmlns="http://www.w3.org/2000/svg">
<path d="M12.5 21C10.72 21 8.97991 20.4722 7.49987 19.4832C6.01983 18.4943 4.86628 17.0887 4.18509 15.4442C3.5039 13.7996 3.32567 11.99 3.67294 10.2442C4.0202 8.49836 4.87737 6.89472 6.13604 5.63604C7.39472 4.37737 8.99836 3.5202 10.7442 3.17294C12.49 2.82567 14.2996 3.0039 15.9442 3.68509C17.5887 4.36628 18.9943 5.51983 19.9832 6.99987C20.9722 8.47991 21.5 10.22 21.5 12C21.5 14.387 20.5518 16.6761 18.864 18.364C17.1761 20.0518 14.887 21 12.5 21ZM12.5 4.5C11.0166 4.5 9.5666 4.93987 8.33323 5.76398C7.09986 6.58809 6.13856 7.75943 5.57091 9.12988C5.00325 10.5003 4.85473 12.0083 5.14411 13.4632C5.4335 14.918 6.14781 16.2544 7.1967 17.3033C8.2456 18.3522 9.58197 19.0665 11.0368 19.3559C12.4917 19.6453 13.9997 19.4968 15.3701 18.9291C16.7406 18.3614 17.9119 17.4001 18.736 16.1668C19.5601 14.9334 20 13.4834 20 12C20 10.0109 19.2098 8.10323 17.8033 6.6967C16.3968 5.29018 14.4891 4.5 12.5 4.5Z" fill="#605BFF"/>
<path d="M12.5 16.75C12.3019 16.7474 12.1126 16.6676 11.9725 16.5275C11.8324 16.3874 11.7526 16.1981 11.75 16V8C11.75 7.80109 11.829 7.61032 11.9697 7.46967C12.1103 7.32902 12.3011 7.25 12.5 7.25C12.6989 7.25 12.8897 7.32902 13.0303 7.46967C13.171 7.61032 13.25 7.80109 13.25 8V16C13.2474 16.1981 13.1676 16.3874 13.0275 16.5275C12.8874 16.6676 12.6981 16.7474 12.5 16.75Z" fill="#605BFF"/>
<path d="M16.5 12.75H8.5C8.30109 12.75 8.11032 12.671 7.96967 12.5303C7.82902 12.3897 7.75 12.1989 7.75 12C7.75 11.8011 7.82902 11.6103 7.96967 11.4697C8.11032 11.329 8.30109 11.25 8.5 11.25H16.5C16.6989 11.25 16.8897 11.329 17.0303 11.4697C17.171 11.6103 17.25 11.8011 17.25 12C17.25 12.1989 17.171 12.3897 17.0303 12.5303C16.8897 12.671 16.6989 12.75 16.5 12.75Z" fill="#605BFF"/>
</svg>
