<svg width="25" height="24" viewBox="0 0 25 24" fill="none" xmlns="http://www.w3.org/2000/svg">
<path d="M12.9453 2C10.9675 2 9.03411 2.58649 7.38961 3.6853C5.74512 4.78412 4.4634 6.3459 3.70652 8.17317C2.94965 10.0004 2.75161 12.0111 3.13746 13.9509C3.52332 15.8907 4.47572 17.6725 5.87425 19.0711C7.27277 20.4696 9.0546 21.422 10.9944 21.8079C12.9342 22.1937 14.9449 21.9957 16.7722 21.2388C18.5994 20.4819 20.1612 19.2002 21.26 17.5557C22.3588 15.9112 22.9453 13.9778 22.9453 12C22.9453 10.6868 22.6867 9.38642 22.1841 8.17317C21.6816 6.95991 20.945 5.85752 20.0164 4.92893C19.0878 4.00035 17.9854 3.26375 16.7722 2.7612C15.5589 2.25866 14.2585 2 12.9453 2V2ZM12.9453 20C11.3631 20 9.81635 19.5308 8.50075 18.6518C7.18516 17.7727 6.15978 16.5233 5.55428 15.0615C4.94878 13.5997 4.79035 11.9911 5.09904 10.4393C5.40772 8.88743 6.16964 7.46197 7.28846 6.34315C8.40728 5.22433 9.83275 4.4624 11.3846 4.15372C12.9364 3.84504 14.545 4.00346 16.0068 4.60896C17.4686 5.21447 18.718 6.23984 19.5971 7.55544C20.4761 8.87103 20.9453 10.4177 20.9453 12C20.9453 14.1217 20.1025 16.1566 18.6022 17.6569C17.1019 19.1571 15.067 20 12.9453 20V20Z" fill="#212121"/>
<path d="M15.9453 11H13.9453V9C13.9453 8.73478 13.84 8.48043 13.6524 8.29289C13.4649 8.10536 13.2105 8 12.9453 8C12.6801 8 12.4257 8.10536 12.2382 8.29289C12.0507 8.48043 11.9453 8.73478 11.9453 9V11H9.94531C9.6801 11 9.42574 11.1054 9.23821 11.2929C9.05067 11.4804 8.94531 11.7348 8.94531 12C8.94531 12.2652 9.05067 12.5196 9.23821 12.7071C9.42574 12.8946 9.6801 13 9.94531 13H11.9453V15C11.9453 15.2652 12.0507 15.5196 12.2382 15.7071C12.4257 15.8946 12.6801 16 12.9453 16C13.2105 16 13.4649 15.8946 13.6524 15.7071C13.84 15.5196 13.9453 15.2652 13.9453 15V13H15.9453C16.2105 13 16.4649 12.8946 16.6524 12.7071C16.84 12.5196 16.9453 12.2652 16.9453 12C16.9453 11.7348 16.84 11.4804 16.6524 11.2929C16.4649 11.1054 16.2105 11 15.9453 11Z" fill="#212121"/>
</svg>
