<svg width="24" height="24" viewBox="0 0 24 24" fill="none" xmlns="http://www.w3.org/2000/svg">
<path d="M9.75 10.5C9.00832 10.5 8.2833 10.2801 7.66661 9.86801C7.04993 9.45596 6.56928 8.87029 6.28545 8.18506C6.00162 7.49984 5.92736 6.74584 6.07206 6.01841C6.21675 5.29098 6.5739 4.6228 7.09835 4.09835C7.6228 3.5739 8.29098 3.21675 9.01841 3.07206C9.74584 2.92736 10.4998 3.00162 11.1851 3.28545C11.8703 3.56928 12.456 4.04993 12.868 4.66661C13.2801 5.2833 13.5 6.00832 13.5 6.75C13.4974 7.74375 13.1014 8.69605 12.3987 9.39874C11.696 10.1014 10.7438 10.4974 9.75 10.5V10.5ZM9.75 4.5C9.30499 4.5 8.86998 4.63196 8.49997 4.87919C8.12996 5.12643 7.84157 5.47783 7.67127 5.88896C7.50098 6.3001 7.45642 6.7525 7.54323 7.18895C7.63005 7.62541 7.84434 8.02632 8.15901 8.34099C8.47368 8.65566 8.87459 8.86995 9.31105 8.95677C9.74751 9.04359 10.1999 8.99903 10.611 8.82873C11.0222 8.65843 11.3736 8.37005 11.6208 8.00003C11.868 7.63002 12 7.19501 12 6.75C12 6.15326 11.7629 5.58097 11.341 5.15901C10.919 4.73705 10.3467 4.5 9.75 4.5V4.5Z" fill="#030229" fill-opacity="0.6"/>
<path d="M2.75 17.5C2.55109 17.5 2.36032 17.421 2.21967 17.2803C2.07902 17.1397 2 16.9489 2 16.75C2 12 7.43 12 9.75 12C10.47 12 11.11 12 11.69 12.07C11.8873 12.0853 12.0705 12.178 12.1998 12.3279C12.329 12.4777 12.3938 12.6726 12.38 12.87C12.3622 13.0681 12.2673 13.2514 12.1159 13.3804C11.9645 13.5094 11.7685 13.5739 11.57 13.56C11.03 13.56 10.43 13.5 9.75 13.5C4.57 13.5 3.5 14.8 3.5 16.75C3.50135 16.8489 3.48286 16.947 3.44565 17.0386C3.40844 17.1302 3.35324 17.2134 3.28333 17.2833C3.21341 17.3532 3.1302 17.4084 3.0386 17.4457C2.94699 17.4829 2.84886 17.5013 2.75 17.5V17.5Z" fill="#030229" fill-opacity="0.6"/>
<path d="M16.1877 16.098C15.8979 16.098 15.6147 16.012 15.3737 15.8511C15.1328 15.6901 14.9451 15.4613 14.8342 15.1936C14.7233 14.9259 14.6943 14.6313 14.7508 14.3472C14.8073 14.063 14.9469 13.8019 15.1517 13.5971C15.3566 13.3922 15.6177 13.2526 15.9018 13.1961C16.186 13.1396 16.4806 13.1686 16.7483 13.2795C17.016 13.3904 17.2448 13.5781 17.4058 13.8191C17.5667 14.06 17.6527 14.3432 17.6527 14.633C17.6527 15.0215 17.4983 15.3941 17.2236 15.6689C16.9488 15.9436 16.5762 16.098 16.1877 16.098ZM16.1877 13.918C16.0462 13.918 15.908 13.9599 15.7904 14.0385C15.6728 14.117 15.5812 14.2287 15.5271 14.3594C15.473 14.49 15.4588 14.6338 15.4864 14.7725C15.514 14.9112 15.5821 15.0386 15.6821 15.1386C15.7821 15.2385 15.9095 15.3066 16.0482 15.3342C16.1869 15.3618 16.3306 15.3477 16.4613 15.2935C16.5919 15.2394 16.7036 15.1478 16.7822 15.0302C16.8607 14.9126 16.9027 14.7744 16.9027 14.633C16.9027 14.4433 16.8273 14.2615 16.6932 14.1274C16.5591 13.9933 16.3773 13.918 16.1877 13.918V13.918Z" fill="#030229" fill-opacity="0.6"/>
<path d="M16.2164 19.0078C16.0702 19.0072 15.9256 18.9776 15.7908 18.9209C15.6561 18.8642 15.5339 18.7815 15.4312 18.6774C15.3285 18.5733 15.2474 18.45 15.1925 18.3145C15.1377 18.179 15.1101 18.034 15.1114 17.8878C15.1094 17.8427 15.0948 17.7991 15.0691 17.7619C15.0435 17.7248 15.0079 17.6956 14.9664 17.6778C14.9205 17.6568 14.8694 17.6498 14.8196 17.6578C14.7697 17.6658 14.7234 17.6884 14.6864 17.7228C14.4788 17.9288 14.1989 18.0455 13.9064 18.0478C13.6121 18.0497 13.3287 17.9367 13.1164 17.7328C13.0133 17.6297 12.9315 17.5074 12.8757 17.3727C12.8199 17.238 12.7912 17.0936 12.7912 16.9478C12.7912 16.802 12.8199 16.6577 12.8757 16.523C12.9315 16.3883 13.0133 16.2659 13.1164 16.1628C13.1517 16.1307 13.177 16.0891 13.1894 16.043C13.2018 15.997 13.2008 15.9483 13.1864 15.9028C13.162 15.8606 13.1271 15.8255 13.085 15.8009C13.0429 15.7764 12.9951 15.7632 12.9464 15.7628C12.6522 15.7617 12.37 15.6463 12.1592 15.4411C11.9484 15.2359 11.8255 14.9569 11.8164 14.6628C11.8171 14.517 11.8464 14.3728 11.9028 14.2384C11.9592 14.104 12.0415 13.982 12.145 13.8794C12.2486 13.7768 12.3713 13.6956 12.5062 13.6404C12.6412 13.5852 12.7856 13.5572 12.9314 13.5578C12.9765 13.5558 13.0201 13.5412 13.0573 13.5155C13.0944 13.4899 13.1236 13.4543 13.1414 13.4128C13.1625 13.3669 13.1694 13.3158 13.1614 13.266C13.1534 13.2161 13.1308 13.1698 13.0964 13.1328C12.8904 12.9252 12.7737 12.6453 12.7714 12.3528C12.7688 12.2068 12.7954 12.0618 12.8495 11.9261C12.9035 11.7905 12.9841 11.667 13.0864 11.5628C13.1895 11.4597 13.3119 11.3779 13.4466 11.3221C13.5812 11.2663 13.7256 11.2376 13.8714 11.2376C14.0172 11.2376 14.1616 11.2663 14.2963 11.3221C14.4309 11.3779 14.5533 11.4597 14.6564 11.5628C14.6924 11.5971 14.7366 11.6215 14.7848 11.6337C14.8329 11.646 14.8834 11.6457 14.9314 11.6328C14.9752 11.6088 15.0122 11.5744 15.0393 11.5324C15.0664 11.4905 15.0826 11.4425 15.0864 11.3928C15.0863 11.0978 15.201 10.8142 15.4064 10.6024C15.6117 10.3905 15.8915 10.2669 16.1864 10.2578C16.3322 10.2591 16.4763 10.2891 16.6104 10.3461C16.7446 10.4031 16.8662 10.486 16.9684 10.59C17.0705 10.694 17.1512 10.8171 17.2058 10.9523C17.2603 11.0874 17.2877 11.232 17.2864 11.3778C17.2883 11.4236 17.3022 11.468 17.3268 11.5066C17.3514 11.5453 17.3858 11.5767 17.4264 11.5978C17.4705 11.614 17.5183 11.6174 17.5643 11.6077C17.6103 11.598 17.6526 11.5755 17.6864 11.5428C17.894 11.3368 18.1739 11.2201 18.4664 11.2178C18.6127 11.2132 18.7583 11.2388 18.8942 11.293C19.0301 11.3472 19.1534 11.4289 19.2564 11.5328C19.3595 11.6359 19.4413 11.7583 19.4971 11.893C19.5529 12.0277 19.5816 12.172 19.5816 12.3178C19.5816 12.4636 19.5529 12.608 19.4971 12.7427C19.4413 12.8774 19.3595 12.9997 19.2564 13.1028C19.2247 13.1403 19.2031 13.1851 19.1935 13.2332C19.1838 13.2813 19.1866 13.3311 19.2014 13.3778C19.2254 13.4216 19.2599 13.4587 19.3018 13.4857C19.3437 13.5128 19.3917 13.529 19.4414 13.5328C19.7339 13.5365 20.0136 13.653 20.2222 13.858C20.4309 14.0629 20.5524 14.3405 20.5614 14.6328C20.5601 14.7786 20.5301 14.9227 20.4731 15.0568C20.4161 15.191 20.3332 15.3126 20.2292 15.4148C20.1252 15.5169 20.0021 15.5976 19.867 15.6522C19.7318 15.7067 19.5872 15.7341 19.4414 15.7328C19.3957 15.7347 19.3512 15.7487 19.3126 15.7732C19.274 15.7978 19.2425 15.8322 19.2214 15.8728V15.8728C19.2052 15.9169 19.2018 15.9647 19.2115 16.0107C19.2212 16.0567 19.2437 16.099 19.2764 16.1328C19.4824 16.3404 19.5991 16.6204 19.6014 16.9128C19.604 17.0588 19.5774 17.2039 19.5233 17.3395C19.4693 17.4751 19.3887 17.5986 19.2864 17.7028C19.1833 17.8059 19.0609 17.8877 18.9263 17.9435C18.7916 17.9993 18.6472 18.028 18.5014 18.028C18.3556 18.028 18.2112 17.9993 18.0766 17.9435C17.9419 17.8877 17.8195 17.8059 17.7164 17.7028C17.6826 17.6701 17.6403 17.6476 17.5943 17.6379C17.5483 17.6282 17.5005 17.6316 17.4564 17.6478C17.4142 17.6722 17.3791 17.7071 17.3545 17.7492C17.33 17.7913 17.3168 17.8391 17.3164 17.8878C17.3127 18.1803 17.1962 18.46 16.9913 18.6687C16.7863 18.8773 16.5087 18.9988 16.2164 19.0078ZM14.8614 16.9028C14.994 16.9013 15.1254 16.9286 15.2464 16.9828C15.425 17.0573 15.5782 17.1819 15.6873 17.3416C15.7965 17.5014 15.857 17.6894 15.8614 17.8828C15.86 17.9793 15.8964 18.0724 15.9627 18.1425C16.029 18.2125 16.12 18.2539 16.2164 18.2578C16.3128 18.2502 16.4026 18.2061 16.4676 18.1346C16.5327 18.0631 16.568 17.9695 16.5664 17.8728C16.5676 17.6787 16.6236 17.4889 16.728 17.3252C16.8324 17.1616 16.9809 17.0307 17.1564 16.9478C17.339 16.8719 17.54 16.8517 17.734 16.89C17.928 16.9283 18.1063 17.0232 18.2464 17.1628C18.3127 17.2291 18.4026 17.2664 18.4964 17.2664C18.5902 17.2664 18.6801 17.2291 18.7464 17.1628C18.8127 17.0965 18.85 17.0066 18.85 16.9128C18.85 16.819 18.8127 16.7291 18.7464 16.6628C18.6076 16.5222 18.5137 16.3436 18.4763 16.1496C18.4389 15.9556 18.4598 15.7549 18.5364 15.5728C18.6153 15.3974 18.7431 15.2484 18.9045 15.1437C19.0659 15.0391 19.254 14.9832 19.4464 14.9828C19.5415 14.9842 19.6334 14.9484 19.7025 14.883C19.7717 14.8176 19.8125 14.7279 19.8164 14.6328C19.81 14.536 19.7663 14.4454 19.6945 14.3802C19.6227 14.3149 19.5284 14.28 19.4314 14.2828C19.2357 14.2775 19.0453 14.2175 18.8819 14.1098C18.7184 14.002 18.5884 13.8506 18.5064 13.6728C18.4316 13.4884 18.4121 13.2862 18.4502 13.0908C18.4884 12.8955 18.5826 12.7155 18.7214 12.5728C18.7542 12.54 18.7803 12.501 18.798 12.4581C18.8158 12.4152 18.825 12.3692 18.825 12.3228C18.825 12.2764 18.8158 12.2304 18.798 12.1875C18.7803 12.1446 18.7542 12.1056 18.7214 12.0728C18.6886 12.04 18.6496 12.0139 18.6067 11.9962C18.5638 11.9784 18.5178 11.9693 18.4714 11.9693C18.425 11.9693 18.379 11.9784 18.3361 11.9962C18.2932 12.0139 18.2542 12.04 18.2214 12.0728C18.0808 12.2034 17.9057 12.2907 17.7168 12.3245C17.5279 12.3583 17.3334 12.337 17.1563 12.2632C16.9792 12.1894 16.827 12.0662 16.718 11.9083C16.609 11.7505 16.5477 11.5646 16.5414 11.3728C16.5428 11.2777 16.507 11.1858 16.4416 11.1167C16.3762 11.0476 16.2865 11.0067 16.1914 11.0028C16.0946 11.0092 16.004 11.0529 15.9388 11.1247C15.8735 11.1965 15.8386 11.2908 15.8414 11.3878C15.8361 11.5835 15.7761 11.7739 15.6684 11.9373C15.5606 12.1008 15.4092 12.2308 15.2314 12.3128C15.047 12.3876 14.8448 12.4072 14.6494 12.369C14.4541 12.3308 14.2741 12.2366 14.1314 12.0978C14.0986 12.065 14.0596 12.0389 14.0167 12.0212C13.9738 12.0034 13.9278 11.9943 13.8814 11.9943C13.835 11.9943 13.789 12.0034 13.7461 12.0212C13.7032 12.0389 13.6642 12.065 13.6314 12.0978C13.5986 12.1306 13.5725 12.1696 13.5548 12.2125C13.537 12.2554 13.5279 12.3014 13.5279 12.3478C13.5279 12.3942 13.537 12.4402 13.5548 12.4831C13.5725 12.526 13.5986 12.565 13.6314 12.5978C13.7693 12.739 13.8624 12.9178 13.8989 13.1118C13.9353 13.3058 13.9136 13.5062 13.8364 13.6878C13.762 13.8664 13.6373 14.0196 13.4776 14.1287C13.3178 14.2379 13.1298 14.2984 12.9364 14.3028C12.84 14.3014 12.7468 14.3378 12.6767 14.4041C12.6067 14.4704 12.5653 14.5614 12.5614 14.6578C12.569 14.7542 12.6131 14.844 12.6846 14.909C12.7561 14.9741 12.8498 15.0094 12.9464 15.0078C13.1405 15.009 13.3303 15.065 13.494 15.1694C13.6577 15.2738 13.7885 15.4223 13.8714 15.5978C13.9474 15.7804 13.9675 15.9814 13.9292 16.1754C13.8909 16.3694 13.796 16.5477 13.6564 16.6878C13.6236 16.7206 13.5975 16.7596 13.5798 16.8025C13.562 16.8454 13.5529 16.8914 13.5529 16.9378C13.5529 16.9842 13.562 17.0302 13.5798 17.0731C13.5975 17.116 13.6236 17.155 13.6564 17.1878C13.6892 17.2206 13.7282 17.2467 13.7711 17.2645C13.814 17.2822 13.86 17.2914 13.9064 17.2914C13.9528 17.2914 13.9988 17.2822 14.0417 17.2645C14.0846 17.2467 14.1236 17.2206 14.1564 17.1878C14.3465 17.0064 14.5987 16.9044 14.8614 16.9028V16.9028Z" fill="#030229" fill-opacity="0.6"/>
</svg>
