<svg width="24" height="24" viewBox="0 0 24 24" fill="none" xmlns="http://www.w3.org/2000/svg">
<path d="M9.75 10.5C9.00832 10.5 8.2833 10.2801 7.66661 9.86801C7.04993 9.45596 6.56928 8.87029 6.28545 8.18506C6.00162 7.49984 5.92736 6.74584 6.07206 6.01841C6.21675 5.29098 6.5739 4.6228 7.09835 4.09835C7.6228 3.5739 8.29098 3.21675 9.01841 3.07206C9.74584 2.92736 10.4998 3.00162 11.1851 3.28545C11.8703 3.56928 12.456 4.04993 12.868 4.66661C13.2801 5.2833 13.5 6.00832 13.5 6.75C13.4974 7.74375 13.1014 8.69605 12.3987 9.39874C11.696 10.1014 10.7438 10.4974 9.75 10.5V10.5ZM9.75 4.5C9.30499 4.5 8.86998 4.63196 8.49997 4.87919C8.12996 5.12643 7.84157 5.47783 7.67127 5.88896C7.50098 6.3001 7.45642 6.7525 7.54323 7.18895C7.63005 7.62541 7.84434 8.02632 8.15901 8.34099C8.47368 8.65566 8.87459 8.86995 9.31105 8.95677C9.74751 9.04359 10.1999 8.99903 10.611 8.82873C11.0222 8.65843 11.3736 8.37005 11.6208 8.00003C11.868 7.63002 12 7.19501 12 6.75C12 6.15326 11.7629 5.58097 11.341 5.15901C10.919 4.73705 10.3467 4.5 9.75 4.5V4.5Z" fill="#605BFF"/>
<path d="M2.75 17.5C2.55109 17.5 2.36032 17.421 2.21967 17.2803C2.07902 17.1397 2 16.9489 2 16.75C2 12 7.43 12 9.75 12C10.47 12 11.11 12 11.69 12.07C11.8873 12.0853 12.0705 12.178 12.1998 12.3279C12.329 12.4777 12.3938 12.6726 12.38 12.87C12.3622 13.0681 12.2673 13.2514 12.1159 13.3804C11.9645 13.5094 11.7685 13.5739 11.57 13.56C11.03 13.56 10.43 13.5 9.75 13.5C4.57 13.5 3.5 14.8 3.5 16.75C3.50135 16.8489 3.48286 16.947 3.44565 17.0386C3.40844 17.1302 3.35324 17.2134 3.28333 17.2833C3.21341 17.3532 3.1302 17.4084 3.0386 17.4457C2.94699 17.4829 2.84886 17.5013 2.75 17.5V17.5Z" fill="#605BFF"/>
<path d="M16.1874 16.098C15.8977 16.098 15.6144 16.012 15.3735 15.8511C15.1326 15.6901 14.9448 15.4613 14.8339 15.1936C14.723 14.9259 14.694 14.6313 14.7506 14.3472C14.8071 14.063 14.9466 13.8019 15.1515 13.5971C15.3564 13.3922 15.6174 13.2526 15.9016 13.1961C16.1858 13.1396 16.4804 13.1686 16.748 13.2795C17.0157 13.3904 17.2445 13.5781 17.4055 13.8191C17.5665 14.06 17.6524 14.3432 17.6524 14.633C17.6524 15.0215 17.4981 15.3941 17.2233 15.6689C16.9486 15.9436 16.576 16.098 16.1874 16.098ZM16.1874 13.918C16.046 13.918 15.9078 13.9599 15.7902 14.0385C15.6726 14.117 15.581 14.2287 15.5268 14.3594C15.4727 14.49 15.4586 14.6338 15.4862 14.7725C15.5137 14.9112 15.5818 15.0386 15.6818 15.1386C15.7818 15.2385 15.9092 15.3066 16.0479 15.3342C16.1866 15.3618 16.3304 15.3477 16.461 15.2935C16.5917 15.2394 16.7033 15.1478 16.7819 15.0302C16.8605 14.9126 16.9024 14.7744 16.9024 14.633C16.9024 14.4433 16.8271 14.2615 16.693 14.1274C16.5589 13.9933 16.377 13.918 16.1874 13.918V13.918Z" fill="#605BFF"/>
<path d="M16.2174 19.0078C16.0712 19.0072 15.9266 18.9776 15.7918 18.9209C15.6571 18.8642 15.5349 18.7815 15.4322 18.6774C15.3295 18.5733 15.2484 18.45 15.1935 18.3145C15.1386 18.179 15.1111 18.034 15.1124 17.8878C15.1104 17.8427 15.0958 17.7991 15.0701 17.7619C15.0445 17.7248 15.0089 17.6956 14.9674 17.6778C14.9215 17.6568 14.8704 17.6498 14.8205 17.6578C14.7707 17.6658 14.7244 17.6884 14.6874 17.7228C14.4798 17.9288 14.1998 18.0455 13.9074 18.0478C13.6131 18.0497 13.3296 17.9367 13.1174 17.7328C13.0143 17.6297 12.9325 17.5074 12.8767 17.3727C12.8209 17.238 12.7922 17.0936 12.7922 16.9478C12.7922 16.802 12.8209 16.6577 12.8767 16.523C12.9325 16.3883 13.0143 16.2659 13.1174 16.1628C13.1526 16.1307 13.178 16.0891 13.1904 16.043C13.2028 15.997 13.2017 15.9483 13.1874 15.9028C13.163 15.8606 13.1281 15.8255 13.086 15.8009C13.0439 15.7764 12.9961 15.7632 12.9474 15.7628C12.6532 15.7617 12.3709 15.6463 12.1601 15.4411C11.9493 15.2359 11.8265 14.9569 11.8174 14.6628C11.818 14.517 11.8474 14.3728 11.9038 14.2384C11.9602 14.104 12.0425 13.982 12.146 13.8794C12.2496 13.7768 12.3723 13.6956 12.5072 13.6404C12.6421 13.5852 12.7866 13.5572 12.9324 13.5578C12.9775 13.5558 13.0211 13.5412 13.0583 13.5155C13.0954 13.4899 13.1246 13.4543 13.1424 13.4128C13.1634 13.3669 13.1704 13.3158 13.1624 13.266C13.1544 13.2161 13.1318 13.1698 13.0974 13.1328C12.8914 12.9252 12.7747 12.6453 12.7724 12.3528C12.7698 12.2068 12.7964 12.0618 12.8504 11.9261C12.9045 11.7905 12.9851 11.667 13.0874 11.5628C13.1905 11.4597 13.3128 11.3779 13.4475 11.3221C13.5822 11.2663 13.7266 11.2376 13.8724 11.2376C14.0182 11.2376 14.1625 11.2663 14.2972 11.3221C14.4319 11.3779 14.5543 11.4597 14.6574 11.5628C14.6934 11.5971 14.7376 11.6215 14.7857 11.6337C14.8339 11.646 14.8844 11.6457 14.9324 11.6328C14.9761 11.6088 15.0132 11.5744 15.0403 11.5324C15.0674 11.4905 15.0835 11.4425 15.0874 11.3928C15.0872 11.0978 15.202 10.8142 15.4073 10.6024C15.6127 10.3905 15.8925 10.2669 16.1874 10.2578C16.3332 10.2591 16.4772 10.2891 16.6114 10.3461C16.7456 10.4031 16.8672 10.486 16.9694 10.59C17.0715 10.694 17.1522 10.8171 17.2067 10.9523C17.2613 11.0874 17.2887 11.232 17.2874 11.3778C17.2893 11.4236 17.3032 11.468 17.3278 11.5066C17.3524 11.5453 17.3867 11.5767 17.4274 11.5978C17.4715 11.614 17.5193 11.6174 17.5653 11.6077C17.6113 11.598 17.6536 11.5755 17.6874 11.5428C17.895 11.3368 18.1749 11.2201 18.4674 11.2178C18.6136 11.2132 18.7593 11.2388 18.8952 11.293C19.0311 11.3472 19.1544 11.4289 19.2574 11.5328C19.3605 11.6359 19.4423 11.7583 19.4981 11.893C19.5539 12.0277 19.5826 12.172 19.5826 12.3178C19.5826 12.4636 19.5539 12.608 19.4981 12.7427C19.4423 12.8774 19.3605 12.9997 19.2574 13.1028C19.2257 13.1403 19.204 13.1851 19.1944 13.2332C19.1848 13.2813 19.1875 13.3311 19.2024 13.3778C19.2263 13.4216 19.2608 13.4587 19.3027 13.4857C19.3447 13.5128 19.3926 13.529 19.4424 13.5328C19.7348 13.5365 20.0146 13.653 20.2232 13.858C20.4319 14.0629 20.5534 14.3405 20.5624 14.6328C20.5611 14.7786 20.5311 14.9227 20.4741 15.0568C20.4171 15.191 20.3342 15.3126 20.2302 15.4148C20.1262 15.5169 20.0031 15.5976 19.8679 15.6522C19.7328 15.7067 19.5882 15.7341 19.4424 15.7328C19.3966 15.7347 19.3522 15.7487 19.3136 15.7732C19.2749 15.7978 19.2435 15.8322 19.2224 15.8728V15.8728C19.2062 15.9169 19.2027 15.9647 19.2125 16.0107C19.2222 16.0567 19.2447 16.099 19.2774 16.1328C19.4834 16.3404 19.6 16.6204 19.6024 16.9128C19.6049 17.0588 19.5784 17.2039 19.5243 17.3395C19.4702 17.4751 19.3897 17.5986 19.2874 17.7028C19.1843 17.8059 19.0619 17.8877 18.9272 17.9435C18.7925 17.9993 18.6482 18.028 18.5024 18.028C18.3566 18.028 18.2122 17.9993 18.0775 17.9435C17.9428 17.8877 17.8205 17.8059 17.7174 17.7028C17.6836 17.6701 17.6413 17.6476 17.5953 17.6379C17.5493 17.6282 17.5015 17.6316 17.4574 17.6478C17.4152 17.6722 17.3801 17.7071 17.3555 17.7492C17.331 17.7913 17.3178 17.8391 17.3174 17.8878C17.3137 18.1803 17.1972 18.46 16.9922 18.6687C16.7873 18.8773 16.5097 18.9988 16.2174 19.0078ZM14.8624 16.9028C14.995 16.9013 15.1264 16.9286 15.2474 16.9828C15.426 17.0573 15.5791 17.1819 15.6883 17.3416C15.7975 17.5014 15.8579 17.6894 15.8624 17.8828C15.861 17.9793 15.8973 18.0724 15.9636 18.1425C16.03 18.2125 16.121 18.2539 16.2174 18.2578C16.3137 18.2502 16.4036 18.2061 16.4686 18.1346C16.5336 18.0631 16.569 17.9695 16.5674 17.8728C16.5686 17.6787 16.6246 17.4889 16.729 17.3252C16.8334 17.1616 16.9819 17.0307 17.1574 16.9478C17.34 16.8719 17.541 16.8517 17.735 16.89C17.929 16.9283 18.1073 17.0232 18.2474 17.1628C18.3137 17.2291 18.4036 17.2664 18.4974 17.2664C18.5912 17.2664 18.6811 17.2291 18.7474 17.1628C18.8137 17.0965 18.8509 17.0066 18.8509 16.9128C18.8509 16.819 18.8137 16.7291 18.7474 16.6628C18.6086 16.5222 18.5146 16.3436 18.4773 16.1496C18.4399 15.9556 18.4608 15.7549 18.5374 15.5728C18.6163 15.3974 18.744 15.2484 18.9055 15.1437C19.0669 15.0391 19.255 14.9832 19.4474 14.9828C19.5425 14.9842 19.6344 14.9484 19.7035 14.883C19.7726 14.8176 19.8135 14.7279 19.8174 14.6328C19.811 14.536 19.7673 14.4454 19.6955 14.3802C19.6237 14.3149 19.5294 14.28 19.4324 14.2828C19.2367 14.2775 19.0463 14.2175 18.8829 14.1098C18.7194 14.002 18.5894 13.8506 18.5074 13.6728C18.4326 13.4884 18.413 13.2862 18.4512 13.0908C18.4894 12.8955 18.5836 12.7155 18.7224 12.5728C18.7552 12.54 18.7813 12.501 18.799 12.4581C18.8168 12.4152 18.8259 12.3692 18.8259 12.3228C18.8259 12.2764 18.8168 12.2304 18.799 12.1875C18.7813 12.1446 18.7552 12.1056 18.7224 12.0728C18.6896 12.04 18.6506 12.0139 18.6077 11.9962C18.5648 11.9784 18.5188 11.9693 18.4724 11.9693C18.426 11.9693 18.38 11.9784 18.3371 11.9962C18.2942 12.0139 18.2552 12.04 18.2224 12.0728C18.0818 12.2034 17.9066 12.2907 17.7178 12.3245C17.5289 12.3583 17.3343 12.337 17.1572 12.2632C16.9801 12.1894 16.828 12.0662 16.719 11.9083C16.61 11.7505 16.5487 11.5646 16.5424 11.3728C16.5438 11.2777 16.508 11.1858 16.4426 11.1167C16.3772 11.0476 16.2874 11.0067 16.1924 11.0028C16.0956 11.0092 16.005 11.0529 15.9397 11.1247C15.8745 11.1965 15.8396 11.2908 15.8424 11.3878C15.8371 11.5835 15.7771 11.7739 15.6693 11.9373C15.5615 12.1008 15.4102 12.2308 15.2324 12.3128C15.048 12.3876 14.8457 12.4072 14.6504 12.369C14.4551 12.3308 14.2751 12.2366 14.1324 12.0978C14.0996 12.065 14.0606 12.0389 14.0177 12.0212C13.9748 12.0034 13.9288 11.9943 13.8824 11.9943C13.836 11.9943 13.79 12.0034 13.7471 12.0212C13.7042 12.0389 13.6652 12.065 13.6324 12.0978C13.5996 12.1306 13.5735 12.1696 13.5557 12.2125C13.538 12.2554 13.5288 12.3014 13.5288 12.3478C13.5288 12.3942 13.538 12.4402 13.5557 12.4831C13.5735 12.526 13.5996 12.565 13.6324 12.5978C13.7703 12.739 13.8634 12.9178 13.8998 13.1118C13.9363 13.3058 13.9146 13.5062 13.8374 13.6878C13.7629 13.8664 13.6383 14.0196 13.4785 14.1287C13.3188 14.2379 13.1308 14.2984 12.9374 14.3028C12.8409 14.3014 12.7478 14.3378 12.6777 14.4041C12.6077 14.4704 12.5663 14.5614 12.5624 14.6578C12.57 14.7542 12.6141 14.844 12.6856 14.909C12.7571 14.9741 12.8507 15.0094 12.9474 15.0078C13.1415 15.009 13.3313 15.065 13.495 15.1694C13.6586 15.2738 13.7895 15.4223 13.8724 15.5978C13.9483 15.7804 13.9685 15.9814 13.9302 16.1754C13.8919 16.3694 13.797 16.5477 13.6574 16.6878C13.6246 16.7206 13.5985 16.7596 13.5807 16.8025C13.563 16.8454 13.5538 16.8914 13.5538 16.9378C13.5538 16.9842 13.563 17.0302 13.5807 17.0731C13.5985 17.116 13.6246 17.155 13.6574 17.1878C13.6902 17.2206 13.7292 17.2467 13.7721 17.2645C13.815 17.2822 13.861 17.2914 13.9074 17.2914C13.9538 17.2914 13.9998 17.2822 14.0427 17.2645C14.0856 17.2467 14.1246 17.2206 14.1574 17.1878C14.3474 17.0064 14.5996 16.9044 14.8624 16.9028V16.9028Z" fill="#605BFF"/>
</svg>
