<svg width="121" height="121" viewBox="0 0 121 121" fill="none" xmlns="http://www.w3.org/2000/svg">
<g clip-path="url(#clip0_1632_38434)">
<path d="M107 12H14C12.8954 12 12 12.8954 12 14V107C12 108.105 12.8954 109 14 109H107C108.105 109 109 108.105 109 107V14C109 12.8954 108.105 12 107 12Z" fill="#411980"/>
<path d="M105 14.5H16C15.1716 14.5 14.5 15.1716 14.5 16V105C14.5 105.828 15.1716 106.5 16 106.5H105C105.828 106.5 106.5 105.828 106.5 105V16C106.5 15.1716 105.828 14.5 105 14.5Z" fill="#411980" stroke="white"/>
<path d="M12 48.2278V65L69 12H51.974L12 48.2278Z" fill="#D9342B" stroke="#D9342B"/>
<path d="M30.8364 45.9715L25.4292 39.1212L27.6597 37.0393C28.1041 36.6245 28.5358 36.3648 28.9547 36.2604C29.3719 36.1537 29.7602 36.1728 30.1197 36.3175C30.4774 36.4599 30.7883 36.6984 31.0523 37.0329C31.2847 37.3272 31.4277 37.6159 31.4815 37.8987C31.5373 38.1797 31.5303 38.4496 31.4605 38.7084C31.3928 38.9653 31.2886 39.2058 31.1481 39.4299L31.2009 39.4968C31.4067 39.3279 31.661 39.2183 31.964 39.168C32.2669 39.1176 32.5833 39.1553 32.9134 39.281C33.2435 39.4067 33.5511 39.6501 33.8362 40.0114C34.1073 40.3548 34.2784 40.7315 34.3495 41.1414C34.4206 41.5514 34.3627 41.983 34.1759 42.4363C33.989 42.8896 33.6443 43.3507 33.1417 43.8199L30.8364 45.9715ZM31.0281 44.5146L32.5608 43.084C33.0655 42.6129 33.341 42.1737 33.3874 41.7664C33.4341 41.3549 33.3386 40.9986 33.101 40.6976C32.918 40.4657 32.6939 40.303 32.429 40.2095C32.1622 40.1137 31.8805 40.1018 31.5837 40.1736C31.2851 40.2431 30.9967 40.4078 30.7184 40.6675L29.1483 42.133L31.0281 44.5146ZM28.578 41.4105L30.011 40.073C30.2436 39.8559 30.4146 39.611 30.5241 39.3384C30.6356 39.0639 30.676 38.7861 30.6453 38.505C30.6166 38.2219 30.5072 37.9599 30.3171 37.7191C30.0795 37.4181 29.7804 37.2538 29.4197 37.2264C29.0573 37.1968 28.6642 37.3797 28.2405 37.7752L26.7826 39.136L28.578 41.4105ZM38.5329 38.9736C38.0719 39.404 37.5879 39.6659 37.0811 39.7595C36.5745 39.8489 36.0751 39.7805 35.5829 39.5545C35.091 39.3243 34.6373 38.946 34.2219 38.4198C33.8065 37.8935 33.5297 37.3463 33.3915 36.7782C33.2536 36.206 33.2567 35.657 33.4008 35.1313C33.5453 34.6015 33.8335 34.1349 34.2655 33.7317C34.5147 33.4991 34.796 33.314 35.1094 33.1764C35.4228 33.0388 35.7584 32.9773 36.1162 32.9919C36.4722 33.0043 36.8388 33.1191 37.2159 33.3364C37.593 33.5537 37.9708 33.9021 38.3492 34.3815L38.6132 34.716L34.9248 38.1587L34.3862 37.4764L37.327 34.7315C37.0982 34.4416 36.84 34.2334 36.5524 34.1067C36.267 33.9781 35.9737 33.9401 35.6725 33.9927C35.3735 34.0433 35.091 34.1927 34.8252 34.4409C34.5324 34.7142 34.3406 35.0287 34.2499 35.3845C34.1595 35.7361 34.1549 36.0889 34.2361 36.4431C34.3172 36.7972 34.4696 37.1159 34.6931 37.3991L35.0522 37.854C35.3584 38.242 35.6804 38.5127 36.018 38.6663C36.3559 38.8156 36.6924 38.8558 37.0276 38.787C37.361 38.7159 37.6762 38.5417 37.9732 38.2645C38.1664 38.0842 38.3179 37.8924 38.4279 37.6891C38.5382 37.4815 38.6039 37.2654 38.6248 37.0406C38.644 36.8135 38.6143 36.5817 38.5358 36.3452L39.415 35.8963C39.5445 36.2248 39.5983 36.5695 39.5767 36.9305C39.5533 37.2893 39.4549 37.6444 39.2816 37.996C39.1065 38.3454 38.8569 38.6712 38.5329 38.9736ZM39.5736 28.8934L40.1017 29.5623L37.622 31.8769L37.0939 31.2079L39.5736 28.8934ZM36.845 29.3024L37.5802 28.6162L41.4456 33.5131C41.6216 33.7361 41.7837 33.8752 41.9319 33.9305C42.0805 33.9816 42.2175 33.9815 42.343 33.9303C42.4687 33.8748 42.5856 33.7967 42.6936 33.6959C42.7746 33.6203 42.8375 33.5538 42.8824 33.4965C42.9255 33.4368 42.96 33.3892 42.9859 33.3534L43.6952 33.9229C43.6612 33.9895 43.6074 34.0745 43.534 34.178C43.4623 34.2836 43.3579 34.4004 43.2208 34.5284C43.0131 34.7222 42.7718 34.8642 42.4967 34.9544C42.2237 35.0427 41.9444 35.0498 41.6586 34.9757C41.375 34.8996 41.1152 34.7122 40.8793 34.4134L36.845 29.3024ZM46.2381 31.805C45.9349 32.088 45.6113 32.2836 45.2673 32.3916C44.9216 32.4974 44.5837 32.5011 44.2535 32.4026C43.9215 32.3019 43.6235 32.0844 43.3595 31.7499C43.1272 31.4555 42.9928 31.1665 42.9565 30.8829C42.9184 30.597 42.9483 30.3173 43.0463 30.0439C43.1442 29.7704 43.282 29.5063 43.4596 29.2514C43.6375 28.9924 43.8252 28.7436 44.0228 28.505C44.2819 28.1935 44.4938 27.9434 44.6587 27.7546C44.8238 27.5618 44.9277 27.4009 44.9703 27.2721C45.0149 27.1413 44.9871 27.0124 44.8868 26.8853L44.8657 26.8585C44.6052 26.5285 44.3186 26.3505 44.0061 26.3247C43.6956 26.2969 43.3711 26.441 43.0326 26.757C42.6816 27.0846 42.4715 27.4239 42.4024 27.7751C42.3333 28.1262 42.3322 28.4332 42.399 28.6961L41.49 29.0798C41.3682 28.6513 41.3425 28.2532 41.4129 27.8854C41.4836 27.5134 41.6152 27.1776 41.8078 26.8778C42.0007 26.5738 42.2176 26.3094 42.4585 26.0845C42.6122 25.9411 42.8045 25.7964 43.0356 25.6504C43.267 25.5003 43.5236 25.3982 43.8056 25.3442C44.0896 25.2882 44.3899 25.3236 44.7063 25.4503C45.0228 25.5771 45.3421 25.8445 45.6642 26.2526L48.3362 29.6376L47.601 30.3238L47.0518 29.6281L47.0144 29.663C47.0526 29.821 47.0637 30.0178 47.0477 30.2535C47.0317 30.4891 46.9624 30.7417 46.8396 31.0112C46.7169 31.2807 46.5164 31.5453 46.2381 31.805ZM45.7905 30.9912C46.0813 30.7198 46.2779 30.4298 46.3805 30.121C46.4851 29.8104 46.5118 29.5105 46.4604 29.2216C46.4111 28.9306 46.302 28.6781 46.133 28.4641L45.5627 27.7416C45.5632 27.8108 45.5237 27.9115 45.4442 28.0438C45.365 28.172 45.2666 28.3123 45.1489 28.4648C45.0315 28.6131 44.9154 28.7562 44.8007 28.8942C44.6864 29.0281 44.5941 29.1374 44.524 29.2222C44.3541 29.4273 44.2098 29.6375 44.0912 29.8528C43.9729 30.0639 43.9095 30.2761 43.901 30.4892C43.8928 30.6983 43.968 30.9031 44.1264 31.1038C44.3429 31.3781 44.6011 31.4973 44.901 31.4613C45.2012 31.4213 45.4977 31.2646 45.7905 30.9912Z" fill="white"/>
<path d="M85.03 61.015C86.1346 61.015 87.0374 61.9117 86.9587 63.0134C86.5804 68.3035 84.7064 73.3929 81.5355 77.6784C77.967 82.5012 72.9445 86.051 67.2072 87.8054C61.47 89.5598 55.3211 89.4261 49.6655 87.4239C44.01 85.4216 39.1466 81.6567 35.7912 76.6833C32.4358 71.7098 30.7656 65.7906 31.0265 59.7967C31.2874 53.8029 33.4656 48.0512 37.2404 43.3881C41.0153 38.725 46.1874 35.3969 51.9955 33.8937C57.1565 32.5579 62.5773 32.7257 67.6243 34.3556C68.6754 34.6951 69.1688 35.868 68.7552 36.8922L68.2611 38.116C67.8476 39.1402 66.6838 39.6261 65.6271 39.3043C61.6421 38.0906 57.3861 37.9935 53.3284 39.0437C48.6232 40.2615 44.4332 42.9576 41.3752 46.7352C38.3171 50.5129 36.5525 55.1724 36.3412 60.0281C36.1298 64.8837 37.4829 69.679 40.2011 73.708C42.9194 77.7371 46.8593 80.7871 51.4409 82.4091C56.0225 84.0311 61.0038 84.1395 65.6516 82.7182C70.2994 81.297 74.3682 78.4212 77.2591 74.5142C79.7522 71.1448 81.2556 67.162 81.6222 63.0125C81.7194 61.9122 82.6057 61.015 83.7103 61.015H85.03Z" fill="white"/>
<path d="M66 59C64.8954 59 64 59.8954 64 61C64 62.1046 64.8954 63 66 63V59ZM66 63H87V59H66V63Z" fill="white"/>
<path d="M46.7082 65.7128C46.7983 65.9493 46.8969 65.9965 46.9258 66.0051L53.8289 68.0597L54.3407 68.2121L54.1552 68.7127L46.2459 90.0545L46.1383 90.4161L46.1371 90.4203C45.9607 90.9947 45.8792 91.5723 45.8969 92.0598C45.9129 92.4992 46.0061 92.7892 46.1071 92.9471C46.108 92.947 46.1089 92.947 46.1099 92.9469L46.2279 92.9368L46.3379 92.9808C46.3585 92.9891 46.4359 93.0111 46.6029 92.9108M46.7082 65.7128L46.2429 65.8901M46.7082 65.7128C46.6191 65.479 46.5696 65.1326 46.5922 64.6991L46.5927 64.685C46.603 64.2507 46.6822 63.7665 46.8253 63.2854C46.9685 62.8044 47.1671 62.3556 47.3959 61.9864L47.3974 61.9839L54.1388 50.9636L67.314 30.5432L67.3182 30.5366C67.5953 30.0919 67.8708 29.8515 68.0647 29.77C68.1526 29.7331 68.2011 29.7376 68.2218 29.7425C68.2404 29.7469 68.2767 29.7606 68.3253 29.8208L68.3335 29.8308C68.4502 29.9681 68.5698 30.2753 68.5881 30.7787C68.6059 31.2662 68.5243 31.8438 68.348 32.4182L68.3467 32.4224L68.2391 32.784L60.3299 54.1258L60.1443 54.6264L60.6561 54.7787L67.5752 56.8381C67.604 56.8466 67.7026 56.8939 67.7928 57.1304C67.8819 57.3643 67.9313 57.7106 67.9088 58.1441L67.9082 58.1582C67.8979 58.5925 67.8188 59.0768 67.6756 59.5578C67.5324 60.0389 67.3339 60.4876 67.105 60.8569L67.1035 60.8593L60.3621 71.8796L47.1917 92.2929C47.1909 92.294 47.1902 92.2951 47.1894 92.2963C46.9803 92.6077 46.7732 92.8084 46.6029 92.9108M46.6029 92.9108L46.8604 93.3394" stroke="white"/>
<path d="M0 73L0 75H12V73H0Z" fill="#CECCCC" fill-opacity="0.49"/>
<g style="mix-blend-mode:multiply" opacity="0.8">
<path d="M5 72V76H12V72H5Z" fill="#B3B3B3" fill-opacity="0.54"/>
</g>
<path d="M72 121H74V109H72V121Z" fill="#CECCCC" fill-opacity="0.49"/>
<g style="mix-blend-mode:multiply" opacity="0.8">
<path d="M71 116H75V109H71V116Z" fill="#B3B3B3" fill-opacity="0.54"/>
</g>
<path d="M47 0H45V12H47V0Z" fill="#CECCCC" fill-opacity="0.49"/>
<g style="mix-blend-mode:multiply" opacity="0.8">
<path d="M48 5H44V12H48V5Z" fill="#B3B3B3" fill-opacity="0.54"/>
</g>
<path d="M121 48V46H109V48H121Z" fill="#CECCCC" fill-opacity="0.49"/>
<g style="mix-blend-mode:multiply" opacity="0.8">
<path d="M116 49V45H109V49H116Z" fill="#B3B3B3" fill-opacity="0.54"/>
</g>
<path d="M0 64L0 66H12V64H0Z" fill="#CECCCC" fill-opacity="0.49"/>
<g style="mix-blend-mode:multiply" opacity="0.8">
<path d="M5 63V67H12V63H5Z" fill="#B3B3B3" fill-opacity="0.54"/>
</g>
<path d="M63 121H65V109H63V121Z" fill="#CECCCC" fill-opacity="0.49"/>
<g style="mix-blend-mode:multiply" opacity="0.8">
<path d="M62 116H66V109H62V116Z" fill="#B3B3B3" fill-opacity="0.54"/>
</g>
<path d="M56 0H54V12H56V0Z" fill="#CECCCC" fill-opacity="0.49"/>
<g style="mix-blend-mode:multiply" opacity="0.8">
<path d="M57 5H53V12H57V5Z" fill="#B3B3B3" fill-opacity="0.54"/>
</g>
<path d="M121 57V55H109V57H121Z" fill="#CECCCC" fill-opacity="0.49"/>
<g style="mix-blend-mode:multiply" opacity="0.8">
<path d="M116 58V54H109V58H116Z" fill="#B3B3B3" fill-opacity="0.54"/>
</g>
<path d="M0 55L0 57H12V55H0Z" fill="#CECCCC" fill-opacity="0.49"/>
<g style="mix-blend-mode:multiply" opacity="0.8">
<path d="M5 54V58H12V54H5Z" fill="#B3B3B3" fill-opacity="0.54"/>
</g>
<path d="M54 121H56V109H54V121Z" fill="#CECCCC" fill-opacity="0.49"/>
<g style="mix-blend-mode:multiply" opacity="0.8">
<path d="M53 116H57V109H53V116Z" fill="#B3B3B3" fill-opacity="0.54"/>
</g>
<path d="M65 0H63V12H65V0Z" fill="#CECCCC" fill-opacity="0.49"/>
<g style="mix-blend-mode:multiply" opacity="0.8">
<path d="M66 5H62V12H66V5Z" fill="#B3B3B3" fill-opacity="0.54"/>
</g>
<path d="M121 66V64H109V66H121Z" fill="#CECCCC" fill-opacity="0.49"/>
<g style="mix-blend-mode:multiply" opacity="0.8">
<path d="M116 67V63H109V67H116Z" fill="#B3B3B3" fill-opacity="0.54"/>
</g>
<path d="M0 46L0 48H12V46H0Z" fill="#CECCCC" fill-opacity="0.49"/>
<g style="mix-blend-mode:multiply" opacity="0.8">
<path d="M5 45V49H12V45H5Z" fill="#B3B3B3" fill-opacity="0.54"/>
</g>
<path d="M45 121H47V109H45V121Z" fill="#CECCCC" fill-opacity="0.49"/>
<g style="mix-blend-mode:multiply" opacity="0.8">
<path d="M44 116H48V109H44V116Z" fill="#B3B3B3" fill-opacity="0.54"/>
</g>
<path d="M74 0H72V12H74V0Z" fill="#CECCCC" fill-opacity="0.49"/>
<g style="mix-blend-mode:multiply" opacity="0.8">
<path d="M75 5H71V12H75V5Z" fill="#B3B3B3" fill-opacity="0.54"/>
</g>
<path d="M121 75V73H109V75H121Z" fill="#CECCCC" fill-opacity="0.49"/>
<g style="mix-blend-mode:multiply" opacity="0.8">
<path d="M116 76V72H109V76H116Z" fill="#B3B3B3" fill-opacity="0.54"/>
</g>
</g>
<defs>
<clipPath id="clip0_1632_38434">
<rect width="121" height="121" fill="white"/>
</clipPath>
</defs>
</svg>
