<svg width="24" height="24" viewBox="0 0 24 24" fill="none" xmlns="http://www.w3.org/2000/svg">
<path d="M18.53 9L13 3.47C12.8595 3.32931 12.6688 3.25018 12.47 3.25H8C7.27065 3.25 6.57118 3.53973 6.05546 4.05546C5.53973 4.57118 5.25 5.27065 5.25 6V18C5.25 18.7293 5.53973 19.4288 6.05546 19.9445C6.57118 20.4603 7.27065 20.75 8 20.75H16C16.7293 20.75 17.4288 20.4603 17.9445 19.9445C18.4603 19.4288 18.75 18.7293 18.75 18V9.5C18.7421 9.3116 18.6636 9.13309 18.53 9ZM13.25 5.81L16.19 8.75H13.25V5.81ZM16 19.25H8C7.66848 19.25 7.35054 19.1183 7.11612 18.8839C6.8817 18.6495 6.75 18.3315 6.75 18V6C6.75 5.66848 6.8817 5.35054 7.11612 5.11612C7.35054 4.8817 7.66848 4.75 8 4.75H11.75V9.5C11.7526 9.69811 11.8324 9.88737 11.9725 10.0275C12.1126 10.1676 12.3019 10.2474 12.5 10.25H17.25V18C17.25 18.3315 17.1183 18.6495 16.8839 18.8839C16.6495 19.1183 16.3315 19.25 16 19.25Z" fill="#212121"/>
<rect width="4" height="5" transform="translate(4.5 16)" fill="white"/>
<path d="M6.64453 20L6.36523 19.207H5.27344L4.99414 20H4.5L5.5625 17.1328H6.08203L7.14258 20H6.64453ZM6.24414 18.8047L5.97266 18.0234C5.96224 17.9896 5.94727 17.9421 5.92773 17.8809C5.9082 17.8184 5.88867 17.7552 5.86914 17.6914C5.84961 17.6263 5.83333 17.5716 5.82031 17.5273C5.80729 17.5807 5.79102 17.6406 5.77148 17.707C5.75326 17.7721 5.73503 17.8333 5.7168 17.8906C5.69987 17.9479 5.68685 17.9922 5.67773 18.0234L5.4043 18.8047H6.24414ZM7.52753 20V17.1445H7.99628V20H7.52753Z" fill="#212121"/>
</svg>
