<svg width="435" height="424" viewBox="0 0 435 424" fill="none" xmlns="http://www.w3.org/2000/svg">
<path d="M343.123 342C252.123 409 60.6231 305 165.623 143C-17.315 271.589 199.123 525.501 343.123 342Z" fill="#1EC4EE" fill-opacity="0.12"/>
<path d="M343.123 342C252.123 409 60.6231 305 165.623 143C-17.315 271.589 199.123 525.501 343.123 342Z" fill="#1EC4EE" fill-opacity="0.12"/>
<path d="M87.1856 345.956C25.7936 255.69 108.124 72.4999 281.357 161.88C149.448 -18.6794 -99.8767 216.5 87.1856 345.956Z" fill="#1EC4EE" fill-opacity="0.12"/>
<path d="M87.1856 345.956C25.7936 255.69 108.124 72.4999 281.357 161.88C149.448 -18.6794 -99.8767 216.5 87.1856 345.956Z" fill="#1EC4EE" fill-opacity="0.12"/>
<path d="M153.85 275.305C292.959 451.039 521.03 205.041 337.24 79.4163C412.25 186.032 297.573 348.741 153.85 275.305Z" fill="#1EC4EE" fill-opacity="0.12"/>
<path d="M285.623 172C193.123 81.5 10.8233 167.8 63.6233 321C-84.8768 150 187.123 -26.5 285.623 172Z" fill="#1EC4EE"/>
<path d="M285.623 172C193.123 81.5 10.8233 167.8 63.6233 321C-84.8768 150 187.123 -26.5 285.623 172Z" fill="#1EC4EE"/>
<path d="M318.623 366C219.623 412 55.6231 284.5 167.123 142.5C-32.377 243.5 150.623 505 318.623 366Z" fill="#1EC4EE"/>
<path d="M318.623 366C219.623 412 55.6231 284.5 167.123 142.5C-32.377 243.5 150.623 505 318.623 366Z" fill="#1EC4EE"/>
<path d="M105.623 66.5002C209.623 20.5001 364.623 144.1 256.623 288.5C473.123 166 238.623 -75 105.623 66.5002Z" fill="#1EC4EE"/>
<path d="M105.623 66.5002C209.623 20.5001 364.623 144.1 256.623 288.5C473.123 166 238.623 -75 105.623 66.5002Z" fill="#1EC4EE"/>
<path d="M80.1645 89.6104C173.018 23.9575 349.394 114.475 272.073 277.376C460.082 114.492 182.565 -75.3909 80.1645 89.6104Z" fill="#1EC4EE" fill-opacity="0.12"/>
<path d="M137.623 257.5C232.623 460.5 511.123 273.5 361.123 109C409.623 230 260.623 362 137.623 257.5Z" fill="#1EC4EE"/>
<path d="M137.623 257.5C232.623 460.5 511.123 273.5 361.123 109C409.623 230 260.623 362 137.623 257.5Z" fill="#1EC4EE"/>
</svg>
