<svg width="25" height="24" viewBox="0 0 25 24" fill="none" xmlns="http://www.w3.org/2000/svg">
<path d="M2.24969 7.76289C1.28341 7.76249 0.500238 8.42702 0.5 9.24431L0.501192 15.4469C0.501035 15.6415 0.546202 15.8342 0.63411 16.014C0.722017 16.1939 0.850942 16.3573 1.01351 16.4949C1.17608 16.6325 1.3691 16.7417 1.58154 16.8161C1.79398 16.8905 2.02167 16.9288 2.2516 16.9287C2.48149 16.9289 2.70917 16.8907 2.9216 16.8163C3.13403 16.7419 3.32703 16.6328 3.48954 16.4952C3.65206 16.3575 3.78089 16.1941 3.86866 16.0143C3.95644 15.8344 4.00142 15.6417 4.00105 15.4471V9.2435C4.00054 8.85064 3.81579 8.47401 3.4874 8.19638C3.159 7.91876 2.71383 7.76284 2.24969 7.76289ZM16.3616 2.19278L17.583 0.304933C17.6141 0.257042 17.6215 0.200663 17.6036 0.148156C17.5857 0.0956487 17.5439 0.0512998 17.4874 0.024833C17.4308 -0.00107945 17.3644 -0.00698646 17.3027 0.00840137C17.2409 0.0237892 17.1889 0.0592222 17.1579 0.106966L15.9242 2.01459C14.8861 1.6235 13.7244 1.40434 12.4951 1.40535C11.2692 1.40434 10.1079 1.62289 9.07417 2.01177L7.83897 0.108984C7.82389 0.0852327 7.80339 0.0642501 7.77867 0.0472514C7.75394 0.0302528 7.72547 0.0175761 7.69492 0.00995571C7.66436 0.00233529 7.63232 -7.73914e-05 7.60065 0.00285739C7.56899 0.00579217 7.53832 0.0140161 7.51044 0.0270528C7.48229 0.0397894 7.45742 0.0571503 7.43729 0.0781197C7.41716 0.0990892 7.40217 0.123246 7.3932 0.149177C7.38423 0.175109 7.38146 0.202294 7.38506 0.229141C7.38865 0.255989 7.39853 0.281962 7.41412 0.305538L8.63597 2.19218C6.23519 3.24013 4.61305 5.23594 4.61448 7.52739L20.3777 7.52578C20.3784 5.23513 18.7591 3.24336 16.3616 2.19278ZM8.90991 5.11022C8.7346 5.11014 8.56651 5.05111 8.44262 4.94613C8.31873 4.84115 8.24918 4.69881 8.24927 4.55042C8.24937 4.40203 8.3191 4.25976 8.44312 4.15489C8.56715 4.05002 8.73532 3.99115 8.91062 3.99123C9.08595 3.9915 9.25401 4.05056 9.378 4.15547C9.502 4.26039 9.57183 4.40262 9.57221 4.55103C9.57195 4.69951 9.50204 4.84183 9.37784 4.9467C9.25364 5.05156 9.08533 5.11038 8.90991 5.11022ZM16.0877 5.10901C16.0009 5.10906 15.915 5.09463 15.8348 5.06655C15.7546 5.03847 15.6817 4.99729 15.6203 4.94535C15.559 4.89342 15.5103 4.83176 15.4771 4.76389C15.4439 4.69602 15.4268 4.62327 15.4268 4.54982C15.4278 4.40155 15.4977 4.25957 15.6214 4.15464C15.7452 4.04971 15.9128 3.99027 16.0879 3.98921C16.263 3.99043 16.4303 4.04999 16.5538 4.15496C16.6773 4.25994 16.7469 4.40188 16.7476 4.55002C16.7477 4.62341 16.7307 4.69611 16.6976 4.76393C16.6645 4.83176 16.6159 4.8934 16.5546 4.94532C16.4933 4.99723 16.4205 5.03841 16.3404 5.0665C16.2603 5.09459 16.1744 5.10903 16.0877 5.10901ZM4.67885 8.04279L4.68147 17.6556C4.68119 17.8632 4.72929 18.0688 4.82303 18.2607C4.91677 18.4525 5.0543 18.6268 5.22775 18.7736C5.4012 18.9204 5.60715 19.0368 5.83382 19.1161C6.06049 19.1955 6.30342 19.2361 6.54869 19.2359L7.82013 19.2363L7.82156 22.5184C7.82133 23.3357 8.60617 24 9.5703 24C10.5373 24 11.3207 23.3351 11.3209 22.5174L11.32 19.2361L13.6824 19.2355L13.6833 22.5174C13.6833 23.3341 14.4684 23.9998 15.4328 23.9982C16.3998 23.9988 17.1837 23.3339 17.1834 22.5162L17.1822 19.2351L18.4582 19.2343C18.7035 19.2343 18.9464 19.1934 19.1731 19.114C19.3997 19.0346 19.6056 18.9181 19.7791 18.7713C19.9526 18.6245 20.0902 18.4502 20.1841 18.2584C20.278 18.0666 20.3264 17.861 20.3264 17.6534L20.3243 8.04057L4.67885 8.04279ZM24.4988 9.24209C24.4988 9.04756 24.4536 8.85493 24.3656 8.67521C24.2777 8.49548 24.1488 8.33219 23.9862 8.19465C23.8237 8.05712 23.6308 7.94804 23.4184 7.87364C23.206 7.79925 22.9785 7.76099 22.7486 7.76107C21.7824 7.76027 20.9994 8.4244 20.9994 9.2427L21.0009 15.4457C21.0007 15.6402 21.0459 15.8328 21.1337 16.0126C21.2216 16.1923 21.3505 16.3556 21.513 16.4932C21.6755 16.6307 21.8684 16.7398 22.0808 16.8142C22.2931 16.8886 22.5207 16.9268 22.7505 16.9267C22.9804 16.9267 23.208 16.8884 23.4203 16.8139C23.6327 16.7394 23.8256 16.6303 23.9881 16.4927C24.1506 16.355 24.2794 16.1917 24.3672 16.0119C24.4551 15.8321 24.5002 15.6394 24.5 15.4448L24.4988 9.24209Z" fill="#4CD07D"/>
</svg>
