<svg width="15" height="14" viewBox="0 0 15 14" fill="none" xmlns="http://www.w3.org/2000/svg">
<path d="M8.66797 7.14649C8.23532 7.14649 7.81239 7.01819 7.45266 6.77783C7.09293 6.53746 6.81255 6.19582 6.64698 5.79611C6.48142 5.39639 6.4381 4.95656 6.5225 4.53223C6.60691 4.10789 6.81525 3.71812 7.12117 3.41219C7.4271 3.10626 7.81688 2.89792 8.24121 2.81352C8.66554 2.72911 9.10538 2.77243 9.50509 2.938C9.9048 3.10357 10.2464 3.38394 10.4868 3.74368C10.7272 4.10341 10.8555 4.52634 10.8555 4.95899C10.8555 5.53915 10.625 6.09555 10.2148 6.50578C9.80453 6.91602 9.24813 7.14649 8.66797 7.14649ZM8.66797 3.64649C8.40838 3.64649 8.15462 3.72346 7.93878 3.86768C7.72294 4.0119 7.55472 4.21689 7.45538 4.45671C7.35604 4.69654 7.33005 4.96044 7.38069 5.21504C7.43133 5.46964 7.55634 5.70351 7.73989 5.88706C7.92345 6.07062 8.15731 6.19562 8.41191 6.24627C8.66651 6.29691 8.93041 6.27092 9.17024 6.17158C9.41007 6.07224 9.61505 5.90401 9.75927 5.68817C9.90349 5.47233 9.98047 5.21857 9.98047 4.95899C9.98047 4.61089 9.84219 4.27705 9.59605 4.03091C9.34991 3.78477 9.01607 3.64649 8.66797 3.64649V3.64649Z" fill="#212121"/>
<path d="M12.7487 11.2298C12.6331 11.2283 12.5227 11.1817 12.441 11.1C12.3593 11.0183 12.3127 10.9079 12.3112 10.7923C12.3112 9.65482 11.6929 8.89648 8.66536 8.89648C5.63786 8.89648 5.01953 9.65482 5.01953 10.7923C5.01953 10.9083 4.97344 11.0196 4.89139 11.1017C4.80934 11.1837 4.69806 11.2298 4.58203 11.2298C4.466 11.2298 4.35472 11.1837 4.27267 11.1017C4.19062 11.0196 4.14453 10.9083 4.14453 10.7923C4.14453 8.02148 7.31203 8.02148 8.66536 8.02148C10.0187 8.02148 13.1862 8.02148 13.1862 10.7923C13.1847 10.9079 13.1381 11.0183 13.0564 11.1C12.9747 11.1817 12.8643 11.2283 12.7487 11.2298V11.2298Z" fill="#212121"/>
<path d="M5.35379 7.61949H5.16712C4.70299 7.57463 4.2757 7.34722 3.97923 6.98731C3.68277 6.6274 3.54142 6.16445 3.58629 5.70032C3.63115 5.2362 3.85856 4.8089 4.21847 4.51244C4.57838 4.21597 5.04133 4.07462 5.50545 4.11949C5.56497 4.12205 5.62333 4.13673 5.67696 4.16264C5.7306 4.18855 5.77838 4.22514 5.81738 4.27017C5.85638 4.31519 5.88577 4.36771 5.90375 4.4245C5.92174 4.48128 5.92793 4.54114 5.92197 4.60041C5.916 4.65968 5.898 4.7171 5.86905 4.76916C5.84011 4.82123 5.80084 4.86683 5.75365 4.90318C5.70646 4.93953 5.65235 4.96586 5.59462 4.98056C5.5369 4.99526 5.47678 4.99801 5.41795 4.98866C5.30408 4.9773 5.18909 4.98901 5.07985 5.02309C4.9706 5.05717 4.86934 5.11291 4.78212 5.18699C4.69353 5.25845 4.62005 5.34683 4.56597 5.44698C4.51189 5.54714 4.47828 5.65705 4.46712 5.77032C4.45506 5.88502 4.46594 6.00096 4.49914 6.11141C4.53233 6.22185 4.58717 6.32459 4.66047 6.41362C4.73376 6.50266 4.82404 6.57623 4.92605 6.63003C5.02805 6.68383 5.13975 6.71679 5.25462 6.72699C5.44452 6.74324 5.63463 6.69826 5.79712 6.59866C5.89614 6.53755 6.01537 6.51827 6.1286 6.54508C6.24182 6.57188 6.33976 6.64256 6.40087 6.74157C6.46198 6.84059 6.48126 6.95982 6.45445 7.07305C6.42765 7.18627 6.35697 7.28421 6.25795 7.34532C5.9874 7.51788 5.67461 7.61273 5.35379 7.61949V7.61949Z" fill="#212121"/>
<path d="M2.25 10.793C2.13444 10.7915 2.02403 10.7449 1.94231 10.6632C1.86059 10.5814 1.81401 10.471 1.8125 10.3555C1.8125 8.78047 2.2325 7.73047 4.29167 7.73047C4.4077 7.73047 4.51898 7.77656 4.60103 7.85861C4.68307 7.94066 4.72917 8.05194 4.72917 8.16797C4.72917 8.284 4.68307 8.39528 4.60103 8.47733C4.51898 8.55937 4.4077 8.60547 4.29167 8.60547C2.92083 8.60547 2.6875 9.04297 2.6875 10.3555C2.68599 10.471 2.63941 10.5814 2.55769 10.6632C2.47597 10.7449 2.36556 10.7915 2.25 10.793V10.793Z" fill="#212121"/>
</svg>
