<svg width="420" height="183" viewBox="0 0 420 183" fill="none" xmlns="http://www.w3.org/2000/svg">
<path d="M273.67 119.66C273.83 119.94 273.94 120.19 274 120.41C274.05 120.63 274.08 120.91 274.08 121.25C274.08 121.64 274 122.03 273.84 122.42C273.68 122.76 273.43 123.07 273.11 123.34C272.84 123.62 272.49 123.82 272.05 123.93C271.67 124.1 271.26 124.18 270.83 124.18C270.12 124.18 269.53 124.01 269.04 123.68C268.55 123.34 268.17 122.84 267.9 122.17C263.01 110.86 255.73 93.9 246.07 71.29C241.24 82.6 233.99 99.56 224.32 122.17C224.05 122.84 223.64 123.34 223.1 123.68C222.61 124.02 222.04 124.18 221.39 124.18C220.9 124.18 220.47 124.1 220.09 123.93C219.71 123.76 219.36 123.54 219.03 123.26C218.65 122.93 218.38 122.59 218.22 122.25C218.06 121.86 217.98 121.47 217.98 121.08C217.98 120.8 218.01 120.55 218.06 120.32C218.11 120.15 218.19 119.93 218.3 119.65C223.62 107.45 231.63 89.12 242.33 64.65C242.49 64.26 242.71 63.92 242.98 63.64C243.25 63.36 243.55 63.11 243.88 62.88C244.21 62.66 244.53 62.52 244.86 62.46C245.24 62.35 245.62 62.29 246 62.29C246.43 62.29 246.81 62.35 247.14 62.46C247.52 62.57 247.9 62.74 248.28 62.96C248.61 63.18 248.9 63.44 249.18 63.72C249.45 64 249.64 64.31 249.75 64.64C253.77 73.82 257.76 83 261.73 92.18C265.75 101.3 269.74 110.46 273.71 119.64L273.67 119.66Z" fill="#8033FF"/>
<path d="M328.25 62.82C328.79 62.48 329.36 62.31 329.96 62.31C330.88 62.31 331.7 62.62 332.4 63.24C333.05 63.8 333.38 64.53 333.38 65.43C333.38 65.88 333.27 66.33 333.05 66.78C327.73 79.01 319.74 97.32 309.1 121.72C308.77 122.51 308.29 123.09 307.63 123.49C306.98 123.88 306.25 124.08 305.43 124.08C304.67 124.08 303.96 123.88 303.31 123.49C302.6 123.1 302.09 122.51 301.76 121.72C296.49 109.55 288.53 91.23 277.89 66.78C277.73 66.33 277.65 65.91 277.65 65.52C277.65 64.57 278.03 63.81 278.79 63.25C279.5 62.63 280.28 62.32 281.15 62.32C282.51 62.32 283.49 62.97 284.08 64.26C288.86 75.42 296.03 92.17 305.59 114.49C309.17 106.13 316.32 89.39 327.02 64.26C327.35 63.64 327.75 63.17 328.24 62.83L328.25 62.82Z" fill="#8033FF"/>
<path d="M344.89 93.28C344.89 88.88 345.72 84.75 347.39 80.89C349.06 77.03 351.33 73.65 354.19 70.75C357.06 67.86 360.42 65.57 364.29 63.91C368.16 62.24 372.29 61.41 376.68 61.41C381.07 61.41 385.12 62.25 388.99 63.91C392.86 65.58 396.22 67.86 399.09 70.75C401.96 73.64 404.22 77.03 405.89 80.89C407.56 84.76 408.39 88.89 408.39 93.28C408.39 97.67 407.56 101.79 405.89 105.63C404.22 109.47 401.95 112.82 399.09 115.69C396.22 118.56 392.86 120.82 388.99 122.49C385.12 124.16 380.99 124.99 376.6 124.99C372.21 124.99 368.09 124.15 364.25 122.49C360.41 120.82 357.06 118.55 354.19 115.69C351.32 112.82 349.06 109.47 347.39 105.63C345.72 101.79 344.89 97.67 344.89 93.28ZM350.55 93.2C350.55 96.81 351.24 100.2 352.61 103.35C353.99 106.51 355.85 109.26 358.19 111.6C360.54 113.95 363.3 115.81 366.48 117.18C369.66 118.55 373.06 119.24 376.67 119.24C380.28 119.24 383.6 118.55 386.78 117.18C389.96 115.8 392.73 113.94 395.07 111.6C397.42 109.25 399.28 106.5 400.65 103.35C402.03 100.19 402.71 96.81 402.71 93.2C402.71 89.59 402.02 86.27 400.65 83.09C399.27 79.91 397.41 77.14 395.07 74.8C392.72 72.45 389.96 70.59 386.78 69.22C383.6 67.85 380.23 67.16 376.67 67.16C373.11 67.16 369.66 67.85 366.48 69.22C363.3 70.6 360.53 72.46 358.19 74.8C355.84 77.15 353.98 79.91 352.61 83.09C351.23 86.28 350.55 89.64 350.55 93.2Z" fill="#8033FF"/>
<path d="M302.086 157.435C300.625 157.434 299.261 157.238 297.995 156.848C296.729 156.433 295.682 155.86 294.854 155.129L295.879 153.047C296.779 153.754 297.753 154.278 298.8 154.62C299.871 154.962 300.979 155.133 302.124 155.134C303.585 155.135 304.681 154.88 305.412 154.369C306.168 153.834 306.545 153.103 306.546 152.178C306.547 151.472 306.303 150.911 305.817 150.497C305.354 150.058 304.587 149.717 303.516 149.472L300.119 148.776C298.561 148.434 297.392 147.861 296.614 147.057C295.835 146.228 295.446 145.181 295.447 143.914C295.448 142.843 295.728 141.905 296.289 141.102C296.85 140.274 297.666 139.63 298.738 139.168C299.81 138.681 301.064 138.439 302.501 138.44C303.84 138.441 305.07 138.649 306.19 139.063C307.334 139.454 308.284 140.027 309.038 140.782L307.977 142.827C307.247 142.12 306.407 141.596 305.458 141.255C304.533 140.889 303.571 140.705 302.572 140.705C301.136 140.704 300.052 140.995 299.321 141.579C298.614 142.139 298.26 142.881 298.26 143.807C298.259 144.513 298.478 145.098 298.916 145.561C299.378 145.999 300.084 146.329 301.034 146.548L304.431 147.245C306.087 147.611 307.316 148.184 308.119 148.964C308.947 149.72 309.36 150.743 309.359 152.034C309.358 153.13 309.053 154.091 308.444 154.919C307.834 155.722 306.982 156.343 305.885 156.78C304.814 157.218 303.547 157.436 302.086 157.435ZM320.208 157.448C318.747 157.447 317.383 157.251 316.117 156.86C314.851 156.445 313.804 155.872 312.977 155.141L314.001 153.06C314.902 153.767 315.875 154.291 316.922 154.633C317.994 154.974 319.102 155.146 320.246 155.146C321.707 155.147 322.804 154.892 323.534 154.381C324.29 153.846 324.668 153.116 324.668 152.19C324.669 151.484 324.426 150.924 323.939 150.51C323.477 150.071 322.71 149.729 321.638 149.485L318.242 148.789C316.683 148.447 315.515 147.874 314.736 147.069C313.957 146.241 313.568 145.193 313.569 143.927C313.57 142.855 313.851 141.918 314.411 141.115C314.972 140.287 315.788 139.642 316.86 139.18C317.932 138.694 319.186 138.451 320.623 138.452C321.963 138.453 323.192 138.661 324.312 139.076C325.457 139.466 326.406 140.039 327.16 140.795L326.1 142.84C325.37 142.133 324.53 141.609 323.58 141.267C322.655 140.901 321.693 140.718 320.695 140.717C319.258 140.716 318.174 141.008 317.443 141.592C316.736 142.151 316.383 142.894 316.382 143.819C316.381 144.526 316.6 145.11 317.038 145.573C317.501 146.012 318.207 146.341 319.156 146.561L322.553 147.257C324.209 147.624 325.438 148.197 326.241 148.977C327.069 149.732 327.482 150.756 327.481 152.046C327.481 153.142 327.175 154.104 326.566 154.932C325.957 155.735 325.104 156.355 324.008 156.793C322.936 157.23 321.669 157.449 320.208 157.448ZM338.696 157.461C336.528 157.459 334.885 156.861 333.765 155.667C332.67 154.473 332.124 152.646 332.125 150.187L332.133 138.789L335.092 138.791L335.084 150.116C335.083 151.796 335.423 153.038 336.105 153.842C336.786 154.622 337.845 155.012 339.282 155.013C340.889 155.015 342.18 154.492 343.155 153.445C344.13 152.399 344.618 150.999 344.619 149.245L344.627 138.798L347.586 138.8L347.573 157.138L344.687 157.136L344.69 153.008L345.165 153.008C344.652 154.421 343.823 155.516 342.678 156.294C341.557 157.073 340.23 157.462 338.696 157.461ZM353.24 157.142L353.25 143.224C353.251 142.493 353.227 141.751 353.179 140.996C353.155 140.241 353.106 139.51 353.034 138.804L355.883 138.806L356.245 143.263L355.734 143.299C355.978 142.203 356.405 141.302 357.014 140.597C357.624 139.891 358.343 139.368 359.171 139.027C359.999 138.663 360.864 138.48 361.765 138.481C362.13 138.481 362.447 138.494 362.715 138.518C363.007 138.543 363.275 138.604 363.518 138.702L363.48 141.332C363.115 141.21 362.774 141.136 362.457 141.112C362.165 141.063 361.824 141.038 361.434 141.038C360.363 141.037 359.425 141.292 358.621 141.803C357.841 142.314 357.244 142.971 356.83 143.775C356.439 144.578 356.244 145.43 356.243 146.331L356.236 157.144L353.24 157.142ZM374.516 157.486C371.642 157.484 369.378 156.654 367.723 154.997C366.068 153.315 365.242 150.989 365.244 148.018C365.245 146.094 365.612 144.426 366.343 143.014C367.075 141.578 368.099 140.47 369.414 139.692C370.73 138.889 372.24 138.488 373.945 138.49C375.625 138.491 377.037 138.845 378.181 139.552C379.326 140.259 380.202 141.27 380.809 142.586C381.417 143.877 381.721 145.411 381.72 147.189L381.719 148.285L367.509 148.275L367.51 146.412L379.784 146.421L379.163 146.895C379.164 144.947 378.727 143.424 377.851 142.328C376.975 141.231 375.672 140.683 373.943 140.681C372.117 140.68 370.692 141.324 369.668 142.615C368.644 143.88 368.131 145.597 368.13 147.764L368.13 148.093C368.128 150.382 368.687 152.124 369.806 153.318C370.95 154.488 372.545 155.073 374.591 155.075C375.687 155.075 376.71 154.918 377.66 154.602C378.634 154.262 379.56 153.714 380.437 152.96L381.458 155.043C380.654 155.822 379.631 156.43 378.389 156.867C377.171 157.28 375.88 157.487 374.516 157.486Z" fill="#8033FF"/>
<path d="M392.37 60.16V52.5H389.44V51.55H396.53V52.5H393.58V60.16H392.38H392.37Z" fill="#8033FF"/>
<path d="M397.87 60.16V51.54H399.33C399.44 51.77 399.91 52.78 400.75 54.58C401.59 56.38 402.23 57.75 402.66 58.69C403.09 57.74 403.73 56.37 404.58 54.57C405.43 52.78 405.9 51.76 406.01 51.53H407.44V60.15H406.29V53.38C405.88 54.27 405.28 55.54 404.49 57.19C403.7 58.84 403.23 59.83 403.08 60.15H402.22L399.5 54.39L399.03 53.32V60.14H397.87V60.16Z" fill="#8033FF"/>
<path d="M288.99 156.36C289.06 156.48 289.1 156.58 289.13 156.68C289.15 156.77 289.16 156.89 289.16 157.04C289.16 157.21 289.13 157.37 289.06 157.54C288.99 157.68 288.89 157.81 288.75 157.93C288.63 158.05 288.49 158.13 288.3 158.18C288.14 158.25 287.97 158.29 287.78 158.29C287.48 158.29 287.23 158.22 287.02 158.08C286.81 157.94 286.65 157.73 286.54 157.44C284.47 152.66 281.4 145.5 277.32 135.94C275.28 140.72 272.21 147.88 268.13 157.44C268.02 157.72 267.84 157.94 267.61 158.08C267.4 158.22 267.16 158.29 266.89 158.29C266.68 158.29 266.5 158.25 266.34 158.18C266.18 158.11 266.03 158.01 265.89 157.9C265.73 157.76 265.61 157.62 265.55 157.47C265.48 157.3 265.45 157.14 265.45 156.97C265.45 156.85 265.46 156.75 265.48 156.65C265.5 156.58 265.54 156.48 265.58 156.37C267.83 151.22 271.21 143.47 275.73 133.14C275.8 132.97 275.89 132.83 276.01 132.71C276.12 132.59 276.25 132.48 276.39 132.39C276.53 132.3 276.67 132.24 276.8 132.21C276.96 132.16 277.12 132.14 277.28 132.14C277.46 132.14 277.62 132.16 277.76 132.21C277.92 132.26 278.08 132.33 278.24 132.42C278.38 132.51 278.5 132.62 278.62 132.74C278.73 132.86 278.81 132.99 278.86 133.13C280.56 137.01 282.24 140.89 283.92 144.76C285.62 148.61 287.3 152.48 288.98 156.36H288.99Z" fill="#8033FF"/>
<path d="M13.4791 130.05C18.6091 127.05 23.6791 123.54 29.2291 120.98C40.2391 115.89 51.8191 114.88 63.7391 117.14C81.7191 120.54 96.6291 129.64 110.659 140.67C108.399 139.18 95.7491 133.75 86.7291 141.88C86.0891 142.46 61.8891 161.48 50.1591 170.06C38.7691 178.39 22.0091 173.97 13.5191 162.62C3.5991 149.36 13.0391 130.79 13.4791 130.05Z" fill="url(#paint0_linear_840_314)"/>
<path d="M187.2 133.115H187.21L181.51 123.925C169.11 102.605 124.75 26.3754 124.75 26.3754C112.46 5.43539 82 5.99539 70.48 27.3754C70.48 27.3754 53.64 57.9754 48.35 67.4154C48.55 67.1154 48.77 66.8554 48.98 66.5654C45.96 71.7354 14.26 128.455 13 130.795C13.02 130.775 13.03 130.765 13.05 130.725C13.03 130.725 13 130.785 13 130.805C18.14 127.795 23.21 124.275 28.76 121.715C39.79 116.625 51.37 115.605 63.3 117.865C77.87 120.625 90.41 127.085 102.11 135.315L139.63 163.905C139.63 163.905 165.62 185.765 185.12 162.015C187.17 159.525 195.81 147.575 187.19 133.135L187.2 133.115Z" fill="url(#paint1_linear_840_314)"/>
<defs>
<linearGradient id="paint0_linear_840_314" x1="141.545" y1="141.617" x2="20.0964" y2="146.062" gradientUnits="userSpaceOnUse">
<stop stop-color="#4D52F2"/>
<stop offset="0.51" stop-color="#654CF3"/>
<stop offset="0.99" stop-color="#9341F6"/>
</linearGradient>
<linearGradient id="paint1_linear_840_314" x1="218.174" y1="226.616" x2="46.9187" y2="55.985" gradientUnits="userSpaceOnUse">
<stop stop-color="#AB3CF7"/>
<stop offset="0.53" stop-color="#8645F5"/>
<stop offset="1" stop-color="#5F4EF3"/>
</linearGradient>
</defs>
</svg>
