<svg width="403" height="175" viewBox="0 0 403 175" fill="none" xmlns="http://www.w3.org/2000/svg">
<path d="M268.67 113.66C268.83 113.94 268.94 114.19 269 114.41C269.05 114.63 269.08 114.91 269.08 115.25C269.08 115.64 269 116.03 268.84 116.42C268.68 116.76 268.43 117.07 268.11 117.34C267.84 117.62 267.49 117.82 267.05 117.93C266.67 118.1 266.26 118.18 265.83 118.18C265.12 118.18 264.53 118.01 264.04 117.68C263.55 117.34 263.17 116.84 262.9 116.17C258.01 104.86 250.73 87.9 241.07 65.29C236.24 76.6 228.99 93.56 219.32 116.17C219.05 116.84 218.64 117.34 218.1 117.68C217.61 118.02 217.04 118.18 216.39 118.18C215.9 118.18 215.47 118.1 215.09 117.93C214.71 117.76 214.36 117.54 214.03 117.26C213.65 116.93 213.38 116.59 213.22 116.25C213.06 115.86 212.98 115.47 212.98 115.08C212.98 114.8 213.01 114.55 213.06 114.32C213.11 114.15 213.19 113.93 213.3 113.65C218.62 101.45 226.63 83.12 237.33 58.65C237.49 58.26 237.71 57.92 237.98 57.64C238.25 57.36 238.55 57.11 238.88 56.88C239.21 56.66 239.53 56.52 239.86 56.46C240.24 56.35 240.62 56.29 241 56.29C241.43 56.29 241.81 56.35 242.14 56.46C242.52 56.57 242.9 56.74 243.28 56.96C243.61 57.18 243.9 57.44 244.18 57.72C244.45 58 244.64 58.31 244.75 58.64C248.77 67.82 252.76 77 256.73 86.18C260.75 95.3 264.74 104.46 268.71 113.64L268.67 113.66Z" fill="#8033FF"/>
<path d="M323.25 56.82C323.79 56.48 324.36 56.31 324.96 56.31C325.88 56.31 326.7 56.62 327.4 57.24C328.05 57.8 328.38 58.53 328.38 59.43C328.38 59.88 328.27 60.33 328.05 60.78C322.73 73.01 314.74 91.32 304.1 115.72C303.77 116.51 303.29 117.09 302.63 117.49C301.98 117.88 301.25 118.08 300.43 118.08C299.67 118.08 298.96 117.88 298.31 117.49C297.6 117.1 297.09 116.51 296.76 115.72C291.49 103.55 283.53 85.23 272.89 60.78C272.73 60.33 272.65 59.91 272.65 59.52C272.65 58.57 273.03 57.81 273.79 57.25C274.5 56.63 275.28 56.32 276.15 56.32C277.51 56.32 278.49 56.97 279.08 58.26C283.86 69.42 291.03 86.17 300.59 108.49C304.17 100.13 311.32 83.39 322.02 58.26C322.35 57.64 322.75 57.17 323.24 56.83L323.25 56.82Z" fill="#8033FF"/>
<path d="M339.89 87.28C339.89 82.88 340.72 78.75 342.39 74.89C344.06 71.03 346.33 67.65 349.19 64.75C352.06 61.86 355.42 59.57 359.29 57.91C363.16 56.24 367.29 55.41 371.68 55.41C376.07 55.41 380.12 56.25 383.99 57.91C387.86 59.58 391.22 61.86 394.09 64.75C396.96 67.64 399.22 71.03 400.89 74.89C402.56 78.76 403.39 82.89 403.39 87.28C403.39 91.67 402.56 95.79 400.89 99.63C399.22 103.47 396.95 106.82 394.09 109.69C391.22 112.56 387.86 114.82 383.99 116.49C380.12 118.16 375.99 118.99 371.6 118.99C367.21 118.99 363.09 118.15 359.25 116.49C355.41 114.82 352.06 112.55 349.19 109.69C346.32 106.82 344.06 103.47 342.39 99.63C340.72 95.79 339.89 91.67 339.89 87.28ZM345.55 87.2C345.55 90.81 346.24 94.2 347.61 97.35C348.99 100.51 350.85 103.26 353.19 105.6C355.54 107.95 358.3 109.81 361.48 111.18C364.66 112.55 368.06 113.24 371.67 113.24C375.28 113.24 378.6 112.55 381.78 111.18C384.96 109.8 387.73 107.94 390.07 105.6C392.42 103.25 394.28 100.5 395.65 97.35C397.03 94.19 397.71 90.81 397.71 87.2C397.71 83.59 397.02 80.27 395.65 77.09C394.27 73.91 392.41 71.14 390.07 68.8C387.72 66.45 384.96 64.59 381.78 63.22C378.6 61.85 375.23 61.16 371.67 61.16C368.11 61.16 364.66 61.85 361.48 63.22C358.3 64.6 355.53 66.46 353.19 68.8C350.84 71.15 348.98 73.91 347.61 77.09C346.23 80.28 345.55 83.64 345.55 87.2Z" fill="#8033FF"/>
<path d="M297.086 151.435C295.625 151.434 294.261 151.238 292.995 150.848C291.729 150.433 290.682 149.86 289.854 149.129L290.879 147.047C291.779 147.754 292.753 148.278 293.8 148.62C294.871 148.962 295.979 149.133 297.124 149.134C298.585 149.135 299.681 148.88 300.412 148.369C301.168 147.834 301.545 147.103 301.546 146.178C301.547 145.472 301.303 144.911 300.817 144.497C300.354 144.058 299.587 143.717 298.516 143.472L295.119 142.776C293.561 142.434 292.392 141.861 291.614 141.057C290.835 140.228 290.446 139.181 290.447 137.914C290.448 136.843 290.728 135.905 291.289 135.102C291.85 134.274 292.666 133.63 293.738 133.168C294.81 132.681 296.064 132.439 297.501 132.44C298.84 132.441 300.07 132.649 301.19 133.063C302.334 133.454 303.284 134.027 304.038 134.782L302.977 136.827C302.247 136.12 301.407 135.596 300.458 135.255C299.533 134.889 298.571 134.705 297.572 134.705C296.136 134.704 295.052 134.995 294.321 135.579C293.614 136.139 293.26 136.881 293.26 137.807C293.259 138.513 293.478 139.098 293.916 139.561C294.378 139.999 295.084 140.329 296.034 140.548L299.431 141.245C301.087 141.611 302.316 142.184 303.119 142.964C303.947 143.72 304.36 144.743 304.359 146.034C304.358 147.13 304.053 148.091 303.444 148.919C302.834 149.722 301.982 150.343 300.885 150.78C299.814 151.218 298.547 151.436 297.086 151.435ZM315.208 151.448C313.747 151.447 312.383 151.251 311.117 150.86C309.851 150.445 308.804 149.872 307.977 149.141L309.001 147.06C309.902 147.767 310.875 148.291 311.922 148.633C312.994 148.974 314.102 149.146 315.246 149.146C316.707 149.147 317.804 148.892 318.534 148.381C319.29 147.846 319.668 147.116 319.668 146.19C319.669 145.484 319.426 144.924 318.939 144.51C318.477 144.071 317.71 143.729 316.638 143.485L313.242 142.789C311.683 142.447 310.515 141.874 309.736 141.069C308.957 140.241 308.568 139.193 308.569 137.927C308.57 136.855 308.851 135.918 309.411 135.115C309.972 134.287 310.788 133.642 311.86 133.18C312.932 132.694 314.186 132.451 315.623 132.452C316.963 132.453 318.192 132.661 319.312 133.076C320.457 133.466 321.406 134.039 322.16 134.795L321.1 136.84C320.37 136.133 319.53 135.609 318.58 135.267C317.655 134.901 316.693 134.718 315.695 134.717C314.258 134.716 313.174 135.008 312.443 135.592C311.736 136.151 311.383 136.894 311.382 137.819C311.381 138.526 311.6 139.11 312.038 139.573C312.501 140.012 313.207 140.341 314.156 140.561L317.553 141.257C319.209 141.624 320.438 142.197 321.241 142.977C322.069 143.732 322.482 144.756 322.481 146.046C322.481 147.142 322.175 148.104 321.566 148.932C320.957 149.735 320.104 150.355 319.008 150.793C317.936 151.23 316.669 151.449 315.208 151.448ZM333.696 151.461C331.528 151.459 329.885 150.861 328.765 149.667C327.67 148.473 327.124 146.646 327.125 144.187L327.133 132.789L330.092 132.791L330.084 144.116C330.083 145.796 330.423 147.038 331.105 147.842C331.786 148.622 332.845 149.012 334.282 149.013C335.889 149.015 337.18 148.492 338.155 147.445C339.13 146.399 339.618 144.999 339.619 143.245L339.627 132.798L342.586 132.8L342.573 151.138L339.687 151.136L339.69 147.008L340.165 147.008C339.652 148.421 338.823 149.516 337.678 150.294C336.557 151.073 335.23 151.462 333.696 151.461ZM348.24 151.142L348.25 137.224C348.251 136.493 348.227 135.751 348.179 134.996C348.155 134.241 348.106 133.51 348.034 132.804L350.883 132.806L351.245 137.263L350.734 137.299C350.978 136.203 351.405 135.302 352.014 134.597C352.624 133.891 353.343 133.368 354.171 133.027C354.999 132.663 355.864 132.48 356.765 132.481C357.13 132.481 357.447 132.494 357.715 132.518C358.007 132.543 358.275 132.604 358.518 132.702L358.48 135.332C358.115 135.21 357.774 135.136 357.457 135.112C357.165 135.063 356.824 135.038 356.434 135.038C355.363 135.037 354.425 135.292 353.621 135.803C352.841 136.314 352.244 136.971 351.83 137.775C351.439 138.578 351.244 139.43 351.243 140.331L351.236 151.144L348.24 151.142ZM369.516 151.486C366.642 151.484 364.378 150.654 362.723 148.997C361.068 147.315 360.242 144.989 360.244 142.018C360.245 140.094 360.612 138.426 361.343 137.014C362.075 135.578 363.099 134.47 364.414 133.692C365.73 132.889 367.24 132.488 368.945 132.49C370.625 132.491 372.037 132.845 373.181 133.552C374.326 134.259 375.202 135.27 375.809 136.586C376.417 137.877 376.721 139.411 376.72 141.189L376.719 142.285L362.509 142.275L362.51 140.412L374.784 140.421L374.163 140.895C374.164 138.947 373.727 137.424 372.851 136.328C371.975 135.231 370.672 134.683 368.943 134.681C367.117 134.68 365.692 135.324 364.668 136.615C363.644 137.88 363.131 139.597 363.13 141.764L363.13 142.093C363.128 144.382 363.687 146.124 364.806 147.318C365.95 148.488 367.545 149.073 369.591 149.075C370.687 149.075 371.71 148.918 372.66 148.602C373.634 148.262 374.56 147.714 375.437 146.96L376.458 149.043C375.654 149.822 374.631 150.43 373.389 150.867C372.171 151.28 370.88 151.487 369.516 151.486Z" fill="#8033FF"/>
<path d="M387.37 54.16V46.5H384.44V45.55H391.53V46.5H388.58V54.16H387.38H387.37Z" fill="#8033FF"/>
<path d="M392.87 54.16V45.54H394.33C394.44 45.77 394.91 46.78 395.75 48.58C396.59 50.38 397.23 51.75 397.66 52.69C398.09 51.74 398.73 50.37 399.58 48.57C400.43 46.78 400.9 45.76 401.01 45.53H402.44V54.15H401.29V47.38C400.88 48.27 400.28 49.54 399.49 51.19C398.7 52.84 398.23 53.83 398.08 54.15H397.22L394.5 48.39L394.03 47.32V54.14H392.87V54.16Z" fill="#8033FF"/>
<path d="M283.99 150.36C284.06 150.48 284.1 150.58 284.13 150.68C284.15 150.77 284.16 150.89 284.16 151.04C284.16 151.21 284.13 151.37 284.06 151.54C283.99 151.68 283.89 151.81 283.75 151.93C283.63 152.05 283.49 152.13 283.3 152.18C283.14 152.25 282.97 152.29 282.78 152.29C282.48 152.29 282.23 152.22 282.02 152.08C281.81 151.94 281.65 151.73 281.54 151.44C279.47 146.66 276.4 139.5 272.32 129.94C270.28 134.72 267.21 141.88 263.13 151.44C263.02 151.72 262.84 151.94 262.61 152.08C262.4 152.22 262.16 152.29 261.89 152.29C261.68 152.29 261.5 152.25 261.34 152.18C261.18 152.11 261.03 152.01 260.89 151.9C260.73 151.76 260.61 151.62 260.55 151.47C260.48 151.3 260.45 151.14 260.45 150.97C260.45 150.85 260.46 150.75 260.48 150.65C260.5 150.58 260.54 150.48 260.58 150.37C262.83 145.22 266.21 137.47 270.73 127.14C270.8 126.97 270.89 126.83 271.01 126.71C271.12 126.59 271.25 126.48 271.39 126.39C271.53 126.3 271.67 126.24 271.8 126.21C271.96 126.16 272.12 126.14 272.28 126.14C272.46 126.14 272.62 126.16 272.76 126.21C272.92 126.26 273.08 126.33 273.24 126.42C273.38 126.51 273.5 126.62 273.62 126.74C273.73 126.86 273.81 126.99 273.86 127.13C275.56 131.01 277.24 134.89 278.92 138.76C280.62 142.61 282.3 146.48 283.98 150.36H283.99Z" fill="#8033FF"/>
<path d="M8.4791 124.05C13.6091 121.05 18.6791 117.54 24.2291 114.98C35.2391 109.89 46.8191 108.88 58.7391 111.14C76.7191 114.54 91.6291 123.64 105.659 134.67C103.399 133.18 90.7491 127.75 81.7291 135.88C81.0891 136.46 56.8891 155.48 45.1591 164.06C33.7691 172.39 17.0091 167.97 8.5191 156.62C-1.4009 143.36 8.0391 124.79 8.4791 124.05V124.05Z" fill="url(#paint0_linear_840_314)"/>
<path d="M182.2 127.115H182.21L176.51 117.925C164.11 96.6054 119.75 20.3754 119.75 20.3754C107.46 -0.56461 77 -0.00460815 65.48 21.3754C65.48 21.3754 48.64 51.9754 43.35 61.4154C43.55 61.1154 43.77 60.8554 43.98 60.5654C40.96 65.7354 9.26 122.455 8 124.795C8.02 124.775 8.03 124.765 8.05 124.725C8.03 124.725 8 124.785 8 124.805C13.14 121.795 18.21 118.275 23.76 115.715C34.79 110.625 46.37 109.605 58.3 111.865C72.87 114.625 85.41 121.085 97.11 129.315L134.63 157.905C134.63 157.905 160.62 179.765 180.12 156.015C182.17 153.525 190.81 141.575 182.19 127.135L182.2 127.115Z" fill="url(#paint1_linear_840_314)"/>
<defs>
<linearGradient id="paint0_linear_840_314" x1="136.545" y1="135.617" x2="15.0964" y2="140.062" gradientUnits="userSpaceOnUse">
<stop stop-color="#4D52F2"/>
<stop offset="0.51" stop-color="#654CF3"/>
<stop offset="0.99" stop-color="#9341F6"/>
</linearGradient>
<linearGradient id="paint1_linear_840_314" x1="213.174" y1="220.616" x2="41.9187" y2="49.985" gradientUnits="userSpaceOnUse">
<stop stop-color="#AB3CF7"/>
<stop offset="0.53" stop-color="#8645F5"/>
<stop offset="1" stop-color="#5F4EF3"/>
</linearGradient>
</defs>
</svg>
