<svg width="28" height="28" viewBox="0 0 28 28" fill="none" xmlns="http://www.w3.org/2000/svg">
<path d="M21.0555 14.6873C21.4561 14.6873 21.7845 15.0129 21.7465 15.4117C21.6153 16.7899 21.1113 18.1116 20.2824 19.2319C19.3092 20.5472 17.9394 21.5153 16.3747 21.9938C14.81 22.4723 13.133 22.4358 11.5906 21.8897C10.0482 21.3437 8.7218 20.3169 7.80669 18.9605C6.89158 17.6041 6.43607 15.9898 6.50723 14.3551C6.57838 12.7204 7.17243 11.1517 8.20193 9.87999C9.23144 8.60824 10.642 7.70057 12.2261 7.2906C13.5752 6.94143 14.9894 6.96898 16.3166 7.36331C16.7006 7.47742 16.8795 7.90377 16.7295 8.27526V8.27526C16.5795 8.64676 16.1574 8.82183 15.7709 8.7163C14.7344 8.43329 13.6377 8.42387 12.5896 8.69515C11.3063 9.02728 10.1636 9.76259 9.32959 10.7928C8.49558 11.8231 8.01433 13.0939 7.95669 14.4182C7.89905 15.7424 8.26805 17.0502 9.0094 18.1491C9.75074 19.2479 10.8253 20.0797 12.0748 20.5221C13.3243 20.9645 14.6829 20.994 15.9504 20.6064C17.218 20.2188 18.3277 19.4345 19.1161 18.3689C19.7601 17.4986 20.162 16.4781 20.2876 15.4111C20.3345 15.0132 20.6549 14.6873 21.0555 14.6873V14.6873Z" fill="#212121"/>
<path d="M16.0469 13.8835C15.605 13.8835 15.2468 14.2417 15.2468 14.6836C15.2468 15.1255 15.605 15.4837 16.0469 15.4837L16.0469 13.8835ZM16.0469 15.4837L21.7741 15.4837L21.7741 13.8835L16.0469 13.8835L16.0469 15.4837Z" fill="#212121"/>
<path d="M10.4481 23.3305C10.4365 23.3375 10.4285 23.3406 10.4241 23.3419L10.3882 23.3275L10.383 23.328C10.3687 23.2917 10.355 23.2342 10.3519 23.1507C10.3474 23.026 10.3683 22.8756 10.4147 22.7246L10.4151 22.7229L10.4439 22.6263L12.6002 16.8078L12.6745 16.6075L12.4697 16.5465L10.5925 15.9878C10.5924 15.9878 10.5924 15.9877 10.5924 15.9877C10.5881 15.983 10.5788 15.9704 10.569 15.9448C10.5489 15.8919 10.5356 15.807 10.5415 15.6943L10.5416 15.6943L10.5417 15.6887C10.5444 15.5765 10.5649 15.45 10.6025 15.3236C10.6401 15.1972 10.6921 15.0801 10.7512 14.9847L10.7518 14.9837L12.59 11.9788L16.1828 6.41028L16.1828 6.4103L16.1845 6.40763C16.2569 6.29143 16.3232 6.23849 16.3587 6.22357C16.359 6.22348 16.3592 6.22339 16.3594 6.22331C16.3778 6.24556 16.4085 6.31239 16.4132 6.44232C16.4178 6.56707 16.3968 6.71745 16.3505 6.86846L16.3505 6.86846L16.35 6.87011L16.3212 6.96673L14.1649 12.7853L14.0907 12.9855L14.2954 13.0465L16.177 13.6065C16.177 13.6065 16.1771 13.6066 16.1771 13.6066C16.1814 13.6113 16.1907 13.6239 16.2004 13.6495C16.2206 13.7024 16.2338 13.7873 16.228 13.9L16.2279 13.9L16.2278 13.9056C16.2251 14.0178 16.2046 14.1443 16.1669 14.2707C16.1293 14.3971 16.0773 14.5142 16.0182 14.6096L16.0176 14.6106L14.1795 17.6155L10.5876 23.1825C10.5339 23.2624 10.4838 23.3091 10.4481 23.3305ZM10.5867 15.9861C10.5868 15.9861 10.5869 15.9862 10.5871 15.9862L10.5867 15.9861ZM16.1828 13.6082C16.1826 13.6082 16.1825 13.6082 16.1824 13.6081L16.1828 13.6082Z" stroke="#212121" stroke-width="0.400032"/>
<rect x="27" y="1" width="26" height="26" rx="7" transform="rotate(90 27 1)" stroke="#212121" stroke-width="2"/>
</svg>
