<svg width="33" height="53" viewBox="0 0 33 53" fill="none" xmlns="http://www.w3.org/2000/svg">
<path d="M0.865967 21.6022C1.78968 21.0618 2.70015 20.4306 3.69863 19.9706C5.67856 19.0554 7.76165 18.8727 9.90625 19.2788C13.1411 19.8901 15.8214 21.5265 18.3465 23.5121C17.9405 23.2443 15.6634 22.2685 14.0421 23.7298C13.9276 23.833 9.57405 27.2562 7.46352 28.7989C5.4145 30.2971 2.40013 29.503 0.873539 27.4606C-0.910479 25.0747 0.787414 21.7347 0.865967 21.6022Z" fill="url(#paint0_linear_16_42)"/>
<path d="M32.2013 22.012H32.2032L31.1782 20.3586C28.9474 16.5237 20.9672 2.81183 20.9672 2.81183C18.7563 -0.954953 13.2765 -0.853685 11.2057 2.99071C11.2057 2.99071 8.17618 8.49514 7.22502 10.1921C7.26004 10.1381 7.30073 10.0908 7.33765 10.0388C6.79534 10.9691 1.09216 21.1707 0.865967 21.5928C0.869753 21.589 0.872592 21.5871 0.875432 21.5795C0.871646 21.5795 0.865967 21.5899 0.865967 21.5937C1.79063 21.0514 2.70299 20.4192 3.70052 19.9592C5.68424 19.0431 7.76827 18.8604 9.91382 19.2655C12.5345 19.7614 14.7908 20.9246 16.8956 22.4039L23.6446 27.5458C23.6446 27.5458 28.32 31.4782 31.8265 27.2051C32.1946 26.7565 33.7487 24.6071 32.1994 22.0111L32.2013 22.012Z" fill="url(#paint1_linear_16_42)"/>
<path d="M11.8076 52.6091C11.5455 52.611 11.3136 52.5741 11.1129 52.4965C10.9123 52.4189 10.7561 52.3375 10.6445 52.2514L10.7921 51.8444C10.9057 51.9267 11.0495 52.0006 11.2246 52.0659C11.3997 52.1312 11.5776 52.1633 11.7594 52.1624C12.1616 52.1596 12.3622 52.01 12.3594 51.7138C12.3584 51.5898 12.3121 51.4971 12.2212 51.4365C12.1304 51.3759 11.9524 51.3021 11.6893 51.216L11.4281 51.1289C11.3268 51.0939 11.2417 51.0617 11.1716 51.0305C11.1016 50.9992 11.0306 50.9604 10.9587 50.9122C10.8877 50.8648 10.83 50.8128 10.7855 50.757C10.741 50.7011 10.706 50.633 10.6785 50.5535C10.6511 50.474 10.6369 50.3841 10.6359 50.2828C10.635 50.1389 10.6634 50.0112 10.723 49.8985C10.7826 49.7869 10.864 49.6979 10.9681 49.6335C11.0723 49.5692 11.1868 49.519 11.3136 49.4859C11.4395 49.4528 11.5758 49.4348 11.7215 49.4338C12.1218 49.431 12.4597 49.5152 12.7361 49.6894L12.5884 50.0812C12.3206 49.9411 12.0537 49.872 11.7878 49.8749C11.5928 49.8768 11.4414 49.9108 11.3354 49.979C11.2294 50.0471 11.1773 50.1418 11.1782 50.2648C11.1782 50.3755 11.2123 50.456 11.2767 50.508C11.341 50.5601 11.4698 50.6197 11.6609 50.6869C11.8332 50.7428 11.9344 50.7768 11.9666 50.7882C12.0916 50.8308 12.1909 50.8677 12.2666 50.898C12.3424 50.9283 12.4228 50.9699 12.5089 51.022C12.5951 51.074 12.6613 51.128 12.7086 51.1847C12.7559 51.2415 12.7948 51.3125 12.826 51.3986C12.8572 51.4838 12.8733 51.5813 12.8743 51.6901C12.8752 51.852 12.8459 51.9939 12.7862 52.1151C12.7257 52.2372 12.6443 52.3318 12.5402 52.4009C12.4361 52.47 12.3234 52.5211 12.2013 52.5561C12.0793 52.5902 11.9486 52.6082 11.8086 52.6101L11.8076 52.6091Z" fill="white"/>
<path d="M15.4892 52.5788C15.2271 52.5807 14.9952 52.5438 14.7946 52.4662C14.5939 52.3886 14.4378 52.3072 14.3261 52.2211L14.4737 51.8141C14.5873 51.8964 14.7311 51.9703 14.9062 52.0356C15.0813 52.1009 15.2593 52.133 15.441 52.1321C15.8432 52.1293 16.0438 51.9797 16.041 51.6835C16.0401 51.5595 15.9937 51.4668 15.9028 51.4062C15.812 51.3456 15.634 51.2718 15.3709 51.1857L15.1097 51.0986C15.0085 51.0636 14.9233 51.0314 14.8532 51.0002C14.7832 50.9689 14.7122 50.9301 14.6403 50.8819C14.5693 50.8345 14.5116 50.7825 14.4671 50.7266C14.4236 50.6708 14.3876 50.6027 14.3601 50.5232C14.3327 50.4437 14.3185 50.3538 14.3176 50.2525C14.3166 50.1086 14.345 49.9809 14.4046 49.8682C14.4643 49.7566 14.5456 49.6676 14.6498 49.6032C14.7539 49.5389 14.8684 49.4887 14.9952 49.4556C15.1211 49.4225 15.2574 49.4045 15.4031 49.4035C15.8035 49.4007 16.1413 49.4849 16.4177 49.6591L16.27 50.0509C16.0022 49.9108 15.7353 49.8417 15.4694 49.8446C15.2744 49.8465 15.123 49.8805 15.017 49.9487C14.911 50.0168 14.8589 50.1115 14.8599 50.2345C14.8599 50.3452 14.8939 50.4257 14.9583 50.4777C15.0226 50.5298 15.1514 50.5894 15.3425 50.6566C15.5148 50.7125 15.6161 50.7465 15.6482 50.7579C15.7732 50.8005 15.8725 50.8374 15.9483 50.8677C16.024 50.898 16.1044 50.9396 16.1905 50.9917C16.2767 51.0437 16.3429 51.0976 16.3902 51.1544C16.4376 51.2112 16.4764 51.2822 16.5076 51.3683C16.5388 51.4535 16.5549 51.551 16.5559 51.6598C16.5568 51.8217 16.5275 51.9636 16.4678 52.0848C16.4073 52.2069 16.3259 52.3015 16.2218 52.3706C16.1177 52.4397 16.005 52.4908 15.883 52.5258C15.7609 52.5599 15.6303 52.5779 15.4902 52.5798L15.4892 52.5788Z" fill="white"/>
<path d="M19.2806 52.5514C18.8917 52.5542 18.5992 52.4463 18.4024 52.2258C18.2055 52.0053 18.1052 51.7081 18.1023 51.3333L18.0872 49.4575L18.6285 49.4528L18.6437 51.3286C18.6456 51.5889 18.709 51.7838 18.833 51.9144C18.957 52.045 19.1358 52.1084 19.3687 52.1066C19.6346 52.1047 19.8428 52.027 19.9914 51.8737C20.14 51.7204 20.2138 51.5235 20.2119 51.2832L20.1968 49.4395L20.741 49.4348L20.759 51.7195C20.7609 51.9901 20.7722 52.24 20.7921 52.4709L20.2384 52.4757L20.2195 51.9873C20.1362 52.1435 20.017 52.2769 19.8617 52.3848C19.7065 52.4927 19.5125 52.5485 19.2797 52.5504L19.2806 52.5514Z" fill="white"/>
<path d="M22.6064 52.4567L22.5875 50.1664C22.5875 50.0992 22.5827 50.0036 22.5751 49.8796C22.5676 49.7556 22.56 49.6477 22.5534 49.5569L22.543 49.4206L23.1203 49.4159L23.1298 49.8891C23.3105 49.5247 23.5793 49.3411 23.9361 49.3383C24.0487 49.3383 24.151 49.3487 24.2437 49.3714V49.8541C24.1282 49.8238 24.0166 49.8086 23.9096 49.8096C23.6768 49.8115 23.4903 49.8948 23.3493 50.0585C23.2083 50.2222 23.1392 50.4569 23.1421 50.7626L23.1553 52.452L22.6045 52.4567H22.6064Z" fill="white"/>
<path d="M27.118 52.4851C26.6344 52.4889 26.2501 52.3488 25.9634 52.064C25.6766 51.7791 25.5318 51.3996 25.528 50.9235C25.5242 50.456 25.6577 50.0708 25.9283 49.7679C26.199 49.4651 26.5596 49.3117 27.0092 49.308C27.2931 49.3061 27.5373 49.3695 27.7398 49.5001C27.9423 49.6307 28.0947 49.8086 28.1941 50.0348C28.2935 50.261 28.3446 50.5241 28.3474 50.8241C28.3474 50.862 28.3455 50.9103 28.3398 50.9689L26.0911 50.9869C26.0996 51.3257 26.2 51.587 26.3902 51.7706C26.5814 51.9532 26.8322 52.0441 27.1445 52.0412C27.5079 52.0384 27.8278 51.9229 28.1061 51.6958L28.2717 52.0971C27.948 52.3526 27.5638 52.4813 27.118 52.4851ZM26.1025 50.614L27.8458 50.5998C27.824 50.3216 27.7408 50.1086 27.5978 49.9601C27.4549 49.8115 27.2647 49.7376 27.0281 49.7395C26.7792 49.7414 26.5729 49.82 26.4072 49.9752C26.2416 50.1304 26.1403 50.3434 26.1034 50.614H26.1025Z" fill="white"/>
<path d="M9.9498 44.3316C9.97346 44.3714 9.99239 44.414 10.0066 44.4585C10.0132 44.5048 10.0142 44.5512 10.0075 44.5976C10.0085 44.6629 9.99618 44.7272 9.97062 44.7869C9.94034 44.8465 9.89964 44.8995 9.84948 44.943C9.79837 44.9913 9.73591 45.0244 9.66682 45.0386C9.60246 45.0661 9.53242 45.0803 9.46144 45.0793C9.35639 45.0831 9.25228 45.0576 9.16142 45.0046C9.07341 44.943 9.00527 44.8569 8.96552 44.7566C8.12603 42.9148 6.87391 40.1513 5.21009 36.4668L1.60514 44.8162C1.56634 44.9194 1.49441 45.0074 1.40166 45.067C1.31459 45.1191 1.21521 45.1475 1.11394 45.1475C1.03823 45.1503 0.962514 45.138 0.891532 45.1106C0.826228 45.0841 0.766603 45.0471 0.713603 45.0008C0.656817 44.9553 0.60855 44.8995 0.573532 44.8351C0.545139 44.7765 0.529997 44.7121 0.528104 44.6468C0.521479 44.6042 0.521479 44.5616 0.527158 44.519C0.527158 44.4916 0.527157 44.4585 0.565015 44.4074C1.44709 42.4038 2.77682 39.3903 4.55232 35.3671C4.57787 35.3046 4.61478 35.2478 4.6621 35.1996C4.70658 35.1522 4.75675 35.1115 4.81069 35.0765C4.85991 35.0406 4.91669 35.0159 4.97632 35.0027C5.04068 34.9932 5.10598 34.9932 5.17034 35.0008C5.2328 34.9913 5.29621 34.9904 5.35867 34.9989C5.42776 35.0159 5.49307 35.0434 5.55364 35.0803C5.60758 35.1163 5.65775 35.157 5.70412 35.2014C5.7486 35.245 5.78267 35.298 5.80539 35.3557C6.49439 36.853 7.18339 38.3512 7.86103 39.8484C8.53867 41.3457 9.26648 42.8325 9.9498 44.3298V44.3316Z" fill="white"/>
<path d="M18.8765 34.9686C18.9626 34.9147 19.062 34.8844 19.1642 34.8835C19.3166 34.8797 19.4652 34.9317 19.5816 35.0302C19.6904 35.1172 19.7529 35.2497 19.751 35.3898C19.7491 35.4655 19.7302 35.5393 19.6971 35.6065C18.815 37.6177 17.4891 40.6236 15.7211 44.6241C15.6766 44.7462 15.5915 44.8494 15.4798 44.9147C15.3681 44.9828 15.2394 45.0178 15.1088 45.0178C14.982 45.0188 14.857 44.9856 14.7472 44.9213C14.628 44.8607 14.5343 44.7594 14.4841 44.6345C13.5803 42.6489 12.2127 39.6648 10.3795 35.6822C10.353 35.6169 10.3397 35.5479 10.3388 35.4769C10.3331 35.3273 10.405 35.1863 10.53 35.104C10.6397 35.0056 10.7808 34.9516 10.9284 34.9507C11.1432 34.9403 11.3411 35.0642 11.4243 35.263C12.2411 37.083 13.4743 39.8115 15.1239 43.4477C15.7192 42.0782 16.9023 39.3307 18.674 35.2043C18.7232 35.1116 18.7932 35.0321 18.8775 34.9696L18.8765 34.9686Z" fill="white"/>
<path d="M21.394 39.9336C21.3808 39.1992 21.5199 38.4695 21.8048 37.7918C22.0735 37.1445 22.4616 36.553 22.9509 36.0504C23.4421 35.5507 24.0251 35.1494 24.6687 34.8712C26.0107 34.29 27.5307 34.2777 28.8812 34.8371C30.1863 35.3803 31.2293 36.4119 31.7858 37.7114C32.3669 39.0553 32.3792 40.5762 31.8199 41.9296C31.2785 43.2291 30.2535 44.2692 28.9617 44.8295C27.6158 45.4106 26.093 45.4229 24.7377 44.8635C23.4402 44.3212 22.401 43.3 21.8379 42.011C21.5502 41.3561 21.3987 40.65 21.3931 39.9345L21.394 39.9336ZM22.3613 39.926C22.3613 40.5213 22.4871 41.111 22.7285 41.6551C22.9594 42.1776 23.2859 42.6517 23.691 43.054C24.1017 43.4553 24.5844 43.7752 25.1154 43.9938C26.2255 44.4556 27.4767 44.4452 28.5793 43.9654C29.1036 43.7363 29.5806 43.4089 29.9829 43.0019C30.3832 42.595 30.7031 42.1151 30.9227 41.588C31.3845 40.4787 31.3741 39.2304 30.8943 38.1288C30.6681 37.6006 30.3406 37.1218 29.9308 36.7195C29.5219 36.3192 29.0402 36.0002 28.5121 35.7797C27.4019 35.3179 26.1508 35.3283 25.0482 35.8081C23.9825 36.2652 23.1392 37.1227 22.6991 38.196C22.4692 38.7392 22.3537 39.325 22.3603 39.9147V39.9251L22.3613 39.926Z" fill="white"/>
<path d="M9.40276 52.5504C9.41412 52.5703 9.42358 52.5911 9.43115 52.6129C9.43494 52.6356 9.43494 52.6583 9.43115 52.681C9.43115 52.7132 9.42548 52.7454 9.41223 52.7747C9.39708 52.8041 9.37721 52.8306 9.3526 52.8523C9.32705 52.876 9.29582 52.8921 9.26269 52.8997C9.23051 52.9139 9.19644 52.9205 9.16142 52.9195C9.10937 52.9214 9.05826 52.9082 9.01284 52.8826C8.9693 52.8523 8.93523 52.8098 8.91535 52.7596C8.49987 51.8482 7.88091 50.4806 7.05751 48.6578L5.27444 52.7889C5.25551 52.84 5.21955 52.8836 5.17412 52.9129C5.13153 52.9385 5.08232 52.9527 5.03216 52.9527C4.9943 52.9546 4.95739 52.9479 4.92237 52.9347C4.89019 52.9214 4.85991 52.9035 4.83435 52.8807C4.80596 52.858 4.7823 52.8306 4.76526 52.7993C4.75107 52.77 4.74349 52.7388 4.74255 52.7066C4.73971 52.6858 4.73876 52.664 4.74255 52.6432C4.74255 52.6299 4.74255 52.6129 4.76148 52.5883C5.19778 51.5964 5.85555 50.1058 6.73383 48.1155C6.74614 48.0842 6.76507 48.0568 6.78778 48.0331C6.80955 48.0095 6.83416 47.9896 6.8616 47.9726C6.88621 47.9546 6.91365 47.9423 6.94394 47.9366C6.97612 47.9319 7.0083 47.9319 7.03953 47.9366C7.07076 47.9319 7.10199 47.9319 7.13323 47.9366C7.1673 47.9451 7.19948 47.9584 7.22976 47.9773C7.25626 47.9953 7.28087 48.0151 7.30453 48.0369C7.3263 48.0587 7.34333 48.0842 7.35469 48.1136C7.6954 48.8546 8.03612 49.5957 8.37116 50.3367C8.70619 51.0778 9.06678 51.8132 9.40465 52.5542L9.40276 52.5504Z" fill="white"/>
<defs>
<linearGradient id="paint0_linear_16_42" x1="23.9035" y1="23.6825" x2="2.05808" y2="24.4826" gradientUnits="userSpaceOnUse">
<stop offset="0.29" stop-color="#D0CFCD"/>
<stop offset="0.74" stop-color="white"/>
<stop offset="0.99" stop-color="white"/>
</linearGradient>
<linearGradient id="paint1_linear_16_42" x1="37.7724" y1="38.8309" x2="6.96769" y2="8.13758" gradientUnits="userSpaceOnUse">
<stop stop-color="white"/>
<stop offset="1" stop-color="white"/>
</linearGradient>
</defs>
</svg>
