<svg width="24" height="24" viewBox="0 0 24 24" fill="none" xmlns="http://www.w3.org/2000/svg">
<path d="M19.0555 12.687C19.4561 12.687 19.7845 13.0125 19.7465 13.4113C19.6153 14.7896 19.1113 16.1113 18.2824 17.2315C17.3092 18.5468 15.9394 19.515 14.3747 19.9934C12.81 20.4719 11.133 20.4354 9.5906 19.8894C8.04818 19.3433 6.7218 18.3165 5.80669 16.9601C4.89158 15.6037 4.43607 13.9894 4.50723 12.3547C4.57838 10.72 5.17243 9.15137 6.20193 7.87962C7.23144 6.60787 8.64202 5.70021 10.2261 5.29023C11.5752 4.94106 12.9894 4.96861 14.3166 5.36294C14.7006 5.47705 14.8795 5.9034 14.7295 6.2749V6.2749C14.5795 6.64639 14.1574 6.82146 13.7709 6.71593C12.7344 6.43292 11.6377 6.4235 10.5896 6.69479C9.30633 7.02691 8.16361 7.76222 7.32959 8.79248C6.49558 9.82274 6.01433 11.0935 5.95669 12.4178C5.89905 13.7421 6.26805 15.0499 7.0094 16.1487C7.75074 17.2475 8.82525 18.0794 10.0748 18.5217C11.3243 18.9641 12.6829 18.9936 13.9504 18.606C15.218 18.2184 16.3277 17.4341 17.1161 16.3686C17.7601 15.4982 18.162 14.4778 18.2876 13.4107C18.3345 13.0129 18.6549 12.687 19.0555 12.687V12.687Z" fill="white"/>
<path d="M14.0454 11.8827C13.6035 11.8827 13.2453 12.2409 13.2453 12.6827C13.2453 13.1246 13.6035 13.4828 14.0454 13.4828L14.0454 11.8827ZM14.0454 13.4828L19.7727 13.4828L19.7727 11.8827L14.0454 11.8827L14.0454 13.4828Z" fill="white"/>
<path d="M8.44953 21.3307C8.43795 21.3376 8.42997 21.3407 8.42559 21.342L8.38966 21.3276L8.3845 21.3281C8.37017 21.2918 8.35643 21.2343 8.35338 21.1508C8.34884 21.0261 8.36975 20.8757 8.41612 20.7247L8.41661 20.723L8.44537 20.6264L10.6017 14.8079L10.6759 14.6076L10.4712 14.5467L8.59395 13.9879C8.59391 13.9879 8.59387 13.9879 8.59383 13.9878C8.58953 13.9831 8.58027 13.9706 8.57051 13.9449C8.55035 13.892 8.53709 13.8071 8.54295 13.6945L8.54303 13.6945L8.54317 13.6888C8.54583 13.5766 8.56636 13.4502 8.60399 13.3237C8.64161 13.1973 8.69358 13.0802 8.7527 12.9848L8.7533 12.9838L10.5915 9.97897L14.1843 4.41041L14.1843 4.41042L14.186 4.40775C14.2584 4.29155 14.3247 4.23861 14.3602 4.2237C14.3604 4.2236 14.3606 4.22352 14.3608 4.22343C14.3793 4.24569 14.4099 4.31252 14.4147 4.44244C14.4192 4.56719 14.3983 4.71758 14.3519 4.86859L14.3519 4.86858L14.3514 4.87023L14.3227 4.96685L12.1663 10.7854L12.0921 10.9857L12.2968 11.0466L14.1784 11.6066C14.1785 11.6067 14.1785 11.6067 14.1786 11.6067C14.1829 11.6115 14.1921 11.624 14.2019 11.6496C14.222 11.7025 14.2353 11.7874 14.2294 11.9001L14.2294 11.9001L14.2292 11.9057C14.2266 12.0179 14.206 12.1444 14.1684 12.2708C14.1308 12.3972 14.0788 12.5143 14.0197 12.6097L14.0191 12.6107L12.1809 15.6156L8.58908 21.1827C8.53536 21.2626 8.48529 21.3092 8.44953 21.3307ZM8.58816 13.9862C8.58828 13.9863 8.58841 13.9863 8.58853 13.9863L8.58816 13.9862ZM14.1842 11.6083C14.1841 11.6083 14.184 11.6083 14.1839 11.6082L14.1842 11.6083Z" stroke="white" stroke-width="0.400032"/>
</svg>
