<svg width="22" height="22" viewBox="0 0 22 22" fill="none" xmlns="http://www.w3.org/2000/svg">
<path d="M17.0504 11.5919C17.3938 11.5919 17.6752 11.8709 17.6426 12.2128C17.5302 13.3942 17.0982 14.527 16.3877 15.4873C15.5535 16.6147 14.3794 17.4445 13.0382 17.8546C11.6971 18.2647 10.2597 18.2335 8.93759 17.7654C7.61551 17.2974 6.47862 16.4173 5.69424 15.2546C4.90986 14.092 4.51943 12.7083 4.58041 11.3071C4.6414 9.90599 5.15059 8.56142 6.03302 7.47135C6.91545 6.38128 8.12452 5.60328 9.48226 5.25188C10.6386 4.95258 11.8508 4.9762 12.9884 5.3142C13.3176 5.41201 13.4709 5.77745 13.3424 6.09587V6.09587C13.2138 6.4143 12.852 6.56436 12.5207 6.4739C11.6323 6.23132 10.6923 6.22325 9.79386 6.45578C8.69393 6.74046 7.71445 7.37072 6.99958 8.2538C6.28471 9.13688 5.87222 10.2261 5.82281 11.3612C5.7734 12.4963 6.08969 13.6173 6.72513 14.5591C7.36057 15.501 8.28158 16.214 9.35261 16.5932C10.4236 16.9723 11.5881 16.9977 12.6746 16.6654C13.7611 16.3332 14.7122 15.6609 15.388 14.7476C15.94 14.0016 16.2845 13.1269 16.3922 12.2123C16.4323 11.8713 16.707 11.5919 17.0504 11.5919V11.5919Z" fill="white"/>
<path d="M12.7578 10.7898C12.3159 10.7898 11.9577 11.148 11.9577 11.5898C11.9577 12.0317 12.3159 12.3899 12.7578 12.3899L12.7578 10.7898ZM12.7578 12.3899L17.6669 12.3899L17.6669 10.7898L12.7578 10.7898L12.7578 12.3899Z" fill="white"/>
<path d="M7.94077 18.9726C7.9385 18.9739 7.9365 18.975 7.93477 18.9759L7.92139 18.9706C7.9124 18.9429 7.90379 18.9011 7.90163 18.8419C7.89786 18.7386 7.91519 18.6129 7.95416 18.486L7.95416 18.486L7.95465 18.4844L7.97904 18.4025L9.827 13.416L9.90122 13.2157L9.6965 13.1548L8.0965 12.6786C8.09384 12.6743 8.09004 12.6672 8.08588 12.6563C8.07046 12.6158 8.0592 12.5473 8.0641 12.4532L8.06418 12.4532L8.06431 12.4476C8.06653 12.3542 8.08365 12.2483 8.11526 12.1421C8.14687 12.0359 8.19044 11.9379 8.23963 11.8585L8.24024 11.8575L9.81562 9.28223L12.895 4.50946L12.895 4.50948L12.8967 4.50681C12.943 4.43248 12.9848 4.39176 13.012 4.37243C13.0233 4.39776 13.0371 4.44525 13.0399 4.52247C13.0437 4.62572 13.0263 4.75141 12.9874 4.87831L12.9874 4.87831L12.9869 4.87996L12.9625 4.96187L11.1145 9.94831L11.0403 10.1486L11.245 10.2095L12.8487 10.6868C12.8514 10.6911 12.8552 10.6983 12.8594 10.7092C12.8748 10.7496 12.886 10.8182 12.8812 10.9122L12.8811 10.9122L12.8809 10.9179C12.8787 11.0112 12.8616 11.1171 12.83 11.2233C12.7984 11.3295 12.7548 11.4275 12.7056 11.5069L12.705 11.5079L11.1296 14.0832L8.05125 18.8544C8.00669 18.9207 7.96663 18.957 7.94077 18.9726ZM8.08241 12.6744C8.08253 12.6744 8.08265 12.6745 8.08277 12.6745L8.08241 12.6744ZM12.8628 10.691C12.8627 10.691 12.8626 10.691 12.8625 10.6909L12.8628 10.691Z" stroke="white" stroke-width="0.400032"/>
<rect x="21" y="1" width="20" height="20" rx="5" transform="rotate(90 21 1)" stroke="white" stroke-width="2"/>
</svg>
