<svg width="24" height="24" viewBox="0 0 24 24" fill="none" xmlns="http://www.w3.org/2000/svg">
<path d="M19.0442 3.7826C19.3555 3.7826 19.6541 3.90628 19.8742 4.12643C20.0944 4.34658 20.2181 4.64517 20.2181 4.95651V19.0435C20.2181 19.3548 20.0944 19.6534 19.8742 19.8736C19.6541 20.0937 19.3555 20.2174 19.0442 20.2174H4.9572C4.64586 20.2174 4.34727 20.0937 4.12712 19.8736C3.90697 19.6534 3.78329 19.3548 3.78329 19.0435V4.95651C3.78329 4.64517 3.90697 4.34658 4.12712 4.12643C4.34727 3.90628 4.64586 3.7826 4.9572 3.7826H19.0442ZM4.9572 2.60869C4.33452 2.60869 3.73734 2.85605 3.29704 3.29635C2.85673 3.73665 2.60938 4.33383 2.60938 4.95651L2.60938 19.0435C2.60938 19.6662 2.85673 20.2633 3.29704 20.7036C3.73734 21.1439 4.33452 21.3913 4.9572 21.3913H19.0442C19.6668 21.3913 20.264 21.1439 20.7043 20.7036C21.1446 20.2633 21.392 19.6662 21.392 19.0435V4.95651C21.392 4.33383 21.1446 3.73665 20.7043 3.29635C20.264 2.85605 19.6668 2.60869 19.0442 2.60869H4.9572Z" fill="#212121"/>
<path d="M10.6562 8.06274C10.7108 8.11727 10.7542 8.18204 10.7838 8.25335C10.8134 8.32466 10.8286 8.40111 10.8286 8.47831C10.8286 8.55552 10.8134 8.63196 10.7838 8.70327C10.7542 8.77458 10.7108 8.83935 10.6562 8.89388L7.54882 12L10.6562 15.1062C10.7664 15.2164 10.8283 15.3659 10.8283 15.5218C10.8283 15.6777 10.7664 15.8271 10.6562 15.9374C10.546 16.0476 10.3965 16.1095 10.2406 16.1095C10.0847 16.1095 9.93525 16.0476 9.82504 15.9374L6.3033 12.4156C6.24864 12.3611 6.20527 12.2963 6.17568 12.225C6.14609 12.1537 6.13086 12.0773 6.13086 12C6.13086 11.9228 6.14609 11.8464 6.17568 11.7751C6.20527 11.7038 6.24864 11.639 6.3033 11.5845L9.82504 8.06274C9.87956 8.00808 9.94433 7.96472 10.0156 7.93513C10.087 7.90554 10.1634 7.8903 10.2406 7.8903C10.3178 7.8903 10.3943 7.90554 10.4656 7.93513C10.5369 7.96472 10.6016 8.00808 10.6562 8.06274V8.06274ZM13.3468 8.06274C13.2921 8.11727 13.2487 8.18204 13.2192 8.25335C13.1896 8.32466 13.1743 8.40111 13.1743 8.47831C13.1743 8.55552 13.1896 8.63196 13.2192 8.70327C13.2487 8.77458 13.2921 8.83935 13.3468 8.89388L16.4541 12L13.3468 15.1062C13.2366 15.2164 13.1746 15.3659 13.1746 15.5218C13.1746 15.6777 13.2366 15.8271 13.3468 15.9374C13.457 16.0476 13.6065 16.1095 13.7623 16.1095C13.9182 16.1095 14.0677 16.0476 14.1779 15.9374L17.6996 12.4156C17.7543 12.3611 17.7977 12.2963 17.8273 12.225C17.8569 12.1537 17.8721 12.0773 17.8721 12C17.8721 11.9228 17.8569 11.8464 17.8273 11.7751C17.7977 11.7038 17.7543 11.639 17.6996 11.5845L14.1779 8.06274C14.1234 8.00808 14.0586 7.96472 13.9873 7.93513C13.916 7.90554 13.8395 7.8903 13.7623 7.8903C13.6851 7.8903 13.6087 7.90554 13.5374 7.93513C13.4661 7.96472 13.4013 8.00808 13.3468 8.06274V8.06274Z" fill="#212121"/>
</svg>
