<svg width="24" height="24" viewBox="0 0 24 24" fill="none" xmlns="http://www.w3.org/2000/svg">
<path d="M7.35444 3.35057C8.17281 2.73078 9.17186 2.3965 10.1984 2.39897C10.553 2.39102 10.9038 2.47262 11.2184 2.63623C11.5331 2.79984 11.8013 3.04016 11.9984 3.33497C12.1955 3.04016 12.4638 2.79984 12.7785 2.63623C13.0931 2.47262 13.4439 2.39102 13.7984 2.39897C14.825 2.3965 15.8241 2.73078 16.6424 3.35057C17.2724 3.84017 17.7584 4.51817 17.93 5.33777C18.3236 5.36777 18.6836 5.53097 18.986 5.77697C19.4444 6.14897 19.778 6.70697 19.988 7.29737C20.3168 8.21537 20.4056 9.38537 20.0648 10.3814C20.1512 10.4222 20.2364 10.4702 20.3192 10.5254C20.6492 10.745 20.9 11.0594 21.0848 11.4302C21.4484 12.1562 21.5984 13.169 21.5984 14.399C21.5984 15.7682 21.0764 16.6874 20.414 17.255C20.0477 17.569 19.6155 17.7967 19.1492 17.921C19.0292 18.5906 18.6932 19.3658 18.1664 20.0234C17.4824 20.8814 16.4216 21.599 14.9984 21.599C13.8704 21.599 12.9728 20.975 12.3896 20.363C12.2502 20.2168 12.1196 20.0626 11.9984 19.901C11.8773 20.0626 11.7467 20.2169 11.6072 20.363C11.024 20.975 10.1276 21.599 8.99844 21.599C7.57524 21.599 6.51564 20.8814 5.83044 20.0234C5.33815 19.412 5.00097 18.6907 4.84764 17.921C4.38141 17.7967 3.94914 17.569 3.58284 17.255C2.92044 16.6874 2.39844 15.767 2.39844 14.399C2.39844 13.169 2.54964 12.155 2.91204 11.4302C3.08379 11.0665 3.34774 10.7542 3.67764 10.5242C3.75868 10.4705 3.84373 10.4232 3.93204 10.3826C3.59124 9.38417 3.68004 8.21537 4.00884 7.29737C4.21884 6.70697 4.55244 6.14897 5.01084 5.77697C5.31324 5.53097 5.67324 5.36897 6.06684 5.33777C6.23964 4.51817 6.72444 3.84017 7.35444 3.35057ZM11.3984 5.39897V5.38697L11.396 5.32697C11.3784 5.01413 11.3161 4.70542 11.2112 4.41017C11.1366 4.18728 11.0094 3.98561 10.8404 3.82217C10.6632 3.66782 10.4332 3.58786 10.1984 3.59897C9.43877 3.59636 8.69897 3.84156 8.09124 4.29737C7.53444 4.73057 7.19844 5.31737 7.19844 5.99897C7.19837 6.09399 7.17573 6.18763 7.13238 6.27219C7.08904 6.35675 7.02624 6.42981 6.94914 6.48535C6.87204 6.54089 6.78285 6.57732 6.68892 6.59165C6.59498 6.60598 6.49899 6.59779 6.40884 6.56777C6.18324 6.49337 5.98164 6.53537 5.76684 6.70817C5.53164 6.90017 5.30244 7.24097 5.13804 7.70057C4.80324 8.63897 4.83804 9.77537 5.29764 10.4666C5.36328 10.565 5.39835 10.6807 5.39844 10.799H6.29844C7.01452 10.799 7.70128 11.0834 8.20763 11.5898C8.71397 12.0961 8.99844 12.7829 8.99844 13.499V13.901C9.39877 14.0425 9.73617 14.321 9.95102 14.6873C10.1659 15.0535 10.2443 15.4839 10.1725 15.9024C10.1007 16.3209 9.88327 16.7005 9.55863 16.9742C9.23399 17.2479 8.82305 17.398 8.39844 17.398C7.97382 17.398 7.56288 17.2479 7.23824 16.9742C6.9136 16.7005 6.69616 16.3209 6.62436 15.9024C6.55256 15.4839 6.63101 15.0535 6.84586 14.6873C7.0607 14.321 7.39811 14.0425 7.79844 13.901V13.499C7.79844 12.671 7.12644 11.999 6.29844 11.999H4.19844C4.1267 11.9988 4.05557 11.9858 3.98844 11.9606L3.98484 11.9678C3.74724 12.4418 3.59844 13.229 3.59844 14.399C3.59844 15.4298 3.97644 16.0106 4.36404 16.343C4.78044 16.7006 5.24244 16.799 5.39844 16.799C5.55757 16.799 5.71018 16.8622 5.8227 16.9747C5.93522 17.0872 5.99844 17.2398 5.99844 17.399C5.99844 17.8406 6.23844 18.6122 6.76644 19.2746C7.28124 19.9166 8.02164 20.399 8.99844 20.399C9.67044 20.399 10.2728 20.0234 10.7384 19.535C10.9676 19.295 11.1464 19.0466 11.2628 18.8426C11.3158 18.7521 11.3612 18.6574 11.3984 18.5594V8.99897H10.0964C9.9549 9.3993 9.6764 9.7367 9.31015 9.95155C8.9439 10.1664 8.51349 10.2448 8.095 10.173C7.6765 10.1012 7.29686 9.8838 7.02317 9.55916C6.74949 9.23452 6.59938 8.82358 6.59938 8.39897C6.59938 7.97436 6.74949 7.56341 7.02317 7.23877C7.29686 6.91413 7.6765 6.69669 8.095 6.62489C8.51349 6.55309 8.9439 6.63154 9.31015 6.84639C9.6764 7.06124 9.9549 7.39864 10.0964 7.79897H11.3984V5.39897ZM12.5984 17.3978V18.5582C12.6357 18.6562 12.6811 18.7509 12.734 18.8414C12.8516 19.0454 13.0292 19.2938 13.2572 19.5338C13.724 20.0222 14.3276 20.3978 14.9984 20.3978C15.9752 20.3978 16.7156 19.9154 17.2304 19.2734C17.7584 18.611 17.9984 17.8394 17.9984 17.3978C17.9984 17.2386 18.0617 17.086 18.1742 16.9735C18.2867 16.861 18.4393 16.7978 18.5984 16.7978C18.7544 16.7978 19.2164 16.6994 19.6328 16.3418C20.0204 16.0094 20.3984 15.4286 20.3984 14.3978C20.3984 13.2278 20.2484 12.4418 20.012 11.9666C19.933 11.7896 19.8088 11.6365 19.652 11.5226C19.5169 11.4362 19.3587 11.3931 19.1984 11.399C19.0899 11.3989 18.9834 11.3694 18.8903 11.3136C18.7972 11.2578 18.721 11.1778 18.6698 11.0822C18.6186 10.9865 18.5942 10.8787 18.5994 10.7703C18.6046 10.6619 18.6391 10.5569 18.6992 10.4666C19.16 9.77537 19.1936 8.63897 18.8588 7.70057C18.6944 7.24097 18.4652 6.89897 18.23 6.70817C18.0152 6.53537 17.8136 6.49217 17.588 6.56777C17.4979 6.59779 17.4019 6.60598 17.308 6.59165C17.214 6.57732 17.1248 6.54089 17.0477 6.48535C16.9706 6.42981 16.9078 6.35675 16.8645 6.27219C16.8211 6.18763 16.7985 6.09399 16.7984 5.99897C16.7984 5.31737 16.4624 4.73057 15.9044 4.29737C15.297 3.84181 14.5577 3.59662 13.7984 3.59897C13.5637 3.58786 13.3337 3.66782 13.1564 3.82217C12.987 3.98542 12.8594 4.18712 12.7844 4.41017C12.6702 4.72361 12.6074 5.05347 12.5984 5.38697V16.199H13.4984C14.3264 16.199 14.9984 15.527 14.9984 14.699V12.497C14.5981 12.3554 14.2607 12.0769 14.0459 11.7107C13.831 11.3444 13.7526 10.914 13.8244 10.4955C13.8962 10.077 14.1136 9.69739 14.4382 9.4237C14.7629 9.15002 15.1738 8.99991 15.5984 8.99991C16.023 8.99991 16.434 9.15002 16.7586 9.4237C17.0833 9.69739 17.3007 10.077 17.3725 10.4955C17.4443 10.914 17.3659 11.3444 17.151 11.7107C16.9362 12.0769 16.5988 12.3554 16.1984 12.497V14.699C16.1984 15.4151 15.914 16.1018 15.4076 16.6082C14.9013 17.1145 14.2145 17.399 13.4984 17.399H12.5984V17.3978ZM7.79844 8.39897C7.79844 8.5581 7.86165 8.71071 7.97417 8.82323C8.0867 8.93575 8.23931 8.99897 8.39844 8.99897C8.55757 8.99897 8.71018 8.93575 8.8227 8.82323C8.93522 8.71071 8.99844 8.5581 8.99844 8.39897C8.99844 8.23984 8.93522 8.08723 8.8227 7.9747C8.71018 7.86218 8.55757 7.79897 8.39844 7.79897C8.23931 7.79897 8.0867 7.86218 7.97417 7.9747C7.86165 8.08723 7.79844 8.23984 7.79844 8.39897ZM15.5984 11.399C15.7576 11.399 15.9102 11.3358 16.0227 11.2232C16.1352 11.1107 16.1984 10.9581 16.1984 10.799C16.1984 10.6398 16.1352 10.4872 16.0227 10.3747C15.9102 10.2622 15.7576 10.199 15.5984 10.199C15.4393 10.199 15.2867 10.2622 15.1742 10.3747C15.0617 10.4872 14.9984 10.6398 14.9984 10.799C14.9984 10.9581 15.0617 11.1107 15.1742 11.2232C15.2867 11.3358 15.4393 11.399 15.5984 11.399ZM8.39844 14.999C8.23931 14.999 8.0867 15.0622 7.97417 15.1747C7.86165 15.2872 7.79844 15.4398 7.79844 15.599C7.79844 15.7581 7.86165 15.9107 7.97417 16.0232C8.0867 16.1358 8.23931 16.199 8.39844 16.199C8.55757 16.199 8.71018 16.1358 8.8227 16.0232C8.93522 15.9107 8.99844 15.7581 8.99844 15.599C8.99844 15.4398 8.93522 15.2872 8.8227 15.1747C8.71018 15.0622 8.55757 14.999 8.39844 14.999Z" fill="url(#paint0_linear_574_43012)"/>
<defs>
<linearGradient id="paint0_linear_574_43012" x1="11.9984" y1="2.39844" x2="11.9984" y2="21.599" gradientUnits="userSpaceOnUse">
<stop stop-color="#F97316"/>
<stop offset="0.75" stop-color="#E4A53D"/>
</linearGradient>
</defs>
</svg>
