<svg width="48" height="48" viewBox="0 0 48 48" fill="none" xmlns="http://www.w3.org/2000/svg">
<g clip-path="url(#clip0_2145_107928)">
<path d="M24.4143 46.9948C37.0847 46.9948 47.3561 36.7234 47.3561 24.0531C47.3561 11.3827 37.0847 1.11133 24.4143 1.11133C11.744 1.11133 1.47266 11.3827 1.47266 24.0531C1.47266 36.7234 11.744 46.9948 24.4143 46.9948Z" fill="#F4B960"/>
<path d="M22.0892 42.4482C33.5338 42.4482 42.8114 33.1705 42.8114 21.7261C42.8114 10.2816 33.5338 1.00391 22.0892 1.00391C10.6448 1.00391 1.36719 10.2816 1.36719 21.7261C1.36719 33.1705 10.6448 42.4482 22.0892 42.4482Z" fill="#E66F32"/>
<path d="M24.9415 37.0567C34.8674 37.0567 42.914 29.0101 42.914 19.084C42.914 9.15793 34.8674 1.11133 24.9415 1.11133C15.0154 1.11133 6.96875 9.15793 6.96875 19.084C6.96875 29.0101 15.0154 37.0567 24.9415 37.0567Z" fill="#E43C41"/>
<path d="M26.3166 36.9492C35.4249 36.9492 42.8088 29.5653 42.8088 20.457C42.8088 11.3486 35.4249 3.96484 26.3166 3.96484C17.2081 3.96484 9.82422 11.3486 9.82422 20.457C9.82422 29.5653 17.2081 36.9492 26.3166 36.9492Z" fill="#BDD041"/>
<path d="M25.1544 37.0568C33.621 37.0568 40.4845 30.1932 40.4845 21.7266C40.4845 13.26 33.621 6.39648 25.1544 6.39648C16.6878 6.39648 9.82422 13.26 9.82422 21.7266C9.82422 30.1932 16.6878 37.0568 25.1544 37.0568Z" fill="#6DB54C"/>
<path d="M22.7218 31.9809C29.7868 31.9809 35.514 26.2536 35.514 19.1888C35.514 12.1238 29.7868 6.39648 22.7218 6.39648C15.657 6.39648 9.92969 12.1238 9.92969 19.1888C9.92969 26.2536 15.657 31.9809 22.7218 31.9809Z" fill="#AEDAE6"/>
<path d="M24.7294 27.8591C30.6852 27.8591 35.5134 23.0309 35.5134 17.075C35.5134 11.1191 30.6852 6.29102 24.7294 6.29102C18.7735 6.29102 13.9453 11.1191 13.9453 17.075C13.9453 23.0309 18.7735 27.8591 24.7294 27.8591Z" fill="#56B8DE"/>
<path d="M26.1018 27.9634C31.2992 27.9634 35.5122 23.7502 35.5122 18.553C35.5122 13.3558 31.2992 9.14258 26.1018 9.14258C20.9046 9.14258 16.6914 13.3558 16.6914 18.553C16.6914 23.7502 20.9046 27.9634 26.1018 27.9634Z" fill="#00B1D5"/>
<path d="M24.7301 27.8583C29.1674 27.8583 32.7647 24.2611 32.7647 19.8237C32.7647 15.3862 29.1674 11.7891 24.7301 11.7891C20.2926 11.7891 16.6953 15.3862 16.6953 19.8237C16.6953 24.2611 20.2926 27.8583 24.7301 27.8583Z" fill="url(#paint0_radial_2145_107928)"/>
<path d="M24.7301 27.8583C29.1674 27.8583 32.7647 24.2611 32.7647 19.8237C32.7647 15.3862 29.1674 11.7891 24.7301 11.7891C20.2926 11.7891 16.6953 15.3862 16.6953 19.8237C16.6953 24.2611 20.2926 27.8583 24.7301 27.8583Z" fill="#221F1F"/>
<path d="M29.395 17.5679C29.9688 16.289 29.7865 14.9618 28.9878 14.6035C28.189 14.2451 27.0765 14.9912 26.5026 16.2701C25.9288 17.5489 26.1111 18.8761 26.9098 19.2344C27.7086 19.5929 28.8213 18.8467 29.395 17.5679Z" fill="white"/>
</g>
<defs>
<radialGradient id="paint0_radial_2145_107928" cx="0" cy="0" r="1" gradientUnits="userSpaceOnUse" gradientTransform="translate(24.7428 19.9297) scale(8.09943 8.09943)">
<stop stop-color="#797979"/>
<stop offset="1" stop-color="#4C4C4C"/>
</radialGradient>
<clipPath id="clip0_2145_107928">
<rect width="48" height="48" fill="white"/>
</clipPath>
</defs>
</svg>
