<svg width="18" height="18" viewBox="0 0 18 18" fill="none" xmlns="http://www.w3.org/2000/svg">
<g clip-path="url(#clip0_2145_107915)">
<path d="M9.15391 17.6223C13.9053 17.6223 17.7571 13.7706 17.7571 9.01917C17.7571 4.26779 13.9053 0.416016 9.15391 0.416016C4.40253 0.416016 0.550781 4.26779 0.550781 9.01917C0.550781 13.7706 4.40253 17.6223 9.15391 17.6223Z" fill="#F4B960"/>
<path d="M8.28248 15.9185C12.5742 15.9185 16.0533 12.4394 16.0533 8.14778C16.0533 3.85607 12.5742 0.376953 8.28248 0.376953C3.99083 0.376953 0.511719 3.85607 0.511719 8.14778C0.511719 12.4394 3.99083 15.9185 8.28248 15.9185Z" fill="#E66F32"/>
<path d="M9.35306 13.8955C13.0753 13.8955 16.0928 10.8781 16.0928 7.15578C16.0928 3.43349 13.0753 0.416016 9.35306 0.416016C5.63077 0.416016 2.61328 3.43349 2.61328 7.15578C2.61328 10.8781 5.63077 13.8955 9.35306 13.8955Z" fill="#E43C41"/>
<path d="M9.86823 13.8555C13.2838 13.8555 16.0528 11.0865 16.0528 7.6709C16.0528 4.25523 13.2838 1.48633 9.86823 1.48633C6.45256 1.48633 3.68359 4.25523 3.68359 7.6709C3.68359 11.0865 6.45256 13.8555 9.86823 13.8555Z" fill="#BDD041"/>
<path d="M9.4324 13.896C12.6074 13.896 15.1812 11.3222 15.1812 8.14724C15.1812 4.97227 12.6074 2.39844 9.4324 2.39844C6.25742 2.39844 3.68359 4.97227 3.68359 8.14724C3.68359 11.3222 6.25742 13.896 9.4324 13.896Z" fill="#6DB54C"/>
<path d="M8.51971 11.9926C11.1691 11.9926 13.3168 9.84487 13.3168 7.19555C13.3168 4.54618 11.1691 2.39844 8.51971 2.39844C5.87039 2.39844 3.72266 4.54618 3.72266 7.19555C3.72266 9.84487 5.87039 11.9926 8.51971 11.9926Z" fill="#AEDAE6"/>
<path d="M9.27451 10.4474C11.5079 10.4474 13.3185 8.63682 13.3185 6.40336C13.3185 4.16989 11.5079 2.35938 9.27451 2.35938C7.04104 2.35938 5.23047 4.16989 5.23047 6.40336C5.23047 8.63682 7.04104 10.4474 9.27451 10.4474Z" fill="#56B8DE"/>
<path d="M9.79062 10.4875C11.7396 10.4875 13.3195 8.90754 13.3195 6.95859C13.3195 5.00964 11.7396 3.42969 9.79062 3.42969C7.84167 3.42969 6.26172 5.00964 6.26172 6.95859C6.26172 8.90754 7.84167 10.4875 9.79062 10.4875Z" fill="#00B1D5"/>
<path d="M9.27475 10.4478C10.9387 10.4478 12.2877 9.09889 12.2877 7.43485C12.2877 5.77081 10.9387 4.42188 9.27475 4.42188C7.61071 4.42188 6.26172 5.77081 6.26172 7.43485C6.26172 9.09889 7.61071 10.4478 9.27475 10.4478Z" fill="url(#paint0_radial_2145_107915)"/>
<path d="M9.27475 10.4478C10.9387 10.4478 12.2877 9.09889 12.2877 7.43485C12.2877 5.77081 10.9387 4.42188 9.27475 4.42188C7.61071 4.42188 6.26172 5.77081 6.26172 7.43485C6.26172 9.09889 7.61071 10.4478 9.27475 10.4478Z" fill="#221F1F"/>
<path d="M11.0227 6.58871C11.2378 6.10912 11.1695 5.61142 10.8699 5.47704C10.5704 5.34266 10.1532 5.62244 9.93799 6.10203C9.72283 6.58156 9.79117 7.07926 10.0907 7.21364C10.3902 7.34808 10.8075 7.06824 11.0227 6.58871Z" fill="white"/>
</g>
<defs>
<radialGradient id="paint0_radial_2145_107915" cx="0" cy="0" r="1" gradientUnits="userSpaceOnUse" gradientTransform="translate(9.27953 7.47462) scale(3.03729)">
<stop stop-color="#797979"/>
<stop offset="1" stop-color="#4C4C4C"/>
</radialGradient>
<clipPath id="clip0_2145_107915">
<rect width="18" height="18" fill="white"/>
</clipPath>
</defs>
</svg>
