<svg width="29" height="29" viewBox="0 0 29 29" fill="none" xmlns="http://www.w3.org/2000/svg">
<g clip-path="url(#clip0_7100_42072)">
<path d="M23.5339 9.83333H20.2555C19.7305 8.92333 19.0072 8.14167 18.1322 7.54667L20.0339 5.645L18.3889 4L15.8572 6.53167C15.3205 6.40333 14.7722 6.33333 14.2005 6.33333C13.6289 6.33333 13.0805 6.40333 12.5555 6.53167L10.0122 4L8.36719 5.645L10.2572 7.54667C9.39385 8.14167 8.67052 8.92333 8.14552 9.83333H4.86719V12.1667H7.30552C7.24719 12.5517 7.20052 12.9367 7.20052 13.3333V14.5H4.86719V16.8333H7.20052V18C7.20052 18.3967 7.24719 18.7817 7.30552 19.1667H4.86719V21.5H8.14552C9.35885 23.5883 11.6105 25 14.2005 25C16.7905 25 19.0422 23.5883 20.2555 21.5H23.5339V19.1667H21.0955C21.1539 18.7817 21.2005 18.3967 21.2005 18V16.8333H23.5339V14.5H21.2005V13.3333C21.2005 12.9367 21.1539 12.5517 21.0955 12.1667H23.5339V9.83333ZM18.8672 14.5V18C18.8672 18.2567 18.8322 18.5483 18.7855 18.8167L18.6689 19.575L18.2372 20.3333C17.3972 21.78 15.8572 22.6667 14.2005 22.6667C12.5439 22.6667 11.0039 21.7683 10.1639 20.3333L9.73219 19.5867L9.61552 18.8283C9.56885 18.56 9.53385 18.2683 9.53385 18V13.3333C9.53385 13.065 9.56885 12.7733 9.61552 12.5167L9.73219 11.7583L10.1639 11C10.5139 10.3933 11.0039 9.86833 11.5755 9.47167L12.2405 9.01667L13.1039 8.80667C13.4655 8.71333 13.8389 8.66667 14.2005 8.66667C14.5739 8.66667 14.9355 8.71333 15.3089 8.80667L16.1022 8.99333L16.8139 9.48333C17.3972 9.88 17.8755 10.3933 18.2255 11.0117L18.6689 11.77L18.7855 12.5283C18.8322 12.785 18.8672 13.0767 18.8672 13.3333V14.5ZM11.8672 16.8333H16.5339V19.1667H11.8672V16.8333ZM11.8672 12.1667H16.5339V14.5H11.8672V12.1667Z" fill="#605BFF"/>
</g>
<defs>
<clipPath id="clip0_7100_42072">
<rect width="28" height="28" fill="white" transform="translate(0.200195 0.5)"/>
</clipPath>
</defs>
</svg>
