<svg width="15" height="14" viewBox="0 0 15 14" fill="none" xmlns="http://www.w3.org/2000/svg">
<g clip-path="url(#clip0_4013_126838)">
<path d="M12.1654 4.66667H10.5262C10.2637 4.21167 9.90203 3.82083 9.46453 3.52333L10.4154 2.5725L9.59286 1.75L8.32703 3.01583C8.0587 2.95167 7.78453 2.91667 7.4987 2.91667C7.21286 2.91667 6.9387 2.95167 6.6762 3.01583L5.40453 1.75L4.58203 2.5725L5.52703 3.52333C5.09536 3.82083 4.7337 4.21167 4.4712 4.66667H2.83203V5.83333H4.0512C4.02203 6.02583 3.9987 6.21833 3.9987 6.41667V7H2.83203V8.16667H3.9987V8.75C3.9987 8.94833 4.02203 9.14083 4.0512 9.33333H2.83203V10.5H4.4712C5.07786 11.5442 6.2037 12.25 7.4987 12.25C8.7937 12.25 9.91953 11.5442 10.5262 10.5H12.1654V9.33333H10.9462C10.9754 9.14083 10.9987 8.94833 10.9987 8.75V8.16667H12.1654V7H10.9987V6.41667C10.9987 6.21833 10.9754 6.02583 10.9462 5.83333H12.1654V4.66667ZM9.83203 7V8.75C9.83203 8.87833 9.81453 9.02417 9.7912 9.15833L9.73286 9.5375L9.51703 9.91667C9.09703 10.64 8.32703 11.0833 7.4987 11.0833C6.67036 11.0833 5.90036 10.6342 5.48036 9.91667L5.26453 9.54333L5.2062 9.16417C5.18286 9.03 5.16536 8.88417 5.16536 8.75V6.41667C5.16536 6.2825 5.18286 6.13667 5.2062 6.00833L5.26453 5.62917L5.48036 5.25C5.65536 4.94667 5.90036 4.68417 6.1862 4.48583L6.5187 4.25833L6.95036 4.15333C7.1312 4.10667 7.31786 4.08333 7.4987 4.08333C7.68536 4.08333 7.8662 4.10667 8.05286 4.15333L8.44953 4.24667L8.80536 4.49167C9.09703 4.69 9.3362 4.94667 9.5112 5.25583L9.73286 5.635L9.7912 6.01417C9.81453 6.1425 9.83203 6.28833 9.83203 6.41667V7ZM6.33203 8.16667H8.66536V9.33333H6.33203V8.16667ZM6.33203 5.83333H8.66536V7H6.33203V5.83333Z" fill="#212121"/>
</g>
<defs>
<clipPath id="clip0_4013_126838">
<rect width="14" height="14" fill="white" transform="translate(0.5)"/>
</clipPath>
</defs>
</svg>
