<svg width="48" height="48" viewBox="0 0 48 48" fill="none" xmlns="http://www.w3.org/2000/svg">
    <path d="M40.0001 37.4999H8.0001C7.738 37.4991 7.48055 37.4306 7.25277 37.3009C7.02498 37.1713 6.8346 36.9849 6.7001 36.7599C6.57224 36.5306 6.50513 36.2725 6.50513 36.0099C6.50513 35.7474 6.57224 35.4892 6.7001 35.2599L22.7001 7.25993C22.8424 7.04541 23.0356 6.86943 23.2624 6.7477C23.4892 6.62596 23.7427 6.56226 24.0001 6.56226C24.2575 6.56226 24.511 6.62596 24.7378 6.7477C24.9646 6.86943 25.1578 7.04541 25.3001 7.25993L41.3001 35.2599C41.428 35.4892 41.4951 35.7474 41.4951 36.0099C41.4951 36.2725 41.428 36.5306 41.3001 36.7599C41.1656 36.9849 40.9752 37.1713 40.7474 37.3009C40.5196 37.4306 40.2622 37.4991 40.0001 37.4999ZM10.5801 34.4999H37.4201L24.0001 11.0199L10.5801 34.4999Z" fill="#9E9E9E"/>
    <path d="M24 26.5C23.6038 26.4948 23.2253 26.3351 22.9451 26.0549C22.6649 25.7747 22.5052 25.3962 22.5 25V18C22.5 17.6022 22.658 17.2206 22.9393 16.9393C23.2206 16.658 23.6022 16.5 24 16.5C24.3978 16.5 24.7794 16.658 25.0607 16.9393C25.342 17.2206 25.5 17.6022 25.5 18V25C25.4948 25.3962 25.3351 25.7747 25.0549 26.0549C24.7747 26.3351 24.3962 26.4948 24 26.5Z" fill="#9E9E9E"/>
    <path d="M24 32.5C23.6038 32.4948 23.2253 32.3351 22.9451 32.0549C22.6649 31.7747 22.5052 31.3962 22.5 31V30C22.5 29.6022 22.658 29.2206 22.9393 28.9393C23.2206 28.658 23.6022 28.5 24 28.5C24.3978 28.5 24.7794 28.658 25.0607 28.9393C25.342 29.2206 25.5 29.6022 25.5 30V31C25.4948 31.3962 25.3351 31.7747 25.0549 32.0549C24.7747 32.3351 24.3962 32.4948 24 32.5Z" fill="#9E9E9E"/>
</svg>
