<svg width="24" height="24" viewBox="0 0 24 24" fill="none" xmlns="http://www.w3.org/2000/svg">
<g clip-path="url(#clip0_7123_221962)">
<path d="M0.800781 0V7.2C0.800781 8.04869 1.13792 8.86262 1.73804 9.46274C2.33816 10.0629 3.15209 10.4 4.00078 10.4C4.84947 10.4 5.66341 10.0629 6.26352 9.46274C6.86364 8.86262 7.20078 8.04869 7.20078 7.2V2.4C7.20078 1.97565 7.03221 1.56869 6.73215 1.26863C6.43209 0.968571 6.02513 0.8 5.60078 0.8C5.17643 0.8 4.76947 0.968571 4.46941 1.26863C4.16935 1.56869 4.00078 1.97565 4.00078 2.4V8M9.60078 0.8H20.0008C20.4251 0.8 20.8321 0.968571 21.1322 1.26863C21.4322 1.56869 21.6008 1.97565 21.6008 2.4V21.6C21.6008 22.0243 21.4322 22.4313 21.1322 22.7314C20.8321 23.0314 20.4251 23.2 20.0008 23.2H4.00078C3.57643 23.2 3.16947 23.0314 2.86941 22.7314C2.56935 22.4313 2.40078 22.0243 2.40078 21.6V12.8M17.6008 7.2H11.2008M17.6008 12H11.2008M17.6008 16.8H6.40078" stroke="#757575" stroke-width="2.13333"/>
</g>
<defs>
<clipPath id="clip0_7123_221962">
<rect width="24" height="24" fill="white"/>
</clipPath>
</defs>
</svg>
