<svg width="24" height="24" viewBox="0 0 24 24" fill="none" xmlns="http://www.w3.org/2000/svg">
<path d="M9.00089 18.25C8.90018 18.2466 8.80123 18.2227 8.71009 18.1797C8.61895 18.1367 8.53756 18.0755 8.47089 18L3.47089 13C3.37556 12.9382 3.29552 12.8555 3.23681 12.7582C3.17809 12.661 3.14225 12.5516 3.13198 12.4385C3.12171 12.3253 3.13728 12.2113 3.17751 12.1051C3.21775 11.9988 3.2816 11.9031 3.36424 11.8251C3.44688 11.7472 3.54616 11.689 3.65458 11.655C3.76299 11.621 3.87771 11.6121 3.99007 11.6289C4.10243 11.6458 4.2095 11.6879 4.30319 11.7522C4.39687 11.8165 4.47474 11.9012 4.53089 12L9.00089 16.44L19.4709 5.99997C19.6118 5.90858 19.7794 5.86716 19.9467 5.88234C20.114 5.89753 20.2714 5.96845 20.3936 6.08373C20.5158 6.19901 20.5957 6.35197 20.6206 6.51811C20.6455 6.68425 20.6139 6.85393 20.5309 6.99997L9.53089 18C9.46422 18.0755 9.38283 18.1367 9.29169 18.1797C9.20056 18.2227 9.1016 18.2466 9.00089 18.25Z" fill="#212121"/>
</svg>
