<svg width="204" height="299" viewBox="0 0 204 299" fill="none" xmlns="http://www.w3.org/2000/svg">
<rect x="1" y="1" width="202" height="65.8743" rx="5" fill="white" stroke="black" stroke-width="2"/>
<line x1="23.9897" y1="30.3667" x2="133.937" y2="30.3667" stroke="black" stroke-width="4"/>
<rect x="1" y="81.6284" width="202" height="65.8743" rx="5" fill="white" stroke="black" stroke-width="2"/>
<line x1="23.9897" y1="110.995" x2="133.937" y2="110.995" stroke="black" stroke-width="4"/>
<rect x="1" y="162.256" width="202" height="65.8743" rx="5" fill="#EBEBFF" stroke="black" stroke-width="2"/>
<line x1="23.9897" y1="191.623" x2="133.937" y2="191.623" stroke="black" stroke-width="4"/>
<path d="M140.914 258.023L131.634 248.737C130.86 247.962 129.944 247.359 128.941 246.966C127.939 246.573 126.872 246.397 125.803 246.448C124.735 246.5 123.687 246.778 122.724 247.266C121.76 247.754 120.9 248.441 120.196 249.288C118.899 250.844 118.199 252.851 118.232 254.919C118.265 256.988 119.028 258.969 120.374 260.479L150.622 294.383C152.551 296.539 155.234 297.764 158.049 297.764H181.638C193.855 297.764 202 287.065 202 276.366V243.694" fill="white"/>
<path d="M140.914 258.023L131.634 248.737C130.86 247.962 129.944 247.359 128.941 246.966C127.939 246.573 126.872 246.397 125.803 246.448C124.735 246.5 123.687 246.778 122.724 247.266C121.76 247.754 120.9 248.441 120.196 249.288C118.899 250.844 118.199 252.851 118.232 254.919C118.265 256.988 119.028 258.969 120.374 260.479L150.622 294.383C152.551 296.539 155.234 297.764 158.049 297.764H181.638C193.855 297.764 202 287.065 202 276.366V243.694" stroke="black" stroke-width="1.5" stroke-linecap="round" stroke-linejoin="round"/>
<path d="M186.769 251.935V247.922C186.769 231.858 202 231.858 202 247.922M171.538 251.935V239.89C171.538 223.826 186.769 223.826 186.769 239.89V251.935M156.308 254.356V234.367C156.308 218.303 171.538 218.303 171.538 234.367V251.935M141.077 258.164V206.258C141.077 203.462 141.879 200.781 143.307 198.805C144.735 196.828 146.672 195.717 148.692 195.717C152.896 195.717 156.308 200.426 156.308 206.251V254.356" fill="white"/>
<path d="M202 247.922C202 231.858 186.769 231.858 186.769 247.922V251.935V239.89C186.769 223.826 171.538 223.826 171.538 239.89V251.935V234.367C171.538 218.303 156.308 218.303 156.308 234.367V254.356V206.251C156.308 200.426 152.896 195.717 148.692 195.717C146.672 195.717 144.735 196.828 143.307 198.805C141.879 200.781 141.077 203.462 141.077 206.258V258.164" stroke="black" stroke-width="1.5" stroke-linecap="round" stroke-linejoin="round"/>
</svg>
