<svg width="32" height="32" viewBox="0 0 32 32" fill="none" xmlns="http://www.w3.org/2000/svg">
<path d="M16 28C13.6266 28 11.3066 27.2962 9.33316 25.9776C7.35977 24.6591 5.8217 22.7849 4.91345 20.5922C4.0052 18.3995 3.76756 15.9867 4.23058 13.6589C4.6936 11.3312 5.83649 9.19295 7.51472 7.51472C9.19295 5.83649 11.3312 4.6936 13.6589 4.23058C15.9867 3.76756 18.3995 4.0052 20.5922 4.91345C22.7849 5.8217 24.6591 7.35977 25.9776 9.33316C27.2962 11.3066 28 13.6266 28 16C28 19.1826 26.7357 22.2348 24.4853 24.4853C22.2348 26.7357 19.1826 28 16 28V28ZM16 6.00001C14.0222 6.00001 12.0888 6.5865 10.4443 7.68531C8.79981 8.78412 7.51809 10.3459 6.76121 12.1732C6.00433 14.0004 5.8063 16.0111 6.19215 17.9509C6.578 19.8907 7.53041 21.6725 8.92894 23.0711C10.3275 24.4696 12.1093 25.422 14.0491 25.8079C15.9889 26.1937 17.9996 25.9957 19.8268 25.2388C21.6541 24.4819 23.2159 23.2002 24.3147 21.5557C25.4135 19.9112 26 17.9778 26 16C26 13.3478 24.9464 10.8043 23.0711 8.92894C21.1957 7.05357 18.6522 6.00001 16 6.00001Z" fill="#D9342B"/>
<path d="M11.9991 20.9985C11.8677 20.9991 11.7375 20.9735 11.6162 20.9231C11.4948 20.8727 11.3848 20.7986 11.2925 20.7052C11.1052 20.5177 11 20.2635 11 19.9985C11 19.7335 11.1052 19.4793 11.2925 19.2918L19.2925 11.2918C19.482 11.1152 19.7327 11.019 19.9918 11.0236C20.2509 11.0282 20.4981 11.1331 20.6813 11.3163C20.8645 11.4995 20.9694 11.7467 20.974 12.0058C20.9786 12.2649 20.8824 12.5156 20.7058 12.7052L12.7058 20.7052C12.6135 20.7986 12.5034 20.8727 12.382 20.9231C12.2607 20.9735 12.1305 20.9991 11.9991 20.9985Z" fill="#D9342B"/>
<path d="M19.9985 20.9985C19.8671 20.9991 19.7369 20.9735 19.6156 20.9231C19.4942 20.8727 19.3842 20.7986 19.2918 20.7052L11.2918 12.7052C11.1152 12.5156 11.019 12.2649 11.0236 12.0058C11.0282 11.7467 11.1331 11.4995 11.3163 11.3163C11.4995 11.1331 11.7467 11.0282 12.0058 11.0236C12.2649 11.019 12.5156 11.1152 12.7052 11.2918L20.7052 19.2918C20.8924 19.4793 20.9976 19.7335 20.9976 19.9985C20.9976 20.2635 20.8924 20.5177 20.7052 20.7052C20.6128 20.7986 20.5028 20.8727 20.3814 20.9231C20.2601 20.9735 20.1299 20.9991 19.9985 20.9985V20.9985Z" fill="#D9342B"/>
</svg>
