<svg width="14" height="14" viewBox="0 0 14 14" fill="none" xmlns="http://www.w3.org/2000/svg">
<path d="M7 14C5.61553 14 4.26215 13.5895 3.11101 12.8203C1.95987 12.0511 1.06266 10.9579 0.532846 9.67879C0.00303296 8.3997 -0.13559 6.99224 0.134506 5.63437C0.404603 4.2765 1.07129 3.02922 2.05026 2.05026C3.02922 1.07129 4.2765 0.404603 5.63437 0.134506C6.99224 -0.13559 8.3997 0.00303296 9.67879 0.532846C10.9579 1.06266 12.0511 1.95987 12.8203 3.11101C13.5895 4.26215 14 5.61553 14 7C14 8.85652 13.2625 10.637 11.9497 11.9497C10.637 13.2625 8.85652 14 7 14ZM7 1.16667C5.84628 1.16667 4.71846 1.50879 3.75918 2.14976C2.79989 2.79074 2.05222 3.70178 1.61071 4.76768C1.16919 5.83358 1.05367 7.00647 1.27876 8.13803C1.50384 9.26958 2.05941 10.309 2.87521 11.1248C3.69102 11.9406 4.73042 12.4962 5.86198 12.7212C6.99353 12.9463 8.16642 12.8308 9.23232 12.3893C10.2982 11.9478 11.2093 11.2001 11.8502 10.2408C12.4912 9.28154 12.8333 8.15373 12.8333 7C12.8333 5.45291 12.2188 3.96918 11.1248 2.87521C10.0308 1.78125 8.5471 1.16667 7 1.16667Z" fill="#6C757D"/>
<path d="M9.33366 7.58339H7.00033C6.84624 7.58137 6.69904 7.51927 6.59007 7.4103C6.48111 7.30134 6.41901 7.15414 6.41699 7.00005V3.11117C6.41699 2.95646 6.47845 2.80808 6.58785 2.69869C6.69724 2.58929 6.84562 2.52783 7.00033 2.52783C7.15503 2.52783 7.30341 2.58929 7.4128 2.69869C7.5222 2.80808 7.58366 2.95646 7.58366 3.11117V6.41672H9.33366C9.48837 6.41672 9.63674 6.47818 9.74614 6.58757C9.85553 6.69697 9.91699 6.84534 9.91699 7.00005C9.91699 7.15476 9.85553 7.30314 9.74614 7.41253C9.63674 7.52193 9.48837 7.58339 9.33366 7.58339Z" fill="#6C757D"/>
</svg>
