<svg width="16" height="16" viewBox="0 0 16 16" fill="none" xmlns="http://www.w3.org/2000/svg">
<path d="M9.33073 11.168H3.9974C3.51117 11.168 3.04485 10.9748 2.70103 10.631C2.35722 10.2872 2.16406 9.82087 2.16406 9.33464V4.0013C2.16406 3.51507 2.35722 3.04876 2.70103 2.70494C3.04485 2.36112 3.51117 2.16797 3.9974 2.16797H9.33073C9.81696 2.16797 10.2833 2.36112 10.6271 2.70494C10.9709 3.04876 11.1641 3.51507 11.1641 4.0013V9.33464C11.1641 9.82087 10.9709 10.2872 10.6271 10.631C10.2833 10.9748 9.81696 11.168 9.33073 11.168ZM3.9974 3.16797C3.77638 3.16797 3.56442 3.25577 3.40814 3.41205C3.25186 3.56833 3.16406 3.78029 3.16406 4.0013V9.33464C3.16406 9.55565 3.25186 9.76761 3.40814 9.92389C3.56442 10.0802 3.77638 10.168 3.9974 10.168H9.33073C9.55174 10.168 9.7637 10.0802 9.91998 9.92389C10.0763 9.76761 10.1641 9.55565 10.1641 9.33464V4.0013C10.1641 3.78029 10.0763 3.56833 9.91998 3.41205C9.7637 3.25577 9.55174 3.16797 9.33073 3.16797H3.9974Z" fill="#212121"/>
<path d="M12.0026 13.832H6.66927C6.18304 13.832 5.71672 13.6389 5.37291 13.2951C5.02909 12.9512 4.83594 12.4849 4.83594 11.9987V10.6654H5.83594V11.9987C5.83594 12.2197 5.92373 12.4317 6.08002 12.588C6.2363 12.7442 6.44826 12.832 6.66927 12.832H12.0026C12.2236 12.832 12.4356 12.7442 12.5919 12.588C12.7481 12.4317 12.8359 12.2197 12.8359 11.9987V6.66536C12.8359 6.44435 12.7481 6.23239 12.5919 6.07611C12.4356 5.91983 12.2236 5.83203 12.0026 5.83203H10.6693V4.83203H12.0026C12.4888 4.83203 12.9552 5.02519 13.299 5.369C13.6428 5.71282 13.8359 6.17913 13.8359 6.66536V11.9987C13.8359 12.4849 13.6428 12.9512 13.299 13.2951C12.9552 13.6389 12.4888 13.832 12.0026 13.832Z" fill="#212121"/>
</svg>
