<svg width="16" height="16" viewBox="0 0 16 16" fill="none" xmlns="http://www.w3.org/2000/svg">
<g clip-path="url(#clip0_3018_112038)">
<path d="M15.25 7.2502H11.6744C11.5016 6.40315 11.0416 5.6418 10.372 5.095C9.70241 4.54819 8.86448 4.24951 8 4.24951C7.13552 4.24951 6.29759 4.54819 5.62802 5.095C4.95845 5.6418 4.49836 6.40315 4.32562 7.2502H0.75C0.551088 7.2502 0.360322 7.32922 0.21967 7.46987C0.0790176 7.61052 0 7.80129 0 8.0002C0 8.19911 0.0790176 8.38988 0.21967 8.53053C0.360322 8.67118 0.551088 8.7502 0.75 8.7502H4.32562C4.49836 9.59724 4.95845 10.3586 5.62802 10.9054C6.29759 11.4522 7.13552 11.7509 8 11.7509C8.86448 11.7509 9.70241 11.4522 10.372 10.9054C11.0416 10.3586 11.5016 9.59724 11.6744 8.7502H15.25C15.4489 8.7502 15.6397 8.67118 15.7803 8.53053C15.921 8.38988 16 8.19911 16 8.0002C16 7.80129 15.921 7.61052 15.7803 7.46987C15.6397 7.32922 15.4489 7.2502 15.25 7.2502ZM8 10.2502C7.55499 10.2502 7.11998 10.1182 6.74997 9.87101C6.37996 9.62377 6.09157 9.27237 5.92127 8.86124C5.75097 8.4501 5.70642 7.9977 5.79323 7.56125C5.88005 7.12479 6.09434 6.72388 6.40901 6.40921C6.72368 6.09454 7.12459 5.88025 7.56105 5.79343C7.9975 5.70662 8.4499 5.75117 8.86104 5.92147C9.27217 6.09177 9.62357 6.38016 9.87081 6.75017C10.118 7.12018 10.25 7.55519 10.25 8.0002C10.25 8.59694 10.0129 9.16923 9.59099 9.59119C9.16903 10.0131 8.59674 10.2502 8 10.2502Z" fill="#212121"/>
</g>
<defs>
<clipPath id="clip0_3018_112038">
<rect width="16" height="16" fill="white"/>
</clipPath>
</defs>
</svg>
