<svg width="15" height="14" viewBox="0 0 15 14" fill="none" xmlns="http://www.w3.org/2000/svg">
<path d="M1.58298 13.4999C1.49046 13.5015 1.39894 13.4807 1.31623 13.4393C1.23351 13.3978 1.16207 13.337 1.10801 13.262C1.05394 13.187 1.01887 13.1 1.00577 13.0085C0.992673 12.917 1.00195 12.8237 1.03281 12.7366L2.25541 8.72889C1.98931 8.03983 1.85454 7.30713 1.85806 6.56857C1.85684 5.75613 2.0179 4.95162 2.33182 4.20214C2.63975 3.48494 3.08047 2.83228 3.63083 2.27847C4.18392 1.72356 4.84078 1.28263 5.56407 0.980748C6.31208 0.6635 7.1164 0.5 7.92903 0.5C8.74167 0.5 9.54598 0.6635 10.294 0.980748C11.3898 1.44968 12.3245 2.22849 12.983 3.2213C13.6415 4.21412 13.995 5.37762 14 6.56857C13.9952 8.17704 13.3554 9.71868 12.2196 10.8587C11.6652 11.4085 11.0119 11.8488 10.294 12.1564C8.84915 12.7609 7.22716 12.7882 5.76274 12.2327L1.75108 13.4541C1.69742 13.477 1.64085 13.4924 1.58298 13.4999ZM7.92521 1.66778C6.9574 1.67196 6.01197 1.95895 5.20545 2.49339C4.39893 3.02782 3.76657 3.78633 3.38631 4.67543C2.8811 5.89765 2.8811 7.27003 3.38631 8.49225C3.43183 8.61804 3.43183 8.75578 3.38631 8.88156L2.44644 12.0648L5.61755 11.103C5.74347 11.0575 5.88134 11.0575 6.00726 11.103C6.61277 11.3541 7.26195 11.4834 7.91757 11.4834C8.57319 11.4834 9.22237 11.3541 9.82788 11.103C10.4245 10.852 10.9657 10.486 11.4205 10.0258C11.8752 9.56556 12.2347 9.02024 12.4781 8.42103C12.7216 7.82183 12.8443 7.18053 12.8393 6.53387C12.8343 5.8872 12.7016 5.24788 12.4488 4.65253C12.0694 3.76775 11.4387 3.01348 10.6347 2.483C9.83072 1.95252 8.88873 1.66909 7.92521 1.66778V1.66778Z" fill="#212121"/>
</svg>
