<svg width="16" height="16" viewBox="0 0 16 16" fill="none" xmlns="http://www.w3.org/2000/svg">
<g clip-path="url(#clip0_18_131732)">
<path d="M15.25 7.25069H11.6744C11.5016 6.40364 11.0416 5.64229 10.372 5.09548C9.70241 4.54868 8.86448 4.25 8 4.25C7.13552 4.25 6.29759 4.54868 5.62802 5.09548C4.95845 5.64229 4.49836 6.40364 4.32562 7.25069H0.75C0.551088 7.25069 0.360322 7.32971 0.21967 7.47036C0.0790176 7.61101 0 7.80178 0 8.00069C0 8.1996 0.0790176 8.39037 0.21967 8.53102C0.360322 8.67167 0.551088 8.75069 0.75 8.75069H4.32562C4.49836 9.59773 4.95845 10.3591 5.62802 10.9059C6.29759 11.4527 7.13552 11.7514 8 11.7514C8.86448 11.7514 9.70241 11.4527 10.372 10.9059C11.0416 10.3591 11.5016 9.59773 11.6744 8.75069H15.25C15.4489 8.75069 15.6397 8.67167 15.7803 8.53102C15.921 8.39037 16 8.1996 16 8.00069C16 7.80178 15.921 7.61101 15.7803 7.47036C15.6397 7.32971 15.4489 7.25069 15.25 7.25069ZM8 10.2507C7.55499 10.2507 7.11998 10.1187 6.74997 9.87149C6.37996 9.62426 6.09157 9.27286 5.92127 8.86173C5.75097 8.45059 5.70642 7.99819 5.79323 7.56173C5.88005 7.12528 6.09434 6.72437 6.40901 6.4097C6.72368 6.09503 7.12459 5.88074 7.56105 5.79392C7.9975 5.7071 8.4499 5.75166 8.86104 5.92196C9.27217 6.09226 9.62357 6.38064 9.87081 6.75066C10.118 7.12067 10.25 7.55568 10.25 8.00069C10.25 8.59743 10.0129 9.16972 9.59099 9.59168C9.16903 10.0136 8.59674 10.2507 8 10.2507Z" fill="#212121"/>
</g>
<defs>
<clipPath id="clip0_18_131732">
<rect width="16" height="16" fill="white"/>
</clipPath>
</defs>
</svg>
