<svg width="25" height="24" viewBox="0 0 25 24" fill="none" xmlns="http://www.w3.org/2000/svg">
<path d="M19.6953 21.375C21.1451 21.375 22.3203 20.1997 22.3203 18.75C22.3203 17.3003 21.1451 16.125 19.6953 16.125C18.2456 16.125 17.0703 17.3003 17.0703 18.75C17.0703 20.1997 18.2456 21.375 19.6953 21.375Z" stroke="#212121" stroke-width="1.5" stroke-linecap="round" stroke-linejoin="round"/>
<path d="M6.19531 7.875C7.64506 7.875 8.82031 6.69975 8.82031 5.25C8.82031 3.80025 7.64506 2.625 6.19531 2.625C4.74557 2.625 3.57031 3.80025 3.57031 5.25C3.57031 6.69975 4.74557 7.875 6.19531 7.875Z" stroke="#212121" stroke-width="1.5" stroke-linecap="round" stroke-linejoin="round"/>
<path d="M6.57031 8.625V16.125C6.57031 17.625 7.32031 18.375 8.82031 18.375H11.8203M11.0703 21.375L13.3203 18.375L11.0703 15.375M19.3203 15.375V7.875C19.3203 6.375 18.5703 5.625 17.0703 5.625H14.0703M14.8203 2.625L12.5703 5.625L14.8203 8.625" stroke="#212121" stroke-width="1.5" stroke-linecap="round" stroke-linejoin="round"/>
</svg>
