<svg width="25" height="24" viewBox="0 0 25 24" fill="none" xmlns="http://www.w3.org/2000/svg">
<path d="M17 19.25C17 18.388 17.3424 17.5614 17.9519 16.9519C18.5614 16.3424 19.388 16 20.25 16C21.112 16 21.9386 16.3424 22.5481 16.9519C23.1576 17.5614 23.5 18.388 23.5 19.25C23.5 20.112 23.1576 20.9386 22.5481 21.5481C21.9386 22.1576 21.112 22.5 20.25 22.5C19.388 22.5 18.5614 22.1576 17.9519 21.5481C17.3424 20.9386 17 20.112 17 19.25ZM20.25 17.5C20.0201 17.5001 19.7925 17.5454 19.5802 17.6334C19.3678 17.7215 19.1749 17.8505 19.0124 18.0131C18.8499 18.1757 18.721 18.3687 18.6331 18.5811C18.5451 18.7935 18.4999 19.0211 18.5 19.251C18.5001 19.4809 18.5454 19.7085 18.6334 19.9208C18.7215 20.1332 18.8505 20.3261 19.0131 20.4886C19.1757 20.6511 19.3687 20.78 19.5811 20.8679C19.7935 20.9559 20.0211 21.0011 20.251 21.001C20.7153 21.0009 21.1605 20.8163 21.4886 20.4879C21.8168 20.1596 22.0011 19.7143 22.001 19.25C22.0009 18.7857 21.8163 18.3405 21.4879 18.0124C21.1596 17.6842 20.7143 17.4999 20.25 17.5Z" fill="#605BFF"/>
<path d="M14.405 1.72C14.5455 1.86063 14.6243 2.05125 14.6243 2.25C14.6243 2.44875 14.5455 2.63937 14.405 2.78L13.185 4H17.25C18.2446 4 19.1984 4.39509 19.9017 5.09835C20.6049 5.80161 21 6.75544 21 7.75V16.5C21 16.6989 20.921 16.8897 20.7803 17.0303C20.6397 17.171 20.4489 17.25 20.25 17.25C20.0511 17.25 19.8603 17.171 19.7197 17.0303C19.579 16.8897 19.5 16.6989 19.5 16.5V7.75C19.5 7.45453 19.4418 7.16194 19.3287 6.88896C19.2157 6.61598 19.0499 6.36794 18.841 6.15901C18.6321 5.95008 18.384 5.78434 18.111 5.67127C17.8381 5.5582 17.5455 5.5 17.25 5.5H13.186L14.406 6.72C14.5426 6.86152 14.6181 7.051 14.6163 7.24765C14.6145 7.4443 14.5355 7.63237 14.3964 7.77136C14.2572 7.91035 14.0691 7.98914 13.8725 7.99076C13.6758 7.99237 13.4864 7.91669 13.345 7.78L10.845 5.28C10.7045 5.13937 10.6257 4.94875 10.6257 4.75C10.6257 4.55125 10.7045 4.36063 10.845 4.22L13.345 1.72C13.4856 1.57955 13.6762 1.50066 13.875 1.50066C14.0738 1.50066 14.2644 1.57955 14.405 1.72ZM8 4.75C8 5.61195 7.65759 6.4386 7.0481 7.0481C6.4386 7.65759 5.61195 8 4.75 8C3.88805 8 3.0614 7.65759 2.4519 7.0481C1.84241 6.4386 1.5 5.61195 1.5 4.75C1.5 3.88805 1.84241 3.0614 2.4519 2.4519C3.0614 1.84241 3.88805 1.5 4.75 1.5C5.61195 1.5 6.4386 1.84241 7.0481 2.4519C7.65759 3.0614 8 3.88805 8 4.75ZM4.75 6.5C5.21426 6.49987 5.65946 6.31531 5.98764 5.98694C6.31583 5.65856 6.50013 5.21326 6.5 4.749C6.49987 4.28474 6.31531 3.83954 5.98694 3.51136C5.65856 3.18317 5.21326 2.99887 4.749 2.999C4.51912 2.99907 4.29151 3.04441 4.07915 3.13244C3.8668 3.22047 3.67386 3.34947 3.51136 3.51206C3.18317 3.84044 2.99887 4.28574 2.999 4.75C2.99913 5.21426 3.18369 5.65946 3.51206 5.98764C3.84044 6.31583 4.28574 6.50013 4.75 6.5Z" fill="#605BFF"/>
<path d="M10.595 22.28C10.4545 22.1394 10.3757 21.9488 10.3757 21.75C10.3757 21.5512 10.4545 21.3606 10.595 21.22L11.815 20H7.75C6.75544 20 5.80161 19.6049 5.09835 18.9017C4.39509 18.1984 4 17.2446 4 16.25V7.5C4 7.30109 4.07902 7.11032 4.21967 6.96967C4.36032 6.82902 4.55109 6.75 4.75 6.75C4.94891 6.75 5.13968 6.82902 5.28033 6.96967C5.42098 7.11032 5.5 7.30109 5.5 7.5V16.25C5.5 16.8467 5.73705 17.419 6.15901 17.841C6.58097 18.2629 7.15326 18.5 7.75 18.5H11.814L10.594 17.28C10.4976 17.1877 10.4277 17.0714 10.3914 16.943C10.3552 16.8146 10.3539 16.6789 10.3878 16.5498C10.4216 16.4208 10.4894 16.3031 10.584 16.2091C10.6787 16.1151 10.7967 16.048 10.926 16.015C11.0548 15.9814 11.1902 15.9827 11.3183 16.0187C11.4464 16.0548 11.5626 16.1242 11.655 16.22L14.155 18.72C14.2955 18.8606 14.3743 19.0512 14.3743 19.25C14.3743 19.4488 14.2955 19.6394 14.155 19.78L11.655 22.28C11.5144 22.4205 11.3238 22.4993 11.125 22.4993C10.9262 22.4993 10.7356 22.4205 10.595 22.28Z" fill="#605BFF"/>
</svg>
