<svg width="24" height="25" viewBox="0 0 24 25" fill="none" xmlns="http://www.w3.org/2000/svg">
<path d="M15 12.8125C15 11.5125 14.16 10.4125 13 9.9925V7.6325C14.16 7.2125 15 6.1125 15 4.8125C15 4.01685 14.6839 3.25379 14.1213 2.69118C13.5587 2.12857 12.7956 1.8125 12 1.8125C11.2044 1.8125 10.4413 2.12857 9.87868 2.69118C9.31607 3.25379 9 4.01685 9 4.8125C9 6.1125 9.84 7.2125 11 7.6325V10.0025C9.84 10.4125 9 11.5125 9 12.8125C9 14.1125 9.84 15.2125 11 15.6325V17.9925C9.84 18.4125 9 19.5125 9 20.8125C9 21.6081 9.31607 22.3712 9.87868 22.9338C10.4413 23.4964 11.2044 23.8125 12 23.8125C12.7956 23.8125 13.5587 23.4964 14.1213 22.9338C14.6839 22.3712 15 21.6081 15 20.8125C15 19.5125 14.16 18.4125 13 17.9925V15.6325C14.16 15.2125 15 14.1125 15 12.8125ZM12 3.8125C12.2652 3.8125 12.5196 3.91786 12.7071 4.10539C12.8946 4.29293 13 4.54728 13 4.8125C13 5.07772 12.8946 5.33207 12.7071 5.51961C12.5196 5.70714 12.2652 5.8125 12 5.8125C11.7348 5.8125 11.4804 5.70714 11.2929 5.51961C11.1054 5.33207 11 5.07772 11 4.8125C11 4.54728 11.1054 4.29293 11.2929 4.10539C11.4804 3.91786 11.7348 3.8125 12 3.8125ZM12 21.8125C11.7348 21.8125 11.4804 21.7071 11.2929 21.5196C11.1054 21.3321 11 21.0777 11 20.8125C11 20.5473 11.1054 20.2929 11.2929 20.1054C11.4804 19.9179 11.7348 19.8125 12 19.8125C12.2652 19.8125 12.5196 19.9179 12.7071 20.1054C12.8946 20.2929 13 20.5473 13 20.8125C13 21.0777 12.8946 21.3321 12.7071 21.5196C12.5196 21.7071 12.2652 21.8125 12 21.8125Z" fill="#6C757D"/>
</svg>
