<svg width="16" height="16" viewBox="0 0 16 16" fill="none" xmlns="http://www.w3.org/2000/svg">
<g clip-path="url(#clip0_6178_209758)">
<path d="M7.91967 6.09203C8.77301 6.13203 8.99301 6.8587 9.00634 7.1987H10.1997C10.1463 5.8787 9.20634 5.07203 7.89967 5.07203C6.42634 5.07203 5.33301 5.9987 5.33301 8.09203C5.33301 9.38536 5.95301 10.9187 7.89301 10.9187C9.37301 10.9187 10.1663 9.8187 10.1863 8.95203H8.99301C8.97301 9.34536 8.69301 9.87203 7.90634 9.91203C7.03301 9.88536 6.66634 9.20536 6.66634 8.09203C6.66634 6.16536 7.51967 6.10536 7.91967 6.09203ZM7.99967 1.33203C4.31967 1.33203 1.33301 4.3187 1.33301 7.9987C1.33301 11.6787 4.31967 14.6654 7.99967 14.6654C11.6797 14.6654 14.6663 11.6787 14.6663 7.9987C14.6663 4.3187 11.6797 1.33203 7.99967 1.33203ZM7.99967 13.332C5.05967 13.332 2.66634 10.9387 2.66634 7.9987C2.66634 5.0587 5.05967 2.66536 7.99967 2.66536C10.9397 2.66536 13.333 5.0587 13.333 7.9987C13.333 10.9387 10.9397 13.332 7.99967 13.332Z" fill="#757575"/>
</g>
<defs>
<clipPath id="clip0_6178_209758">
<rect width="16" height="16" fill="white"/>
</clipPath>
</defs>
</svg>
