<svg width="25" height="24" viewBox="0 0 25 24" fill="none" xmlns="http://www.w3.org/2000/svg">
<path d="M19.75 3C19.1763 3 18.6123 3.225 18.1795 3.657L10.75 11.0625L10.585 11.2275L10.54 11.4622L10.0225 14.0872L9.79 15.1882L10.8903 14.9557L13.5153 14.4382L13.75 14.3932L13.915 14.2282L21.3205 6.79875C21.6307 6.48751 21.8418 6.09144 21.9272 5.66043C22.0127 5.22943 21.9687 4.78277 21.8007 4.37673C21.6328 3.9707 21.3485 3.62344 20.9835 3.37872C20.6186 3.13399 20.1894 3.00274 19.75 3.0015V3ZM19.75 4.455C19.9262 4.455 20.098 4.545 20.266 4.71225C20.6005 5.04675 20.6005 5.40825 20.266 5.7435L13 13.008L11.71 13.266L11.9688 11.976L19.2347 4.71C19.402 4.54275 19.5738 4.45275 19.75 4.45275V4.455ZM4 5.9775V20.9775H19V11.0865L17.5 12.5865V19.4775H5.5V7.4775H12.391L13.891 5.9775H4Z" fill="#212121"/>
</svg>
