<svg width="25" height="24" viewBox="0 0 25 24" fill="none" xmlns="http://www.w3.org/2000/svg">
<path d="M5.18763 7.125C5.18763 5.68289 5.7605 4.29984 6.78023 3.28011C7.79996 2.26038 9.18301 1.6875 10.6251 1.6875C12.0672 1.6875 13.4503 2.26038 14.47 3.28011C15.4897 4.29984 16.0626 5.68289 16.0626 7.125C16.0626 7.27418 16.0034 7.41726 15.8979 7.52275C15.7924 7.62824 15.6493 7.6875 15.5001 7.6875C15.3509 7.6875 15.2079 7.62824 15.1024 7.52275C14.9969 7.41726 14.9376 7.27418 14.9376 7.125C14.9376 5.98125 14.4833 4.88435 13.6745 4.0756C12.8658 3.26685 11.7689 2.8125 10.6251 2.8125C9.48138 2.8125 8.38448 3.26685 7.57573 4.0756C6.76698 4.88435 6.31263 5.98125 6.31263 7.125C6.31263 7.27418 6.25336 7.41726 6.14787 7.52275C6.04238 7.62824 5.89931 7.6875 5.75013 7.6875C5.60094 7.6875 5.45787 7.62824 5.35238 7.52275C5.24689 7.41726 5.18763 7.27418 5.18763 7.125ZM18.1251 11.4375C17.6372 11.437 17.1605 11.5837 16.7573 11.8584C16.6739 11.4743 16.4988 11.1161 16.2471 10.8143C15.9953 10.5125 15.6742 10.276 15.3113 10.1251C14.9484 9.97415 14.5544 9.91322 14.1628 9.94748C13.7713 9.98175 13.3938 10.1102 13.0626 10.3219V7.125C13.0626 6.47853 12.8058 5.85855 12.3487 5.40143C11.8916 4.94431 11.2716 4.6875 10.6251 4.6875C9.97866 4.6875 9.35867 4.94431 8.90155 5.40143C8.44443 5.85855 8.18763 6.47853 8.18763 7.125V15.2812L7.48169 14.1469C7.15684 13.5874 6.62306 13.18 5.99777 13.0141C5.37248 12.8482 4.70691 12.9375 4.14747 13.2623C3.58803 13.5872 3.18055 14.121 3.01466 14.7463C2.84878 15.3715 2.93809 16.0371 3.26294 16.5966L6.01169 21.2841C6.08873 21.4088 6.21141 21.4985 6.3536 21.5341C6.4958 21.5697 6.64628 21.5484 6.77301 21.4747C6.89973 21.401 6.99268 21.2808 7.03207 21.1396C7.07145 20.9984 7.05416 20.8474 6.98388 20.7188L4.23794 16.0312C4.15176 15.882 4.09582 15.7172 4.07333 15.5463C4.05084 15.3754 4.06222 15.2018 4.10684 15.0353C4.19694 14.699 4.41693 14.4123 4.71841 14.2383C5.01988 14.0642 5.37815 14.0171 5.7144 14.1072C5.88089 14.1518 6.03697 14.2288 6.17371 14.3337C6.31046 14.4386 6.4252 14.5695 6.51138 14.7188C6.51397 14.7244 6.51711 14.7297 6.52075 14.7347L8.272 17.5472C8.33648 17.6512 8.43313 17.7314 8.54729 17.7755C8.66146 17.8197 8.7869 17.8254 8.90459 17.7917C9.02229 17.7581 9.1258 17.6871 9.19944 17.5893C9.27308 17.4915 9.31282 17.3724 9.31263 17.25V7.125C9.31263 6.7769 9.45091 6.44306 9.69705 6.19692C9.94319 5.95078 10.277 5.8125 10.6251 5.8125C10.9732 5.8125 11.3071 5.95078 11.5532 6.19692C11.7993 6.44306 11.9376 6.7769 11.9376 7.125V13.5C11.9376 13.6492 11.9969 13.7923 12.1024 13.8977C12.2079 14.0032 12.3509 14.0625 12.5001 14.0625C12.6493 14.0625 12.7924 14.0032 12.8979 13.8977C13.0034 13.7923 13.0626 13.6492 13.0626 13.5V12.375C13.0626 12.0269 13.2009 11.6931 13.447 11.4469C13.6932 11.2008 14.027 11.0625 14.3751 11.0625C14.7232 11.0625 15.0571 11.2008 15.3032 11.4469C15.5493 11.6931 15.6876 12.0269 15.6876 12.375V14.25C15.6876 14.3992 15.7469 14.5423 15.8524 14.6477C15.9579 14.7532 16.1009 14.8125 16.2501 14.8125C16.3993 14.8125 16.5424 14.7532 16.6479 14.6477C16.7534 14.5423 16.8126 14.3992 16.8126 14.25V13.875C16.8126 13.5269 16.9509 13.1931 17.197 12.9469C17.4432 12.7008 17.777 12.5625 18.1251 12.5625C18.4732 12.5625 18.8071 12.7008 19.0532 12.9469C19.2993 13.1931 19.4376 13.5269 19.4376 13.875V17.25C19.4376 19.3247 18.7533 20.7356 18.7467 20.7488C18.6815 20.8818 18.6714 21.0352 18.7186 21.1756C18.7658 21.316 18.8665 21.4321 18.9989 21.4988C19.0763 21.5398 19.1625 21.5617 19.2501 21.5625C19.3548 21.5627 19.4575 21.5337 19.5466 21.4787C19.6357 21.4237 19.7077 21.3449 19.7545 21.2512C19.7873 21.1856 20.5636 19.6059 20.5636 17.25V13.875C20.5636 13.5548 20.5005 13.2378 20.3779 12.942C20.2554 12.6462 20.0757 12.3775 19.8493 12.1511C19.6229 11.9247 19.354 11.7452 19.0582 11.6228C18.7624 11.5003 18.4453 11.4374 18.1251 11.4375Z" fill="#212121"/>
</svg>
