<svg width="62" height="62" viewBox="0 0 62 62" fill="none" xmlns="http://www.w3.org/2000/svg">
<path fill-rule="evenodd" clip-rule="evenodd" d="M0 11.4894C0 7.285 3.41 3.875 7.61438 3.875H18.4915C22.6959 3.875 26.1059 7.285 26.1059 11.4894V13.6632C26.1059 17.8715 22.6959 21.2776 18.4915 21.2776H7.61438C5.59492 21.2776 3.65817 20.4754 2.2302 19.0474C0.802226 17.6195 0 15.6827 0 13.6632L0 11.4894ZM7.61438 10.4044C7.47189 10.4044 7.3308 10.4324 7.19916 10.487C7.06753 10.5415 6.94792 10.6214 6.84716 10.7222C6.74641 10.8229 6.66649 10.9425 6.61197 11.0742C6.55744 11.2058 6.52937 11.3469 6.52937 11.4894V13.6632C6.52886 13.8061 6.55655 13.9476 6.61085 14.0797C6.66515 14.2117 6.74499 14.3318 6.84579 14.433C6.94659 14.5341 7.06637 14.6144 7.19827 14.6692C7.33016 14.7239 7.47156 14.7521 7.61438 14.7521H18.4915C18.634 14.7521 18.7751 14.7241 18.9067 14.6695C19.0383 14.615 19.158 14.5351 19.2587 14.4343C19.3595 14.3336 19.4394 14.214 19.4939 14.0823C19.5484 13.9507 19.5765 13.8096 19.5765 13.6671V11.4894C19.5765 11.3469 19.5484 11.2058 19.4939 11.0742C19.4394 10.9425 19.3595 10.8229 19.2587 10.7222C19.158 10.6214 19.0383 10.5415 18.9067 10.487C18.7751 10.4324 18.634 10.4044 18.4915 10.4044H7.61438ZM31.5425 12.5782C31.5425 10.7764 33.0034 9.3155 34.8053 9.3155H58.7373C59.6026 9.3155 60.4325 9.65925 61.0444 10.2711C61.6562 10.883 62 11.7129 62 12.5782C62 13.4436 61.6562 14.2735 61.0444 14.8854C60.4325 15.4972 59.6026 15.841 58.7373 15.841H34.8053C33.9399 15.841 33.11 15.4972 32.4981 14.8854C31.8863 14.2735 31.5425 13.4436 31.5425 12.5782ZM1.085 32.1548C1.085 30.3529 2.54975 28.892 4.35162 28.892H45.6862C46.1147 28.892 46.539 28.9764 46.9349 29.1404C47.3307 29.3043 47.6904 29.5447 47.9934 29.8476C48.2963 30.1506 48.5367 30.5103 48.7006 30.9061C48.8646 31.302 48.949 31.7263 48.949 32.1548C48.949 32.5832 48.8646 33.0075 48.7006 33.4033C48.5367 33.7992 48.2963 34.1589 47.9934 34.4619C47.6904 34.7648 47.3307 35.0052 46.9349 35.1691C46.539 35.3331 46.1147 35.4175 45.6862 35.4175H4.35162C3.92315 35.4175 3.49888 35.3331 3.10302 35.1691C2.70717 35.0052 2.34749 34.7648 2.04451 34.4619C1.74154 34.1589 1.50121 33.7992 1.33724 33.4033C1.17327 33.0075 1.085 32.5832 1.085 32.1548ZM1.085 51.7313C1.085 49.9333 2.54975 48.4724 4.35162 48.4724H56.5634C56.9918 48.4724 57.4161 48.5568 57.812 48.7207C58.2078 48.8847 58.5675 49.125 58.8705 49.428C59.1735 49.731 59.4138 50.0907 59.5778 50.4865C59.7417 50.8824 59.8261 51.3067 59.8261 51.7351C59.8261 52.1636 59.7417 52.5879 59.5778 52.9837C59.4138 53.3796 59.1735 53.7393 58.8705 54.0422C58.5675 54.3452 58.2078 54.5855 57.812 54.7495C57.4161 54.9135 56.9918 54.9979 56.5634 54.9979H4.35162C3.48629 54.9979 2.6564 54.6541 2.04451 54.0422C1.43263 53.4304 1.08887 52.6005 1.08887 51.7351L1.085 51.7313Z" fill="#605BFF"/>
<path d="M57.6484 35.4181C58.0768 35.4181 58.5011 35.3337 58.897 35.1697C59.2928 35.0057 59.6525 34.7654 59.9555 34.4624C60.2585 34.1595 60.4988 33.7998 60.6628 33.4039C60.8267 33.0081 60.9111 32.5838 60.9111 32.1553C60.9111 31.7269 60.8267 31.3026 60.6628 30.9067C60.4988 30.5109 60.2585 30.1512 59.9555 29.8482C59.6525 29.5452 59.2928 29.3049 58.897 29.1409C58.5011 28.977 58.0768 28.8926 57.6484 28.8926C56.783 28.8926 55.9531 29.2363 55.3413 29.8482C54.7294 30.4601 54.3856 31.29 54.3856 32.1553C54.3856 33.0207 54.7294 33.8506 55.3413 34.4624C55.9531 35.0743 56.783 35.4181 57.6484 35.4181Z" fill="#605BFF"/>
</svg>
