<svg width="60" height="60" viewBox="0 0 60 60" fill="none" xmlns="http://www.w3.org/2000/svg">
<rect width="60" height="60" rx="30" fill="#D1272C"/>
<path d="M38.75 38V27.5C38.75 25.1794 37.8281 22.9538 36.1872 21.3128C34.5462 19.6719 32.3206 18.75 30 18.75C27.6794 18.75 25.4538 19.6719 23.8128 21.3128C22.1719 22.9538 21.25 25.1794 21.25 27.5V38M38.75 38H21.25M38.75 38C39.6783 38 40.5685 38.3687 41.2249 39.0251C41.8812 39.6815 42.25 40.5717 42.25 41.5V45H17.75V41.5C17.75 40.5717 18.1187 39.6815 18.7751 39.0251C19.4315 38.3687 20.3217 38 21.25 38M45.75 27.5H47.5M41.375 14.375L40.5 15.25M12.5 27.5H14.25M30 10V11.75M17.6257 15.1257L18.863 16.363M30 27.5V38" stroke="white" stroke-width="3" stroke-linecap="round" stroke-linejoin="round"/>
</svg>
