<svg width="24" height="20" viewBox="0 0 24 20" fill="none" xmlns="http://www.w3.org/2000/svg">
<rect y="0.402344" width="24" height="4.8" rx="0.8" fill="#212121"/>
<rect x="0.4" y="12.0016" width="4" height="2.4" rx="0.4" stroke="#212121" stroke-width="0.8"/>
<rect x="6.7999" y="12.0016" width="4" height="2.4" rx="0.4" stroke="#212121" stroke-width="0.8"/>
<rect x="13.1998" y="12.0016" width="4" height="2.4" rx="0.4" stroke="#212121" stroke-width="0.8"/>
<rect x="19.6002" y="12.0016" width="4" height="2.4" rx="0.4" stroke="#212121" stroke-width="0.8"/>
<rect x="0.4" y="7.20078" width="4" height="2.4" rx="0.4" stroke="#212121" stroke-width="0.8"/>
<rect x="6.7999" y="7.20078" width="4" height="2.4" rx="0.4" stroke="#212121" stroke-width="0.8"/>
<rect x="13.1998" y="7.20078" width="4" height="2.4" rx="0.4" stroke="#212121" stroke-width="0.8"/>
<rect x="19.6002" y="7.20078" width="4" height="2.4" rx="0.4" stroke="#212121" stroke-width="0.8"/>
<rect x="0.4" y="16.8023" width="4" height="2.4" rx="0.4" stroke="#212121" stroke-width="0.8"/>
<rect x="6.7999" y="16.8023" width="4" height="2.4" rx="0.4" stroke="#212121" stroke-width="0.8"/>
<rect x="13.1998" y="16.8023" width="4" height="2.4" rx="0.4" stroke="#212121" stroke-width="0.8"/>
<rect x="19.6002" y="16.8023" width="4" height="2.4" rx="0.4" stroke="#212121" stroke-width="0.8"/>
</svg>
