<svg width="41" height="40" viewBox="0 0 41 40" fill="none" xmlns="http://www.w3.org/2000/svg">
<g opacity="0.6">
<path d="M32.6549 13.75H20.9883C20.6568 13.75 20.3388 13.6183 20.1044 13.3839C19.87 13.1495 19.7383 12.8315 19.7383 12.5C19.7383 12.1685 19.87 11.8505 20.1044 11.6161C20.3388 11.3817 20.6568 11.25 20.9883 11.25H32.6549C32.9865 11.25 33.3044 11.3817 33.5388 11.6161C33.7733 11.8505 33.9049 12.1685 33.9049 12.5C33.9049 12.8315 33.7733 13.1495 33.5388 13.3839C33.3044 13.6183 32.9865 13.75 32.6549 13.75Z" fill="#212121"/>
<path d="M17.6576 13.75H9.32422C8.9927 13.75 8.67476 13.6183 8.44034 13.3839C8.20591 13.1495 8.07422 12.8315 8.07422 12.5C8.07422 12.1685 8.20591 11.8505 8.44034 11.6161C8.67476 11.3817 8.9927 11.25 9.32422 11.25H17.6576C17.9891 11.25 18.307 11.3817 18.5414 11.6161C18.7759 11.8505 18.9076 12.1685 18.9076 12.5C18.9076 12.8315 18.7759 13.1495 18.5414 13.3839C18.307 13.6183 17.9891 13.75 17.6576 13.75Z" fill="#212121"/>
<path d="M17.6563 16.25C17.3261 16.2457 17.0106 16.1126 16.7771 15.8791C16.5436 15.6456 16.4106 15.3302 16.4062 15V10C16.4062 9.66848 16.5379 9.35054 16.7724 9.11612C17.0068 8.8817 17.3247 8.75 17.6563 8.75C17.9878 8.75 18.3057 8.8817 18.5401 9.11612C18.7746 9.35054 18.9063 9.66848 18.9063 10V15C18.9019 15.3302 18.7689 15.6456 18.5354 15.8791C18.3019 16.1126 17.9864 16.2457 17.6563 16.25Z" fill="#212121"/>
<path d="M32.6549 28.75H20.9883C20.6568 28.75 20.3388 28.6183 20.1044 28.3839C19.87 28.1495 19.7383 27.8315 19.7383 27.5C19.7383 27.1685 19.87 26.8505 20.1044 26.6161C20.3388 26.3817 20.6568 26.25 20.9883 26.25H32.6549C32.9865 26.25 33.3044 26.3817 33.5388 26.6161C33.7733 26.8505 33.9049 27.1685 33.9049 27.5C33.9049 27.8315 33.7733 28.1495 33.5388 28.3839C33.3044 28.6183 32.9865 28.75 32.6549 28.75Z" fill="#212121"/>
<path d="M17.6576 28.75H9.32422C8.9927 28.75 8.67476 28.6183 8.44034 28.3839C8.20591 28.1495 8.07422 27.8315 8.07422 27.5C8.07422 27.1685 8.20591 26.8505 8.44034 26.6161C8.67476 26.3817 8.9927 26.25 9.32422 26.25H17.6576C17.9891 26.25 18.307 26.3817 18.5414 26.6161C18.7759 26.8505 18.9076 27.1685 18.9076 27.5C18.9076 27.8315 18.7759 28.1495 18.5414 28.3839C18.307 28.6183 17.9891 28.75 17.6576 28.75Z" fill="#212121"/>
<path d="M17.6563 31.2578C17.3261 31.2535 17.0106 31.1204 16.7771 30.8869C16.5436 30.6534 16.4106 30.338 16.4062 30.0078V25.0078C16.4062 24.6763 16.5379 24.3584 16.7724 24.1239C17.0068 23.8895 17.3247 23.7578 17.6563 23.7578C17.9878 23.7578 18.3057 23.8895 18.5401 24.1239C18.7746 24.3584 18.9063 24.6763 18.9063 25.0078V30.0078C18.9019 30.338 18.7689 30.6534 18.5354 30.8869C18.3019 31.1204 17.9864 31.2535 17.6563 31.2578V31.2578Z" fill="#212121"/>
<path d="M32.6562 21.25H27.6562C27.3247 21.25 27.0068 21.1183 26.7724 20.8839C26.5379 20.6495 26.4062 20.3315 26.4062 20C26.4062 19.6685 26.5379 19.3505 26.7724 19.1161C27.0068 18.8817 27.3247 18.75 27.6562 18.75H32.6562C32.9878 18.75 33.3057 18.8817 33.5401 19.1161C33.7746 19.3505 33.9062 19.6685 33.9062 20C33.9062 20.3315 33.7746 20.6495 33.5401 20.8839C33.3057 21.1183 32.9878 21.25 32.6562 21.25Z" fill="#212121"/>
<path d="M24.3242 21.25H9.32422C8.9927 21.25 8.67476 21.1183 8.44034 20.8839C8.20591 20.6495 8.07422 20.3315 8.07422 20C8.07422 19.6685 8.20591 19.3505 8.44034 19.1161C8.67476 18.8817 8.9927 18.75 9.32422 18.75H24.3242C24.6557 18.75 24.9737 18.8817 25.2081 19.1161C25.4425 19.3505 25.5742 19.6685 25.5742 20C25.5742 20.3315 25.4425 20.6495 25.2081 20.8839C24.9737 21.1183 24.6557 21.25 24.3242 21.25V21.25Z" fill="#212121"/>
<path d="M24.3242 23.75C23.994 23.7457 23.6786 23.6126 23.4451 23.3791C23.2116 23.1456 23.0785 22.8302 23.0742 22.5V17.5C23.0742 17.1685 23.2059 16.8505 23.4403 16.6161C23.6748 16.3817 23.9927 16.25 24.3242 16.25C24.6557 16.25 24.9737 16.3817 25.2081 16.6161C25.4425 16.8505 25.5742 17.1685 25.5742 17.5V22.5C25.5699 22.8302 25.4368 23.1456 25.2033 23.3791C24.9698 23.6126 24.6544 23.7457 24.3242 23.75Z" fill="#212121"/>
</g>
</svg>
