<svg width="20" height="21" viewBox="0 0 20 21" fill="none" xmlns="http://www.w3.org/2000/svg">
<path d="M1 4.7998H2.9H18.1" stroke="#323130" stroke-width="1.89" stroke-linecap="round" stroke-linejoin="round"/>
<path d="M5.75039 4.8V2.9C5.75039 2.39609 5.95057 1.91282 6.30689 1.5565C6.66321 1.20018 7.14648 1 7.65039 1H11.4504C11.9543 1 12.4376 1.20018 12.7939 1.5565C13.1502 1.91282 13.3504 2.39609 13.3504 2.9V4.8M16.2004 4.8V18.1C16.2004 18.6039 16.0002 19.0872 15.6439 19.4435C15.2876 19.7998 14.8043 20 14.3004 20H4.80039C4.29648 20 3.81321 19.7998 3.45689 19.4435C3.10057 19.0872 2.90039 18.6039 2.90039 18.1V4.8H16.2004Z" stroke="#323130" stroke-width="1.89" stroke-linecap="round" stroke-linejoin="round"/>
<path d="M7.64941 9.5498V15.2498" stroke="#5F338F" stroke-width="1.89" stroke-linecap="round" stroke-linejoin="round"/>
<path d="M11.4502 9.5498V15.2498" stroke="#5F338F" stroke-width="1.89" stroke-linecap="round" stroke-linejoin="round"/>
</svg>
