<svg width="28" height="28" viewBox="0 0 28 28" fill="none" xmlns="http://www.w3.org/2000/svg">
<path d="M15.3125 12.0312H12.6875C12.2821 12.029 11.8939 11.8669 11.6073 11.5802C11.3206 11.2936 11.1585 10.9054 11.1562 10.5V7.875C11.1585 7.4696 11.3206 7.08145 11.6073 6.79478C11.8939 6.50811 12.2821 6.34605 12.6875 6.34375H15.3125C15.7179 6.34605 16.1061 6.50811 16.3927 6.79478C16.6794 7.08145 16.8415 7.4696 16.8438 7.875V10.5C16.8415 10.9054 16.6794 11.2936 16.3927 11.5802C16.1061 11.8669 15.7179 12.029 15.3125 12.0312V12.0312ZM12.6875 7.65625C12.6295 7.65625 12.5738 7.6793 12.5328 7.72032C12.4918 7.76134 12.4688 7.81698 12.4688 7.875V10.5C12.4688 10.558 12.4918 10.6137 12.5328 10.6547C12.5738 10.6957 12.6295 10.7188 12.6875 10.7188H15.3125C15.3705 10.7188 15.4262 10.6957 15.4672 10.6547C15.5082 10.6137 15.5312 10.558 15.5312 10.5V7.875C15.5312 7.81698 15.5082 7.76134 15.4672 7.72032C15.4262 7.6793 15.3705 7.65625 15.3125 7.65625H12.6875Z" fill="#212121"/>
<path d="M8.75 20.7812H7C6.5946 20.779 6.20645 20.6169 5.91978 20.3302C5.63311 20.0436 5.47105 19.6554 5.46875 19.25V17.5C5.47105 17.0946 5.63311 16.7064 5.91978 16.4198C6.20645 16.1331 6.5946 15.971 7 15.9688H8.75C9.1554 15.971 9.54355 16.1331 9.83022 16.4198C10.1169 16.7064 10.279 17.0946 10.2812 17.5V19.25C10.279 19.6554 10.1169 20.0436 9.83022 20.3302C9.54355 20.6169 9.1554 20.779 8.75 20.7812V20.7812ZM7 17.2812C6.94198 17.2812 6.88634 17.3043 6.84532 17.3453C6.8043 17.3863 6.78125 17.442 6.78125 17.5V19.25C6.78125 19.308 6.8043 19.3637 6.84532 19.4047C6.88634 19.4457 6.94198 19.4688 7 19.4688H8.75C8.80802 19.4688 8.86366 19.4457 8.90468 19.4047C8.9457 19.3637 8.96875 19.308 8.96875 19.25V17.5C8.96875 17.442 8.9457 17.3863 8.90468 17.3453C8.86366 17.3043 8.80802 17.2812 8.75 17.2812H7Z" fill="#212121"/>
<path d="M14.875 20.7812H13.125C12.7196 20.779 12.3314 20.6169 12.0448 20.3302C11.7581 20.0436 11.596 19.6554 11.5938 19.25V17.5C11.596 17.0946 11.7581 16.7064 12.0448 16.4198C12.3314 16.1331 12.7196 15.971 13.125 15.9688H14.875C15.2804 15.971 15.6686 16.1331 15.9552 16.4198C16.2419 16.7064 16.404 17.0946 16.4062 17.5V19.25C16.404 19.6554 16.2419 20.0436 15.9552 20.3302C15.6686 20.6169 15.2804 20.779 14.875 20.7812V20.7812ZM13.125 17.2812C13.067 17.2812 13.0113 17.3043 12.9703 17.3453C12.9293 17.3863 12.9062 17.442 12.9062 17.5V19.25C12.9062 19.308 12.9293 19.3637 12.9703 19.4047C13.0113 19.4457 13.067 19.4688 13.125 19.4688H14.875C14.933 19.4688 14.9887 19.4457 15.0297 19.4047C15.0707 19.3637 15.0938 19.308 15.0938 19.25V17.5C15.0938 17.442 15.0707 17.3863 15.0297 17.3453C14.9887 17.3043 14.933 17.2812 14.875 17.2812H13.125Z" fill="#212121"/>
<path d="M21 20.7812H19.25C18.8446 20.779 18.4564 20.6169 18.1698 20.3302C17.8831 20.0436 17.721 19.6554 17.7188 19.25V17.5C17.721 17.0946 17.8831 16.7064 18.1698 16.4198C18.4564 16.1331 18.8446 15.971 19.25 15.9688H21C21.4054 15.971 21.7936 16.1331 22.0802 16.4198C22.3669 16.7064 22.529 17.0946 22.5312 17.5V19.25C22.529 19.6554 22.3669 20.0436 22.0802 20.3302C21.7936 20.6169 21.4054 20.779 21 20.7812ZM19.25 17.2812C19.192 17.2812 19.1363 17.3043 19.0953 17.3453C19.0543 17.3863 19.0312 17.442 19.0312 17.5V19.25C19.0312 19.308 19.0543 19.3637 19.0953 19.4047C19.1363 19.4457 19.192 19.4688 19.25 19.4688H21C21.058 19.4688 21.1137 19.4457 21.1547 19.4047C21.1957 19.3637 21.2188 19.308 21.2188 19.25V17.5C21.2188 17.442 21.1957 17.3863 21.1547 17.3453C21.1137 17.3043 21.058 17.2812 21 17.2812H19.25Z" fill="#212121"/>
<path d="M20.125 17.2812C19.9517 17.279 19.7861 17.2091 19.6635 17.0865C19.5409 16.9639 19.471 16.7983 19.4688 16.625V14.875C19.4688 14.817 19.4457 14.7613 19.4047 14.7203C19.3637 14.6793 19.308 14.6562 19.25 14.6562H8.75C8.69198 14.6562 8.63634 14.6793 8.59532 14.7203C8.5543 14.7613 8.53125 14.817 8.53125 14.875V16.625C8.53125 16.799 8.46211 16.966 8.33904 17.089C8.21597 17.2121 8.04905 17.2812 7.875 17.2812C7.70095 17.2812 7.53403 17.2121 7.41096 17.089C7.28789 16.966 7.21875 16.799 7.21875 16.625V14.875C7.22105 14.4696 7.38311 14.0814 7.66978 13.7948C7.95645 13.5081 8.3446 13.346 8.75 13.3438H19.25C19.6554 13.346 20.0436 13.5081 20.3302 13.7948C20.6169 14.0814 20.779 14.4696 20.7812 14.875V16.625C20.779 16.7983 20.7091 16.9639 20.5865 17.0865C20.4639 17.2091 20.2983 17.279 20.125 17.2812V17.2812Z" fill="#212121"/>
<path d="M14 17.2812C13.8267 17.279 13.6611 17.2091 13.5385 17.0865C13.4159 16.9639 13.346 16.7983 13.3438 16.625V11.375C13.3438 11.201 13.4129 11.034 13.536 10.911C13.659 10.7879 13.826 10.7188 14 10.7188C14.174 10.7188 14.341 10.7879 14.464 10.911C14.5871 11.034 14.6562 11.201 14.6562 11.375V16.625C14.654 16.7983 14.5841 16.9639 14.4615 17.0865C14.3389 17.2091 14.1733 17.279 14 17.2812V17.2812Z" fill="#212121"/>
<rect x="27" y="1" width="26" height="26" rx="7" transform="rotate(90 27 1)" stroke="#212121" stroke-width="2"/>
</svg>
