<svg width="24" height="24" viewBox="0 0 24 24" fill="none" xmlns="http://www.w3.org/2000/svg">
<path d="M10.0312 10.6875V13.3125C10.029 13.7179 9.86689 14.1061 9.58022 14.3927C9.29355 14.6794 8.9054 14.8415 8.5 14.8438H5.875C5.4696 14.8415 5.08145 14.6794 4.79478 14.3927C4.50811 14.1061 4.34605 13.7179 4.34375 13.3125V10.6875C4.34605 10.2821 4.50811 9.89395 4.79478 9.60728C5.08145 9.32061 5.4696 9.15855 5.875 9.15625H8.5C8.9054 9.15855 9.29355 9.32061 9.58022 9.60728C9.86689 9.89395 10.029 10.2821 10.0312 10.6875V10.6875ZM5.65625 13.3125C5.65625 13.3705 5.6793 13.4262 5.72032 13.4672C5.76134 13.5082 5.81698 13.5312 5.875 13.5312H8.5C8.55802 13.5312 8.61366 13.5082 8.65468 13.4672C8.6957 13.4262 8.71875 13.3705 8.71875 13.3125V10.6875C8.71875 10.6295 8.6957 10.5738 8.65468 10.5328C8.61366 10.4918 8.55802 10.4688 8.5 10.4688H5.875C5.81698 10.4688 5.76134 10.4918 5.72032 10.5328C5.6793 10.5738 5.65625 10.6295 5.65625 10.6875V13.3125Z" fill="white"/>
<path d="M18.7812 17.25V19C18.779 19.4054 18.6169 19.7936 18.3302 20.0802C18.0436 20.3669 17.6554 20.529 17.25 20.5312H15.5C15.0946 20.529 14.7064 20.3669 14.4198 20.0802C14.1331 19.7936 13.971 19.4054 13.9688 19V17.25C13.971 16.8446 14.1331 16.4564 14.4198 16.1698C14.7064 15.8831 15.0946 15.721 15.5 15.7188H17.25C17.6554 15.721 18.0436 15.8831 18.3302 16.1698C18.6169 16.4564 18.779 16.8446 18.7812 17.25V17.25ZM15.2812 19C15.2812 19.058 15.3043 19.1137 15.3453 19.1547C15.3863 19.1957 15.442 19.2188 15.5 19.2188H17.25C17.308 19.2188 17.3637 19.1957 17.4047 19.1547C17.4457 19.1137 17.4688 19.058 17.4688 19V17.25C17.4688 17.192 17.4457 17.1363 17.4047 17.0953C17.3637 17.0543 17.308 17.0312 17.25 17.0312H15.5C15.442 17.0312 15.3863 17.0543 15.3453 17.0953C15.3043 17.1363 15.2812 17.192 15.2812 17.25V19Z" fill="white"/>
<path d="M18.7812 11.125V12.875C18.779 13.2804 18.6169 13.6686 18.3302 13.9552C18.0436 14.2419 17.6554 14.404 17.25 14.4062H15.5C15.0946 14.404 14.7064 14.2419 14.4198 13.9552C14.1331 13.6686 13.971 13.2804 13.9688 12.875V11.125C13.971 10.7196 14.1331 10.3314 14.4198 10.0448C14.7064 9.75811 15.0946 9.59605 15.5 9.59375H17.25C17.6554 9.59605 18.0436 9.75811 18.3302 10.0448C18.6169 10.3314 18.779 10.7196 18.7812 11.125V11.125ZM15.2812 12.875C15.2812 12.933 15.3043 12.9887 15.3453 13.0297C15.3863 13.0707 15.442 13.0938 15.5 13.0938H17.25C17.308 13.0938 17.3637 13.0707 17.4047 13.0297C17.4457 12.9887 17.4688 12.933 17.4688 12.875V11.125C17.4688 11.067 17.4457 11.0113 17.4047 10.9703C17.3637 10.9293 17.308 10.9062 17.25 10.9062H15.5C15.442 10.9062 15.3863 10.9293 15.3453 10.9703C15.3043 11.0113 15.2812 11.067 15.2812 11.125V12.875Z" fill="white"/>
<path d="M18.7812 5V6.75C18.779 7.1554 18.6169 7.54355 18.3302 7.83022C18.0436 8.11689 17.6554 8.27895 17.25 8.28125H15.5C15.0946 8.27895 14.7064 8.11689 14.4198 7.83022C14.1331 7.54355 13.971 7.1554 13.9688 6.75V5C13.971 4.5946 14.1331 4.20645 14.4198 3.91978C14.7064 3.63311 15.0946 3.47105 15.5 3.46875H17.25C17.6554 3.47105 18.0436 3.63311 18.3302 3.91978C18.6169 4.20645 18.779 4.5946 18.7812 5ZM15.2812 6.75C15.2812 6.80802 15.3043 6.86366 15.3453 6.90468C15.3863 6.9457 15.442 6.96875 15.5 6.96875H17.25C17.308 6.96875 17.3637 6.9457 17.4047 6.90468C17.4457 6.86366 17.4688 6.80802 17.4688 6.75V5C17.4688 4.94198 17.4457 4.88634 17.4047 4.84532C17.3637 4.8043 17.308 4.78125 17.25 4.78125H15.5C15.442 4.78125 15.3863 4.8043 15.3453 4.84532C15.3043 4.88634 15.2812 4.94198 15.2812 5V6.75Z" fill="white"/>
<path d="M15.2812 5.875C15.279 6.04834 15.2091 6.21395 15.0865 6.33653C14.9639 6.45912 14.7983 6.52898 14.625 6.53125H12.875C12.817 6.53125 12.7613 6.5543 12.7203 6.59532C12.6793 6.63634 12.6562 6.69198 12.6562 6.75V17.25C12.6562 17.308 12.6793 17.3637 12.7203 17.4047C12.7613 17.4457 12.817 17.4688 12.875 17.4688H14.625C14.799 17.4688 14.966 17.5379 15.089 17.661C15.2121 17.784 15.2812 17.951 15.2812 18.125C15.2812 18.299 15.2121 18.466 15.089 18.589C14.966 18.7121 14.799 18.7812 14.625 18.7812H12.875C12.4696 18.779 12.0814 18.6169 11.7948 18.3302C11.5081 18.0436 11.346 17.6554 11.3438 17.25V6.75C11.346 6.3446 11.5081 5.95645 11.7948 5.66978C12.0814 5.38311 12.4696 5.22105 12.875 5.21875H14.625C14.7983 5.22102 14.9639 5.29088 15.0865 5.41347C15.2091 5.53605 15.279 5.70166 15.2812 5.875V5.875Z" fill="white"/>
<path d="M15.2812 12C15.279 12.1733 15.2091 12.3389 15.0865 12.4615C14.9639 12.5841 14.7983 12.654 14.625 12.6562H9.375C9.20095 12.6562 9.03403 12.5871 8.91096 12.464C8.78789 12.341 8.71875 12.174 8.71875 12C8.71875 11.826 8.78789 11.659 8.91096 11.536C9.03403 11.4129 9.20095 11.3438 9.375 11.3438H14.625C14.7983 11.346 14.9639 11.4159 15.0865 11.5385C15.2091 11.6611 15.279 11.8267 15.2812 12V12Z" fill="white"/>
</svg>
