<svg width="22" height="22" viewBox="0 0 22 22" fill="none" xmlns="http://www.w3.org/2000/svg">
<path d="M12.125 9.3125H9.875C9.52751 9.31053 9.19481 9.17162 8.9491 8.9259C8.70338 8.68019 8.56447 8.34749 8.5625 8V5.75C8.56447 5.40251 8.70338 5.06981 8.9491 4.8241C9.19481 4.57838 9.52751 4.43947 9.875 4.4375H12.125C12.4725 4.43947 12.8052 4.57838 13.0509 4.8241C13.2966 5.06981 13.4355 5.40251 13.4375 5.75V8C13.4355 8.34749 13.2966 8.68019 13.0509 8.9259C12.8052 9.17162 12.4725 9.31053 12.125 9.3125V9.3125ZM9.875 5.5625C9.82527 5.5625 9.77758 5.58225 9.74242 5.61742C9.70725 5.65258 9.6875 5.70027 9.6875 5.75V8C9.6875 8.04973 9.70725 8.09742 9.74242 8.13258C9.77758 8.16775 9.82527 8.1875 9.875 8.1875H12.125C12.1747 8.1875 12.2224 8.16775 12.2576 8.13258C12.2927 8.09742 12.3125 8.04973 12.3125 8V5.75C12.3125 5.70027 12.2927 5.65258 12.2576 5.61742C12.2224 5.58225 12.1747 5.5625 12.125 5.5625H9.875Z" fill="white"/>
<path d="M6.5 16.8125H5C4.65251 16.8105 4.31981 16.6716 4.0741 16.4259C3.82838 16.1802 3.68947 15.8475 3.6875 15.5V14C3.68947 13.6525 3.82838 13.3198 4.0741 13.0741C4.31981 12.8284 4.65251 12.6895 5 12.6875H6.5C6.84749 12.6895 7.18019 12.8284 7.4259 13.0741C7.67162 13.3198 7.81053 13.6525 7.8125 14V15.5C7.81053 15.8475 7.67162 16.1802 7.4259 16.4259C7.18019 16.6716 6.84749 16.8105 6.5 16.8125V16.8125ZM5 13.8125C4.95027 13.8125 4.90258 13.8323 4.86742 13.8674C4.83225 13.9026 4.8125 13.9503 4.8125 14V15.5C4.8125 15.5497 4.83225 15.5974 4.86742 15.6326C4.90258 15.6677 4.95027 15.6875 5 15.6875H6.5C6.54973 15.6875 6.59742 15.6677 6.63258 15.6326C6.66775 15.5974 6.6875 15.5497 6.6875 15.5V14C6.6875 13.9503 6.66775 13.9026 6.63258 13.8674C6.59742 13.8323 6.54973 13.8125 6.5 13.8125H5Z" fill="white"/>
<path d="M11.75 16.8125H10.25C9.90251 16.8105 9.56981 16.6716 9.3241 16.4259C9.07838 16.1802 8.93947 15.8475 8.9375 15.5V14C8.93947 13.6525 9.07838 13.3198 9.3241 13.0741C9.56981 12.8284 9.90251 12.6895 10.25 12.6875H11.75C12.0975 12.6895 12.4302 12.8284 12.6759 13.0741C12.9216 13.3198 13.0605 13.6525 13.0625 14V15.5C13.0605 15.8475 12.9216 16.1802 12.6759 16.4259C12.4302 16.6716 12.0975 16.8105 11.75 16.8125V16.8125ZM10.25 13.8125C10.2003 13.8125 10.1526 13.8323 10.1174 13.8674C10.0823 13.9026 10.0625 13.9503 10.0625 14V15.5C10.0625 15.5497 10.0823 15.5974 10.1174 15.6326C10.1526 15.6677 10.2003 15.6875 10.25 15.6875H11.75C11.7997 15.6875 11.8474 15.6677 11.8826 15.6326C11.9177 15.5974 11.9375 15.5497 11.9375 15.5V14C11.9375 13.9503 11.9177 13.9026 11.8826 13.8674C11.8474 13.8323 11.7997 13.8125 11.75 13.8125H10.25Z" fill="white"/>
<path d="M17 16.8125H15.5C15.1525 16.8105 14.8198 16.6716 14.5741 16.4259C14.3284 16.1802 14.1895 15.8475 14.1875 15.5V14C14.1895 13.6525 14.3284 13.3198 14.5741 13.0741C14.8198 12.8284 15.1525 12.6895 15.5 12.6875H17C17.3475 12.6895 17.6802 12.8284 17.9259 13.0741C18.1716 13.3198 18.3105 13.6525 18.3125 14V15.5C18.3105 15.8475 18.1716 16.1802 17.9259 16.4259C17.6802 16.6716 17.3475 16.8105 17 16.8125ZM15.5 13.8125C15.4503 13.8125 15.4026 13.8323 15.3674 13.8674C15.3323 13.9026 15.3125 13.9503 15.3125 14V15.5C15.3125 15.5497 15.3323 15.5974 15.3674 15.6326C15.4026 15.6677 15.4503 15.6875 15.5 15.6875H17C17.0497 15.6875 17.0974 15.6677 17.1326 15.6326C17.1677 15.5974 17.1875 15.5497 17.1875 15.5V14C17.1875 13.9503 17.1677 13.9026 17.1326 13.8674C17.0974 13.8323 17.0497 13.8125 17 13.8125H15.5Z" fill="white"/>
<path d="M16.25 13.8125C16.1014 13.8106 15.9595 13.7507 15.8544 13.6456C15.7493 13.5405 15.6894 13.3986 15.6875 13.25V11.75C15.6875 11.7003 15.6677 11.6526 15.6326 11.6174C15.5974 11.5823 15.5497 11.5625 15.5 11.5625H6.5C6.45027 11.5625 6.40258 11.5823 6.36742 11.6174C6.33225 11.6526 6.3125 11.7003 6.3125 11.75V13.25C6.3125 13.3992 6.25324 13.5423 6.14775 13.6477C6.04226 13.7532 5.89918 13.8125 5.75 13.8125C5.60082 13.8125 5.45774 13.7532 5.35225 13.6477C5.24676 13.5423 5.1875 13.3992 5.1875 13.25V11.75C5.18947 11.4025 5.32838 11.0698 5.5741 10.8241C5.81981 10.5784 6.15251 10.4395 6.5 10.4375H15.5C15.8475 10.4395 16.1802 10.5784 16.4259 10.8241C16.6716 11.0698 16.8105 11.4025 16.8125 11.75V13.25C16.8106 13.3986 16.7507 13.5405 16.6456 13.6456C16.5405 13.7507 16.3986 13.8106 16.25 13.8125V13.8125Z" fill="white"/>
<path d="M11 13.8125C10.8514 13.8106 10.7095 13.7507 10.6044 13.6456C10.4993 13.5405 10.4394 13.3986 10.4375 13.25V8.75C10.4375 8.60082 10.4968 8.45774 10.6023 8.35225C10.7077 8.24676 10.8508 8.1875 11 8.1875C11.1492 8.1875 11.2923 8.24676 11.3977 8.35225C11.5032 8.45774 11.5625 8.60082 11.5625 8.75V13.25C11.5606 13.3986 11.5007 13.5405 11.3956 13.6456C11.2905 13.7507 11.1486 13.8106 11 13.8125V13.8125Z" fill="white"/>
<rect x="21" y="1" width="20" height="20" rx="5" transform="rotate(90 21 1)" stroke="white" stroke-width="2"/>
</svg>
