<svg width="16" height="16" viewBox="0 0 16 16" fill="none" xmlns="http://www.w3.org/2000/svg">
<path d="M12.6665 11.166H3.33317C3.02429 11.1643 2.72856 11.0408 2.51015 10.8224C2.29173 10.604 2.16825 10.3082 2.1665 9.99935V3.33268C2.16825 3.0238 2.29173 2.72807 2.51015 2.50966C2.72856 2.29124 3.02429 2.16777 3.33317 2.16602H12.6665C12.9754 2.16777 13.2711 2.29124 13.4895 2.50966C13.7079 2.72807 13.8314 3.0238 13.8332 3.33268V9.99935C13.8314 10.3082 13.7079 10.604 13.4895 10.8224C13.2711 11.0408 12.9754 11.1643 12.6665 11.166ZM3.33317 3.16602C3.28897 3.16602 3.24658 3.18358 3.21532 3.21483C3.18406 3.24609 3.1665 3.28848 3.1665 3.33268V9.99935C3.1665 10.0436 3.18406 10.0859 3.21532 10.1172C3.24658 10.1485 3.28897 10.166 3.33317 10.166H12.6665C12.7107 10.166 12.7531 10.1485 12.7844 10.1172C12.8156 10.0859 12.8332 10.0436 12.8332 9.99935V3.33268C12.8332 3.28848 12.8156 3.24609 12.7844 3.21483C12.7531 3.18358 12.7107 3.16602 12.6665 3.16602H3.33317Z" fill="#605E5C"/>
<path d="M10 13.8327H8C7.86793 13.831 7.74175 13.7777 7.64836 13.6843C7.55496 13.5909 7.50173 13.4648 7.5 13.3327V10.666C7.5 10.5334 7.55268 10.4062 7.64645 10.3125C7.74022 10.2187 7.86739 10.166 8 10.166C8.13261 10.166 8.25978 10.2187 8.35355 10.3125C8.44732 10.4062 8.5 10.5334 8.5 10.666V12.8327H10C10.1326 12.8327 10.2598 12.8854 10.3536 12.9791C10.4473 13.0729 10.5 13.2001 10.5 13.3327C10.5 13.4653 10.4473 13.5925 10.3536 13.6862C10.2598 13.78 10.1326 13.8327 10 13.8327Z" fill="#605E5C"/>
<path d="M8 13.832H6C5.86739 13.832 5.74022 13.7794 5.64645 13.6856C5.55268 13.5918 5.5 13.4646 5.5 13.332C5.5 13.1994 5.55268 13.0722 5.64645 12.9785C5.74022 12.8847 5.86739 12.832 6 12.832H8C8.13261 12.832 8.25978 12.8847 8.35355 12.9785C8.44732 13.0722 8.5 13.1994 8.5 13.332C8.5 13.4646 8.44732 13.5918 8.35355 13.6856C8.25978 13.7794 8.13261 13.832 8 13.832Z" fill="#605E5C"/>
</svg>
