<svg width="81" height="53" viewBox="0 0 81 53" fill="none" xmlns="http://www.w3.org/2000/svg">
<path d="M40.4065 26.6016C40.4065 22.9044 41.5023 19.2901 43.5554 16.2154C45.6086 13.1406 48.527 10.7433 51.9419 9.32642C55.3568 7.90949 59.1151 7.53646 62.7419 8.25446C66.3688 8.97245 69.7015 10.7493 72.319 13.3604C74.9365 15.9716 76.7213 19.2999 77.4481 22.925C78.1749 26.5501 77.811 30.3093 76.4024 33.7276C74.9937 37.146 72.6035 40.0702 69.5338 42.1308C66.464 44.1914 62.8524 45.2959 59.1552 45.3049" stroke="white" stroke-width="5.74263" stroke-linecap="round" stroke-linejoin="round"/>
<path d="M40.4066 26.6023C40.4066 30.3014 39.3096 33.9175 37.2545 36.9933C35.1994 40.069 32.2783 42.4663 28.8607 43.8819C25.4432 45.2975 21.6825 45.6679 18.0545 44.9462C14.4264 44.2245 11.0938 42.4432 8.47807 39.8275C5.86237 37.2118 4.08106 33.8792 3.35939 30.2511C2.63772 26.623 3.0081 22.8624 4.42371 19.4448C5.83932 16.0273 8.23657 13.1062 11.3123 11.0511C14.388 8.99593 18.0041 7.899 21.7033 7.899" stroke="white" stroke-width="5.74263" stroke-linecap="round" stroke-linejoin="round"/>
<path d="M34.1017 7.5L22.8517 13.9952V1.00481L34.1017 7.5Z" fill="white"/>
<path d="M47 45.3983L58.25 38.9031V51.8935L47 45.3983Z" fill="white"/>
<path d="M11.83 30V22.95H14.27C15.0633 22.95 15.7333 23.0867 16.28 23.36C16.8333 23.6333 17.25 24.0333 17.53 24.56C17.8167 25.08 17.96 25.7167 17.96 26.47C17.96 27.2167 17.8167 27.8533 17.53 28.38C17.25 28.9067 16.8333 29.31 16.28 29.59C15.7333 29.8633 15.0633 30 14.27 30H11.83ZM12.87 29.13H14.21C15.1167 29.13 15.79 28.91 16.23 28.47C16.6767 28.03 16.9 27.3633 16.9 26.47C16.9 25.5767 16.6767 24.9133 16.23 24.48C15.79 24.04 15.1167 23.82 14.21 23.82H12.87V29.13ZM19.3691 30V22.95H23.9891V23.78H20.3791V26H23.7591V26.84H20.3791V29.16H23.9891V30H19.3691ZM27.4784 30L24.3784 22.95H25.4984L28.1384 29.13H27.7784L30.4284 22.95H31.4984L28.3884 30H27.4784Z" fill="white"/>
<path d="M48.59 26.47C48.59 25.73 48.72 25.09 48.98 24.55C49.24 24.01 49.6167 23.5933 50.11 23.3C50.61 23.0067 51.2033 22.86 51.89 22.86C52.57 22.86 53.1567 23.0067 53.65 23.3C54.1433 23.5933 54.5233 24.01 54.79 24.55C55.0633 25.09 55.2 25.7267 55.2 26.46C55.2 27.2 55.0633 27.8433 54.79 28.39C54.5233 28.93 54.14 29.35 53.64 29.65C53.1467 29.9433 52.5633 30.09 51.89 30.09C51.2033 30.09 50.6133 29.9433 50.12 29.65C49.6267 29.35 49.2467 28.93 48.98 28.39C48.72 27.8433 48.59 27.2033 48.59 26.47ZM49.68 26.47C49.68 27.3233 49.8667 27.99 50.24 28.47C50.6133 28.95 51.1633 29.19 51.89 29.19C52.5967 29.19 53.1433 28.9533 53.53 28.48C53.9167 28 54.11 27.33 54.11 26.47C54.11 25.61 53.9167 24.9433 53.53 24.47C53.15 23.9967 52.6033 23.76 51.89 23.76C51.1633 23.76 50.6133 23.9967 50.24 24.47C49.8667 24.9433 49.68 25.61 49.68 26.47ZM56.623 30V22.95H59.613C60.3663 22.95 60.943 23.1333 61.343 23.5C61.7496 23.86 61.953 24.36 61.953 25C61.953 25.64 61.7496 26.1433 61.343 26.51C60.943 26.8767 60.3663 27.06 59.613 27.06H57.663V30H56.623ZM57.663 26.23H59.503C59.9763 26.23 60.333 26.1233 60.573 25.91C60.813 25.6967 60.933 25.3933 60.933 25C60.933 24.6133 60.813 24.3133 60.573 24.1C60.333 23.8867 59.9763 23.78 59.503 23.78H57.663V26.23ZM65.585 30.09C65.0183 30.09 64.505 30.02 64.045 29.88C63.585 29.7333 63.185 29.5267 62.845 29.26L63.195 28.44C63.4217 28.6133 63.655 28.7567 63.895 28.87C64.1417 28.9833 64.4017 29.07 64.675 29.13C64.955 29.1833 65.2583 29.21 65.585 29.21C66.145 29.21 66.555 29.11 66.815 28.91C67.0817 28.71 67.215 28.4467 67.215 28.12C67.215 27.84 67.1217 27.6233 66.935 27.47C66.755 27.3167 66.435 27.1933 65.975 27.1L64.885 26.88C64.2383 26.7467 63.755 26.53 63.435 26.23C63.1217 25.9233 62.965 25.5067 62.965 24.98C62.965 24.5533 63.0783 24.18 63.305 23.86C63.5317 23.54 63.845 23.2933 64.245 23.12C64.6517 22.9467 65.125 22.86 65.665 22.86C66.165 22.86 66.625 22.9333 67.045 23.08C67.465 23.22 67.8183 23.43 68.105 23.71L67.765 24.5C67.465 24.24 67.145 24.05 66.805 23.93C66.465 23.8033 66.0783 23.74 65.645 23.74C65.1317 23.74 64.7283 23.8467 64.435 24.06C64.1483 24.2733 64.005 24.5633 64.005 24.93C64.005 25.2233 64.095 25.4533 64.275 25.62C64.4617 25.7867 64.7683 25.9133 65.195 26L66.285 26.21C66.9583 26.35 67.455 26.5667 67.775 26.86C68.095 27.1467 68.255 27.5433 68.255 28.05C68.255 28.4567 68.145 28.8133 67.925 29.12C67.7117 29.4267 67.405 29.6667 67.005 29.84C66.605 30.0067 66.1317 30.09 65.585 30.09Z" fill="white"/>
</svg>
