<?xml version="1.0" encoding="UTF-8"?>
<svg width="200px" height="51px" viewBox="0 0 200 51" version="1.1" xmlns="http://www.w3.org/2000/svg" xmlns:xlink="http://www.w3.org/1999/xlink">
    <!-- Generator: Sketch 56.2 (81672) - https://sketch.com -->
    <title>illustration</title>
    <desc>Created with Sketch.</desc>
    <defs>
        <rect id="path-1" x="0" y="0" width="57" height="51"></rect>
    </defs>
    <g id="Download" stroke="none" stroke-width="1" fill="none" fill-rule="evenodd">
        <g id="Download-Firefox-1.0-" transform="translate(-1121.000000, -189.000000)">
            <g id="tooltip" transform="translate(1050.000000, 89.000000)">
                <g id="Group-5">
                    <g id="illustration" transform="translate(71.000000, 98.000000)">
                        <rect id="Rectangle" fill="#FFFFFF" opacity="0.3" x="0" y="2.03066038" width="200" height="1"></rect>
                        <rect id="Rectangle" fill="#FFFFFF" opacity="0.3" x="0" y="41" width="200" height="1"></rect>
                        <g id="Group-3" transform="translate(89.000000, 7.000000)">
                            <rect id="Rectangle" fill="#00D29F" x="0" y="0" width="30" height="30" rx="6"></rect>
                            <g id="common-actions/download_16_w" transform="translate(8.000000, 8.000000)" fill="#FFFFFF">
                                <g id="download_16_w">
                                    <path d="M6.646,10.8529 L2.647,6.8539 C2.451,6.6579 2.451,6.3419 2.647,6.1469 C2.842,5.9509 3.158,5.9509 3.354,6.1469 L6.5,9.2929 L6.5,0.4999 C6.5,0.2239 6.724,-0.0001 7,-0.0001 C7.276,-0.0001 7.5,0.2239 7.5,0.4999 L7.5,9.2929 L10.647,6.1469 C10.842,5.9509 11.158,5.9509 11.354,6.1469 C11.549,6.3419 11.549,6.6579 11.354,6.8539 L7.354,10.8529 C7.308,10.8989 7.253,10.9359 7.191,10.9619 C7.13,10.9869 7.065,10.9999 7,10.9999 C6.935,10.9999 6.87,10.9869 6.809,10.9619 C6.748,10.9359 6.692,10.8989 6.646,10.8529 Z M0.538461538,13 L13.4615385,13 C13.7587692,13 14,13.224 14,13.5 C14,13.776 13.7587692,14 13.4615385,14 L0.538461538,14 C0.241230769,14 0,13.776 0,13.5 C0,13.224 0.241230769,13 0.538461538,13 Z" id="fill"></path>
                                </g>
                            </g>
                        </g>
                        <rect id="Rectangle" fill="#FFFFFF" opacity="0.3" x="127" y="7" width="30" height="30" rx="6"></rect>
                        <rect id="Rectangle" fill="#FFFFFF" opacity="0.3" x="165" y="7" width="30" height="30" rx="6"></rect>
                        <g id="Group-2">
                            <g id="Group">
                                <mask id="mask-2" fill="white">
                                    <use xlink:href="#path-1"></use>
                                </mask>
                                <use id="Mask" fill="#D8D8D8" opacity="0" xlink:href="#path-1"></use>
                                <g mask="url(#mask-2)" fill="#FFFFFF" fill-opacity="0.3" id="Rectangle" stroke="#FFFFFF" stroke-opacity="0.4">
                                    <g transform="translate(-36.000000, 7.000000)">
                                        <rect x="0.5" y="0.5" width="92" height="29" rx="6"></rect>
                                    </g>
                                </g>
                            </g>
                            <g id="contacts/favorite_12_w" opacity="0.6" transform="translate(36.000000, 16.000000)" fill="#FFFFFF">
                                <g id="favorite_12_w">
                                    <path d="M8.44915294,7.14479629 L8.45915156,7.14479629 L8.44915294,7.14479629 Z M1.62909484,5.03685639 L3.85578732,6.74880758 C4.14274769,6.96980128 4.26273112,7.34979044 4.15474603,7.69478061 L3.28086672,10.4907009 L5.47156417,8.80474896 C5.78252122,8.56675574 6.21746115,8.56675574 6.52841821,8.80474896 L8.71911566,10.4897009 L7.84523635,7.69478061 C7.73725126,7.34879047 7.85723469,6.96880131 8.14419506,6.74880758 L10.3708875,5.03685639 L7.64526397,5.03685639 C7.2743152,5.03685639 6.93336228,4.77786377 6.81837816,4.40687435 L6.00049112,1.78994896 L5.18160421,4.40687435 C5.06662009,4.77786377 4.72566718,5.03685639 4.35471841,5.03685639 L1.62909484,5.03685639 Z M9.46001334,11.0596847 L9.4610132,11.0606846 C9.4610132,11.0606846 9.46001334,11.0596847 9.46001334,11.0596847 L9.46001334,11.0596847 Z M9.28103805,11.9996579 C9.12905904,11.9996579 8.97708003,11.9516592 8.85009757,11.8526621 L5.99949126,9.66072455 L3.14788508,11.853662 C2.9059185,12.0406567 2.57096476,12.0496564 2.3179997,11.8736615 C2.06403477,11.6976665 1.95504982,11.3806755 2.04703712,11.0856839 L3.17288163,7.48478659 L0.271282361,5.25285023 C0.0343150882,5.07085542 -0.0576722077,4.77486386 0.0363148121,4.49787176 C0.130301832,4.22187963 0.394265377,4.0368849 0.692224227,4.0368849 L4.24973291,4.0368849 L5.36557881,0.466986685 C5.45256679,0.18799464 5.70753158,0 6.00049112,0 C6.2924508,0 6.54741559,0.18799464 6.63440357,0.466986685 L7.75024947,4.0368849 L11.3077582,4.0368849 C11.605717,4.0368849 11.8696805,4.22187963 11.9636676,4.49787176 C12.0576546,4.77486386 11.9656673,5.07085542 11.7296999,5.25285023 L8.82710075,7.48478659 L9.9519454,11.084684 C10.0449326,11.3796755 9.93594761,11.6976665 9.68198268,11.8736615 C9.56099939,11.9576591 9.42101872,11.9996579 9.28103805,11.9996579 L9.28103805,11.9996579 Z" id="fill"></path>
                                </g>
                            </g>
                        </g>
                        <g id="content/touch_16" transform="translate(121.000000, 42.000000) scale(-1, 1) translate(-121.000000, -42.000000) translate(113.000000, 31.000000)" fill="#FFFFFF">
                            <g id="touch_16">
                                <path d="M1.57,13.0777333 C1.462,13.4230667 1.39133333,13.7790667 1.35533333,14.1404 C1.21533333,15.5830667 1.72866667,17.0644 2.76333333,18.2057333 C3.79666667,19.3444 5.21666667,19.9964 6.662,19.9977333 C7.83266667,19.9844 8.942,19.4364 9.766,18.4910667 L13.0286667,14.7497333 C13.5193333,14.1004 13.454,13.1230667 12.846,12.5137333 C11.1886667,10.8497333 9.64333333,9.29106667 9.39,9.0284 C9.14333333,8.7724 9.13933333,8.36973333 9.38066667,8.10973333 L14.414,2.7164 C14.582,2.54973333 14.6646667,2.34706667 14.6646667,2.1324 C14.6633333,1.91773333 14.5793333,1.7164 14.4273333,1.56706667 C14.1073333,1.25106667 13.5886667,1.2524 13.2713333,1.56973333 L6.202,8.9964 C5.99666667,9.2124 5.674,9.2644 5.41133333,9.1284 C5.14866667,8.99106667 5.00733333,8.6964 5.066,8.40573333 L5.60066667,5.7364 C5.73133333,5.08573333 5.33533333,4.2564 4.802,4.06173333 L1.59666667,13.0164 C1.58866667,13.0377333 1.57933333,13.0577333 1.57,13.0777333 M6.738,21.3297333 C4.842,21.3297333 3.06066667,20.5177333 1.77533333,19.1017333 C0.488666667,17.6817333 -0.147333333,15.8270667 0.0286666667,14.0124 C0.0753333333,13.5244 0.178,13.0417333 0.331333333,12.5764 C0.343333333,12.5404 0.358,12.5057333 0.375333333,12.4724 L3.64466667,3.52706667 C3.91933333,2.87773333 4.62333333,2.5764 5.26066667,2.8084 C6.534,3.27506667 7.14066667,4.83373333 6.90733333,5.99773333 L6.826,6.40706667 L12.318,0.637733333 C13.162,-0.2076 14.5233333,-0.210266667 15.3633333,0.617733333 C15.77,1.01906667 15.9953333,1.55506667 15.998,2.1284 C15.9993333,2.70173333 15.778,3.23906667 15.374,3.64306667 L10.7926667,8.5524 C11.4166667,9.18573333 12.574,10.3510667 13.7913333,11.5724 C14.8646667,12.6510667 14.982,14.3790667 14.062,15.5910667 L10.7713333,19.3670667 C9.69666667,20.5990667 8.22733333,21.3137333 6.738,21.3297333" id="fill"></path>
                            </g>
                        </g>
                    </g>
                </g>
            </g>
        </g>
    </g>
</svg>