<svg width="21" height="21" viewBox="0 0 21 21" fill="none" xmlns="http://www.w3.org/2000/svg">
<path d="M9.49845 3.00391H2.88854C2.38767 3.00391 1.90731 3.20288 1.55314 3.55705C1.19897 3.91122 1 4.39158 1 4.89245V18.1123C1 18.6131 1.19897 19.0935 1.55314 19.4477C1.90731 19.8018 2.38767 20.0008 2.88854 20.0008H16.1084C16.6092 20.0008 17.0896 19.8018 17.4438 19.4477C17.7979 19.0935 17.9969 18.6131 17.9969 18.1123V11.5024" stroke="#5F338F" stroke-width="1.88854" stroke-linecap="round" stroke-linejoin="round"/>
<path d="M16.5809 1.5867C16.9565 1.21104 17.466 1 17.9973 1C18.5285 1 19.038 1.21104 19.4137 1.5867C19.7893 1.96235 20.0004 2.47185 20.0004 3.0031C20.0004 3.53436 19.7893 4.04386 19.4137 4.41951L10.4431 13.3901L6.66602 14.3344L7.61029 10.5573L16.5809 1.5867Z" stroke="#323130" stroke-width="1.88854" stroke-linecap="round" stroke-linejoin="round"/>
</svg>
