<svg width="21" height="21" viewBox="0 0 21 21" fill="none" xmlns="http://www.w3.org/2000/svg">
<path d="M2.625 6.125V4.375C2.625 3.4125 3.4125 2.625 4.375 2.625H6.125M14.875 2.625H16.625C17.5875 2.625 18.375 3.4125 18.375 4.375V6.125M18.375 14.875V16.625C18.375 17.5875 17.5875 18.375 16.625 18.375H14.875M6.125 18.375H4.375C3.4125 18.375 2.625 17.5875 2.625 16.625V14.875" stroke="white" stroke-width="1.5" stroke-linecap="round" stroke-linejoin="round"/>
<path d="M11.375 6.125H7C6.51675 6.125 6.125 6.51675 6.125 7V9.625C6.125 10.1082 6.51675 10.5 7 10.5H11.375C11.8582 10.5 12.25 10.1082 12.25 9.625V7C12.25 6.51675 11.8582 6.125 11.375 6.125Z" stroke="white" stroke-width="1.5" stroke-linecap="round" stroke-linejoin="round"/>
<path d="M14 10.5H9.625C9.14175 10.5 8.75 10.8918 8.75 11.375V14C8.75 14.4832 9.14175 14.875 9.625 14.875H14C14.4832 14.875 14.875 14.4832 14.875 14V11.375C14.875 10.8918 14.4832 10.5 14 10.5Z" stroke="white" stroke-width="1.5" stroke-linecap="round" stroke-linejoin="round"/>
</svg>
