<svg width="14" height="14" viewBox="0 0 14 14" fill="none" xmlns="http://www.w3.org/2000/svg">
<path d="M11.0742 10.5V4.67578H2.92578V10.5H11.0742ZM11.0742 2.32422C11.4023 2.32422 11.6758 2.44271 11.8945 2.67969C12.1315 2.89844 12.25 3.17187 12.25 3.5V10.5C12.25 10.8099 12.1315 11.0833 11.8945 11.3203C11.6576 11.5573 11.3841 11.6758 11.0742 11.6758H2.92578C2.59766 11.6758 2.3151 11.5664 2.07813 11.3477C1.85938 11.1107 1.75 10.8281 1.75 10.5V3.5C1.75 3.17187 1.85938 2.89844 2.07813 2.67969C2.3151 2.44271 2.59766 2.32422 2.92578 2.32422H11.0742Z" fill="#605BFF"/>
<rect x="3.5" y="6.125" width="0.875" height="0.875" fill="#605BFF"/>
<line x1="4.8125" y1="6.50098" x2="10.5" y2="6.50098" stroke="#605BFF" stroke-width="0.123047"/>
<rect x="3.5" y="7.4375" width="0.875" height="0.875" fill="#605BFF"/>
<line x1="4.8125" y1="7.81348" x2="10.5" y2="7.81348" stroke="#605BFF" stroke-width="0.123047"/>
<rect x="3.5" y="8.75" width="0.875" height="0.875" fill="#605BFF"/>
<line x1="4.8125" y1="9.12598" x2="10.5" y2="9.12598" stroke="#605BFF" stroke-width="0.123047"/>
</svg>
