<svg width="25" height="24" viewBox="0 0 25 24" fill="none" xmlns="http://www.w3.org/2000/svg">
<path d="M3.5 7V5C3.5 3.9 4.4 3 5.5 3H7.5M17.5 3H19.5C20.6 3 21.5 3.9 21.5 5V7M21.5 17V19C21.5 20.1 20.6 21 19.5 21H17.5M7.5 21H5.5C4.4 21 3.5 20.1 3.5 19V17" stroke="#212121" stroke-width="1.5" stroke-linecap="round" stroke-linejoin="round"/>
<path d="M13.5 7H8.5C7.94772 7 7.5 7.44772 7.5 8V11C7.5 11.5523 7.94772 12 8.5 12H13.5C14.0523 12 14.5 11.5523 14.5 11V8C14.5 7.44772 14.0523 7 13.5 7Z" stroke="#212121" stroke-width="1.5" stroke-linecap="round" stroke-linejoin="round"/>
<path d="M16.5 12H11.5C10.9477 12 10.5 12.4477 10.5 13V16C10.5 16.5523 10.9477 17 11.5 17H16.5C17.0523 17 17.5 16.5523 17.5 16V13C17.5 12.4477 17.0523 12 16.5 12Z" stroke="#212121" stroke-width="1.5" stroke-linecap="round" stroke-linejoin="round"/>
</svg>
