<svg width="13" height="13" viewBox="0 0 13 13" fill="none" xmlns="http://www.w3.org/2000/svg">
<path d="M1.25 3.58333V2.41667C1.25 1.775 1.775 1.25 2.41667 1.25H3.58333M9.41667 1.25H10.5833C11.225 1.25 11.75 1.775 11.75 2.41667V3.58333M11.75 9.41667V10.5833C11.75 11.225 11.225 11.75 10.5833 11.75H9.41667M3.58333 11.75H2.41667C1.775 11.75 1.25 11.225 1.25 10.5833V9.41667" stroke="#605BFF" stroke-width="1.5" stroke-linecap="round" stroke-linejoin="round"/>
<path d="M7.0835 3.58325H4.16683C3.84466 3.58325 3.5835 3.84442 3.5835 4.16659V5.91659C3.5835 6.23875 3.84466 6.49992 4.16683 6.49992H7.0835C7.40566 6.49992 7.66683 6.23875 7.66683 5.91659V4.16659C7.66683 3.84442 7.40566 3.58325 7.0835 3.58325Z" stroke="#605BFF" stroke-width="1.5" stroke-linecap="round" stroke-linejoin="round"/>
<path d="M8.8335 6.5H5.91683C5.59466 6.5 5.3335 6.76117 5.3335 7.08333V8.83333C5.3335 9.1555 5.59466 9.41667 5.91683 9.41667H8.8335C9.15566 9.41667 9.41683 9.1555 9.41683 8.83333V7.08333C9.41683 6.76117 9.15566 6.5 8.8335 6.5Z" stroke="#605BFF" stroke-width="1.5" stroke-linecap="round" stroke-linejoin="round"/>
</svg>
