<svg width="16" height="16" viewBox="0 0 16 16" fill="none" xmlns="http://www.w3.org/2000/svg">
<path d="M2 4.66667V3.33333C2 2.6 2.6 2 3.33333 2H4.66667M11.3333 2H12.6667C13.4 2 14 2.6 14 3.33333V4.66667M14 11.3333V12.6667C14 13.4 13.4 14 12.6667 14H11.3333M4.66667 14H3.33333C2.6 14 2 13.4 2 12.6667V11.3333" stroke="#212121" stroke-width="1.25" stroke-linecap="round" stroke-linejoin="round"/>
<path d="M8.6665 4.66675H5.33317C4.96498 4.66675 4.6665 4.96522 4.6665 5.33341V7.33341C4.6665 7.7016 4.96498 8.00008 5.33317 8.00008H8.6665C9.03469 8.00008 9.33317 7.7016 9.33317 7.33341V5.33341C9.33317 4.96522 9.03469 4.66675 8.6665 4.66675Z" stroke="#212121" stroke-width="1.25" stroke-linecap="round" stroke-linejoin="round"/>
<path d="M10.6665 8H7.33317C6.96498 8 6.6665 8.29848 6.6665 8.66667V10.6667C6.6665 11.0349 6.96498 11.3333 7.33317 11.3333H10.6665C11.0347 11.3333 11.3332 11.0349 11.3332 10.6667V8.66667C11.3332 8.29848 11.0347 8 10.6665 8Z" stroke="#212121" stroke-width="1.25" stroke-linecap="round" stroke-linejoin="round"/>
</svg>
