<svg width="15" height="15" viewBox="0 0 15 15" fill="none" xmlns="http://www.w3.org/2000/svg">
<path d="M11.5742 11V5.17578H3.42578V11H11.5742ZM11.5742 2.82422C11.9023 2.82422 12.1758 2.94271 12.3945 3.17969C12.6315 3.39844 12.75 3.67187 12.75 4V11C12.75 11.3099 12.6315 11.5833 12.3945 11.8203C12.1576 12.0573 11.8841 12.1758 11.5742 12.1758H3.42578C3.09766 12.1758 2.8151 12.0664 2.57813 11.8477C2.35938 11.6107 2.25 11.3281 2.25 11V4C2.25 3.67187 2.35938 3.39844 2.57813 3.17969C2.8151 2.94271 3.09766 2.82422 3.42578 2.82422H11.5742Z" fill="#6C757D"/>
<rect x="4" y="6.625" width="0.875" height="0.875" fill="#6C757D"/>
<line x1="5.3125" y1="7.00098" x2="11" y2="7.00098" stroke="#6C757D" stroke-width="0.123047"/>
<rect x="4" y="7.9375" width="0.875" height="0.875" fill="#6C757D"/>
<line x1="5.3125" y1="8.31348" x2="11" y2="8.31348" stroke="#6C757D" stroke-width="0.123047"/>
<rect x="4" y="9.25" width="0.875" height="0.875" fill="#6C757D"/>
<line x1="5.3125" y1="9.62598" x2="11" y2="9.62598" stroke="#6C757D" stroke-width="0.123047"/>
</svg>
