<svg width="24" height="24" viewBox="0 0 24 24" fill="none" xmlns="http://www.w3.org/2000/svg">
<g clip-path="url(#clip0_8067_43356)">
<path d="M21.3359 4H2.66927C2.31565 4 1.97651 4.14048 1.72646 4.39052C1.47641 4.64057 1.33594 4.97971 1.33594 5.33333V18.6667C1.33594 19.0203 1.47641 19.3594 1.72646 19.6095C1.97651 19.8595 2.31565 20 2.66927 20H21.3359C21.6896 20 22.0287 19.8595 22.2787 19.6095C22.5288 19.3594 22.6693 19.0203 22.6693 18.6667V5.33333C22.6693 4.97971 22.5288 4.64057 22.2787 4.39052C22.0287 4.14048 21.6896 4 21.3359 4ZM20.3093 18.6667H3.77594L8.4426 13.84L7.4826 12.9133L2.66927 17.8933V6.34667L10.9559 14.5933C11.2058 14.8417 11.5437 14.9811 11.8959 14.9811C12.2482 14.9811 12.5861 14.8417 12.8359 14.5933L21.3359 6.14V17.8067L16.4293 12.9L15.4893 13.84L20.3093 18.6667ZM3.5426 5.33333H20.2559L11.8959 13.6467L3.5426 5.33333Z" fill="#605BFF"/>
</g>
<defs>
<clipPath id="clip0_8067_43356">
<rect width="24" height="24" fill="white"/>
</clipPath>
</defs>
</svg>
