<svg width="204" height="300" viewBox="0 0 204 300" fill="none" xmlns="http://www.w3.org/2000/svg">
    <rect x="1" y="1.5" width="202" height="65.8743" rx="5" fill="white" stroke="black" stroke-width="2"/>
    <line x1="23.9897" y1="30.8665" x2="133.937" y2="30.8665" stroke="black" stroke-width="4"/>
    <rect x="1" y="82.1282" width="202" height="65.8743" rx="5" fill="white" stroke="black" stroke-width="2"/>
    <line x1="23.9897" y1="111.495" x2="133.937" y2="111.495" stroke="black" stroke-width="4"/>
    <rect x="1" y="162.757" width="202" height="65.8743" rx="5" fill="#EBEBFF" stroke="black" stroke-width="2"/>
    <line x1="23.9897" y1="192.123" x2="133.937" y2="192.123" stroke="black" stroke-width="4"/>
    <path d="M140.914 258.523L131.634 249.237C130.86 248.462 129.944 247.859 128.941 247.466C127.939 247.073 126.872 246.897 125.803 246.948C124.735 247 123.687 247.278 122.724 247.766C121.76 248.254 120.9 248.941 120.196 249.788C118.899 251.344 118.199 253.351 118.232 255.419C118.265 257.488 119.028 259.469 120.374 260.979L150.622 294.883C152.551 297.039 155.234 298.264 158.049 298.264H181.638C193.855 298.264 202 287.565 202 276.866V244.194" fill="white"/>
    <path d="M140.914 258.523L131.634 249.237C130.86 248.462 129.944 247.859 128.941 247.466C127.939 247.073 126.872 246.897 125.803 246.948C124.735 247 123.687 247.278 122.724 247.766C121.76 248.254 120.9 248.941 120.196 249.788C118.899 251.344 118.199 253.351 118.232 255.419C118.265 257.488 119.028 259.469 120.374 260.979L150.622 294.883C152.551 297.039 155.234 298.264 158.049 298.264H181.638C193.855 298.264 202 287.565 202 276.866V244.194" stroke="black" stroke-width="1.5" stroke-linecap="round" stroke-linejoin="round"/>
    <path d="M186.769 252.435V248.422C186.769 232.358 202 232.358 202 248.422M171.538 252.435V240.39C171.538 224.326 186.769 224.326 186.769 240.39V252.435M156.308 254.856V234.867C156.308 218.803 171.538 218.803 171.538 234.867V252.435M141.077 258.664V206.758C141.077 203.962 141.879 201.281 143.307 199.305C144.735 197.328 146.672 196.217 148.692 196.217C152.896 196.217 156.308 200.926 156.308 206.751V254.856" fill="white"/>
    <path d="M202 248.422C202 232.358 186.769 232.358 186.769 248.422V252.435V240.39C186.769 224.326 171.538 224.326 171.538 240.39V252.435V234.867C171.538 218.803 156.308 218.803 156.308 234.867V254.856V206.751C156.308 200.926 152.896 196.217 148.692 196.217C146.672 196.217 144.735 197.328 143.307 199.305C141.879 201.281 141.077 203.962 141.077 206.758V258.664" stroke="black" stroke-width="1.5" stroke-linecap="round" stroke-linejoin="round"/>
</svg>
