<svg width="1075" height="801" viewBox="0 0 1075 801" fill="none" xmlns="http://www.w3.org/2000/svg">
<g clip-path="url(#clip0_0_5)">
<path d="M323.806 504.204L311.335 496.41L318.999 476.955C319.735 475.086 320.994 473.468 322.624 472.294C324.254 471.12 326.188 470.44 328.194 470.334V470.334C330.199 470.229 332.192 470.702 333.936 471.697C335.679 472.692 337.1 474.167 338.029 475.947C338.959 477.726 339.357 479.736 339.176 481.735C338.996 483.735 338.245 485.64 337.012 487.225L323.806 504.204Z" fill="#FEB8B8"/>
<path d="M258.203 714.992L241.033 707.546L250.349 688.371L264.216 696.485L258.203 714.992Z" fill="#FEB8B8"/>
<path d="M251.538 745.646L231.787 725.503C229.903 723.594 228.85 721.016 228.858 718.333C228.867 715.649 229.937 713.079 231.834 711.181L241.778 701.238C242.136 700.877 242.575 700.605 243.058 700.444C243.541 700.284 244.055 700.239 244.558 700.315C245.061 700.39 245.54 700.582 245.955 700.877C246.37 701.171 246.71 701.56 246.947 702.01C249.395 706.768 252.729 709.333 257.047 709.464C259.636 709.542 260.044 709.445 260.718 711.946L259.887 730.788L263.303 734.676C264.584 736.133 265.295 738.005 265.306 739.946C265.316 741.886 264.624 743.765 263.358 745.236V745.236C262.634 746.078 261.742 746.761 260.741 747.242C259.739 747.723 258.648 747.991 257.538 748.029C256.427 748.068 255.321 747.876 254.288 747.466C253.255 747.055 252.319 746.436 251.538 745.646Z" fill="#2F2E41"/>
<path d="M265.348 699.844L247.421 691.27L262.23 597.738L189.834 603.771C166.944 605.678 148.05 585.208 152.69 562.713C154.041 555.904 157.784 549.804 163.241 545.515L234.95 554.089L281.412 560.477C286.075 561.119 290.429 563.174 293.887 566.366C297.346 569.558 299.742 573.734 300.754 578.33V578.33C301.56 581.993 301.459 585.797 300.46 589.411L265.348 699.844Z" fill="#2F2E41"/>
<path d="M141.028 800.002C203.446 800.002 254.047 749.402 254.047 686.983C254.047 624.565 203.446 573.964 141.028 573.964C78.6092 573.964 28.009 624.565 28.009 686.983C28.009 749.402 78.6092 800.002 141.028 800.002Z" fill="#E6E6E6"/>
<path d="M312.114 491.733L330.041 500.307L301.521 547.162C300.271 549.214 298.444 550.852 296.267 551.871C294.091 552.889 291.662 553.242 289.286 552.885V552.885C287.018 552.545 284.891 551.572 283.15 550.078C281.409 548.585 280.124 546.631 279.443 544.44L247.584 483.503C246.5 481.43 245.876 479.148 245.753 476.812C245.63 474.476 246.012 472.141 246.873 469.966C247.733 467.791 249.052 465.826 250.74 464.207C252.427 462.587 254.444 461.35 256.652 460.579H256.653C258.7 459.865 260.869 459.567 263.033 459.702C265.196 459.838 267.311 460.404 269.254 461.367C271.196 462.33 272.926 463.672 274.343 465.313C275.76 466.954 276.835 468.861 277.505 470.923L292.628 517.454L312.114 491.733Z" fill="#3F3D56"/>
<path d="M233.713 468.88C239.566 469.691 245.577 467.762 250.462 464.436C255.346 461.11 259.206 456.475 262.473 451.552C267.994 443.224 271.976 433.973 274.228 424.238C276.089 426.475 278.526 428.163 281.274 429.119C284.023 430.075 286.981 430.264 289.829 429.666C299.123 427.579 304.696 416.736 302.883 407.386C301.071 398.035 293.399 390.622 284.645 386.869C275.891 383.116 266.135 382.496 256.61 382.517C250.33 382.531 243.929 382.824 238.029 384.978C232.13 387.132 226.725 391.425 224.629 397.346C223.315 401.058 223.358 405.166 221.864 408.809C219.152 415.423 212.117 419.035 205.515 421.775C198.912 424.515 191.735 427.298 187.841 433.293C183.445 440.063 184.714 449.511 189.559 455.968C194.404 462.424 202.185 466.168 210.104 467.734C218.023 469.299 226.182 468.912 234.244 468.518" fill="#2F2E41"/>
<path d="M230.922 714.992L213.752 707.546L223.069 688.371L236.936 696.485L230.922 714.992Z" fill="#FEB8B8"/>
<path d="M224.257 745.646L204.507 725.503C202.622 723.594 201.569 721.016 201.578 718.333C201.587 715.649 202.657 713.079 204.554 711.181L214.498 701.238C214.856 700.877 215.294 700.605 215.777 700.444C216.26 700.284 216.774 700.239 217.278 700.315C217.781 700.39 218.26 700.582 218.675 700.877C219.09 701.171 219.43 701.56 219.667 702.01C222.115 706.768 225.449 709.333 229.767 709.464C232.356 709.542 232.764 709.445 233.438 711.946L232.607 730.788L236.023 734.676C237.304 736.133 238.015 738.005 238.025 739.946C238.036 741.886 237.344 743.765 236.078 745.236C235.354 746.078 234.462 746.761 233.46 747.242C232.459 747.723 231.368 747.991 230.258 748.029C229.147 748.068 228.041 747.876 227.008 747.466C225.975 747.055 225.039 746.436 224.257 745.646V745.646Z" fill="#2F2E41"/>
<path d="M235.729 704.521L217.802 695.947L232.611 602.414L160.215 608.447C137.325 610.355 118.432 589.885 123.071 567.389C124.422 560.581 128.165 554.48 133.623 550.192L205.331 558.766L251.793 565.154C256.456 565.795 260.81 567.85 264.268 571.043C267.727 574.235 270.123 578.41 271.135 583.007C271.941 586.669 271.841 590.473 270.841 594.088L235.729 704.521Z" fill="#2F2E41"/>
<path d="M261.841 448.863C277.553 448.863 290.291 436.126 290.291 420.414C290.291 404.701 277.553 391.964 261.841 391.964C246.129 391.964 233.391 404.701 233.391 420.414C233.391 436.126 246.129 448.863 261.841 448.863Z" fill="#FEB8B8"/>
<path d="M241.965 487.056L230.273 455.099C238.575 446.29 240.403 435.48 237.288 423.142L270.804 441.849L241.965 487.056Z" fill="#FEB8B8"/>
<path d="M218.582 562.662C197.772 569.608 170.233 567.335 135.728 555.52C134.795 555.197 133.956 554.651 133.282 553.93C132.609 553.209 132.121 552.334 131.863 551.382C131.604 550.429 131.582 549.428 131.797 548.465C132.013 547.502 132.461 546.607 133.102 545.856C156.375 518.501 177.255 491.708 194.486 465.775C200.989 457.367 210.24 451.512 220.621 449.234L236.509 445.746L260.671 458.217L267.004 461.796C268.497 462.64 269.803 463.78 270.842 465.145C271.881 466.51 272.632 468.072 273.047 469.737C273.463 471.401 273.536 473.133 273.261 474.826C272.986 476.519 272.369 478.139 271.448 479.586C261.746 503.291 249.099 524.933 227.155 540.058L218.582 562.662Z" fill="#3F3D56"/>
<path d="M262.5 414.879C265.997 420.442 271.193 424.73 277.318 427.108C281.656 428.779 287.161 429.194 290.417 425.876C292.775 423.473 293.245 419.774 292.911 416.423C291.866 405.964 284.006 396.857 274.253 392.938C264.5 389.019 253.24 389.876 243.507 393.843C234.324 397.586 225.602 405.255 225.108 415.16C224.855 420.236 226.693 425.825 223.968 430.115C221.916 433.346 217.952 434.659 214.402 436.09C210.852 437.52 207.042 439.778 206.313 443.536C205.818 446.09 206.962 448.756 208.758 450.639C210.645 452.441 212.879 453.842 215.324 454.756C221.114 457.221 227.487 458.758 233.707 457.805C239.927 456.852 245.942 453.064 248.376 447.261C250.251 442.792 249.867 437.75 249.65 432.909C249.434 428.068 249.499 422.912 252.084 418.813C254.669 414.714 260.67 412.419 264.533 415.345" fill="#2F2E41"/>
<path opacity="0.2" d="M193.25 496.799C193.25 496.799 215.854 552.919 221.31 556.037C226.766 559.154 226.766 551.366 226.766 551.366L193.25 496.799Z" fill="#323130"/>
<path d="M370.668 478.505L233.477 500.823C232.804 500.931 232.114 500.769 231.56 500.37C231.007 499.971 230.634 499.369 230.523 498.695L224.987 464.664C224.879 463.991 225.041 463.301 225.44 462.748C225.839 462.194 226.441 461.821 227.115 461.71L364.305 439.393C364.979 439.284 365.668 439.447 366.222 439.846C366.775 440.244 367.148 440.847 367.259 441.52L372.795 475.551C372.904 476.225 372.741 476.914 372.342 477.468C371.943 478.022 371.341 478.395 370.668 478.505V478.505Z" fill="#5F338F"/>
<path d="M248.08 489.183C254.051 489.183 258.891 484.343 258.891 478.372C258.891 472.402 254.051 467.562 248.08 467.562C242.11 467.562 237.269 472.402 237.269 478.372C237.269 484.343 242.11 489.183 248.08 489.183Z" fill="white"/>
<path d="M271.566 467.249C271.333 467.287 271.109 467.37 270.907 467.495C270.706 467.619 270.53 467.782 270.392 467.974C270.253 468.166 270.154 468.384 270.1 468.614C270.045 468.845 270.037 469.083 270.075 469.317C270.113 469.551 270.197 469.775 270.321 469.976C270.446 470.178 270.609 470.353 270.801 470.491C270.994 470.629 271.211 470.728 271.442 470.782C271.672 470.836 271.911 470.844 272.145 470.806L355.983 457.167C356.217 457.129 356.441 457.046 356.642 456.921C356.843 456.797 357.018 456.634 357.156 456.442C357.294 456.25 357.394 456.033 357.448 455.802C357.502 455.572 357.511 455.333 357.473 455.1C357.435 454.866 357.351 454.642 357.226 454.441C357.102 454.24 356.939 454.065 356.747 453.927C356.555 453.789 356.338 453.69 356.107 453.635C355.877 453.581 355.638 453.573 355.405 453.611L271.566 467.249Z" fill="white"/>
<path d="M273.302 477.92C273.068 477.958 272.844 478.041 272.643 478.166C272.441 478.29 272.266 478.453 272.127 478.645C271.989 478.837 271.89 479.055 271.835 479.285C271.781 479.516 271.772 479.755 271.81 479.988C271.848 480.222 271.932 480.446 272.057 480.647C272.181 480.849 272.345 481.024 272.537 481.162C272.729 481.3 272.947 481.399 273.177 481.453C273.408 481.507 273.647 481.515 273.881 481.477L357.719 467.838C358.19 467.761 358.611 467.5 358.89 467.113C359.169 466.725 359.283 466.242 359.206 465.771C359.129 465.3 358.869 464.878 358.481 464.599C358.094 464.32 357.612 464.206 357.14 464.282L273.302 477.92Z" fill="white"/>
<path d="M270.804 517.455L258.333 509.661L265.997 490.206C266.734 488.337 267.992 486.719 269.622 485.545C271.252 484.371 273.186 483.691 275.192 483.585C277.197 483.48 279.19 483.953 280.934 484.948C282.677 485.943 284.098 487.418 285.028 489.197C285.957 490.977 286.355 492.986 286.175 494.986C285.994 496.985 285.243 498.891 284.011 500.476L270.804 517.455Z" fill="#FEB8B8"/>
<path d="M258.333 504.984L276.26 513.557L247.74 560.413C246.49 562.465 244.663 564.103 242.486 565.121C240.31 566.139 237.881 566.492 235.505 566.136V566.136C233.237 565.796 231.11 564.823 229.369 563.329C227.628 561.835 226.343 559.881 225.662 557.691L193.803 496.753C192.719 494.68 192.095 492.398 191.972 490.062C191.849 487.727 192.231 485.392 193.091 483.216C193.952 481.041 195.271 479.077 196.958 477.457C198.646 475.838 200.663 474.601 202.871 473.83H202.871C204.919 473.116 207.088 472.818 209.251 472.953C211.415 473.088 213.53 473.654 215.473 474.618C217.415 475.581 219.145 476.923 220.562 478.564C221.979 480.204 223.054 482.112 223.724 484.174L238.847 530.705L258.333 504.984Z" fill="#3F3D56"/>
<path d="M706.519 673.772C696.191 688.371 693.463 771.459 692.855 798.093C692.84 798.693 692.824 799.262 692.817 799.8H666.674C666.354 799.231 666.058 798.67 665.778 798.093C650.282 767.508 658.88 730.835 659.332 728.98C658.155 734.81 663.478 751.708 669.496 768.077C673.167 717.748 704.555 676.313 706.519 673.772Z" fill="#E6E6E6"/>
<path d="M735 798.093L734.688 799.8H25V798.093H735Z" fill="#3F3D56"/>
<path d="M671.882 482.906H461.432C460.399 482.904 459.409 482.493 458.678 481.763C457.947 481.032 457.536 480.042 457.535 479.008V426.805C457.536 425.772 457.947 424.781 458.678 424.05C459.409 423.32 460.399 422.909 461.432 422.908H671.882C672.915 422.909 673.905 423.32 674.636 424.05C675.367 424.781 675.778 425.772 675.779 426.805V479.008C675.778 480.042 675.367 481.032 674.636 481.763C673.905 482.493 672.915 482.904 671.882 482.906V482.906ZM461.432 424.467C460.812 424.467 460.218 424.714 459.78 425.152C459.341 425.591 459.095 426.185 459.094 426.805V479.008C459.095 479.628 459.341 480.223 459.78 480.661C460.218 481.099 460.812 481.346 461.432 481.347H671.882C672.502 481.346 673.096 481.099 673.534 480.661C673.973 480.223 674.219 479.628 674.22 479.008V426.805C674.219 426.185 673.973 425.591 673.534 425.152C673.096 424.714 672.502 424.467 671.882 424.467H461.432Z" fill="#E6E6E6"/>
<path d="M488.713 469.273C497.753 469.273 505.081 461.945 505.081 452.905C505.081 443.865 497.753 436.537 488.713 436.537C479.673 436.537 472.345 443.865 472.345 452.905C472.345 461.945 479.673 469.273 488.713 469.273Z" fill="#E6E6E6"/>
<path d="M526.516 441.994C525.792 441.994 525.098 442.282 524.587 442.793C524.075 443.305 523.788 443.999 523.788 444.722C523.788 445.446 524.075 446.14 524.587 446.651C525.098 447.163 525.792 447.451 526.516 447.451H655.124C655.847 447.451 656.541 447.163 657.053 446.651C657.564 446.14 657.852 445.446 657.852 444.722C657.852 443.999 657.564 443.305 657.053 442.793C656.541 442.282 655.847 441.994 655.124 441.994H526.516Z" fill="#E6E6E6"/>
<path d="M526.516 458.362C525.792 458.362 525.098 458.649 524.587 459.161C524.075 459.672 523.788 460.366 523.788 461.09C523.788 461.813 524.075 462.507 524.587 463.019C525.098 463.53 525.792 463.818 526.516 463.818H655.124C655.847 463.818 656.541 463.53 657.053 463.019C657.564 462.507 657.852 461.813 657.852 461.09C657.852 460.366 657.564 459.672 657.053 459.161C656.541 458.649 655.847 458.362 655.124 458.362H526.516Z" fill="#E6E6E6"/>
<path d="M671.882 570.203H461.432C460.399 570.202 459.409 569.791 458.678 569.06C457.947 568.33 457.536 567.339 457.535 566.306V514.102C457.536 513.069 457.947 512.078 458.678 511.348C459.409 510.617 460.399 510.206 461.432 510.205H671.882C672.915 510.206 673.905 510.617 674.636 511.348C675.367 512.078 675.778 513.069 675.779 514.102V566.306C675.778 567.339 675.367 568.33 674.636 569.06C673.905 569.791 672.915 570.202 671.882 570.203ZM461.432 511.764C460.812 511.765 460.218 512.011 459.78 512.45C459.341 512.888 459.095 513.482 459.094 514.102V566.306C459.095 566.926 459.341 567.52 459.78 567.958C460.218 568.397 460.812 568.643 461.432 568.644H671.882C672.502 568.643 673.096 568.397 673.534 567.958C673.973 567.52 674.219 566.926 674.22 566.306V514.102C674.219 513.482 673.973 512.888 673.534 512.45C673.096 512.011 672.502 511.765 671.882 511.764H461.432Z" fill="#E6E6E6"/>
<path d="M488.713 556.571C497.753 556.571 505.081 549.242 505.081 540.203C505.081 531.163 497.753 523.834 488.713 523.834C479.673 523.834 472.345 531.163 472.345 540.203C472.345 549.242 479.673 556.571 488.713 556.571Z" fill="#E6E6E6"/>
<path d="M526.516 529.292C525.792 529.292 525.098 529.579 524.587 530.091C524.075 530.602 523.788 531.296 523.788 532.02C523.788 532.743 524.075 533.437 524.587 533.949C525.098 534.461 525.792 534.748 526.516 534.748H655.124C655.847 534.748 656.541 534.461 657.053 533.949C657.564 533.437 657.852 532.743 657.852 532.02C657.852 531.296 657.564 530.602 657.053 530.091C656.541 529.579 655.847 529.292 655.124 529.292H526.516Z" fill="#E6E6E6"/>
<path d="M526.516 545.659C525.792 545.659 525.098 545.946 524.587 546.458C524.075 546.97 523.788 547.664 523.788 548.387C523.788 549.111 524.075 549.805 524.587 550.316C525.098 550.828 525.792 551.115 526.516 551.115H655.124C655.847 551.115 656.541 550.828 657.053 550.316C657.564 549.805 657.852 549.111 657.852 548.387C657.852 547.664 657.564 546.97 657.053 546.458C656.541 545.946 655.847 545.659 655.124 545.659H526.516Z" fill="#E6E6E6"/>
<path d="M566.657 395.472C560.182 395.472 553.853 393.552 548.469 389.955C543.086 386.358 538.89 381.245 536.412 375.264C533.934 369.282 533.286 362.7 534.549 356.349C535.812 349.999 538.93 344.166 543.508 339.588C548.087 335.009 553.92 331.892 560.27 330.628C566.62 329.365 573.203 330.014 579.184 332.491C585.166 334.969 590.279 339.165 593.876 344.548C597.473 349.932 599.393 356.261 599.393 362.736C599.383 371.415 595.931 379.736 589.794 385.873C583.657 392.01 575.336 395.463 566.657 395.472V395.472ZM566.657 331.558C560.49 331.558 554.462 333.387 549.335 336.813C544.208 340.238 540.212 345.108 537.852 350.805C535.493 356.502 534.875 362.77 536.078 368.818C537.281 374.866 540.251 380.422 544.611 384.782C548.971 389.142 554.526 392.111 560.574 393.314C566.622 394.517 572.891 393.9 578.588 391.54C584.285 389.18 589.154 385.184 592.58 380.057C596.006 374.93 597.834 368.902 597.834 362.736C597.825 354.47 594.537 346.545 588.692 340.7C582.847 334.855 574.923 331.568 566.657 331.558Z" fill="#E6E6E6"/>
<path d="M579.573 359.507H569.886V349.819C569.886 348.963 569.545 348.141 568.94 347.536C568.334 346.93 567.513 346.59 566.656 346.59C565.8 346.59 564.978 346.93 564.373 347.536C563.767 348.141 563.427 348.963 563.427 349.819V359.507H553.739C552.883 359.507 552.061 359.847 551.456 360.453C550.85 361.058 550.51 361.88 550.51 362.736C550.51 363.593 550.85 364.414 551.456 365.02C552.061 365.625 552.883 365.966 553.739 365.966H563.427V375.653C563.427 376.51 563.767 377.331 564.373 377.937C564.978 378.542 565.8 378.883 566.656 378.883C567.513 378.883 568.334 378.542 568.94 377.937C569.545 377.331 569.886 376.51 569.886 375.653V365.966H579.573C580.43 365.966 581.251 365.625 581.857 365.02C582.462 364.414 582.802 363.593 582.802 362.736C582.802 361.88 582.462 361.059 581.857 360.453C581.251 359.847 580.43 359.507 579.573 359.507V359.507Z" fill="#E6E6E6"/>
</g>
<path d="M3.486 253V223.39H6.846L25.032 247.246H23.982V223.39H28.056V253H24.738L6.594 229.144H7.56V253H3.486ZM43.68 253.378C41.58 253.378 39.76 252.944 38.22 252.076C36.68 251.18 35.49 249.92 34.65 248.296C33.81 246.644 33.39 244.684 33.39 242.416C33.39 240.148 33.81 238.202 34.65 236.578C35.49 234.926 36.68 233.666 38.22 232.798C39.76 231.902 41.58 231.454 43.68 231.454C45.78 231.454 47.6 231.902 49.14 232.798C50.708 233.666 51.912 234.926 52.752 236.578C53.62 238.202 54.054 240.148 54.054 242.416C54.054 244.684 53.62 246.644 52.752 248.296C51.912 249.92 50.708 251.18 49.14 252.076C47.6 252.944 45.78 253.378 43.68 253.378ZM43.68 250.06C45.528 250.06 46.998 249.416 48.09 248.128C49.182 246.84 49.728 244.936 49.728 242.416C49.728 239.896 49.182 238.006 48.09 236.746C46.998 235.458 45.528 234.814 43.68 234.814C41.86 234.814 40.404 235.458 39.312 236.746C38.22 238.006 37.674 239.896 37.674 242.416C37.674 244.936 38.206 246.84 39.27 248.128C40.362 249.416 41.832 250.06 43.68 250.06ZM83.9016 253.378C80.8776 253.378 78.3016 252.762 76.1736 251.53C74.0456 250.298 72.4076 248.548 71.2596 246.28C70.1396 243.984 69.5796 241.282 69.5796 238.174C69.5796 235.066 70.1396 232.378 71.2596 230.11C72.4076 227.842 74.0456 226.092 76.1736 224.86C78.3016 223.628 80.8776 223.012 83.9016 223.012C86.0016 223.012 87.8776 223.32 89.5296 223.936C91.1816 224.552 92.6236 225.448 93.8556 226.624L92.3436 230.11C90.9996 228.962 89.6836 228.136 88.3956 227.632C87.1356 227.128 85.6656 226.876 83.9856 226.876C80.7936 226.876 78.3576 227.856 76.6776 229.816C74.9976 231.776 74.1576 234.562 74.1576 238.174C74.1576 241.786 74.9976 244.586 76.6776 246.574C78.3576 248.534 80.7936 249.514 83.9856 249.514C85.6656 249.514 87.1356 249.262 88.3956 248.758C89.6836 248.254 90.9996 247.414 92.3436 246.238L93.8556 249.724C92.6236 250.9 91.1816 251.81 89.5296 252.454C87.8776 253.07 86.0016 253.378 83.9016 253.378ZM106.557 253.378C104.457 253.378 102.637 252.944 101.097 252.076C99.557 251.18 98.367 249.92 97.527 248.296C96.687 246.644 96.267 244.684 96.267 242.416C96.267 240.148 96.687 238.202 97.527 236.578C98.367 234.926 99.557 233.666 101.097 232.798C102.637 231.902 104.457 231.454 106.557 231.454C108.657 231.454 110.477 231.902 112.017 232.798C113.585 233.666 114.789 234.926 115.629 236.578C116.497 238.202 116.931 240.148 116.931 242.416C116.931 244.684 116.497 246.644 115.629 248.296C114.789 249.92 113.585 251.18 112.017 252.076C110.477 252.944 108.657 253.378 106.557 253.378ZM106.557 250.06C108.405 250.06 109.875 249.416 110.967 248.128C112.059 246.84 112.605 244.936 112.605 242.416C112.605 239.896 112.059 238.006 110.967 236.746C109.875 235.458 108.405 234.814 106.557 234.814C104.737 234.814 103.281 235.458 102.189 236.746C101.097 238.006 100.551 239.896 100.551 242.416C100.551 244.936 101.083 246.84 102.147 248.128C103.239 249.416 104.709 250.06 106.557 250.06ZM121.889 253V236.914C121.889 236.102 121.847 235.276 121.763 234.436C121.707 233.568 121.637 232.7 121.553 231.832H125.669L126.047 236.284H125.543C126.187 234.716 127.181 233.526 128.525 232.714C129.869 231.874 131.423 231.454 133.187 231.454C135.679 231.454 137.555 232.14 138.815 233.512C140.103 234.884 140.747 237.012 140.747 239.896V253H136.505V240.148C136.505 238.272 136.127 236.928 135.371 236.116C134.643 235.276 133.523 234.856 132.011 234.856C130.219 234.856 128.791 235.416 127.727 236.536C126.663 237.628 126.131 239.112 126.131 240.988V253H121.889ZM148.046 253V235.108H143.93V231.832H149.222L148.046 232.924V229.564C148.046 227.072 148.662 225.182 149.894 223.894C151.154 222.578 152.974 221.92 155.354 221.92C155.914 221.92 156.516 221.962 157.16 222.046C157.804 222.13 158.35 222.27 158.798 222.466V225.91C158.462 225.77 158.042 225.658 157.538 225.574C157.034 225.462 156.544 225.406 156.068 225.406C154.836 225.406 153.884 225.77 153.212 226.498C152.568 227.198 152.246 228.304 152.246 229.816V232.672L151.616 231.832H165.686V253H161.444V235.108H152.288V253H148.046ZM161.108 227.422V223.012H166.022V227.422H161.108ZM181.421 262.408C179.517 262.408 177.781 262.184 176.213 261.736C174.673 261.288 173.287 260.616 172.055 259.72L173.105 256.612C173.973 257.2 174.827 257.662 175.667 257.998C176.507 258.362 177.389 258.628 178.313 258.796C179.237 258.964 180.189 259.048 181.169 259.048C183.185 259.048 184.697 258.53 185.705 257.494C186.741 256.486 187.259 255.016 187.259 253.084V247.414H187.679C187.231 248.982 186.307 250.228 184.907 251.152C183.535 252.048 181.939 252.496 180.119 252.496C178.187 252.496 176.507 252.076 175.079 251.236C173.679 250.368 172.587 249.15 171.803 247.582C171.047 245.986 170.669 244.11 170.669 241.954C170.669 239.798 171.047 237.936 171.803 236.368C172.587 234.8 173.679 233.596 175.079 232.756C176.507 231.888 178.187 231.454 180.119 231.454C181.967 231.454 183.563 231.916 184.907 232.84C186.279 233.736 187.189 234.968 187.637 236.536L187.259 236.2L187.637 231.832H191.753C191.641 232.7 191.557 233.568 191.501 234.436C191.445 235.276 191.417 236.102 191.417 236.914V252.58C191.417 255.772 190.563 258.208 188.855 259.888C187.175 261.568 184.697 262.408 181.421 262.408ZM181.127 249.178C182.975 249.178 184.445 248.548 185.537 247.288C186.657 246.028 187.217 244.25 187.217 241.954C187.217 239.658 186.657 237.894 185.537 236.662C184.445 235.43 182.975 234.814 181.127 234.814C179.223 234.814 177.711 235.43 176.591 236.662C175.499 237.894 174.953 239.658 174.953 241.954C174.953 244.25 175.499 246.028 176.591 247.288C177.711 248.548 179.223 249.178 181.127 249.178ZM205.122 253.378C202.574 253.378 200.656 252.692 199.368 251.32C198.108 249.92 197.478 247.778 197.478 244.894V231.832H201.72V244.81C201.72 246.574 202.084 247.876 202.812 248.716C203.54 249.556 204.646 249.976 206.13 249.976C207.81 249.976 209.168 249.416 210.204 248.296C211.24 247.176 211.758 245.692 211.758 243.844V231.832H216V253H211.884V248.464H212.43C211.842 250.032 210.904 251.25 209.616 252.118C208.328 252.958 206.83 253.378 205.122 253.378ZM222.129 253V237.082C222.129 236.214 222.101 235.346 222.045 234.478C222.017 233.582 221.961 232.7 221.877 231.832H225.993L226.455 237.292H225.783C226.063 235.976 226.539 234.884 227.211 234.016C227.883 233.148 228.695 232.504 229.647 232.084C230.627 231.664 231.649 231.454 232.713 231.454C233.161 231.454 233.539 231.482 233.847 231.538C234.155 231.566 234.463 231.622 234.771 231.706L234.729 235.486C234.253 235.29 233.833 235.178 233.469 235.15C233.133 235.094 232.713 235.066 232.209 235.066C230.977 235.066 229.927 235.346 229.059 235.906C228.191 236.438 227.533 237.166 227.085 238.09C226.637 239.014 226.413 240.008 226.413 241.072V253H222.129ZM245.946 253.378C244.07 253.378 242.432 252.944 241.032 252.076C239.632 251.208 238.54 249.948 237.756 248.296C237 246.644 236.622 244.684 236.622 242.416C236.622 240.12 237 238.16 237.756 236.536C238.54 234.912 239.632 233.666 241.032 232.798C242.432 231.902 244.07 231.454 245.946 231.454C247.794 231.454 249.404 231.916 250.776 232.84C252.148 233.764 253.058 235.024 253.506 236.62H253.044L253.464 231.832H257.58C257.496 232.7 257.412 233.568 257.328 234.436C257.272 235.276 257.244 236.102 257.244 236.914V253H253.002V248.296H253.464C253.016 249.864 252.092 251.11 250.692 252.034C249.32 252.93 247.738 253.378 245.946 253.378ZM246.996 250.06C248.816 250.06 250.272 249.416 251.364 248.128C252.484 246.84 253.044 244.936 253.044 242.416C253.044 239.896 252.484 238.006 251.364 236.746C250.272 235.458 248.816 234.814 246.996 234.814C245.148 234.814 243.664 235.458 242.544 236.746C241.452 238.006 240.906 239.896 240.906 242.416C240.906 244.936 241.452 246.84 242.544 248.128C243.636 249.416 245.12 250.06 246.996 250.06ZM271.666 253.378C269.37 253.378 267.634 252.762 266.458 251.53C265.282 250.27 264.694 248.394 264.694 245.902V235.108H260.578V231.832H264.694V226.246L268.936 225.112V231.832H274.816V235.108H268.936V245.524C268.936 247.092 269.216 248.212 269.776 248.884C270.336 249.556 271.148 249.892 272.212 249.892C272.744 249.892 273.206 249.85 273.598 249.766C274.018 249.654 274.396 249.528 274.732 249.388V252.832C274.312 253 273.822 253.126 273.262 253.21C272.702 253.322 272.17 253.378 271.666 253.378ZM278.692 253V231.832H282.934V253H278.692ZM278.356 227.422V223.012H283.27V227.422H278.356ZM298.223 253.378C296.123 253.378 294.303 252.944 292.763 252.076C291.223 251.18 290.033 249.92 289.193 248.296C288.353 246.644 287.933 244.684 287.933 242.416C287.933 240.148 288.353 238.202 289.193 236.578C290.033 234.926 291.223 233.666 292.763 232.798C294.303 231.902 296.123 231.454 298.223 231.454C300.323 231.454 302.143 231.902 303.683 232.798C305.251 233.666 306.455 234.926 307.295 236.578C308.163 238.202 308.597 240.148 308.597 242.416C308.597 244.684 308.163 246.644 307.295 248.296C306.455 249.92 305.251 251.18 303.683 252.076C302.143 252.944 300.323 253.378 298.223 253.378ZM298.223 250.06C300.071 250.06 301.541 249.416 302.633 248.128C303.725 246.84 304.271 244.936 304.271 242.416C304.271 239.896 303.725 238.006 302.633 236.746C301.541 235.458 300.071 234.814 298.223 234.814C296.403 234.814 294.947 235.458 293.855 236.746C292.763 238.006 292.217 239.896 292.217 242.416C292.217 244.936 292.749 246.84 293.813 248.128C294.905 249.416 296.375 250.06 298.223 250.06ZM313.555 253V236.914C313.555 236.102 313.513 235.276 313.429 234.436C313.373 233.568 313.303 232.7 313.219 231.832H317.335L317.713 236.284H317.209C317.853 234.716 318.847 233.526 320.191 232.714C321.535 231.874 323.089 231.454 324.853 231.454C327.345 231.454 329.221 232.14 330.481 233.512C331.769 234.884 332.413 237.012 332.413 239.896V253H328.171V240.148C328.171 238.272 327.793 236.928 327.037 236.116C326.309 235.276 325.189 234.856 323.677 234.856C321.885 234.856 320.457 235.416 319.393 236.536C318.329 237.628 317.797 239.112 317.797 240.988V253H313.555ZM349.019 262.534L348.011 259.09C349.327 258.81 350.419 258.474 351.287 258.082C352.183 257.69 352.925 257.172 353.513 256.528C354.101 255.912 354.605 255.114 355.025 254.134L356.075 251.656L355.991 253.378L346.793 231.832H351.329L358.469 249.472H357.335L364.475 231.832H368.843L359.141 254.512C358.525 255.912 357.867 257.088 357.167 258.04C356.467 258.992 355.711 259.762 354.899 260.35C354.087 260.938 353.191 261.4 352.211 261.736C351.231 262.072 350.167 262.338 349.019 262.534ZM381.583 253.378C378.167 253.378 375.479 252.412 373.519 250.48C371.559 248.548 370.579 245.874 370.579 242.458C370.579 240.246 370.999 238.314 371.839 236.662C372.707 235.01 373.897 233.736 375.409 232.84C376.949 231.916 378.727 231.454 380.743 231.454C382.731 231.454 384.397 231.874 385.741 232.714C387.085 233.554 388.107 234.744 388.807 236.284C389.507 237.796 389.857 239.588 389.857 241.66V243.004H373.897V240.568H386.959L386.245 241.114C386.245 239.014 385.769 237.39 384.817 236.242C383.893 235.066 382.549 234.478 380.785 234.478C378.825 234.478 377.313 235.164 376.249 236.536C375.185 237.88 374.653 239.742 374.653 242.122V242.542C374.653 245.034 375.255 246.91 376.459 248.17C377.691 249.43 379.427 250.06 381.667 250.06C382.899 250.06 384.047 249.892 385.111 249.556C386.203 249.192 387.239 248.604 388.219 247.792L389.605 250.69C388.625 251.558 387.435 252.23 386.035 252.706C384.635 253.154 383.151 253.378 381.583 253.378ZM402.916 253.378C400.62 253.378 398.884 252.762 397.708 251.53C396.532 250.27 395.944 248.394 395.944 245.902V235.108H391.828V231.832H395.944V226.246L400.186 225.112V231.832H406.066V235.108H400.186V245.524C400.186 247.092 400.466 248.212 401.026 248.884C401.586 249.556 402.398 249.892 403.462 249.892C403.994 249.892 404.456 249.85 404.848 249.766C405.268 249.654 405.646 249.528 405.982 249.388V252.832C405.562 253 405.072 253.126 404.512 253.21C403.952 253.322 403.42 253.378 402.916 253.378ZM409.968 253V248.002H414.966V253H409.968ZM439.238 253V227.044H429.116V223.39H453.728V227.044H443.606V253H439.238ZM454.114 253V237.082C454.114 236.214 454.086 235.346 454.03 234.478C454.002 233.582 453.946 232.7 453.862 231.832H457.978L458.44 237.292H457.768C458.048 235.976 458.524 234.884 459.196 234.016C459.868 233.148 460.68 232.504 461.632 232.084C462.612 231.664 463.634 231.454 464.698 231.454C465.146 231.454 465.524 231.482 465.832 231.538C466.14 231.566 466.448 231.622 466.756 231.706L466.714 235.486C466.238 235.29 465.818 235.178 465.454 235.15C465.118 235.094 464.698 235.066 464.194 235.066C462.962 235.066 461.912 235.346 461.044 235.906C460.176 236.438 459.518 237.166 459.07 238.09C458.622 239.014 458.398 240.008 458.398 241.072V253H454.114ZM470.671 262.534L469.663 259.09C470.979 258.81 472.071 258.474 472.939 258.082C473.835 257.69 474.577 257.172 475.165 256.528C475.753 255.912 476.257 255.114 476.677 254.134L477.727 251.656L477.643 253.378L468.445 231.832H472.981L480.121 249.472H478.987L486.127 231.832H490.495L480.793 254.512C480.177 255.912 479.519 257.088 478.819 258.04C478.119 258.992 477.363 259.762 476.551 260.35C475.739 260.938 474.843 261.4 473.863 261.736C472.883 262.072 471.819 262.338 470.671 262.534ZM514.298 253.378C512.17 253.378 510.308 252.944 508.712 252.076C507.144 251.18 505.926 249.906 505.058 248.254C504.218 246.574 503.798 244.586 503.798 242.29C503.798 240.022 504.232 238.076 505.1 236.452C505.968 234.828 507.186 233.596 508.754 232.756C510.322 231.888 512.17 231.454 514.298 231.454C515.67 231.454 517 231.692 518.288 232.168C519.576 232.616 520.64 233.26 521.48 234.1L520.094 237.082C519.31 236.326 518.428 235.766 517.448 235.402C516.468 235.01 515.516 234.814 514.592 234.814C512.576 234.814 510.994 235.458 509.846 236.746C508.698 238.034 508.124 239.896 508.124 242.332C508.124 244.796 508.698 246.686 509.846 248.002C510.994 249.318 512.576 249.976 514.592 249.976C515.488 249.976 516.426 249.808 517.406 249.472C518.386 249.108 519.282 248.534 520.094 247.75L521.48 250.732C520.612 251.572 519.52 252.23 518.204 252.706C516.916 253.154 515.614 253.378 514.298 253.378ZM525.891 253V237.082C525.891 236.214 525.863 235.346 525.807 234.478C525.779 233.582 525.723 232.7 525.639 231.832H529.755L530.217 237.292H529.545C529.825 235.976 530.301 234.884 530.973 234.016C531.645 233.148 532.457 232.504 533.409 232.084C534.389 231.664 535.411 231.454 536.475 231.454C536.923 231.454 537.301 231.482 537.609 231.538C537.917 231.566 538.225 231.622 538.533 231.706L538.491 235.486C538.015 235.29 537.595 235.178 537.231 235.15C536.895 235.094 536.475 235.066 535.971 235.066C534.739 235.066 533.689 235.346 532.821 235.906C531.953 236.438 531.295 237.166 530.847 238.09C530.399 239.014 530.175 240.008 530.175 241.072V253H525.891ZM551.306 253.378C547.89 253.378 545.202 252.412 543.242 250.48C541.282 248.548 540.302 245.874 540.302 242.458C540.302 240.246 540.722 238.314 541.562 236.662C542.43 235.01 543.62 233.736 545.132 232.84C546.672 231.916 548.45 231.454 550.466 231.454C552.454 231.454 554.12 231.874 555.464 232.714C556.808 233.554 557.83 234.744 558.53 236.284C559.23 237.796 559.58 239.588 559.58 241.66V243.004H543.62V240.568H556.682L555.968 241.114C555.968 239.014 555.492 237.39 554.54 236.242C553.616 235.066 552.272 234.478 550.508 234.478C548.548 234.478 547.036 235.164 545.972 236.536C544.908 237.88 544.376 239.742 544.376 242.122V242.542C544.376 245.034 544.978 246.91 546.182 248.17C547.414 249.43 549.15 250.06 551.39 250.06C552.622 250.06 553.77 249.892 554.834 249.556C555.926 249.192 556.962 248.604 557.942 247.792L559.328 250.69C558.348 251.558 557.158 252.23 555.758 252.706C554.358 253.154 552.874 253.378 551.306 253.378ZM572.554 253.378C570.678 253.378 569.04 252.944 567.64 252.076C566.24 251.208 565.148 249.948 564.364 248.296C563.608 246.644 563.23 244.684 563.23 242.416C563.23 240.12 563.608 238.16 564.364 236.536C565.148 234.912 566.24 233.666 567.64 232.798C569.04 231.902 570.678 231.454 572.554 231.454C574.402 231.454 576.012 231.916 577.384 232.84C578.756 233.764 579.666 235.024 580.114 236.62H579.652L580.072 231.832H584.188C584.104 232.7 584.02 233.568 583.936 234.436C583.88 235.276 583.852 236.102 583.852 236.914V253H579.61V248.296H580.072C579.624 249.864 578.7 251.11 577.3 252.034C575.928 252.93 574.346 253.378 572.554 253.378ZM573.604 250.06C575.424 250.06 576.88 249.416 577.972 248.128C579.092 246.84 579.652 244.936 579.652 242.416C579.652 239.896 579.092 238.006 577.972 236.746C576.88 235.458 575.424 234.814 573.604 234.814C571.756 234.814 570.272 235.458 569.152 236.746C568.06 238.006 567.514 239.896 567.514 242.416C567.514 244.936 568.06 246.84 569.152 248.128C570.244 249.416 571.728 250.06 573.604 250.06ZM598.274 253.378C595.978 253.378 594.242 252.762 593.066 251.53C591.89 250.27 591.302 248.394 591.302 245.902V235.108H587.186V231.832H591.302V226.246L595.544 225.112V231.832H601.424V235.108H595.544V245.524C595.544 247.092 595.824 248.212 596.384 248.884C596.944 249.556 597.756 249.892 598.82 249.892C599.352 249.892 599.814 249.85 600.206 249.766C600.626 249.654 601.004 249.528 601.34 249.388V252.832C600.92 253 600.43 253.126 599.87 253.21C599.31 253.322 598.778 253.378 598.274 253.378ZM605.299 253V231.832H609.541V253H605.299ZM604.963 227.422V223.012H609.877V227.422H604.963ZM615.758 253V236.914C615.758 236.102 615.716 235.276 615.632 234.436C615.576 233.568 615.506 232.7 615.422 231.832H619.538L619.916 236.284H619.412C620.056 234.716 621.05 233.526 622.394 232.714C623.738 231.874 625.292 231.454 627.056 231.454C629.548 231.454 631.424 232.14 632.684 233.512C633.972 234.884 634.616 237.012 634.616 239.896V253H630.374V240.148C630.374 238.272 629.996 236.928 629.24 236.116C628.512 235.276 627.392 234.856 625.88 234.856C624.088 234.856 622.66 235.416 621.596 236.536C620.532 237.628 620 239.112 620 240.988V253H615.758ZM650.189 262.408C648.285 262.408 646.549 262.184 644.981 261.736C643.441 261.288 642.055 260.616 640.823 259.72L641.873 256.612C642.741 257.2 643.595 257.662 644.435 257.998C645.275 258.362 646.157 258.628 647.081 258.796C648.005 258.964 648.957 259.048 649.937 259.048C651.953 259.048 653.465 258.53 654.473 257.494C655.509 256.486 656.027 255.016 656.027 253.084V247.414H656.447C655.999 248.982 655.075 250.228 653.675 251.152C652.303 252.048 650.707 252.496 648.887 252.496C646.955 252.496 645.275 252.076 643.847 251.236C642.447 250.368 641.355 249.15 640.571 247.582C639.815 245.986 639.437 244.11 639.437 241.954C639.437 239.798 639.815 237.936 640.571 236.368C641.355 234.8 642.447 233.596 643.847 232.756C645.275 231.888 646.955 231.454 648.887 231.454C650.735 231.454 652.331 231.916 653.675 232.84C655.047 233.736 655.957 234.968 656.405 236.536L656.027 236.2L656.405 231.832H660.521C660.409 232.7 660.325 233.568 660.269 234.436C660.213 235.276 660.185 236.102 660.185 236.914V252.58C660.185 255.772 659.331 258.208 657.623 259.888C655.943 261.568 653.465 262.408 650.189 262.408ZM649.895 249.178C651.743 249.178 653.213 248.548 654.305 247.288C655.425 246.028 655.985 244.25 655.985 241.954C655.985 239.658 655.425 237.894 654.305 236.662C653.213 235.43 651.743 234.814 649.895 234.814C647.991 234.814 646.479 235.43 645.359 236.662C644.267 237.894 643.721 239.658 643.721 241.954C643.721 244.25 644.267 246.028 645.359 247.288C646.479 248.548 647.991 249.178 649.895 249.178ZM686.641 253.378C684.541 253.378 682.721 252.944 681.181 252.076C679.641 251.18 678.451 249.92 677.611 248.296C676.771 246.644 676.351 244.684 676.351 242.416C676.351 240.148 676.771 238.202 677.611 236.578C678.451 234.926 679.641 233.666 681.181 232.798C682.721 231.902 684.541 231.454 686.641 231.454C688.741 231.454 690.561 231.902 692.101 232.798C693.669 233.666 694.873 234.926 695.713 236.578C696.581 238.202 697.015 240.148 697.015 242.416C697.015 244.684 696.581 246.644 695.713 248.296C694.873 249.92 693.669 251.18 692.101 252.076C690.561 252.944 688.741 253.378 686.641 253.378ZM686.641 250.06C688.489 250.06 689.959 249.416 691.051 248.128C692.143 246.84 692.689 244.936 692.689 242.416C692.689 239.896 692.143 238.006 691.051 236.746C689.959 235.458 688.489 234.814 686.641 234.814C684.821 234.814 683.365 235.458 682.273 236.746C681.181 238.006 680.635 239.896 680.635 242.416C680.635 244.936 681.167 246.84 682.231 248.128C683.323 249.416 684.793 250.06 686.641 250.06ZM701.973 253V236.914C701.973 236.102 701.931 235.276 701.847 234.436C701.791 233.568 701.721 232.7 701.637 231.832H705.753L706.131 236.284H705.627C706.271 234.716 707.265 233.526 708.609 232.714C709.953 231.874 711.507 231.454 713.271 231.454C715.763 231.454 717.639 232.14 718.899 233.512C720.187 234.884 720.831 237.012 720.831 239.896V253H716.589V240.148C716.589 238.272 716.211 236.928 715.455 236.116C714.727 235.276 713.607 234.856 712.095 234.856C710.303 234.856 708.875 235.416 707.811 236.536C706.747 237.628 706.215 239.112 706.215 240.988V253H701.973ZM736.656 253.378C733.24 253.378 730.552 252.412 728.592 250.48C726.632 248.548 725.652 245.874 725.652 242.458C725.652 240.246 726.072 238.314 726.912 236.662C727.78 235.01 728.97 233.736 730.482 232.84C732.022 231.916 733.8 231.454 735.816 231.454C737.804 231.454 739.47 231.874 740.814 232.714C742.158 233.554 743.18 234.744 743.88 236.284C744.58 237.796 744.93 239.588 744.93 241.66V243.004H728.97V240.568H742.032L741.318 241.114C741.318 239.014 740.842 237.39 739.89 236.242C738.966 235.066 737.622 234.478 735.858 234.478C733.898 234.478 732.386 235.164 731.322 236.536C730.258 237.88 729.726 239.742 729.726 242.122V242.542C729.726 245.034 730.328 246.91 731.532 248.17C732.764 249.43 734.5 250.06 736.74 250.06C737.972 250.06 739.12 249.892 740.184 249.556C741.276 249.192 742.312 248.604 743.292 247.792L744.678 250.69C743.698 251.558 742.508 252.23 741.108 252.706C739.708 253.154 738.224 253.378 736.656 253.378ZM749.167 253V248.002H754.165V253H749.167Z" fill="#323130"/>
<path d="M1059 30.75L1072.88 16.875L1059 3" stroke="#8A8886" stroke-width="4.11111" stroke-linecap="round" stroke-linejoin="round"/>
<path d="M695 201C777.5 51 866 7.49908 1070 17" stroke="#8A8886" stroke-width="3"/>
<defs>
<clipPath id="clip0_0_5">
<rect width="710" height="470.003" fill="white" transform="translate(25 330)"/>
</clipPath>
</defs>
</svg>
