<svg width="24" height="28" viewBox="0 0 24 28" fill="none" xmlns="http://www.w3.org/2000/svg">
<path d="M23.3571 5.00606C21.4148 4.49291 19.5173 3.82612 17.6829 3.01212C15.8781 2.23713 14.1359 1.32659 12.4714 0.288485L12 0L11.5371 0.29697C9.87271 1.33508 8.13048 2.24561 6.32571 3.02061C4.48825 3.83213 2.58784 4.49609 0.642857 5.00606L0 5.16727V12.2436C0 23.6048 11.5971 27.8558 11.7086 27.8982L12 28L12.2914 27.8982C12.4114 27.8982 24 23.6133 24 12.2436V5.16727L23.3571 5.00606ZM22.2857 12.2436C22.2857 21.577 13.7143 25.4885 12 26.1842C10.2857 25.4885 1.71429 21.5685 1.71429 12.2436V6.48242C3.5224 5.96787 5.29235 5.32998 7.01143 4.57333C8.73062 3.83769 10.3973 2.98725 12 2.02788C13.6027 2.98725 15.2694 3.83769 16.9886 4.57333C18.7076 5.32998 20.4776 5.96787 22.2857 6.48242V12.2436Z" fill="#212121"/>
<path d="M16.2855 12.0956H16.0712V10.1866C16.0712 9.11765 15.6423 8.09253 14.8787 7.3367C14.1152 6.58087 13.0796 6.15625 11.9998 6.15625C10.92 6.15625 9.8844 6.58087 9.12086 7.3367C8.35732 8.09253 7.92836 9.11765 7.92836 10.1866V12.0956H7.71408C7.08892 12.0956 6.48937 12.3415 6.04732 12.7791C5.60527 13.2166 5.35693 13.8101 5.35693 14.429V18.6714C5.35693 19.2902 5.60527 19.8837 6.04732 20.3213C6.48937 20.7589 7.08892 21.0047 7.71408 21.0047H16.2855C16.9107 21.0047 17.5102 20.7589 17.9523 20.3213C18.3943 19.8837 18.6426 19.2902 18.6426 18.6714V14.429C18.6426 13.8101 18.3943 13.2166 17.9523 12.7791C17.5102 12.3415 16.9107 12.0956 16.2855 12.0956ZM9.21408 10.1866C9.21408 9.4552 9.50757 8.7538 10.03 8.23665C10.5524 7.71951 11.261 7.42898 11.9998 7.42898C12.7386 7.42898 13.4472 7.71951 13.9696 8.23665C14.492 8.7538 14.7855 9.4552 14.7855 10.1866V12.0956H9.21408V10.1866ZM17.3569 18.6714C17.3569 18.9527 17.2441 19.2225 17.0431 19.4214C16.8422 19.6203 16.5697 19.732 16.2855 19.732H7.71408C7.42992 19.732 7.15739 19.6203 6.95646 19.4214C6.75553 19.2225 6.64265 18.9527 6.64265 18.6714V14.429C6.64265 14.1477 6.75553 13.8779 6.95646 13.679C7.15739 13.4801 7.42992 13.3684 7.71408 13.3684H16.2855C16.5697 13.3684 16.8422 13.4801 17.0431 13.679C17.2441 13.8779 17.3569 14.1477 17.3569 14.429V18.6714Z" fill="#212121"/>
</svg>
