<svg width="40" height="40" viewBox="0 0 40 40" fill="none" xmlns="http://www.w3.org/2000/svg">
<g opacity="0.6">
<path opacity="0.2" d="M24.984 26.2495L17.484 33.7491H10.4137L5.71681 29.0525C5.4846 28.8204 5.3004 28.5447 5.17473 28.2414C5.04906 27.9381 4.98438 27.613 4.98438 27.2846C4.98438 26.9563 5.04906 26.6312 5.17473 26.3278C5.3004 26.0245 5.4846 25.7489 5.71681 25.5167L14.984 16.25L24.984 26.2495Z" fill="#212121"/>
<path d="M35.1451 12.5588L28.6764 6.0904C27.9731 5.38722 27.0193 4.99219 26.0248 4.99219C25.0303 4.99219 24.0765 5.38722 23.3733 6.0904L4.83264 24.6301C4.12943 25.3333 3.73437 26.2871 3.73438 27.2815C3.73437 28.276 4.12943 29.2298 4.83264 29.933L9.52951 34.6296C9.64606 34.746 9.78446 34.8383 9.93677 34.901C10.0891 34.9637 10.2523 34.9958 10.417 34.9952H33.7389C34.0704 34.9952 34.3884 34.8635 34.6228 34.6291C34.8572 34.3947 34.9889 34.0768 34.9889 33.7453C34.9889 33.4138 34.8572 33.0959 34.6228 32.8614C34.3884 32.627 34.0704 32.4953 33.7389 32.4953H20.5045L35.1451 17.8617C35.8483 17.1585 36.2434 16.2047 36.2434 15.2103C36.2434 14.2158 35.8483 13.262 35.1451 12.5588ZM16.9701 32.4953H10.9342L6.60295 28.1643C6.36871 27.9299 6.23712 27.6121 6.23712 27.2808C6.23712 26.9494 6.36871 26.6316 6.60295 26.3972L14.9889 18.0132L23.2217 26.2457L16.9701 32.4953ZM33.3764 16.0899L24.9889 24.4786L16.7561 16.2461L25.1451 7.86218C25.2612 7.74597 25.3991 7.65377 25.5508 7.59087C25.7026 7.52797 25.8652 7.49559 26.0295 7.49559C26.1938 7.49559 26.3564 7.52797 26.5082 7.59087C26.6599 7.65377 26.7978 7.74597 26.9139 7.86218L33.3795 14.3275C33.6138 14.5619 33.7453 14.8797 33.7453 15.211C33.7453 15.5424 33.6138 15.8602 33.3795 16.0946L33.3764 16.0899Z" fill="#212121"/>
</g>
</svg>
