<svg width="24" height="24" viewBox="0 0 24 24" fill="none" xmlns="http://www.w3.org/2000/svg">
<path opacity="0.2" d="M14.9998 15.75L10.4998 20.25H6.25759L3.43946 17.4319C3.30014 17.2926 3.18962 17.1272 3.11421 16.9452C3.03881 16.7632 3 16.5681 3 16.3711C3 16.1741 3.03881 15.979 3.11421 15.797C3.18962 15.615 3.30014 15.4496 3.43946 15.3103L8.99977 9.75L14.9998 15.75Z" fill="black"/>
<path d="M21.0935 7.53728L17.2123 3.65603C16.7903 3.2341 16.2181 2.99707 15.6213 2.99707C15.0246 2.99707 14.4524 3.2341 14.0304 3.65603L2.90603 14.7804C2.4841 15.2024 2.24707 15.7746 2.24707 16.3713C2.24707 16.9681 2.4841 17.5403 2.90603 17.9623L5.72415 20.7804C5.79408 20.8503 5.87712 20.9056 5.96851 20.9432C6.05989 20.9809 6.15782 21.0001 6.25665 20.9998H20.2498C20.4487 20.9998 20.6395 20.9208 20.7801 20.7801C20.9208 20.6395 20.9998 20.4487 20.9998 20.2498C20.9998 20.0509 20.9208 19.8601 20.7801 19.7194C20.6395 19.5788 20.4487 19.4998 20.2498 19.4998H12.3092L21.0935 10.7192C21.5155 10.2972 21.7525 9.72493 21.7525 9.12822C21.7525 8.5315 21.5155 7.95923 21.0935 7.53728ZM10.1885 19.4998H6.56697L3.96821 16.901C3.82767 16.7604 3.74872 16.5697 3.74872 16.3709C3.74872 16.172 3.82767 15.9814 3.96821 15.8407L8.99978 10.8101L13.9395 15.7498L10.1885 19.4998ZM20.0323 9.65603L14.9998 14.6895L10.0601 9.74978L15.0935 4.71915C15.1632 4.64942 15.2459 4.5941 15.3369 4.55636C15.428 4.51861 15.5256 4.49919 15.6242 4.49919C15.7227 4.49919 15.8203 4.51861 15.9114 4.55636C16.0024 4.5941 16.0851 4.64942 16.1548 4.71915L20.0342 8.59853C20.1747 8.73917 20.2536 8.92986 20.2536 9.12868C20.2536 9.32751 20.1747 9.5182 20.0342 9.65884L20.0323 9.65603Z" fill="black"/>
</svg>