<svg width="17" height="16" viewBox="0 0 17 16" fill="none" xmlns="http://www.w3.org/2000/svg">
<path d="M0.847656 6.84176V6.01773C0.847656 5.15551 1.54662 4.45654 2.40884 4.45654H5.96033C6.82255 4.45654 7.52152 5.15551 7.52152 6.01773V10.7015C7.52152 11.5637 6.82255 12.2627 5.96033 12.2627H2.40884C1.54662 12.2627 0.847656 11.5637 0.847656 10.7015V9.87748" stroke="white" stroke-width="0.6" stroke-linecap="round"/>
<path d="M2.60156 6.4082H5.76286" stroke="white" stroke-width="0.6" stroke-linecap="round"/>
<path d="M2.60156 8.35938H5.76286" stroke="white" stroke-width="0.6" stroke-linecap="round"/>
<path d="M2.60156 10.311H4.35784" stroke="white" stroke-width="0.6" stroke-linecap="round"/>
<mask id="path-5-inside-1_850_47139" fill="white">
<ellipse cx="0.935163" cy="8.44075" rx="0.43907" ry="0.40657"/>
</mask>
<ellipse cx="0.935163" cy="8.44075" rx="0.43907" ry="0.40657" fill="white"/>
<path d="M0.774233 8.44075C0.774233 8.3717 0.805613 8.31796 0.837975 8.28799C0.869555 8.25875 0.905422 8.24732 0.935163 8.24732V9.44732C1.46474 9.44732 1.97423 9.03928 1.97423 8.44075H0.774233ZM0.935163 8.24732C0.964905 8.24732 1.00077 8.25875 1.03235 8.28799C1.06471 8.31796 1.09609 8.3717 1.09609 8.44075H-0.103906C-0.103906 9.03928 0.405584 9.44732 0.935163 9.44732V8.24732ZM1.09609 8.44075C1.09609 8.5098 1.06471 8.56354 1.03235 8.59351C1.00077 8.62275 0.964905 8.63418 0.935163 8.63418V7.43418C0.405584 7.43418 -0.103906 7.84222 -0.103906 8.44075H1.09609ZM0.935163 8.63418C0.905422 8.63418 0.869555 8.62275 0.837975 8.59351C0.805613 8.56354 0.774233 8.5098 0.774233 8.44075H1.97423C1.97423 7.84222 1.46474 7.43418 0.935163 7.43418V8.63418Z" fill="white" mask="url(#path-5-inside-1_850_47139)"/>
<mask id="path-7-inside-2_850_47139" fill="white">
<path d="M15.8265 8.16054V7.77556L16.3227 7.35283C16.4141 7.27434 16.4742 7.16689 16.4921 7.04947C16.5101 6.93206 16.4849 6.81224 16.4209 6.71119L15.811 5.70469C15.7657 5.62826 15.7005 5.56478 15.6221 5.52062C15.5436 5.47645 15.4546 5.45316 15.3639 5.45307C15.3078 5.45265 15.2519 5.46115 15.1985 5.47823L14.5706 5.68456C14.4622 5.61441 14.3491 5.55137 14.232 5.49584L14.1003 4.86175C14.0766 4.7459 14.0119 4.64184 13.9174 4.56778C13.8229 4.49372 13.7047 4.45437 13.5834 4.45664H12.374C12.2527 4.45437 12.1345 4.49372 12.04 4.56778C11.9455 4.64184 11.8808 4.7459 11.8572 4.86175L11.7254 5.49584C11.6075 5.55135 11.4935 5.6144 11.3842 5.68456L10.7692 5.46817C10.7153 5.45448 10.6594 5.44938 10.6038 5.45307C10.5132 5.45316 10.4242 5.47645 10.3457 5.52062C10.2672 5.56478 10.2021 5.62826 10.1567 5.70469L9.54687 6.71119C9.48655 6.81209 9.46413 6.93027 9.48346 7.04549C9.50279 7.16071 9.56266 7.2658 9.65282 7.34277L10.1412 7.77808V8.16306L9.65282 8.58579C9.56012 8.66329 9.49861 8.77026 9.47921 8.88772C9.45981 9.00519 9.48378 9.12554 9.54687 9.22743L10.1567 10.2339C10.2021 10.3104 10.2672 10.3738 10.3457 10.418C10.4242 10.4622 10.5132 10.4855 10.6038 10.4856C10.66 10.486 10.7158 10.4775 10.7692 10.4604L11.3972 10.2541C11.5056 10.3242 11.6187 10.3873 11.7357 10.4428L11.8675 11.0769C11.8911 11.1927 11.9558 11.2968 12.0503 11.3708C12.1448 11.4449 12.2631 11.4842 12.3843 11.482H13.6041C13.7254 11.4842 13.8436 11.4449 13.9381 11.3708C14.0326 11.2968 14.0973 11.1927 14.1209 11.0769L14.2527 10.4428C14.3706 10.3873 14.4845 10.3242 14.5938 10.2541L15.2192 10.4604C15.2726 10.4775 15.3284 10.486 15.3846 10.4856C15.4752 10.4855 15.5643 10.4622 15.6427 10.418C15.7212 10.3738 15.7864 10.3104 15.8317 10.2339L16.4209 9.22743C16.4812 9.12653 16.5036 9.00835 16.4843 8.89313C16.4649 8.77791 16.4051 8.67282 16.3149 8.59585L15.8265 8.16054ZM15.3639 9.9823L14.4775 9.69042C14.2701 9.86155 14.0329 9.99532 13.7772 10.0855L13.5937 10.9888H12.374L12.1905 10.0955C11.9369 10.0028 11.701 9.86929 11.4928 9.70048L10.6038 9.9823L9.99394 8.97581L10.6968 8.37191C10.6491 8.11144 10.6491 7.84479 10.6968 7.58432L9.99394 6.96281L10.6038 5.95632L11.4902 6.2482C11.6977 6.07707 11.9348 5.9433 12.1905 5.85315L12.374 4.94982H13.5937L13.7772 5.84309C14.0309 5.93579 14.2667 6.06933 14.475 6.23814L15.3639 5.95632L15.9738 6.96281L15.2709 7.56671C15.3187 7.82718 15.3187 8.09383 15.2709 8.3543L15.9738 8.97581L15.3639 9.9823Z"/>
</mask>
<path d="M15.8265 8.16054V7.77556L16.3227 7.35283C16.4141 7.27434 16.4742 7.16689 16.4921 7.04947C16.5101 6.93206 16.4849 6.81224 16.4209 6.71119L15.811 5.70469C15.7657 5.62826 15.7005 5.56478 15.6221 5.52062C15.5436 5.47645 15.4546 5.45316 15.3639 5.45307C15.3078 5.45265 15.2519 5.46115 15.1985 5.47823L14.5706 5.68456C14.4622 5.61441 14.3491 5.55137 14.232 5.49584L14.1003 4.86175C14.0766 4.7459 14.0119 4.64184 13.9174 4.56778C13.8229 4.49372 13.7047 4.45437 13.5834 4.45664H12.374C12.2527 4.45437 12.1345 4.49372 12.04 4.56778C11.9455 4.64184 11.8808 4.7459 11.8572 4.86175L11.7254 5.49584C11.6075 5.55135 11.4935 5.6144 11.3842 5.68456L10.7692 5.46817C10.7153 5.45448 10.6594 5.44938 10.6038 5.45307C10.5132 5.45316 10.4242 5.47645 10.3457 5.52062C10.2672 5.56478 10.2021 5.62826 10.1567 5.70469L9.54687 6.71119C9.48655 6.81209 9.46413 6.93027 9.48346 7.04549C9.50279 7.16071 9.56266 7.2658 9.65282 7.34277L10.1412 7.77808V8.16306L9.65282 8.58579C9.56012 8.66329 9.49861 8.77026 9.47921 8.88772C9.45981 9.00519 9.48378 9.12554 9.54687 9.22743L10.1567 10.2339C10.2021 10.3104 10.2672 10.3738 10.3457 10.418C10.4242 10.4622 10.5132 10.4855 10.6038 10.4856C10.66 10.486 10.7158 10.4775 10.7692 10.4604L11.3972 10.2541C11.5056 10.3242 11.6187 10.3873 11.7357 10.4428L11.8675 11.0769C11.8911 11.1927 11.9558 11.2968 12.0503 11.3708C12.1448 11.4449 12.2631 11.4842 12.3843 11.482H13.6041C13.7254 11.4842 13.8436 11.4449 13.9381 11.3708C14.0326 11.2968 14.0973 11.1927 14.1209 11.0769L14.2527 10.4428C14.3706 10.3873 14.4845 10.3242 14.5938 10.2541L15.2192 10.4604C15.2726 10.4775 15.3284 10.486 15.3846 10.4856C15.4752 10.4855 15.5643 10.4622 15.6427 10.418C15.7212 10.3738 15.7864 10.3104 15.8317 10.2339L16.4209 9.22743C16.4812 9.12653 16.5036 9.00835 16.4843 8.89313C16.4649 8.77791 16.4051 8.67282 16.3149 8.59585L15.8265 8.16054ZM15.3639 9.9823L14.4775 9.69042C14.2701 9.86155 14.0329 9.99532 13.7772 10.0855L13.5937 10.9888H12.374L12.1905 10.0955C11.9369 10.0028 11.701 9.86929 11.4928 9.70048L10.6038 9.9823L9.99394 8.97581L10.6968 8.37191C10.6491 8.11144 10.6491 7.84479 10.6968 7.58432L9.99394 6.96281L10.6038 5.95632L11.4902 6.2482C11.6977 6.07707 11.9348 5.9433 12.1905 5.85315L12.374 4.94982H13.5937L13.7772 5.84309C14.0309 5.93579 14.2667 6.06933 14.475 6.23814L15.3639 5.95632L15.9738 6.96281L15.2709 7.56671C15.3187 7.82718 15.3187 8.09383 15.2709 8.3543L15.9738 8.97581L15.3639 9.9823Z" fill="white"/>
<path d="M15.8265 8.16054H15.0765V8.49675L15.3275 8.72044L15.8265 8.16054ZM15.8265 7.77556L15.3401 7.20466L15.0765 7.42925V7.77556H15.8265ZM16.3227 7.35283L16.8091 7.92373L16.8111 7.92197L16.3227 7.35283ZM16.4209 6.71119L15.7794 7.09986L15.7833 7.10617L15.7872 7.11241L16.4209 6.71119ZM15.811 5.70469L15.1659 6.08723L15.1696 6.09336L15.811 5.70469ZM15.3639 5.45307L15.3583 6.20306L15.3632 6.20307L15.3639 5.45307ZM15.1985 5.47823L14.9699 4.76392L14.9644 4.76571L15.1985 5.47823ZM14.5706 5.68456L14.1631 6.31424L14.4641 6.50899L14.8047 6.39709L14.5706 5.68456ZM14.232 5.49584L13.4977 5.64847L13.5736 6.01359L13.9105 6.17344L14.232 5.49584ZM14.1003 4.86175L13.3654 5.01166L13.3659 5.01437L14.1003 4.86175ZM13.5834 4.45664V5.20677L13.5974 5.2065L13.5834 4.45664ZM12.374 4.45664L12.36 5.20664H12.374V4.45664ZM11.8572 4.86175L12.5915 5.01438L12.592 5.01165L11.8572 4.86175ZM11.7254 5.49584L12.0449 6.17436L12.3835 6.01489L12.4597 5.64847L11.7254 5.49584ZM11.3842 5.68456L11.1353 6.39205L11.481 6.51368L11.7894 6.31571L11.3842 5.68456ZM10.7692 5.46817L11.0181 4.76068L10.9863 4.74949L10.9536 4.74119L10.7692 5.46817ZM10.6038 5.45307L10.6046 6.20307L10.629 6.20304L10.6534 6.20143L10.6038 5.45307ZM10.1567 5.70469L10.7982 6.09338L10.8019 6.08721L10.1567 5.70469ZM9.54687 6.71119L8.90542 6.32251L8.90313 6.32635L9.54687 6.71119ZM9.65282 7.34277L10.1518 6.78287L10.1459 6.77754L10.1398 6.77235L9.65282 7.34277ZM10.1412 7.77808H10.8912V7.44187L10.6403 7.21818L10.1412 7.77808ZM10.1412 8.16306L10.6321 8.73015L10.8912 8.50583V8.16306H10.1412ZM9.65282 8.58579L10.1339 9.16129L10.1436 9.15288L9.65282 8.58579ZM9.54687 9.22743L10.1883 8.83874L10.1845 8.83263L9.54687 9.22743ZM10.1567 10.2339L10.8019 9.85139L10.7982 9.84526L10.1567 10.2339ZM10.6038 10.4856L10.6094 9.73556L10.6046 9.73555L10.6038 10.4856ZM10.7692 10.4604L10.9979 11.1747L11.0033 11.1729L10.7692 10.4604ZM11.3972 10.2541L11.8046 9.62438L11.5036 9.42963L11.163 9.54153L11.3972 10.2541ZM11.7357 10.4428L12.47 10.2902L12.3941 9.92503L12.0572 9.76518L11.7357 10.4428ZM11.8675 11.0769L12.6024 10.927L12.6018 10.9242L11.8675 11.0769ZM12.3843 11.482V10.7319L12.3703 10.7321L12.3843 11.482ZM13.6041 11.482L13.6181 10.732H13.6041V11.482ZM14.1209 11.0769L13.3866 10.9242L13.3861 10.927L14.1209 11.0769ZM14.2527 10.4428L13.9332 9.76426L13.5946 9.92373L13.5184 10.2902L14.2527 10.4428ZM14.5938 10.2541L14.8288 9.54182L14.4894 9.42985L14.1887 9.62291L14.5938 10.2541ZM15.2192 10.4604L14.9842 11.1727L14.9905 11.1747L15.2192 10.4604ZM15.3846 10.4856L15.3839 9.73554L15.379 9.73557L15.3846 10.4856ZM15.8317 10.2339L16.4768 10.6165L16.4789 10.6128L15.8317 10.2339ZM16.4209 9.22743L15.7771 8.84258L15.7736 8.84853L16.4209 9.22743ZM16.3149 8.59585L15.8159 9.15575L15.8219 9.16108L15.828 9.16627L16.3149 8.59585ZM15.3639 9.9823L15.1293 10.6947L15.6961 10.8813L16.0054 10.371L15.3639 9.9823ZM14.4775 9.69042L14.7121 8.97805L14.3194 8.84871L14.0003 9.11182L14.4775 9.69042ZM13.7772 10.0855L13.5278 9.37814L13.1269 9.51952L13.0422 9.93618L13.7772 10.0855ZM13.5937 10.9888V11.7388H14.2067L14.3287 11.1381L13.5937 10.9888ZM12.374 10.9888L11.6393 11.1397L11.7624 11.7388H12.374V10.9888ZM12.1905 10.0955L12.9252 9.94463L12.841 9.53474L12.448 9.3911L12.1905 10.0955ZM11.4928 9.70048L11.9651 9.11789L11.6513 8.86346L11.2661 8.98555L11.4928 9.70048ZM10.6038 9.9823L9.96238 10.371L10.2681 10.8755L10.8305 10.6972L10.6038 9.9823ZM9.99394 8.97581L9.50519 8.40693L9.0232 8.82102L9.3525 9.36448L9.99394 8.97581ZM10.6968 8.37191L11.1856 8.94079L11.5122 8.66015L11.4345 8.23658L10.6968 8.37191ZM10.6968 7.58432L11.4345 7.71966L11.511 7.30304L11.1936 7.02246L10.6968 7.58432ZM9.99394 6.96281L9.3525 6.57414L9.02793 7.1098L9.49713 7.52468L9.99394 6.96281ZM10.6038 5.95632L10.8384 5.24395L10.2716 5.05731L9.96238 5.56765L10.6038 5.95632ZM11.4902 6.2482L11.2556 6.96057L11.6484 7.08991L11.9674 6.8268L11.4902 6.2482ZM12.1905 5.85315L12.4399 6.56048L12.8409 6.4191L12.9255 6.00244L12.1905 5.85315ZM12.374 4.94982V4.19982H11.761L11.639 4.80053L12.374 4.94982ZM13.5937 4.94982L14.3284 4.79892L14.2054 4.19982H13.5937V4.94982ZM13.7772 5.84309L13.0426 5.99399L13.1268 6.40388L13.5198 6.54752L13.7772 5.84309ZM14.475 6.23814L14.0026 6.82073L14.3165 7.07516L14.7016 6.95307L14.475 6.23814ZM15.3639 5.95632L16.0054 5.56765L15.6996 5.0631L15.1373 5.24138L15.3639 5.95632ZM15.9738 6.96281L16.4626 7.53169L16.9445 7.1176L16.6152 6.57414L15.9738 6.96281ZM15.2709 7.56671L14.7821 6.99783L14.4555 7.27847L14.5332 7.70204L15.2709 7.56671ZM15.2709 8.3543L14.5332 8.21897L14.4568 8.63558L14.7741 8.91616L15.2709 8.3543ZM15.9738 8.97581L16.6152 9.36448L16.9398 8.82882L16.4706 8.41394L15.9738 8.97581ZM16.5765 8.16054V7.77556H15.0765V8.16054H16.5765ZM16.3129 8.34645L16.8091 7.92373L15.8363 6.78194L15.3401 7.20466L16.3129 8.34645ZM16.8111 7.92197C17.0365 7.72858 17.188 7.46043 17.2335 7.16294L15.7508 6.93601C15.7603 6.87334 15.7918 6.82009 15.8342 6.78369L16.8111 7.92197ZM17.2335 7.16294C17.2791 6.86522 17.2146 6.56279 17.0545 6.30996L15.7872 7.11241C15.7551 7.06169 15.7411 6.99889 15.7508 6.93601L17.2335 7.16294ZM17.0623 6.32252L16.4524 5.31602L15.1696 6.09336L15.7794 7.09986L17.0623 6.32252ZM16.4561 5.32217C16.3428 5.13106 16.1814 4.97478 15.9899 4.86703L15.2542 6.17421C15.2197 6.15479 15.1886 6.12546 15.1659 6.08721L16.4561 5.32217ZM15.9899 4.86703C15.7986 4.75935 15.583 4.70329 15.3647 4.70307L15.3632 6.20307C15.3261 6.20303 15.2886 6.19356 15.2542 6.17421L15.9899 4.86703ZM15.3695 4.70309C15.2341 4.70208 15.0991 4.72256 14.9699 4.76394L15.4272 6.19252C15.4047 6.19973 15.3815 6.20322 15.3583 6.20305L15.3695 4.70309ZM14.9644 4.76571L14.3365 4.97204L14.8047 6.39709L15.4327 6.19075L14.9644 4.76571ZM14.978 5.05488C14.8419 4.96684 14.7001 4.8878 14.5535 4.81824L13.9105 6.17344C13.998 6.21493 14.0824 6.26198 14.1631 6.31424L14.978 5.05488ZM14.9664 5.34322L14.8346 4.70913L13.3659 5.01437L13.4977 5.64847L14.9664 5.34322ZM14.8351 4.71185C14.7753 4.41863 14.6123 4.15954 14.3801 3.9775L13.4547 5.15806C13.4115 5.12414 13.3779 5.07318 13.3654 5.01165L14.8351 4.71185ZM14.3801 3.9775C14.1483 3.79579 13.8613 3.70132 13.5694 3.70677L13.5974 5.2065C13.5481 5.20742 13.4976 5.19164 13.4547 5.15806L14.3801 3.9775ZM13.5834 3.70664H12.374V5.20664H13.5834V3.70664ZM12.388 3.70677C12.0961 3.70132 11.8091 3.79579 11.5773 3.9775L12.5027 5.15806C12.4598 5.19164 12.4093 5.20742 12.36 5.2065L12.388 3.70677ZM11.5773 3.9775C11.3451 4.15954 11.1821 4.41863 11.1223 4.71185L12.592 5.01165C12.5795 5.07318 12.5459 5.12415 12.5027 5.15806L11.5773 3.9775ZM11.1228 4.70913L10.9911 5.34322L12.4597 5.64847L12.5915 5.01437L11.1228 4.70913ZM11.4058 4.81733C11.2585 4.88671 11.1159 4.96556 10.9791 5.05341L11.7894 6.31571C11.8712 6.26323 11.9565 6.216 12.0449 6.17436L11.4058 4.81733ZM11.6332 4.97708L11.0181 4.76068L10.5203 6.17565L11.1353 6.39205L11.6332 4.97708ZM10.9536 4.74119C10.8232 4.7081 10.6884 4.69582 10.5542 4.70471L10.6534 6.20143C10.6305 6.20295 10.6073 6.20086 10.5848 6.19514L10.9536 4.74119ZM10.6031 4.70307C10.3847 4.70329 10.1691 4.75935 9.97783 4.86703L10.7135 6.17421C10.6792 6.19356 10.6417 6.20303 10.6046 6.20307L10.6031 4.70307ZM9.97783 4.86703C9.78639 4.97478 9.62494 5.13106 9.51162 5.32217L10.8019 6.08721C10.7792 6.12546 10.7481 6.15479 10.7135 6.17421L9.97783 4.86703ZM9.51531 5.31602L8.90543 6.32252L10.1883 7.09986L10.7982 6.09336L9.51531 5.31602ZM8.90313 6.32635C8.75204 6.57908 8.6948 6.87751 8.7438 7.16957L10.2231 6.9214C10.2335 6.98302 10.2211 7.04509 10.1906 7.09603L8.90313 6.32635ZM8.7438 7.16957C8.79276 7.46141 8.94378 7.7236 9.16587 7.91318L10.1398 6.77235C10.1815 6.808 10.2128 6.86 10.2231 6.9214L8.7438 7.16957ZM9.1538 7.90266L9.64222 8.33797L10.6403 7.21818L10.1518 6.78287L9.1538 7.90266ZM9.39124 7.77808V8.16306H10.8912V7.77808H9.39124ZM9.65041 7.59597L9.162 8.0187L10.1436 9.15288L10.6321 8.73015L9.65041 7.59597ZM9.17178 8.01038C8.94354 8.20118 8.78837 8.46798 8.73923 8.76553L10.2192 9.00992C10.2088 9.07254 10.1767 9.12539 10.1339 9.1612L9.17178 8.01038ZM8.73923 8.76553C8.69006 9.06332 8.75128 9.36718 8.90919 9.62223L10.1845 8.83263C10.2163 8.8839 10.2296 8.94705 10.2192 9.00992L8.73923 8.76553ZM8.90543 9.6161L9.51531 10.6226L10.7982 9.84526L10.1883 8.83876L8.90543 9.6161ZM9.51162 10.6164C9.62494 10.8076 9.78639 10.9638 9.97783 11.0716L10.7135 9.76441C10.7481 9.78383 10.7792 9.81316 10.8019 9.85141L9.51162 10.6164ZM9.97783 11.0716C10.1691 11.1793 10.3847 11.2353 10.6031 11.2356L10.6046 9.73555C10.6417 9.73559 10.6792 9.74506 10.7135 9.76441L9.97783 11.0716ZM10.5982 11.2355C10.7337 11.2365 10.8686 11.2161 10.9979 11.1747L10.5405 9.7461C10.5631 9.73888 10.5863 9.7354 10.6094 9.73557L10.5982 11.2355ZM11.0033 11.1729L11.6313 10.9666L11.163 9.54153L10.5351 9.74787L11.0033 11.1729ZM10.9897 10.8837C11.1258 10.9718 11.2676 11.0508 11.4142 11.1204L12.0572 9.76518C11.9697 9.72369 11.8854 9.67664 11.8046 9.62438L10.9897 10.8837ZM11.0014 10.5954L11.1332 11.2295L12.6018 10.9242L12.47 10.2902L11.0014 10.5954ZM11.1326 11.2268C11.1924 11.52 11.3554 11.7791 11.5877 11.9611L12.513 10.7806C12.5563 10.8145 12.5898 10.8654 12.6024 10.927L11.1326 11.2268ZM11.5877 11.9611C11.8195 12.1428 12.1065 12.2373 12.3983 12.2319L12.3703 10.7321C12.4196 10.7312 12.4702 10.747 12.513 10.7806L11.5877 11.9611ZM12.3843 12.232H13.6041V10.732H12.3843V12.232ZM13.5901 12.2319C13.8819 12.2373 14.1689 12.1428 14.4008 11.9611L13.4754 10.7806C13.5182 10.747 13.5688 10.7312 13.6181 10.7321L13.5901 12.2319ZM14.4008 11.9611C14.633 11.7791 14.796 11.52 14.8558 11.2268L13.3861 10.927C13.3986 10.8654 13.4321 10.8145 13.4754 10.7806L14.4008 11.9611ZM14.8552 11.2295L14.987 10.5954L13.5184 10.2902L13.3866 10.9242L14.8552 11.2295ZM14.5723 11.1213C14.7196 11.0519 14.8621 10.9731 14.999 10.8852L14.1887 9.62291C14.1069 9.67539 14.0216 9.72262 13.9332 9.76426L14.5723 11.1213ZM14.3588 10.9663L14.9842 11.1726L15.4542 9.74815L14.8288 9.54182L14.3588 10.9663ZM14.9905 11.1747C15.1198 11.2161 15.2547 11.2365 15.3902 11.2355L15.379 9.73557C15.4021 9.7354 15.4253 9.73888 15.4479 9.7461L14.9905 11.1747ZM15.3854 11.2356C15.6037 11.2353 15.8193 11.1793 16.0106 11.0716L15.2749 9.76441C15.3092 9.74506 15.3468 9.73559 15.3839 9.73555L15.3854 11.2356ZM16.0106 11.0716C16.202 10.9638 16.3635 10.8076 16.4768 10.6164L15.1866 9.85141C15.2092 9.81316 15.2404 9.78383 15.2749 9.76441L16.0106 11.0716ZM16.4789 10.6128L17.0681 9.60633L15.7736 8.84853L15.1844 9.85503L16.4789 10.6128ZM17.0646 9.61227C17.2157 9.35954 17.2729 9.06111 17.2239 8.76905L15.7446 9.01722C15.7343 8.9556 15.7467 8.89352 15.7771 8.84259L17.0646 9.61227ZM17.2239 8.76905C17.175 8.47721 17.024 8.21502 16.8019 8.02544L15.828 9.16627C15.7862 9.13062 15.7549 9.07862 15.7446 9.01722L17.2239 8.76905ZM16.8139 8.03596L16.3255 7.60065L15.3275 8.72044L15.8159 9.15575L16.8139 8.03596ZM15.5985 9.26993L14.7121 8.97805L14.243 10.4028L15.1293 10.6947L15.5985 9.26993ZM14.0003 9.11182C13.8612 9.22657 13.7013 9.31699 13.5278 9.37814L14.0266 10.7928C14.3645 10.6737 14.6789 10.4965 14.9547 10.269L14.0003 9.11182ZM13.0422 9.93618L12.8588 10.8395L14.3287 11.1381L14.5122 10.2348L13.0422 9.93618ZM13.5937 10.2388H12.374V11.7388H13.5937V10.2388ZM13.1087 10.8379L12.9252 9.94463L11.4559 10.2464L11.6393 11.1397L13.1087 10.8379ZM12.448 9.3911C12.2716 9.32664 12.1084 9.23409 11.9651 9.11789L11.0205 10.2831C11.2936 10.5045 11.6021 10.679 11.9331 10.8L12.448 9.3911ZM11.2661 8.98555L10.3772 9.26737L10.8305 10.6972L11.7194 10.4154L11.2661 8.98555ZM11.2452 9.59364L10.6354 8.58714L9.3525 9.36448L9.96238 10.371L11.2452 9.59364ZM10.4827 9.54469L11.1856 8.94079L10.2081 7.80303L9.50519 8.40693L10.4827 9.54469ZM11.4345 8.23658C11.4032 8.06559 11.4032 7.89065 11.4345 7.71966L9.95915 7.44899C9.89495 7.79893 9.89495 8.1573 9.95915 8.50724L11.4345 8.23658ZM11.1936 7.02246L10.4907 6.40095L9.49713 7.52468L10.2 8.14619L11.1936 7.02246ZM10.6354 7.35148L11.2452 6.34498L9.96238 5.56765L9.3525 6.57414L10.6354 7.35148ZM10.3692 6.66869L11.2556 6.96057L11.7248 5.53583L10.8384 5.24395L10.3692 6.66869ZM11.9674 6.8268C12.1065 6.71205 12.2664 6.62163 12.4399 6.56048L11.9411 5.14582C11.6032 5.26496 11.2889 5.44209 11.013 5.6696L11.9674 6.8268ZM12.9255 6.00244L13.109 5.09911L11.639 4.80053L11.4555 5.70386L12.9255 6.00244ZM12.374 5.69982H13.5937V4.19982H12.374V5.69982ZM12.8591 5.10072L13.0426 5.99399L14.5119 5.69218L14.3284 4.79892L12.8591 5.10072ZM13.5198 6.54752C13.6962 6.61198 13.8593 6.70453 14.0026 6.82073L14.9473 5.65554C14.6742 5.43413 14.3656 5.2596 14.0347 5.13865L13.5198 6.54752ZM14.7016 6.95307L15.5906 6.67125L15.1373 5.24138L14.2483 5.5232L14.7016 6.95307ZM14.7225 6.34498L15.3324 7.35148L16.6152 6.57414L16.0054 5.56765L14.7225 6.34498ZM15.4851 6.39393L14.7821 6.99783L15.7596 8.13559L16.4626 7.53169L15.4851 6.39393ZM14.5332 7.70204C14.5646 7.87303 14.5646 8.04797 14.5332 8.21897L16.0086 8.48963C16.0728 8.13969 16.0728 7.78132 16.0086 7.43138L14.5332 7.70204ZM14.7741 8.91616L15.477 9.53767L16.4706 8.41394L15.7677 7.79243L14.7741 8.91616ZM15.3324 8.58714L14.7225 9.59364L16.0054 10.371L16.6152 9.36448L15.3324 8.58714Z" fill="white" mask="url(#path-7-inside-2_850_47139)"/>
<path d="M14.4891 7.96927C14.4891 8.80124 13.8147 9.47566 12.9828 9.47566C12.151 9.47566 11.4766 8.80124 11.4766 7.96927C11.4766 7.13731 12.151 6.46289 12.9828 6.46289C13.8147 6.46289 14.4891 7.13731 14.4891 7.96927Z" stroke="white" stroke-width="0.5"/>
<path d="M12.6992 3.4585L14.4318 2.69064" stroke="white" stroke-width="0.6" stroke-linecap="round"/>
<path d="M13.9258 1.14453L14.4295 2.69071" stroke="white" stroke-width="0.6" stroke-linecap="round"/>
<path d="M1.79416 2.18061C1.66364 2.28267 1.64057 2.47121 1.74263 2.60173C1.84469 2.73225 2.03323 2.75532 2.16375 2.65326L1.79416 2.18061ZM2.16375 2.65326C3.68871 1.46082 6.15911 1.06622 8.56584 1.2329C9.7613 1.31569 10.9232 1.53603 11.9181 1.85414C12.9179 2.17384 13.7273 2.58539 14.2363 3.03728L14.6347 2.58859C14.038 2.05885 13.1403 1.61505 12.1008 1.28265C11.0563 0.948672 9.84666 0.720165 8.60729 0.634334C6.14438 0.463766 3.49223 0.8528 1.79416 2.18061L2.16375 2.65326Z" fill="white"/>
<path d="M12.75 12.6367L14.4548 13.4646" stroke="white" stroke-width="0.6" stroke-linecap="round"/>
<path d="M13.8945 14.9922L14.4519 13.4645" stroke="white" stroke-width="0.6" stroke-linecap="round"/>
<path d="M2.30705 14.0038C2.18018 13.8973 2.16372 13.708 2.27028 13.5811C2.37684 13.4543 2.56608 13.4378 2.69295 13.5444L2.30705 14.0038ZM2.69295 13.5444C4.17 14.785 6.4937 15.1515 8.77582 14.953C11.0574 14.7546 13.197 14 14.2715 13.111L14.654 13.5733C13.45 14.5694 11.1747 15.3466 8.82781 15.5508C6.48147 15.7548 3.96311 15.3948 2.30705 14.0038L2.69295 13.5444Z" fill="white"/>
</svg>
