<svg width="32" height="32" viewBox="0 0 32 32" fill="none" xmlns="http://www.w3.org/2000/svg">
<rect width="32" height="32" rx="8" fill="#C3C2FF"/>
<mask id="path-2-inside-1_17_7547" fill="white">
<path d="M16.269 20.7661C16.9153 20.7598 17.554 20.6262 18.1486 20.373C18.7433 20.1198 19.2823 19.752 19.7348 19.2905C20.1873 18.829 20.5445 18.2829 20.7859 17.6834C21.0274 17.0839 21.1484 16.4427 21.1421 15.7964C21.1357 15.1501 21.0021 14.5114 20.749 13.9167C20.4958 13.3221 20.1279 12.7831 19.6665 12.3306C19.205 11.8781 18.6589 11.5209 18.0594 11.2794C17.4598 11.038 16.8186 10.917 16.1723 10.9233L16.1784 11.5435C16.7433 11.5379 17.3037 11.6437 17.8277 11.8547C18.3516 12.0657 18.8289 12.3779 19.2323 12.7734C19.6356 13.1689 19.9571 13.64 20.1783 14.1597C20.3996 14.6794 20.5164 15.2376 20.5219 15.8025C20.5275 16.3673 20.4217 16.9277 20.2107 17.4517C19.9996 17.9757 19.6875 18.453 19.292 18.8563C18.8965 19.2596 18.4254 19.5811 17.9057 19.8024C17.386 20.0237 16.8277 20.1404 16.2629 20.146L16.269 20.7661Z"/>
</mask>
<path d="M16.269 20.7661C16.9153 20.7598 17.554 20.6262 18.1486 20.373C18.7433 20.1198 19.2823 19.752 19.7348 19.2905C20.1873 18.829 20.5445 18.2829 20.7859 17.6834C21.0274 17.0839 21.1484 16.4427 21.1421 15.7964C21.1357 15.1501 21.0021 14.5114 20.749 13.9167C20.4958 13.3221 20.1279 12.7831 19.6665 12.3306C19.205 11.8781 18.6589 11.5209 18.0594 11.2794C17.4598 11.038 16.8186 10.917 16.1723 10.9233L16.1784 11.5435C16.7433 11.5379 17.3037 11.6437 17.8277 11.8547C18.3516 12.0657 18.8289 12.3779 19.2323 12.7734C19.6356 13.1689 19.9571 13.64 20.1783 14.1597C20.3996 14.6794 20.5164 15.2376 20.5219 15.8025C20.5275 16.3673 20.4217 16.9277 20.2107 17.4517C19.9996 17.9757 19.6875 18.453 19.292 18.8563C18.8965 19.2596 18.4254 19.5811 17.9057 19.8024C17.386 20.0237 16.8277 20.1404 16.2629 20.146L16.269 20.7661Z" stroke="#212121" stroke-width="1.24138" mask="url(#path-2-inside-1_17_7547)"/>
<circle cx="16.2207" cy="15.8447" r="4.61129" transform="rotate(89.4375 16.2207 15.8447)" stroke="#212121" stroke-width="0.62069" stroke-dasharray="0.83 0.83"/>
<path d="M23.8188 16.542V15.4536L25.1846 14.2585C25.4364 14.0366 25.6016 13.7328 25.6511 13.4009C25.7005 13.0689 25.6311 12.7302 25.4549 12.4445L23.7761 9.59899C23.6514 9.38292 23.472 9.20345 23.256 9.07859C23.04 8.95373 22.7949 8.88787 22.5454 8.88761C22.3908 8.88643 22.237 8.91046 22.0901 8.95875L20.3615 9.54208C20.0631 9.34375 19.7517 9.16551 19.4296 9.00855L19.0668 7.21589C19.0018 6.88837 18.8236 6.59417 18.5635 6.38479C18.3034 6.1754 17.9779 6.06418 17.6441 6.07057H14.3148C13.981 6.06418 13.6555 6.1754 13.3954 6.38479C13.1353 6.59417 12.9571 6.88837 12.8921 7.21589L12.5293 9.00855C12.2049 9.16548 11.8912 9.34371 11.5903 9.54208L9.8972 8.9303C9.74874 8.89161 9.59499 8.8772 9.44193 8.88761C9.19243 8.88787 8.94739 8.95373 8.73138 9.07859C8.51537 9.20345 8.336 9.38292 8.21125 9.59899L6.53241 12.4445C6.36636 12.7297 6.30466 13.0638 6.35787 13.3896C6.41108 13.7153 6.57589 14.0124 6.82407 14.23L8.16857 15.4607V16.5491L6.82407 17.7442C6.56888 17.9633 6.39956 18.2657 6.34617 18.5978C6.29278 18.9299 6.35876 19.2702 6.53241 19.5582L8.21125 22.4037C8.336 22.6198 8.51537 22.7992 8.73138 22.9241C8.94739 23.049 9.19243 23.1148 9.44193 23.1151C9.59654 23.1163 9.75032 23.0922 9.8972 23.0439L11.6258 22.4606C11.9243 22.6589 12.2356 22.8372 12.5577 22.9941L12.9205 24.7868C12.9856 25.1143 13.1638 25.4085 13.4239 25.6179C13.684 25.8273 14.0094 25.9385 14.3433 25.9321H17.701C18.0348 25.9385 18.3603 25.8273 18.6204 25.6179C18.8805 25.4085 19.0587 25.1143 19.1237 24.7868L19.4865 22.9941C19.811 22.8372 20.1246 22.659 20.4255 22.4606L22.1471 23.0439C22.2939 23.0922 22.4477 23.1163 22.6023 23.1151C22.8518 23.1148 23.0969 23.049 23.3129 22.9241C23.5289 22.7992 23.7083 22.6198 23.833 22.4037L25.4549 19.5582C25.621 19.273 25.6827 18.9389 25.6295 18.6131C25.5763 18.2874 25.4115 17.9903 25.1633 17.7727L23.8188 16.542ZM22.5454 21.6923L20.1054 20.8671C19.5342 21.351 18.8814 21.7291 18.1776 21.984L17.6725 24.5378H14.3148L13.8098 22.0125C13.1115 21.7504 12.4622 21.3728 11.889 20.8956L9.44193 21.6923L7.76308 18.8468L9.69802 17.1395C9.56648 16.4032 9.56648 15.6493 9.69802 14.9129L7.76308 13.1559L9.44193 10.3104L11.8819 11.1356C12.4531 10.6517 13.1059 10.2735 13.8098 10.0187L14.3148 7.46487H17.6725L18.1776 9.99024C18.8759 10.2523 19.5251 10.6299 20.0983 11.1071L22.5454 10.3104L24.2243 13.1559L22.2893 14.8631C22.4209 15.5995 22.4209 16.3534 22.2893 17.0897L24.2243 18.8468L22.5454 21.6923Z" fill="#212121"/>
<path d="M13.7109 15.6561L14.9648 17.1606C15.0281 17.2365 15.1399 17.2489 15.2182 17.1887L18.5189 14.6499L18.6326 14.5625" stroke="#212121" stroke-width="0.827556" stroke-linecap="round"/>
</svg>
