<svg width="28" height="28" viewBox="0 0 28 28" fill="none" xmlns="http://www.w3.org/2000/svg">
<path d="M7.875 18.6668V9.33322C7.875 8.56322 7.875 8.17822 8.03687 7.95072C8.10681 7.85245 8.19632 7.76969 8.29976 7.70765C8.40321 7.64561 8.51837 7.60563 8.638 7.59022C8.91538 7.55522 9.25488 7.73547 9.933 8.09772L18.683 12.7641L18.6865 12.7658C19.4364 13.1657 19.8118 13.3661 19.9351 13.6321C20.0419 13.8648 20.0419 14.1335 19.9351 14.3662C19.8118 14.6331 19.4355 14.8343 18.6839 15.2351L9.93388 19.9015C9.254 20.2637 8.91538 20.444 8.63888 20.409C8.51909 20.3937 8.40376 20.3538 8.30016 20.2917C8.19655 20.2297 8.10691 20.1469 8.03687 20.0485C7.875 19.821 7.875 19.4368 7.875 18.6668Z" stroke="#212121" stroke-width="1.5" stroke-linecap="round" stroke-linejoin="round"/>
<rect x="27" y="1" width="26" height="26" rx="7" transform="rotate(90 27 1)" stroke="#212121" stroke-width="2"/>
</svg>
