<svg width="24" height="24" viewBox="0 0 24 24" fill="none" xmlns="http://www.w3.org/2000/svg">
<path d="M5.875 16.6668V7.33322C5.875 6.56322 5.875 6.17822 6.03687 5.95072C6.10681 5.85245 6.19632 5.76969 6.29976 5.70765C6.40321 5.64561 6.51837 5.60563 6.638 5.59022C6.91538 5.55522 7.25488 5.73547 7.933 6.09772L16.683 10.7641L16.6865 10.7658C17.4364 11.1657 17.8118 11.3661 17.9351 11.6321C18.0419 11.8648 18.0419 12.1335 17.9351 12.3662C17.8118 12.6331 17.4355 12.8343 16.6839 13.2351L7.93388 17.9015C7.254 18.2637 6.91538 18.444 6.63888 18.409C6.51909 18.3937 6.40376 18.3538 6.30016 18.2917C6.19655 18.2297 6.10691 18.1469 6.03687 18.0485C5.875 17.821 5.875 17.4368 5.875 16.6668Z" stroke="white" stroke-width="1.5" stroke-linecap="round" stroke-linejoin="round"/>
</svg>
