<svg width="22" height="22" viewBox="0 0 22 22" fill="none" xmlns="http://www.w3.org/2000/svg">
<path d="M6.75 15.0018V7.00158C6.75 6.34158 6.75 6.01158 6.88875 5.81658C6.9487 5.73234 7.02541 5.66141 7.11408 5.60823C7.20275 5.55506 7.30146 5.52079 7.404 5.50758C7.64175 5.47758 7.93275 5.63208 8.514 5.94258L16.014 9.94233L16.017 9.94383C16.6597 10.2866 16.9815 10.4583 17.0872 10.6863C17.1787 10.8858 17.1787 11.1161 17.0872 11.3156C16.9815 11.5443 16.659 11.7168 16.0147 12.0603L8.51475 16.0601C7.932 16.3706 7.64175 16.5251 7.40475 16.4951C7.30207 16.482 7.20322 16.4477 7.11442 16.3946C7.02562 16.3414 6.94878 16.2704 6.88875 16.1861C6.75 15.9911 6.75 15.6618 6.75 15.0018Z" stroke="white" stroke-width="1.5" stroke-linecap="round" stroke-linejoin="round"/>
<rect x="21" y="1" width="20" height="20" rx="5" transform="rotate(90 21 1)" stroke="white" stroke-width="2"/>
</svg>
