<svg width="41" height="40" viewBox="0 0 41 40" fill="none" xmlns="http://www.w3.org/2000/svg">
<path d="M20.6523 35C17.6856 35 14.7855 34.1203 12.3188 32.4721C9.85206 30.8238 7.92947 28.4811 6.79416 25.7403C5.65884 22.9994 5.36179 19.9834 5.94057 17.0737C6.51935 14.1639 7.94796 11.4912 10.0457 9.3934C12.1435 7.29562 14.8163 5.86701 17.726 5.28823C20.6357 4.70945 23.6517 5.0065 26.3926 6.14181C29.1335 7.27713 31.4762 9.19972 33.1244 11.6665C34.7726 14.1332 35.6523 17.0333 35.6523 20C35.6523 23.9783 34.072 27.7936 31.2589 30.6066C28.4459 33.4197 24.6306 35 20.6523 35V35ZM20.6523 7.50001C18.1801 7.50001 15.7633 8.23312 13.7077 9.60664C11.6521 10.9802 10.05 12.9324 9.10386 15.2165C8.15776 17.5005 7.91022 20.0139 8.39253 22.4386C8.87485 24.8634 10.0654 27.0907 11.8135 28.8388C13.5617 30.587 15.789 31.7775 18.2137 32.2598C20.6385 32.7421 23.1518 32.4946 25.4359 31.5485C27.72 30.6024 29.6722 29.0002 31.0457 26.9446C32.4192 24.889 33.1523 22.4723 33.1523 20C33.1523 16.6848 31.8354 13.5054 29.4912 11.1612C27.147 8.81697 23.9676 7.50001 20.6523 7.50001Z" fill="#212121"/>
<path d="M20.6511 24.5886C20.4869 24.5894 20.3241 24.5574 20.1725 24.4944C20.0208 24.4314 19.8832 24.3388 19.7678 24.2219L13.1011 17.5553C12.8803 17.3183 12.7601 17.0049 12.7658 16.6811C12.7715 16.3572 12.9027 16.0483 13.1317 15.8192C13.3608 15.5902 13.6697 15.459 13.9936 15.4533C14.3174 15.4476 14.6308 15.5678 14.8678 15.7886L20.6511 21.5719L26.4344 15.7886C26.6714 15.5678 26.9848 15.4476 27.3086 15.4533C27.6325 15.459 27.9415 15.5902 28.1705 15.8192C28.3995 16.0483 28.5307 16.3572 28.5364 16.6811C28.5421 17.0049 28.4219 17.3183 28.2011 17.5553L21.5344 24.2219C21.419 24.3388 21.2815 24.4314 21.1298 24.4944C20.9781 24.5574 20.8153 24.5894 20.6511 24.5886V24.5886Z" fill="#212121"/>
</svg>
