<svg width="25" height="25" viewBox="0 0 25 25" fill="none" xmlns="http://www.w3.org/2000/svg">
<path d="M12.5109 3.37207H3C1.89543 3.37207 1 4.2675 1 5.37207V22.0001C1 23.1047 1.89543 24.0001 3 24.0001H18.1848C19.2894 24.0001 20.1848 23.1047 20.1848 22.0001V13.6861" stroke="#605BFF" stroke-width="2" stroke-linecap="round"/>
<path fill-rule="evenodd" clip-rule="evenodd" d="M14.4075 0C13.8552 0 13.4075 0.447715 13.4075 1C13.4075 1.55228 13.8552 2 14.4075 2H21.527L7.49587 16.6999C7.11454 17.0994 7.12927 17.7324 7.52878 18.1137C7.92828 18.4951 8.56128 18.4803 8.94261 18.0808L22.9999 3.35359V6.15702V11.314C22.9999 11.8663 23.4476 12.314 23.9999 12.314C24.5522 12.314 24.9999 11.8663 24.9999 11.314V6.15702V3C24.9999 1.34315 23.6567 0 21.9999 0H14.4075Z" fill="#605BFF"/>
</svg>
