<svg width="26" height="27" viewBox="0 0 26 27" fill="none" xmlns="http://www.w3.org/2000/svg">
<path d="M12.646 5.37695H3C1.89543 5.37695 1 6.27238 1 7.37695V23.2977C1 24.4022 1.89543 25.2977 3 25.2977H18.4099C19.5145 25.2977 20.4099 24.4022 20.4099 23.2977V15.3373" stroke="#030229" stroke-opacity="0.6" stroke-width="2" stroke-linecap="round"/>
<path fill-rule="evenodd" clip-rule="evenodd" d="M15.2969 0C14.7446 0 14.2969 0.447715 14.2969 1C14.2969 1.55228 14.7446 2 15.2969 2H22.5875L8.52336 16.0641C8.13284 16.4547 8.13284 17.0878 8.52336 17.4783C8.91389 17.8689 9.54705 17.8689 9.93758 17.4783L24.0018 3.41408V5.98018V10.9604C24.0018 11.5126 24.4496 11.9604 25.0018 11.9604C25.5541 11.9604 26.0018 11.5126 26.0018 10.9604V5.98018V3C26.0018 1.34315 24.6587 0 23.0018 0H15.2969Z" fill="#030229" fill-opacity="0.6"/>
</svg>
