<svg width="21" height="21" viewBox="0 0 21 21" fill="none" xmlns="http://www.w3.org/2000/svg">
<path d="M10.5924 2.80972H2.66675C1.74623 2.80972 1 3.55595 1 4.47647V18.3316C1 19.2521 1.74623 19.9984 2.66675 19.9984H15.3206C16.2411 19.9984 16.9873 19.2521 16.9873 18.3316V11.404" stroke="#212121" stroke-width="1.66675" stroke-linecap="round"/>
<path fill-rule="evenodd" clip-rule="evenodd" d="M12.1725 0C11.7122 0 11.3391 0.373115 11.3391 0.833376C11.3391 1.29364 11.7122 1.66675 12.1725 1.66675H18.1056L6.41318 13.9155C6.09537 14.2484 6.10763 14.7759 6.44056 15.0937C6.77348 15.4115 7.301 15.3993 7.61881 15.0663L19.3328 2.79506V5.13054V9.4277C19.3328 9.88796 19.7059 10.2611 20.1662 10.2611C20.6264 10.2611 20.9995 9.88796 20.9995 9.4277V5.13054V2.50013C20.9995 1.11935 19.8802 0 18.4994 0H12.1725Z" fill="#212121"/>
</svg>
