<svg width="24" height="24" viewBox="0 0 24 24" fill="none" xmlns="http://www.w3.org/2000/svg">
<path d="M12 4.49902C4.54612 4.49902 0.75 11.999 0.75 11.999C0.75 11.999 4.54612 19.499 12 19.499C19.4546 19.499 23.25 11.999 23.25 11.999C23.25 11.999 19.4546 4.49902 12 4.49902ZM12 18.248C5.7885 18.248 2.625 11.999 2.625 11.999C2.625 11.999 5.7885 5.74852 12 5.74852C18.2122 5.74852 21.375 11.999 21.375 11.999C21.375 11.999 18.2122 18.248 12 18.248Z" fill="black"/>
<path d="M11.9629 17.4365C8.96477 17.4365 6.52539 14.9971 6.52539 11.999C6.52539 9.0009 8.96477 6.56152 11.9629 6.56152C14.961 6.56152 17.4004 9.0009 17.4004 11.999C17.4004 14.9971 14.9614 17.4365 11.9629 17.4365ZM11.9629 7.68652C9.58502 7.68652 7.65039 9.62115 7.65039 11.999C7.65039 14.3769 9.58502 16.3115 11.9629 16.3115C14.3408 16.3115 16.2754 14.3769 16.2754 11.999C16.2754 9.62115 14.3408 7.68652 11.9629 7.68652Z" fill="black"/>
<path d="M14.7744 11.9972C14.7744 13.5527 13.5148 14.8135 11.9634 14.8135C11.5937 14.8134 11.2276 14.7405 10.8861 14.599C10.5445 14.4574 10.2343 14.2499 9.97293 13.9884C9.71161 13.7268 9.50437 13.4164 9.36307 13.0747C9.22177 12.7331 9.14917 12.3669 9.14941 11.9972C9.14941 10.4444 10.4087 9.18848 11.9634 9.18848C13.5148 9.18848 14.7744 10.4447 14.7744 11.9972Z" fill="black"/>
</svg>
