<svg width="24" height="24" viewBox="0 0 24 24" fill="none" xmlns="http://www.w3.org/2000/svg">
<circle cx="12" cy="12" r="12" fill="#EBEBFF"/>
<path d="M12 8.5C11.2044 8.5 10.4413 8.81607 9.87868 9.37868C9.31607 9.94129 9 10.7044 9 11.5C9 12.2956 9.31607 13.0587 9.87868 13.6213C10.4413 14.1839 11.2044 14.5 12 14.5C12.7956 14.5 13.5587 14.1839 14.1213 13.6213C14.6839 13.0587 15 12.2956 15 11.5C15 10.7044 14.6839 9.94129 14.1213 9.37868C13.5587 8.81607 12.7956 8.5 12 8.5ZM12 16.5C10.6739 16.5 9.40215 15.9732 8.46447 15.0355C7.52678 14.0979 7 12.8261 7 11.5C7 10.1739 7.52678 8.90215 8.46447 7.96447C9.40215 7.02678 10.6739 6.5 12 6.5C13.3261 6.5 14.5979 7.02678 15.5355 7.96447C16.4732 8.90215 17 10.1739 17 11.5C17 12.8261 16.4732 14.0979 15.5355 15.0355C14.5979 15.9732 13.3261 16.5 12 16.5ZM12 4C7 4 2.73 7.11 1 11.5C2.73 15.89 7 19 12 19C17 19 21.27 15.89 23 11.5C21.27 7.11 17 4 12 4Z" fill="#616161"/>
</svg>
