<svg width="24" height="24" viewBox="0 0 24 24" fill="none" xmlns="http://www.w3.org/2000/svg">
<rect x="0.5" y="0.5" width="23" height="23" rx="11.5" fill="#E2E1FF"/>
<rect x="0.5" y="0.5" width="23" height="23" rx="11.5" stroke="#403DAA"/>
<path d="M12 17.4001C7.336 17.4001 5.144 12.4481 5.048 12.2401C5.01631 12.1641 5 12.0825 5 12.0001C5 11.9177 5.01631 11.8361 5.048 11.7601C5.144 11.5521 7.336 6.6001 12 6.6001C16.664 6.6001 18.856 11.5521 18.952 11.7601C18.9837 11.8361 19 11.9177 19 12.0001C19 12.0825 18.9837 12.1641 18.952 12.2401C18.856 12.4481 16.664 17.4001 12 17.4001ZM6.264 12.0001C6.736 12.9201 8.664 16.2001 12 16.2001C15.336 16.2001 17.264 12.9201 17.736 12.0001C17.264 11.0801 15.336 7.8001 12 7.8001C8.664 7.8001 6.736 11.0801 6.264 12.0001Z" fill="#403DAA"/>
<path d="M12 14.5999C11.4858 14.5999 10.9831 14.4474 10.5555 14.1617C10.128 13.876 9.79473 13.47 9.59794 12.9949C9.40115 12.5198 9.34966 11.997 9.44998 11.4927C9.55031 10.9883 9.79793 10.525 10.1615 10.1614C10.5252 9.79781 10.9884 9.55018 11.4928 9.44986C11.9971 9.34954 12.5199 9.40103 12.995 9.59782C13.4701 9.7946 13.8762 10.1279 14.1618 10.5554C14.4475 10.983 14.6 11.4857 14.6 11.9999C14.5979 12.6888 14.3233 13.3489 13.8362 13.8361C13.349 14.3232 12.6889 14.5978 12 14.5999ZM12 10.5999C11.7231 10.5999 11.4525 10.682 11.2222 10.8358C10.992 10.9897 10.8126 11.2083 10.7066 11.4641C10.6006 11.72 10.5729 12.0015 10.6269 12.273C10.6809 12.5446 10.8143 12.7941 11.0101 12.9899C11.2059 13.1856 11.4553 13.319 11.7269 13.373C11.9985 13.427 12.28 13.3993 12.5358 13.2933C12.7916 13.1874 13.0102 13.0079 13.1641 12.7777C13.3179 12.5475 13.4 12.2768 13.4 11.9999C13.3979 11.6292 13.2498 11.2744 12.9877 11.0123C12.7256 10.7502 12.3707 10.602 12 10.5999Z" fill="#403DAA"/>
</svg>
