<svg width="14" height="18" viewBox="0 0 14 18" fill="none" xmlns="http://www.w3.org/2000/svg">
<path d="M13.53 6L8 0.47C7.85948 0.329308 7.66885 0.250175 7.47 0.25H3C2.27065 0.25 1.57118 0.539731 1.05546 1.05546C0.539731 1.57118 0.25 2.27065 0.25 3V15C0.25 15.7293 0.539731 16.4288 1.05546 16.9445C1.57118 17.4603 2.27065 17.75 3 17.75H11C11.7293 17.75 12.4288 17.4603 12.9445 16.9445C13.4603 16.4288 13.75 15.7293 13.75 15V6.5C13.7421 6.3116 13.6636 6.13309 13.53 6ZM8.25 2.81L11.19 5.75H8.25V2.81ZM11 16.25H3C2.66848 16.25 2.35054 16.1183 2.11612 15.8839C1.8817 15.6495 1.75 15.3315 1.75 15V3C1.75 2.66848 1.8817 2.35054 2.11612 2.11612C2.35054 1.8817 2.66848 1.75 3 1.75H6.75V6.5C6.75259 6.69811 6.83244 6.88737 6.97253 7.02747C7.11263 7.16756 7.30189 7.24741 7.5 7.25H12.25V15C12.25 15.3315 12.1183 15.6495 11.8839 15.8839C11.6495 16.1183 11.3315 16.25 11 16.25Z" fill="#212121"/>
</svg>
