<svg width="15" height="14" viewBox="0 0 15 14" fill="none" xmlns="http://www.w3.org/2000/svg">
<path d="M12.7256 4.6L8.30156 0.176C8.18915 0.063446 8.03664 0.000140042 7.87756 0H4.30156C3.71809 0 3.15851 0.231785 2.74593 0.644365C2.33335 1.05694 2.10156 1.61652 2.10156 2.2V11.8C2.10156 12.3835 2.33335 12.9431 2.74593 13.3556C3.15851 13.7682 3.71809 14 4.30156 14H10.7016C11.285 14 11.8446 13.7682 12.2572 13.3556C12.6698 12.9431 12.9016 12.3835 12.9016 11.8V5C12.8953 4.84928 12.8324 4.70647 12.7256 4.6V4.6ZM8.50156 2.048L10.8536 4.4H8.50156V2.048ZM10.7016 12.8H4.30156C4.03635 12.8 3.78199 12.6946 3.59446 12.5071C3.40692 12.3196 3.30156 12.0652 3.30156 11.8V2.2C3.30156 1.93478 3.40692 1.68043 3.59446 1.49289C3.78199 1.30536 4.03635 1.2 4.30156 1.2H7.30156V5C7.30363 5.15849 7.36751 5.3099 7.47959 5.42197C7.59167 5.53405 7.74308 5.59793 7.90156 5.6H11.7016V11.8C11.7016 12.0652 11.5962 12.3196 11.4087 12.5071C11.2211 12.6946 10.9668 12.8 10.7016 12.8Z" fill="#212121"/>
</svg>
