<svg width="19" height="15" viewBox="0 0 19 15" fill="none" xmlns="http://www.w3.org/2000/svg">
<path d="M14.1667 13.6546H4.83333C4.21449 13.6546 3.621 13.4087 3.18342 12.9712C2.74583 12.5336 2.5 11.9401 2.5 11.3212V3.6849C2.5 3.06606 2.74583 2.47257 3.18342 2.03498C3.621 1.5974 4.21449 1.35156 4.83333 1.35156H6.95454C7.04548 1.35132 7.13547 1.37005 7.21875 1.40658C7.30203 1.44311 7.37676 1.49662 7.43818 1.56369L9.78848 4.31277H14.1667C14.4738 4.31277 14.7779 4.37341 15.0615 4.4912C15.3452 4.60899 15.6028 4.78162 15.8196 4.99919C16.0364 5.21676 16.2081 5.47498 16.3248 5.75906C16.4416 6.04313 16.5011 6.34746 16.5 6.65459V11.3212C16.5 11.9401 16.2542 12.5336 15.8166 12.9712C15.379 13.4087 14.7855 13.6546 14.1667 13.6546ZM4.83333 2.62429C4.55204 2.62429 4.28227 2.73603 4.08337 2.93493C3.88447 3.13384 3.77273 3.40361 3.77273 3.6849V11.3212C3.77273 11.6025 3.88447 11.8723 4.08337 12.0712C4.28227 12.2701 4.55204 12.3819 4.83333 12.3819H14.1667C14.4479 12.3819 14.7177 12.2701 14.9166 12.0712C15.1155 11.8723 15.2273 11.6025 15.2273 11.3212V6.65459C15.2273 6.3733 15.1155 6.10353 14.9166 5.90463C14.7177 5.70573 14.4479 5.59398 14.1667 5.59398H9.49999C9.40842 5.59316 9.31804 5.5731 9.23472 5.53509C9.1514 5.49709 9.07701 5.44199 9.01636 5.37338L6.66606 2.62429H4.83333Z" fill="#212121"/>
</svg>
