<svg width="22" height="22" viewBox="0 0 22 22" fill="none" xmlns="http://www.w3.org/2000/svg">
<g id="Group 2">
<circle id="Ellipse 1" cx="10.5769" cy="10.5769" r="10.0769" fill="white" stroke="#21C706"/>
<path id="Vector" d="M15.1907 15.1411L12.1832 11.9574" stroke="#21C706" stroke-linecap="round" stroke-linejoin="round"/>
<path id="Vector_2" d="M9.30523 13.2213C11.5555 13.2213 13.3797 11.2879 13.3797 8.90289C13.3797 6.51793 11.5555 4.58453 9.30523 4.58453C7.05494 4.58453 5.23071 6.51793 5.23071 8.90289C5.23071 11.2879 7.05494 13.2213 9.30523 13.2213Z" stroke="#21C706" stroke-linecap="round" stroke-linejoin="round"/>
<path id="Vector_3" d="M8.69239 10.8936C8.65455 10.8935 8.61714 10.8851 8.58248 10.869C8.54782 10.8529 8.51666 10.8294 8.49092 10.8L7.14964 9.28781C7.0995 9.23118 7.07264 9.15576 7.07497 9.07814C7.0773 9.00052 7.10862 8.92707 7.16206 8.87393C7.21549 8.82079 7.28665 8.79232 7.35989 8.79479C7.43313 8.79726 7.50244 8.83046 7.55258 8.88709L8.68963 10.1712L11.0107 7.48017C11.0342 7.44909 11.0635 7.42343 11.0968 7.40478C11.13 7.38614 11.1665 7.37489 11.204 7.37174C11.2415 7.36858 11.2792 7.37359 11.3148 7.38644C11.3504 7.3993 11.3832 7.41973 11.4111 7.44649C11.439 7.47325 11.4614 7.50577 11.477 7.54205C11.4926 7.57833 11.501 7.61761 11.5018 7.65747C11.5025 7.69733 11.4956 7.73693 11.4814 7.77384C11.4672 7.81076 11.446 7.8442 11.4191 7.87212L8.89662 10.7971C8.87113 10.827 8.84008 10.8511 8.80541 10.8677C8.77074 10.8843 8.7332 10.8931 8.69515 10.8936H8.69239Z" fill="#21C706" stroke="#21C706" stroke-width="0.25"/>
</g>
</svg>
