<svg width="743" height="658" viewBox="0 0 743 658" fill="none" xmlns="http://www.w3.org/2000/svg">
<path d="M371.373 656.61C552.691 656.61 699.678 509.623 699.678 328.305C699.678 146.987 552.691 0 371.373 0C190.056 0 43.0684 146.987 43.0684 328.305C43.0684 509.623 190.056 656.61 371.373 656.61Z" fill="white"/>
<path opacity="0.1" d="M371.373 657.61C552.691 657.61 699.678 510.623 699.678 329.305C699.678 147.987 552.691 1 371.373 1C190.056 1 43.0684 147.987 43.0684 329.305C43.0684 510.623 190.056 657.61 371.373 657.61Z" fill="#367CFF"/>
<path d="M158.006 434.766L1 434.29L1.646 221L110.212 221.329L158.505 269.916L158.006 434.766Z" fill="white"/>
<path opacity="0.3" d="M110.212 221.329L110.065 269.769L158.505 269.916L110.212 221.329Z" fill="#367CFF"/>
<path d="M159.493 269.856C159.487 269.769 159.47 269.682 159.442 269.599C159.431 269.567 159.423 269.536 159.409 269.504C159.362 269.395 159.296 269.296 159.214 269.211L110.921 220.624C110.836 220.54 110.737 220.473 110.628 220.424C110.598 220.411 110.567 220.4 110.535 220.39C110.451 220.361 110.364 220.343 110.275 220.338C110.254 220.338 110.235 220.325 110.214 220.325L1.649 220C1.38378 220 1.12943 220.105 0.941893 220.293C0.754357 220.48 0.649 220.735 0.649 221L0 434.287C0 434.552 0.105357 434.807 0.292893 434.994C0.48043 435.182 0.734784 435.287 1 435.287L158 435.766C158.265 435.766 158.52 435.661 158.707 435.473C158.895 435.286 159 435.031 159 434.766L159.5 269.916C159.505 269.897 159.494 269.878 159.493 269.856ZM111.2 223.747L133.5 246.174L156.094 268.906L111.068 268.769L111.2 223.747ZM2 433.293L2.64 222.003L109.205 222.326L109.062 269.766C109.062 270.031 109.167 270.286 109.355 270.473C109.542 270.661 109.797 270.766 110.062 270.766L157.502 270.91L157.009 433.76L2 433.293Z" fill="#262626"/>
<path d="M478.084 474.512L263.981 473.863L264.862 183.007L412.909 183.456L478.765 249.712L478.084 474.512Z" fill="white"/>
<path opacity="0.3" d="M412.909 183.456L412.709 249.512L478.765 249.712L412.909 183.456Z" fill="#367CFF"/>
<path d="M479.753 249.652C479.748 249.565 479.731 249.479 479.703 249.396C479.692 249.363 479.683 249.332 479.669 249.296C479.623 249.188 479.557 249.088 479.475 249.003L413.619 182.747C413.534 182.663 413.435 182.596 413.326 182.547C413.295 182.533 413.265 182.525 413.233 182.514C413.149 182.485 413.062 182.467 412.973 182.461C412.952 182.461 412.933 182.449 412.912 182.449L264.865 182C264.6 182 264.346 182.105 264.158 182.293C263.971 182.48 263.865 182.735 263.865 183L262.984 473.856C262.984 474.121 263.09 474.376 263.277 474.563C263.465 474.751 263.719 474.856 263.984 474.856L478.084 475.505C478.35 475.505 478.604 475.4 478.791 475.212C478.979 475.025 479.084 474.77 479.084 474.505L479.765 249.705C479.765 249.693 479.754 249.674 479.753 249.652ZM413.9 185.873L476.352 248.705L413.71 248.515L413.9 185.873ZM264.984 472.866L265.859 184.01L411.906 184.453L411.706 249.509C411.706 249.774 411.812 250.029 411.999 250.216C412.187 250.404 412.441 250.509 412.706 250.509L477.762 250.709L477.087 473.509L264.984 472.866Z" fill="#262626"/>
<path d="M741.247 434.77L584.241 434.294L584.887 221.004L693.453 221.333L741.746 269.92L741.247 434.77Z" fill="white"/>
<path opacity="0.3" d="M693.454 221.333L693.307 269.773L741.747 269.92L693.454 221.333Z" fill="#367CFF"/>
<path d="M742.734 269.86C742.729 269.773 742.712 269.686 742.684 269.603C742.673 269.571 742.664 269.54 742.65 269.508C742.603 269.4 742.538 269.3 742.456 269.215L694.162 220.628C694.078 220.544 693.979 220.477 693.87 220.428C693.839 220.414 693.808 220.405 693.776 220.394C693.693 220.365 693.605 220.347 693.517 220.342C693.496 220.342 693.477 220.329 693.456 220.329L584.89 220C584.625 220 584.371 220.105 584.183 220.293C583.996 220.48 583.89 220.735 583.89 221L583.244 434.29C583.244 434.555 583.349 434.81 583.537 434.997C583.725 435.185 583.979 435.29 584.244 435.29L741.25 435.766C741.515 435.766 741.77 435.661 741.957 435.473C742.145 435.286 742.25 435.031 742.25 434.766L742.75 269.916C742.746 269.901 742.735 269.882 742.734 269.86ZM694.445 223.751L716.737 246.178L739.335 268.91L694.309 268.773L694.445 223.751ZM585.245 433.297L585.885 222.007L692.451 222.33L692.307 269.77C692.307 270.035 692.412 270.29 692.6 270.477C692.788 270.665 693.042 270.77 693.307 270.77L740.747 270.914L740.254 433.764L585.245 433.297Z" fill="#262626"/>
<path d="M302.434 302.581C309.818 302.581 315.804 299.43 315.804 295.544C315.804 291.657 309.818 288.507 302.434 288.507C295.05 288.507 289.064 291.657 289.064 295.544C289.064 299.43 295.05 302.581 302.434 302.581Z" fill="white"/>
<path d="M436.129 302.581C443.513 302.581 449.499 299.43 449.499 295.544C449.499 291.657 443.513 288.507 436.129 288.507C428.745 288.507 422.759 291.657 422.759 295.544C422.759 299.43 428.745 302.581 436.129 302.581Z" fill="white"/>
<path d="M479.087 174.287C453.566 144.986 417.452 127.023 378.687 124.348C339.923 121.673 301.684 134.506 272.381 160.024C223.425 202.661 208.381 273.547 235.804 332.424C241.31 344.221 248.37 355.229 256.797 365.154L258.597 367.287L124.405 509.698C121.951 512.34 120.641 515.846 120.762 519.45C120.882 523.054 122.422 526.464 125.047 528.937C127.672 531.41 131.168 532.745 134.773 532.65C138.378 532.556 141.799 531.039 144.291 528.433L278.45 386.044L280.691 387.722C309.642 409.438 345.606 419.67 381.653 416.447C417.7 413.224 451.278 396.775 475.918 370.267C500.558 343.76 514.516 309.071 515.102 272.886C515.688 236.7 502.86 201.577 479.091 174.287H479.087ZM487.5 278.715C485.422 308.802 472.017 336.983 449.986 357.579C427.955 378.175 398.936 389.655 368.777 389.704C365.992 389.704 363.198 389.604 360.395 389.404C340.818 388.075 321.872 381.935 305.236 371.53C288.601 361.125 274.79 346.776 265.028 329.755C255.267 312.733 249.856 293.566 249.277 273.953C248.697 254.34 252.967 234.887 261.706 217.319C270.446 199.751 283.385 184.612 299.378 173.242C315.37 161.873 333.92 154.626 353.384 152.144C372.848 149.661 392.624 152.02 410.958 159.011C429.292 166.002 445.617 177.41 458.487 192.222C468.797 204.007 476.669 217.719 481.649 232.565C486.629 247.41 488.617 263.096 487.5 278.715Z" fill="#367CFF"/>
</svg>
