<svg width="34" height="39" viewBox="0 0 34 39" fill="none" xmlns="http://www.w3.org/2000/svg">
<rect x="0.5" y="0.5" width="33" height="37.89" rx="4.5" fill="white" stroke="#605BFF"/>
<path d="M17.3571 21.724C16.8844 21.724 16.4222 21.5838 16.0291 21.3212C15.636 21.0585 15.3297 20.6852 15.1487 20.2484C14.9678 19.8116 14.9205 19.331 15.0127 18.8674C15.105 18.4037 15.3326 17.9778 15.6669 17.6435C16.0012 17.3092 16.4271 17.0815 16.8908 16.9893C17.3545 16.8971 17.8351 16.9444 18.2718 17.1253C18.7086 17.3062 19.0819 17.6126 19.3446 18.0057C19.6072 18.3988 19.7474 18.8609 19.7474 19.3337C19.7474 19.9676 19.4956 20.5756 19.0473 21.0239C18.5991 21.4722 17.9911 21.724 17.3571 21.724ZM17.3571 18.1671C17.1264 18.1671 16.9008 18.2355 16.709 18.3637C16.5171 18.4919 16.3676 18.6741 16.2793 18.8872C16.191 19.1004 16.1679 19.335 16.2129 19.5613C16.2579 19.7876 16.369 19.9954 16.5322 20.1586C16.6954 20.3217 16.9032 20.4329 17.1295 20.4779C17.3558 20.5229 17.5904 20.4998 17.8036 20.4115C18.0167 20.3232 18.1989 20.1737 18.3271 19.9818C18.4553 19.79 18.5237 19.5644 18.5237 19.3337C18.5237 19.0243 18.4008 18.7275 18.182 18.5088C17.9632 18.29 17.6665 18.1671 17.3571 18.1671Z" fill="#605BFF"/>
<path d="M17.4057 26.4719C17.1671 26.4709 16.9312 26.4227 16.7113 26.3302C16.4915 26.2377 16.292 26.1026 16.1245 25.9328C15.957 25.763 15.8247 25.5618 15.7351 25.3407C15.6456 25.1197 15.6006 24.8831 15.6027 24.6445C15.5995 24.571 15.5756 24.4998 15.5338 24.4392C15.4919 24.3786 15.4338 24.331 15.3662 24.3019C15.2913 24.2675 15.2079 24.2562 15.1266 24.2692C15.0452 24.2823 14.9696 24.3192 14.9093 24.3753C14.5706 24.7115 14.1138 24.9018 13.6366 24.9056C13.1564 24.9087 12.694 24.7243 12.3477 24.3916C12.1794 24.2235 12.046 24.0238 11.9549 23.804C11.8639 23.5842 11.817 23.3487 11.817 23.1108C11.817 22.8729 11.8639 22.6374 11.9549 22.4176C12.046 22.1979 12.1794 21.9982 12.3477 21.83C12.4052 21.7776 12.4465 21.7098 12.4668 21.6346C12.487 21.5594 12.4853 21.48 12.4619 21.4058C12.4221 21.3369 12.3651 21.2796 12.2964 21.2396C12.2277 21.1995 12.1498 21.1781 12.0703 21.1774C11.5903 21.1755 11.1298 20.9873 10.7858 20.6525C10.4419 20.3176 10.2414 19.8624 10.2266 19.3826C10.2276 19.1447 10.2755 18.9094 10.3675 18.6901C10.4595 18.4708 10.5938 18.2717 10.7628 18.1043C10.9317 17.9369 11.132 17.8044 11.3521 17.7144C11.5723 17.6244 11.808 17.5786 12.0458 17.5796C12.1194 17.5764 12.1906 17.5525 12.2512 17.5107C12.3118 17.4688 12.3594 17.4107 12.3885 17.3431C12.4228 17.2682 12.4342 17.1848 12.4211 17.1035C12.408 17.0222 12.3711 16.9465 12.315 16.8862C11.9789 16.5475 11.7886 16.0907 11.7848 15.6135C11.7806 15.3753 11.8239 15.1387 11.9121 14.9174C12.0004 14.6961 12.1318 14.4946 12.2987 14.3246C12.4669 14.1563 12.6666 14.0229 12.8863 13.9318C13.1061 13.8408 13.3417 13.7939 13.5795 13.7939C13.8174 13.7939 14.053 13.8408 14.2727 13.9318C14.4925 14.0229 14.6922 14.1563 14.8604 14.3246C14.9191 14.3805 14.9912 14.4203 15.0698 14.4403C15.1483 14.4603 15.2307 14.4598 15.309 14.4388C15.3804 14.3997 15.4409 14.3434 15.4851 14.275C15.5293 14.2067 15.5557 14.1283 15.5619 14.0472C15.5617 13.5658 15.749 13.1032 16.084 12.7575C16.419 12.4118 16.8755 12.2102 17.3567 12.1953C17.5946 12.1974 17.8297 12.2464 18.0486 12.3394C18.2675 12.4324 18.4659 12.5676 18.6326 12.7373C18.7993 12.907 18.9309 13.1078 19.0199 13.3284C19.1089 13.5489 19.1537 13.7849 19.1515 14.0227C19.1546 14.0974 19.1773 14.1699 19.2175 14.2329C19.2576 14.2959 19.3136 14.3473 19.3799 14.3817C19.4519 14.4081 19.5299 14.4137 19.6049 14.3978C19.68 14.382 19.749 14.3453 19.8041 14.2919C20.1429 13.9558 20.5996 13.7655 21.0768 13.7617C21.3154 13.7542 21.5531 13.796 21.7748 13.8844C21.9966 13.9728 22.1978 14.106 22.3658 14.2756C22.534 14.4438 22.6675 14.6435 22.7585 14.8632C22.8496 15.083 22.8964 15.3186 22.8964 15.5564C22.8964 15.7943 22.8496 16.0299 22.7585 16.2496C22.6675 16.4694 22.534 16.6691 22.3658 16.8373C22.3141 16.8984 22.2788 16.9716 22.2631 17.05C22.2474 17.1285 22.2518 17.2097 22.276 17.286C22.3151 17.3573 22.3714 17.4179 22.4398 17.462C22.5082 17.5062 22.5865 17.5326 22.6676 17.5389C23.1448 17.5449 23.6012 17.735 23.9417 18.0694C24.2821 18.4037 24.4804 18.8566 24.495 19.3336C24.4929 19.5715 24.4439 19.8066 24.351 20.0255C24.258 20.2444 24.1228 20.4428 23.9531 20.6095C23.7834 20.7762 23.5825 20.9078 23.362 20.9968C23.1414 21.0858 22.9055 21.1306 22.6676 21.1284C22.593 21.1315 22.5205 21.1543 22.4574 21.1944C22.3944 21.2345 22.3431 21.2905 22.3087 21.3568C22.2822 21.4288 22.2766 21.5068 22.2925 21.5819C22.3084 21.6569 22.3451 21.7259 22.3984 21.7811C22.7346 22.1198 22.9249 22.5765 22.9287 23.0537C22.9329 23.2919 22.8896 23.5286 22.8013 23.7499C22.7131 23.9712 22.5817 24.1727 22.4147 24.3427C22.2465 24.5109 22.0469 24.6444 21.8271 24.7354C21.6073 24.8265 21.3718 24.8733 21.1339 24.8733C20.896 24.8733 20.6605 24.8265 20.4407 24.7354C20.221 24.6444 20.0213 24.5109 19.8531 24.3427C19.798 24.2894 19.7289 24.2527 19.6539 24.2368C19.5789 24.2209 19.5009 24.2265 19.4289 24.253C19.36 24.2927 19.3027 24.3497 19.2627 24.4184C19.2226 24.4871 19.2012 24.565 19.2004 24.6445C19.1944 25.1217 19.0043 25.5781 18.6699 25.9186C18.3356 26.259 17.8827 26.4573 17.4057 26.4719ZM15.1948 23.0374C15.4112 23.0349 15.6255 23.0794 15.823 23.1679C16.1144 23.2894 16.3643 23.4928 16.5424 23.7534C16.7205 24.0141 16.8192 24.3208 16.8264 24.6364C16.8242 24.7937 16.8835 24.9458 16.9917 25.0601C17.0999 25.1744 17.2484 25.2419 17.4057 25.2482C17.5629 25.2358 17.7095 25.1639 17.8156 25.0472C17.9217 24.9305 17.9793 24.7778 17.9767 24.6201C17.9787 24.3033 18.0701 23.9936 18.2404 23.7266C18.4107 23.4596 18.653 23.2461 18.9394 23.1108C19.2373 22.9869 19.5653 22.9541 19.8818 23.0165C20.1984 23.079 20.4893 23.2338 20.7179 23.4616C20.826 23.5698 20.9728 23.6306 21.1258 23.6306C21.2787 23.6306 21.4255 23.5698 21.5337 23.4616C21.6418 23.3534 21.7026 23.2067 21.7026 23.0537C21.7026 22.9007 21.6418 22.754 21.5337 22.6458C21.3073 22.4164 21.1539 22.125 21.0929 21.8085C21.0319 21.492 21.0661 21.1645 21.191 20.8673C21.3197 20.5811 21.5282 20.338 21.7916 20.1673C22.0549 19.9965 22.3619 19.9054 22.6758 19.9047C22.831 19.907 22.9809 19.8485 23.0937 19.7419C23.2065 19.6352 23.2731 19.4887 23.2795 19.3336C23.269 19.1757 23.1977 19.0279 23.0806 18.9214C22.9634 18.8149 22.8096 18.758 22.6513 18.7626C22.332 18.7539 22.0214 18.6561 21.7547 18.4802C21.488 18.3043 21.2758 18.0574 21.1421 17.7673C21.02 17.4664 20.9881 17.1364 21.0504 16.8177C21.1127 16.499 21.2665 16.2053 21.4929 15.9725C21.5464 15.9189 21.5889 15.8553 21.6179 15.7854C21.6469 15.7154 21.6618 15.6404 21.6618 15.5646C21.6618 15.4888 21.6469 15.4138 21.6179 15.3438C21.5889 15.2739 21.5464 15.2103 21.4929 15.1567C21.4393 15.1031 21.3757 15.0606 21.3057 15.0316C21.2357 15.0027 21.1607 14.9877 21.085 14.9877C21.0092 14.9877 20.9342 15.0027 20.8642 15.0316C20.7942 15.0606 20.7306 15.1031 20.6771 15.1567C20.4477 15.3697 20.1619 15.5123 19.8537 15.5674C19.5456 15.6224 19.2281 15.5877 18.9391 15.4673C18.6502 15.3469 18.402 15.1459 18.2241 14.8883C18.0462 14.6307 17.9462 14.3274 17.9359 14.0146C17.9382 13.8594 17.8798 13.7094 17.7731 13.5967C17.6664 13.4839 17.52 13.4172 17.3649 13.4109C17.2069 13.4214 17.0592 13.4927 16.9527 13.6098C16.8462 13.7269 16.7892 13.8808 16.7938 14.039C16.7851 14.3584 16.6873 14.6689 16.5115 14.9356C16.3356 15.2023 16.0886 15.4145 15.7985 15.5483C15.4976 15.6704 15.1677 15.7022 14.8489 15.6399C14.5302 15.5776 14.2366 15.4239 14.0038 15.1975C13.9502 15.1439 13.8866 15.1014 13.8166 15.0724C13.7466 15.0434 13.6716 15.0285 13.5958 15.0285C13.5201 15.0285 13.4451 15.0434 13.3751 15.0724C13.3051 15.1014 13.2415 15.1439 13.1879 15.1975C13.1344 15.2511 13.0919 15.3146 13.0629 15.3846C13.0339 15.4546 13.019 15.5296 13.019 15.6054C13.019 15.6811 13.0339 15.7562 13.0629 15.8261C13.0919 15.8961 13.1344 15.9597 13.1879 16.0133C13.413 16.2436 13.5648 16.5354 13.6243 16.8519C13.6839 17.1684 13.6484 17.4954 13.5224 17.7918C13.401 18.0831 13.1976 18.333 12.9369 18.5111C12.6763 18.6893 12.3696 18.7879 12.054 18.7952C11.8966 18.7929 11.7446 18.8522 11.6303 18.9604C11.516 19.0686 11.4485 19.2172 11.4421 19.3744C11.4545 19.5317 11.5264 19.6782 11.6431 19.7843C11.7598 19.8904 11.9126 19.9481 12.0703 19.9455C12.387 19.9474 12.6967 20.0388 12.9638 20.2091C13.2308 20.3795 13.4442 20.6218 13.5795 20.9081C13.7035 21.206 13.7363 21.534 13.6738 21.8506C13.6114 22.1671 13.4565 22.4581 13.2287 22.6866C13.1752 22.7402 13.1327 22.8038 13.1037 22.8737C13.0747 22.9437 13.0598 23.0188 13.0598 23.0945C13.0598 23.1703 13.0747 23.2453 13.1037 23.3153C13.1327 23.3852 13.1752 23.4488 13.2287 23.5024C13.2823 23.556 13.3459 23.5985 13.4159 23.6275C13.4859 23.6564 13.5609 23.6714 13.6366 23.6714C13.7124 23.6714 13.7874 23.6564 13.8574 23.6275C13.9274 23.5985 13.991 23.556 14.0445 23.5024C14.3546 23.2064 14.7661 23.04 15.1948 23.0374Z" fill="#605BFF"/>
<g clip-path="url(#clip0_1916_49809)">
<path d="M23.7673 27.1071C23.7951 27.1195 23.8168 27.1424 23.8277 27.1708C23.8386 27.1992 23.8378 27.2307 23.8254 27.2585L23.2136 28.6352C23.2076 28.6493 23.199 28.662 23.1881 28.6727C23.1772 28.6834 23.1642 28.6918 23.15 28.6974C23.1358 28.703 23.1207 28.7058 23.1054 28.7054C23.0901 28.7051 23.0751 28.7018 23.0611 28.6956C23.0472 28.6893 23.0346 28.6804 23.0242 28.6693C23.0137 28.6581 23.0056 28.645 23.0003 28.6307C22.9949 28.6164 22.9925 28.6012 22.9932 28.5859C22.9938 28.5707 22.9975 28.5557 23.004 28.5419L23.6159 27.1652C23.6282 27.1374 23.6511 27.1157 23.6795 27.1048C23.7079 27.0939 23.7395 27.0947 23.7673 27.1071ZM22.9402 27.4704C22.9629 27.4906 22.9767 27.5189 22.9785 27.5493C22.9803 27.5796 22.97 27.6095 22.9499 27.6322L22.7115 27.9002L22.9499 28.1682C22.9701 28.191 22.9804 28.2208 22.9786 28.2512C22.9768 28.2816 22.963 28.31 22.9402 28.3302C22.9289 28.3402 22.9158 28.3479 22.9016 28.3528C22.8873 28.3577 22.8723 28.3598 22.8572 28.3589C22.8268 28.3571 22.7984 28.3433 22.7782 28.3205L22.4723 27.9764C22.4537 27.9554 22.4434 27.9283 22.4434 27.9002C22.4434 27.8721 22.4537 27.845 22.4723 27.824L22.7782 27.4799C22.7882 27.4685 22.8004 27.4593 22.814 27.4527C22.8276 27.4461 22.8423 27.4423 22.8574 27.4414C22.8725 27.4405 22.8876 27.4426 22.9019 27.4476C22.9161 27.4526 22.9293 27.4603 22.9405 27.4704H22.9402ZM24.0116 27.4704C24.0228 27.4604 24.0359 27.4527 24.0502 27.4477C24.0644 27.4428 24.0795 27.4407 24.0945 27.4416C24.1096 27.4424 24.1243 27.4463 24.1379 27.4528C24.1514 27.4594 24.1635 27.4686 24.1736 27.4799L24.4795 27.824C24.4981 27.845 24.5084 27.8721 24.5084 27.9002C24.5084 27.9283 24.4981 27.9554 24.4795 27.9764L24.1736 28.3205C24.1534 28.3433 24.1249 28.3571 24.0946 28.3589C24.0642 28.3607 24.0343 28.3504 24.0116 28.3302C23.9888 28.31 23.975 28.2816 23.9732 28.2512C23.9714 28.2208 23.9817 28.191 24.0019 28.1682L24.2401 27.9002L24.0021 27.6322C23.9819 27.6095 23.9716 27.5796 23.9734 27.5493C23.9752 27.5189 23.989 27.4906 24.0117 27.4704H24.0116Z" fill="#605BFF"/>
</g>
<path d="M18.0586 7.95725C16.6259 7.73895 15.1632 7.82852 13.7678 8.22001C12.3725 8.6115 11.0766 9.2959 9.96657 10.2276C8.85654 11.1593 7.95784 12.3169 7.33037 13.6233C6.7029 14.9296 6.36108 16.3547 6.32768 17.8036" stroke="#605BFF" stroke-width="0.815808"/>
<path d="M17.2008 6.2926L18.0702 7.95283C18.1289 8.06491 18.1063 8.20231 18.0148 8.28969L16.7182 9.52786" stroke="#605BFF" stroke-width="0.815808" stroke-linecap="round"/>
<path d="M26.2906 25.5039C27.2667 24.4327 28.0034 23.1658 28.4515 21.7876C28.8995 20.4094 29.0487 18.9515 28.8889 17.511C28.7292 16.0706 28.2644 14.6808 27.5253 13.4342C26.7862 12.1876 25.7899 11.1128 24.6028 10.2816" stroke="#605BFF" stroke-width="0.815808"/>
<path d="M28.1508 25.713L26.2871 25.5158C26.1613 25.5025 26.0595 25.4075 26.0375 25.2829L25.7263 23.5173" stroke="#605BFF" stroke-width="0.815808" stroke-linecap="round"/>
<path d="M7.0337 24.1178C7.465 25.5013 8.18624 26.7771 9.14936 27.86C10.1125 28.9429 11.2953 29.8081 12.6191 30.3978C13.9429 30.9876 15.3772 31.2885 16.8264 31.2804C18.2756 31.2722 19.7064 30.9553 21.0235 30.3507" stroke="#605BFF" stroke-width="0.815808"/>
<path d="M5.91381 25.6176L7.02546 24.1088C7.10051 24.0069 7.23393 23.9671 7.35256 24.011L9.03354 24.6343" stroke="#605BFF" stroke-width="0.815808" stroke-linecap="round"/>
<rect x="20.3152" y="7.60618" width="3.05927" height="3.05929" stroke="#605BFF" stroke-width="0.611856"/>
<rect x="4.81517" y="19.0276" width="3.05927" height="3.05929" stroke="#605BFF" stroke-width="0.611856"/>
<g clip-path="url(#clip1_1916_49809)">
<path d="M6.63643 19.7643C6.66421 19.7767 6.68594 19.7996 6.69684 19.828C6.70774 19.8564 6.70692 19.8879 6.69455 19.9157L6.0827 21.2924C6.07678 21.3065 6.06812 21.3193 6.05721 21.3299C6.0463 21.3406 6.03337 21.349 6.01917 21.3546C6.00498 21.3603 5.9898 21.363 5.97454 21.3627C5.95927 21.3624 5.94422 21.359 5.93027 21.3528C5.91632 21.3466 5.90375 21.3376 5.8933 21.3265C5.88285 21.3154 5.87473 21.3023 5.86941 21.288C5.86408 21.2736 5.86167 21.2584 5.86232 21.2432C5.86296 21.2279 5.86664 21.2129 5.87314 21.1991L6.48499 19.8224C6.49737 19.7946 6.52028 19.7729 6.54868 19.762C6.57707 19.7511 6.60864 19.7519 6.63643 19.7643ZM5.80935 20.1276C5.83207 20.1478 5.84585 20.1762 5.84766 20.2065C5.84946 20.2369 5.83915 20.2667 5.81899 20.2894L5.58068 20.5574L5.81899 20.8254C5.83919 20.8482 5.84953 20.878 5.84772 20.9084C5.84591 20.9388 5.83211 20.9672 5.80935 20.9874C5.79809 20.9974 5.78496 21.0051 5.77072 21.01C5.75648 21.015 5.74141 21.017 5.72637 21.0161C5.69599 21.0143 5.66757 21.0005 5.64737 20.9778L5.34144 20.6336C5.3228 20.6126 5.3125 20.5855 5.3125 20.5574C5.3125 20.5293 5.3228 20.5022 5.34144 20.4812L5.64737 20.1371C5.65738 20.1258 5.66953 20.1166 5.68312 20.11C5.69671 20.1034 5.71147 20.0995 5.72654 20.0986C5.74162 20.0977 5.75673 20.0999 5.77099 20.1048C5.78525 20.1098 5.7984 20.1175 5.80966 20.1276H5.80935ZM6.88071 20.1276C6.89197 20.1176 6.90509 20.1099 6.91932 20.1049C6.93356 20.1 6.94862 20.0979 6.96367 20.0988C6.97871 20.0997 6.99343 20.1035 7.00699 20.1101C7.02055 20.1166 7.03268 20.1258 7.0427 20.1371L7.34862 20.4812C7.36727 20.5022 7.37756 20.5293 7.37756 20.5574C7.37756 20.5855 7.36727 20.6126 7.34862 20.6336L7.0427 20.9778C7.02249 21.0005 6.99408 21.0143 6.9637 21.0161C6.93332 21.0179 6.90347 21.0076 6.88071 20.9874C6.85795 20.9672 6.84415 20.9388 6.84234 20.9084C6.84053 20.878 6.85087 20.8482 6.87107 20.8254L7.10924 20.5574L6.87122 20.2894C6.85106 20.2667 6.84075 20.2369 6.84256 20.2065C6.84437 20.1762 6.85814 20.1478 6.88086 20.1276H6.88071Z" fill="#605BFF"/>
</g>
<rect x="21.946" y="26.3703" width="3.05927" height="3.05929" stroke="#605BFF" stroke-width="0.611856"/>
<g clip-path="url(#clip2_1916_49809)">
<path d="M22.1364 8.34292C22.1642 8.3553 22.1859 8.3782 22.1968 8.4066C22.2077 8.435 22.2069 8.46656 22.1946 8.49435L21.5827 9.87104C21.5768 9.88511 21.5681 9.89787 21.5572 9.90855C21.5463 9.91923 21.5334 9.92763 21.5192 9.93326C21.505 9.93888 21.4898 9.94161 21.4745 9.94129C21.4593 9.94097 21.4442 9.93761 21.4303 9.93139C21.4163 9.92518 21.4038 9.91625 21.3933 9.90512C21.3829 9.89399 21.3747 9.88088 21.3694 9.86657C21.3641 9.85226 21.3617 9.83703 21.3623 9.82177C21.363 9.80652 21.3666 9.79154 21.3731 9.77773L21.985 8.40104C21.9974 8.37326 22.0203 8.35153 22.0487 8.34063C22.0771 8.32973 22.1086 8.33055 22.1364 8.34292ZM21.3094 8.70621C21.3321 8.7264 21.3458 8.75479 21.3477 8.78513C21.3495 8.81548 21.3392 8.8453 21.319 8.86804L21.0807 9.13604L21.319 9.40403C21.3392 9.42679 21.3495 9.45665 21.3477 9.48702C21.3459 9.5174 21.3321 9.54582 21.3094 9.56602C21.2981 9.57603 21.285 9.58371 21.2707 9.58864C21.2565 9.59357 21.2414 9.59565 21.2264 9.59475C21.196 9.59295 21.1676 9.57915 21.1474 9.55639L20.8414 9.21222C20.8228 9.19122 20.8125 9.16412 20.8125 9.13604C20.8125 9.10796 20.8228 9.08086 20.8414 9.05986L21.1474 8.71569C21.1574 8.70439 21.1695 8.69517 21.1831 8.68857C21.1967 8.68197 21.2115 8.67812 21.2265 8.67724C21.2416 8.67636 21.2567 8.67847 21.271 8.68344C21.2853 8.68841 21.2984 8.69615 21.3097 8.70621H21.3094ZM22.3807 8.70621C22.392 8.69619 22.4051 8.68849 22.4193 8.68355C22.4336 8.6786 22.4486 8.67651 22.4637 8.67739C22.4787 8.67827 22.4934 8.68211 22.507 8.68868C22.5206 8.69525 22.5327 8.70443 22.5427 8.71569L22.8486 9.05986C22.8673 9.08086 22.8776 9.10796 22.8776 9.13604C22.8776 9.16412 22.8673 9.19122 22.8486 9.21222L22.5427 9.55639C22.5225 9.57915 22.4941 9.59295 22.4637 9.59475C22.4333 9.59656 22.4035 9.58623 22.3807 9.56602C22.3579 9.54582 22.3441 9.5174 22.3423 9.48702C22.3405 9.45665 22.3509 9.42679 22.3711 9.40403L22.6092 9.13604L22.3712 8.86804C22.3511 8.8453 22.3408 8.81548 22.3426 8.78513C22.3444 8.75479 22.3581 8.7264 22.3809 8.70621H22.3807Z" fill="#605BFF"/>
</g>
<defs>
<clipPath id="clip0_1916_49809">
<rect width="2.44741" height="2.44744" fill="white" transform="translate(22.252 26.6763)"/>
</clipPath>
<clipPath id="clip1_1916_49809">
<rect width="2.44741" height="2.44744" fill="white" transform="translate(5.12109 19.3335)"/>
</clipPath>
<clipPath id="clip2_1916_49809">
<rect width="2.44741" height="2.44744" fill="white" transform="translate(20.6211 7.91211)"/>
</clipPath>
</defs>
</svg>
