<svg width="21" height="21" viewBox="0 0 21 21" fill="none" xmlns="http://www.w3.org/2000/svg">
<path d="M4.00008 20.5C3.35101 20.4998 2.71478 20.3192 2.16247 19.9782C1.61016 19.6373 1.16354 19.1495 0.872516 18.5693C0.581491 17.9891 0.457527 17.3395 0.514476 16.6929C0.571426 16.0463 0.807044 15.4283 1.195 14.908C1.58296 14.3876 2.10798 13.9854 2.71138 13.7462C3.31478 13.5071 3.9728 13.4404 4.61191 13.5537C5.25101 13.667 5.84602 13.9558 6.33045 14.3878C6.81487 14.8198 7.16963 15.378 7.35508 16H13.0001V14H15.0001V8.24198L12.7571 5.99998H7.00008V7.99998H1.00008V1.99998H7.00008V3.99998H12.7571L16.0001 0.755981L20.2431 4.99998L17.0001 8.24098V14H19.0001V20H13.0001V18H7.35508C7.1394 18.7223 6.69642 19.3557 6.09197 19.8061C5.48753 20.2565 4.75388 20.4999 4.00008 20.5ZM4.00008 15.5C3.60226 15.5 3.22072 15.658 2.93942 15.9393C2.65812 16.2206 2.50008 16.6022 2.50008 17C2.50008 17.3978 2.65812 17.7793 2.93942 18.0606C3.22072 18.3419 3.60226 18.5 4.00008 18.5C4.3979 18.5 4.77944 18.3419 5.06074 18.0606C5.34204 17.7793 5.50008 17.3978 5.50008 17C5.50008 16.6022 5.34204 16.2206 5.06074 15.9393C4.77944 15.658 4.3979 15.5 4.00008 15.5ZM17.0001 16H15.0001V18H17.0001V16ZM16.0001 3.58598L14.5861 4.99998L16.0001 6.41398L17.4141 4.99998L16.0001 3.58598ZM5.00008 3.99998H3.00008V5.99998H5.00008V3.99998Z" fill="#D46213"/>
</svg>
