<svg width="24" height="24" viewBox="0 0 24 24" fill="none" xmlns="http://www.w3.org/2000/svg">
<path fill-rule="evenodd" clip-rule="evenodd" d="M4.5 3.75C4.30109 3.75 4.11032 3.82902 3.96967 3.96967C3.82902 4.11032 3.75 4.30109 3.75 4.5V19.5C3.75 19.6989 3.82902 19.8897 3.96967 20.0303C4.11032 20.171 4.30109 20.25 4.5 20.25H12.375C12.6734 20.25 12.9595 20.3685 13.1705 20.5795C13.3815 20.7905 13.5 21.0766 13.5 21.375C13.5 21.6734 13.3815 21.9595 13.1705 22.1705C12.9595 22.3815 12.6734 22.5 12.375 22.5H4.5C3.70435 22.5 2.94129 22.1839 2.37868 21.6213C1.81607 21.0587 1.5 20.2956 1.5 19.5V4.5C1.5 3.70435 1.81607 2.94129 2.37868 2.37868C2.94129 1.81607 3.70435 1.5 4.5 1.5H19.5C20.2956 1.5 21.0587 1.81607 21.6213 2.37868C22.1839 2.94129 22.5 3.70435 22.5 4.5V13.875C22.5 14.1734 22.3815 14.4595 22.1705 14.6705C21.9595 14.8815 21.6734 15 21.375 15C21.0766 15 20.7905 14.8815 20.5795 14.6705C20.3685 14.4595 20.25 14.1734 20.25 13.875V4.5C20.25 4.30109 20.171 4.11032 20.0303 3.96967C19.8897 3.82902 19.6989 3.75 19.5 3.75H4.5ZM22.92 16.83C23.1307 17.0409 23.249 17.3269 23.249 17.625C23.249 17.9231 23.1307 18.2091 22.92 18.42L19.17 22.17C18.9591 22.3807 18.6731 22.499 18.375 22.499C18.0769 22.499 17.7909 22.3807 17.58 22.17L16.08 20.67C15.9695 20.567 15.8808 20.4428 15.8193 20.3048C15.7578 20.1668 15.7248 20.0178 15.7221 19.8668C15.7194 19.7157 15.7472 19.5657 15.8038 19.4256C15.8604 19.2855 15.9446 19.1583 16.0514 19.0514C16.1583 18.9446 16.2855 18.8604 16.4256 18.8038C16.5657 18.7472 16.7157 18.7194 16.8668 18.7221C17.0178 18.7248 17.1668 18.7578 17.3048 18.8193C17.4428 18.8808 17.567 18.9695 17.67 19.08L18.375 19.785L21.33 16.83C21.5409 16.6193 21.8269 16.501 22.125 16.501C22.4231 16.501 22.7091 16.6193 22.92 16.83ZM7.125 6C6.82663 6 6.54048 6.11853 6.3295 6.3295C6.11853 6.54048 6 6.82663 6 7.125C6 7.42337 6.11853 7.70952 6.3295 7.9205C6.54048 8.13147 6.82663 8.25 7.125 8.25H16.875C17.1734 8.25 17.4595 8.13147 17.6705 7.9205C17.8815 7.70952 18 7.42337 18 7.125C18 6.82663 17.8815 6.54048 17.6705 6.3295C17.4595 6.11853 17.1734 6 16.875 6H7.125ZM6 12C6 11.7016 6.11853 11.4155 6.3295 11.2045C6.54048 10.9935 6.82663 10.875 7.125 10.875H16.875C17.1734 10.875 17.4595 10.9935 17.6705 11.2045C17.8815 11.4155 18 11.7016 18 12C18 12.2984 17.8815 12.5845 17.6705 12.7955C17.4595 13.0065 17.1734 13.125 16.875 13.125H7.125C6.82663 13.125 6.54048 13.0065 6.3295 12.7955C6.11853 12.5845 6 12.2984 6 12ZM7.125 15.75C6.82663 15.75 6.54048 15.8685 6.3295 16.0795C6.11853 16.2905 6 16.5766 6 16.875C6 17.1734 6.11853 17.4595 6.3295 17.6705C6.54048 17.8815 6.82663 18 7.125 18H12.375C12.6734 18 12.9595 17.8815 13.1705 17.6705C13.3815 17.4595 13.5 17.1734 13.5 16.875C13.5 16.5766 13.3815 16.2905 13.1705 16.0795C12.9595 15.8685 12.6734 15.75 12.375 15.75H7.125Z" fill="black"/>
</svg>
