<svg width="113" height="48" viewBox="0 0 113 48" fill="none" xmlns="http://www.w3.org/2000/svg">
<path d="M41 26C40.4477 26 40 26.4477 40 27C40 27.5523 40.4477 28 41 28V26ZM72.7071 27.7071C73.0976 27.3166 73.0976 26.6834 72.7071 26.2929L66.3431 19.9289C65.9526 19.5384 65.3195 19.5384 64.9289 19.9289C64.5384 20.3195 64.5384 20.9526 64.9289 21.3431L70.5858 27L64.9289 32.6569C64.5384 33.0474 64.5384 33.6805 64.9289 34.0711C65.3195 34.4616 65.9526 34.4616 66.3431 34.0711L72.7071 27.7071ZM41 28H72V26H41V28Z" fill="#757575"/>
<path d="M37.06 18L26 6.94C25.719 6.65862 25.3377 6.50035 24.94 6.5H16C14.5413 6.5 13.1424 7.07946 12.1109 8.11091C11.0795 9.14236 10.5 10.5413 10.5 12V36C10.5 37.4587 11.0795 38.8576 12.1109 39.8891C13.1424 40.9205 14.5413 41.5 16 41.5H32C33.4587 41.5 34.8576 40.9205 35.8891 39.8891C36.9205 38.8576 37.5 37.4587 37.5 36V19C37.4843 18.6232 37.3272 18.2662 37.06 18V18ZM26.5 11.62L32.38 17.5H26.5V11.62ZM32 38.5H16C15.337 38.5 14.7011 38.2366 14.2322 37.7678C13.7634 37.2989 13.5 36.663 13.5 36V12C13.5 11.337 13.7634 10.7011 14.2322 10.2322C14.7011 9.76339 15.337 9.5 16 9.5H23.5V19C23.5052 19.3962 23.6649 19.7747 23.9451 20.0549C24.2253 20.3351 24.6038 20.4948 25 20.5H34.5V36C34.5 36.663 34.2366 37.2989 33.7678 37.7678C33.2989 38.2366 32.663 38.5 32 38.5Z" fill="#757575"/>
<path d="M15.5293 12H21.5293" stroke="#757575" stroke-width="1.76471" stroke-linecap="round"/>
<path d="M15.5293 14.8242H21.5293" stroke="#757575" stroke-width="1.76471" stroke-linecap="round"/>
<path d="M15.5293 18.7051H21.5293" stroke="#757575" stroke-width="1.76471" stroke-linecap="round"/>
<path d="M15.5293 21.5293H21.5293" stroke="#757575" stroke-width="1.76471" stroke-linecap="round"/>
<path d="M15.5293 25.7656H32.8234" stroke="#757575" stroke-width="1.76471" stroke-linecap="round"/>
<path d="M15.5293 28.5898H32.8234" stroke="#757575" stroke-width="1.76471" stroke-linecap="round"/>
<path d="M15.5293 32.8242H32.8234" stroke="#757575" stroke-width="1.76471" stroke-linecap="round"/>
<path d="M15.5293 35.6484H32.8234" stroke="#757575" stroke-width="1.76471" stroke-linecap="round"/>
<path d="M102.06 18L91 6.94C90.719 6.65862 90.3377 6.50035 89.94 6.5H81C79.5413 6.5 78.1424 7.07946 77.1109 8.11091C76.0795 9.14236 75.5 10.5413 75.5 12V36C75.5 37.4587 76.0795 38.8576 77.1109 39.8891C78.1424 40.9205 79.5413 41.5 81 41.5H97C98.4587 41.5 99.8576 40.9205 100.889 39.8891C101.921 38.8576 102.5 37.4587 102.5 36V19C102.484 18.6232 102.327 18.2662 102.06 18V18ZM91.5 11.62L97.38 17.5H91.5V11.62ZM97 38.5H81C80.337 38.5 79.7011 38.2366 79.2322 37.7678C78.7634 37.2989 78.5 36.663 78.5 36V12C78.5 11.337 78.7634 10.7011 79.2322 10.2322C79.7011 9.76339 80.337 9.5 81 9.5H88.5V19C88.5052 19.3962 88.6649 19.7747 88.9451 20.0549C89.2253 20.3351 89.6038 20.4948 90 20.5H99.5V36C99.5 36.663 99.2366 37.2989 98.7678 37.7678C98.2989 38.2366 97.663 38.5 97 38.5Z" fill="#757575"/>
<path d="M80.5293 12H86.5293" stroke="#605BFF" stroke-width="1.76471" stroke-linecap="round"/>
<path d="M80.5293 14.8242H86.5293" stroke="#605BFF" stroke-width="1.76471" stroke-linecap="round"/>
<path d="M80.5293 18.707H86.5293" stroke="#605BFF" stroke-width="1.76471" stroke-linecap="round"/>
<path d="M80.5293 21.5312H86.5293" stroke="#605BFF" stroke-width="1.76471" stroke-linecap="round"/>
<path d="M80.5293 25.7637H97.8234" stroke="#605BFF" stroke-width="1.76471" stroke-linecap="round"/>
<path d="M80.5293 28.5879H97.8234" stroke="#605BFF" stroke-width="1.76471" stroke-linecap="round"/>
<path d="M80.5293 32.8223H97.8234" stroke="#605BFF" stroke-width="1.76471" stroke-linecap="round"/>
<path d="M80.5293 35.6465H97.8234" stroke="#605BFF" stroke-width="1.76471" stroke-linecap="round"/>
</svg>