<svg width="121" height="121" viewBox="0 0 121 121" fill="none" xmlns="http://www.w3.org/2000/svg">
<rect x="12" y="12" width="97" height="97" rx="2" fill="#411980"/>
<rect x="14.5" y="14.5" width="92" height="92" rx="1.5" fill="#411980" stroke="white"/>
<path d="M85.03 61.015C86.1346 61.015 87.0374 61.9117 86.9587 63.0134C86.5804 68.3035 84.7064 73.3929 81.5355 77.6784C77.967 82.5012 72.9445 86.051 67.2072 87.8054C61.47 89.5598 55.3211 89.4261 49.6655 87.4239C44.01 85.4216 39.1466 81.6567 35.7912 76.6833C32.4358 71.7098 30.7656 65.7906 31.0265 59.7967C31.2874 53.8029 33.4656 48.0512 37.2404 43.3881C41.0153 38.725 46.1874 35.3969 51.9955 33.8937C57.1565 32.5579 62.5773 32.7257 67.6243 34.3556C68.6754 34.6951 69.1688 35.868 68.7552 36.8922L68.2611 38.116C67.8476 39.1402 66.6838 39.6261 65.6271 39.3043C61.6421 38.0906 57.3861 37.9935 53.3284 39.0437C48.6232 40.2615 44.4332 42.9576 41.3752 46.7352C38.3171 50.5129 36.5525 55.1724 36.3412 60.0281C36.1298 64.8837 37.4829 69.679 40.2011 73.708C42.9194 77.7371 46.8593 80.7871 51.4409 82.4091C56.0225 84.0311 61.0038 84.1395 65.6516 82.7182C70.2994 81.297 74.3682 78.4212 77.2591 74.5142C79.7522 71.1448 81.2556 67.162 81.6222 63.0125C81.7194 61.9122 82.6057 61.015 83.7103 61.015H85.03Z" fill="white"/>
<path d="M66 59C64.8954 59 64 59.8954 64 61C64 62.1046 64.8954 63 66 63L66 59ZM66 63L87 63L87 59L66 59L66 63Z" fill="white"/>
<path d="M46.3373 92.9808L46.2273 92.9368L46.1093 92.9469C46.1083 92.947 46.1074 92.947 46.1065 92.9471C46.0055 92.7892 45.9123 92.4992 45.8963 92.0598C45.8786 91.5723 45.9601 90.9947 46.1365 90.4203L46.1377 90.4161L46.2453 90.0545L54.1546 68.7127L54.3401 68.2121L53.8283 68.0597L46.9252 66.0051L46.9243 66.0049C46.8954 65.9963 46.7977 65.9493 46.7076 65.7128L46.2423 65.8901L46.7076 65.7128C46.6185 65.479 46.569 65.1326 46.5916 64.6991L46.5918 64.6991L46.5921 64.685C46.6024 64.2507 46.6816 63.7665 46.8247 63.2854C46.9679 62.8044 47.1665 62.3556 47.3953 61.9864L47.3968 61.9839L54.1382 50.9636L67.3134 30.5432L67.3134 30.5432L67.3176 30.5366C67.5947 30.0919 67.8702 29.8515 68.0641 29.77C68.152 29.7331 68.2005 29.7376 68.2212 29.7425C68.2398 29.7469 68.2761 29.7606 68.3247 29.8208L68.3245 29.8209L68.3329 29.8308C68.4496 29.9681 68.5692 30.2753 68.5875 30.7787C68.6053 31.2662 68.5237 31.8438 68.3474 32.4182L68.3474 32.4182L68.3461 32.4224L68.2385 32.784L60.3293 54.1258L60.1437 54.6264L60.6555 54.7787L67.5746 56.8381L67.5755 56.8384C67.6043 56.8469 67.702 56.8939 67.7922 57.1304C67.8813 57.3643 67.9307 57.7106 67.9082 58.1441L67.908 58.1441L67.9076 58.1582C67.8973 58.5925 67.8182 59.0768 67.675 59.5578C67.5318 60.0389 67.3333 60.4876 67.1044 60.8569L67.1029 60.8593L60.3615 71.8796L47.1911 92.2929C47.1903 92.294 47.1896 92.2951 47.1888 92.2963C46.9797 92.6077 46.7726 92.8084 46.6023 92.9108L46.8598 93.3394L46.6023 92.9108C46.4353 93.0111 46.3579 92.9891 46.3373 92.9808Z" stroke="white"/>
<rect y="75" width="2" height="12" transform="rotate(-90 0 75)" fill="#CECCCC" fill-opacity="0.49"/>
<g style="mix-blend-mode:multiply" opacity="0.8">
<rect x="5" y="76" width="4" height="7" transform="rotate(-90 5 76)" fill="#B3B3B3" fill-opacity="0.54"/>
</g>
<rect x="74" y="121" width="2" height="12" transform="rotate(180 74 121)" fill="#CECCCC" fill-opacity="0.49"/>
<g style="mix-blend-mode:multiply" opacity="0.8">
<rect x="75" y="116" width="4" height="7" transform="rotate(180 75 116)" fill="#B3B3B3" fill-opacity="0.54"/>
</g>
<rect x="45" width="2" height="12" fill="#CECCCC" fill-opacity="0.49"/>
<g style="mix-blend-mode:multiply" opacity="0.8">
<rect x="44" y="5" width="4" height="7" fill="#B3B3B3" fill-opacity="0.54"/>
</g>
<rect x="121" y="46" width="2" height="12" transform="rotate(90 121 46)" fill="#CECCCC" fill-opacity="0.49"/>
<g style="mix-blend-mode:multiply" opacity="0.8">
<rect x="116" y="45" width="4" height="7" transform="rotate(90 116 45)" fill="#B3B3B3" fill-opacity="0.54"/>
</g>
<rect y="66" width="2" height="12" transform="rotate(-90 0 66)" fill="#CECCCC" fill-opacity="0.49"/>
<g style="mix-blend-mode:multiply" opacity="0.8">
<rect x="5" y="67" width="4" height="7" transform="rotate(-90 5 67)" fill="#B3B3B3" fill-opacity="0.54"/>
</g>
<rect x="65" y="121" width="2" height="12" transform="rotate(180 65 121)" fill="#CECCCC" fill-opacity="0.49"/>
<g style="mix-blend-mode:multiply" opacity="0.8">
<rect x="66" y="116" width="4" height="7" transform="rotate(180 66 116)" fill="#B3B3B3" fill-opacity="0.54"/>
</g>
<rect x="54" width="2" height="12" fill="#CECCCC" fill-opacity="0.49"/>
<g style="mix-blend-mode:multiply" opacity="0.8">
<rect x="53" y="5" width="4" height="7" fill="#B3B3B3" fill-opacity="0.54"/>
</g>
<rect x="121" y="55" width="2" height="12" transform="rotate(90 121 55)" fill="#CECCCC" fill-opacity="0.49"/>
<g style="mix-blend-mode:multiply" opacity="0.8">
<rect x="116" y="54" width="4" height="7" transform="rotate(90 116 54)" fill="#B3B3B3" fill-opacity="0.54"/>
</g>
<rect y="57" width="2" height="12" transform="rotate(-90 0 57)" fill="#CECCCC" fill-opacity="0.49"/>
<g style="mix-blend-mode:multiply" opacity="0.8">
<rect x="5" y="58" width="4" height="7" transform="rotate(-90 5 58)" fill="#B3B3B3" fill-opacity="0.54"/>
</g>
<rect x="56" y="121" width="2" height="12" transform="rotate(180 56 121)" fill="#CECCCC" fill-opacity="0.49"/>
<g style="mix-blend-mode:multiply" opacity="0.8">
<rect x="57" y="116" width="4" height="7" transform="rotate(180 57 116)" fill="#B3B3B3" fill-opacity="0.54"/>
</g>
<rect x="63" width="2" height="12" fill="#CECCCC" fill-opacity="0.49"/>
<g style="mix-blend-mode:multiply" opacity="0.8">
<rect x="62" y="5" width="4" height="7" fill="#B3B3B3" fill-opacity="0.54"/>
</g>
<rect x="121" y="64" width="2" height="12" transform="rotate(90 121 64)" fill="#CECCCC" fill-opacity="0.49"/>
<g style="mix-blend-mode:multiply" opacity="0.8">
<rect x="116" y="63" width="4" height="7" transform="rotate(90 116 63)" fill="#B3B3B3" fill-opacity="0.54"/>
</g>
<rect y="48" width="2" height="12" transform="rotate(-90 0 48)" fill="#CECCCC" fill-opacity="0.49"/>
<g style="mix-blend-mode:multiply" opacity="0.8">
<rect x="5" y="49" width="4" height="7" transform="rotate(-90 5 49)" fill="#B3B3B3" fill-opacity="0.54"/>
</g>
<rect x="47" y="121" width="2" height="12" transform="rotate(180 47 121)" fill="#CECCCC" fill-opacity="0.49"/>
<g style="mix-blend-mode:multiply" opacity="0.8">
<rect x="48" y="116" width="4" height="7" transform="rotate(180 48 116)" fill="#B3B3B3" fill-opacity="0.54"/>
</g>
<rect x="72" width="2" height="12" fill="#CECCCC" fill-opacity="0.49"/>
<g style="mix-blend-mode:multiply" opacity="0.8">
<rect x="71" y="5" width="4" height="7" fill="#B3B3B3" fill-opacity="0.54"/>
</g>
<rect x="121" y="73" width="2" height="12" transform="rotate(90 121 73)" fill="#CECCCC" fill-opacity="0.49"/>
<g style="mix-blend-mode:multiply" opacity="0.8">
<rect x="116" y="72" width="4" height="7" transform="rotate(90 116 72)" fill="#B3B3B3" fill-opacity="0.54"/>
</g>
</svg>
