<svg width="24" height="24" viewBox="0 0 24 24" fill="none" xmlns="http://www.w3.org/2000/svg">
<path d="M8.00049 6H20.0005V8.33333H8.00049V6ZM8.00049 11H20.0005V13.3333H8.00049V11ZM8.00049 16H20.0005V18.3333H8.00049V16Z" fill="#212121"/>
<path d="M3.99951 16H6.33285V18.3333H3.99951V16ZM3.99951 11H6.33285V13.3333H3.99951V11ZM3.99951 6H6.33285V8.33333H3.99951V6Z" fill="#212121"/>
<path d="M19.6662 8.33333H8.33285C8.24444 8.33333 8.15966 8.29821 8.09714 8.2357C8.03463 8.17319 7.99951 8.08841 7.99951 8V6.33333C7.99951 6.24493 8.03463 6.16014 8.09714 6.09763C8.15966 6.03512 8.24444 6 8.33285 6H19.6662C19.7546 6 19.8394 6.03512 19.9019 6.09763C19.9644 6.16014 19.9995 6.24493 19.9995 6.33333V8C19.9995 8.08841 19.9644 8.17319 19.9019 8.2357C19.8394 8.29821 19.7546 8.33333 19.6662 8.33333ZM19.6662 13.3333H8.33285C8.24444 13.3333 8.15966 13.2982 8.09714 13.2357C8.03463 13.1732 7.99951 13.0884 7.99951 13V11.3333C7.99951 11.2449 8.03463 11.1601 8.09714 11.0976C8.15966 11.0351 8.24444 11 8.33285 11H19.6662C19.7546 11 19.8394 11.0351 19.9019 11.0976C19.9644 11.1601 19.9995 11.2449 19.9995 11.3333V13C19.9995 13.0884 19.9644 13.1732 19.9019 13.2357C19.8394 13.2982 19.7546 13.3333 19.6662 13.3333ZM19.6662 18.3333H8.33285C8.24444 18.3333 8.15966 18.2982 8.09714 18.2357C8.03463 18.1732 7.99951 18.0884 7.99951 18V16.3333C7.99951 16.2449 8.03463 16.1601 8.09714 16.0976C8.15966 16.0351 8.24444 16 8.33285 16H19.6662C19.7546 16 19.8394 16.0351 19.9019 16.0976C19.9644 16.1601 19.9995 16.2449 19.9995 16.3333V18C19.9995 18.0884 19.9644 18.1732 19.9019 18.2357C19.8394 18.2982 19.7546 18.3333 19.6662 18.3333ZM5.99951 8.33333H4.33285C4.24444 8.33333 4.15966 8.29821 4.09714 8.2357C4.03463 8.17319 3.99951 8.08841 3.99951 8V6.33333C3.99951 6.24493 4.03463 6.16014 4.09714 6.09763C4.15966 6.03512 4.24444 6 4.33285 6H5.99951C6.08792 6 6.1727 6.03512 6.23521 6.09763C6.29773 6.16014 6.33285 6.24493 6.33285 6.33333V8C6.33285 8.08841 6.29773 8.17319 6.23521 8.2357C6.1727 8.29821 6.08792 8.33333 5.99951 8.33333ZM5.99951 13.3333H4.33285C4.24444 13.3333 4.15966 13.2982 4.09714 13.2357C4.03463 13.1732 3.99951 13.0884 3.99951 13V11.3333C3.99951 11.2449 4.03463 11.1601 4.09714 11.0976C4.15966 11.0351 4.24444 11 4.33285 11H5.99951C6.08792 11 6.1727 11.0351 6.23521 11.0976C6.29773 11.1601 6.33285 11.2449 6.33285 11.3333V13C6.33285 13.0884 6.29773 13.1732 6.23521 13.2357C6.1727 13.2982 6.08792 13.3333 5.99951 13.3333ZM5.99951 18.3333H4.33285C4.24444 18.3333 4.15966 18.2982 4.09714 18.2357C4.03463 18.1732 3.99951 18.0884 3.99951 18V16.3333C3.99951 16.2449 4.03463 16.1601 4.09714 16.0976C4.15966 16.0351 4.24444 16 4.33285 16H5.99951C6.08792 16 6.1727 16.0351 6.23521 16.0976C6.29773 16.1601 6.33285 16.2449 6.33285 16.3333V18C6.33285 18.0884 6.29773 18.1732 6.23521 18.2357C6.1727 18.2982 6.08792 18.3333 5.99951 18.3333Z" stroke="#212121" stroke-width="0.388889" stroke-miterlimit="10" stroke-linecap="round" stroke-linejoin="round"/>
</svg>
