<svg width="160" height="160" viewBox="0 0 160 160" fill="none" xmlns="http://www.w3.org/2000/svg">
<path d="M43.3333 110H56.6666V69.9999H43.3333V110ZM116.667 73.3333C116.667 69.6666 113.667 66.6666 110 66.6666H88.9666L92.1333 51.4333L92.2333 50.3666C92.2333 48.9999 91.6666 47.7333 90.7666 46.8333L87.2333 43.3333L65.2999 65.2999C64.0666 66.4999 63.3333 68.1666 63.3333 69.9999V103.333C63.3333 107 66.3333 110 69.9999 110H99.9999C102.767 110 105.133 108.333 106.133 105.933L116.2 82.4333C116.5 81.6666 116.667 80.8666 116.667 79.9999V73.3333Z" fill="#008C5D"/>
<circle cx="80" cy="80" r="78.5" stroke="#008C5D" stroke-width="3"/>
</svg>
