<svg width="68" height="99" viewBox="0 0 68 99" fill="none" xmlns="http://www.w3.org/2000/svg">
<g clip-path="url(#clip0_334_50220)">
<path d="M27.5435 15.7656H13.413C12.6429 15.7974 12.0283 16.4889 12 17.3553V28.483C12.0283 29.3494 12.6429 30.0409 13.413 30.0727H27.5435C28.3136 30.0409 28.9283 29.3494 28.9565 28.483V17.3553C28.9435 16.9383 28.7905 16.5425 28.5282 16.2474C28.266 15.9524 27.9141 15.7803 27.5435 15.7656ZM27.5435 28.483H13.413V17.3553H27.5435V28.483ZM14.1196 18.7463V19.5411H18.3587V18.7463H14.1196Z" fill="#979797"/>
<g clip-path="url(#clip1_334_50220)">
<rect width="16.9565" height="14.3071" transform="translate(14.125 13.3828)" fill="white"/>
<path d="M29.6685 13.3828H15.538C14.7679 13.4146 14.1533 14.1061 14.125 14.9725V26.1002C14.1533 26.9666 14.7679 27.6581 15.538 27.6899H29.6685C30.4386 27.6581 31.0533 26.9666 31.0815 26.1002V14.9725C31.0685 14.5555 30.9155 14.1596 30.6532 13.8646C30.391 13.5696 30.0391 13.3974 29.6685 13.3828ZM29.6685 26.1002H15.538V14.9725H29.6685V26.1002ZM16.2446 16.3635V17.1583H20.4837V16.3635H16.2446Z" fill="#979797"/>
</g>
</g>
<g clip-path="url(#clip2_334_50220)">
<path d="M27.9263 40.5625H13.7959C13.0257 40.5943 12.4111 41.2858 12.3828 42.1522V53.2799C12.4111 54.1463 13.0257 54.8378 13.7959 54.8696H27.9263C28.6964 54.8378 29.3111 54.1463 29.3393 53.2799V42.1522C29.3263 41.7352 29.1733 41.3393 28.9111 41.0443C28.6488 40.7493 28.2969 40.5771 27.9263 40.5625ZM27.9263 53.2799H13.7959V42.1522H27.9263V53.2799ZM14.5024 43.5431V44.338H18.7415V43.5431H14.5024Z" fill="#979797"/>
<g clip-path="url(#clip3_334_50220)">
<rect width="16.9565" height="14.3071" transform="translate(14.5078 38.1797)" fill="white"/>
<path d="M30.0513 38.1797H15.9209C15.1507 38.2115 14.5361 38.903 14.5078 39.7694V50.8971C14.5361 51.7635 15.1507 52.455 15.9209 52.4868H30.0513C30.8214 52.455 31.4361 51.7635 31.4643 50.8971V39.7694C31.4513 39.3524 31.2983 38.9565 31.0361 38.6615C30.7738 38.3665 30.4219 38.1943 30.0513 38.1797ZM30.0513 50.8971H15.9209V39.7694H30.0513V50.8971ZM16.6274 41.1603V41.9552H20.8665V41.1603H16.6274Z" fill="#979797"/>
</g>
</g>
<g clip-path="url(#clip4_334_50220)">
<path d="M52.3404 40.5625H38.2099C37.4398 40.5943 36.8251 41.2858 36.7969 42.1522V53.2799C36.8251 54.1463 37.4398 54.8378 38.2099 54.8696H52.3404C53.1105 54.8378 53.7251 54.1463 53.7534 53.2799V42.1522C53.7404 41.7352 53.5873 41.3393 53.3251 41.0443C53.0629 40.7493 52.711 40.5771 52.3404 40.5625ZM52.3404 53.2799H38.2099V42.1522H52.3404V53.2799ZM38.9164 43.5431V44.338H43.1556V43.5431H38.9164Z" fill="#979797"/>
<g clip-path="url(#clip5_334_50220)">
<rect width="16.9565" height="14.3071" transform="translate(38.9219 38.1797)" fill="white"/>
<path d="M54.4654 38.1797H40.3349C39.5648 38.2115 38.9501 38.903 38.9219 39.7694V50.8971C38.9501 51.7635 39.5648 52.455 40.3349 52.4868H54.4654C55.2355 52.455 55.8501 51.7635 55.8784 50.8971V39.7694C55.8654 39.3524 55.7123 38.9565 55.4501 38.6615C55.1879 38.3665 54.836 38.1943 54.4654 38.1797ZM54.4654 50.8971H40.3349V39.7694H54.4654V50.8971ZM41.0414 41.1603V41.9552H45.2806V41.1603H41.0414Z" fill="#979797"/>
</g>
</g>
<g clip-path="url(#clip6_334_50220)">
<path d="M52.3404 16.1562H38.2099C37.4398 16.188 36.8251 16.8796 36.7969 17.7459V28.8736C36.8251 29.74 37.4398 30.4315 38.2099 30.4633H52.3404C53.1105 30.4315 53.7251 29.74 53.7534 28.8736V17.7459C53.7404 17.329 53.5873 16.9331 53.3251 16.6381C53.0629 16.3431 52.711 16.1709 52.3404 16.1562ZM52.3404 28.8736H38.2099V17.7459H52.3404V28.8736ZM38.9164 19.1369V19.9317H43.1556V19.1369H38.9164Z" fill="#979797"/>
<g clip-path="url(#clip7_334_50220)">
<rect width="16.9565" height="14.3071" transform="translate(38.9219 13.7656)" fill="white"/>
<path d="M54.4654 13.7656H40.3349C39.5648 13.7974 38.9501 14.4889 38.9219 15.3553V26.483C38.9501 27.3494 39.5648 28.0409 40.3349 28.0727H54.4654C55.2355 28.0409 55.8501 27.3494 55.8784 26.483V15.3553C55.8654 14.9383 55.7123 14.5425 55.4501 14.2474C55.1879 13.9524 54.836 13.7803 54.4654 13.7656ZM54.4654 26.483H40.3349V15.3553H54.4654V26.483ZM41.0414 16.7463V17.5411H45.2806V16.7463H41.0414Z" fill="#979797"/>
</g>
</g>
<g clip-path="url(#clip8_334_50220)">
<path d="M1.46875 32.0245C1.46875 -9.3415 66.4687 -9.3415 66.4687 32.0245C66.4687 61.5692 36.9241 55.6585 36.9241 91.1138" stroke="#979797" stroke-width="1.5" stroke-linecap="round" stroke-linejoin="round"/>
<circle cx="37" cy="97" r="2" fill="#979797"/>
</g>
<defs>
<clipPath id="clip0_334_50220">
<rect width="19.0761" height="19.0761" fill="white" transform="translate(12 11)"/>
</clipPath>
<clipPath id="clip1_334_50220">
<rect width="16.9565" height="14.3071" fill="white" transform="translate(14.125 13.3828)"/>
</clipPath>
<clipPath id="clip2_334_50220">
<rect width="19.0761" height="19.0761" fill="white" transform="translate(12.3828 35.7969)"/>
</clipPath>
<clipPath id="clip3_334_50220">
<rect width="16.9565" height="14.3071" fill="white" transform="translate(14.5078 38.1797)"/>
</clipPath>
<clipPath id="clip4_334_50220">
<rect width="19.0761" height="19.0761" fill="white" transform="translate(36.7969 35.7969)"/>
</clipPath>
<clipPath id="clip5_334_50220">
<rect width="16.9565" height="14.3071" fill="white" transform="translate(38.9219 38.1797)"/>
</clipPath>
<clipPath id="clip6_334_50220">
<rect width="19.0761" height="19.0761" fill="white" transform="translate(36.7969 11.3828)"/>
</clipPath>
<clipPath id="clip7_334_50220">
<rect width="16.9565" height="14.3071" fill="white" transform="translate(38.9219 13.7656)"/>
</clipPath>
<clipPath id="clip8_334_50220">
<rect width="68" height="99" fill="white"/>
</clipPath>
</defs>
</svg>
