<svg width="24" height="24" viewBox="0 0 24 24" fill="none" xmlns="http://www.w3.org/2000/svg">
<path d="M19.5556 6H1.77778C0.808889 6.04 0.0355556 6.91 0 8V22C0.0355556 23.09 0.808889 23.96 1.77778 24H19.5556C20.5244 23.96 21.2978 23.09 21.3333 22V8C21.317 7.47543 21.1244 6.97734 20.7945 6.60619C20.4646 6.23503 20.0218 6.01841 19.5556 6ZM19.5556 22H1.77778V8H19.5556V22ZM2.66667 9.75V10.75H8V9.75H2.66667Z" fill="#605BFF"/>
<g clip-path="url(#clip0_8067_43380)">
<rect width="21.3333" height="18" transform="translate(2.66406 3)" fill="white"/>
<path d="M22.2196 3H4.44184C3.47295 3.04 2.69962 3.91 2.66406 5V19C2.69962 20.09 3.47295 20.96 4.44184 21H22.2196C23.1885 20.96 23.9618 20.09 23.9974 19V5C23.981 4.47543 23.7885 3.97734 23.4586 3.60619C23.1286 3.23503 22.6859 3.01841 22.2196 3ZM22.2196 19H4.44184V5H22.2196V19ZM5.33073 6.75V7.75H10.6641V6.75H5.33073Z" fill="#605BFF"/>
</g>
<defs>
<clipPath id="clip0_8067_43380">
<rect width="21.3333" height="18" fill="white" transform="translate(2.66406 3)"/>
</clipPath>
</defs>
</svg>
