<svg width="29" height="29" viewBox="0 0 29 29" fill="none" xmlns="http://www.w3.org/2000/svg">
<path d="M2.9 14.5006C2.9 11.1221 4.379 8.0916 6.699 5.9746L8.9175 8.1931C9.367 8.6426 10.15 8.3236 10.15 7.6711V1.4506C10.15 1.0446 9.831 0.725596 9.425 0.725596H3.2045C2.552 0.725596 2.233 1.5086 2.697 1.9581L4.64 3.9156C1.798 6.5546 0 10.3101 0 14.5006C0 21.3881 4.814 27.1591 11.252 28.6381C12.1655 28.8411 13.05 28.1596 13.05 27.2171C13.05 26.5356 12.5715 25.9556 11.9045 25.7961C6.757 24.6216 2.9 20.0106 2.9 14.5006ZM29 14.5006C29 7.6131 24.186 1.8421 17.748 0.363096C16.8345 0.160096 15.95 0.841596 15.95 1.7841C15.95 2.4656 16.4285 3.0456 17.0955 3.2051C22.243 4.3796 26.1 8.9906 26.1 14.5006C26.1 17.8791 24.621 20.9096 22.301 23.0266L20.0825 20.8081C19.633 20.3586 18.85 20.6776 18.85 21.3301V27.5506C18.85 27.9566 19.169 28.2756 19.575 28.2756H25.7955C26.448 28.2756 26.767 27.4926 26.303 27.0431L24.36 25.0856C27.202 22.4466 29 18.6911 29 14.5006Z" fill="black"/>
<circle cx="15.95" cy="27.5496" r="1.45" fill="black"/>
<circle cx="13.0501" cy="1.45" r="1.45" fill="black"/>
</svg>
