<svg class="cls-1" id="Layer_1" data-name="Layer 1" xmlns="http://www.w3.org/2000/svg" viewBox="0 0 250 265" height="22px" width="22px"><defs><style>.cls-1{fill:#333333;}</style></defs><title>Launch Microsoft Edge</title><path d="M310.83,169.32a119.87,119.87,0,0,0-239.66-4.2c15.13-19.57,28.31-32.52,48-45.77,20-13.51,45.93-20.77,71.88-20.06,24.5.67,44.33,20.1,44.33,44.61v12.83H146.57c-1-13.39,7.69-30.14,15.45-40.47,0,0-25.47,12.78-40.4,31.57a82.25,82.25,0,0,0-17.18,32A86.1,86.1,0,0,0,100.67,204h0c-1.91,39,15.77,75,49,94.58C210.71,334.47,288,294.64,288,294.64v-54.4c-38.4,18.49-95.6,26.69-124,3.56C150.76,233,147.2,219.11,146,204h164.8Zm0,0" transform="translate(-71.17 -49.44)"/></svg>