<svg width="19" height="19" viewBox="0 0 19 19" fill="none" xmlns="http://www.w3.org/2000/svg">
<path d="M9.81456 2.77344H2.7187C1.76949 2.77344 1 3.54292 1 4.49213V16.2933C1 17.2425 1.76949 18.012 2.7187 18.012H13.9722C14.9214 18.012 15.6909 17.2425 15.6909 16.2933V10.3927" stroke="#030229" stroke-opacity="0.6" stroke-width="1.7187" stroke-linecap="round"/>
<path fill-rule="evenodd" clip-rule="evenodd" d="M13.4863 13.7832C13.961 13.7832 14.3457 13.3985 14.3457 12.9239C14.3457 12.4492 13.961 12.0645 13.4863 12.0645L8.26153 12.0645L18.7515 1.46404C19.0853 1.12669 19.0825 0.582585 18.7451 0.248751C18.4078 -0.0850809 17.8637 -0.0822313 17.5298 0.25512L7.07019 10.825V9.15104L7.07019 5.37822C7.07019 4.90361 6.68544 4.51887 6.21084 4.51887C5.73623 4.51887 5.35149 4.90361 5.35149 5.37822L5.35149 9.15104V11.2052C5.35149 12.629 6.50572 13.7832 7.92953 13.7832L13.4863 13.7832Z" fill="#030229" fill-opacity="0.6"/>
</svg>
