<svg width="26" height="25" viewBox="0 0 26 25" fill="none" xmlns="http://www.w3.org/2000/svg">
<path d="M13.3154 3.56787H3.5C2.39543 3.56787 1.5 4.4633 1.5 5.56787V22C1.5 23.1046 2.39543 24 3.5 24H19.1923C20.2969 24 21.1923 23.1046 21.1923 22V13.784" stroke="#605BFF" stroke-width="2" stroke-linecap="round"/>
<path fill-rule="evenodd" clip-rule="evenodd" d="M18.2521 18.1763C18.8044 18.1763 19.2521 17.7286 19.2521 17.1763C19.2521 16.624 18.8044 16.1763 18.2521 16.1763H10.893L25.2109 1.70345C25.5993 1.31083 25.5959 0.677675 25.2033 0.289257C24.8107 -0.0991592 24.1775 -0.0957527 23.7891 0.296865L9.49977 14.7408V12.1176V7.05895C9.49977 6.50667 9.05206 6.05895 8.49977 6.05895C7.94749 6.05895 7.49977 6.50667 7.49977 7.05895V12.1176V15.1763C7.49977 16.8331 8.84292 18.1763 10.4998 18.1763H18.2521Z" fill="#605BFF"/>
</svg>
