<svg width="26" height="26" viewBox="0 0 26 26" fill="none" xmlns="http://www.w3.org/2000/svg">
<path d="M13.3291 3.68164H3C1.89543 3.68164 1 4.57707 1 5.68164V23.0004C1 24.105 1.89543 25.0004 3 25.0004H19.5485C20.6531 25.0004 21.5485 24.105 21.5485 23.0004V14.341" stroke="#030229" stroke-opacity="0.6" stroke-width="2" stroke-linecap="round"/>
<path fill-rule="evenodd" clip-rule="evenodd" d="M18.4805 18.8789C19.0328 18.8789 19.4805 18.4312 19.4805 17.8789C19.4805 17.3266 19.0328 16.8789 18.4805 16.8789H10.6969L25.7109 1.70369C26.0993 1.31109 26.0959 0.677933 25.7033 0.289499C25.3107 -0.0989342 24.6776 -0.0955544 24.2891 0.29705L9.30407 15.443V12.6007V7.32258C9.30407 6.77029 8.85636 6.32258 8.30407 6.32258C7.75179 6.32258 7.30407 6.77029 7.30407 7.32258V12.6007V15.8789C7.30407 17.5358 8.64722 18.8789 10.3041 18.8789H18.4805Z" fill="#030229" fill-opacity="0.6"/>
</svg>
