<svg width="21" height="21" viewBox="0 0 21 21" fill="none" xmlns="http://www.w3.org/2000/svg">
<path d="M10.846 2.97382H2.66653C1.74613 2.97382 1 3.71995 1 4.64035V18.3326C1 19.253 1.74613 19.9992 2.66653 19.9992H15.7435C16.6639 19.9992 17.41 19.253 17.41 18.3326V11.4865" stroke="#212121" stroke-width="1.66653" stroke-linecap="round"/>
<path fill-rule="evenodd" clip-rule="evenodd" d="M14.9605 15.1464C15.4207 15.1464 15.7937 14.7733 15.7937 14.3131C15.7937 13.8529 15.4207 13.4798 14.9605 13.4798L8.82769 13.4798L20.7591 1.42021C21.0827 1.09306 21.0799 0.565474 20.7528 0.241807C20.4256 -0.0818605 19.8981 -0.0790405 19.5744 0.248105L7.66687 12.2836V10.0979L7.66687 5.88272C7.66687 5.42252 7.2938 5.04945 6.8336 5.04945C6.3734 5.04945 6.00033 5.42252 6.00033 5.88272L6.00033 10.0979V12.6466C6.00033 14.0272 7.11953 15.1464 8.50013 15.1464L14.9605 15.1464Z" fill="#212121"/>
</svg>
