<svg width="25" height="24" viewBox="0 0 25 24" fill="none" xmlns="http://www.w3.org/2000/svg">
<path d="M17.5383 11.4464C17.5383 13.9677 16.8986 16.2265 15.8907 17.8391C14.8785 19.4587 13.544 20.3618 12.1537 20.3618C10.7633 20.3618 9.42886 19.4587 8.41661 17.8391C7.40875 16.2265 6.76904 13.9677 6.76904 11.4464C6.76904 8.92512 7.40875 6.66627 8.41661 5.05371C9.42886 3.4341 10.7633 2.53101 12.1537 2.53101C13.544 2.53101 14.8785 3.4341 15.8907 5.05371C16.8986 6.66627 17.5383 8.92512 17.5383 11.4464Z" stroke="#212121"/>
<path d="M3.5 18.6462L4.88462 20.8616L3.5 23.077" stroke="#212121" stroke-linecap="round"/>
<path d="M11.5769 0.923096L10.6538 2.76925L12.0384 3.69233" stroke="#212121" stroke-linecap="round"/>
<path d="M19.769 18.3076L21.269 20.7692L19.769 23.0769" stroke="#212121" stroke-linecap="round"/>
<path d="M1.42285 20.8616L23.5767 20.8615" stroke="#212121" stroke-linecap="round"/>
<path d="M12.4998 13.3521C12.2323 13.3521 11.9709 13.2728 11.7485 13.1242C11.5261 12.9756 11.3528 12.7644 11.2504 12.5173C11.148 12.2702 11.1213 11.9983 11.1734 11.7359C11.2256 11.4736 11.3544 11.2327 11.5435 11.0435C11.7327 10.8544 11.9736 10.7256 12.2359 10.6734C12.4983 10.6213 12.7702 10.648 13.0173 10.7504C13.2644 10.8528 13.4756 11.0261 13.6242 11.2485C13.7728 11.4709 13.8521 11.7323 13.8521 11.9998C13.8521 12.3584 13.7096 12.7024 13.456 12.956C13.2024 13.2096 12.8584 13.3521 12.4998 13.3521ZM12.4998 11.3398C12.3692 11.3398 12.2416 11.3785 12.1331 11.451C12.0246 11.5235 11.94 11.6266 11.89 11.7472C11.8401 11.8678 11.827 12.0005 11.8525 12.1285C11.8779 12.2566 11.9408 12.3742 12.0331 12.4665C12.1254 12.5588 12.243 12.6216 12.371 12.6471C12.499 12.6726 12.6317 12.6595 12.7523 12.6095C12.8729 12.5596 12.976 12.475 13.0485 12.3664C13.1211 12.2579 13.1598 12.1303 13.1598 11.9998C13.1598 11.8247 13.0902 11.6569 12.9665 11.5331C12.8427 11.4093 12.6748 11.3398 12.4998 11.3398Z" fill="#212121"/>
<path d="M12.5274 16.0383C12.3924 16.0377 12.2589 16.0105 12.1345 15.9582C12.0101 15.9058 11.8973 15.8294 11.8026 15.7334C11.7078 15.6373 11.6329 15.5235 11.5823 15.3984C11.5316 15.2733 11.5061 15.1394 11.5074 15.0045C11.5055 14.9629 11.492 14.9226 11.4683 14.8883C11.4447 14.854 11.4118 14.8271 11.3735 14.8107C11.3312 14.7912 11.284 14.7848 11.238 14.7922C11.192 14.7996 11.1492 14.8205 11.1151 14.8522C10.9234 15.0424 10.665 15.15 10.3951 15.1522C10.1234 15.1539 9.86176 15.0496 9.66582 14.8614C9.57065 14.7663 9.49515 14.6533 9.44364 14.529C9.39213 14.4046 9.36561 14.2714 9.36561 14.1368C9.36561 14.0022 9.39213 13.869 9.44364 13.7446C9.49515 13.6203 9.57065 13.5073 9.66582 13.4122C9.69837 13.3825 9.72175 13.3442 9.7332 13.3016C9.74465 13.2591 9.74369 13.2142 9.73044 13.1722C9.70795 13.1332 9.67568 13.1008 9.63683 13.0782C9.59797 13.0555 9.55388 13.0434 9.5089 13.043C9.23734 13.0419 8.9768 12.9354 8.78222 12.746C8.58763 12.5566 8.47419 12.299 8.46582 12.0276C8.46643 11.893 8.49353 11.7599 8.54558 11.6358C8.59763 11.5117 8.67361 11.3991 8.76918 11.3044C8.86476 11.2097 8.97805 11.1347 9.10259 11.0838C9.22714 11.0329 9.3605 11.007 9.49505 11.0076C9.53668 11.0058 9.57695 10.9922 9.61124 10.9686C9.64553 10.9449 9.67244 10.912 9.6889 10.8737C9.70834 10.8314 9.71477 10.7842 9.70737 10.7382C9.69998 10.6922 9.67909 10.6494 9.64736 10.6153C9.45719 10.4236 9.34951 10.1652 9.34736 9.89527C9.345 9.76051 9.36949 9.62662 9.41942 9.50142C9.46934 9.37622 9.54369 9.26221 9.63813 9.16604C9.73328 9.07087 9.84624 8.99537 9.97057 8.94386C10.0949 8.89235 10.2282 8.86584 10.3627 8.86584C10.4973 8.86584 10.6306 8.89235 10.7549 8.94386C10.8792 8.99537 10.9922 9.07087 11.0874 9.16604C11.1206 9.19766 11.1614 9.2202 11.2058 9.23152C11.2503 9.24283 11.2969 9.24254 11.3412 9.23066C11.3816 9.20854 11.4158 9.1767 11.4408 9.13801C11.4658 9.09933 11.4807 9.05503 11.4843 9.00912C11.4842 8.73676 11.5901 8.47506 11.7796 8.27948C11.9692 8.0839 12.2274 7.96982 12.4997 7.96143C12.6342 7.96263 12.7672 7.99033 12.8911 8.04294C13.0149 8.09555 13.1272 8.17204 13.2215 8.26804C13.3158 8.36405 13.3902 8.47768 13.4406 8.60246C13.491 8.72724 13.5163 8.86072 13.5151 8.99527C13.5168 9.0375 13.5297 9.07852 13.5524 9.11418C13.5751 9.14984 13.6068 9.17888 13.6443 9.19835C13.685 9.21331 13.7291 9.21648 13.7716 9.2075C13.814 9.19852 13.8531 9.17775 13.8843 9.14758C14.0759 8.95741 14.3343 8.84974 14.6043 8.84758C14.7393 8.84335 14.8737 8.86698 14.9992 8.91701C15.1246 8.96704 15.2385 9.04239 15.3335 9.13835C15.4287 9.2335 15.5042 9.34646 15.5557 9.47079C15.6072 9.59512 15.6337 9.72839 15.6337 9.86296C15.6337 9.99754 15.6072 10.1308 15.5557 10.2551C15.5042 10.3795 15.4287 10.4924 15.3335 10.5876C15.3043 10.6221 15.2843 10.6636 15.2754 10.708C15.2665 10.7524 15.269 10.7983 15.2827 10.8414C15.3049 10.8818 15.3367 10.916 15.3754 10.941C15.4141 10.966 15.4584 10.981 15.5043 10.9845C15.7742 10.9879 16.0324 11.0955 16.2251 11.2846C16.4177 11.4738 16.5298 11.73 16.5381 11.9999C16.5369 12.1344 16.5092 12.2674 16.4566 12.3913C16.404 12.5151 16.3275 12.6274 16.2315 12.7217C16.1355 12.816 16.0219 12.8905 15.8971 12.9408C15.7723 12.9912 15.6388 13.0165 15.5043 13.0153C15.4621 13.017 15.421 13.0299 15.3854 13.0526C15.3497 13.0753 15.3207 13.107 15.3012 13.1445C15.2862 13.1852 15.2831 13.2294 15.2921 13.2718C15.301 13.3143 15.3218 13.3533 15.352 13.3845C15.5421 13.5761 15.6498 13.8345 15.652 14.1045C15.6543 14.2393 15.6298 14.3732 15.5799 14.4984C15.53 14.6236 15.4556 14.7376 15.3612 14.8337C15.2661 14.9289 15.1531 15.0044 15.0288 15.0559C14.9044 15.1074 14.7712 15.1339 14.6366 15.1339C14.502 15.1339 14.3688 15.1074 14.2444 15.0559C14.1201 15.0044 14.0071 14.9289 13.912 14.8337C13.8808 14.8036 13.8417 14.7828 13.7993 14.7738C13.7568 14.7648 13.7127 14.768 13.672 14.783C13.633 14.8055 13.6006 14.8377 13.5779 14.8766C13.5553 14.9154 13.5431 14.9595 13.5427 15.0045C13.5393 15.2745 13.4318 15.5327 13.2426 15.7253C13.0534 15.9179 12.7972 16.03 12.5274 16.0383ZM11.2766 14.0953C11.399 14.0938 11.5203 14.119 11.632 14.1691C11.7968 14.2378 11.9382 14.3529 12.039 14.5004C12.1397 14.6478 12.1956 14.8213 12.1997 14.9999C12.1984 15.0889 12.2319 15.1749 12.2931 15.2396C12.3544 15.3042 12.4384 15.3424 12.5274 15.346C12.6163 15.339 12.6992 15.2983 12.7593 15.2323C12.8193 15.1663 12.8519 15.0799 12.8504 14.9907C12.8515 14.8115 12.9032 14.6363 12.9996 14.4852C13.096 14.3341 13.233 14.2134 13.3951 14.1368C13.5636 14.0667 13.7491 14.0481 13.9282 14.0835C14.1073 14.1188 14.2719 14.2064 14.4012 14.3353C14.4624 14.3965 14.5454 14.4309 14.632 14.4309C14.7185 14.4309 14.8015 14.3965 14.8627 14.3353C14.9239 14.2741 14.9583 14.1911 14.9583 14.1045C14.9583 14.0179 14.9239 13.9349 14.8627 13.8737C14.7347 13.7439 14.6479 13.5791 14.6134 13.4C14.5789 13.221 14.5982 13.0357 14.6689 12.8676C14.7417 12.7056 14.8597 12.5681 15.0087 12.4715C15.1576 12.3749 15.3313 12.3233 15.5089 12.323C15.5967 12.3242 15.6815 12.2912 15.7453 12.2308C15.8091 12.1705 15.8468 12.0876 15.8504 11.9999C15.8445 11.9105 15.8042 11.8269 15.7379 11.7667C15.6716 11.7064 15.5846 11.6742 15.4951 11.6768C15.3144 11.6719 15.1387 11.6166 14.9878 11.5171C14.8369 11.4176 14.7169 11.2779 14.6412 11.1137C14.5721 10.9435 14.5541 10.7568 14.5894 10.5765C14.6246 10.3962 14.7116 10.2301 14.8397 10.0983C14.87 10.068 14.894 10.0321 14.9104 9.99247C14.9268 9.95288 14.9353 9.91044 14.9353 9.86758C14.9353 9.82472 14.9268 9.78228 14.9104 9.74269C14.894 9.70309 14.87 9.66712 14.8397 9.63681C14.8094 9.60651 14.7734 9.58247 14.7338 9.56607C14.6942 9.54966 14.6518 9.54122 14.6089 9.54122C14.566 9.54122 14.5236 9.54966 14.484 9.56607C14.4444 9.58247 14.4084 9.60651 14.3781 9.63681C14.2484 9.75733 14.0867 9.83798 13.9123 9.86914C13.738 9.90029 13.5584 9.88064 13.3949 9.81253C13.2314 9.74441 13.091 9.63071 12.9904 9.48499C12.8897 9.33926 12.8332 9.16766 12.8274 8.99066C12.8286 8.90285 12.7956 8.81802 12.7352 8.75422C12.6749 8.69043 12.592 8.65272 12.5043 8.64912C12.4149 8.65505 12.3313 8.69539 12.2711 8.76166C12.2108 8.82793 12.1786 8.91498 12.1812 9.0045C12.1763 9.18517 12.121 9.36087 12.0215 9.51175C11.922 9.66263 11.7823 9.78268 11.6181 9.85835C11.4479 9.92742 11.2612 9.94544 11.0809 9.9102C10.9006 9.87495 10.7344 9.78798 10.6027 9.65989C10.5724 9.62958 10.5365 9.60554 10.4969 9.58914C10.4573 9.57274 10.4148 9.5643 10.372 9.5643C10.3291 9.5643 10.2867 9.57274 10.2471 9.58914C10.2075 9.60554 10.1715 9.62958 10.1412 9.65989C10.1109 9.69019 10.0869 9.72617 10.0705 9.76577C10.0541 9.80536 10.0456 9.8478 10.0456 9.89066C10.0456 9.93351 10.0541 9.97595 10.0705 10.0155C10.0869 10.0551 10.1109 10.0911 10.1412 10.1214C10.2685 10.2517 10.3544 10.4168 10.3881 10.5959C10.4218 10.7749 10.4017 10.9599 10.3304 11.1276C10.2617 11.2924 10.1467 11.4338 9.9992 11.5346C9.85174 11.6353 9.67822 11.6912 9.49967 11.6953C9.41064 11.694 9.32463 11.7275 9.25997 11.7887C9.19531 11.85 9.15711 11.934 9.15351 12.023C9.16055 12.1119 9.20121 12.1948 9.26724 12.2549C9.33326 12.3149 9.41968 12.3475 9.5089 12.346C9.68808 12.3471 9.8633 12.3988 10.0144 12.4952C10.1654 12.5916 10.2862 12.7286 10.3627 12.8907C10.4329 13.0592 10.4514 13.2447 10.4161 13.4238C10.3808 13.6029 10.2931 13.7675 10.1643 13.8968C10.134 13.9271 10.1099 13.9631 10.0935 14.0027C10.0771 14.0423 10.0687 14.0847 10.0687 14.1276C10.0687 14.1704 10.0771 14.2129 10.0935 14.2525C10.1099 14.2921 10.134 14.328 10.1643 14.3583C10.1946 14.3887 10.2306 14.4127 10.2702 14.4291C10.3098 14.4455 10.3522 14.4539 10.3951 14.4539C10.4379 14.4539 10.4803 14.4455 10.5199 14.4291C10.5595 14.4127 10.5955 14.3887 10.6258 14.3583C10.8012 14.1909 11.0341 14.0967 11.2766 14.0953Z" fill="#212121"/>
</svg>
