<svg width="14" height="14" viewBox="0 0 14 14" fill="none" xmlns="http://www.w3.org/2000/svg">
<path d="M6.99967 3.49992C5.71101 3.49992 4.66634 4.54459 4.66634 5.83325H5.83301C5.83301 5.18892 6.35534 4.66659 6.99967 4.66659C7.64401 4.66659 8.16634 5.18892 8.16634 5.83325C8.16634 6.47758 7.64401 6.99992 6.99967 6.99992H6.41634V8.74992H7.58301V8.09308C8.58939 7.83405 9.33301 6.92049 9.33301 5.83325C9.33301 4.54459 8.28834 3.49992 6.99967 3.49992Z" fill="#030229" fill-opacity="0.6"/>
<path d="M7.58301 9.33325V10.4999H6.41634V9.33325H7.58301Z" fill="#030229" fill-opacity="0.6"/>
<path d="M13.4163 6.99992C13.4163 10.5437 10.5435 13.4166 6.99967 13.4166C3.45585 13.4166 0.583008 10.5437 0.583008 6.99992C0.583008 3.45609 3.45585 0.583252 6.99967 0.583252C10.5435 0.583252 13.4163 3.45609 13.4163 6.99992ZM12.2497 6.99992C12.2497 4.10042 9.89917 1.74992 6.99967 1.74992C4.10018 1.74992 1.74967 4.10042 1.74967 6.99992C1.74967 9.89941 4.10018 12.2499 6.99967 12.2499C9.89917 12.2499 12.2497 9.89941 12.2497 6.99992Z" fill="#030229" fill-opacity="0.6"/>
</svg>
