<svg width="24" height="24" viewBox="0 0 24 24" fill="none" xmlns="http://www.w3.org/2000/svg">
<path d="M21.424 3.424C21.5367 3.31133 21.6 3.15853 21.6 2.9992C21.6 2.83986 21.5367 2.68706 21.424 2.5744C21.3113 2.46173 21.1585 2.39844 20.9992 2.39844C20.8399 2.39844 20.6871 2.46173 20.5744 2.5744L17.3728 5.7772C16.4411 5.05223 15.2767 4.69252 14.0985 4.76566C12.9202 4.83881 11.8093 5.33977 10.9744 6.1744L10.6144 6.5344C10.4482 6.70045 10.3164 6.89761 10.2264 7.11463C10.1365 7.33166 10.0902 7.56427 10.0902 7.7992C10.0902 8.03412 10.1365 8.26673 10.2264 8.48376C10.3164 8.70078 10.4482 8.89795 10.6144 9.064L14.9344 13.384C15.2697 13.7192 15.7244 13.9076 16.1986 13.9076C16.6728 13.9076 17.1275 13.7192 17.4628 13.384L17.8228 13.024C18.6576 12.1893 19.1588 11.0784 19.2321 9.90015C19.3055 8.7219 18.946 7.55742 18.2212 6.6256L21.424 3.424V3.424ZM16.6144 12.5344C16.5598 12.589 16.495 12.6323 16.4236 12.6619C16.3523 12.6914 16.2758 12.7066 16.1986 12.7066C16.1214 12.7066 16.0449 12.6914 15.9736 12.6619C15.9022 12.6323 15.8374 12.589 15.7828 12.5344L11.4628 8.2144C11.3529 8.10417 11.2912 7.95486 11.2912 7.7992C11.2912 7.64353 11.3529 7.49422 11.4628 7.384L11.8228 7.024C12.5108 6.36563 13.4293 6.00282 14.3815 6.01325C15.3337 6.02368 16.244 6.40653 16.9174 7.0798C17.5908 7.75308 17.9739 8.66327 17.9845 9.61548C17.9952 10.5677 17.6326 11.4862 16.9744 12.1744L16.6144 12.5344V12.5344ZM9.064 10.6144C8.72869 10.2791 8.27395 10.0908 7.7998 10.0908C7.32564 10.0908 6.8709 10.2791 6.5356 10.6144L6.1756 10.9744C5.34079 11.8091 4.83961 12.92 4.76625 14.0982C4.69288 15.2765 5.05239 16.441 5.7772 17.3728L2.5744 20.5744C2.46173 20.6871 2.39844 20.8399 2.39844 20.9992C2.39844 21.1585 2.46173 21.3113 2.5744 21.424C2.68706 21.5367 2.83986 21.6 2.9992 21.6C3.15853 21.6 3.31133 21.5367 3.424 21.424L6.6256 18.2212C7.55742 18.946 8.7219 19.3055 9.90015 19.2321C11.0784 19.1588 12.1893 18.6576 13.024 17.8228L13.384 17.4628C13.7192 17.1275 13.9076 16.6728 13.9076 16.1986C13.9076 15.7244 13.7192 15.2697 13.384 14.9344L9.064 10.6144V10.6144ZM7.384 11.464C7.4386 11.4094 7.50342 11.3661 7.57476 11.3365C7.64611 11.307 7.72257 11.2918 7.7998 11.2918C7.87702 11.2918 7.95348 11.307 8.02483 11.3365C8.09617 11.3661 8.16099 11.4094 8.2156 11.464L12.5356 15.784C12.6455 15.8942 12.7072 16.0435 12.7072 16.1992C12.7072 16.3549 12.6455 16.5042 12.5356 16.6144L12.1756 16.9744C11.8374 17.3127 11.4359 17.581 10.994 17.7641C10.5522 17.9472 10.0785 18.0414 9.60022 18.0415C9.12191 18.0416 8.64826 17.9474 8.20634 17.7644C7.76441 17.5814 7.36285 17.3132 7.0246 16.975C6.68634 16.6368 6.418 16.2353 6.23491 15.7934C6.05181 15.3516 5.95754 14.8779 5.95749 14.3996C5.95738 13.4336 6.34101 12.5071 7.024 11.824L7.384 11.464V11.464Z" fill="#212121"/>
</svg>
