<svg width="121" height="121" viewBox="0 0 121 121" fill="none" xmlns="http://www.w3.org/2000/svg">
<rect x="12" y="12" width="97" height="97" rx="2" fill="#122F5C"/>
<rect x="14.5" y="14.5" width="92" height="92" rx="1.5" fill="#122F5C" stroke="white"/>
<path d="M60.1031 86.6681C74.7745 86.6681 86.668 74.7746 86.668 60.1032C86.668 45.4318 74.7745 33.5383 60.1031 33.5383C45.4317 33.5383 33.5382 45.4318 33.5382 60.1032C33.5382 74.7746 45.4317 86.6681 60.1031 86.6681Z" stroke="white" stroke-width="4" stroke-linecap="round" stroke-linejoin="round"/>
<path d="M65.6034 54.3742H54.584V65.3936H65.6034V54.3742Z" stroke="white" stroke-width="3" stroke-linecap="round" stroke-linejoin="round"/>
<path d="M39.0194 54.5836H28V65.6029H39.0194V54.5836Z" fill="white"/>
<path d="M39.0194 54.5836H28V65.6029H39.0194V54.5836Z" fill="#122F5C" stroke="white" stroke-width="3" stroke-linecap="round" stroke-linejoin="round"/>
<path d="M92.1685 54.5836H81.1491V65.6029H92.1685V54.5836Z" fill="white"/>
<path d="M92.1685 54.5836H81.1491V65.6029H92.1685V54.5836Z" fill="#122F5C" stroke="white" stroke-width="3" stroke-linecap="round" stroke-linejoin="round"/>
<path d="M65.6034 81.1488H54.584V92.1681H65.6034V81.1488Z" fill="white"/>
<path d="M65.6034 81.1488H54.584V92.1681H65.6034V81.1488Z" fill="#122F5C" stroke="white" stroke-width="3" stroke-linecap="round" stroke-linejoin="round"/>
<path d="M65.6034 28H54.584V39.0194H65.6034V28Z" fill="white"/>
<path d="M65.6034 28H54.584V39.0194H65.6034V28Z" fill="#122F5C" stroke="white" stroke-width="3" stroke-linecap="round" stroke-linejoin="round"/>
<rect x="73" y="121" width="2" height="12" transform="rotate(180 73 121)" fill="#CECCCC" fill-opacity="0.49"/>
<g style="mix-blend-mode:multiply" opacity="0.8">
<rect x="74" y="116" width="4" height="7" transform="rotate(180 74 116)" fill="#B3B3B3" fill-opacity="0.54"/>
</g>
<rect y="74" width="2" height="12" transform="rotate(-90 0 74)" fill="#CECCCC" fill-opacity="0.49"/>
<g style="mix-blend-mode:multiply" opacity="0.8">
<rect x="5" y="75" width="4" height="7" transform="rotate(-90 5 75)" fill="#B3B3B3" fill-opacity="0.54"/>
</g>
<rect x="44" width="2" height="12" fill="#CECCCC" fill-opacity="0.49"/>
<g style="mix-blend-mode:multiply" opacity="0.8">
<rect x="43" y="5" width="4" height="7" fill="#B3B3B3" fill-opacity="0.54"/>
</g>
<rect x="121" y="45" width="2" height="12" transform="rotate(90 121 45)" fill="#CECCCC" fill-opacity="0.49"/>
<g style="mix-blend-mode:multiply" opacity="0.8">
<rect x="116" y="44" width="4" height="7" transform="rotate(90 116 44)" fill="#B3B3B3" fill-opacity="0.54"/>
</g>
<rect x="64" y="121" width="2" height="12" transform="rotate(180 64 121)" fill="#CECCCC" fill-opacity="0.49"/>
<g style="mix-blend-mode:multiply" opacity="0.8">
<rect x="65" y="116" width="4" height="7" transform="rotate(180 65 116)" fill="#B3B3B3" fill-opacity="0.54"/>
</g>
<rect y="65" width="2" height="12" transform="rotate(-90 0 65)" fill="#CECCCC" fill-opacity="0.49"/>
<g style="mix-blend-mode:multiply" opacity="0.8">
<rect x="5" y="66" width="4" height="7" transform="rotate(-90 5 66)" fill="#B3B3B3" fill-opacity="0.54"/>
</g>
<rect x="53" width="2" height="12" fill="#CECCCC" fill-opacity="0.49"/>
<g style="mix-blend-mode:multiply" opacity="0.8">
<rect x="52" y="5" width="4" height="7" fill="#B3B3B3" fill-opacity="0.54"/>
</g>
<rect x="121" y="54" width="2" height="12" transform="rotate(90 121 54)" fill="#CECCCC" fill-opacity="0.49"/>
<g style="mix-blend-mode:multiply" opacity="0.8">
<rect x="116" y="53" width="4" height="7" transform="rotate(90 116 53)" fill="#B3B3B3" fill-opacity="0.54"/>
</g>
<rect x="55" y="121" width="2" height="12" transform="rotate(180 55 121)" fill="#CECCCC" fill-opacity="0.49"/>
<g style="mix-blend-mode:multiply" opacity="0.8">
<rect x="56" y="116" width="4" height="7" transform="rotate(180 56 116)" fill="#B3B3B3" fill-opacity="0.54"/>
</g>
<rect y="56" width="2" height="12" transform="rotate(-90 0 56)" fill="#CECCCC" fill-opacity="0.49"/>
<g style="mix-blend-mode:multiply" opacity="0.8">
<rect x="5" y="57" width="4" height="7" transform="rotate(-90 5 57)" fill="#B3B3B3" fill-opacity="0.54"/>
</g>
<rect x="62" width="2" height="12" fill="#CECCCC" fill-opacity="0.49"/>
<g style="mix-blend-mode:multiply" opacity="0.8">
<rect x="61" y="5" width="4" height="7" fill="#B3B3B3" fill-opacity="0.54"/>
</g>
<rect x="121" y="63" width="2" height="12" transform="rotate(90 121 63)" fill="#CECCCC" fill-opacity="0.49"/>
<g style="mix-blend-mode:multiply" opacity="0.8">
<rect x="116" y="62" width="4" height="7" transform="rotate(90 116 62)" fill="#B3B3B3" fill-opacity="0.54"/>
</g>
<rect x="46" y="121" width="2" height="12" transform="rotate(180 46 121)" fill="#CECCCC" fill-opacity="0.49"/>
<g style="mix-blend-mode:multiply" opacity="0.8">
<rect x="47" y="116" width="4" height="7" transform="rotate(180 47 116)" fill="#B3B3B3" fill-opacity="0.54"/>
</g>
<rect y="47" width="2" height="12" transform="rotate(-90 0 47)" fill="#CECCCC" fill-opacity="0.49"/>
<g style="mix-blend-mode:multiply" opacity="0.8">
<rect x="5" y="48" width="4" height="7" transform="rotate(-90 5 48)" fill="#B3B3B3" fill-opacity="0.54"/>
</g>
<rect x="71" width="2" height="12" fill="#CECCCC" fill-opacity="0.49"/>
<g style="mix-blend-mode:multiply" opacity="0.8">
<rect x="70" y="5" width="4" height="7" fill="#B3B3B3" fill-opacity="0.54"/>
</g>
<rect x="121" y="72" width="2" height="12" transform="rotate(90 121 72)" fill="#CECCCC" fill-opacity="0.49"/>
<g style="mix-blend-mode:multiply" opacity="0.8">
<rect x="116" y="71" width="4" height="7" transform="rotate(90 116 71)" fill="#B3B3B3" fill-opacity="0.54"/>
</g>
</svg>
