<svg width="24" height="24" viewBox="0 0 24 24" fill="none" xmlns="http://www.w3.org/2000/svg">
<path d="M19.4895 5.5714C20.0243 6.25996 20.4027 7.05684 20.5982 7.90654C20.7937 8.75625 20.8016 9.63836 20.6215 10.4914C20.4413 11.3445 20.0773 12.1481 19.5549 12.8461C19.0324 13.5442 18.3641 14.12 17.5965 14.5334C16.9475 14.8844 16.1665 14.6684 15.6445 14.1474L9.85445 8.3564C9.33245 7.8344 9.11645 7.0534 9.46645 6.4044C9.87986 5.63659 10.4557 4.96813 11.1538 4.4456C11.852 3.92307 12.6556 3.55902 13.5088 3.37882C14.3621 3.19862 15.2443 3.2066 16.0941 3.4022C16.9439 3.59781 17.7409 3.97633 18.4295 4.5114L20.7194 2.2214C20.7886 2.14974 20.8713 2.09257 20.9628 2.05322C21.0543 2.01387 21.1527 1.99313 21.2523 1.99222C21.3519 1.99131 21.4506 2.01024 21.5428 2.0479C21.635 2.08557 21.7188 2.14122 21.7892 2.21161C21.8597 2.28199 21.9154 2.36571 21.9532 2.45786C21.9909 2.55001 22.01 2.64876 22.0091 2.74835C22.0083 2.84793 21.9877 2.94636 21.9484 3.03788C21.9091 3.1294 21.8521 3.21219 21.7805 3.2814L19.4895 5.5714ZM3.27945 21.7814L5.56945 19.4914C6.25801 20.0263 7.05488 20.4047 7.90459 20.6002C8.75429 20.7957 9.6364 20.8036 10.4895 20.6234C11.3426 20.4432 12.1461 20.0792 12.8442 19.5568C13.5422 19.0344 14.118 18.3661 14.5315 17.5984C14.8825 16.9494 14.6665 16.1684 14.1445 15.6464L8.35445 9.8564C7.83245 9.3344 7.05145 9.1184 6.40245 9.4684C5.63464 9.88181 4.96618 10.4576 4.44365 11.1558C3.92112 11.8539 3.55707 12.6576 3.37687 13.5108C3.19667 14.364 3.20465 15.2463 3.40025 16.0961C3.59585 16.9459 3.97438 17.7428 4.50945 18.4314L2.21945 20.7214C2.14779 20.7906 2.09061 20.8733 2.05126 20.9648C2.01191 21.0563 1.99118 21.1547 1.99027 21.2542C1.98935 21.3538 2.00828 21.4526 2.04595 21.5448C2.08362 21.637 2.13927 21.7207 2.20965 21.7912C2.28004 21.8616 2.36375 21.9174 2.45591 21.9551C2.54806 21.9929 2.64681 22.0119 2.7464 22.0111C2.84598 22.0103 2.9444 21.9896 3.03593 21.9504C3.12745 21.9111 3.21023 21.853 3.27945 21.7814Z" fill="#605BFF"/>
</svg>
