<svg width="24" height="24" viewBox="0 0 24 24" fill="none" xmlns="http://www.w3.org/2000/svg">
<path d="M9.5 16.75C9.5 16.5511 9.42098 16.3603 9.28033 16.2197C9.13968 16.079 8.94891 16 8.75 16C8.55109 16 8.36032 16.079 8.21967 16.2197C8.07902 16.3603 8 16.5511 8 16.75V18.25C8 18.4489 8.07902 18.6397 8.21967 18.7803C8.36032 18.921 8.55109 19 8.75 19C8.94891 19 9.13968 18.921 9.28033 18.7803C9.42098 18.6397 9.5 18.4489 9.5 18.25V16.75ZM12 12C12.1989 12 12.3897 12.079 12.5303 12.2197C12.671 12.3603 12.75 12.5511 12.75 12.75V18.25C12.75 18.4489 12.671 18.6397 12.5303 18.7803C12.3897 18.921 12.1989 19 12 19C11.8011 19 11.6103 18.921 11.4697 18.7803C11.329 18.6397 11.25 18.4489 11.25 18.25V12.75C11.25 12.5511 11.329 12.3603 11.4697 12.2197C11.6103 12.079 11.8011 12 12 12ZM16 14.75C16 14.5511 15.921 14.3603 15.7803 14.2197C15.6397 14.079 15.4489 14 15.25 14C15.0511 14 14.8603 14.079 14.7197 14.2197C14.579 14.3603 14.5 14.5511 14.5 14.75V18.25C14.5 18.4489 14.579 18.6397 14.7197 18.7803C14.8603 18.921 15.0511 19 15.25 19C15.4489 19 15.6397 18.921 15.7803 18.7803C15.921 18.6397 16 18.4489 16 18.25V14.75ZM13.585 2.586L19.414 8.414C19.7891 8.78899 19.9999 9.29761 20 9.828V20C20 20.5304 19.7893 21.0391 19.4142 21.4142C19.0391 21.7893 18.5304 22 18 22H6C5.46957 22 4.96086 21.7893 4.58579 21.4142C4.21071 21.0391 4 20.5304 4 20V4C4 3.46957 4.21071 2.96086 4.58579 2.58579C4.96086 2.21071 5.46957 2 6 2H12.172C12.2 2 12.227 2.004 12.254 2.007C12.2735 2.01026 12.2932 2.0126 12.313 2.014C12.528 2.029 12.74 2.07 12.937 2.152C12.994 2.176 13.049 2.208 13.103 2.239L13.153 2.268L13.2 2.292C13.228 2.30474 13.2551 2.31944 13.281 2.336C13.359 2.389 13.429 2.452 13.5 2.516C13.5116 2.52644 13.5236 2.53645 13.536 2.546C13.5532 2.55827 13.5695 2.57163 13.585 2.586ZM18 20.5C18.1326 20.5 18.2598 20.4473 18.3536 20.3536C18.4473 20.2598 18.5 20.1326 18.5 20V10H14C13.4696 10 12.9609 9.78929 12.5858 9.41421C12.2107 9.03914 12 8.53043 12 8V3.5H6C5.86739 3.5 5.74021 3.55268 5.64645 3.64645C5.55268 3.74021 5.5 3.86739 5.5 4V20C5.5 20.1326 5.55268 20.2598 5.64645 20.3536C5.74021 20.4473 5.86739 20.5 6 20.5H18ZM17.378 8.5L13.5 4.621V8C13.5 8.13261 13.5527 8.25979 13.6464 8.35355C13.7402 8.44732 13.8674 8.5 14 8.5H17.378Z" fill="#605BFF"/>
</svg>
