<svg width="18" height="12" viewBox="0 0 18 12" fill="none" xmlns="http://www.w3.org/2000/svg">
<rect x="0.5" y="0.859375" width="17" height="10.28" rx="3.06" stroke="#605E5C"/>
<g clip-path="url(#clip0_5498_194595)">
<path d="M4.52059 2.96094H2.92059C2.74385 2.96094 2.60059 3.10421 2.60059 3.28094V4.88094C2.60059 5.05767 2.74385 5.20094 2.92059 5.20094H4.52059C4.69732 5.20094 4.84059 5.05767 4.84059 4.88094V3.28094C4.84059 3.10421 4.69732 2.96094 4.52059 2.96094Z" stroke="#605E5C" stroke-width="0.48" stroke-linecap="round" stroke-linejoin="round"/>
<path d="M4.52059 6.48047H2.92059C2.74385 6.48047 2.60059 6.62374 2.60059 6.80047V8.40047C2.60059 8.5772 2.74385 8.72047 2.92059 8.72047H4.52059C4.69732 8.72047 4.84059 8.5772 4.84059 8.40047V6.80047C4.84059 6.62374 4.69732 6.48047 4.52059 6.48047Z" stroke="#605E5C" stroke-width="0.48" stroke-linecap="round" stroke-linejoin="round"/>
<path d="M8.04012 2.96094H6.44012C6.26339 2.96094 6.12012 3.10421 6.12012 3.28094V4.88094C6.12012 5.05767 6.26339 5.20094 6.44012 5.20094H8.04012C8.21685 5.20094 8.36012 5.05767 8.36012 4.88094V3.28094C8.36012 3.10421 8.21685 2.96094 8.04012 2.96094Z" stroke="#605E5C" stroke-width="0.48" stroke-linecap="round" stroke-linejoin="round"/>
<path d="M8.04012 6.48047H6.44012C6.26339 6.48047 6.12012 6.62374 6.12012 6.80047V8.40047C6.12012 8.5772 6.26339 8.72047 6.44012 8.72047H8.04012C8.21685 8.72047 8.36012 8.5772 8.36012 8.40047V6.80047C8.36012 6.62374 8.21685 6.48047 8.04012 6.48047Z" stroke="#605E5C" stroke-width="0.48" stroke-linecap="round" stroke-linejoin="round"/>
<path d="M11.5606 6.48047H9.96062C9.78389 6.48047 9.64062 6.62374 9.64062 6.80047V8.40047C9.64062 8.5772 9.78389 8.72047 9.96062 8.72047H11.5606C11.7374 8.72047 11.8806 8.5772 11.8806 8.40047V6.80047C11.8806 6.62374 11.7374 6.48047 11.5606 6.48047Z" stroke="#605E5C" stroke-width="0.48" stroke-linecap="round" stroke-linejoin="round"/>
<path d="M15.0802 6.48047H13.4802C13.3034 6.48047 13.1602 6.62374 13.1602 6.80047V8.40047C13.1602 8.5772 13.3034 8.72047 13.4802 8.72047H15.0802C15.2569 8.72047 15.4002 8.5772 15.4002 8.40047V6.80047C15.4002 6.62374 15.2569 6.48047 15.0802 6.48047Z" stroke="#605E5C" stroke-width="0.48" stroke-linecap="round" stroke-linejoin="round"/>
<path d="M11.5606 2.96094H9.96062C9.78389 2.96094 9.64062 3.10421 9.64062 3.28094V4.88094C9.64062 5.05767 9.78389 5.20094 9.96062 5.20094H11.5606C11.7374 5.20094 11.8806 5.05767 11.8806 4.88094V3.28094C11.8806 3.10421 11.7374 2.96094 11.5606 2.96094Z" stroke="#605E5C" stroke-width="0.48" stroke-linecap="round" stroke-linejoin="round"/>
<path d="M15.0802 2.96094H13.4802C13.3034 2.96094 13.1602 3.10421 13.1602 3.28094V4.88094C13.1602 5.05767 13.3034 5.20094 13.4802 5.20094H15.0802C15.2569 5.20094 15.4002 5.05767 15.4002 4.88094V3.28094C15.4002 3.10421 15.2569 2.96094 15.0802 2.96094Z" stroke="#605E5C" stroke-width="0.48" stroke-linecap="round" stroke-linejoin="round"/>
</g>
<defs>
<clipPath id="clip0_5498_194595">
<rect width="13.44" height="6.4" fill="white" transform="translate(2.28027 2.64062)"/>
</clipPath>
</defs>
</svg>
