<svg width="24" height="24" viewBox="0 0 24 24" fill="none" xmlns="http://www.w3.org/2000/svg">
<path d="M11.9967 12.0011C13.259 12.0011 14.2824 10.9778 14.2824 9.7154C14.2824 8.45304 13.259 7.42969 11.9967 7.42969C10.7343 7.42969 9.71094 8.45304 9.71094 9.7154C9.71094 10.9778 10.7343 12.0011 11.9967 12.0011Z" stroke="#605BFF" stroke-linecap="round" stroke-linejoin="round"/>
<path d="M4 7.42857H5.14286V6.28571C5.14286 5.67951 5.38367 5.09812 5.81233 4.66947C6.24098 4.24082 6.82236 4 7.42857 4H16.5714C17.1776 4 17.759 4.24082 18.1877 4.66947C18.6163 5.09812 18.8571 5.67951 18.8571 6.28571V17.7143C18.8571 18.3205 18.6163 18.9019 18.1877 19.3305C17.759 19.7592 17.1776 20 16.5714 20H7.42857C6.82236 20 6.24098 19.7592 5.81233 19.3305C5.38367 18.9019 5.14286 18.3205 5.14286 17.7143V16.5714H4M4 12H5.14286M4 9.71429H5.14286M4 14.2857H5.14286" stroke="#605BFF" stroke-linecap="round" stroke-linejoin="round"/>
<path fill-rule="evenodd" clip-rule="evenodd" d="M15.4275 15.4286V14.2857C15.4275 13.6795 15.1866 13.0981 14.758 12.6695C14.3293 12.2408 13.748 12 13.1417 12H10.856C10.2498 12 9.66844 12.2408 9.23978 12.6695C8.81113 13.0981 8.57031 13.6795 8.57031 14.2857V15.4286C8.57031 15.7317 8.69072 16.0224 8.90505 16.2367C9.11938 16.451 9.41007 16.5714 9.71317 16.5714H14.2846C14.5877 16.5714 14.8784 16.451 15.0927 16.2367C15.307 16.0224 15.4275 15.7317 15.4275 15.4286Z" stroke="#605BFF" stroke-linecap="round" stroke-linejoin="round"/>
</svg>
