<svg width="570" height="488" viewBox="0 0 570 488" fill="none" xmlns="http://www.w3.org/2000/svg">
<path d="M566.293 240.717C569.229 201.715 560.157 160.995 548.003 124.753C530.021 70.7925 494.909 15.4965 435.899 2.72575C401.873 -4.61378 367.245 3.25421 338.063 21.6911C310.011 39.4234 288.154 62.3374 253.644 66.7705C218.751 71.2623 182.949 69.4568 147.881 69.4568C57.7075 69.4568 -15.4676 164.181 2.82246 262.853C21.1126 361.526 107.367 429.945 180.542 429.945C246.304 429.945 300.411 390.502 362.87 379.904C393.843 374.649 424.948 380.873 455.598 373.005C491.224 363.845 524.722 342.018 544.465 310.413C557.911 288.865 564.458 265.129 566.293 240.717Z" fill="#5F338F" fill-opacity="0.3"/>
<path opacity="0.7" d="M566.293 240.717C569.229 201.715 560.157 160.995 548.003 124.753C530.021 70.7925 494.909 15.4965 435.899 2.72575C401.873 -4.61378 367.245 3.25421 338.063 21.6911C310.011 39.4234 288.154 62.3374 253.644 66.7705C218.751 71.2623 182.949 69.4568 147.881 69.4568C57.7075 69.4568 -15.4676 164.181 2.82246 262.853C21.1126 361.526 107.367 429.945 180.542 429.945C246.304 429.945 300.411 390.502 362.87 379.904C393.843 374.649 424.948 380.873 455.598 373.005C491.224 363.845 524.722 342.018 544.465 310.413C557.911 288.865 564.458 265.129 566.293 240.717Z" fill="white"/>
<path d="M55.4033 260.621L48.9738 242.257L55.4033 250.052L50.3537 222.499L58.1629 242.257L60.9226 203.666L65.5171 240.408L70.5667 233.068V242.257L76.5411 229.854L73.3264 251.432L78.831 247.762L70.1117 259.696L55.4033 260.621Z" fill="#5F338F"/>
<path d="M75.6162 256.026H51.7333L56.0343 304.247H71.3152L75.6162 256.026Z" fill="#263238" stroke="#263238" stroke-width="1.46791" stroke-linecap="round" stroke-linejoin="round"/>
<path d="M120.417 303.705H39.0511V476.037H120.417V303.705Z" fill="white" stroke="#263238" stroke-width="1.46791" stroke-linecap="round" stroke-linejoin="round"/>
<path d="M124.865 303.705H79.7268V476.037H124.865V303.705Z" fill="white" stroke="#263238" stroke-width="1.46791" stroke-linecap="round" stroke-linejoin="round"/>
<path d="M119.786 303.705H79.7268V476.037H119.786V303.705Z" fill="#263238" stroke="#263238" stroke-width="1.46791" stroke-linecap="round" stroke-linejoin="round"/>
<path d="M115.279 435.962H79.7268V471.251H115.279V435.962Z" fill="#5F338F" stroke="#263238" stroke-width="1.46791" stroke-linecap="round" stroke-linejoin="round"/>
<path d="M115.279 437.87H79.7268V442.391H115.279V437.87Z" fill="white" stroke="#263238" stroke-width="1.46791" stroke-linecap="round" stroke-linejoin="round"/>
<path d="M115.279 463.852H79.7268V468.374H115.279V463.852Z" fill="white" stroke="#263238" stroke-width="1.46791" stroke-linecap="round" stroke-linejoin="round"/>
<path d="M86.4642 436.696V481.321" stroke="#263238" stroke-width="1.46791" stroke-linecap="round" stroke-linejoin="round"/>
<path d="M98.8683 436.696V481.321" stroke="#263238" stroke-width="1.46791" stroke-linecap="round" stroke-linejoin="round"/>
<path d="M109.76 436.696V481.321" stroke="#263238" stroke-width="1.46791" stroke-linecap="round" stroke-linejoin="round"/>
<path d="M115.279 310.104H79.7268V361.994H115.279V310.104Z" fill="#5F338F" stroke="#263238" stroke-width="1.46791" stroke-linecap="round" stroke-linejoin="round"/>
<path d="M115.279 312.277H79.7268V317.415H115.279V312.277Z" fill="white" stroke="#263238" stroke-width="1.46791" stroke-linecap="round" stroke-linejoin="round"/>
<path d="M115.279 345.54H79.7268V350.677H115.279V345.54Z" fill="white" stroke="#263238" stroke-width="1.46791" stroke-linecap="round" stroke-linejoin="round"/>
<path d="M86.4642 310.926V361.643" stroke="#263238" stroke-width="1.46791" stroke-linecap="round" stroke-linejoin="round"/>
<path d="M98.8683 310.926V361.643" stroke="#263238" stroke-width="1.46791" stroke-linecap="round" stroke-linejoin="round"/>
<path d="M109.76 310.926V361.643" stroke="#263238" stroke-width="1.46791" stroke-linecap="round" stroke-linejoin="round"/>
<path d="M115.279 372.637H79.7268V424.528H115.279V372.637Z" fill="#5F338F" stroke="#263238" stroke-width="1.46791" stroke-linecap="round" stroke-linejoin="round"/>
<path d="M115.279 374.809H79.7268V379.947H115.279V374.809Z" fill="white" stroke="#263238" stroke-width="1.46791" stroke-linecap="round" stroke-linejoin="round"/>
<path d="M115.279 408.072H79.7268V413.21H115.279V408.072Z" fill="white" stroke="#263238" stroke-width="1.46791" stroke-linecap="round" stroke-linejoin="round"/>
<path d="M86.4642 373.473V424.174" stroke="#263238" stroke-width="1.46791" stroke-linecap="round" stroke-linejoin="round"/>
<path d="M98.8683 373.473V424.174" stroke="#263238" stroke-width="1.46791" stroke-linecap="round" stroke-linejoin="round"/>
<path d="M109.76 373.473V424.174" stroke="#263238" stroke-width="1.46791" stroke-linecap="round" stroke-linejoin="round"/>
<path d="M120.402 361.275H79.7268V367.176H120.402V361.275Z" fill="white" stroke="#263238" stroke-width="1.46791" stroke-linecap="round" stroke-linejoin="round"/>
<path d="M120.402 424.205H79.7268V430.106H120.402V424.205Z" fill="white" stroke="#263238" stroke-width="1.46791" stroke-linecap="round" stroke-linejoin="round"/>
<path d="M120.402 303.705V476.022" stroke="#263238" stroke-width="1.46791" stroke-linecap="round" stroke-linejoin="round"/>
<path d="M73.987 303.703V476.021H79.7265V310.103H119.698V303.63L73.987 303.703Z" fill="white" stroke="#263238" stroke-width="1.46791" stroke-linecap="round" stroke-linejoin="round"/>
<path d="M79.7268 310.105V303.705" stroke="#263238" stroke-width="1.46791" stroke-linecap="round" stroke-linejoin="round"/>
<path d="M332.808 272.423C333.782 270.574 335.243 269.026 337.034 267.947C338.824 266.868 340.875 266.299 342.965 266.302H440.875C440.875 266.302 447.95 266.302 445.836 279.748C443.723 293.194 414.687 375.294 407.671 400.116C400.654 424.939 399.172 477.255 399.172 477.255H281.739C281.739 477.255 291.046 352.145 332.808 272.423Z" fill="white"/>
<path opacity="0.16" d="M376.904 266.302H342.966C340.876 266.299 338.825 266.868 337.034 267.947C335.244 269.026 333.783 270.574 332.809 272.423C291.047 352.145 281.637 477.211 281.637 477.211H334.306L347.297 427.874L401.463 439.045C401.844 434.906 402.285 430.693 402.798 426.539L401.609 413.327C401.609 413.327 390.512 401.658 387.018 398.736C383.525 395.815 385.844 390.546 385.257 367.778C384.67 345.011 364.236 328.644 356.633 314.625C349.029 300.607 360.728 291.844 371.238 277.825C374.981 272.761 376.508 269.032 376.904 266.302Z" fill="black"/>
<path d="M332.808 272.423C333.782 270.574 335.243 269.026 337.034 267.947C338.824 266.868 340.875 266.299 342.965 266.302H440.875C440.875 266.302 447.95 266.302 445.836 279.748C443.723 293.194 414.687 375.294 407.671 400.116C400.654 424.939 399.172 477.255 399.172 477.255H281.739C281.739 477.255 291.046 352.145 332.808 272.423Z" stroke="#263238" stroke-width="1.46791" stroke-linecap="round" stroke-linejoin="round"/>
<path d="M423.892 289.657C413.998 312.748 393.066 404.154 389.66 477.212H399.114C399.114 477.212 400.581 424.837 407.613 400.073C414.644 375.31 443.709 293.195 445.778 279.705C447.848 266.215 440.817 266.259 440.817 266.259C440.817 266.259 431.833 271.147 423.892 289.657Z" fill="#263238" stroke="#263238" stroke-width="1.46791" stroke-linecap="round" stroke-linejoin="round"/>
<path d="M151.302 466.216C148.11 466.058 144.975 465.311 142.054 464.014C141.647 463.864 141.274 463.632 140.96 463.333C140.645 463.034 140.394 462.674 140.223 462.275C140.052 461.876 139.964 461.446 139.964 461.012C139.964 460.577 140.053 460.148 140.224 459.749C140.396 459.35 140.647 458.99 140.962 458.691C141.277 458.392 141.649 458.161 142.057 458.011C142.464 457.86 142.898 457.795 143.331 457.817C143.765 457.84 144.189 457.951 144.579 458.143C147.515 459.39 151.317 460.168 152.329 459.728C154.194 457.644 157.056 445.049 153.357 438.972C152.52 437.621 151.742 437.372 151.229 437.313C149.129 437.02 146.017 439.177 144.917 440.249C144.61 440.538 144.25 440.764 143.856 440.914C143.462 441.064 143.042 441.135 142.621 441.122C142.2 441.11 141.785 441.015 141.401 440.842C141.017 440.67 140.67 440.423 140.381 440.117C140.092 439.81 139.866 439.45 139.716 439.056C139.566 438.662 139.495 438.243 139.507 437.822C139.52 437.4 139.615 436.986 139.787 436.601C139.96 436.217 140.206 435.87 140.513 435.581C141.085 435.023 146.384 430.253 152.036 431.016C153.438 431.22 154.773 431.745 155.939 432.55C157.105 433.354 158.07 434.417 158.759 435.654C164.205 444.535 160.476 461.431 156.293 464.778C154.839 465.806 153.08 466.313 151.302 466.216Z" fill="white"/>
<path d="M155.604 438.003C155.219 437.091 154.616 436.288 153.848 435.663C153.08 435.039 152.171 434.612 151.2 434.421C147.53 433.834 144.081 437.518 143.699 437.929C143.348 438.352 143.131 438.87 143.076 439.416C143.021 439.963 143.131 440.513 143.391 440.997C143.968 440.881 144.502 440.607 144.932 440.205C146.033 439.177 149.145 437.019 151.244 437.269C151.758 437.269 152.536 437.577 153.372 438.928C157.072 444.946 154.209 457.599 152.345 459.684C151.332 460.124 147.545 459.346 144.594 458.099C144.231 457.946 143.843 457.861 143.449 457.849C143.476 458.251 143.603 458.641 143.818 458.982C144.034 459.322 144.331 459.604 144.682 459.801C146.538 460.793 148.586 461.373 150.686 461.504C151.885 461.562 153.058 461.151 153.96 460.359C156.719 457.82 159.156 444.829 155.604 438.003Z" fill="#5F338F"/>
<path opacity="0.5" d="M155.604 438.003C155.219 437.091 154.616 436.288 153.848 435.663C153.08 435.039 152.171 434.612 151.2 434.421C147.53 433.834 144.081 437.518 143.699 437.929C143.348 438.352 143.131 438.87 143.076 439.416C143.021 439.963 143.131 440.513 143.391 440.997C143.968 440.881 144.502 440.607 144.932 440.205C146.033 439.177 149.145 437.019 151.244 437.269C151.758 437.269 152.536 437.577 153.372 438.928C157.072 444.946 154.209 457.599 152.345 459.684C151.332 460.124 147.545 459.346 144.594 458.099C144.231 457.946 143.843 457.861 143.449 457.849C143.476 458.251 143.603 458.641 143.818 458.982C144.034 459.322 144.331 459.604 144.682 459.801C146.538 460.793 148.586 461.373 150.686 461.504C151.885 461.562 153.058 461.151 153.96 460.359C156.719 457.82 159.156 444.829 155.604 438.003Z" fill="white"/>
<path d="M151.302 466.216C148.11 466.058 144.975 465.311 142.054 464.014C141.647 463.864 141.274 463.632 140.96 463.333C140.645 463.034 140.394 462.674 140.223 462.275C140.052 461.876 139.964 461.446 139.964 461.012C139.964 460.577 140.053 460.148 140.224 459.749C140.396 459.35 140.647 458.99 140.962 458.691C141.277 458.392 141.649 458.161 142.057 458.011C142.464 457.86 142.898 457.795 143.331 457.817C143.765 457.84 144.189 457.951 144.579 458.143C147.515 459.39 151.317 460.168 152.329 459.728C154.194 457.644 157.056 445.049 153.357 438.972C152.52 437.621 151.742 437.372 151.229 437.313C149.129 437.02 146.017 439.177 144.917 440.249C144.61 440.538 144.25 440.764 143.856 440.914C143.462 441.064 143.042 441.135 142.621 441.122C142.2 441.11 141.785 441.015 141.401 440.842C141.017 440.67 140.67 440.423 140.381 440.117C140.092 439.81 139.866 439.45 139.716 439.056C139.566 438.662 139.495 438.243 139.507 437.822C139.52 437.4 139.615 436.986 139.787 436.601C139.96 436.217 140.206 435.87 140.513 435.581C141.085 435.023 146.384 430.253 152.036 431.016C153.438 431.22 154.773 431.745 155.939 432.55C157.105 433.354 158.07 434.417 158.759 435.654C164.205 444.535 160.476 461.431 156.293 464.778C154.839 465.806 153.08 466.313 151.302 466.216V466.216Z" stroke="#263238" stroke-width="1.46791" stroke-linecap="round" stroke-linejoin="round"/>
<path d="M145.694 428.345H110.391V475.2H145.694V428.345Z" fill="white"/>
<path d="M124.85 428.345H110.391V475.2H124.85V428.345Z" fill="#5F338F"/>
<path opacity="0.5" d="M124.85 428.345H110.391V475.2H124.85V428.345Z" fill="white"/>
<path d="M145.694 428.345H110.391V475.2H145.694V428.345Z" stroke="#263238" stroke-width="1.46791" stroke-linecap="round" stroke-linejoin="round"/>
<path d="M339.693 474.554H188.88L183.963 391.646C183.827 390.842 183.867 390.019 184.08 389.232C184.294 388.445 184.675 387.714 185.198 387.089C185.722 386.463 186.374 385.959 187.111 385.611C187.848 385.262 188.652 385.078 189.467 385.07H339.047C339.867 385.069 340.678 385.248 341.422 385.592C342.166 385.937 342.826 386.44 343.356 387.066C343.886 387.692 344.272 388.427 344.489 389.218C344.706 390.009 344.747 390.838 344.61 391.646L339.693 474.554Z" fill="#263238" stroke="#263238" stroke-width="1.46791" stroke-linecap="round" stroke-linejoin="round"/>
<path d="M196.308 387.051H337.961C338.761 387.043 339.554 387.21 340.283 387.54C341.012 387.87 341.659 388.356 342.181 388.962C342.703 389.569 343.085 390.283 343.302 391.053C343.519 391.824 343.565 392.632 343.436 393.422" stroke="white" stroke-width="1.46791" stroke-linecap="round" stroke-linejoin="round"/>
<path d="M185.064 392.115C185.182 390.728 185.819 389.436 186.847 388.497C187.876 387.559 189.22 387.042 190.612 387.051" stroke="white" stroke-width="1.46791" stroke-linecap="round" stroke-linejoin="round"/>
<path d="M340.324 466.48H188.249V474.553H340.324V466.48Z" fill="white" stroke="#263238" stroke-width="1.46791" stroke-linecap="round" stroke-linejoin="round"/>
<path d="M263.743 436.593C269.694 436.593 274.518 433.701 274.518 430.134C274.518 426.567 269.694 423.675 263.743 423.675C257.793 423.675 252.969 426.567 252.969 430.134C252.969 433.701 257.793 436.593 263.743 436.593Z" fill="white" stroke="#263238" stroke-width="1.46791" stroke-linecap="round" stroke-linejoin="round"/>
<path d="M569.699 473.6H3.29276V487.355H569.699V473.6Z" fill="#263238"/>
<path d="M422.835 23.6348H150.347C141.162 23.6348 133.716 31.0809 133.716 40.2661V196.613C133.716 205.798 141.162 213.244 150.347 213.244H422.835C432.02 213.244 439.466 205.798 439.466 196.613V40.2661C439.466 31.0809 432.02 23.6348 422.835 23.6348Z" fill="#5F338F"/>
<path d="M293.781 132.597C318.498 128.625 335.316 105.367 331.343 80.6501C327.371 55.9328 304.113 39.1157 279.396 43.0881C254.679 47.0604 237.862 70.318 241.834 95.0353C245.806 119.753 269.064 136.57 293.781 132.597Z" fill="#D81B1F"/>
<path d="M286.246 96.2232L271.142 115.614C270.628 116.421 269.922 117.088 269.086 117.555C268.251 118.021 267.313 118.272 266.356 118.286C265.044 118.304 263.778 117.803 262.833 116.891C262.353 116.451 261.973 115.912 261.72 115.312C261.467 114.712 261.346 114.064 261.365 113.412C261.413 111.954 261.927 110.549 262.833 109.405L280.052 88.1057L263.905 66.7917C263.154 65.7914 262.743 64.5778 262.73 63.3274C262.727 62.5817 262.877 61.8433 263.173 61.1587C263.468 60.4741 263.903 59.858 264.448 59.3494C264.96 58.8147 265.575 58.3894 266.257 58.0992C266.938 57.8091 267.671 57.6601 268.411 57.6613C269.359 57.6767 270.289 57.9292 271.114 58.3959C271.94 58.8625 272.636 59.5285 273.138 60.3329L287.729 79.5478L302.408 60.6559C302.933 59.7745 303.667 59.0361 304.545 58.5061C305.423 57.9761 306.418 57.6708 307.443 57.6173C308.079 57.6157 308.708 57.7453 309.291 57.9978C309.875 58.2504 310.4 58.6206 310.834 59.0852C311.296 59.5208 311.665 60.0461 311.917 60.6292C312.17 61.2123 312.301 61.8407 312.302 62.4761C312.286 63.613 311.894 64.7126 311.186 65.6027L293.909 87.7094L310.599 109.728C311.388 110.712 311.827 111.931 311.847 113.192C311.851 113.922 311.698 114.643 311.396 115.307C311.094 115.971 310.652 116.562 310.1 117.038C309.023 118.074 307.587 118.652 306.092 118.653C305.139 118.641 304.205 118.39 303.374 117.923C302.543 117.457 301.842 116.789 301.336 115.981L286.246 96.2232Z" fill="white"/>
<path d="M372.954 180.407H200.167C196.663 180.407 193.303 179.015 190.825 176.537C188.348 174.06 186.956 170.699 186.956 167.196C186.956 163.692 188.348 160.331 190.825 157.854C193.303 155.376 196.663 153.984 200.167 153.984H372.954C376.458 153.984 379.818 155.376 382.296 157.854C384.773 160.331 386.165 163.692 386.165 167.196C386.165 170.699 384.773 174.06 382.296 176.537C379.818 179.015 376.458 180.407 372.954 180.407Z" fill="white"/>
<path d="M223.845 171.452C223.73 171.452 223.615 171.429 223.51 171.383C223.404 171.338 223.308 171.271 223.228 171.188C223.142 171.102 223.073 170.999 223.028 170.885C222.982 170.771 222.961 170.65 222.964 170.527C222.964 170.321 223.02 170.118 223.126 169.94L224.447 167.885H221.746C221.621 167.892 221.496 167.871 221.38 167.826C221.263 167.78 221.158 167.71 221.071 167.621C220.92 167.445 220.837 167.221 220.837 166.99C220.837 166.758 220.92 166.534 221.071 166.359C221.158 166.269 221.263 166.199 221.38 166.154C221.496 166.108 221.621 166.088 221.746 166.094L224.403 166.168L223.228 164.259C223.111 164.064 223.045 163.842 223.038 163.614C223.034 163.491 223.056 163.37 223.101 163.256C223.147 163.142 223.215 163.039 223.302 162.953C223.384 162.869 223.482 162.802 223.591 162.757C223.699 162.712 223.815 162.688 223.933 162.689C224.097 162.686 224.259 162.732 224.397 162.821C224.535 162.91 224.645 163.037 224.711 163.188L226.003 165.492L227.236 163.291C227.313 163.119 227.437 162.973 227.592 162.866C227.747 162.76 227.929 162.699 228.116 162.689C228.232 162.689 228.346 162.712 228.452 162.758C228.558 162.803 228.653 162.87 228.733 162.953C228.819 163.034 228.887 163.132 228.933 163.24C228.978 163.349 229 163.466 228.997 163.584C228.995 163.793 228.934 163.996 228.821 164.171L227.529 166.241L230.216 166.168C230.341 166.16 230.466 166.18 230.582 166.226C230.699 166.271 230.804 166.342 230.891 166.432C231.042 166.608 231.125 166.832 231.125 167.063C231.125 167.295 231.042 167.519 230.891 167.694C230.804 167.785 230.699 167.855 230.582 167.901C230.466 167.946 230.341 167.966 230.216 167.959H227.5L228.704 169.837C228.839 170.064 228.915 170.322 228.924 170.586C228.928 170.705 228.908 170.824 228.865 170.935C228.822 171.046 228.757 171.147 228.674 171.232C228.597 171.314 228.504 171.38 228.4 171.426C228.297 171.471 228.185 171.495 228.072 171.496C227.891 171.492 227.714 171.436 227.563 171.334C227.412 171.233 227.294 171.09 227.221 170.924L226.003 168.766L224.784 170.924C224.696 171.094 224.56 171.234 224.393 171.328C224.227 171.422 224.036 171.465 223.845 171.452Z" fill="black"/>
<path d="M237.32 171.452C237.204 171.452 237.09 171.429 236.984 171.384C236.878 171.338 236.783 171.272 236.703 171.188C236.616 171.102 236.548 170.999 236.503 170.885C236.457 170.772 236.436 170.65 236.439 170.528C236.439 170.321 236.495 170.118 236.601 169.941L237.922 167.885H235.221C235.096 167.892 234.971 167.872 234.855 167.826C234.738 167.78 234.633 167.711 234.545 167.621C234.395 167.446 234.312 167.222 234.312 166.99C234.312 166.758 234.395 166.535 234.545 166.359C234.633 166.269 234.738 166.2 234.855 166.154C234.971 166.108 235.096 166.088 235.221 166.095L237.878 166.168L236.63 164.186C236.512 163.991 236.446 163.768 236.439 163.54C236.436 163.418 236.457 163.296 236.503 163.183C236.548 163.069 236.616 162.966 236.703 162.88C236.786 162.796 236.884 162.729 236.992 162.684C237.101 162.639 237.217 162.615 237.334 162.616C237.499 162.613 237.66 162.659 237.799 162.748C237.937 162.837 238.046 162.964 238.112 163.115L239.404 165.419L240.637 163.217C240.715 163.046 240.838 162.899 240.993 162.793C241.149 162.687 241.33 162.626 241.518 162.616C241.633 162.616 241.747 162.639 241.853 162.684C241.959 162.73 242.055 162.796 242.135 162.88C242.221 162.961 242.289 163.058 242.334 163.167C242.38 163.276 242.402 163.393 242.399 163.511C242.397 163.72 242.336 163.923 242.223 164.098L240.931 166.168L243.617 166.095C243.742 166.087 243.867 166.107 243.984 166.153C244.1 166.198 244.206 166.269 244.292 166.359C244.443 166.535 244.526 166.758 244.526 166.99C244.526 167.222 244.443 167.446 244.292 167.621C244.206 167.711 244.1 167.782 243.984 167.827C243.867 167.873 243.742 167.893 243.617 167.885H240.901L242.105 169.764C242.241 169.991 242.317 170.249 242.325 170.513C242.33 170.632 242.31 170.75 242.267 170.861C242.224 170.972 242.159 171.074 242.076 171.159C241.999 171.241 241.905 171.307 241.802 171.353C241.698 171.398 241.587 171.422 241.474 171.423C241.292 171.42 241.114 171.365 240.963 171.263C240.812 171.162 240.694 171.018 240.623 170.851L239.404 168.693L238.186 170.851C238.114 171.023 237.994 171.171 237.84 171.277C237.687 171.384 237.506 171.445 237.32 171.452Z" fill="black"/>
<path d="M250.796 171.452C250.681 171.452 250.567 171.429 250.461 171.384C250.355 171.338 250.259 171.272 250.18 171.188C250.093 171.102 250.025 170.999 249.979 170.885C249.934 170.772 249.912 170.65 249.915 170.528C249.915 170.321 249.971 170.118 250.077 169.941L251.398 167.885H248.697C248.572 167.892 248.447 167.872 248.331 167.826C248.215 167.78 248.109 167.711 248.022 167.621C247.871 167.446 247.788 167.222 247.788 166.99C247.788 166.758 247.871 166.535 248.022 166.359C248.109 166.269 248.215 166.2 248.331 166.154C248.447 166.108 248.572 166.088 248.697 166.095L251.354 166.168L250.106 164.186C249.988 163.991 249.923 163.768 249.915 163.54C249.912 163.418 249.934 163.296 249.979 163.183C250.025 163.069 250.093 162.966 250.18 162.88C250.262 162.796 250.36 162.729 250.469 162.684C250.577 162.639 250.693 162.615 250.811 162.616C250.975 162.613 251.137 162.659 251.275 162.748C251.413 162.837 251.523 162.964 251.589 163.115L252.881 165.419L254.114 163.217C254.191 163.046 254.314 162.899 254.47 162.793C254.625 162.687 254.807 162.626 254.994 162.616C255.11 162.616 255.224 162.639 255.33 162.684C255.436 162.73 255.531 162.796 255.611 162.88C255.697 162.961 255.765 163.058 255.81 163.167C255.856 163.276 255.878 163.393 255.875 163.511C255.873 163.72 255.812 163.923 255.699 164.098L254.407 166.168L257.093 166.095C257.218 166.087 257.343 166.107 257.46 166.153C257.577 166.198 257.682 166.269 257.769 166.359C257.92 166.535 258.003 166.758 258.003 166.99C258.003 167.222 257.92 167.446 257.769 167.621C257.682 167.711 257.577 167.782 257.46 167.827C257.343 167.873 257.218 167.893 257.093 167.885H254.378L255.582 169.764C255.717 169.991 255.793 170.249 255.802 170.513C255.806 170.632 255.786 170.75 255.743 170.861C255.7 170.972 255.635 171.074 255.552 171.159C255.475 171.241 255.382 171.307 255.278 171.353C255.175 171.398 255.063 171.422 254.95 171.423C254.768 171.42 254.591 171.365 254.44 171.263C254.288 171.162 254.17 171.018 254.099 170.851L252.881 168.693L251.662 170.851C251.59 171.023 251.47 171.171 251.317 171.277C251.163 171.384 250.983 171.445 250.796 171.452Z" fill="black"/>
<path d="M264.33 171.452C264.215 171.452 264.1 171.429 263.994 171.384C263.888 171.338 263.793 171.272 263.713 171.188C263.626 171.102 263.558 170.999 263.513 170.885C263.467 170.772 263.446 170.65 263.449 170.528C263.449 170.321 263.505 170.118 263.611 169.941L264.932 167.885H262.231C262.106 167.892 261.981 167.872 261.865 167.826C261.748 167.78 261.643 167.711 261.555 167.621C261.405 167.446 261.322 167.222 261.322 166.99C261.322 166.758 261.405 166.535 261.555 166.359C261.643 166.269 261.748 166.2 261.865 166.154C261.981 166.108 262.106 166.088 262.231 166.095L264.888 166.168L263.64 164.186C263.522 163.991 263.456 163.768 263.449 163.54C263.446 163.418 263.467 163.296 263.513 163.183C263.558 163.069 263.626 162.966 263.713 162.88C263.796 162.796 263.894 162.729 264.002 162.684C264.111 162.639 264.227 162.615 264.344 162.616C264.509 162.613 264.67 162.659 264.809 162.748C264.947 162.837 265.056 162.964 265.122 163.115L266.414 165.419L267.647 163.217C267.725 163.046 267.848 162.899 268.003 162.793C268.159 162.687 268.34 162.626 268.528 162.616C268.643 162.616 268.757 162.639 268.863 162.684C268.969 162.73 269.065 162.796 269.145 162.88C269.231 162.961 269.299 163.058 269.344 163.167C269.39 163.276 269.412 163.393 269.409 163.511C269.407 163.72 269.346 163.923 269.233 164.098L267.941 166.168L270.627 166.095C270.752 166.087 270.877 166.107 270.994 166.153C271.11 166.198 271.216 166.269 271.302 166.359C271.453 166.535 271.536 166.758 271.536 166.99C271.536 167.222 271.453 167.446 271.302 167.621C271.216 167.711 271.11 167.782 270.994 167.827C270.877 167.873 270.752 167.893 270.627 167.885H267.912L269.115 169.764C269.251 169.991 269.327 170.249 269.335 170.513C269.34 170.632 269.32 170.75 269.277 170.861C269.234 170.972 269.169 171.074 269.086 171.159C269.009 171.241 268.915 171.307 268.812 171.353C268.709 171.398 268.597 171.422 268.484 171.423C268.302 171.419 268.126 171.362 267.975 171.261C267.824 171.16 267.705 171.017 267.633 170.851L266.414 168.693L265.196 170.851C265.124 171.023 265.004 171.171 264.85 171.277C264.697 171.384 264.516 171.445 264.33 171.452Z" fill="black"/>
<path d="M277.746 171.452C277.631 171.452 277.517 171.429 277.411 171.384C277.305 171.338 277.209 171.272 277.129 171.188C277.043 171.102 276.974 170.999 276.929 170.885C276.883 170.772 276.862 170.65 276.865 170.528C276.872 170.322 276.927 170.121 277.027 169.941L278.348 167.885H275.647C275.522 167.892 275.397 167.872 275.281 167.826C275.164 167.78 275.059 167.711 274.972 167.621C274.821 167.446 274.738 167.222 274.738 166.99C274.738 166.758 274.821 166.535 274.972 166.359C275.059 166.269 275.164 166.2 275.281 166.154C275.397 166.108 275.522 166.088 275.647 166.095L278.304 166.168L277.056 164.186C276.938 163.991 276.873 163.768 276.865 163.54C276.862 163.418 276.883 163.296 276.929 163.183C276.974 163.069 277.043 162.966 277.129 162.88C277.212 162.796 277.31 162.729 277.418 162.684C277.527 162.639 277.643 162.615 277.761 162.616C277.925 162.613 278.086 162.659 278.225 162.748C278.363 162.837 278.472 162.964 278.539 163.115L279.83 165.419L281.063 163.217C281.141 163.046 281.264 162.899 281.42 162.793C281.575 162.687 281.756 162.626 281.944 162.616C282.06 162.614 282.174 162.637 282.281 162.682C282.387 162.728 282.482 162.795 282.561 162.88C282.647 162.961 282.715 163.058 282.76 163.167C282.806 163.276 282.828 163.393 282.825 163.511C282.823 163.72 282.762 163.923 282.649 164.098L281.357 166.168L284.043 166.095C284.168 166.087 284.293 166.107 284.41 166.153C284.526 166.198 284.632 166.269 284.719 166.359C284.869 166.535 284.952 166.758 284.952 166.99C284.952 167.222 284.869 167.446 284.719 167.621C284.632 167.711 284.526 167.782 284.41 167.827C284.293 167.873 284.168 167.893 284.043 167.885H281.328L282.531 169.764C282.667 169.991 282.743 170.249 282.752 170.513C282.756 170.632 282.736 170.75 282.693 170.861C282.65 170.972 282.585 171.074 282.502 171.159C282.425 171.241 282.332 171.307 282.228 171.353C282.125 171.398 282.013 171.422 281.9 171.423C281.718 171.419 281.542 171.362 281.391 171.261C281.24 171.16 281.121 171.017 281.049 170.851L279.83 168.693L278.612 170.851C278.54 171.023 278.42 171.171 278.266 171.277C278.113 171.384 277.933 171.445 277.746 171.452Z" fill="black"/>
<path d="M291.222 171.452C291.107 171.452 290.993 171.429 290.887 171.384C290.781 171.338 290.685 171.272 290.606 171.188C290.519 171.102 290.451 170.999 290.405 170.885C290.36 170.772 290.338 170.65 290.342 170.528C290.348 170.322 290.404 170.121 290.503 169.941L291.824 167.885H289.138C289.011 167.893 288.883 167.873 288.764 167.828C288.645 167.782 288.538 167.712 288.448 167.621C288.297 167.446 288.214 167.222 288.214 166.99C288.214 166.758 288.297 166.535 288.448 166.359C288.538 166.268 288.645 166.198 288.764 166.152C288.883 166.107 289.011 166.087 289.138 166.095L291.78 166.168L290.532 164.186C290.415 163.991 290.349 163.768 290.342 163.54C290.338 163.418 290.36 163.296 290.405 163.183C290.451 163.069 290.519 162.966 290.606 162.88C290.688 162.796 290.786 162.729 290.895 162.684C291.003 162.639 291.119 162.615 291.237 162.616C291.401 162.613 291.563 162.659 291.701 162.748C291.84 162.837 291.949 162.964 292.015 163.115L293.307 165.419L294.54 163.217C294.617 163.046 294.741 162.899 294.896 162.793C295.051 162.687 295.233 162.626 295.421 162.616C295.536 162.614 295.651 162.637 295.757 162.682C295.863 162.728 295.959 162.795 296.037 162.88C296.123 162.961 296.191 163.058 296.237 163.167C296.282 163.276 296.304 163.393 296.301 163.511C296.299 163.72 296.238 163.923 296.125 164.098L294.833 166.168L297.52 166.095C297.645 166.087 297.77 166.107 297.886 166.153C298.003 166.198 298.108 166.269 298.195 166.359C298.346 166.535 298.429 166.758 298.429 166.99C298.429 167.222 298.346 167.446 298.195 167.621C298.108 167.711 298.003 167.782 297.886 167.827C297.77 167.873 297.645 167.893 297.52 167.885H294.804L296.008 169.764C296.143 169.991 296.219 170.249 296.228 170.513C296.232 170.632 296.212 170.75 296.169 170.861C296.126 170.972 296.061 171.074 295.978 171.159C295.901 171.241 295.808 171.307 295.704 171.353C295.601 171.398 295.489 171.422 295.376 171.423C295.195 171.419 295.018 171.362 294.867 171.261C294.716 171.16 294.598 171.017 294.525 170.851L293.307 168.693L292.088 170.851C292.016 171.023 291.896 171.171 291.743 171.277C291.589 171.384 291.409 171.445 291.222 171.452Z" fill="black"/>
<path d="M304.697 171.452C304.582 171.452 304.468 171.429 304.362 171.383C304.256 171.338 304.16 171.271 304.081 171.188C303.994 171.102 303.926 170.999 303.88 170.885C303.835 170.771 303.813 170.65 303.816 170.527C303.816 170.321 303.872 170.118 303.978 169.94L305.299 167.885H302.598C302.473 167.892 302.348 167.871 302.232 167.826C302.116 167.78 302.01 167.71 301.923 167.621C301.772 167.445 301.689 167.221 301.689 166.99C301.689 166.758 301.772 166.534 301.923 166.359C302.01 166.269 302.116 166.199 302.232 166.154C302.348 166.108 302.473 166.088 302.598 166.094L305.255 166.168L303.963 164.259C303.846 164.064 303.78 163.842 303.772 163.614C303.769 163.491 303.791 163.37 303.836 163.256C303.882 163.142 303.95 163.039 304.037 162.953C304.119 162.869 304.217 162.802 304.326 162.757C304.434 162.712 304.55 162.688 304.668 162.689C304.832 162.686 304.994 162.732 305.132 162.821C305.27 162.91 305.38 163.037 305.446 163.188L306.738 165.492L307.971 163.291C308.048 163.119 308.171 162.973 308.327 162.866C308.482 162.76 308.664 162.699 308.851 162.689C308.967 162.687 309.082 162.71 309.188 162.755C309.294 162.801 309.389 162.868 309.468 162.953C309.554 163.034 309.622 163.132 309.667 163.24C309.713 163.349 309.735 163.466 309.732 163.584C309.73 163.793 309.669 163.996 309.556 164.171L308.264 166.241L310.951 166.168C311.075 166.16 311.201 166.18 311.317 166.226C311.434 166.271 311.539 166.342 311.626 166.432C311.777 166.608 311.86 166.832 311.86 167.063C311.86 167.295 311.777 167.519 311.626 167.694C311.539 167.785 311.434 167.855 311.317 167.901C311.201 167.946 311.075 167.966 310.951 167.959H308.235L309.439 169.837C309.574 170.064 309.65 170.322 309.659 170.586C309.663 170.705 309.643 170.824 309.6 170.935C309.557 171.046 309.492 171.147 309.409 171.232C309.332 171.314 309.239 171.38 309.135 171.426C309.032 171.471 308.92 171.495 308.807 171.496C308.626 171.492 308.449 171.436 308.298 171.334C308.147 171.233 308.029 171.09 307.956 170.924L306.738 168.766L305.519 170.924C305.44 171.076 305.323 171.205 305.179 171.297C305.034 171.39 304.868 171.443 304.697 171.452Z" fill="black"/>
<path d="M318.173 171.453C318.057 171.453 317.943 171.429 317.837 171.384C317.731 171.339 317.636 171.272 317.556 171.189C317.469 171.102 317.401 170.999 317.355 170.886C317.31 170.772 317.288 170.65 317.292 170.528C317.299 170.322 317.354 170.121 317.453 169.941L318.774 167.886H316.088C315.963 167.895 315.837 167.876 315.72 167.831C315.604 167.785 315.498 167.713 315.413 167.622C315.253 167.45 315.164 167.225 315.164 166.99C315.164 166.756 315.253 166.53 315.413 166.359C315.498 166.267 315.604 166.196 315.72 166.15C315.837 166.104 315.963 166.085 316.088 166.095L318.73 166.168L317.483 164.187C317.365 163.991 317.299 163.769 317.292 163.541C317.288 163.421 317.308 163.301 317.351 163.189C317.395 163.077 317.46 162.975 317.543 162.889C317.627 162.802 317.727 162.734 317.838 162.687C317.948 162.64 318.067 162.616 318.187 162.616C318.352 162.614 318.513 162.66 318.651 162.748C318.79 162.837 318.899 162.965 318.965 163.115L320.257 165.42L321.49 163.218C321.568 163.046 321.691 162.9 321.846 162.794C322.001 162.688 322.183 162.626 322.371 162.616C322.487 162.612 322.602 162.634 322.708 162.68C322.815 162.725 322.91 162.794 322.987 162.88C323.073 162.961 323.141 163.059 323.187 163.168C323.232 163.276 323.254 163.393 323.252 163.511C323.25 163.72 323.188 163.923 323.075 164.099L321.784 166.168L324.47 166.095C324.595 166.088 324.72 166.107 324.836 166.153C324.953 166.199 325.058 166.269 325.145 166.359C325.296 166.535 325.379 166.759 325.379 166.99C325.379 167.222 325.296 167.446 325.145 167.622C325.058 167.712 324.953 167.782 324.836 167.828C324.72 167.873 324.595 167.893 324.47 167.886H321.754L322.958 169.765C323.094 169.991 323.169 170.249 323.178 170.513C323.182 170.629 323.163 170.744 323.122 170.853C323.082 170.961 323.02 171.06 322.941 171.145C322.862 171.229 322.767 171.297 322.662 171.345C322.556 171.393 322.442 171.42 322.327 171.423C322.145 171.419 321.968 171.363 321.818 171.261C321.667 171.16 321.548 171.018 321.475 170.851L320.257 168.693L319.039 170.851C318.966 171.023 318.846 171.171 318.693 171.278C318.54 171.384 318.359 171.445 318.173 171.453Z" fill="black"/>
<path d="M331.647 171.453C331.532 171.453 331.418 171.429 331.312 171.384C331.206 171.339 331.11 171.272 331.031 171.189C330.944 171.102 330.876 170.999 330.83 170.886C330.785 170.772 330.763 170.65 330.767 170.528C330.774 170.322 330.829 170.121 330.928 169.941L332.249 167.886H329.548C329.426 167.893 329.303 167.873 329.189 167.827C329.074 167.782 328.972 167.711 328.888 167.622C328.728 167.45 328.639 167.225 328.639 166.99C328.639 166.756 328.728 166.53 328.888 166.359C328.972 166.269 329.074 166.199 329.189 166.153C329.303 166.108 329.426 166.088 329.548 166.095L332.205 166.168L330.958 164.187C330.84 163.991 330.774 163.769 330.767 163.541C330.763 163.421 330.783 163.301 330.826 163.189C330.87 163.077 330.935 162.975 331.018 162.889C331.102 162.802 331.202 162.734 331.313 162.687C331.423 162.64 331.542 162.616 331.662 162.616C331.827 162.614 331.988 162.66 332.126 162.748C332.265 162.837 332.374 162.965 332.44 163.115L333.732 165.42L334.965 163.218C335.043 163.046 335.166 162.9 335.321 162.794C335.476 162.688 335.658 162.626 335.846 162.616C335.962 162.612 336.077 162.634 336.183 162.68C336.29 162.725 336.385 162.794 336.462 162.88C336.548 162.961 336.616 163.059 336.662 163.168C336.707 163.276 336.729 163.393 336.726 163.511C336.725 163.72 336.663 163.923 336.55 164.099L335.259 166.168L337.945 166.095C338.07 166.088 338.195 166.107 338.311 166.153C338.428 166.199 338.533 166.269 338.62 166.359C338.771 166.535 338.854 166.759 338.854 166.99C338.854 167.222 338.771 167.446 338.62 167.622C338.533 167.712 338.428 167.782 338.311 167.828C338.195 167.873 338.07 167.893 337.945 167.886H335.229L336.433 169.765C336.569 169.991 336.644 170.249 336.653 170.513C336.657 170.629 336.638 170.744 336.597 170.853C336.557 170.961 336.495 171.06 336.416 171.145C336.337 171.229 336.242 171.297 336.137 171.345C336.031 171.393 335.917 171.42 335.802 171.423C335.62 171.419 335.443 171.363 335.292 171.261C335.142 171.16 335.023 171.018 334.95 170.851L333.732 168.693L332.514 170.851C332.441 171.023 332.321 171.171 332.168 171.278C332.015 171.384 331.834 171.445 331.647 171.453Z" fill="black"/>
<path d="M345.065 171.453C344.95 171.453 344.836 171.429 344.73 171.384C344.624 171.339 344.528 171.272 344.448 171.189C344.362 171.102 344.293 170.999 344.248 170.886C344.203 170.772 344.181 170.65 344.184 170.528C344.191 170.322 344.246 170.121 344.346 169.941L345.667 167.886H342.966C342.843 167.893 342.72 167.873 342.606 167.827C342.492 167.782 342.389 167.711 342.305 167.622C342.145 167.45 342.056 167.225 342.056 166.99C342.056 166.756 342.145 166.53 342.305 166.359C342.389 166.269 342.492 166.199 342.606 166.153C342.72 166.108 342.843 166.088 342.966 166.095L345.623 166.168L344.375 164.187C344.257 163.991 344.192 163.769 344.184 163.541C344.181 163.418 344.203 163.297 344.248 163.183C344.293 163.069 344.362 162.966 344.448 162.88C344.531 162.796 344.629 162.73 344.737 162.684C344.846 162.639 344.962 162.616 345.08 162.616C345.244 162.614 345.406 162.66 345.544 162.748C345.682 162.837 345.791 162.965 345.858 163.115L347.149 165.42L348.383 163.218C348.46 163.046 348.583 162.9 348.739 162.794C348.894 162.688 349.075 162.626 349.263 162.616C349.379 162.612 349.494 162.634 349.601 162.68C349.707 162.725 349.803 162.794 349.88 162.88C349.966 162.961 350.034 163.059 350.079 163.168C350.125 163.276 350.147 163.393 350.144 163.511C350.142 163.72 350.081 163.923 349.968 164.099L348.676 166.168L351.362 166.095C351.487 166.088 351.612 166.107 351.729 166.153C351.846 166.199 351.951 166.269 352.038 166.359C352.188 166.535 352.271 166.759 352.271 166.99C352.271 167.222 352.188 167.446 352.038 167.622C351.951 167.712 351.846 167.782 351.729 167.828C351.612 167.873 351.487 167.893 351.362 167.886H348.647L349.85 169.765C349.986 169.991 350.062 170.249 350.071 170.513C350.075 170.632 350.055 170.751 350.012 170.862C349.969 170.973 349.904 171.074 349.821 171.159C349.744 171.242 349.651 171.307 349.547 171.353C349.444 171.398 349.332 171.422 349.219 171.423C349.037 171.419 348.861 171.363 348.71 171.261C348.559 171.16 348.44 171.018 348.368 170.851L347.149 168.693L345.931 170.851C345.859 171.023 345.739 171.171 345.586 171.278C345.432 171.384 345.252 171.445 345.065 171.453Z" fill="black"/>
<path d="M391.246 203.923H409.198" stroke="white" stroke-width="4.40372" stroke-linecap="round" stroke-linejoin="round"/>
<path d="M142.244 71.7373V190.975C142.244 194.428 143.615 197.74 146.057 200.182C148.499 202.624 151.811 203.996 155.264 203.996H374.202" stroke="white" stroke-width="4.40372" stroke-linecap="round" stroke-linejoin="round"/>
<path d="M142.244 40.12V57.9991" stroke="white" stroke-width="4.40372" stroke-linecap="round" stroke-linejoin="round"/>
</svg>
