<svg width="71" height="113" viewBox="0 0 71 113" fill="none" xmlns="http://www.w3.org/2000/svg">
<g clip-path="url(#clip0_6_1249)">
<path d="M1.77166 46.0052C3.74124 44.8541 5.68178 43.5076 7.80977 42.5254C12.0314 40.5743 16.4722 40.1836 21.045 41.0522C27.9412 42.3564 33.6572 45.8441 39.0379 50.0764C38.1719 49.5061 33.3193 47.423 29.8606 50.541C29.6151 50.7628 20.3348 58.0603 15.8359 61.3499C11.4691 64.5446 5.04285 62.8496 1.78486 58.4959C-2.01965 53.4109 1.60005 46.2877 1.76902 46.0078L1.77166 46.0052Z" fill="url(#paint0_linear_6_1249)"/>
<path d="M68.5764 46.8792H68.5817L66.3956 43.3545C61.6407 35.1778 44.6273 5.94569 44.6273 5.94569C39.9146 -2.08575 28.2317 -1.86926 23.8173 6.32852C23.8173 6.32852 17.3594 18.0642 15.3318 21.6812C15.4083 21.5677 15.4928 21.4647 15.572 21.3538C14.4156 23.3366 2.25757 45.0865 1.77441 45.9868C1.78233 45.9788 1.78762 45.9736 1.79554 45.9604C1.78762 45.9604 1.77441 45.9815 1.77441 45.9894C3.74399 44.833 5.68981 43.4839 7.8178 42.5044C12.0474 40.5506 16.4882 40.1625 21.0663 41.0259C26.6529 42.0819 31.4633 44.5637 35.9516 47.7161L50.338 58.6781C50.338 58.6781 60.3047 67.0634 67.7817 57.9521C68.5659 56.9963 71.8793 52.413 68.5764 46.8792Z" fill="url(#paint1_linear_6_1249)"/>
<path d="M25.0978 112.113C24.538 112.118 24.0443 112.036 23.6166 111.873C23.1889 111.709 22.8562 111.535 22.6186 111.35L22.9328 110.484C23.1731 110.658 23.482 110.816 23.8542 110.956C24.2265 111.096 24.6067 111.165 24.9948 111.162C25.8529 111.154 26.2779 110.838 26.2753 110.207C26.2753 109.943 26.175 109.745 25.9796 109.615C25.7842 109.486 25.4067 109.33 24.8469 109.145L24.2899 108.96C24.076 108.886 23.8912 108.815 23.7433 108.749C23.5955 108.683 23.4424 108.599 23.2892 108.498C23.1361 108.395 23.0147 108.287 22.9196 108.166C22.8246 108.044 22.7506 107.902 22.6925 107.733C22.6345 107.564 22.6054 107.371 22.6028 107.157C22.6028 106.851 22.6635 106.576 22.7876 106.339C22.9117 106.101 23.0886 105.911 23.3104 105.774C23.5321 105.636 23.7777 105.531 24.047 105.46C24.3163 105.388 24.6067 105.351 24.9156 105.349C25.7684 105.341 26.4891 105.523 27.0779 105.893L26.7637 106.727C26.1934 106.428 25.6258 106.281 25.0555 106.286C24.6384 106.289 24.3189 106.362 24.0918 106.508C23.8648 106.653 23.7539 106.856 23.7565 107.115C23.7565 107.35 23.8278 107.524 23.9651 107.635C24.1024 107.746 24.377 107.873 24.7862 108.015C25.1532 108.134 25.3697 108.205 25.4383 108.232C25.705 108.321 25.9162 108.401 26.0773 108.467C26.2383 108.533 26.4099 108.62 26.5947 108.731C26.7796 108.842 26.9195 108.955 27.0198 109.077C27.1201 109.198 27.202 109.349 27.2706 109.531C27.3366 109.713 27.371 109.919 27.3736 110.151C27.3762 110.497 27.3129 110.798 27.1861 111.057C27.0568 111.315 26.8825 111.519 26.6607 111.667C26.439 111.814 26.1987 111.923 25.9373 111.997C25.676 112.071 25.3987 112.108 25.1004 112.11L25.0978 112.113Z" fill="#8033FF"/>
<path d="M32.9471 112.05C32.3874 112.055 31.8937 111.973 31.466 111.809C31.0383 111.646 30.7056 111.471 30.468 111.287L30.7822 110.421C31.0224 110.595 31.3313 110.753 31.7036 110.893C32.0759 111.033 32.456 111.102 32.8442 111.099C33.7022 111.091 34.1273 110.774 34.1246 110.143C34.1246 109.879 34.0243 109.681 33.8289 109.552C33.6336 109.423 33.256 109.267 32.6963 109.082L32.1392 108.897C31.9254 108.823 31.7406 108.752 31.5927 108.686C31.4449 108.62 31.2917 108.535 31.1386 108.435C30.9855 108.335 30.864 108.224 30.769 108.102C30.6739 107.981 30.6 107.838 30.5419 107.669C30.4838 107.501 30.4548 107.308 30.4521 107.094C30.4521 106.788 30.5129 106.513 30.637 106.275C30.7637 106.038 30.9379 105.848 31.1597 105.71C31.3815 105.573 31.627 105.468 31.8963 105.396C32.1656 105.325 32.4561 105.288 32.765 105.285C33.6177 105.277 34.3385 105.46 34.9273 105.829L34.6131 106.664C34.0428 106.365 33.4752 106.217 32.9049 106.223C32.4877 106.225 32.1683 106.299 31.9412 106.444C31.7142 106.59 31.6033 106.793 31.6059 107.052C31.6059 107.287 31.6772 107.461 31.8145 107.572C31.9518 107.683 32.2264 107.809 32.6356 107.952C33.0026 108.071 33.2191 108.142 33.2877 108.168C33.5544 108.258 33.7656 108.337 33.9266 108.403C34.0877 108.469 34.2593 108.557 34.4441 108.667C34.6289 108.778 34.7689 108.892 34.8692 109.013C34.9695 109.135 35.0514 109.285 35.12 109.467C35.186 109.65 35.2203 109.856 35.223 110.088C35.2256 110.434 35.1622 110.735 35.0355 110.993C34.9088 111.252 34.7319 111.456 34.5101 111.603C34.2883 111.751 34.0481 111.859 33.7867 111.933C33.5253 112.007 33.2481 112.044 32.9498 112.047L32.9471 112.05Z" fill="#8033FF"/>
<path d="M41.0313 111.989C40.2023 111.997 39.5792 111.764 39.1594 111.294C38.7396 110.824 38.5257 110.191 38.5205 109.391L38.4888 105.391L39.6425 105.38L39.6742 109.38C39.6795 109.935 39.8141 110.352 40.0782 110.629C40.3422 110.906 40.725 111.044 41.2214 111.038C41.789 111.033 42.2326 110.869 42.5494 110.542C42.8662 110.215 43.022 109.795 43.0193 109.283L42.9877 105.351L44.1493 105.341L44.1889 110.212C44.1942 110.788 44.218 111.321 44.2576 111.815L43.0774 111.825L43.0378 110.785C42.8609 111.118 42.6048 111.403 42.2748 111.632C41.9448 111.862 41.5303 111.984 41.0339 111.986L41.0313 111.989Z" fill="#8033FF"/>
<path d="M48.1229 111.788L48.0833 106.906C48.0833 106.764 48.0728 106.561 48.0569 106.294C48.0411 106.027 48.0252 105.8 48.0094 105.607L47.9883 105.317L49.2186 105.306L49.2397 106.315C49.6252 105.539 50.1981 105.145 50.9585 105.14C51.1987 105.14 51.4179 105.161 51.6159 105.211V106.241C51.3704 106.175 51.1301 106.143 50.903 106.146C50.4067 106.151 50.008 106.326 49.7097 106.677C49.4113 107.028 49.2635 107.527 49.2688 108.179L49.2978 111.78L48.1256 111.791L48.1229 111.788Z" fill="#8033FF"/>
<path d="M57.7383 111.849C56.7086 111.857 55.8875 111.558 55.2776 110.951C54.6678 110.344 54.3589 109.533 54.3483 108.52C54.3404 107.522 54.6255 106.701 55.2011 106.056C55.7793 105.409 56.5476 105.082 57.506 105.077C58.1106 105.072 58.6307 105.209 59.0637 105.486C59.4967 105.763 59.8188 106.143 60.0326 106.627C60.2438 107.11 60.3521 107.669 60.3574 108.308C60.3574 108.388 60.3521 108.491 60.3415 108.617L55.547 108.657C55.5654 109.38 55.7793 109.937 56.1859 110.325C56.5925 110.716 57.1284 110.909 57.7937 110.904C58.5673 110.898 59.2511 110.653 59.8452 110.167L60.199 111.023C59.5099 111.566 58.6888 111.841 57.7383 111.849ZM55.5733 107.86L59.2881 107.831C59.2406 107.239 59.0663 106.782 58.7601 106.466C58.4538 106.149 58.0498 105.993 57.5456 105.996C57.0149 106.001 56.574 106.167 56.2228 106.497C55.8691 106.827 55.6552 107.281 55.5733 107.86Z" fill="#8033FF"/>
<path d="M21.1375 94.4631C21.1877 94.5476 21.2273 94.64 21.259 94.7351C21.2748 94.8327 21.2748 94.9331 21.259 95.0308C21.259 95.168 21.2352 95.3053 21.1798 95.4347C21.1164 95.5614 21.0293 95.675 20.921 95.7674C20.8128 95.8703 20.6781 95.939 20.5329 95.9707C20.3956 96.0287 20.2452 96.0604 20.0973 96.0578C19.8729 96.0657 19.6511 96.0103 19.4584 95.8967C19.2709 95.7647 19.1257 95.5799 19.0412 95.3687C17.2512 91.4401 14.582 85.5498 11.0335 77.6953L3.34796 95.4954C3.26347 95.7146 3.11298 95.9047 2.91497 96.0314C2.73015 96.1423 2.51894 96.203 2.30245 96.203C2.14139 96.2083 1.98034 96.1819 1.82985 96.1238C1.68992 96.0683 1.56319 95.9891 1.44967 95.8915C1.32822 95.7938 1.22525 95.675 1.15132 95.5403C1.0906 95.4136 1.05892 95.2789 1.05364 95.139C1.04044 95.0492 1.0378 94.9568 1.05364 94.8671C1.05364 94.809 1.05364 94.7377 1.13548 94.6294C3.01794 90.3576 5.85086 83.9314 9.63688 75.3561C9.68969 75.2241 9.7689 75.1026 9.86922 74.9997C9.96427 74.8993 10.0699 74.8122 10.186 74.7356C10.2917 74.6591 10.4131 74.6063 10.5398 74.5799C10.6771 74.5614 10.817 74.5587 10.9543 74.5772C11.0863 74.5561 11.2236 74.5561 11.3556 74.5746C11.5035 74.6089 11.6434 74.6696 11.7702 74.7488C11.8837 74.8254 11.9919 74.9125 12.0923 75.0076C12.1873 75.1 12.2612 75.2135 12.3088 75.3376C13.7767 78.5296 15.2446 81.7242 16.6915 84.9162C18.1356 88.1082 19.6881 91.279 21.1428 94.471L21.1375 94.4631Z" fill="#8033FF"/>
<path d="M40.1707 74.5034C40.3555 74.3872 40.5668 74.3238 40.7833 74.3212C41.108 74.3133 41.4248 74.4242 41.673 74.6327C41.9053 74.8176 42.04 75.1 42.0347 75.3984C42.0294 75.5594 41.9925 75.7179 41.9212 75.8604C40.0414 80.1481 37.2137 86.5558 33.4435 95.0863C33.3485 95.3476 33.1663 95.5668 32.9287 95.7041C32.6911 95.8493 32.4165 95.9258 32.1393 95.9232C31.8673 95.9258 31.6007 95.8546 31.3683 95.7173C31.1149 95.5879 30.9142 95.3714 30.8086 95.1074C28.8813 90.8725 25.9665 84.5123 22.0564 76.0215C22.001 75.8815 21.9719 75.7337 21.9693 75.5858C21.9561 75.2664 22.1119 74.9654 22.3759 74.7912C22.6082 74.5826 22.9118 74.4664 23.2234 74.4638C23.6801 74.44 24.1052 74.7067 24.2821 75.1291C26.0246 79.0102 28.6542 84.8265 32.1683 92.5781C33.4383 89.658 35.9596 83.7995 39.7377 75.0024C39.8433 74.8043 39.9912 74.6354 40.1707 74.5034Z" fill="#8033FF"/>
<path d="M45.5356 85.0879C45.5066 83.5222 45.8049 81.9672 46.4095 80.5204C46.9824 79.1395 47.8115 77.8802 48.8517 76.8083C49.8999 75.7416 51.1407 74.8888 52.5136 74.2948C55.373 73.0565 58.6151 73.0301 61.4956 74.2235C64.2783 75.3825 66.5014 77.5818 67.6894 80.3514C68.9277 83.216 68.9541 86.4608 67.7607 89.3439C66.607 92.1161 64.4209 94.3312 61.6672 95.5245C58.7999 96.7628 55.5499 96.7892 52.6641 95.5985C49.8972 94.4421 47.6821 92.2639 46.4835 89.5155C45.8683 88.1188 45.5462 86.6139 45.5356 85.0879ZM47.5976 85.072C47.5976 86.342 47.8643 87.5987 48.3791 88.7577C48.8702 89.8719 49.5672 90.8831 50.4332 91.7385C51.3071 92.5939 52.3394 93.2751 53.4694 93.7424C55.8376 94.7272 58.5042 94.7061 60.854 93.6817C61.9734 93.1932 62.9873 92.4962 63.8453 91.6276C64.7007 90.759 65.3793 89.7372 65.8492 88.6125C66.834 86.2496 66.8102 83.5856 65.7885 81.2385C65.3053 80.1138 64.6083 79.092 63.7344 78.234C62.8605 77.3812 61.8361 76.7 60.7088 76.23C58.3405 75.2453 55.6739 75.2664 53.3242 76.2908C51.0536 77.265 49.253 79.0946 48.3157 81.381C47.8247 82.5401 47.5791 83.7863 47.5923 85.0456V85.0694L47.5976 85.072Z" fill="#8033FF"/>
<path d="M19.9732 111.986C19.9969 112.028 20.0181 112.073 20.0339 112.121C20.0418 112.168 20.0418 112.218 20.0339 112.266C20.0339 112.335 20.0207 112.403 19.9943 112.464C19.9626 112.527 19.9204 112.583 19.8676 112.628C19.8148 112.678 19.7461 112.712 19.6748 112.728C19.6062 112.757 19.5323 112.773 19.4584 112.77C19.3475 112.775 19.2366 112.746 19.1415 112.691C19.0491 112.625 18.9778 112.535 18.9356 112.43C18.0511 110.486 16.7284 107.572 14.9753 103.685L11.1734 112.493C11.1312 112.601 11.0573 112.694 10.9596 112.757C10.8672 112.812 10.7642 112.841 10.656 112.841C10.5768 112.844 10.4976 112.831 10.421 112.802C10.3523 112.773 10.289 112.736 10.2335 112.686C10.1728 112.638 10.1227 112.577 10.0857 112.511C10.0566 112.448 10.0382 112.382 10.0382 112.313C10.0302 112.269 10.0302 112.224 10.0382 112.179C10.0382 112.15 10.0382 112.115 10.0778 112.063C11.0098 109.948 12.4117 106.769 14.2836 102.526C14.31 102.46 14.3496 102.4 14.3998 102.349C14.4473 102.299 14.5001 102.257 14.5555 102.22C14.6083 102.183 14.6664 102.157 14.7298 102.143C14.7984 102.133 14.8671 102.133 14.9357 102.143C15.0017 102.133 15.0677 102.133 15.1337 102.143C15.2077 102.162 15.2763 102.191 15.3397 102.231C15.3951 102.268 15.4505 102.31 15.4981 102.357C15.5456 102.402 15.5799 102.46 15.6037 102.521C16.3297 104.1 17.0558 105.681 17.7713 107.26C18.4868 108.839 19.2524 110.407 19.9732 111.986Z" fill="#8033FF"/>
<path d="M64.9433 71.7075V69.4317H64.072V69.1492H66.1763V69.4317H65.2997V71.7075H64.9406H64.9433Z" fill="#8033FF"/>
<path d="M66.5776 71.7075V69.1492H67.0132C67.0449 69.2178 67.1848 69.5188 67.4357 70.0521C67.6865 70.5854 67.8739 70.992 68.0033 71.2745C68.1327 70.992 68.3228 70.5854 68.5736 70.0521C68.8244 69.5188 68.967 69.2178 68.9986 69.1492H69.4237V71.7075H69.0831V69.6957C68.9617 69.9597 68.7821 70.3373 68.5472 70.8283C68.3122 71.3194 68.1723 71.6125 68.1274 71.7075H67.8713L67.0607 69.9967L66.9208 69.6799V71.7075H66.575H66.5776Z" fill="#8033FF"/>
</g>
<defs>
<linearGradient id="paint0_linear_6_1249" x1="50.887" y1="50.4417" x2="4.31576" y2="52.1463" gradientUnits="userSpaceOnUse">
<stop stop-color="#4D52F2"/>
<stop offset="0.51" stop-color="#654CF3"/>
<stop offset="0.99" stop-color="#9341F6"/>
</linearGradient>
<linearGradient id="paint1_linear_6_1249" x1="80.4561" y1="82.7377" x2="14.782" y2="17.3005" gradientUnits="userSpaceOnUse">
<stop stop-color="#AB3CF7"/>
<stop offset="0.53" stop-color="#8645F5"/>
<stop offset="1" stop-color="#5F4EF3"/>
</linearGradient>
<clipPath id="clip0_6_1249">
<rect width="70.229" height="113" fill="white"/>
</clipPath>
</defs>
</svg>
