<svg width="18" height="14" viewBox="0 0 18 14" fill="none" xmlns="http://www.w3.org/2000/svg">
<path d="M2.27063 10.4523H6.75662C6.90823 10.4523 7.03115 10.3294 7.03115 10.1778V0.458127C7.03115 0.306512 6.90823 0.183594 6.75662 0.183594H2.27063C2.11901 0.183594 1.99609 0.306512 1.99609 0.458127V10.1778C1.99609 10.3294 2.11901 10.4523 2.27063 10.4523ZM6.48209 0.73266V9.90324H2.54516V0.73266H6.48209Z" fill="#605E5C" stroke="#605E5C" stroke-width="0.25"/>
<path d="M3.49219 7.93431C3.49219 8.49803 3.95062 8.95651 4.51439 8.95651C5.07815 8.95651 5.53658 8.49803 5.53658 7.93431C5.53658 7.37058 5.07815 6.91211 4.51439 6.91211C3.95062 6.91211 3.49219 7.37058 3.49219 7.93431ZM4.04125 7.93431C4.04125 7.67355 4.25363 7.46118 4.51439 7.46118C4.77515 7.46118 4.98752 7.67355 4.98752 7.93431C4.98752 8.19507 4.77515 8.40744 4.51439 8.40744C4.25363 8.40744 4.04125 8.19507 4.04125 7.93431Z" fill="#605E5C" stroke="#605E5C" stroke-width="0.25"/>
<path d="M3.76672 2.22875H5.26205C5.41367 2.22875 5.53658 2.10584 5.53658 1.95422C5.53658 1.80261 5.41367 1.67969 5.26205 1.67969H3.76672C3.61511 1.67969 3.49219 1.80261 3.49219 1.95422C3.49219 2.10584 3.61511 2.22875 3.76672 2.22875Z" fill="#605E5C" stroke="#605E5C" stroke-width="0.25"/>
<path d="M3.76672 4.47134H5.26205C5.41367 4.47134 5.53658 4.34843 5.53658 4.19681V3.07531C5.53658 2.9237 5.41367 2.80078 5.26205 2.80078H3.76672C3.61511 2.80078 3.49219 2.9237 3.49219 3.07531V4.19681C3.49219 4.34843 3.61511 4.47134 3.76672 4.47134ZM4.98752 3.34985V3.92228H4.04125V3.34985H4.98752Z" fill="#605E5C" stroke="#605E5C" stroke-width="0.25"/>
<path d="M6.75695 10.4523H11.2429C11.3946 10.4523 11.5175 10.3294 11.5175 10.1778V0.458127C11.5175 0.306512 11.3946 0.183594 11.2429 0.183594H6.75695C6.60534 0.183594 6.48242 0.306512 6.48242 0.458127V10.1778C6.48242 10.3294 6.60534 10.4523 6.75695 10.4523ZM10.9684 0.73266V9.90324H7.03149V0.73266H10.9684Z" fill="#605E5C" stroke="#605E5C" stroke-width="0.25"/>
<path d="M7.505 13.8159H10.4957C10.6473 13.8159 10.7702 13.693 10.7702 13.5413V12.046C10.7702 11.8944 10.6473 11.7715 10.4957 11.7715H7.505C7.35339 11.7715 7.23047 11.8944 7.23047 12.046V13.5413C7.23047 13.693 7.35339 13.8159 7.505 13.8159ZM10.2211 12.3206V13.2668H7.77953V12.3206H10.2211Z" fill="#605E5C" stroke="#605E5C" stroke-width="0.25"/>
<path d="M7.97754 7.93431C7.97754 8.49803 8.43597 8.95651 8.99974 8.95651C9.56347 8.95651 10.0219 8.49804 10.0219 7.93431C10.0219 7.37058 9.56347 6.91211 8.99974 6.91211C8.43597 6.91211 7.97754 7.37058 7.97754 7.93431ZM8.52661 7.93431C8.52661 7.67355 8.73898 7.46118 8.99974 7.46118C9.2605 7.46118 9.47287 7.67355 9.47287 7.93431C9.47287 8.19507 9.2605 8.40744 8.99974 8.40744C8.73898 8.40744 8.52661 8.19507 8.52661 7.93431Z" fill="#605E5C" stroke="#605E5C" stroke-width="0.25"/>
<path d="M8.25207 2.22875H9.7474C9.89902 2.22875 10.0219 2.10584 10.0219 1.95422C10.0219 1.80261 9.89902 1.67969 9.7474 1.67969H8.25207C8.10046 1.67969 7.97754 1.80261 7.97754 1.95422C7.97754 2.10584 8.10046 2.22875 8.25207 2.22875Z" fill="#605E5C" stroke="#605E5C" stroke-width="0.25"/>
<path d="M8.25207 4.47134H9.7474C9.89902 4.47134 10.0219 4.34843 10.0219 4.19681V3.07531C10.0219 2.9237 9.89902 2.80078 9.7474 2.80078H8.25207C8.10046 2.80078 7.97754 2.9237 7.97754 3.07531V4.19681C7.97754 4.34843 8.10046 4.47134 8.25207 4.47134ZM9.47287 3.34985V3.92228H8.52661V3.34985H9.47287Z" fill="#605E5C" stroke="#605E5C" stroke-width="0.25"/>
<path d="M11.2433 10.4523H15.7293C15.8809 10.4523 16.0038 10.3294 16.0038 10.1778V0.458127C16.0038 0.306512 15.8809 0.183594 15.7293 0.183594H11.2433C11.0917 0.183594 10.9688 0.306512 10.9688 0.458127V10.1778C10.9688 10.3294 11.0917 10.4523 11.2433 10.4523ZM15.4547 0.73266V9.90324H11.5178V0.73266H15.4547Z" fill="#605E5C" stroke="#605E5C" stroke-width="0.25"/>
<path d="M12.4639 7.93431C12.4639 8.49804 12.9223 8.95651 13.4861 8.95651C14.0498 8.95651 14.5083 8.49804 14.5083 7.93431C14.5083 7.37058 14.0498 6.91211 13.4861 6.91211C12.9223 6.91211 12.4639 7.37058 12.4639 7.93431ZM13.0129 7.93431C13.0129 7.67355 13.2253 7.46118 13.4861 7.46118C13.7468 7.46118 13.9592 7.67355 13.9592 7.93431C13.9592 8.19507 13.7468 8.40744 13.4861 8.40744C13.2253 8.40744 13.0129 8.19507 13.0129 7.93431Z" fill="#605E5C" stroke="#605E5C" stroke-width="0.25"/>
<path d="M12.7384 2.22875H14.2337C14.3853 2.22875 14.5083 2.10584 14.5083 1.95422C14.5083 1.80261 14.3853 1.67969 14.2337 1.67969H12.7384C12.5868 1.67969 12.4639 1.80261 12.4639 1.95422C12.4639 2.10584 12.5868 2.22875 12.7384 2.22875Z" fill="#605E5C" stroke="#605E5C" stroke-width="0.25"/>
<path d="M12.7384 4.47134H14.2337C14.3853 4.47134 14.5083 4.34843 14.5083 4.19681V3.07531C14.5083 2.9237 14.3853 2.80078 14.2337 2.80078H12.7384C12.5868 2.80078 12.4639 2.9237 12.4639 3.07531V4.19681C12.4639 4.34843 12.5868 4.47134 12.7384 4.47134ZM13.9592 3.34985V3.92228H13.0129V3.34985H13.9592Z" fill="#605E5C" stroke="#605E5C" stroke-width="0.25"/>
<path d="M10.4952 13.0686H16.8504C17.002 13.0686 17.1249 12.9457 17.1249 12.7941C17.1249 12.6424 17.002 12.5195 16.8504 12.5195H10.4952C10.3436 12.5195 10.2207 12.6424 10.2207 12.7941C10.2207 12.9457 10.3436 13.0686 10.4952 13.0686Z" fill="#605E5C" stroke="#605E5C" stroke-width="0.25"/>
<path d="M1.14953 13.0686H7.50469C7.6563 13.0686 7.77922 12.9457 7.77922 12.7941C7.77922 12.6424 7.6563 12.5195 7.50469 12.5195H1.14953C0.997918 12.5195 0.875 12.6424 0.875 12.7941C0.875 12.9457 0.997918 13.0686 1.14953 13.0686Z" fill="#605E5C" stroke="#605E5C" stroke-width="0.25"/>
<path d="M8.72559 12.046C8.72559 12.1977 8.8485 12.3206 9.00012 12.3206C9.15173 12.3206 9.27465 12.1977 9.27465 12.046V10.1769C9.27465 10.0253 9.15173 9.90234 9.00012 9.90234C8.8485 9.90234 8.72559 10.0253 8.72559 10.1769V12.046Z" fill="#605E5C" stroke="#605E5C" stroke-width="0.25"/>
</svg>
