<svg width="96" height="96" viewBox="0 0 96 96" fill="none" xmlns="http://www.w3.org/2000/svg">
<g clip-path="url(#clip0_6386_219370)">
<path d="M85.333 16H10.6663C9.25185 16 7.8953 16.5619 6.8951 17.5621C5.89491 18.5623 5.33301 19.9188 5.33301 21.3333V74.6667C5.33301 76.0812 5.89491 77.4377 6.8951 78.4379C7.8953 79.4381 9.25185 80 10.6663 80H85.333C86.7475 80 88.1041 79.4381 89.1042 78.4379C90.1044 77.4377 90.6663 76.0812 90.6663 74.6667V21.3333C90.6663 19.9188 90.1044 18.5623 89.1042 17.5621C88.1041 16.5619 86.7475 16 85.333 16ZM81.2263 74.6667H15.093L33.7597 55.36L29.9197 51.6533L10.6663 71.5733V25.3867L43.813 58.3733C44.8123 59.3667 46.164 59.9242 47.573 59.9242C48.982 59.9242 50.3337 59.3667 51.333 58.3733L85.333 24.56V71.2267L65.7063 51.6L61.9463 55.36L81.2263 74.6667ZM14.1597 21.3333H81.013L47.573 54.5867L14.1597 21.3333Z" fill="#605BFF"/>
</g>
<defs>
<clipPath id="clip0_6386_219370">
<rect width="96" height="96" fill="white"/>
</clipPath>
</defs>
</svg>
