<svg width="96" height="96" viewBox="0 0 96 96" fill="none" xmlns="http://www.w3.org/2000/svg">
<path d="M42.0279 56.5703C40.9599 56.5703 39.9159 56.887 39.0279 57.4804C38.1398 58.0737 37.4477 58.9171 37.039 59.9038C36.6303 60.8905 36.5233 61.9763 36.7317 63.0238C36.9401 64.0713 37.4544 65.0335 38.2096 65.7887C38.9648 66.5439 39.9269 67.0582 40.9744 67.2666C42.0219 67.4749 43.1077 67.368 44.0944 66.9593C45.0811 66.5506 45.9245 65.8584 46.5179 64.9704C47.1112 64.0824 47.4279 63.0383 47.4279 61.9703C47.429 61.2609 47.29 60.5582 47.019 59.9026C46.748 59.2469 46.3503 58.6512 45.8487 58.1496C45.347 57.6479 44.7513 57.2502 44.0957 56.9792C43.44 56.7082 42.7374 56.5693 42.0279 56.5703Z" fill="#605BFF"/>
<path d="M57.0355 5.53906L57.7678 6.2713L81.7678 30.2713L82.5 31.0035V32.0391V80.0391V80.0465C82.4917 82.8268 81.3836 85.4907 79.4176 87.4567C77.4517 89.4226 74.7877 90.5307 72.0075 90.5391L72 90.5391L23.96 90.5391H23.9512C21.1733 90.5293 18.5127 89.4179 16.5533 87.4486C14.5942 85.4797 13.4961 82.814 13.5 80.0365L13.5 80.0375L16 80.0391L13.5 80.0353L57.0355 5.53906ZM57.0355 5.53906H56H24V5.53905L23.9912 5.53908C21.2133 5.54881 18.5527 6.66025 16.5933 8.62949L18.3655 10.3928L16.5933 8.62949C14.6346 10.598 13.5366 13.263 13.54 16.04M57.0355 5.53906L13.54 16.04M13.54 16.04C13.54 16.0409 13.54 16.0419 13.54 16.0428L16.04 16.0391L13.54 16.0375L13.54 16.04ZM80 38.5391H80.0355L80 38.5035V38.5391ZM49.5355 8.03906H49.5V8.00353L49.5355 8.03906ZM51.1645 70.3739L49.8364 69.8426L48.7054 70.7184C47.9532 71.3009 47.1273 71.7815 46.2493 72.1479L44.9383 72.6949L44.7372 74.1012L44.2559 77.4671H39.8043L39.3228 74.1046L39.1174 72.6709L37.7715 72.1359C36.8941 71.7871 36.0716 71.3136 35.3294 70.7299L34.1916 69.8351L32.8491 70.3765L29.6803 71.6542L27.4646 67.8235L30.1773 65.6994L31.2896 64.8285L31.1174 63.4263C30.9983 62.4571 30.9983 61.477 31.1174 60.5078L31.2896 59.1056L30.1773 58.2347L27.4643 56.1104L29.6812 52.2751L32.8484 53.5534L34.1584 54.0821L35.2872 53.2327C36.0668 52.646 36.9158 52.1578 37.8149 51.7788L39.1172 51.23L39.3185 49.8312L39.8033 46.4631H44.2167L44.7015 49.8312L44.9078 51.2641L46.2531 51.7985C47.1292 52.1465 47.9505 52.6189 48.6918 53.2011L49.8293 54.0946L51.1709 53.5537L54.3426 52.2748L56.5585 56.1082L53.8427 58.2347L52.6608 59.1601L52.9222 60.6383C52.9974 61.0635 53.0329 61.4948 53.0283 61.9266C53.0193 62.4099 52.9799 62.8921 52.9102 63.3704L52.6999 64.8129L53.8517 65.7064L56.5885 67.8294L54.3753 71.6582L51.1645 70.3739ZM30.3747 72.8548L30.3681 72.8433C30.3703 72.8472 30.3725 72.851 30.3747 72.8548ZM54.5 33.5391V20.0746L67.9645 33.5391H54.5Z" stroke="#605BFF" stroke-width="5"/>
</svg>
