<svg width="96" height="96" viewBox="0 0 96 96" fill="none" xmlns="http://www.w3.org/2000/svg">
<path d="M85.6989 13.696C86.1496 13.2453 86.4027 12.6341 86.4027 11.9968C86.4027 11.3595 86.1496 10.7482 85.6989 10.2976C85.2483 9.84693 84.637 9.59375 83.9997 9.59375C83.3624 9.59375 82.7512 9.84693 82.3005 10.2976L69.4941 23.1088C65.7674 20.2089 61.1098 18.7701 56.3968 19.0627C51.6838 19.3552 47.24 21.3591 43.9005 24.6976L42.4605 26.1376C41.7958 26.8018 41.2685 27.5905 40.9087 28.4585C40.5489 29.3266 40.3638 30.2571 40.3638 31.1968C40.3638 32.1365 40.5489 33.0669 40.9087 33.935C41.2685 34.8031 41.7958 35.5918 42.4605 36.256L59.7405 53.536C61.0817 54.877 62.9007 55.6303 64.7973 55.6303C66.6939 55.6303 68.5129 54.877 69.8541 53.536L71.2941 52.096C74.6333 48.7571 76.6381 44.3136 76.9315 39.6006C77.225 34.8876 75.7869 30.2297 72.8877 26.5024L85.6989 13.696ZM66.4605 50.1376C66.2421 50.356 65.9828 50.5293 65.6974 50.6475C65.4121 50.7657 65.1062 50.8266 64.7973 50.8266C64.4884 50.8266 64.1826 50.7657 63.8972 50.6475C63.6118 50.5293 63.3525 50.356 63.1341 50.1376L45.8541 32.8576C45.4144 32.4167 45.1675 31.8194 45.1675 31.1968C45.1675 30.5741 45.4144 29.9769 45.8541 29.536L47.2941 28.096C50.0462 25.4625 53.72 24.0113 57.5288 24.053C61.3377 24.0947 64.9788 25.6261 67.6725 28.3192C70.3663 31.0123 71.8985 34.6531 71.9411 38.4619C71.9837 42.2708 70.5333 45.9449 67.9005 48.6976L66.4605 50.1376ZM36.2589 42.4576C34.9177 41.1166 33.0987 40.3632 31.2021 40.3632C29.3055 40.3632 27.4865 41.1166 26.1453 42.4576L24.7053 43.8976C21.3661 47.2365 19.3614 51.68 19.0679 56.393C18.7745 61.106 20.2125 65.7639 23.1117 69.4912L10.3005 82.2976C9.84985 82.7482 9.59668 83.3595 9.59668 83.9968C9.59668 84.6341 9.84985 85.2453 10.3005 85.696C10.7512 86.1466 11.3624 86.3998 11.9997 86.3998C12.637 86.3998 13.2483 86.1466 13.6989 85.696L26.5053 72.8848C30.2326 75.784 34.8905 77.222 39.6035 76.9286C44.3165 76.6351 48.76 74.6304 52.0989 71.2912L53.5389 69.8512C54.8799 68.51 55.6333 66.691 55.6333 64.7944C55.6333 62.8978 54.8799 61.0788 53.5389 59.7376L36.2589 42.4576ZM29.5389 45.856C29.7573 45.6376 30.0166 45.4643 30.302 45.3461C30.5874 45.2279 30.8932 45.167 31.2021 45.167C31.511 45.167 31.8169 45.2279 32.1022 45.3461C32.3876 45.4643 32.6469 45.6376 32.8653 45.856L50.1453 63.136C50.585 63.5769 50.8319 64.1741 50.8319 64.7968C50.8319 65.4194 50.585 66.0167 50.1453 66.4576L48.7053 67.8976C47.3526 69.2506 45.7466 70.324 43.9791 71.0563C42.2115 71.7887 40.3171 72.1658 38.4038 72.166C36.4906 72.1662 34.596 71.7896 32.8283 71.0576C31.0606 70.3257 29.4543 69.2527 28.1013 67.9C26.7483 66.5473 25.6749 64.9413 24.9425 63.1738C24.2102 61.4062 23.8331 59.5117 23.8329 57.5985C23.8324 53.7345 25.367 50.0286 28.0989 47.296L29.5389 45.856Z" fill="#605BFF"/>
</svg>
