<svg width="96" height="96" viewBox="0 0 96 96" fill="none" xmlns="http://www.w3.org/2000/svg">
<path d="M80.1225 30.8775L59.1225 9.8775C58.8437 9.599 58.5127 9.37816 58.1486 9.22759C57.7844 9.07703 57.3941 8.99969 57 9H21C19.4087 9 17.8826 9.63214 16.7574 10.7574C15.6321 11.8826 15 13.4087 15 15V81C15 82.5913 15.6321 84.1174 16.7574 85.2426C17.8826 86.3679 19.4087 87 21 87H75C76.5913 87 78.1174 86.3679 79.2426 85.2426C80.3679 84.1174 81 82.5913 81 81V33C81.0003 32.6059 80.923 32.2156 80.7724 31.8515C80.6218 31.4873 80.401 31.1563 80.1225 30.8775ZM60 19.2413L70.7588 30H60V19.2413ZM75 79C75 80.1046 74.1046 81 73 81H23C21.8954 81 21 80.1046 21 79V17C21 15.8954 21.8954 15 23 15H54V33C54 33.7957 54.3161 34.5587 54.8787 35.1213C55.4413 35.6839 56.2043 36 57 36H75V79Z" fill="#605BFF"/>
</svg>
