<svg width="42" height="42" viewBox="0 0 42 42" fill="none" xmlns="http://www.w3.org/2000/svg">
<g opacity="0.6">
<path d="M19.0312 19.6875V22.3125C19.029 22.7179 18.8669 23.1061 18.5802 23.3927C18.2936 23.6794 17.9054 23.8415 17.5 23.8438H14.875C14.4696 23.8415 14.0814 23.6794 13.7948 23.3927C13.5081 23.1061 13.346 22.7179 13.3438 22.3125V19.6875C13.346 19.2821 13.5081 18.8939 13.7948 18.6073C14.0814 18.3206 14.4696 18.1585 14.875 18.1562H17.5C17.9054 18.1585 18.2936 18.3206 18.5802 18.6073C18.8669 18.8939 19.029 19.2821 19.0312 19.6875ZM14.6562 22.3125C14.6562 22.3705 14.6793 22.4262 14.7203 22.4672C14.7613 22.5082 14.817 22.5312 14.875 22.5312H17.5C17.558 22.5312 17.6137 22.5082 17.6547 22.4672C17.6957 22.4262 17.7188 22.3705 17.7188 22.3125V19.6875C17.7188 19.6295 17.6957 19.5738 17.6547 19.5328C17.6137 19.4918 17.558 19.4688 17.5 19.4688H14.875C14.817 19.4688 14.7613 19.4918 14.7203 19.5328C14.6793 19.5738 14.6562 19.6295 14.6562 19.6875V22.3125Z" fill="#605BFF"/>
<path d="M27.7812 26.25V28C27.779 28.4054 27.6169 28.7936 27.3302 29.0802C27.0436 29.3669 26.6554 29.529 26.25 29.5312H24.5C24.0946 29.529 23.7064 29.3669 23.4198 29.0802C23.1331 28.7936 22.971 28.4054 22.9688 28V26.25C22.971 25.8446 23.1331 25.4564 23.4198 25.1698C23.7064 24.8831 24.0946 24.721 24.5 24.7188H26.25C26.6554 24.721 27.0436 24.8831 27.3302 25.1698C27.6169 25.4564 27.779 25.8446 27.7812 26.25ZM24.2812 28C24.2812 28.058 24.3043 28.1137 24.3453 28.1547C24.3863 28.1957 24.442 28.2188 24.5 28.2188H26.25C26.308 28.2188 26.3637 28.1957 26.4047 28.1547C26.4457 28.1137 26.4688 28.058 26.4688 28V26.25C26.4688 26.192 26.4457 26.1363 26.4047 26.0953C26.3637 26.0543 26.308 26.0312 26.25 26.0312H24.5C24.442 26.0312 24.3863 26.0543 24.3453 26.0953C24.3043 26.1363 24.2812 26.192 24.2812 26.25V28Z" fill="#605BFF"/>
<path d="M27.7812 20.125V21.875C27.779 22.2804 27.6169 22.6686 27.3302 22.9552C27.0436 23.2419 26.6554 23.404 26.25 23.4062H24.5C24.0946 23.404 23.7064 23.2419 23.4198 22.9552C23.1331 22.6686 22.971 22.2804 22.9688 21.875V20.125C22.971 19.7196 23.1331 19.3314 23.4198 19.0448C23.7064 18.7581 24.0946 18.596 24.5 18.5938H26.25C26.6554 18.596 27.0436 18.7581 27.3302 19.0448C27.6169 19.3314 27.779 19.7196 27.7812 20.125ZM24.2812 21.875C24.2812 21.933 24.3043 21.9887 24.3453 22.0297C24.3863 22.0707 24.442 22.0938 24.5 22.0938H26.25C26.308 22.0938 26.3637 22.0707 26.4047 22.0297C26.4457 21.9887 26.4688 21.933 26.4688 21.875V20.125C26.4688 20.067 26.4457 20.0113 26.4047 19.9703C26.3637 19.9293 26.308 19.9062 26.25 19.9062H24.5C24.442 19.9062 24.3863 19.9293 24.3453 19.9703C24.3043 20.0113 24.2812 20.067 24.2812 20.125V21.875Z" fill="#605BFF"/>
<path d="M27.7812 14V15.75C27.779 16.1554 27.6169 16.5436 27.3302 16.8302C27.0436 17.1169 26.6554 17.279 26.25 17.2812H24.5C24.0946 17.279 23.7064 17.1169 23.4198 16.8302C23.1331 16.5436 22.971 16.1554 22.9688 15.75V14C22.971 13.5946 23.1331 13.2064 23.4198 12.9198C23.7064 12.6331 24.0946 12.471 24.5 12.4688H26.25C26.6554 12.471 27.0436 12.6331 27.3302 12.9198C27.6169 13.2064 27.779 13.5946 27.7812 14ZM24.2812 15.75C24.2812 15.808 24.3043 15.8637 24.3453 15.9047C24.3863 15.9457 24.442 15.9688 24.5 15.9688H26.25C26.308 15.9688 26.3637 15.9457 26.4047 15.9047C26.4457 15.8637 26.4688 15.808 26.4688 15.75V14C26.4688 13.942 26.4457 13.8863 26.4047 13.8453C26.3637 13.8043 26.308 13.7812 26.25 13.7812H24.5C24.442 13.7812 24.3863 13.8043 24.3453 13.8453C24.3043 13.8863 24.2812 13.942 24.2812 14V15.75Z" fill="#605BFF"/>
<path d="M24.2812 14.875C24.279 15.0483 24.2091 15.2139 24.0865 15.3365C23.9639 15.4591 23.7983 15.529 23.625 15.5312H21.875C21.817 15.5312 21.7613 15.5543 21.7203 15.5953C21.6793 15.6363 21.6562 15.692 21.6562 15.75V26.25C21.6562 26.308 21.6793 26.3637 21.7203 26.4047C21.7613 26.4457 21.817 26.4688 21.875 26.4688H23.625C23.799 26.4688 23.966 26.5379 24.089 26.661C24.2121 26.784 24.2812 26.951 24.2812 27.125C24.2812 27.299 24.2121 27.466 24.089 27.589C23.966 27.7121 23.799 27.7812 23.625 27.7812H21.875C21.4696 27.779 21.0814 27.6169 20.7948 27.3302C20.5081 27.0436 20.346 26.6554 20.3438 26.25V15.75C20.346 15.3446 20.5081 14.9564 20.7948 14.6698C21.0814 14.3831 21.4696 14.221 21.875 14.2188H23.625C23.7983 14.221 23.9639 14.2909 24.0865 14.4135C24.2091 14.5361 24.279 14.7017 24.2812 14.875Z" fill="#605BFF"/>
<path d="M24.2812 21C24.279 21.1733 24.2091 21.3389 24.0865 21.4615C23.9639 21.5841 23.7983 21.654 23.625 21.6562H18.375C18.201 21.6562 18.034 21.5871 17.911 21.464C17.7879 21.341 17.7188 21.174 17.7188 21C17.7188 20.826 17.7879 20.659 17.911 20.536C18.034 20.4129 18.201 20.3438 18.375 20.3438H23.625C23.7983 20.346 23.9639 20.4159 24.0865 20.5385C24.2091 20.6611 24.279 20.8267 24.2812 21Z" fill="#605BFF"/>
<rect x="1" y="1" width="40" height="40" rx="7" stroke="#605BFF" stroke-width="2"/>
</g>
</svg>
