<svg width="25" height="24" viewBox="0 0 25 24" fill="none" xmlns="http://www.w3.org/2000/svg">
<path d="M4.6999 8.3999C4.22251 8.3999 3.76468 8.58954 3.42711 8.92711C3.08954 9.26468 2.8999 9.72251 2.8999 10.1999V13.7999C2.8999 14.2773 3.08954 14.7351 3.42711 15.0727C3.76468 15.4103 4.22251 15.5999 4.6999 15.5999H9.4999C9.97729 15.5999 10.4351 15.4103 10.7727 15.0727C11.1103 14.7351 11.2999 14.2773 11.2999 13.7999V10.1999C11.2999 9.72251 11.1103 9.26468 10.7727 8.92711C10.4351 8.58954 9.97729 8.3999 9.4999 8.3999H4.6999ZM4.0999 10.1999C4.0999 10.0408 4.16312 9.88816 4.27564 9.77564C4.38816 9.66312 4.54077 9.5999 4.6999 9.5999H9.4999C9.65903 9.5999 9.81164 9.66312 9.92417 9.77564C10.0367 9.88816 10.0999 10.0408 10.0999 10.1999V13.7999C10.0999 13.959 10.0367 14.1116 9.92417 14.2242C9.81164 14.3367 9.65903 14.3999 9.4999 14.3999H4.6999C4.54077 14.3999 4.38816 14.3367 4.27564 14.2242C4.16312 14.1116 4.0999 13.959 4.0999 13.7999V10.1999ZM15.4999 8.3999C15.0225 8.3999 14.5647 8.58954 14.2271 8.92711C13.8895 9.26468 13.6999 9.72251 13.6999 10.1999V13.7999C13.6999 14.2773 13.8895 14.7351 14.2271 15.0727C14.5647 15.4103 15.0225 15.5999 15.4999 15.5999H20.2999C20.7773 15.5999 21.2351 15.4103 21.5727 15.0727C21.9103 14.7351 22.0999 14.2773 22.0999 13.7999V10.1999C22.0999 9.72251 21.9103 9.26468 21.5727 8.92711C21.2351 8.58954 20.7773 8.3999 20.2999 8.3999H15.4999ZM14.8999 10.1999C14.8999 10.0408 14.9631 9.88816 15.0756 9.77564C15.1882 9.66312 15.3408 9.5999 15.4999 9.5999H20.2999C20.459 9.5999 20.6116 9.66312 20.7242 9.77564C20.8367 9.88816 20.8999 10.0408 20.8999 10.1999V13.7999C20.8999 13.959 20.8367 14.1116 20.7242 14.2242C20.6116 14.3367 20.459 14.3999 20.2999 14.3999H15.4999C15.3408 14.3999 15.1882 14.3367 15.0756 14.2242C14.9631 14.1116 14.8999 13.959 14.8999 13.7999V10.1999Z" fill="#605BFF"/>
<path d="M10.7002 12H14.3002" stroke="#605BFF" stroke-width="1.2"/>
</svg>
