<svg width="24" height="24" viewBox="0 0 24 24" fill="none" xmlns="http://www.w3.org/2000/svg">
<path d="M0.5625 6C0.251859 6 0 5.74814 0 5.4375V2.0625C0 1.75186 0.251859 1.5 0.5625 1.5H3.9375C4.24814 1.5 4.5 1.75186 4.5 2.0625V2.625H19.5V2.0625C19.5 1.75186 19.7519 1.5 20.0625 1.5H23.4375C23.7481 1.5 24 1.75186 24 2.0625V5.4375C24 5.74814 23.7481 6 23.4375 6H22.875V18H23.4375C23.7481 18 24 18.2519 24 18.5625V21.9375C24 22.2481 23.7481 22.5 23.4375 22.5H20.0625C19.7519 22.5 19.5 22.2481 19.5 21.9375V21.375H4.5V21.9375C4.5 22.2481 4.24814 22.5 3.9375 22.5H0.5625C0.251859 22.5 0 22.2481 0 21.9375V18.5625C0 18.2519 0.251859 18 0.5625 18H1.125V6H0.5625ZM3 3H1.5V4.5H3V3ZM22.5 3H21V4.5H22.5V3ZM21 21H22.5V19.5H21V21ZM1.5 21H3V19.5H1.5V21ZM3.375 18H3.9375C4.24814 18 4.5 18.2519 4.5 18.5625V19.125H19.5V18.5625C19.5 18.2519 19.7519 18 20.0625 18H20.625V6H20.0625C19.7519 6 19.5 5.74814 19.5 5.4375V4.875H4.5V5.4375C4.5 5.74814 4.24814 6 3.9375 6H3.375V18ZM5.0625 9H9V6.5625C9 6.25181 9.25186 6 9.5625 6H18.9375C19.2481 6 19.5 6.25181 19.5 6.5625V14.4375C19.5 14.7482 19.2481 15 18.9375 15H15V17.4375C15 17.7482 14.7481 18 14.4375 18H5.0625C4.75186 18 4.5 17.7482 4.5 17.4375V9.5625C4.5 9.25181 4.75186 9 5.0625 9ZM17.625 7.875H10.875V13.125H17.625V7.875ZM6.375 16.125H13.125V15H9.5625C9.25186 15 9 14.7482 9 14.4375V10.875H6.375V16.125Z" fill="#212121"/>
</svg>
