<svg width="121" height="121" viewBox="0 0 121 121" fill="none" xmlns="http://www.w3.org/2000/svg">
<rect x="12" y="12" width="97" height="97" rx="2" fill="#4E5085"/>
<rect x="14.5" y="14.5" width="92" height="92" rx="1.5" fill="#4E5085" stroke="white"/>
<path d="M87.0303 71.5131C85.1748 75.9011 82.2726 79.7679 78.5775 82.7752C74.8823 85.7825 70.5068 87.8389 65.8333 88.7645C61.1598 89.6901 56.3307 89.4568 51.7683 88.085C47.2058 86.7131 43.0488 84.2445 39.6608 80.895C36.2728 77.5454 33.7569 73.4169 32.333 68.8704C30.9092 64.3239 30.6207 59.4978 31.4929 54.8141C32.3651 50.1303 34.3714 45.7316 37.3363 42.0023C40.3012 38.2731 44.1346 35.3269 48.5012 33.4214" stroke="white" stroke-width="5" stroke-linecap="round" stroke-linejoin="round"/>
<path d="M89.3346 60.1667C89.3346 56.3364 88.5802 52.5437 87.1145 49.0051C85.6487 45.4664 83.5003 42.2511 80.7919 39.5427C78.0835 36.8343 74.8682 34.6859 71.3296 33.2202C67.7909 31.7544 63.9982 31 60.168 31V60.1667H89.3346Z" stroke="white" stroke-width="4.5" stroke-linecap="round" stroke-linejoin="round"/>
<rect y="75" width="2" height="12" transform="rotate(-90 0 75)" fill="#CECCCC" fill-opacity="0.49"/>
<g style="mix-blend-mode:multiply" opacity="0.8">
<rect x="5" y="76" width="4" height="7" transform="rotate(-90 5 76)" fill="#B3B3B3" fill-opacity="0.54"/>
</g>
<rect x="74" y="121" width="2" height="12" transform="rotate(180 74 121)" fill="#CECCCC" fill-opacity="0.49"/>
<g style="mix-blend-mode:multiply" opacity="0.8">
<rect x="75" y="116" width="4" height="7" transform="rotate(180 75 116)" fill="#B3B3B3" fill-opacity="0.54"/>
</g>
<rect x="45" width="2" height="12" fill="#CECCCC" fill-opacity="0.49"/>
<g style="mix-blend-mode:multiply" opacity="0.8">
<rect x="44" y="5" width="4" height="7" fill="#B3B3B3" fill-opacity="0.54"/>
</g>
<rect x="121" y="46" width="2" height="12" transform="rotate(90 121 46)" fill="#CECCCC" fill-opacity="0.49"/>
<g style="mix-blend-mode:multiply" opacity="0.8">
<rect x="116" y="45" width="4" height="7" transform="rotate(90 116 45)" fill="#B3B3B3" fill-opacity="0.54"/>
</g>
<rect y="66" width="2" height="12" transform="rotate(-90 0 66)" fill="#CECCCC" fill-opacity="0.49"/>
<g style="mix-blend-mode:multiply" opacity="0.8">
<rect x="5" y="67" width="4" height="7" transform="rotate(-90 5 67)" fill="#B3B3B3" fill-opacity="0.54"/>
</g>
<rect x="65" y="121" width="2" height="12" transform="rotate(180 65 121)" fill="#CECCCC" fill-opacity="0.49"/>
<g style="mix-blend-mode:multiply" opacity="0.8">
<rect x="66" y="116" width="4" height="7" transform="rotate(180 66 116)" fill="#B3B3B3" fill-opacity="0.54"/>
</g>
<rect x="54" width="2" height="12" fill="#CECCCC" fill-opacity="0.49"/>
<g style="mix-blend-mode:multiply" opacity="0.8">
<rect x="53" y="5" width="4" height="7" fill="#B3B3B3" fill-opacity="0.54"/>
</g>
<rect x="121" y="55" width="2" height="12" transform="rotate(90 121 55)" fill="#CECCCC" fill-opacity="0.49"/>
<g style="mix-blend-mode:multiply" opacity="0.8">
<rect x="116" y="54" width="4" height="7" transform="rotate(90 116 54)" fill="#B3B3B3" fill-opacity="0.54"/>
</g>
<rect y="57" width="2" height="12" transform="rotate(-90 0 57)" fill="#CECCCC" fill-opacity="0.49"/>
<g style="mix-blend-mode:multiply" opacity="0.8">
<rect x="5" y="58" width="4" height="7" transform="rotate(-90 5 58)" fill="#B3B3B3" fill-opacity="0.54"/>
</g>
<rect x="56" y="121" width="2" height="12" transform="rotate(180 56 121)" fill="#CECCCC" fill-opacity="0.49"/>
<g style="mix-blend-mode:multiply" opacity="0.8">
<rect x="57" y="116" width="4" height="7" transform="rotate(180 57 116)" fill="#B3B3B3" fill-opacity="0.54"/>
</g>
<rect x="63" width="2" height="12" fill="#CECCCC" fill-opacity="0.49"/>
<g style="mix-blend-mode:multiply" opacity="0.8">
<rect x="62" y="5" width="4" height="7" fill="#B3B3B3" fill-opacity="0.54"/>
</g>
<rect x="121" y="64" width="2" height="12" transform="rotate(90 121 64)" fill="#CECCCC" fill-opacity="0.49"/>
<g style="mix-blend-mode:multiply" opacity="0.8">
<rect x="116" y="63" width="4" height="7" transform="rotate(90 116 63)" fill="#B3B3B3" fill-opacity="0.54"/>
</g>
<rect y="48" width="2" height="12" transform="rotate(-90 0 48)" fill="#CECCCC" fill-opacity="0.49"/>
<g style="mix-blend-mode:multiply" opacity="0.8">
<rect x="5" y="49" width="4" height="7" transform="rotate(-90 5 49)" fill="#B3B3B3" fill-opacity="0.54"/>
</g>
<rect x="47" y="121" width="2" height="12" transform="rotate(180 47 121)" fill="#CECCCC" fill-opacity="0.49"/>
<g style="mix-blend-mode:multiply" opacity="0.8">
<rect x="48" y="116" width="4" height="7" transform="rotate(180 48 116)" fill="#B3B3B3" fill-opacity="0.54"/>
</g>
<rect x="72" width="2" height="12" fill="#CECCCC" fill-opacity="0.49"/>
<g style="mix-blend-mode:multiply" opacity="0.8">
<rect x="71" y="5" width="4" height="7" fill="#B3B3B3" fill-opacity="0.54"/>
</g>
<rect x="121" y="73" width="2" height="12" transform="rotate(90 121 73)" fill="#CECCCC" fill-opacity="0.49"/>
<g style="mix-blend-mode:multiply" opacity="0.8">
<rect x="116" y="72" width="4" height="7" transform="rotate(90 116 72)" fill="#B3B3B3" fill-opacity="0.54"/>
</g>
</svg>
