<svg width="25" height="24" viewBox="0 0 25 24" fill="none" xmlns="http://www.w3.org/2000/svg">
<g clip-path="url(#clip0_234_11435)">
<path d="M22.1561 17.8598C21.8373 18.0285 21.5092 18.1785 21.1717 18.3004C20.0936 18.7035 18.9592 18.9098 17.8061 18.9098C13.3717 18.9098 9.50918 15.8629 9.50918 11.9441C9.51855 10.8754 10.1092 9.89102 11.0467 9.38477C7.03418 9.55352 6.00293 13.7348 6.00293 16.1816C6.00293 23.1098 12.3873 23.8129 13.7654 23.8129C14.5061 23.8129 15.6217 23.5973 16.2967 23.3816L16.4186 23.3441C19.0061 22.4535 21.1998 20.7098 22.6623 18.3941C22.7748 18.216 22.7186 17.991 22.5498 17.8785C22.4279 17.8035 22.2779 17.7941 22.1561 17.8598Z" fill="url(#paint0_linear_234_11435)"/>
<path opacity="0.35" d="M22.1561 17.8598C21.8373 18.0285 21.5092 18.1785 21.1717 18.3004C20.0936 18.7035 18.9592 18.9098 17.8061 18.9098C13.3717 18.9098 9.50918 15.8629 9.50918 11.9441C9.51855 10.8754 10.1092 9.89102 11.0467 9.38477C7.03418 9.55352 6.00293 13.7348 6.00293 16.1816C6.00293 23.1098 12.3873 23.8129 13.7654 23.8129C14.5061 23.8129 15.6217 23.5973 16.2967 23.3816L16.4186 23.3441C19.0061 22.4535 21.1998 20.7098 22.6623 18.3941C22.7748 18.216 22.7186 17.991 22.5498 17.8785C22.4279 17.8035 22.2779 17.7941 22.1561 17.8598Z" fill="url(#paint1_radial_234_11435)"/>
<path d="M10.4094 22.632C9.57505 22.1164 8.85318 21.432 8.2813 20.6352C5.81568 17.2602 6.5563 12.5258 9.9313 10.0602C10.2876 9.80703 10.6532 9.57266 11.0469 9.38516C11.3376 9.24453 11.8344 9.00078 12.5001 9.01016C13.4469 9.01953 14.3376 9.46953 14.9094 10.2289C15.2844 10.7352 15.5001 11.3445 15.5094 11.982C15.5094 11.9633 17.8063 4.51953 8.00943 4.51953C3.8938 4.51953 0.509429 8.42891 0.509429 11.8508C0.490679 13.6602 0.884429 15.4602 1.6438 17.1008C4.2313 22.6133 10.5313 25.3133 16.3063 23.3914C14.3282 24.0102 12.1719 23.7383 10.4094 22.632Z" fill="url(#paint2_linear_234_11435)"/>
<path opacity="0.41" d="M10.4094 22.632C9.57505 22.1164 8.85318 21.432 8.2813 20.6352C5.81568 17.2602 6.5563 12.5258 9.9313 10.0602C10.2876 9.80703 10.6532 9.57266 11.0469 9.38516C11.3376 9.24453 11.8344 9.00078 12.5001 9.01016C13.4469 9.01953 14.3376 9.46953 14.9094 10.2289C15.2844 10.7352 15.5001 11.3445 15.5094 11.982C15.5094 11.9633 17.8063 4.51953 8.00943 4.51953C3.8938 4.51953 0.509429 8.42891 0.509429 11.8508C0.490679 13.6602 0.884429 15.4602 1.6438 17.1008C4.2313 22.6133 10.5313 25.3133 16.3063 23.3914C14.3282 24.0102 12.1719 23.7383 10.4094 22.632Z" fill="url(#paint3_radial_234_11435)"/>
<path d="M14.7781 13.9594C14.7031 14.0531 14.4687 14.1938 14.4687 14.4938C14.4687 14.7375 14.6281 14.9719 14.9094 15.1688C16.2594 16.1063 18.8 15.9844 18.8094 15.9844C19.8125 15.9844 20.7875 15.7125 21.65 15.2063C23.4125 14.175 24.5 12.2906 24.5 10.2469C24.5281 8.14688 23.75 6.75 23.4406 6.13125C21.4531 2.24063 17.1594 0 12.5 0C5.9375 0 0.59375 5.26875 0.5 11.8313C0.546875 8.40938 3.95 5.64375 8 5.64375C8.32812 5.64375 10.2031 5.67188 11.9375 6.59063C13.4656 7.39688 14.2719 8.3625 14.825 9.32813C15.4062 10.3313 15.5094 11.5875 15.5094 12.0938C15.5094 12.5906 15.2562 13.3406 14.7781 13.9594Z" fill="url(#paint4_radial_234_11435)"/>
<path d="M14.7781 13.9594C14.7031 14.0531 14.4687 14.1938 14.4687 14.4938C14.4687 14.7375 14.6281 14.9719 14.9094 15.1688C16.2594 16.1063 18.8 15.9844 18.8094 15.9844C19.8125 15.9844 20.7875 15.7125 21.65 15.2063C23.4125 14.175 24.5 12.2906 24.5 10.2469C24.5281 8.14688 23.75 6.75 23.4406 6.13125C21.4531 2.24063 17.1594 0 12.5 0C5.9375 0 0.59375 5.26875 0.5 11.8313C0.546875 8.40938 3.95 5.64375 8 5.64375C8.32812 5.64375 10.2031 5.67188 11.9375 6.59063C13.4656 7.39688 14.2719 8.3625 14.825 9.32813C15.4062 10.3313 15.5094 11.5875 15.5094 12.0938C15.5094 12.5906 15.2562 13.3406 14.7781 13.9594Z" fill="url(#paint5_radial_234_11435)"/>
</g>
<defs>
<linearGradient id="paint0_linear_234_11435" x1="6.0033" y1="16.596" x2="22.7173" y2="16.596" gradientUnits="userSpaceOnUse">
<stop stop-color="#0C59A4"/>
<stop offset="1" stop-color="#114A8B"/>
</linearGradient>
<radialGradient id="paint1_radial_234_11435" cx="0" cy="0" r="1" gradientUnits="userSpaceOnUse" gradientTransform="translate(15.2365 16.7288) scale(8.94098 8.49299)">
<stop offset="0.72" stop-opacity="0"/>
<stop offset="0.95" stop-opacity="0.53"/>
<stop offset="1"/>
</radialGradient>
<linearGradient id="paint2_linear_234_11435" x1="14.8223" y1="9.35197" x2="4.38112" y2="20.725" gradientUnits="userSpaceOnUse">
<stop stop-color="#1B9DE2"/>
<stop offset="0.16" stop-color="#1595DF"/>
<stop offset="0.67" stop-color="#0680D7"/>
<stop offset="1" stop-color="#0078D4"/>
</linearGradient>
<radialGradient id="paint3_radial_234_11435" cx="0" cy="0" r="1" gradientUnits="userSpaceOnUse" gradientTransform="translate(7.11961 18.6579) rotate(-81.3826) scale(13.4435 10.8632)">
<stop offset="0.76" stop-opacity="0"/>
<stop offset="0.95" stop-opacity="0.5"/>
<stop offset="1"/>
</radialGradient>
<radialGradient id="paint4_radial_234_11435" cx="0" cy="0" r="1" gradientUnits="userSpaceOnUse" gradientTransform="translate(2.92359 4.44308) rotate(92.2911) scale(18.9892 40.4492)">
<stop stop-color="#35C1F1"/>
<stop offset="0.11" stop-color="#34C1ED"/>
<stop offset="0.23" stop-color="#2FC2DF"/>
<stop offset="0.31" stop-color="#2BC3D2"/>
<stop offset="0.67" stop-color="#36C752"/>
</radialGradient>
<radialGradient id="paint5_radial_234_11435" cx="0" cy="0" r="1" gradientUnits="userSpaceOnUse" gradientTransform="translate(23.0057 7.25679) rotate(73.7366) scale(9.12387 7.42096)">
<stop stop-color="#66EB6E"/>
<stop offset="1" stop-color="#66EB6E" stop-opacity="0"/>
</radialGradient>
<clipPath id="clip0_234_11435">
<rect width="24" height="24" fill="white" transform="translate(0.5)"/>
</clipPath>
</defs>
</svg>
