<svg width="500" height="189" viewBox="0 0 500 189" fill="none" xmlns="http://www.w3.org/2000/svg">
<path d="M497.632 61.8279L438.17 2.36559C436.659 0.852769 434.609 0.00188228 432.471 0H384.406C376.563 0 369.042 3.11539 363.497 8.66081C357.951 14.2062 354.836 21.7275 354.836 29.5699V158.602C354.836 166.444 357.951 173.966 363.497 179.511C369.042 185.057 376.563 188.172 384.406 188.172H470.428C478.27 188.172 485.791 185.057 491.337 179.511C496.882 173.966 499.998 166.444 499.998 158.602V67.2043C499.913 65.1785 499.068 63.2589 497.632 61.8279ZM440.858 27.5269L472.471 59.1397H440.858V27.5269ZM470.428 172.043H384.406C380.841 172.043 377.422 170.627 374.902 168.106C372.381 165.586 370.965 162.167 370.965 158.602V29.5699C370.965 26.0051 372.381 22.5864 374.902 20.0658C377.422 17.5451 380.841 16.129 384.406 16.129H424.729V67.2043C424.756 69.3344 425.615 71.3695 427.121 72.8759C428.628 74.3823 430.663 75.2409 432.793 75.2688H483.869V158.602C483.869 162.167 482.453 165.586 479.932 168.106C477.411 170.627 473.992 172.043 470.428 172.043Z" fill="#BDBDBD"/>
<path d="M386.508 139.622C388.934 138.203 391.331 136.544 393.955 135.334C399.16 132.927 404.635 132.449 410.271 133.518C418.772 135.125 425.821 139.428 432.455 144.643C431.386 143.938 425.405 141.371 421.141 145.215C420.838 145.489 409.396 154.482 403.851 158.538C398.465 162.477 390.541 160.387 386.527 155.021C381.837 148.751 386.3 139.972 386.508 139.622Z" fill="url(#paint0_linear_255_5965)"/>
<path d="M468.611 141.068H468.616L465.921 136.723C460.058 126.643 439.085 90.6019 439.085 90.6019C433.274 80.7016 418.873 80.9664 413.426 91.0747C413.426 91.0747 405.464 105.542 402.963 110.005C403.058 109.863 403.162 109.741 403.261 109.603C401.833 112.048 386.846 138.865 386.25 139.971C386.259 139.961 386.264 139.957 386.274 139.938C386.264 139.938 386.25 139.966 386.25 139.976C388.68 138.553 391.077 136.888 393.701 135.678C398.916 133.271 404.391 132.789 410.032 133.858C416.92 135.163 422.849 138.217 428.381 142.108L446.12 155.625C446.12 155.625 458.408 165.96 467.628 154.731C468.597 153.554 472.682 147.904 468.606 141.077L468.611 141.068Z" fill="url(#paint1_linear_255_5965)"/>
<path d="M142.796 61.8279L83.3336 2.36559C81.8226 0.852769 79.7728 0.00188228 77.6346 0H29.57C21.7275 0 14.2063 3.11539 8.66084 8.66081C3.1154 14.2062 0 21.7275 0 29.5699V158.602C0 166.444 3.1154 173.966 8.66084 179.511C14.2063 185.057 21.7275 188.172 29.57 188.172H115.592C123.434 188.172 130.955 185.057 136.501 179.511C142.046 173.966 145.162 166.444 145.162 158.602V67.2043C145.077 65.1785 144.232 63.2589 142.796 61.8279ZM86.0218 27.5269L117.635 59.1397H86.0218V27.5269ZM115.592 172.043H29.57C26.0052 172.043 22.5865 170.627 20.0658 168.106C17.5452 165.586 16.1291 162.167 16.1291 158.602V29.5699C16.1291 26.0051 17.5452 22.5864 20.0658 20.0658C22.5865 17.5451 26.0052 16.129 29.57 16.129H69.8927V67.2043C69.9205 69.3344 70.7791 71.3695 72.2855 72.8759C73.7919 74.3823 75.827 75.2409 77.9572 75.2688H129.033V158.602C129.033 162.167 127.617 165.586 125.096 168.106C122.575 170.627 119.156 172.043 115.592 172.043Z" fill="#BDBDBD"/>
<path d="M30.5078 41.4341H62.0939" stroke="#BDBDBD" stroke-width="10.7527" stroke-linecap="round"/>
<path d="M30.5078 59.6626H62.0939" stroke="#BDBDBD" stroke-width="10.7527" stroke-linecap="round"/>
<path d="M30.5078 94.085H114.737" stroke="#BDBDBD" stroke-width="10.7527" stroke-linecap="round"/>
<path d="M30.5078 112.313H114.737" stroke="#BDBDBD" stroke-width="10.7527" stroke-linecap="round"/>
<path d="M30.5078 136.193H114.737" stroke="#BDBDBD" stroke-width="10.7527" stroke-linecap="round"/>
<path d="M30.5078 154.422H114.737" stroke="#BDBDBD" stroke-width="10.7527" stroke-linecap="round"/>
<path d="M182.797 91.3976C179.828 91.3976 177.421 93.8046 177.421 96.7739C177.421 99.7432 179.828 102.15 182.797 102.15V91.3976ZM326.384 100.576C328.483 98.476 328.483 95.0719 326.384 92.9723L292.169 58.7574C290.069 56.6578 286.665 56.6578 284.566 58.7574C282.466 60.857 282.466 64.2611 284.566 66.3607L314.979 96.7739L284.566 127.187C282.466 129.287 282.466 132.691 284.566 134.79C286.665 136.89 290.069 136.89 292.169 134.79L326.384 100.576ZM182.797 102.15L322.582 102.15V91.3976L182.797 91.3976V102.15Z" fill="#BDBDBD"/>
<defs>
<linearGradient id="paint0_linear_255_5965" x1="447.057" y1="145.09" x2="389.637" y2="147.192" gradientUnits="userSpaceOnUse">
<stop stop-color="#4D52F2"/>
<stop offset="0.51" stop-color="#654CF3"/>
<stop offset="0.99" stop-color="#9341F6"/>
</linearGradient>
<linearGradient id="paint1_linear_255_5965" x1="483.256" y1="185.274" x2="402.287" y2="104.6" gradientUnits="userSpaceOnUse">
<stop stop-color="#AB3CF7"/>
<stop offset="0.53" stop-color="#8645F5"/>
<stop offset="1" stop-color="#5F4EF3"/>
</linearGradient>
</defs>
</svg>
