<svg width="28" height="28" viewBox="0 0 28 28" fill="none" xmlns="http://www.w3.org/2000/svg">
<rect x="1.4" y="20.1319" width="25.2" height="6.46829" rx="1.43993" stroke="#212121" stroke-width="1.2"/>
<path d="M4.52857 24.5711C5.27866 24.5711 5.81964 23.8749 5.81964 23.1056C5.81964 22.3364 5.27866 21.6402 4.52857 21.6402C3.77848 21.6402 3.2375 22.3364 3.2375 23.1056C3.2375 23.8749 3.77848 24.5711 4.52857 24.5711Z" stroke="#605BFF" stroke-width="0.525"/>
<path d="M8.30982 24.5712C9.05991 24.5712 9.60089 23.875 9.60089 23.1058C9.60089 22.3365 9.05991 21.6403 8.30982 21.6403C7.55973 21.6403 7.01875 22.3365 7.01875 23.1058C7.01875 23.875 7.55973 24.5712 8.30982 24.5712Z" stroke="#605BFF" stroke-width="0.525"/>
<path d="M11.6406 23.1158H23.3556" stroke="#605BFF" stroke-width="0.525" stroke-linecap="round"/>
<rect x="1.4" y="1.4" width="25.2" height="6.46829" rx="1.43993" stroke="#212121" stroke-width="1.2"/>
<path d="M4.52857 5.83913C5.27866 5.83913 5.81964 5.14298 5.81964 4.3737C5.81964 3.60443 5.27866 2.90828 4.52857 2.90828C3.77848 2.90828 3.2375 3.60443 3.2375 4.3737C3.2375 5.14298 3.77848 5.83913 4.52857 5.83913Z" stroke="#212121" stroke-width="0.525"/>
<path d="M8.30982 5.83901C9.05991 5.83901 9.60089 5.14285 9.60089 4.37358C9.60089 3.60431 9.05991 2.90815 8.30982 2.90815C7.55973 2.90815 7.01875 3.60431 7.01875 4.37358C7.01875 5.14285 7.55973 5.83901 8.30982 5.83901Z" stroke="#212121" stroke-width="0.525"/>
<path d="M11.6406 4.38367H23.3556" stroke="#212121" stroke-width="0.525" stroke-linecap="round"/>
<path d="M14.0839 19.8062C14.2792 20.0014 14.5958 20.0014 14.7911 19.8062L17.973 16.6242C18.1683 16.4289 18.1683 16.1123 17.973 15.9171C17.7778 15.7218 17.4612 15.7218 17.2659 15.9171L14.4375 18.7455L11.6091 15.9171C11.4138 15.7218 11.0972 15.7218 10.902 15.9171C10.7067 16.1123 10.7067 16.4289 10.902 16.6242L14.0839 19.8062ZM13.9375 7.68677V19.4526H14.9375V7.68677H13.9375Z" fill="#212121"/>
</svg>
