<svg width="16" height="16" viewBox="0 0 16 16" fill="none" xmlns="http://www.w3.org/2000/svg">
<path d="M13.3036 8.25C13.3318 8.0025 13.353 7.755 13.353 7.5C13.353 7.245 13.3318 6.9975 13.3036 6.75H14.4965C14.553 6.99 14.5883 7.24125 14.5883 7.5C14.5883 7.75875 14.553 8.01 14.4965 8.25M12.6789 10.335C12.8906 9.91875 13.053 9.46875 13.1659 9H14.2071C13.8652 9.6256 13.3227 10.0995 12.6789 10.335ZM12.5906 8.25H10.9389C10.9036 8.0025 10.8824 7.755 10.8824 7.5C10.8824 7.245 10.9036 6.99375 10.9389 6.75H12.5906C12.6224 6.99375 12.6471 7.245 12.6471 7.5C12.6471 7.755 12.6224 8.0025 12.5906 8.25ZM11.7648 10.485C11.4718 10.035 11.2354 9.53625 11.0906 9H12.4389C12.2942 9.53625 12.0577 10.035 11.7648 10.485ZM10.353 6H9.32241C9.66083 5.37271 10.2029 4.89806 10.8471 4.665C10.6354 5.08125 10.4765 5.53125 10.353 6ZM9.32241 9H10.353C10.4765 9.46875 10.6354 9.91875 10.8471 10.335C10.2043 10.0994 9.66294 9.62539 9.32241 9ZM9.033 8.25C8.97653 8.01 8.94123 7.75875 8.94123 7.5C8.94123 7.24125 8.97653 6.99 9.033 6.75H10.2259C10.1977 6.9975 10.1765 7.245 10.1765 7.5C10.1765 7.755 10.1977 8.0025 10.2259 8.25M11.7648 4.51125C12.0577 4.96125 12.2942 5.46375 12.4389 6H11.0906C11.2354 5.46375 11.4718 4.96125 11.7648 4.51125ZM14.2071 6H13.1659C13.0555 5.53555 12.8919 5.08721 12.6789 4.665C13.3283 4.90125 13.8683 5.3775 14.2071 6ZM11.7648 3.75C9.813 3.75 8.23535 5.4375 8.23535 7.5C8.23535 8.49456 8.6072 9.44839 9.26909 10.1517C9.59683 10.4999 9.98591 10.7761 10.4141 10.9645C10.8423 11.153 11.3013 11.25 11.7648 11.25C12.7008 11.25 13.5985 10.8549 14.2604 10.1517C14.9223 9.44839 15.2942 8.49456 15.2942 7.5C15.2942 7.00754 15.2029 6.51991 15.0255 6.06494C14.8481 5.60997 14.5882 5.19657 14.2604 4.84835C13.9327 4.50013 13.5436 4.22391 13.1154 4.03545C12.6872 3.847 12.2283 3.75 11.7648 3.75Z" fill="#605E5C"/>
<path d="M10.039 2.16602H5.01943C4.72872 2.16777 4.45038 2.29124 4.24481 2.50966C4.03925 2.72807 3.92303 3.0238 3.92139 3.33268V12.666C3.92303 12.9749 4.03925 13.2706 4.24481 13.489C4.45038 13.7075 4.72872 13.8309 5.01943 13.8327H10.039C10.3297 13.8309 10.6081 13.7075 10.8136 13.489C11.0192 13.2706 11.1354 12.9749 11.1371 12.666V3.33268C11.1354 3.0238 11.0192 2.72807 10.8136 2.50966C10.6081 2.29124 10.3297 2.16777 10.039 2.16602ZM10.1959 12.666C10.1959 12.7102 10.1794 12.7526 10.15 12.7839C10.1205 12.8151 10.0806 12.8327 10.039 12.8327H5.01943C4.97782 12.8327 4.93792 12.8151 4.90851 12.7839C4.87909 12.7526 4.86256 12.7102 4.86256 12.666V3.33268C4.86256 3.28848 4.87909 3.24609 4.90851 3.21483C4.93792 3.18357 4.97782 3.16602 5.01943 3.16602H10.039C10.0806 3.16602 10.1205 3.18357 10.15 3.21483C10.1794 3.24609 10.1959 3.28848 10.1959 3.33268V12.666Z" fill="#605E5C"/>
<path d="M7.52907 9.66602C7.34292 9.66602 7.16095 9.72466 7.00618 9.83455C6.8514 9.94443 6.73077 10.1006 6.65953 10.2833C6.5883 10.4661 6.56966 10.6671 6.60598 10.8611C6.64229 11.0551 6.73193 11.2333 6.86356 11.3731C6.99518 11.513 7.16288 11.6082 7.34545 11.6468C7.52802 11.6854 7.71726 11.6656 7.88924 11.5899C8.06122 11.5142 8.20821 11.386 8.31163 11.2216C8.41504 11.0571 8.47024 10.8638 8.47024 10.666C8.47024 10.4008 8.37108 10.1464 8.19458 9.95891C8.01807 9.77137 7.77868 9.66602 7.52907 9.66602Z" fill="#605E5C"/>
</svg>
