<svg width="16" height="16" viewBox="0 0 16 16" fill="none" xmlns="http://www.w3.org/2000/svg">
<path d="M10.6665 2.16602H5.33317C5.02429 2.16777 4.72856 2.29124 4.51015 2.50966C4.29173 2.72807 4.16825 3.0238 4.1665 3.33268V12.666C4.16825 12.9749 4.29173 13.2706 4.51015 13.489C4.72856 13.7075 5.02429 13.8309 5.33317 13.8327H10.6665C10.9754 13.8309 11.2711 13.7075 11.4895 13.489C11.7079 13.2706 11.8314 12.9749 11.8332 12.666V3.33268C11.8314 3.0238 11.7079 2.72807 11.4895 2.50966C11.2711 2.29124 10.9754 2.16777 10.6665 2.16602ZM10.8332 12.666C10.8332 12.7102 10.8156 12.7526 10.7844 12.7839C10.7531 12.8151 10.7107 12.8327 10.6665 12.8327H5.33317C5.28897 12.8327 5.24658 12.8151 5.21532 12.7839C5.18406 12.7526 5.1665 12.7102 5.1665 12.666V3.33268C5.1665 3.28848 5.18406 3.24609 5.21532 3.21483C5.24658 3.18357 5.28897 3.16602 5.33317 3.16602H10.6665C10.7107 3.16602 10.7531 3.18357 10.7844 3.21483C10.8156 3.24609 10.8332 3.28848 10.8332 3.33268V12.666Z" fill="#605E5C"/>
<path d="M8 9.66602C7.80222 9.66602 7.60888 9.72466 7.44443 9.83455C7.27998 9.94443 7.15181 10.1006 7.07612 10.2833C7.00043 10.4661 6.98063 10.6671 7.01922 10.8611C7.0578 11.0551 7.15304 11.2333 7.29289 11.3731C7.43275 11.513 7.61093 11.6082 7.80491 11.6468C7.99889 11.6854 8.19996 11.6656 8.38268 11.5899C8.56541 11.5142 8.72159 11.386 8.83147 11.2216C8.94135 11.0571 9 10.8638 9 10.666C9 10.4008 8.89464 10.1464 8.70711 9.95891C8.51957 9.77137 8.26522 9.66602 8 9.66602Z" fill="#605E5C"/>
</svg>
