<svg width="218" height="200" viewBox="0 0 218 200" fill="none" xmlns="http://www.w3.org/2000/svg">
    <g clip-path="url(#clip0_524_54071)">
    <path d="M110.306 198.836C110.197 198.836 110.109 198.748 110.109 198.639C110.109 198.531 110.197 198.443 110.306 198.443C111.091 198.442 111.887 198.432 112.671 198.413C112.673 198.413 112.674 198.413 112.676 198.413C112.782 198.413 112.87 198.498 112.873 198.605C112.875 198.713 112.789 198.804 112.681 198.806C111.894 198.826 111.094 198.836 110.306 198.836ZM107.936 198.808C107.934 198.808 107.932 198.808 107.931 198.808C107.141 198.789 106.343 198.76 105.558 198.722C105.449 198.716 105.365 198.624 105.371 198.516C105.376 198.407 105.467 198.32 105.577 198.329C106.359 198.367 107.154 198.396 107.941 198.415C108.049 198.417 108.135 198.507 108.132 198.616C108.13 198.723 108.042 198.808 107.936 198.808ZM115.044 198.718C114.94 198.718 114.853 198.637 114.848 198.531C114.842 198.423 114.926 198.33 115.035 198.325C115.818 198.286 116.612 198.237 117.395 198.179C117.506 198.171 117.598 198.253 117.606 198.361C117.614 198.469 117.533 198.564 117.424 198.572C116.638 198.63 115.84 198.679 115.054 198.718C115.05 198.718 115.047 198.718 115.044 198.718L115.044 198.718ZM103.202 198.577C103.197 198.577 103.192 198.577 103.187 198.577C102.403 198.519 101.607 198.451 100.822 198.373C100.713 198.363 100.634 198.267 100.645 198.158C100.656 198.05 100.752 197.971 100.86 197.982C101.643 198.059 102.436 198.127 103.217 198.184C103.325 198.192 103.406 198.287 103.398 198.395C103.391 198.498 103.304 198.577 103.202 198.577ZM119.771 198.368C119.671 198.368 119.585 198.292 119.575 198.19C119.564 198.082 119.643 197.986 119.751 197.975C120.531 197.898 121.322 197.809 122.102 197.712C122.21 197.699 122.308 197.775 122.321 197.883C122.334 197.991 122.258 198.09 122.15 198.103C121.367 198.2 120.573 198.289 119.79 198.367C119.784 198.367 119.777 198.368 119.77 198.368L119.771 198.368ZM98.4853 198.113C98.4772 198.113 98.4689 198.113 98.4608 198.112C97.679 198.015 96.8873 197.907 96.1077 197.791C96.0002 197.775 95.926 197.675 95.942 197.567C95.9581 197.46 96.0583 197.385 96.1657 197.401C96.942 197.517 97.7306 197.625 98.5091 197.721C98.6169 197.734 98.6936 197.833 98.6803 197.94C98.6679 198.04 98.5831 198.113 98.4853 198.113ZM124.474 197.783C124.378 197.783 124.294 197.712 124.279 197.615C124.263 197.507 124.337 197.407 124.445 197.391C125.222 197.275 126.007 197.147 126.779 197.012C126.886 196.992 126.988 197.064 127.007 197.171C127.026 197.278 126.954 197.38 126.847 197.399C126.072 197.535 125.283 197.663 124.503 197.78C124.493 197.782 124.483 197.783 124.474 197.783ZM93.7974 197.414C93.7862 197.414 93.7747 197.413 93.7633 197.411C92.9878 197.276 92.2024 197.128 91.429 196.973C91.3224 196.952 91.2535 196.848 91.2747 196.742C91.2962 196.635 91.3993 196.566 91.5064 196.587C92.2766 196.742 93.0586 196.889 93.8308 197.024C93.9379 197.042 94.0095 197.144 93.9906 197.251C93.9741 197.347 93.8908 197.414 93.797 197.414H93.7974ZM129.142 196.963C129.05 196.963 128.968 196.899 128.949 196.805C128.928 196.699 128.997 196.595 129.103 196.574C129.875 196.418 130.653 196.251 131.416 196.078C131.521 196.053 131.627 196.12 131.651 196.226C131.675 196.332 131.609 196.437 131.503 196.461C130.737 196.636 129.956 196.803 129.181 196.96C129.168 196.962 129.155 196.964 129.142 196.964V196.963ZM89.1502 196.482C89.1359 196.482 89.1211 196.48 89.1065 196.477C88.3389 196.303 87.5618 196.116 86.7972 195.923C86.692 195.896 86.6282 195.789 86.6548 195.684C86.6815 195.578 86.789 195.515 86.8939 195.541C87.6554 195.734 88.4292 195.92 89.1937 196.093C89.2998 196.117 89.3661 196.223 89.3421 196.329C89.3214 196.42 89.24 196.482 89.1502 196.482ZM133.763 195.912C133.675 195.912 133.595 195.852 133.573 195.763C133.546 195.658 133.61 195.551 133.715 195.524C134.474 195.331 135.243 195.125 135.999 194.913C136.105 194.883 136.213 194.944 136.242 195.049C136.271 195.153 136.21 195.262 136.106 195.291C135.346 195.505 134.574 195.711 133.812 195.905C133.795 195.91 133.779 195.912 133.763 195.912ZM84.5556 195.318C84.5381 195.318 84.5202 195.315 84.5023 195.31C83.7429 195.097 82.9762 194.872 82.2237 194.64C82.1198 194.609 82.0615 194.498 82.0934 194.394C82.1253 194.29 82.2353 194.232 82.3394 194.264C83.089 194.495 83.8523 194.719 84.6086 194.931C84.7132 194.961 84.7743 195.069 84.7449 195.174C84.7205 195.261 84.6416 195.318 84.5556 195.318ZM138.326 194.629C138.242 194.629 138.164 194.575 138.138 194.49C138.106 194.386 138.165 194.276 138.268 194.244C139.02 194.012 139.777 193.768 140.519 193.519C140.623 193.484 140.734 193.54 140.769 193.643C140.803 193.745 140.748 193.857 140.645 193.892C139.9 194.142 139.139 194.387 138.384 194.62C138.365 194.626 138.346 194.629 138.326 194.629V194.629ZM80.0169 193.921C79.9962 193.921 79.9752 193.918 79.9543 193.911C79.2038 193.659 78.4467 193.395 77.7047 193.125C77.6025 193.088 77.5498 192.975 77.587 192.872C77.6242 192.77 77.7377 192.718 77.8393 192.755C78.5784 193.024 79.3321 193.287 80.0795 193.538C80.1826 193.572 80.2381 193.684 80.2035 193.787C80.1757 193.869 80.0992 193.921 80.0169 193.921ZM142.819 193.119C142.739 193.119 142.663 193.069 142.634 192.989C142.597 192.887 142.649 192.774 142.751 192.737C143.489 192.468 144.234 192.186 144.963 191.899C145.064 191.86 145.179 191.909 145.219 192.011C145.258 192.112 145.209 192.226 145.107 192.266C144.375 192.553 143.627 192.836 142.886 193.107C142.864 193.115 142.841 193.119 142.819 193.119H142.819ZM75.5481 192.296C75.5242 192.296 75.4998 192.292 75.4762 192.282C74.742 191.994 73.9997 191.692 73.2702 191.384C73.1701 191.342 73.123 191.226 73.1653 191.126C73.2075 191.026 73.323 190.979 73.4231 191.021C74.1497 191.328 74.8888 191.629 75.6201 191.916C75.7212 191.955 75.7712 192.07 75.7313 192.171C75.701 192.248 75.6266 192.296 75.5481 192.296ZM147.222 191.388C147.145 191.388 147.073 191.343 147.041 191.268C146.999 191.168 147.045 191.052 147.146 191.01C147.869 190.704 148.595 190.387 149.306 190.066C149.405 190.021 149.521 190.065 149.566 190.164C149.611 190.263 149.567 190.38 149.468 190.424C148.755 190.747 148.025 191.066 147.299 191.373C147.274 191.383 147.248 191.388 147.222 191.388ZM71.1689 190.448C71.1418 190.448 71.1142 190.443 71.0881 190.431C70.368 190.106 69.6423 189.767 68.9309 189.424C68.8329 189.376 68.7919 189.259 68.8392 189.161C68.8864 189.063 69.0041 189.022 69.1019 189.069C69.8103 189.411 70.5331 189.748 71.25 190.073C71.349 190.117 71.3931 190.234 71.3484 190.333C71.3155 190.406 71.2439 190.449 71.1689 190.449V190.448ZM151.528 189.442C151.455 189.442 151.384 189.401 151.351 189.331C151.303 189.233 151.344 189.115 151.442 189.068C152.148 188.728 152.858 188.374 153.554 188.017C153.651 187.967 153.769 188.005 153.819 188.102C153.868 188.199 153.83 188.317 153.733 188.367C153.035 188.726 152.322 189.081 151.613 189.423C151.586 189.436 151.557 189.442 151.528 189.442L151.528 189.442ZM66.8902 188.384C66.8599 188.384 66.8292 188.377 66.8004 188.363C66.0975 188.002 65.3901 187.627 64.6976 187.249C64.6021 187.197 64.5671 187.077 64.619 186.982C64.6712 186.886 64.791 186.851 64.8861 186.903C65.5758 187.28 66.2803 187.653 66.9803 188.013C67.0769 188.062 67.1151 188.181 67.0655 188.278C67.0307 188.346 66.9618 188.384 66.8902 188.384ZM155.733 187.282C155.663 187.282 155.596 187.245 155.56 187.18C155.508 187.084 155.543 186.965 155.638 186.913C156.326 186.537 157.018 186.149 157.696 185.757C157.79 185.702 157.91 185.734 157.964 185.829C158.019 185.923 157.987 186.043 157.893 186.097C157.213 186.491 156.518 186.881 155.827 187.258C155.797 187.274 155.765 187.282 155.733 187.282L155.733 187.282ZM62.7218 186.109C62.6884 186.109 62.6545 186.101 62.6234 186.083C61.9406 185.688 61.253 185.278 60.5796 184.866C60.4869 184.809 60.4578 184.688 60.5146 184.595C60.5715 184.503 60.6927 184.474 60.7852 184.53C61.4559 184.941 62.1405 185.349 62.8206 185.742C62.9147 185.797 62.9467 185.917 62.8924 186.011C62.8558 186.074 62.7899 186.109 62.7218 186.109ZM159.827 184.915C159.761 184.915 159.696 184.881 159.659 184.82C159.602 184.728 159.631 184.607 159.724 184.55C160.392 184.141 161.064 183.718 161.722 183.293C161.814 183.233 161.935 183.26 161.994 183.351C162.053 183.442 162.027 183.564 161.936 183.623C161.275 184.051 160.6 184.476 159.929 184.886C159.897 184.906 159.862 184.915 159.827 184.915ZM58.6739 183.63C58.6373 183.63 58.6001 183.62 58.5672 183.598C57.9064 183.171 57.2403 182.727 56.5873 182.282C56.4976 182.22 56.4746 182.098 56.5358 182.008C56.597 181.918 56.7196 181.895 56.8093 181.956C57.4595 182.401 58.1229 182.842 58.7811 183.268C58.8725 183.327 58.8984 183.449 58.8394 183.54C58.8018 183.598 58.7384 183.63 58.6741 183.63H58.6739ZM163.8 182.345C163.737 182.345 163.676 182.315 163.637 182.26C163.576 182.17 163.599 182.047 163.689 181.986C164.337 181.544 164.988 181.088 165.623 180.63C165.712 180.567 165.834 180.587 165.898 180.675C165.961 180.763 165.941 180.886 165.853 180.95C165.215 181.409 164.561 181.867 163.911 182.311C163.877 182.334 163.838 182.345 163.8 182.345ZM54.756 180.953C54.7163 180.953 54.6759 180.941 54.6413 180.916C54 180.454 53.3569 179.978 52.7301 179.503C52.6435 179.437 52.6266 179.313 52.6923 179.227C52.7579 179.14 52.8814 179.123 52.968 179.189C53.5922 179.663 54.2326 180.136 54.8714 180.596C54.9595 180.66 54.9796 180.783 54.916 180.871C54.8775 180.924 54.8172 180.953 54.7562 180.953H54.756ZM167.642 179.58C167.583 179.58 167.524 179.553 167.485 179.502C167.42 179.416 167.437 179.292 167.523 179.227C168.148 178.753 168.776 178.265 169.389 177.776C169.474 177.708 169.597 177.722 169.665 177.807C169.733 177.892 169.719 178.016 169.634 178.084C169.019 178.574 168.389 179.064 167.761 179.54C167.725 179.567 167.684 179.58 167.642 179.58L167.642 179.58ZM50.9777 178.085C50.9346 178.085 50.8913 178.071 50.8549 178.042C50.2396 177.551 49.6211 177.044 49.0169 176.536C48.9339 176.466 48.9229 176.342 48.9929 176.259C49.0628 176.176 49.1871 176.165 49.2702 176.235C49.872 176.74 50.4879 177.245 51.1007 177.735C51.1857 177.803 51.1995 177.926 51.1316 178.011C51.0928 178.06 51.0356 178.085 50.9777 178.085ZM171.344 176.627C171.288 176.627 171.232 176.603 171.193 176.557C171.123 176.474 171.134 176.35 171.217 176.28C171.816 175.777 172.419 175.259 173.009 174.738C173.09 174.666 173.214 174.674 173.286 174.755C173.358 174.837 173.351 174.961 173.269 175.033C172.676 175.556 172.071 176.077 171.47 176.581C171.433 176.612 171.388 176.627 171.344 176.627H171.344ZM47.3474 175.035C47.3011 175.035 47.2545 175.018 47.2171 174.985C46.6258 174.463 46.0334 173.926 45.4566 173.391C45.3771 173.317 45.3724 173.192 45.4464 173.112C45.5206 173.033 45.645 173.028 45.7247 173.102C46.2991 173.636 46.8891 174.17 47.4778 174.69C47.5593 174.762 47.567 174.887 47.495 174.968C47.456 175.012 47.4019 175.035 47.3474 175.035ZM174.896 173.493C174.843 173.493 174.791 173.472 174.752 173.43C174.678 173.351 174.682 173.226 174.762 173.152C175.339 172.617 175.916 172.069 176.476 171.523C176.554 171.447 176.679 171.449 176.754 171.527C176.83 171.605 176.829 171.729 176.751 171.805C176.188 172.353 175.609 172.904 175.03 173.441C174.992 173.476 174.944 173.493 174.896 173.493ZM43.8739 171.809C43.8243 171.809 43.7747 171.79 43.7365 171.753C43.1733 171.203 42.6085 170.638 42.0577 170.073C41.9818 169.995 41.9833 169.871 42.0613 169.795C42.139 169.719 42.2638 169.721 42.3395 169.799C42.8882 170.361 43.4506 170.924 44.0114 171.471C44.0892 171.547 44.0907 171.672 44.0148 171.75C43.9762 171.789 43.925 171.809 43.8739 171.809V171.809ZM178.29 170.186C178.24 170.186 178.191 170.167 178.153 170.13C178.075 170.054 178.073 169.93 178.149 169.852C178.699 169.289 179.248 168.713 179.781 168.139C179.855 168.06 179.98 168.055 180.059 168.129C180.138 168.203 180.143 168.328 180.069 168.407C179.534 168.983 178.982 169.562 178.431 170.127C178.392 170.166 178.341 170.186 178.29 170.186V170.186ZM40.5659 168.416C40.5129 168.416 40.4602 168.395 40.4216 168.353C39.886 167.776 39.3501 167.184 38.8286 166.593C38.7566 166.512 38.7645 166.388 38.8459 166.316C38.9272 166.244 39.0516 166.251 39.1236 166.333C39.6429 166.921 40.1768 167.511 40.7101 168.086C40.7841 168.165 40.7794 168.29 40.6997 168.364C40.6619 168.399 40.6137 168.416 40.5659 168.416ZM181.517 166.714C181.47 166.714 181.424 166.698 181.387 166.665C181.305 166.593 181.298 166.468 181.37 166.387C181.89 165.798 182.41 165.195 182.915 164.595C182.985 164.512 183.109 164.501 183.192 164.571C183.275 164.641 183.286 164.765 183.216 164.848C182.709 165.451 182.187 166.056 181.664 166.648C181.626 166.691 181.571 166.714 181.517 166.714V166.714ZM37.4308 164.865C37.3748 164.865 37.3191 164.841 37.2801 164.795C36.7736 164.192 36.2678 163.574 35.7766 162.959C35.7089 162.874 35.7227 162.75 35.8077 162.682C35.8927 162.615 36.0163 162.628 36.0842 162.713C36.5732 163.326 37.0768 163.941 37.5812 164.542C37.651 164.625 37.6402 164.749 37.557 164.819C37.52 164.85 37.4751 164.865 37.4304 164.865H37.4308ZM184.569 163.085C184.525 163.085 184.482 163.071 184.446 163.042C184.361 162.974 184.347 162.85 184.415 162.765C184.906 162.151 185.395 161.523 185.87 160.898C185.936 160.812 186.059 160.795 186.146 160.86C186.232 160.926 186.249 161.05 186.183 161.136C185.707 161.763 185.215 162.394 184.722 163.011C184.684 163.059 184.626 163.085 184.569 163.085ZM34.4765 161.164C34.417 161.164 34.3582 161.137 34.3194 161.086C33.8428 160.458 33.3684 159.816 32.9094 159.179C32.8459 159.09 32.866 158.967 32.9541 158.904C33.0425 158.841 33.1655 158.861 33.2288 158.949C33.6858 159.583 34.1583 160.222 34.6331 160.848C34.6986 160.935 34.6819 161.058 34.5951 161.124C34.5595 161.151 34.5178 161.164 34.4765 161.164ZM187.438 159.307C187.398 159.307 187.358 159.295 187.323 159.27C187.235 159.207 187.215 159.084 187.278 158.995C187.737 158.36 188.194 157.708 188.639 157.058C188.7 156.968 188.822 156.945 188.912 157.007C189.002 157.068 189.025 157.19 188.964 157.28C188.517 157.933 188.058 158.587 187.598 159.226C187.559 159.279 187.499 159.307 187.438 159.307ZM31.7104 157.323C31.6476 157.323 31.5858 157.293 31.5477 157.237C31.1043 156.588 30.6625 155.924 30.2347 155.263C30.1757 155.171 30.2018 155.05 30.293 154.991C30.3843 154.931 30.5059 154.958 30.5651 155.049C30.9914 155.707 31.4312 156.369 31.8728 157.015C31.9342 157.105 31.9109 157.227 31.8212 157.289C31.7874 157.312 31.7486 157.323 31.7104 157.323ZM190.116 155.391C190.079 155.391 190.042 155.38 190.009 155.359C189.918 155.3 189.892 155.178 189.951 155.087C190.378 154.428 190.803 153.754 191.214 153.083C191.271 152.99 191.392 152.962 191.485 153.018C191.577 153.075 191.606 153.196 191.55 153.289C191.137 153.962 190.71 154.639 190.281 155.301C190.244 155.359 190.181 155.391 190.116 155.391ZM29.1396 153.351C29.0735 153.351 29.0087 153.317 28.9715 153.257C28.5598 152.584 28.1517 151.899 27.7587 151.22C27.7044 151.126 27.7365 151.005 27.8305 150.951C27.9246 150.897 28.0448 150.929 28.0996 151.023C28.491 151.699 28.8973 152.382 29.3072 153.051C29.3641 153.144 29.335 153.265 29.2423 153.321C29.2102 153.341 29.1748 153.35 29.1398 153.35L29.1396 153.351ZM192.597 151.344C192.563 151.344 192.529 151.335 192.498 151.317C192.404 151.263 192.372 151.142 192.427 151.048C192.819 150.371 193.21 149.676 193.588 148.983C193.641 148.888 193.76 148.853 193.856 148.905C193.951 148.957 193.986 149.077 193.934 149.172C193.554 149.868 193.161 150.565 192.767 151.246C192.73 151.309 192.665 151.344 192.597 151.344ZM26.7704 149.257C26.7008 149.257 26.6333 149.22 26.5975 149.155C26.2214 148.466 25.8483 147.762 25.4884 147.061C25.4388 146.965 25.4768 146.846 25.5734 146.797C25.6698 146.747 25.7887 146.785 25.8385 146.882C26.1968 147.579 26.5685 148.28 26.943 148.966C26.9952 149.061 26.96 149.181 26.8647 149.233C26.8348 149.25 26.8025 149.257 26.7706 149.257H26.7704ZM194.873 147.176C194.843 147.176 194.812 147.169 194.784 147.155C194.687 147.105 194.649 146.986 194.698 146.89C195.058 146.189 195.414 145.476 195.756 144.768C195.803 144.67 195.921 144.629 196.018 144.677C196.116 144.724 196.157 144.841 196.11 144.939C195.767 145.649 195.41 146.366 195.048 147.07C195.013 147.137 194.945 147.176 194.873 147.176ZM24.6093 145.053C24.5361 145.053 24.4659 145.012 24.432 144.942C24.091 144.235 23.7535 143.514 23.429 142.797C23.3841 142.698 23.4282 142.581 23.5272 142.536C23.6264 142.492 23.7429 142.536 23.7875 142.634C24.1107 143.348 24.4468 144.067 24.7862 144.77C24.8335 144.868 24.7925 144.986 24.6947 145.033C24.6672 145.047 24.6379 145.053 24.6093 145.053ZM196.939 142.899C196.912 142.899 196.885 142.893 196.858 142.881C196.759 142.836 196.715 142.72 196.76 142.621C197.084 141.903 197.404 141.172 197.71 140.448C197.752 140.348 197.868 140.301 197.968 140.343C198.068 140.385 198.115 140.501 198.072 140.601C197.765 141.328 197.445 142.062 197.119 142.783C197.086 142.856 197.014 142.899 196.939 142.899ZM22.6615 140.748C22.5848 140.748 22.512 140.703 22.4803 140.628C22.1753 139.906 21.8744 139.169 21.5863 138.437C21.5465 138.336 21.5963 138.222 21.6973 138.182C21.7988 138.142 21.9125 138.192 21.9525 138.293C22.2394 139.022 22.5391 139.756 22.8428 140.475C22.8851 140.575 22.8382 140.69 22.7381 140.733C22.7131 140.743 22.6871 140.748 22.6615 140.748ZM198.788 138.52C198.764 138.52 198.74 138.516 198.716 138.506C198.615 138.467 198.565 138.352 198.605 138.251C198.893 137.518 199.176 136.771 199.445 136.032C199.482 135.93 199.595 135.877 199.697 135.915C199.799 135.952 199.852 136.065 199.815 136.167C199.544 136.909 199.261 137.659 198.971 138.395C198.941 138.473 198.867 138.52 198.788 138.52L198.788 138.52ZM20.9292 136.345C20.8489 136.345 20.7733 136.296 20.7444 136.216C20.4738 135.474 20.2095 134.72 19.9586 133.974C19.924 133.872 19.9793 133.76 20.0824 133.725C20.1855 133.69 20.2969 133.746 20.3317 133.849C20.5817 134.591 20.845 135.342 21.1144 136.081C21.1516 136.183 21.099 136.296 20.9969 136.333C20.9747 136.341 20.9518 136.345 20.9294 136.345L20.9292 136.345ZM200.415 134.052C200.394 134.052 200.373 134.048 200.352 134.041C200.25 134.007 200.194 133.895 200.229 133.792C200.479 133.047 200.723 132.287 200.956 131.533C200.988 131.429 201.098 131.37 201.202 131.402C201.306 131.435 201.364 131.545 201.332 131.648C201.098 132.406 200.853 133.169 200.602 133.918C200.574 134 200.497 134.052 200.415 134.052ZM19.4173 131.853C19.3332 131.853 19.2555 131.799 19.2293 131.714C18.9973 130.963 18.7712 130.197 18.5571 129.437C18.5276 129.332 18.5886 129.223 18.6931 129.194C18.7986 129.164 18.9064 129.225 18.9357 129.33C19.1489 130.087 19.3742 130.85 19.6052 131.598C19.6373 131.702 19.579 131.812 19.4751 131.844C19.4558 131.85 19.4362 131.853 19.4171 131.853L19.4173 131.853ZM201.813 129.514C201.795 129.514 201.777 129.511 201.76 129.506C201.655 129.477 201.594 129.368 201.623 129.264C201.834 128.512 202.04 127.743 202.234 126.979C202.261 126.873 202.368 126.81 202.473 126.836C202.579 126.863 202.642 126.97 202.616 127.075C202.421 127.844 202.214 128.616 202.003 129.37C201.978 129.457 201.899 129.514 201.813 129.514H201.813ZM18.1328 127.291C18.0449 127.291 17.9648 127.232 17.9422 127.142C17.7477 126.378 17.5602 125.602 17.385 124.834C17.3608 124.728 17.4272 124.622 17.5332 124.598C17.6393 124.574 17.7446 124.64 17.7688 124.746C17.9431 125.511 18.1297 126.284 18.3235 127.045C18.3503 127.151 18.2865 127.258 18.1813 127.285C18.1649 127.289 18.1488 127.291 18.1328 127.291ZM202.979 124.919C202.965 124.919 202.95 124.918 202.935 124.915C202.829 124.891 202.763 124.785 202.787 124.679C202.961 123.911 203.128 123.133 203.282 122.366C203.303 122.26 203.407 122.191 203.514 122.212C203.62 122.234 203.689 122.337 203.668 122.444C203.513 123.213 203.346 123.995 203.171 124.766C203.15 124.858 203.069 124.92 202.979 124.92V124.919ZM17.0792 122.67C16.9875 122.67 16.9055 122.605 16.8866 122.512C16.7309 121.741 16.5827 120.956 16.446 120.178C16.4271 120.071 16.4987 119.969 16.6058 119.95C16.7126 119.931 16.8148 120.003 16.8336 120.11C16.9698 120.885 17.1174 121.666 17.2723 122.434C17.2937 122.541 17.2249 122.644 17.1182 122.666C17.105 122.669 17.092 122.67 17.079 122.67L17.0792 122.67ZM203.913 120.273C203.902 120.273 203.89 120.272 203.879 120.27C203.772 120.251 203.7 120.149 203.719 120.042C203.854 119.271 203.981 118.485 204.098 117.707C204.114 117.6 204.214 117.527 204.321 117.542C204.429 117.558 204.503 117.658 204.487 117.766C204.37 118.547 204.242 119.335 204.107 120.11C204.09 120.206 204.007 120.273 203.913 120.273L203.913 120.273ZM16.2582 118.002C16.1626 118.002 16.0786 117.932 16.064 117.834C15.9469 117.054 15.8381 116.262 15.7407 115.481C15.7273 115.373 15.8037 115.275 15.9115 115.262C16.0195 115.248 16.1177 115.324 16.1311 115.432C16.2281 116.21 16.3366 116.999 16.4531 117.775C16.4692 117.883 16.3952 117.983 16.2878 117.999C16.2779 118.001 16.2679 118.002 16.2582 118.002ZM204.613 115.585C204.605 115.585 204.597 115.585 204.589 115.584C204.481 115.57 204.404 115.472 204.418 115.364C204.514 114.587 204.602 113.796 204.68 113.014C204.69 112.905 204.786 112.827 204.895 112.837C205.003 112.848 205.082 112.944 205.071 113.052C204.994 113.838 204.905 114.632 204.808 115.412C204.796 115.512 204.711 115.585 204.613 115.585ZM15.6716 113.299C15.5716 113.299 15.486 113.223 15.476 113.121C15.3981 112.339 15.3288 111.543 15.2702 110.755C15.2621 110.647 15.3434 110.553 15.4518 110.545C15.5575 110.535 15.6545 110.618 15.6626 110.726C15.721 111.511 15.7901 112.303 15.8676 113.082C15.8784 113.191 15.7993 113.287 15.6913 113.298C15.6846 113.298 15.6781 113.299 15.6716 113.299ZM205.08 110.868C205.075 110.868 205.07 110.868 205.065 110.868C204.957 110.86 204.875 110.766 204.883 110.657C204.941 109.877 204.99 109.083 205.028 108.297C205.033 108.188 205.124 108.102 205.234 108.11C205.343 108.115 205.427 108.207 205.421 108.316C205.383 109.105 205.334 109.902 205.276 110.686C205.268 110.79 205.182 110.868 205.08 110.868V110.868ZM15.319 108.572C15.2149 108.572 15.1279 108.49 15.1226 108.385C15.0834 107.6 15.0535 106.802 15.0336 106.012C15.0309 105.903 15.1167 105.813 15.2253 105.81C15.3312 105.803 15.4243 105.893 15.427 106.002C15.4469 106.788 15.4766 107.584 15.5156 108.365C15.5211 108.474 15.4374 108.566 15.3288 108.572C15.3255 108.572 15.3221 108.572 15.3188 108.572L15.319 108.572ZM205.312 106.135H205.307C205.199 106.132 205.113 106.042 205.115 105.933C205.134 105.151 205.144 104.355 205.144 103.568V103.432C205.144 103.323 205.232 103.235 205.341 103.235C205.449 103.235 205.537 103.323 205.537 103.432V103.568C205.537 104.358 205.528 105.157 205.509 105.943C205.506 106.05 205.418 106.135 205.312 106.135ZM15.1997 103.833C15.0911 103.833 15.0029 103.745 15.0029 103.637V103.567C15.0029 102.802 15.0122 102.026 15.0305 101.262C15.033 101.154 15.1153 101.066 15.2318 101.07C15.3404 101.073 15.4264 101.163 15.4239 101.272C15.4058 102.033 15.3967 102.805 15.3967 103.568V103.637C15.3967 103.745 15.3083 103.833 15.1997 103.833ZM205.308 101.259C205.202 101.259 205.115 101.174 205.112 101.067C205.091 100.283 205.061 99.488 205.021 98.7036C205.016 98.5952 205.1 98.5027 205.208 98.4972C205.315 98.4909 205.409 98.5751 205.415 98.6837C205.454 99.4711 205.485 100.27 205.505 101.057C205.508 101.166 205.422 101.256 205.313 101.259C205.312 101.259 205.31 101.259 205.308 101.259V101.259ZM15.3127 99.0954C15.3095 99.0954 15.3064 99.0954 15.303 99.0954C15.1944 99.0901 15.1108 98.9978 15.1159 98.8894C15.1541 98.1014 15.2025 97.3038 15.2599 96.5188C15.2678 96.4106 15.3636 96.3295 15.4705 96.337C15.5789 96.3451 15.6604 96.4393 15.6525 96.5478C15.5953 97.3296 15.5469 98.1238 15.5091 98.9084C15.504 99.0137 15.417 99.0958 15.3125 99.0958L15.3127 99.0954ZM205.069 96.5251C204.967 96.5251 204.881 96.4464 204.873 96.3431C204.814 95.5638 204.745 94.7712 204.666 93.9872C204.655 93.8791 204.734 93.7825 204.843 93.7717C204.953 93.7617 205.047 93.8398 205.058 93.948C205.137 94.7352 205.207 95.5312 205.266 96.3138C205.274 96.422 205.193 96.5165 205.084 96.5247C205.079 96.5251 205.074 96.5253 205.069 96.5253L205.069 96.5251ZM15.6586 94.3685C15.6521 94.3685 15.6458 94.3683 15.6391 94.3676C15.5309 94.3569 15.4518 94.2607 15.4626 94.1525C15.5396 93.3689 15.6273 92.5748 15.7238 91.792C15.7369 91.6842 15.8342 91.6078 15.9432 91.6206C16.051 91.634 16.1278 91.7322 16.1146 91.84C16.0186 92.6195 15.931 93.4104 15.8544 94.1908C15.8444 94.2926 15.7588 94.3683 15.6588 94.3683L15.6586 94.3685ZM204.596 91.8095C204.498 91.8095 204.413 91.7367 204.401 91.6373C204.304 90.862 204.195 90.0739 204.077 89.2946C204.061 89.1871 204.135 89.0868 204.243 89.0706C204.351 89.0541 204.45 89.1283 204.467 89.2359C204.585 90.0185 204.694 90.81 204.791 91.5885C204.805 91.6964 204.728 91.7948 204.621 91.8081C204.612 91.8091 204.604 91.8095 204.596 91.8095ZM16.2388 89.6645C16.2291 89.6645 16.2193 89.6639 16.2096 89.6624C16.1022 89.6462 16.028 89.5463 16.0439 89.4388C16.16 88.6589 16.2874 87.87 16.4226 87.0941C16.4413 86.987 16.5436 86.9158 16.6502 86.9341C16.7573 86.9528 16.8289 87.0547 16.8102 87.1618C16.6754 87.9344 16.5487 88.7199 16.4332 89.4967C16.4186 89.5945 16.3348 89.6645 16.2388 89.6645ZM203.889 87.123C203.795 87.123 203.712 87.0559 203.696 86.9605C203.56 86.191 203.412 85.4092 203.255 84.6366C203.234 84.5301 203.303 84.4262 203.409 84.4048C203.515 84.3833 203.62 84.4522 203.641 84.5587C203.798 85.3344 203.947 86.1194 204.083 86.892C204.102 86.999 204.031 87.101 203.924 87.1201C203.912 87.122 203.901 87.123 203.889 87.123ZM17.0527 84.9953C17.0399 84.9953 17.0269 84.9942 17.0137 84.9914C16.907 84.9702 16.838 84.8664 16.8594 84.7598C17.0139 83.9882 17.1806 83.2065 17.3549 82.4371C17.3789 82.331 17.4848 82.2649 17.5903 82.2887C17.6964 82.3127 17.7627 82.418 17.7387 82.5241C17.5651 83.2906 17.399 84.0689 17.2453 84.8371C17.2266 84.9306 17.1444 84.9953 17.0527 84.9953ZM202.948 82.4776C202.858 82.4776 202.777 82.416 202.756 82.3247C202.582 81.561 202.395 80.7876 202.2 80.0259C202.173 79.9206 202.237 79.8133 202.342 79.7866C202.447 79.7594 202.555 79.8232 202.582 79.9285C202.777 80.6934 202.965 81.4699 203.14 82.2368C203.164 82.3428 203.098 82.4483 202.992 82.4725C202.977 82.4761 202.963 82.4776 202.948 82.4776ZM18.0992 80.3728C18.0832 80.3728 18.0669 80.3708 18.0508 80.3667C17.9453 80.3399 17.8815 80.2329 17.9083 80.1276C18.1016 79.3633 18.3074 78.5911 18.5197 77.8327C18.5489 77.728 18.6573 77.6666 18.7622 77.6963C18.8669 77.7256 18.9279 77.8342 18.8985 77.9387C18.6872 78.694 18.4823 79.463 18.2897 80.224C18.2672 80.3132 18.1872 80.3726 18.099 80.3726L18.0992 80.3728ZM201.776 77.8852C201.69 77.8852 201.611 77.8285 201.586 77.7417C201.374 76.99 201.148 76.2271 200.915 75.474C200.883 75.3701 200.941 75.2599 201.045 75.2278C201.149 75.1955 201.259 75.2538 201.291 75.3575C201.526 76.1137 201.752 76.88 201.965 77.6349C201.995 77.7394 201.934 77.8482 201.829 77.8777C201.811 77.8826 201.793 77.8852 201.776 77.8852ZM19.3769 75.8085C19.3576 75.8085 19.3384 75.8055 19.3191 75.7998C19.2152 75.768 19.1567 75.6578 19.1886 75.5539C19.4214 74.7958 19.6666 74.0323 19.9175 73.2841C19.9521 73.1812 20.0637 73.1259 20.1666 73.1601C20.2696 73.1948 20.3253 73.3061 20.2906 73.4093C20.0409 74.1543 19.7967 74.9147 19.5649 75.6696C19.5389 75.7542 19.461 75.8087 19.3767 75.8087L19.3769 75.8085ZM200.374 73.3577C200.292 73.3577 200.215 73.3057 200.188 73.2237C199.937 72.4814 199.674 71.7307 199.404 70.9923C199.366 70.8902 199.419 70.7772 199.521 70.74C199.623 70.7026 199.736 70.7552 199.773 70.8573C200.044 71.5986 200.309 72.3525 200.56 73.0981C200.595 73.2011 200.54 73.3126 200.437 73.3475C200.416 73.3546 200.395 73.3579 200.374 73.3579L200.374 73.3577ZM20.8879 71.2983C20.8656 71.2983 20.8428 71.2944 20.8208 71.2863C20.7186 71.2493 20.6659 71.1364 20.7029 71.0342C20.9733 70.2904 21.2563 69.5404 21.5446 68.8052C21.5843 68.7041 21.698 68.6539 21.7996 68.6938C21.9007 68.7336 21.9507 68.8477 21.911 68.9489C21.6239 69.6809 21.3419 70.4277 21.0727 71.1684C21.0437 71.2485 20.9682 71.2981 20.8877 71.2981L20.8879 71.2983ZM198.747 68.906C198.668 68.906 198.594 68.8587 198.563 68.7814C198.276 68.0533 197.976 67.3193 197.672 66.6002C197.63 66.5 197.676 66.3845 197.776 66.3422C197.876 66.3003 197.992 66.3464 198.034 66.4467C198.34 67.1689 198.642 67.9061 198.93 68.6372C198.97 68.7383 198.92 68.8524 198.819 68.8924C198.795 68.9016 198.771 68.9062 198.747 68.9062L198.747 68.906ZM22.6233 66.8726C22.598 66.8726 22.572 66.8676 22.547 66.857C22.4468 66.8149 22.3998 66.6994 22.4421 66.5992C22.7489 65.8715 23.0693 65.1371 23.3944 64.4165C23.4392 64.3175 23.5557 64.2736 23.6547 64.3181C23.7537 64.3629 23.798 64.4794 23.7531 64.5784C23.4292 65.2959 23.1102 66.0274 22.8048 66.7519C22.7731 66.8271 22.7001 66.8724 22.6233 66.8724V66.8726ZM196.905 64.5568C196.83 64.5568 196.759 64.5139 196.726 64.441C196.403 63.7299 196.067 63.0114 195.725 62.3057C195.678 62.2077 195.719 62.0902 195.817 62.0428C195.915 61.9956 196.033 62.0365 196.08 62.1343C196.422 62.8429 196.761 63.5644 197.084 64.2785C197.129 64.3775 197.085 64.494 196.986 64.5389C196.96 64.5509 196.932 64.5566 196.905 64.5566V64.5568ZM24.5782 62.5415C24.5495 62.5415 24.5206 62.5352 24.4928 62.522C24.3948 62.4747 24.3537 62.3573 24.4009 62.2593C24.7437 61.5483 25.1003 60.8314 25.4612 60.1283C25.5108 60.0316 25.6297 59.9933 25.7261 60.043C25.8227 60.0926 25.8611 60.2113 25.8113 60.3079C25.452 61.0081 25.0968 61.7222 24.7555 62.4301C24.7217 62.5003 24.6512 62.5415 24.5782 62.5415ZM194.847 60.3024C194.775 60.3024 194.706 60.2634 194.671 60.1957C194.315 59.5036 193.943 58.8025 193.566 58.112C193.513 58.0165 193.548 57.8971 193.644 57.8449C193.739 57.793 193.859 57.8278 193.911 57.923C194.29 58.6165 194.664 59.3206 195.021 60.0157C195.071 60.1123 195.033 60.231 194.936 60.2808C194.908 60.2955 194.877 60.3026 194.847 60.3026L194.847 60.3024ZM26.7466 58.316C26.7148 58.316 26.6825 58.3084 26.6526 58.292C26.5571 58.2401 26.5221 58.1204 26.5741 58.025C26.9517 57.3323 27.3437 56.6345 27.739 55.9506C27.7934 55.8566 27.914 55.8243 28.0079 55.8788C28.1019 55.9331 28.1342 56.0536 28.0797 56.1476C27.6861 56.8285 27.2957 57.5238 26.9194 58.2135C26.8836 58.279 26.8163 58.316 26.7464 58.316H26.7466ZM192.578 56.1537C192.51 56.1537 192.444 56.1185 192.407 56.0555C192.017 55.3813 191.61 54.6993 191.198 54.0284C191.141 53.9357 191.17 53.8147 191.263 53.7578C191.356 53.7012 191.477 53.7299 191.534 53.8228C191.947 54.4964 192.356 55.1814 192.748 55.8583C192.802 55.9524 192.77 56.0728 192.676 56.1274C192.645 56.1453 192.611 56.1537 192.578 56.1537ZM29.123 54.2059C29.088 54.2059 29.0526 54.1967 29.0205 54.177C28.9278 54.1201 28.8987 53.9991 28.9554 53.9064C29.3671 53.2338 29.7933 52.5564 30.2221 51.8935C30.2811 51.8024 30.4032 51.7762 30.4943 51.835C30.5856 51.8941 30.6117 52.0159 30.5527 52.1072C30.1257 52.7674 29.7012 53.4418 29.2911 54.1119C29.2541 54.1725 29.1892 54.2059 29.123 54.2059ZM190.104 52.1213C190.04 52.1213 189.977 52.0897 189.939 52.0316C189.512 51.3726 189.071 50.7114 188.63 50.0661C188.569 49.9764 188.592 49.854 188.682 49.7926C188.772 49.7312 188.894 49.7544 188.955 49.8439C189.398 50.4917 189.84 51.1557 190.269 51.8175C190.329 51.9086 190.303 52.0306 190.211 52.0897C190.178 52.1111 190.141 52.1213 190.104 52.1213ZM31.7008 50.221C31.6626 50.221 31.624 50.2099 31.59 50.1867C31.5002 50.1255 31.4772 50.0029 31.5384 49.9132C31.9826 49.2626 32.4419 48.6077 32.9033 47.9668C32.9667 47.8788 33.0897 47.8583 33.1781 47.9219C33.2662 47.9855 33.2863 48.1085 33.2227 48.1966C32.7632 48.835 32.3057 49.4871 31.8633 50.1352C31.8253 50.1911 31.7637 50.221 31.7008 50.221ZM187.432 48.2151C187.371 48.2151 187.311 48.1868 187.273 48.1334C186.813 47.4968 186.341 46.8581 185.867 46.2346C185.801 46.148 185.818 46.0247 185.905 45.9589C185.991 45.8934 186.115 45.9099 186.18 45.9965C186.656 46.6225 187.13 47.2638 187.592 47.9032C187.655 47.9914 187.635 48.1144 187.547 48.1779C187.512 48.2029 187.472 48.2151 187.432 48.2151H187.432ZM34.4727 46.3706C34.4312 46.3706 34.3895 46.3576 34.3539 46.3307C34.2673 46.2649 34.2504 46.1416 34.3159 46.055C34.7935 45.4253 35.2845 44.7942 35.7755 44.1794C35.8434 44.0946 35.9673 44.0806 36.0519 44.1485C36.137 44.2162 36.1507 44.3402 36.0828 44.425C35.594 45.0372 35.1048 45.6657 34.6294 46.2929C34.5906 46.3439 34.5318 46.3708 34.4725 46.3708L34.4727 46.3706ZM184.568 44.4449C184.51 44.4449 184.453 44.4197 184.414 44.3709C183.927 43.7606 183.423 43.1459 182.916 42.5435C182.846 42.4602 182.857 42.3361 182.94 42.2662C183.023 42.1964 183.147 42.2068 183.217 42.2902C183.726 42.8951 184.232 43.5125 184.722 44.1253C184.79 44.2103 184.776 44.3341 184.691 44.4019C184.655 44.4309 184.612 44.445 184.569 44.445L184.568 44.4449ZM37.4314 42.6643C37.3868 42.6643 37.3419 42.6492 37.3049 42.6183C37.2217 42.5484 37.2108 42.4242 37.2807 42.341C37.7882 41.7367 38.3097 41.1309 38.831 40.5406C38.903 40.4591 39.0274 40.4514 39.1088 40.5235C39.1903 40.5955 39.198 40.7199 39.126 40.8013C38.607 41.3891 38.0875 41.9923 37.582 42.5943C37.543 42.6405 37.4873 42.6645 37.4312 42.6645L37.4314 42.6643ZM181.52 40.8198C181.466 40.8198 181.411 40.7974 181.373 40.7533C180.854 40.1671 180.32 39.5777 179.785 39.0017C179.711 38.922 179.716 38.7976 179.795 38.7236C179.875 38.6496 179.999 38.654 180.073 38.7339C180.611 39.3122 181.147 39.904 181.668 40.4928C181.74 40.5742 181.732 40.6984 181.651 40.7704C181.613 40.8035 181.566 40.8198 181.52 40.8198ZM40.5694 39.1101C40.5214 39.1101 40.4734 39.0928 40.4356 39.0576C40.3559 38.9838 40.3514 38.8592 40.4252 38.7795C40.9592 38.2039 41.5101 37.625 42.0622 37.0586C42.138 36.9809 42.2628 36.9791 42.3405 37.0551C42.4184 37.1308 42.4198 37.2556 42.344 37.3333C41.7942 37.8973 41.2456 38.4739 40.7137 39.047C40.6749 39.0887 40.6221 39.1099 40.5694 39.1099V39.1101ZM178.295 37.3491C178.243 37.3491 178.192 37.3292 178.154 37.2898C177.605 36.7278 177.042 36.1656 176.481 35.6185C176.403 35.5426 176.401 35.418 176.477 35.3403C176.553 35.2623 176.678 35.261 176.755 35.3365C177.319 35.886 177.884 36.4505 178.435 37.0147C178.511 37.0927 178.51 37.217 178.432 37.293C178.394 37.3304 178.344 37.3491 178.294 37.3491H178.295ZM43.8784 35.7171C43.8272 35.7171 43.7761 35.6972 43.7375 35.6577C43.6615 35.58 43.6631 35.4554 43.741 35.3794C44.3056 34.8286 44.8842 34.2778 45.4608 33.7423C45.5405 33.6684 45.665 33.6731 45.739 33.7526C45.8128 33.8323 45.8085 33.9568 45.7288 34.0308C45.1546 34.5639 44.5782 35.1126 44.016 35.6612C43.9778 35.6984 43.9282 35.7171 43.8786 35.7171H43.8784ZM174.901 34.0411C174.853 34.0411 174.805 34.0238 174.767 33.9885C174.191 33.4541 173.6 32.9202 173.013 32.4016C172.931 32.3298 172.923 32.2052 172.995 32.1238C173.067 32.0421 173.192 32.0348 173.273 32.1064C173.863 32.6273 174.456 33.1634 175.034 33.7C175.114 33.7738 175.119 33.8984 175.045 33.9781C175.006 34.0198 174.953 34.0411 174.901 34.0411ZM47.3503 32.4931C47.2958 32.4931 47.2417 32.4707 47.2027 32.4266C47.1307 32.3452 47.1384 32.2208 47.2199 32.1488C47.81 31.6275 48.4149 31.1062 49.0179 30.5994C49.1011 30.5298 49.2253 30.5404 49.2952 30.6235C49.365 30.7067 49.3544 30.8309 49.2712 30.9007C48.6708 31.4053 48.0682 31.9244 47.4804 32.4437C47.443 32.4768 47.3966 32.4929 47.3501 32.4929L47.3503 32.4931ZM171.345 30.9047C171.3 30.9047 171.256 30.8895 171.219 30.8586C170.618 30.3546 170.002 29.8505 169.387 29.3601C169.302 29.2924 169.288 29.1684 169.356 29.0836C169.424 28.9988 169.548 28.9848 169.633 29.0525C170.25 29.5451 170.869 30.0514 171.471 30.5571C171.555 30.627 171.566 30.7512 171.496 30.8344C171.457 30.8809 171.401 30.9047 171.345 30.9047H171.345ZM50.9763 29.4463C50.9187 29.4463 50.8614 29.4211 50.8224 29.3723C50.7546 29.2873 50.7685 29.1635 50.8533 29.0958C51.4677 28.605 52.0974 28.1146 52.7254 27.638C52.812 27.5723 52.9354 27.5892 53.0011 27.6758C53.0668 27.7624 53.0499 27.8857 52.9633 27.9515C52.3381 28.4263 51.7107 28.9147 51.0989 29.4034C51.0627 29.4323 51.0192 29.4465 50.9761 29.4465L50.9763 29.4463ZM167.637 27.9471C167.596 27.9471 167.554 27.9342 167.518 27.9072C166.892 27.4325 166.251 26.9595 165.614 26.5009C165.526 26.4376 165.506 26.3146 165.569 26.2262C165.633 26.1379 165.756 26.1178 165.844 26.1814C166.484 26.6417 167.127 27.1167 167.756 27.5933C167.843 27.6588 167.86 27.7824 167.794 27.869C167.756 27.9202 167.697 27.9469 167.637 27.9469L167.637 27.9471ZM54.7476 26.5838C54.6864 26.5838 54.6262 26.5555 54.5878 26.5019C54.5242 26.4138 54.5441 26.2908 54.6325 26.2272C55.2704 25.7675 55.9236 25.309 56.5736 24.8647C56.6637 24.8035 56.7859 24.8265 56.8471 24.916C56.9085 25.0058 56.8855 25.1282 56.7957 25.1896C56.1483 25.6321 55.4979 26.0887 54.8625 26.5466C54.8277 26.5716 54.7875 26.5836 54.7478 26.5836L54.7476 26.5838ZM163.786 25.1768C163.748 25.1768 163.709 25.1657 163.675 25.1425C163.028 24.7007 162.365 24.2599 161.703 23.8323C161.612 23.7733 161.585 23.6515 161.645 23.5602C161.703 23.469 161.825 23.4427 161.917 23.5017C162.581 23.9313 163.247 24.3739 163.897 24.8174C163.987 24.8786 164.01 25.001 163.949 25.0908C163.911 25.1467 163.849 25.1768 163.786 25.1768H163.786ZM58.6546 23.9132C58.5901 23.9132 58.5269 23.8815 58.4893 23.8233C58.4303 23.7321 58.4562 23.6101 58.5476 23.5511C59.2072 23.1239 59.882 22.6986 60.5532 22.2871C60.6459 22.2303 60.7669 22.2594 60.8238 22.3521C60.8807 22.4448 60.8515 22.5658 60.7589 22.6227C60.0906 23.0326 59.4183 23.4559 58.7615 23.8813C58.7284 23.9028 58.6914 23.913 58.6548 23.913L58.6546 23.9132ZM159.8 22.6006C159.765 22.6006 159.73 22.5914 159.698 22.5717C159.026 22.1606 158.341 21.7532 157.662 21.361C157.567 21.3067 157.535 21.1863 157.589 21.0922C157.644 20.998 157.764 20.9657 157.858 21.0202C158.54 21.414 159.228 21.8231 159.903 22.236C159.996 22.2926 160.025 22.4139 159.968 22.5065C159.931 22.5672 159.867 22.6006 159.8 22.6006ZM62.6878 21.4407C62.6199 21.4407 62.5538 21.4055 62.5174 21.3425C62.4628 21.2485 62.4949 21.1282 62.589 21.0737C63.2673 20.6808 63.9622 20.2899 64.6541 19.9117C64.7493 19.8594 64.8692 19.8946 64.9211 19.99C64.9733 20.0853 64.9382 20.2049 64.8428 20.2571C64.1536 20.6337 63.4617 21.0232 62.7864 21.4144C62.7553 21.4323 62.7212 21.4409 62.688 21.4409L62.6878 21.4407ZM155.69 20.2256C155.658 20.2256 155.626 20.2179 155.595 20.2016C154.907 19.8263 154.202 19.4536 153.5 19.0939C153.404 19.0443 153.365 18.9258 153.415 18.829C153.465 18.7322 153.584 18.694 153.68 18.7436C154.384 19.1047 155.092 19.479 155.784 19.8558C155.879 19.9078 155.914 20.0274 155.862 20.1227C155.826 20.1882 155.759 20.2252 155.689 20.2252L155.69 20.2256ZM66.8372 19.1734C66.7658 19.1734 66.6969 19.1344 66.6621 19.0667C66.6123 18.9701 66.6503 18.8514 66.7471 18.8016C67.4443 18.4429 68.1575 18.0873 68.8667 17.7443C68.9649 17.6967 69.0822 17.738 69.1294 17.8358C69.1767 17.9336 69.1357 18.0513 69.0379 18.0985C68.3316 18.4399 67.6214 18.7941 66.9272 19.1513C66.8984 19.1661 66.8675 19.1734 66.8372 19.1734ZM151.463 18.0584C151.434 18.0584 151.405 18.0521 151.378 18.0389C150.671 17.6984 149.948 17.3613 149.229 17.0372C149.13 16.9926 149.086 16.8761 149.131 16.7769C149.175 16.6779 149.291 16.6338 149.391 16.6785C150.113 17.004 150.838 17.3424 151.548 17.6845C151.646 17.7317 151.688 17.8492 151.64 17.9472C151.607 18.0174 151.536 18.0584 151.463 18.0584ZM71.0922 17.1169C71.0174 17.1169 70.9458 17.074 70.9127 17.0014C70.8678 16.9024 70.9119 16.7857 71.0109 16.7409C71.7243 16.4179 72.4538 16.0985 73.1793 15.7914C73.2793 15.7492 73.3948 15.7957 73.4373 15.8959C73.4796 15.9958 73.433 16.1113 73.3328 16.1538C72.6102 16.4597 71.8837 16.7779 71.1735 17.0996C71.1471 17.1116 71.1195 17.1171 71.0924 17.1171L71.0922 17.1169ZM147.131 16.105C147.106 16.105 147.08 16.1001 147.055 16.0895C146.33 15.7843 145.591 15.484 144.858 15.1967C144.756 15.1569 144.706 15.0428 144.746 14.9416C144.786 14.8403 144.9 14.7905 145.001 14.8302C145.738 15.1187 146.48 15.4204 147.208 15.7268C147.308 15.7689 147.355 15.8844 147.313 15.9846C147.281 16.0598 147.208 16.105 147.131 16.105ZM75.4424 15.2766C75.3639 15.2766 75.2897 15.2293 75.2592 15.1518C75.2194 15.0507 75.269 14.9363 75.3702 14.8966C76.104 14.6077 76.851 14.3241 77.5907 14.0539C77.6928 14.0167 77.8058 14.0693 77.8432 14.1712C77.8804 14.2733 77.8278 14.3863 77.7259 14.4237C76.9891 14.6927 76.2453 14.9751 75.5146 15.2628C75.4908 15.2722 75.4664 15.2766 75.4426 15.2766H75.4424ZM142.705 14.3713C142.683 14.3713 142.66 14.3674 142.638 14.3593C141.898 14.0909 141.145 13.828 140.397 13.5779C140.294 13.5435 140.238 13.4319 140.273 13.3288C140.307 13.2258 140.419 13.1705 140.522 13.2046C141.272 13.4557 142.029 13.7198 142.772 13.9894C142.874 14.0264 142.927 14.1393 142.89 14.2415C142.861 14.3214 142.786 14.3711 142.705 14.3711L142.705 14.3713ZM79.8945 13.6507C79.8124 13.6507 79.7357 13.5988 79.7079 13.5167C79.6733 13.4138 79.7286 13.302 79.8315 13.2674C80.5783 13.0157 81.3387 12.7701 82.0916 12.5373C82.1948 12.5054 82.3057 12.5633 82.3378 12.6672C82.3699 12.7709 82.3119 12.8811 82.2079 12.9133C81.4582 13.1452 80.7009 13.3898 79.9573 13.6405C79.9364 13.6476 79.9152 13.6507 79.8945 13.6507ZM138.194 12.8618C138.175 12.8618 138.156 12.8588 138.137 12.8531C137.387 12.6233 136.624 12.3993 135.867 12.1878C135.762 12.1587 135.701 12.05 135.73 11.9453C135.76 11.8405 135.868 11.7798 135.973 11.8088C136.733 12.0213 137.5 12.246 138.252 12.4769C138.356 12.5087 138.414 12.6189 138.382 12.7228C138.356 12.8075 138.279 12.8618 138.194 12.8618ZM84.4226 12.2506C84.3366 12.2506 84.2577 12.1939 84.2333 12.1071C84.2038 12.0024 84.2648 11.8938 84.3693 11.8643C85.1263 11.6509 85.8979 11.4437 86.663 11.2487C86.7689 11.2221 86.8756 11.2857 86.9023 11.3908C86.9293 11.4961 86.8655 11.6033 86.7602 11.6301C85.9983 11.8245 85.2298 12.0307 84.4761 12.2431C84.4582 12.2482 84.4403 12.2506 84.4226 12.2506ZM133.63 11.5858C133.614 11.5858 133.597 11.5838 133.581 11.5797C132.821 11.3876 132.047 11.2025 131.281 11.0293C131.175 11.0053 131.109 10.9 131.133 10.7939C131.157 10.6879 131.262 10.6217 131.368 10.6454C132.137 10.8193 132.914 11.0053 133.677 11.1983C133.783 11.2249 133.846 11.332 133.82 11.4372C133.797 11.5264 133.718 11.5858 133.63 11.5858ZM89.0152 11.0795C88.9255 11.0795 88.8444 11.0177 88.8236 10.9266C88.7994 10.8205 88.8657 10.715 88.9715 10.6908C89.7382 10.5159 90.5193 10.3476 91.2932 10.1912C91.4003 10.1695 91.5036 10.2384 91.5251 10.3451C91.5467 10.4517 91.4778 10.5554 91.3712 10.5769C90.6004 10.7327 89.8224 10.9002 89.0589 11.0746C89.0442 11.0779 89.0294 11.0795 89.0148 11.0795H89.0152ZM129.007 10.5405C128.994 10.5405 128.981 10.5393 128.968 10.5365C128.199 10.3828 127.417 10.2366 126.643 10.102C126.536 10.0833 126.465 9.9814 126.483 9.87434C126.502 9.76729 126.602 9.69605 126.711 9.71416C127.488 9.84935 128.273 9.99616 129.045 10.1506C129.152 10.1719 129.221 10.2756 129.2 10.3823C129.181 10.4757 129.099 10.5405 129.007 10.5405H129.007ZM93.6608 10.1404C93.5671 10.1404 93.4841 10.0733 93.4674 9.97766C93.4485 9.8708 93.5201 9.76867 93.6272 9.74978C94.4041 9.61281 95.1926 9.48411 95.9709 9.36703C96.077 9.3503 96.1785 9.42468 96.1948 9.53233C96.211 9.63977 96.137 9.74013 96.0295 9.75627C95.2544 9.87297 94.4692 10.0013 93.6954 10.1376C93.6838 10.1396 93.6724 10.1406 93.661 10.1406L93.6608 10.1404ZM124.337 9.72813C124.328 9.72813 124.318 9.72754 124.309 9.72597C123.533 9.61085 122.744 9.50399 121.965 9.40815C121.857 9.39497 121.78 9.29677 121.794 9.18874C121.807 9.08109 121.904 9.00474 122.013 9.01733C122.796 9.11356 123.588 9.22101 124.366 9.33652C124.474 9.35246 124.548 9.45263 124.532 9.56007C124.518 9.65768 124.433 9.72793 124.338 9.72793L124.337 9.72813ZM98.3475 9.43492C98.2497 9.43492 98.1651 9.36211 98.1525 9.26253C98.1391 9.15469 98.2155 9.0563 98.3233 9.04292C99.1032 8.94531 99.8972 8.85597 100.683 8.77745C100.792 8.76643 100.888 8.84554 100.899 8.95377C100.909 9.062 100.831 9.15843 100.722 9.16925C99.9395 9.24738 99.1488 9.33652 98.3721 9.43354C98.3638 9.43452 98.3556 9.43492 98.3475 9.43492ZM119.633 9.14977C119.627 9.14977 119.62 9.14957 119.614 9.14879C118.832 9.07243 118.04 9.00494 117.257 8.94787C117.149 8.94 117.068 8.84573 117.075 8.7373C117.083 8.62887 117.179 8.54957 117.286 8.55528C118.071 8.61254 118.867 8.68024 119.652 8.75698C119.76 8.76761 119.839 8.86364 119.828 8.97188C119.818 9.07361 119.733 9.14957 119.633 9.14957L119.633 9.14977ZM103.064 8.96361C102.962 8.96361 102.875 8.8849 102.868 8.78158C102.859 8.67315 102.941 8.57869 103.049 8.57062C103.835 8.51159 104.633 8.4618 105.419 8.42225C105.529 8.4187 105.62 8.50037 105.626 8.609C105.631 8.71743 105.548 8.80992 105.439 8.81523C104.656 8.85459 103.862 8.90438 103.078 8.96282C103.074 8.96322 103.068 8.96341 103.064 8.96341L103.064 8.96361ZM114.906 8.80579C114.903 8.80579 114.9 8.80579 114.896 8.80579C114.112 8.7682 113.317 8.73986 112.533 8.72136C112.424 8.71881 112.338 8.62868 112.34 8.52005C112.343 8.41123 112.443 8.32326 112.542 8.32799C113.329 8.34629 114.128 8.37482 114.915 8.4126C115.024 8.41792 115.108 8.51001 115.102 8.61864C115.097 8.72412 115.01 8.80598 114.906 8.80598L114.906 8.80579ZM107.798 8.72628C107.691 8.72628 107.604 8.64147 107.601 8.53442C107.598 8.42579 107.684 8.33546 107.793 8.33271C108.581 8.31244 109.38 8.30201 110.167 8.30103C110.276 8.30103 110.364 8.38899 110.364 8.49762C110.364 8.60624 110.276 8.6944 110.168 8.6946C109.383 8.69539 108.587 8.70601 107.802 8.72609C107.801 8.72609 107.799 8.72609 107.797 8.72609L107.798 8.72628Z" fill="#292A2E"/>
    <path opacity="0.1" d="M110.271 159.362C141.085 159.362 166.065 134.382 166.065 103.569C166.065 72.7549 141.085 47.7754 110.271 47.7754C79.4575 47.7754 54.478 72.7549 54.478 103.569C54.478 134.382 79.4575 159.362 110.271 159.362Z" fill="#367CFF"/>
    <path d="M193.358 83.4495C206.794 83.4495 217.686 72.5572 217.686 59.121C217.686 45.6847 206.794 34.7925 193.358 34.7925C179.922 34.7925 169.029 45.6847 169.029 59.121C169.029 72.5572 179.922 83.4495 193.358 83.4495Z" fill="white"/>
    <path opacity="0.1" d="M193.358 83.4495C206.794 83.4495 217.686 72.5572 217.686 59.121C217.686 45.6847 206.794 34.7925 193.358 34.7925C179.922 34.7925 169.029 45.6847 169.029 59.121C169.029 72.5572 179.922 83.4495 193.358 83.4495Z" fill="#367CFF"/>
    <path d="M178.821 68.7668L207.071 73.3899C208.562 73.6338 209.968 72.6233 210.212 71.1329L213.241 52.6188C213.485 51.1283 212.475 49.7224 210.984 49.4785L182.734 44.8554C181.244 44.6115 179.838 45.622 179.594 47.1124L176.564 65.6265C176.32 67.117 177.331 68.5229 178.821 68.7668Z" fill="#262626"/>
    <path d="M187.142 48.9938L183.615 48.4165C183.005 48.3167 182.43 48.7301 182.33 49.3399L181.994 51.3942C181.894 52.0039 182.308 52.5791 182.917 52.6789L186.445 53.2562C187.054 53.3559 187.63 52.9425 187.729 52.3328L188.066 50.2785C188.165 49.6687 187.752 49.0935 187.142 48.9938Z" fill="white"/>
    <path d="M188.168 49.6487L188.004 50.649L186.061 50.331L185.799 49.9663L185.989 48.8066L187.772 49.0985C188.034 49.1412 188.21 49.3876 188.168 49.6487Z" fill="#0CBC8B"/>
    <path d="M187.789 51.9655L187.625 52.9657C187.582 53.2269 187.336 53.4038 187.075 53.3611L185.291 53.0692L185.486 51.8783L185.845 51.6475L187.788 51.9655H187.789Z" fill="#0CBC8B"/>
    <path d="M184.735 48.6017L184.545 49.7613L184.212 50.0286L182.269 49.7106L182.433 48.7103C182.475 48.4492 182.722 48.2722 182.983 48.315L184.735 48.6017H184.735Z" fill="#0CBC8B"/>
    <path d="M184.232 51.6731L184.037 52.8641L182.285 52.5773C182.024 52.5346 181.847 52.2883 181.89 52.0271L182.053 51.0269L183.996 51.3449L184.232 51.6731Z" fill="#0CBC8B"/>
    <path d="M207.932 68.6543C207.706 70.0333 206.393 70.9769 205.015 70.7512C204.419 70.6538 203.922 70.3472 203.54 69.9306C203.053 69.3682 202.789 68.6171 202.918 67.8337C203.046 67.05 203.54 66.3908 204.176 66.0443C204.671 65.7713 205.24 65.6391 205.835 65.7365C207.214 65.9622 208.158 67.2752 207.932 68.6541V68.6543Z" fill="white"/>
    <path d="M202.6 69.7768C202.105 70.0497 201.536 70.1819 200.94 70.0845C199.561 69.8588 198.618 68.5459 198.843 67.167C199.069 65.7879 200.382 64.8443 201.761 65.07C202.356 65.1674 202.853 65.474 203.236 65.8906C202.595 66.2684 202.23 66.9166 202.101 67.7003C201.973 68.4839 202.107 69.246 202.6 69.777V69.7768Z" fill="#0CBC8B"/>
    <path d="M186.711 56.8317L181.711 56.0135C181.457 55.9718 181.216 56.1445 181.175 56.3992C181.133 56.654 181.306 56.8943 181.56 56.9359L186.56 57.7542C186.815 57.7959 187.055 57.6232 187.097 57.3684C187.139 57.1137 186.966 56.8734 186.711 56.8317Z" fill="white"/>
    <path d="M194.075 58.0368L189.075 57.2185C188.82 57.1769 188.58 57.3496 188.538 57.6043C188.497 57.859 188.669 58.0993 188.924 58.141L193.924 58.9593C194.179 59.0009 194.419 58.8282 194.461 58.5735C194.502 58.3188 194.33 58.0785 194.075 58.0368Z" fill="white"/>
    <path d="M201.439 59.2419L196.439 58.4236C196.184 58.3819 195.944 58.5546 195.902 58.8094C195.86 59.0641 196.033 59.3044 196.288 59.3461L201.288 60.1643C201.543 60.206 201.783 60.0333 201.825 59.7786C201.866 59.5239 201.694 59.2836 201.439 59.2419Z" fill="white"/>
    <path d="M208.803 60.4469L203.803 59.6287C203.548 59.587 203.308 59.7597 203.266 60.0145C203.224 60.2692 203.397 60.5095 203.652 60.5512L208.652 61.3694C208.906 61.4111 209.147 61.2384 209.188 60.9837C209.23 60.7289 209.057 60.4886 208.803 60.4469Z" fill="white"/>
    <path d="M25.0139 164.471C38.8287 164.471 50.0278 153.272 50.0278 139.457C50.0278 125.642 38.8287 114.443 25.0139 114.443C11.1991 114.443 0 125.642 0 139.457C0 153.272 11.1991 164.471 25.0139 164.471Z" fill="white"/>
    <path opacity="0.1" d="M25.0139 164.471C38.8287 164.471 50.0278 153.272 50.0278 139.457C50.0278 125.642 38.8287 114.443 25.0139 114.443C11.1991 114.443 0 125.642 0 139.457C0 153.272 11.1991 164.471 25.0139 164.471Z" fill="#367CFF"/>
    <path d="M36.0451 137.301H10.2228C9.74247 137.301 9.35303 137.69 9.35303 138.171L11.0446 156.944C11.0446 157.424 11.4341 157.814 11.9144 157.814H36.0451C36.5255 157.814 36.9149 157.424 36.9149 156.944V138.171C36.9149 137.69 36.5255 137.301 36.0451 137.301Z" fill="#292A2E"/>
    <path d="M38.0166 127.867L36.9319 152.349C36.9168 152.693 36.6254 152.959 36.2814 152.944L13.9916 151.956C13.6474 151.941 13.381 151.65 13.3961 151.306L14.6835 122.253C14.6987 121.909 14.9901 121.642 15.3341 121.657L33.107 122.445L32.9047 127.009C32.8893 127.357 33.1589 127.652 33.5072 127.667L38.0166 127.867Z" fill="#558FFF"/>
    <path opacity="0.4" d="M38.0166 127.867L36.9319 152.349C36.9168 152.693 36.6254 152.959 36.2814 152.944L13.9916 151.956C13.6474 151.941 13.381 151.65 13.3961 151.306L14.6835 122.253C14.6987 121.909 14.9901 121.642 15.3341 121.657L33.107 122.445L32.9006 127.104C32.8876 127.4 33.1162 127.65 33.4116 127.663L38.0168 127.867L38.0166 127.867Z" fill="white"/>
    <path d="M17.4087 129.718L34.9582 130.496L17.4087 129.718Z" fill="white"/>
    <path d="M34.9586 130.594C34.957 130.594 34.9556 130.594 34.9542 130.594L17.4047 129.817C17.3504 129.815 17.3083 129.768 17.3106 129.714C17.313 129.66 17.3618 129.617 17.4132 129.62L34.9627 130.398C35.017 130.4 35.0591 130.446 35.0568 130.5C35.0544 130.553 35.0109 130.594 34.9586 130.594Z" fill="#FAFAFA"/>
    <path d="M17.2896 132.423L34.8391 133.201L17.2896 132.423Z" fill="white"/>
    <path d="M34.8391 133.3C34.8376 133.3 34.8362 133.3 34.8348 133.3L17.2851 132.522C17.2308 132.519 17.1887 132.473 17.191 132.419C17.1934 132.365 17.2443 132.324 17.2935 132.325L34.8433 133.103C34.8976 133.105 34.9397 133.151 34.9373 133.205C34.935 133.258 34.8915 133.3 34.8391 133.3Z" fill="#FAFAFA"/>
    <path d="M17.1689 135.129L34.7185 135.906L17.1689 135.129Z" fill="white"/>
    <path d="M34.7188 136.005C34.7173 136.005 34.7159 136.005 34.7145 136.005L17.165 135.227C17.1106 135.225 17.0685 135.179 17.0709 135.125C17.0733 135.071 17.123 135.028 17.1734 135.031L34.723 135.809C34.7773 135.811 34.8194 135.857 34.817 135.911C34.8147 135.964 34.7712 136.005 34.7188 136.005Z" fill="#FAFAFA"/>
    <path d="M17.0493 137.834L34.5989 138.612L17.0493 137.834Z" fill="white"/>
    <path d="M34.5992 138.71C34.5976 138.71 34.5962 138.71 34.5949 138.71L17.0453 137.933C16.991 137.93 16.9489 137.884 16.9513 137.83C16.9536 137.776 17.0054 137.732 17.0538 137.736L34.6033 138.514C34.6576 138.516 34.6998 138.562 34.6974 138.616C34.695 138.669 34.6515 138.71 34.5992 138.71Z" fill="#FAFAFA"/>
    <path d="M16.9297 140.54L34.4792 141.317L16.9297 140.54Z" fill="white"/>
    <path d="M34.4791 141.416C34.4775 141.416 34.4761 141.416 34.4748 141.416L16.9252 140.638C16.8709 140.636 16.8288 140.59 16.8311 140.536C16.8335 140.481 16.8843 140.44 16.9337 140.441L34.4832 141.219C34.5375 141.221 34.5796 141.267 34.5773 141.322C34.5749 141.374 34.5314 141.416 34.4791 141.416Z" fill="#FAFAFA"/>
    <path d="M16.8101 143.245L24.6889 143.594L16.8101 143.245Z" fill="white"/>
    <path d="M24.6887 143.692C24.6871 143.692 24.6858 143.692 24.6844 143.692L16.8056 143.343C16.7513 143.341 16.7092 143.295 16.7115 143.241C16.7139 143.186 16.7633 143.143 16.814 143.147L24.6928 143.496C24.7472 143.498 24.7893 143.544 24.7869 143.598C24.7845 143.651 24.7411 143.692 24.6887 143.692Z" fill="#FAFAFA"/>
    <path opacity="0.7" d="M38.0167 127.867L33.5349 127.668C33.1714 127.652 32.8898 127.344 32.9059 126.981L33.1069 122.445L38.0167 127.867Z" fill="#367CFF"/>
    <path d="M34.5017 129.398L36.4515 153.826C36.4788 154.169 36.2228 154.47 35.8794 154.497L13.6384 156.273C13.2951 156.3 12.9946 156.044 12.9672 155.7L10.6534 126.711C10.626 126.368 10.882 126.067 11.2254 126.04L28.9594 124.625L29.3228 129.178C29.3506 129.526 29.6546 129.785 30.0021 129.757L34.5019 129.398H34.5017Z" fill="#558FFF"/>
    <path opacity="0.73" d="M34.5017 129.398L36.4515 153.826C36.4788 154.169 36.2228 154.47 35.8794 154.497L13.6384 156.273C13.2951 156.3 12.9946 156.044 12.9672 155.7L10.6534 126.711C10.626 126.368 10.882 126.067 11.2254 126.04L28.9594 124.625L29.323 129.18C29.3508 129.526 29.654 129.785 30.0006 129.757L34.5017 129.398Z" fill="white"/>
    <path d="M14.2808 133.782L31.7919 132.385L14.2808 133.782Z" fill="white"/>
    <path d="M14.2809 133.881C14.2302 133.881 14.1871 133.842 14.1829 133.79C14.1786 133.736 14.2191 133.689 14.2733 133.685L31.7844 132.287C31.8372 132.284 31.886 132.323 31.8903 132.377C31.8946 132.431 31.8541 132.479 31.8 132.483L14.2888 133.881C14.2862 133.881 14.2835 133.881 14.2809 133.881Z" fill="#FAFAFA"/>
    <path d="M14.4966 136.482L32.0077 135.084L14.4966 136.482Z" fill="white"/>
    <path d="M14.4963 136.581C14.4455 136.581 14.4024 136.542 14.3983 136.49C14.3939 136.436 14.4345 136.388 14.4886 136.384L31.9998 134.987C32.0527 134.983 32.1013 135.023 32.1056 135.077C32.11 135.131 32.0694 135.178 32.0153 135.183L14.5041 136.58C14.5016 136.58 14.4988 136.581 14.4963 136.581Z" fill="#FAFAFA"/>
    <path d="M14.7119 139.181L32.2231 137.784L14.7119 139.181Z" fill="white"/>
    <path d="M14.7116 139.28C14.6608 139.28 14.6177 139.241 14.6136 139.189C14.6093 139.135 14.6498 139.088 14.7039 139.084L32.2151 137.686C32.2682 137.682 32.3166 137.722 32.321 137.776C32.3253 137.83 32.2848 137.878 32.2306 137.882L14.7195 139.28C14.7169 139.28 14.7142 139.28 14.7116 139.28Z" fill="#FAFAFA"/>
    <path d="M14.9277 141.881L32.4389 140.483L14.9277 141.881Z" fill="white"/>
    <path d="M14.9274 141.979C14.8766 141.979 14.8336 141.94 14.8294 141.889C14.8251 141.835 14.8656 141.787 14.9197 141.783L32.4307 140.385C32.484 140.381 32.5323 140.421 32.5366 140.475C32.5409 140.53 32.5004 140.577 32.4463 140.581L14.9353 141.979C14.9327 141.979 14.93 141.979 14.9274 141.979Z" fill="#FAFAFA"/>
    <path d="M15.1426 144.58L32.6537 143.182L15.1426 144.58Z" fill="white"/>
    <path d="M15.1428 144.679C15.092 144.679 15.0489 144.64 15.0448 144.588C15.0404 144.534 15.081 144.486 15.1351 144.482L32.6462 143.084C32.6998 143.08 32.7478 143.121 32.7521 143.175C32.7564 143.229 32.7159 143.276 32.6618 143.281L15.1506 144.678C15.1481 144.678 15.1453 144.679 15.1428 144.679Z" fill="#FAFAFA"/>
    <path d="M15.3579 147.279L23.2194 146.652L15.3579 147.279Z" fill="white"/>
    <path d="M15.3581 147.378C15.3073 147.378 15.2642 147.339 15.2601 147.287C15.2558 147.233 15.2963 147.186 15.3504 147.181L23.2119 146.554C23.2652 146.55 23.3134 146.59 23.3178 146.644C23.3221 146.698 23.2815 146.746 23.2274 146.75L15.366 147.378C15.3634 147.378 15.3606 147.378 15.3581 147.378Z" fill="#FAFAFA"/>
    <path opacity="0.3" d="M34.5015 129.398L30.0295 129.755C29.6668 129.784 29.3494 129.513 29.3203 129.15L28.959 124.625L34.5015 129.398Z" fill="white"/>
    <path d="M31.9681 140.135V140.784C31.9681 141.264 31.5786 141.654 31.0982 141.654H13.5965C13.1551 141.654 12.7838 141.985 12.7326 142.423L11.0509 156.843C10.9907 157.36 11.3945 157.814 11.9148 157.814H37.79C38.2363 157.814 38.6102 157.476 38.6553 157.032L40.3632 140.223C40.4154 139.71 40.0129 139.265 39.4979 139.265H32.8381C32.3577 139.265 31.9682 139.655 31.9682 140.135L31.9681 140.135Z" fill="#0CBC8B"/>
    <path d="M167.478 200C182.625 200 194.904 187.721 194.904 172.574C194.904 157.427 182.625 145.148 167.478 145.148C152.331 145.148 140.052 157.427 140.052 172.574C140.052 187.721 152.331 200 167.478 200Z" fill="white"/>
    <path opacity="0.1" d="M167.478 200C182.625 200 194.904 187.721 194.904 172.574C194.904 157.427 182.625 145.148 167.478 145.148C152.331 145.148 140.052 157.427 140.052 172.574C140.052 187.721 152.331 200 167.478 200Z" fill="#367CFF"/>
    <path d="M150.64 165.021C150.452 165.021 150.299 164.868 150.299 164.68V158.371C150.299 156.579 151.757 155.121 153.549 155.121H159.86C160.049 155.121 160.201 155.274 160.201 155.462C160.201 155.65 160.048 155.802 159.86 155.802H153.549C152.133 155.802 150.981 156.955 150.981 158.371V164.68C150.981 164.868 150.828 165.021 150.64 165.021L150.64 165.021Z" fill="#292A2E"/>
    <path d="M159.86 190.933H153.549C151.757 190.933 150.299 189.475 150.299 187.683V181.374C150.299 181.186 150.452 181.033 150.64 181.033C150.828 181.033 150.981 181.186 150.981 181.374V187.683C150.981 189.099 152.133 190.251 153.549 190.251H159.86C160.048 190.251 160.201 190.404 160.201 190.592C160.201 190.78 160.048 190.932 159.86 190.932L159.86 190.933Z" fill="#292A2E"/>
    <path d="M185.772 165.021C185.584 165.021 185.432 164.868 185.432 164.68V158.371C185.432 156.955 184.28 155.802 182.863 155.802H176.552C176.364 155.802 176.211 155.65 176.211 155.462C176.211 155.274 176.364 155.121 176.552 155.121H182.863C184.655 155.121 186.113 156.579 186.113 158.371V164.68C186.113 164.868 185.96 165.021 185.773 165.021L185.772 165.021Z" fill="#292A2E"/>
    <path d="M182.863 190.933H176.552C176.364 190.933 176.211 190.78 176.211 190.592C176.211 190.404 176.364 190.252 176.552 190.252H182.863C184.28 190.252 185.432 189.099 185.432 187.683V181.374C185.432 181.186 185.584 181.034 185.772 181.034C185.96 181.034 186.113 181.186 186.113 181.374V187.683C186.113 189.475 184.655 190.933 182.863 190.933L182.863 190.933Z" fill="#292A2E"/>
    <path d="M164.927 184.737C164.807 184.737 164.69 184.673 164.628 184.559C164.537 184.394 164.598 184.187 164.763 184.097C168.5 182.048 166.912 177.777 166.842 177.596C166.775 177.42 166.862 177.223 167.038 177.155C167.213 177.088 167.41 177.175 167.478 177.35C167.497 177.4 169.355 182.357 165.091 184.694C165.039 184.723 164.983 184.737 164.927 184.737Z" fill="#0CBC8B"/>
    <path d="M166.702 186.502C166.579 186.502 166.459 186.434 166.399 186.317C166.313 186.149 166.379 185.944 166.546 185.858C166.735 185.76 171.112 183.409 169.686 177.241C169.515 176.502 169.039 175.569 168.217 175.17C167.612 174.876 166.899 174.918 166.098 175.294C165.033 175.795 165.121 177.052 165.223 178.509C165.346 180.271 165.485 182.269 163.299 182.998C161.957 183.445 161.133 183.037 160.678 182.616C159.132 181.185 159.375 177.508 160.053 174.794C160.778 171.893 163.613 169.123 167.64 169.447C173.345 169.904 175.709 173.208 175.545 180.495C175.541 180.683 175.388 180.84 175.196 180.828C175.008 180.824 174.859 180.668 174.863 180.479C175.02 173.552 172.911 170.552 167.585 170.126C163.942 169.835 161.369 172.337 160.714 174.96C159.894 178.244 160.065 181.12 161.141 182.116C161.613 182.553 162.249 182.63 163.084 182.352C164.769 181.79 164.664 180.291 164.543 178.556C164.434 176.993 164.321 175.377 165.808 174.678C166.804 174.21 167.715 174.169 168.515 174.557C169.553 175.061 170.143 176.195 170.35 177.088C171.9 183.787 166.909 186.438 166.858 186.464C166.808 186.49 166.755 186.502 166.703 186.502H166.702Z" fill="#0CBC8B"/>
    <path d="M171.879 183.987C171.846 183.987 171.813 183.982 171.78 183.972C171.6 183.917 171.498 183.727 171.553 183.547C172.858 179.262 172.53 175.616 170.675 173.792C169.541 172.676 167.933 172.379 166.146 172.956C161.652 174.408 162.723 180.594 162.734 180.656C162.768 180.841 162.645 181.019 162.46 181.052C162.277 181.086 162.098 180.964 162.064 180.779C162.051 180.711 160.873 173.943 165.937 172.308C167.977 171.649 169.829 172.004 171.153 173.306C173.192 175.311 173.585 179.214 172.205 183.745C172.16 183.892 172.025 183.987 171.879 183.987L171.879 183.987Z" fill="#0CBC8B"/>
    <path d="M175.493 171.585C175.383 171.585 175.275 171.532 175.209 171.433C173.611 169.025 171.861 168.713 169.438 168.28C168.591 168.129 167.632 167.958 166.584 167.679C163.169 166.771 160.637 164.066 160.531 163.951C160.403 163.813 160.411 163.598 160.549 163.47C160.687 163.342 160.903 163.35 161.031 163.488C161.055 163.515 163.539 166.164 166.76 167.021C167.78 167.292 168.724 167.461 169.557 167.609C172.05 168.054 174.018 168.405 175.777 171.056C175.881 171.213 175.838 171.424 175.681 171.529C175.623 171.567 175.558 171.585 175.493 171.585V171.585Z" fill="#0CBC8B"/>
    <path d="M159.495 171.187C159.344 171.187 159.206 171.086 159.166 170.933C159.118 170.751 159.227 170.565 159.408 170.517C160.281 170.288 162.518 169.445 162.396 168.314C162.246 166.925 159.786 166.554 159.761 166.551C159.575 166.524 159.446 166.351 159.473 166.165C159.499 165.979 159.672 165.849 159.858 165.876C159.981 165.893 162.867 166.326 163.073 168.241C163.279 170.151 159.96 171.077 159.581 171.176C159.552 171.184 159.524 171.187 159.495 171.187Z" fill="#0CBC8B"/>
    <path d="M160.805 169.095C160.794 169.095 160.783 169.094 160.773 169.093L159.583 168.982C159.396 168.964 159.258 168.798 159.276 168.61C159.293 168.423 159.464 168.287 159.647 168.303L160.836 168.415C161.024 168.432 161.161 168.598 161.143 168.786C161.127 168.962 160.978 169.095 160.805 169.095L160.805 169.095Z" fill="#0CBC8B"/>
    <path d="M176.189 168.464C176.09 168.464 175.992 168.421 175.925 168.339C174.624 166.748 171.909 166.286 169.727 165.914C169.516 165.878 169.309 165.843 169.108 165.807C166.662 165.376 165.124 164.323 165.059 164.279C164.905 164.172 164.866 163.959 164.973 163.805C165.08 163.65 165.292 163.612 165.447 163.719C165.462 163.729 166.936 164.733 169.226 165.136C169.426 165.171 169.631 165.206 169.841 165.242C172.135 165.633 174.99 166.119 176.452 167.908C176.571 168.053 176.55 168.268 176.404 168.387C176.341 168.439 176.264 168.464 176.189 168.464Z" fill="#0CBC8B"/>
    <path d="M174.901 164.963C174.829 164.963 174.757 164.941 174.695 164.894C173.893 164.284 172.977 164.181 171.818 164.052C171.071 163.968 170.225 163.873 169.255 163.628C169.072 163.581 168.962 163.396 169.008 163.214C169.054 163.031 169.24 162.921 169.422 162.967C170.347 163.201 171.169 163.293 171.893 163.374C173.108 163.51 174.156 163.627 175.108 164.352C175.257 164.465 175.287 164.679 175.172 164.829C175.105 164.917 175.004 164.963 174.901 164.963H174.901Z" fill="#0CBC8B"/>
    <path d="M164.225 163.548C164.173 163.548 164.121 163.536 164.072 163.511C164.011 163.48 162.562 162.74 162.132 161.569C162.067 161.392 162.158 161.197 162.334 161.132C162.511 161.067 162.707 161.157 162.772 161.334C163.108 162.251 164.366 162.897 164.379 162.903C164.547 162.988 164.614 163.193 164.529 163.361C164.469 163.48 164.35 163.548 164.225 163.548L164.225 163.548Z" fill="#0CBC8B"/>
    <path d="M168.133 163.126C168.11 163.126 168.088 163.124 168.065 163.12C166.342 162.773 164.242 160.755 164.153 160.669C164.018 160.538 164.015 160.322 164.146 160.187C164.277 160.052 164.493 160.049 164.627 160.179C164.648 160.199 166.672 162.145 168.199 162.452C168.384 162.489 168.503 162.668 168.466 162.853C168.433 163.015 168.291 163.126 168.133 163.126V163.126Z" fill="#0CBC8B"/>
    <path d="M172.741 162.148C169.202 162.148 167.486 160.383 167.413 160.306C167.283 160.169 167.289 159.953 167.426 159.824C167.562 159.695 167.777 159.7 167.907 159.836C167.932 159.863 169.62 161.568 173.051 161.461C173.242 161.456 173.397 161.604 173.402 161.792C173.408 161.98 173.26 162.137 173.072 162.143C172.96 162.146 172.849 162.148 172.741 162.148Z" fill="#0CBC8B"/>
    <path d="M137.842 124.684L82.1575 124.684C79.955 124.684 78.1667 122.896 78.1667 120.693V80.1557C78.1667 77.9543 79.9542 76.1669 82.1556 76.1669H137.844C140.046 76.1669 141.833 77.9543 141.833 80.1557V120.693C141.833 122.896 140.045 124.684 137.842 124.684H137.842Z" fill="white"/>
    <path d="M78 120.693V80.1556C78 77.8605 79.8605 76 82.1556 76H137.844C140.139 76 142 77.8605 142 80.1556V120.693C142 122.989 140.139 124.851 137.843 124.851H82.1577C79.8616 124.851 78.0003 122.989 78.0003 120.693H78ZM82.1556 76.3335C80.0449 76.3335 78.3335 78.0446 78.3335 80.1556V120.693C78.3335 122.805 80.0457 124.517 82.1575 124.517H137.842C139.954 124.517 141.666 122.805 141.666 120.693V80.1556C141.666 78.0449 139.955 76.3335 137.844 76.3335H82.1553H82.1556Z" fill="#292A2E"/>
    <path d="M78.1668 80.1549V83.5337H141.832V80.1549C141.832 77.9518 140.046 76.166 137.843 76.166H82.1554C79.9523 76.166 78.1665 77.9518 78.1665 80.1549H78.1668Z" fill="#292A2E"/>
    <path d="M99.91 88.9929H96.9059C96.8322 88.9929 96.7725 88.9331 96.7725 88.8595C96.7725 88.7858 96.8322 88.7261 96.9059 88.7261H99.91C99.9837 88.7261 100.043 88.7858 100.043 88.8595C100.043 88.9331 99.9837 88.9929 99.91 88.9929Z" fill="#292A2E"/>
    <path d="M94.7389 88.9929H93.6021C93.5285 88.9929 93.4688 88.9331 93.4688 88.8595C93.4688 88.7858 93.5285 88.7261 93.6021 88.7261H94.7389C94.8125 88.7261 94.8723 88.7858 94.8723 88.8595C94.8723 88.9331 94.8125 88.9929 94.7389 88.9929Z" fill="#367CFF"/>
    <path d="M94.7389 91.3991H93.6021C93.5285 91.3991 93.4688 91.3393 93.4688 91.2657C93.4688 91.1921 93.5285 91.1323 93.6021 91.1323H94.7389C94.8125 91.1323 94.8723 91.1921 94.8723 91.2657C94.8723 91.3393 94.8125 91.3991 94.7389 91.3991Z" fill="#367CFF"/>
    <path d="M94.7389 93.8054H93.6021C93.5285 93.8054 93.4688 93.7456 93.4688 93.672C93.4688 93.5983 93.5285 93.5386 93.6021 93.5386H94.7389C94.8125 93.5386 94.8723 93.5983 94.8723 93.672C94.8723 93.7456 94.8125 93.8054 94.7389 93.8054Z" fill="#367CFF"/>
    <path d="M94.7389 96.2121H93.6021C93.5285 96.2121 93.4688 96.1523 93.4688 96.0787C93.4688 96.0051 93.5285 95.9453 93.6021 95.9453H94.7389C94.8125 95.9453 94.8723 96.0051 94.8723 96.0787C94.8723 96.1523 94.8125 96.2121 94.7389 96.2121Z" fill="#367CFF"/>
    <path d="M94.7389 98.6183H93.6021C93.5285 98.6183 93.4688 98.5586 93.4688 98.485C93.4688 98.4113 93.5285 98.3516 93.6021 98.3516H94.7389C94.8125 98.3516 94.8723 98.4113 94.8723 98.485C94.8723 98.5586 94.8125 98.6183 94.7389 98.6183Z" fill="#367CFF"/>
    <path d="M94.7389 101.025H93.6021C93.5285 101.025 93.4688 100.965 93.4688 100.891C93.4688 100.818 93.5285 100.758 93.6021 100.758H94.7389C94.8125 100.758 94.8723 100.818 94.8723 100.891C94.8723 100.965 94.8125 101.025 94.7389 101.025Z" fill="#367CFF"/>
    <path d="M94.7389 103.431H93.6021C93.5285 103.431 93.4688 103.371 93.4688 103.297C93.4688 103.224 93.5285 103.164 93.6021 103.164H94.7389C94.8125 103.164 94.8723 103.224 94.8723 103.297C94.8723 103.371 94.8125 103.431 94.7389 103.431Z" fill="#367CFF"/>
    <path d="M94.7389 105.837H93.6021C93.5285 105.837 93.4688 105.777 93.4688 105.704C93.4688 105.63 93.5285 105.57 93.6021 105.57H94.7389C94.8125 105.57 94.8723 105.63 94.8723 105.704C94.8723 105.777 94.8125 105.837 94.7389 105.837Z" fill="#367CFF"/>
    <path d="M94.7389 108.244H93.6021C93.5285 108.244 93.4688 108.184 93.4688 108.11C93.4688 108.037 93.5285 107.977 93.6021 107.977H94.7389C94.8125 107.977 94.8723 108.037 94.8723 108.11C94.8723 108.184 94.8125 108.244 94.7389 108.244Z" fill="#367CFF"/>
    <path d="M94.7389 110.65H93.6021C93.5285 110.65 93.4688 110.59 93.4688 110.517C93.4688 110.443 93.5285 110.383 93.6021 110.383H94.7389C94.8125 110.383 94.8723 110.443 94.8723 110.517C94.8723 110.59 94.8125 110.65 94.7389 110.65Z" fill="#367CFF"/>
    <path d="M94.7389 113.056H93.6021C93.5285 113.056 93.4688 112.997 93.4688 112.923C93.4688 112.849 93.5285 112.79 93.6021 112.79H94.7389C94.8125 112.79 94.8723 112.849 94.8723 112.923C94.8723 112.997 94.8125 113.056 94.7389 113.056Z" fill="#367CFF"/>
    <path d="M94.7389 115.463H93.6021C93.5285 115.463 93.4688 115.403 93.4688 115.329C93.4688 115.256 93.5285 115.196 93.6021 115.196H94.7389C94.8125 115.196 94.8723 115.256 94.8723 115.329C94.8723 115.403 94.8125 115.463 94.7389 115.463Z" fill="#367CFF"/>
    <path d="M94.7389 117.869H93.6021C93.5285 117.869 93.4688 117.809 93.4688 117.735C93.4688 117.662 93.5285 117.602 93.6021 117.602H94.7389C94.8125 117.602 94.8723 117.662 94.8723 117.735C94.8723 117.809 94.8125 117.869 94.7389 117.869Z" fill="#367CFF"/>
    <path d="M94.7389 120.276H93.6021C93.5285 120.276 93.4688 120.216 93.4688 120.142C93.4688 120.069 93.5285 120.009 93.6021 120.009H94.7389C94.8125 120.009 94.8723 120.069 94.8723 120.142C94.8723 120.216 94.8125 120.276 94.7389 120.276Z" fill="#367CFF"/>
    <path d="M102.311 91.3991H99.5733C99.4997 91.3991 99.4399 91.3393 99.4399 91.2657C99.4399 91.1921 99.4997 91.1323 99.5733 91.1323H102.311C102.384 91.1323 102.444 91.1921 102.444 91.2657C102.444 91.3393 102.384 91.3991 102.311 91.3991Z" fill="#292A2E"/>
    <path d="M99.91 105.837H96.9059C96.8322 105.837 96.7725 105.777 96.7725 105.704C96.7725 105.63 96.8322 105.57 96.9059 105.57H99.91C99.9837 105.57 100.043 105.63 100.043 105.704C100.043 105.777 99.9837 105.837 99.91 105.837Z" fill="#292A2E"/>
    <path d="M102.311 108.243H99.5733C99.4997 108.243 99.4399 108.184 99.4399 108.11C99.4399 108.036 99.4997 107.977 99.5733 107.977H102.311C102.384 107.977 102.444 108.036 102.444 108.11C102.444 108.184 102.384 108.243 102.311 108.243Z" fill="#292A2E"/>
    <path d="M117.784 93.8054H101.441C101.367 93.8054 101.308 93.7456 101.308 93.672C101.308 93.5983 101.367 93.5386 101.441 93.5386H117.784C117.858 93.5386 117.918 93.5983 117.918 93.672C117.918 93.7456 117.858 93.8054 117.784 93.8054Z" fill="#292A2E"/>
    <path d="M132.214 93.8054H120.672C120.599 93.8054 120.539 93.7456 120.539 93.672C120.539 93.5983 120.599 93.5386 120.672 93.5386H132.214C132.287 93.5386 132.347 93.5983 132.347 93.672C132.347 93.7456 132.287 93.8054 132.214 93.8054Z" fill="#0CBC8B"/>
    <path d="M138.407 93.8054H134.869C134.796 93.8054 134.736 93.7456 134.736 93.672C134.736 93.5983 134.796 93.5386 134.869 93.5386H138.407C138.481 93.5386 138.54 93.5983 138.54 93.672C138.54 93.7456 138.481 93.8054 138.407 93.8054Z" fill="#292A2E"/>
    <path d="M125.788 98.6183H101.441C101.367 98.6183 101.308 98.5586 101.308 98.485C101.308 98.4113 101.367 98.3516 101.441 98.3516H125.788C125.861 98.3516 125.921 98.4113 125.921 98.485C125.921 98.5586 125.861 98.6183 125.788 98.6183Z" fill="#292A2E"/>
    <path d="M132.214 98.6183H128.676C128.602 98.6183 128.542 98.5586 128.542 98.485C128.542 98.4113 128.602 98.3516 128.676 98.3516H132.214C132.287 98.3516 132.347 98.4113 132.347 98.485C132.347 98.5586 132.287 98.6183 132.214 98.6183Z" fill="#367CFF"/>
    <path d="M104.445 96.2116H101.441C101.367 96.2116 101.308 96.1518 101.308 96.0782C101.308 96.0046 101.367 95.9448 101.441 95.9448H104.445C104.519 95.9448 104.579 96.0046 104.579 96.0782C104.579 96.1518 104.519 96.2116 104.445 96.2116Z" fill="#0CBC8B"/>
    <path d="M124.21 96.2116H107.333C107.259 96.2116 107.2 96.1518 107.2 96.0782C107.2 96.0046 107.259 95.9448 107.333 95.9448H124.21C124.283 95.9448 124.343 96.0046 124.343 96.0782C124.343 96.1518 124.283 96.2116 124.21 96.2116Z" fill="#367CFF"/>
    <path d="M138.43 96.2116H127.422C127.349 96.2116 127.289 96.1518 127.289 96.0782C127.289 96.0046 127.349 95.9448 127.422 95.9448H138.43C138.504 95.9448 138.563 96.0046 138.563 96.0782C138.563 96.1518 138.504 96.2116 138.43 96.2116Z" fill="#292A2E"/>
    <path d="M117.784 101.024H101.441C101.367 101.024 101.308 100.964 101.308 100.891C101.308 100.817 101.367 100.757 101.441 100.757H117.784C117.858 100.757 117.918 100.817 117.918 100.891C117.918 100.964 117.858 101.024 117.784 101.024Z" fill="#292A2E"/>
    <path d="M126.878 101.024H120.672C120.599 101.024 120.539 100.964 120.539 100.891C120.539 100.817 120.599 100.757 120.672 100.757H126.878C126.952 100.757 127.011 100.817 127.011 100.891C127.011 100.964 126.952 101.024 126.878 101.024Z" fill="#0CBC8B"/>
    <path d="M138.407 101.024H129.534C129.46 101.024 129.4 100.964 129.4 100.891C129.4 100.817 129.46 100.757 129.534 100.757H138.407C138.481 100.757 138.541 100.817 138.541 100.891C138.541 100.964 138.481 101.024 138.407 101.024Z" fill="#292A2E"/>
    <path d="M104.445 103.431H101.441C101.367 103.431 101.308 103.371 101.308 103.297C101.308 103.224 101.367 103.164 101.441 103.164H104.445C104.519 103.164 104.579 103.224 104.579 103.297C104.579 103.371 104.519 103.431 104.445 103.431Z" fill="#367CFF"/>
    <path d="M124.21 103.431H107.333C107.259 103.431 107.2 103.371 107.2 103.297C107.2 103.224 107.259 103.164 107.333 103.164H124.21C124.283 103.164 124.343 103.224 124.343 103.297C124.343 103.371 124.283 103.431 124.21 103.431Z" fill="#0CBC8B"/>
    <path d="M117.25 113.056H100.907C100.834 113.056 100.774 112.997 100.774 112.923C100.774 112.849 100.834 112.79 100.907 112.79H117.25C117.324 112.79 117.384 112.849 117.384 112.923C117.384 112.997 117.324 113.056 117.25 113.056Z" fill="#292A2E"/>
    <path d="M131.68 113.056H120.139C120.065 113.056 120.005 112.997 120.005 112.923C120.005 112.849 120.065 112.79 120.139 112.79H131.68C131.754 112.79 131.813 112.849 131.813 112.923C131.813 112.997 131.754 113.056 131.68 113.056Z" fill="#367CFF"/>
    <path d="M109.247 110.65H100.907C100.834 110.65 100.774 110.59 100.774 110.516C100.774 110.443 100.834 110.383 100.907 110.383H109.247C109.321 110.383 109.38 110.443 109.38 110.516C109.38 110.59 109.321 110.65 109.247 110.65Z" fill="#0CBC8B"/>
    <path d="M123.676 110.65H112.135C112.062 110.65 112.002 110.59 112.002 110.516C112.002 110.443 112.062 110.383 112.135 110.383H123.676C123.75 110.383 123.81 110.443 123.81 110.516C123.81 110.59 123.75 110.65 123.676 110.65Z" fill="#367CFF"/>
    <path d="M137.896 110.65H126.889C126.815 110.65 126.755 110.59 126.755 110.516C126.755 110.443 126.815 110.383 126.889 110.383H137.896C137.97 110.383 138.03 110.443 138.03 110.516C138.03 110.59 137.97 110.65 137.896 110.65Z" fill="#292A2E"/>
    <path d="M125.254 117.869H100.907C100.834 117.869 100.774 117.809 100.774 117.735C100.774 117.662 100.834 117.602 100.907 117.602H125.254C125.327 117.602 125.387 117.662 125.387 117.735C125.387 117.809 125.327 117.869 125.254 117.869Z" fill="#367CFF"/>
    <path d="M131.68 117.869H128.142C128.069 117.869 128.009 117.809 128.009 117.735C128.009 117.662 128.069 117.602 128.142 117.602H131.68C131.754 117.602 131.813 117.662 131.813 117.735C131.813 117.809 131.754 117.869 131.68 117.869Z" fill="#292A2E"/>
    <path d="M103.912 115.463H100.907C100.834 115.463 100.774 115.403 100.774 115.329C100.774 115.256 100.834 115.196 100.907 115.196H103.912C103.985 115.196 104.045 115.256 104.045 115.329C104.045 115.403 103.985 115.463 103.912 115.463Z" fill="#367CFF"/>
    <path d="M123.677 115.463H106.8C106.726 115.463 106.667 115.403 106.667 115.329C106.667 115.256 106.726 115.196 106.8 115.196H123.677C123.75 115.196 123.81 115.256 123.81 115.329C123.81 115.403 123.75 115.463 123.677 115.463Z" fill="#292A2E"/>
    <path d="M137.896 115.463H126.889C126.815 115.463 126.755 115.403 126.755 115.329C126.755 115.256 126.815 115.196 126.889 115.196H137.896C137.97 115.196 138.03 115.256 138.03 115.329C138.03 115.403 137.97 115.463 137.896 115.463Z" fill="#0CBC8B"/>
    <path d="M117.25 120.276H100.907C100.834 120.276 100.774 120.216 100.774 120.142C100.774 120.069 100.834 120.009 100.907 120.009H117.25C117.324 120.009 117.384 120.069 117.384 120.142C117.384 120.216 117.324 120.276 117.25 120.276Z" fill="#0CBC8B"/>
    <path d="M126.344 120.276H120.139C120.065 120.276 120.005 120.216 120.005 120.142C120.005 120.069 120.065 120.009 120.139 120.009H126.344C126.418 120.009 126.478 120.069 126.478 120.142C126.478 120.216 126.418 120.276 126.344 120.276Z" fill="#292A2E"/>
    <path d="M137.873 120.276H129C128.926 120.276 128.867 120.216 128.867 120.142C128.867 120.069 128.926 120.009 129 120.009H137.873C137.947 120.009 138.007 120.069 138.007 120.142C138.007 120.216 137.947 120.276 137.873 120.276Z" fill="#367CFF"/>
    <path d="M92.3355 122.85C92.2619 122.85 92.2021 122.791 92.2021 122.717V84.7921C92.2021 84.7184 92.2619 84.6587 92.3355 84.6587C92.4092 84.6587 92.4689 84.7184 92.4689 84.7921V122.717C92.4689 122.79 92.4092 122.85 92.3355 122.85Z" fill="#292A2E"/>
    <path d="M137.009 82.2568C138.191 82.2568 139.149 81.2986 139.149 80.1167C139.149 78.9347 138.191 77.9766 137.009 77.9766C135.827 77.9766 134.869 78.9347 134.869 80.1167C134.869 81.2986 135.827 82.2568 137.009 82.2568Z" fill="white"/>
    <path d="M86.2339 86.4582H80.4576C80.384 86.4582 80.3242 86.3984 80.3242 86.3248C80.3242 86.2512 80.384 86.1914 80.4576 86.1914H86.2339C86.3075 86.1914 86.3673 86.2512 86.3673 86.3248C86.3673 86.3984 86.3075 86.4582 86.2339 86.4582Z" fill="#292A2E"/>
    <path d="M84.494 89.089H80.4576C80.384 89.089 80.3242 89.0293 80.3242 88.9557C80.3242 88.882 80.384 88.8223 80.4576 88.8223H84.494C84.5676 88.8223 84.6274 88.882 84.6274 88.9557C84.6274 89.0293 84.5676 89.089 84.494 89.089Z" fill="#292A2E"/>
    <path d="M88.0435 91.7204H80.4576C80.384 91.7204 80.3242 91.6606 80.3242 91.587C80.3242 91.5134 80.384 91.4536 80.4576 91.4536H88.0435C88.1171 91.4536 88.1769 91.5134 88.1769 91.587C88.1769 91.6606 88.1171 91.7204 88.0435 91.7204Z" fill="#292A2E"/>
    <path d="M89.4586 94.3513H83.1256C83.0519 94.3513 82.9922 94.2915 82.9922 94.2179C82.9922 94.1442 83.0519 94.0845 83.1256 94.0845H89.4586C89.5323 94.0845 89.592 94.1442 89.592 94.2179C89.592 94.2915 89.5323 94.3513 89.4586 94.3513Z" fill="#292A2E"/>
    <path d="M86.3965 96.9826H83.1256C83.0519 96.9826 82.9922 96.9228 82.9922 96.8492C82.9922 96.7756 83.0519 96.7158 83.1256 96.7158H86.3965C86.4702 96.7158 86.5299 96.7756 86.5299 96.8492C86.5299 96.9228 86.4702 96.9826 86.3965 96.9826Z" fill="#292A2E"/>
    <path d="M88.9019 99.6135H83.1256C83.0519 99.6135 82.9922 99.5537 82.9922 99.4801C82.9922 99.4064 83.0519 99.3467 83.1256 99.3467H88.9019C88.9755 99.3467 89.0353 99.4064 89.0353 99.4801C89.0353 99.5537 88.9755 99.6135 88.9019 99.6135Z" fill="#292A2E"/>
    <path d="M84.9115 102.244H80.4576C80.384 102.244 80.3242 102.185 80.3242 102.111C80.3242 102.037 80.384 101.978 80.4576 101.978H84.9115C84.9851 101.978 85.0449 102.037 85.0449 102.111C85.0449 102.185 84.9851 102.244 84.9115 102.244Z" fill="#292A2E"/>
    <path d="M83.3804 104.876H80.4576C80.384 104.876 80.3242 104.816 80.3242 104.742C80.3242 104.669 80.384 104.609 80.4576 104.609H83.3804C83.4541 104.609 83.5138 104.669 83.5138 104.742C83.5138 104.816 83.4541 104.876 83.3804 104.876Z" fill="#292A2E"/>
    <path d="M94.5577 85.8939V85.9419L96.2251 86.5608C96.2731 86.5795 96.3051 86.6275 96.3051 86.6809V86.7262C96.3051 86.7662 96.2865 86.8062 96.2518 86.8276C96.2171 86.8516 96.1744 86.8569 96.1344 86.8409L94.2509 86.1046C94.2029 86.0859 94.1709 86.0379 94.1709 85.9872V85.8512C94.1709 85.7978 94.2029 85.7525 94.2509 85.7338L96.1344 84.9948C96.1504 84.9895 96.1664 84.9868 96.1824 84.9868C96.2064 84.9868 96.2304 84.9948 96.2518 85.0082C96.2865 85.0322 96.3051 85.0695 96.3051 85.1122V85.1576C96.3051 85.2109 96.2731 85.2589 96.2251 85.2749L94.5577 85.8939Z" fill="#367CFF"/>
    <path d="M97.8631 84.4503L96.8653 87.505C96.8493 87.5556 96.8013 87.593 96.7453 87.593C96.7053 87.593 96.6679 87.5743 96.6466 87.5423C96.6226 87.5103 96.6146 87.4703 96.6252 87.4303L97.623 84.3783C97.6417 84.3249 97.6897 84.2876 97.7457 84.2876C97.7857 84.2876 97.8204 84.3063 97.8444 84.3383C97.8684 84.373 97.8764 84.413 97.8631 84.4503Z" fill="#367CFF"/>
    <path d="M100.313 85.8512V85.9872C100.313 86.0379 100.284 86.0859 100.236 86.1046L98.3495 86.8409C98.3121 86.8569 98.2694 86.8516 98.2347 86.8276C98.2001 86.8062 98.1787 86.7662 98.1787 86.7262V86.6809C98.1787 86.6275 98.2107 86.5795 98.2614 86.5608L99.9288 85.9419V85.8939L98.2614 85.2749C98.2107 85.2589 98.1787 85.2109 98.1787 85.1576V85.1122C98.1787 85.0695 98.2001 85.0322 98.2347 85.0082C98.2561 84.9948 98.2801 84.9868 98.3041 84.9868C98.3201 84.9868 98.3361 84.9895 98.3495 84.9948L100.236 85.7338C100.284 85.7525 100.313 85.7978 100.313 85.8512Z" fill="#367CFF"/>
    <path d="M56.8059 50.0278C70.6207 50.0278 81.8198 38.8287 81.8198 25.0139C81.8198 11.1991 70.6207 0 56.8059 0C42.9911 0 31.792 11.1991 31.792 25.0139C31.792 38.8287 42.9911 50.0278 56.8059 50.0278Z" fill="white"/>
    <path opacity="0.1" d="M56.8059 50.0278C70.6207 50.0278 81.8198 38.8287 81.8198 25.0139C81.8198 11.1991 70.6207 0 56.8059 0C42.9911 0 31.792 11.1991 31.792 25.0139C31.792 38.8287 42.9911 50.0278 56.8059 50.0278Z" fill="#367CFF"/>
    <path opacity="0.8" d="M41.7099 37.4238H42.6762C42.8216 37.4238 42.9395 37.3059 42.9395 37.1605V30.2393C42.9395 30.0939 42.8216 29.976 42.6762 29.976H41.7099C41.5645 29.976 41.4466 30.0939 41.4466 30.2393V37.1605C41.4466 37.3059 41.5645 37.4238 41.7099 37.4238Z" fill="#367CFF"/>
    <path opacity="0.8" d="M61.3896 37.4238H62.3558C62.5013 37.4238 62.6191 37.3059 62.6191 37.1605V19.8135C62.6191 19.6681 62.5013 19.5502 62.3558 19.5502H61.3896C61.2442 19.5502 61.1263 19.6681 61.1263 19.8135V37.1605C61.1263 37.3059 61.2442 37.4238 61.3896 37.4238Z" fill="#367CFF"/>
    <path opacity="0.8" d="M67.9497 37.4238H68.9159C69.0613 37.4238 69.1792 37.3059 69.1792 37.1605V19.8135C69.1792 19.6681 69.0613 19.5502 68.9159 19.5502H67.9497C67.8042 19.5502 67.6864 19.6681 67.6864 19.8135V37.1605C67.6864 37.3059 67.8042 37.4238 67.9497 37.4238Z" fill="#367CFF"/>
    <path opacity="0.8" d="M48.27 37.4238H49.2362C49.3816 37.4238 49.4995 37.3059 49.4995 37.1605V24.3618C49.4995 24.2164 49.3816 24.0985 49.2362 24.0985H48.27C48.1246 24.0985 48.0067 24.2164 48.0067 24.3618V37.1605C48.0067 37.3059 48.1246 37.4238 48.27 37.4238Z" fill="#367CFF"/>
    <path opacity="0.8" d="M54.8296 37.4238H55.7958C55.9412 37.4238 56.0591 37.3059 56.0591 37.1605V26.825C56.0591 26.6796 55.9412 26.5617 55.7958 26.5617H54.8296C54.6841 26.5617 54.5662 26.6796 54.5662 26.825V37.1605C54.5662 37.3059 54.6841 37.4238 54.8296 37.4238Z" fill="#367CFF"/>
    <path opacity="0.5" d="M43.2031 37.4238H44.1693C44.3147 37.4238 44.4326 37.3059 44.4326 37.1605V16.7406C44.4326 16.5952 44.3147 16.4773 44.1693 16.4773H43.2031C43.0577 16.4773 42.9398 16.5952 42.9398 16.7406V37.1605C42.9398 37.3059 43.0577 37.4238 43.2031 37.4238Z" fill="#367CFF"/>
    <path opacity="0.5" d="M69.4423 37.4238H70.4086C70.554 37.4238 70.6719 37.3059 70.6719 37.1605V16.7406C70.6719 16.5952 70.554 16.4773 70.4086 16.4773H69.4423C69.2969 16.4773 69.179 16.5952 69.179 16.7406V37.1605C69.179 37.3059 69.2969 37.4238 69.4423 37.4238Z" fill="#367CFF"/>
    <path opacity="0.5" d="M62.8823 37.4238H63.8485C63.9939 37.4238 64.1118 37.3059 64.1118 37.1605V24.3618C64.1118 24.2164 63.9939 24.0985 63.8485 24.0985H62.8823C62.7369 24.0985 62.619 24.2164 62.619 24.3618V37.1605C62.619 37.3059 62.7369 37.4238 62.8823 37.4238Z" fill="#367CFF"/>
    <path opacity="0.5" d="M56.3227 37.4238H57.2889C57.4344 37.4238 57.5522 37.3059 57.5522 37.1605V30.6905C57.5522 30.5451 57.4344 30.4272 57.2889 30.4272H56.3227C56.1773 30.4272 56.0594 30.5451 56.0594 30.6905V37.1605C56.0594 37.3059 56.1773 37.4238 56.3227 37.4238Z" fill="#367CFF"/>
    <path opacity="0.5" d="M49.7627 37.4238H50.7289C50.8743 37.4238 50.9922 37.3059 50.9922 37.1605V22.8011C50.9922 22.6557 50.8743 22.5378 50.7289 22.5378H49.7627C49.6172 22.5378 49.4994 22.6557 49.4994 22.8011V37.1605C49.4994 37.3059 49.6172 37.4238 49.7627 37.4238Z" fill="#367CFF"/>
    <path opacity="0.2" d="M70.935 37.4238H71.9012C72.0467 37.4238 72.1646 37.3059 72.1646 37.1605V22.7035C72.1646 22.5581 72.0467 22.4402 71.9012 22.4402H70.935C70.7896 22.4402 70.6717 22.5581 70.6717 22.7035V37.1605C70.6717 37.3059 70.7896 37.4238 70.935 37.4238Z" fill="#367CFF"/>
    <path opacity="0.2" d="M64.3755 37.4238H65.3417C65.4871 37.4238 65.605 37.3059 65.605 37.1605V28.2883C65.605 28.1429 65.4871 28.025 65.3417 28.025H64.3755C64.23 28.025 64.1121 28.1429 64.1121 28.2883V37.1605C64.1121 37.3059 64.23 37.4238 64.3755 37.4238Z" fill="#367CFF"/>
    <path opacity="0.2" d="M57.8154 37.4238H58.7816C58.927 37.4238 59.0449 37.3059 59.0449 37.1605V24.2644C59.0449 24.119 58.927 24.0011 58.7816 24.0011H57.8154C57.67 24.0011 57.5521 24.119 57.5521 24.2644V37.1605C57.5521 37.3059 57.67 37.4238 57.8154 37.4238Z" fill="#367CFF"/>
    <path opacity="0.2" d="M51.2558 37.4238H52.222C52.3675 37.4238 52.4854 37.3059 52.4854 37.1605V24.2644C52.4854 24.119 52.3675 24.0011 52.222 24.0011H51.2558C51.1104 24.0011 50.9925 24.119 50.9925 24.2644V37.1605C50.9925 37.3059 51.1104 37.4238 51.2558 37.4238Z" fill="#367CFF"/>
    <path opacity="0.2" d="M44.6958 37.4238H45.662C45.8074 37.4238 45.9253 37.3059 45.9253 37.1605V17.6551C45.9253 17.5097 45.8074 17.3918 45.662 17.3918H44.6958C44.5503 17.3918 44.4325 17.5097 44.4325 17.6551V37.1605C44.4325 37.3059 44.5503 37.4238 44.6958 37.4238Z" fill="#367CFF"/>
    <path d="M75.1148 37.431H38.8799C38.7713 37.431 38.6831 37.3429 38.6831 37.2343V13.825C38.6831 13.7163 38.7713 13.6282 38.8799 13.6282C38.9885 13.6282 39.0767 13.7163 39.0767 13.825V37.0375H75.1148C75.2235 37.0375 75.3116 37.1256 75.3116 37.2343C75.3116 37.3429 75.2235 37.431 75.1148 37.431Z" fill="#292A2E"/>
    </g>
    <defs>
    <clipPath id="clip0_524_54071">
    <rect width="217.686" height="200" fill="white"/>
    </clipPath>
    </defs>
    </svg>
