<svg width="25" height="24" viewBox="0 0 25 24" fill="none" xmlns="http://www.w3.org/2000/svg">
<g clip-path="url(#clip0_234_11447)">
<path d="M23.7533 8.034C23.2312 6.8205 22.1723 5.51029 21.343 5.09613C21.9344 6.20273 22.3449 7.39116 22.5598 8.61915L22.5619 8.63862C21.2035 5.36683 18.8999 4.04765 17.0185 1.17507C16.9213 1.02864 16.8269 0.88048 16.7354 0.730664C16.6883 0.652416 16.6441 0.572513 16.6031 0.491116C16.525 0.345139 16.4648 0.190857 16.4238 0.0314033C16.4239 0.0240423 16.4211 0.0169189 16.4161 0.0113905C16.4111 0.00586211 16.4041 0.00231526 16.3965 0.0014259C16.3891 -0.000475299 16.3813 -0.000475299 16.3739 0.0014259C16.3724 0.0014259 16.3699 0.00414288 16.368 0.00477684C16.3662 0.00532024 16.3621 0.00803722 16.3594 0.00921458L16.364 0.0014259C13.3462 1.70851 12.3222 4.86854 12.2279 6.44918C11.0228 6.5292 9.87051 6.95821 8.92148 7.68025C8.82245 7.59924 8.71895 7.52348 8.61144 7.45329C8.33771 6.5276 8.32605 5.54792 8.57769 4.6164C7.46941 5.13505 6.48464 5.87028 5.6857 6.77558H5.68007C5.20391 6.19252 5.23738 4.26989 5.26466 3.86823C5.12381 3.92296 4.98934 3.99193 4.86351 4.074C4.44318 4.36385 4.05021 4.68904 3.68919 5.04577C3.27787 5.4487 2.90218 5.88418 2.56607 6.34766V6.34938V6.3473C1.79365 7.40524 1.24577 8.60049 0.954039 9.86407L0.938008 9.94069C0.893666 10.1815 0.854283 10.4232 0.819883 10.6655C0.819883 10.6742 0.818008 10.6822 0.81707 10.6909C0.711892 11.219 0.646719 11.7538 0.62207 12.291V12.3509C0.630133 21.2863 10.6481 26.8623 18.6543 22.3879C20.178 21.5363 21.4894 20.3718 22.4958 18.9765C23.5021 17.5813 24.1789 15.9895 24.4781 14.3137C24.4982 14.164 24.5146 14.0157 24.5326 13.8645C24.7801 11.8886 24.5122 9.88433 23.7533 8.034ZM9.90538 17.1194C9.96154 17.1455 10.0142 17.1737 10.0719 17.1985L10.0802 17.2036C10.0215 17.1764 9.96322 17.1483 9.90538 17.1194ZM22.5629 8.64134V8.6302L22.565 8.64251L22.5629 8.64134Z" fill="url(#paint0_linear_234_11447)"/>
<path d="M23.7533 8.03357C23.2312 6.82008 22.1723 5.50986 21.343 5.0957C21.9344 6.20231 22.3449 7.39074 22.5598 8.61872V8.62977L22.5619 8.64209C23.488 11.2021 23.354 14.0089 22.188 16.4758C20.811 19.3301 17.4778 22.2556 12.2605 22.1133C6.6231 21.9591 1.65838 17.918 0.730258 12.6251C0.56132 11.7904 0.730258 11.3673 0.815195 10.689C0.699307 11.2158 0.63465 11.752 0.62207 12.2905V12.3505C0.630133 21.2858 10.6481 26.8619 18.6543 22.3875C20.178 21.5359 21.4894 20.3713 22.4958 18.9761C23.5021 17.5808 24.1789 15.989 24.4781 14.3132C24.4982 14.1635 24.5146 14.0153 24.5326 13.864C24.7801 11.8882 24.5122 9.8839 23.7533 8.03357Z" fill="url(#paint1_radial_234_11447)"/>
<path d="M23.7533 8.03357C23.2312 6.82008 22.1723 5.50986 21.343 5.0957C21.9344 6.20231 22.3449 7.39074 22.5598 8.61872V8.62977L22.5619 8.64209C23.488 11.2021 23.354 14.0089 22.188 16.4758C20.811 19.3301 17.4778 22.2556 12.2605 22.1133C6.6231 21.9591 1.65838 17.918 0.730258 12.6251C0.56132 11.7904 0.730258 11.3673 0.815195 10.689C0.699307 11.2158 0.63465 11.752 0.62207 12.2905V12.3505C0.630133 21.2858 10.6481 26.8619 18.6543 22.3875C20.178 21.5359 21.4894 20.3713 22.4958 18.9761C23.5021 17.5808 24.1789 15.989 24.4781 14.3132C24.4982 14.1635 24.5146 14.0153 24.5326 13.864C24.7801 11.8882 24.5122 9.8839 23.7533 8.03357Z" fill="url(#paint2_radial_234_11447)"/>
<path d="M17.9142 9.3989C17.9403 9.41657 17.9645 9.43423 17.9889 9.45189C17.6871 8.9349 17.3115 8.46157 16.8729 8.04585C13.1387 4.43779 15.8943 0.222663 16.359 0.00856445L16.3636 0.00195312C13.3458 1.70903 12.3218 4.86906 12.2275 6.44971C12.3677 6.44038 12.5065 6.42897 12.6498 6.42897C13.7206 6.43089 14.7718 6.7067 15.6965 7.22835C16.6211 7.75001 17.3863 8.49891 17.9142 9.3989Z" fill="url(#paint3_radial_234_11447)"/>
<path d="M12.6578 10.1202C12.6379 10.4089 11.582 11.4046 11.2129 11.4046C7.79632 11.4046 7.2417 13.4012 7.2417 13.4012C7.39301 15.0825 8.60576 16.4672 10.0717 17.1997C10.1387 17.2333 10.2066 17.2636 10.2745 17.2932C10.3907 17.343 10.5083 17.3895 10.6273 17.4327C11.1304 17.6048 11.6573 17.703 12.1906 17.7241C18.1789 17.9954 19.339 10.8063 15.0175 8.7201C16.037 8.59194 17.0694 8.8341 17.9145 9.39962C17.3866 8.49962 16.6214 7.75072 15.6967 7.22907C14.772 6.70741 13.7208 6.4316 12.65 6.42969C12.5074 6.42969 12.3679 6.4411 12.2278 6.45043C11.0226 6.53044 9.87036 6.95945 8.92132 7.68149C9.10451 7.83129 9.31132 8.03135 9.74689 8.44605C10.5621 9.22202 12.6531 10.0258 12.6578 10.1202Z" fill="url(#paint4_radial_234_11447)"/>
<path d="M12.6578 10.1202C12.6379 10.4089 11.582 11.4046 11.2129 11.4046C7.79632 11.4046 7.2417 13.4012 7.2417 13.4012C7.39301 15.0825 8.60576 16.4672 10.0717 17.1997C10.1387 17.2333 10.2066 17.2636 10.2745 17.2932C10.3907 17.343 10.5083 17.3895 10.6273 17.4327C11.1304 17.6048 11.6573 17.703 12.1906 17.7241C18.1789 17.9954 19.339 10.8063 15.0175 8.7201C16.037 8.59194 17.0694 8.8341 17.9145 9.39962C17.3866 8.49962 16.6214 7.75072 15.6967 7.22907C14.772 6.70741 13.7208 6.4316 12.65 6.42969C12.5074 6.42969 12.3679 6.4411 12.2278 6.45043C11.0226 6.53044 9.87036 6.95945 8.92132 7.68149C9.10451 7.83129 9.31132 8.03135 9.74689 8.44605C10.5621 9.22202 12.6531 10.0258 12.6578 10.1202Z" fill="url(#paint5_radial_234_11447)"/>
<path d="M8.36098 7.29504C8.4447 7.3465 8.52737 7.39952 8.60895 7.45408C8.33517 6.5284 8.32351 5.5487 8.5752 4.61719C7.46691 5.13585 6.48211 5.87109 5.68311 6.77637C5.7417 6.77483 7.48461 6.74458 8.36098 7.29504Z" fill="url(#paint6_radial_234_11447)"/>
<path d="M0.731654 12.6253C1.65884 17.9182 6.6245 21.9593 12.2619 22.1135C17.4792 22.2561 20.8123 19.3303 22.1894 16.476C23.3554 14.0091 23.4894 11.2024 22.5633 8.64229V8.63124C22.5633 8.62255 22.5614 8.61739 22.5633 8.6201L22.5655 8.63958C22.9917 11.3279 21.5762 13.9325 19.3634 15.6937L19.3566 15.7087C15.0451 19.1009 10.9189 17.7553 10.0838 17.206C10.025 17.1789 9.96674 17.1509 9.90893 17.1219C7.39512 15.9611 6.35665 13.7486 6.57922 11.8511C5.98249 11.8596 5.39602 11.7008 4.89086 11.3938C4.38569 11.0869 3.98352 10.645 3.73306 10.1217C4.39293 9.73116 5.14534 9.51038 5.91858 9.4804C6.69182 9.45042 7.46013 9.61224 8.15028 9.95043C9.57315 10.5744 11.1923 10.6359 12.6614 10.1217C12.6568 10.0273 10.5658 9.22327 9.7505 8.44767C9.31493 8.03287 9.10822 7.83309 8.92503 7.68311C8.82603 7.60205 8.72253 7.52625 8.615 7.45606C8.54365 7.40906 8.4634 7.35816 8.36703 7.29703C7.49065 6.74657 5.74775 6.77681 5.69009 6.77835H5.68456C5.2084 6.19529 5.24187 4.27266 5.26915 3.87109C5.12827 3.92573 4.9938 3.99468 4.868 4.07677C4.44765 4.3666 4.05468 4.69179 3.69369 5.04854C3.28091 5.45037 2.90365 5.88485 2.56587 6.34744V6.34916V6.34708C1.79346 7.40503 1.24557 8.60028 0.953842 9.86385C0.948029 9.88749 0.521092 11.6903 0.731654 12.6253Z" fill="url(#paint7_radial_234_11447)"/>
<path d="M16.874 8.04532C17.3126 8.46155 17.6882 8.9354 17.99 9.4529C18.0523 9.49768 18.1124 9.54525 18.1701 9.59545C20.8941 12.0212 19.4668 15.4502 19.3605 15.6943C21.5733 13.933 22.9875 11.3285 22.5625 8.64007C21.2034 5.36683 18.8998 4.04765 17.0184 1.17507C16.9213 1.02864 16.8269 0.88048 16.7354 0.730664C16.6882 0.652416 16.6441 0.572513 16.603 0.491116C16.525 0.345139 16.4648 0.190857 16.4238 0.0314033C16.4238 0.0240423 16.4211 0.0169189 16.4161 0.0113905C16.411 0.00586211 16.4041 0.00231526 16.3965 0.0014259C16.3891 -0.000475299 16.3813 -0.000475299 16.3739 0.0014259C16.3724 0.0014259 16.3699 0.00414288 16.368 0.00477684C16.3661 0.00532024 16.3621 0.00803722 16.3594 0.00921458C15.8947 0.222135 13.1391 4.43726 16.874 8.04532Z" fill="url(#paint8_radial_234_11447)"/>
<path d="M18.1679 9.5941C18.1102 9.54392 18.0501 9.49636 17.9878 9.45155C17.9633 9.43389 17.9391 9.41623 17.9131 9.39857C17.0679 8.83307 16.0356 8.59091 15.0161 8.71905C19.3375 10.8064 18.1781 17.9944 12.1892 17.723C11.6559 17.7019 11.129 17.6037 10.6259 17.4317C10.5069 17.3886 10.3892 17.3421 10.2731 17.2921C10.2051 17.2621 10.1372 17.2323 10.0703 17.1987L10.0787 17.2038C10.9138 17.7546 15.0387 19.1001 19.3515 15.7064L19.3583 15.6915C19.4658 15.4488 20.8931 12.019 18.1679 9.5941Z" fill="url(#paint9_radial_234_11447)"/>
<path d="M7.24184 13.4005C7.24184 13.4005 7.79646 11.4038 11.213 11.4038C11.5822 11.4038 12.639 10.4082 12.658 10.1194C11.1888 10.6336 9.56966 10.5721 8.1468 9.94808C7.45662 9.60993 6.6883 9.44814 5.91505 9.47814C5.1418 9.50813 4.38939 9.72891 3.72949 10.1194C3.97995 10.6427 4.38213 11.0846 4.88729 11.3916C5.39245 11.6985 5.97893 11.8574 6.57565 11.8489C6.35309 13.7467 7.39155 15.9592 9.90537 17.1196C9.96152 17.1457 10.0142 17.1739 10.0719 17.1987C8.60468 16.4665 7.39315 15.0817 7.24184 13.4005Z" fill="url(#paint10_radial_234_11447)"/>
<path d="M23.7533 8.034C23.2312 6.8205 22.1723 5.51029 21.343 5.09613C21.9344 6.20273 22.3449 7.39116 22.5598 8.61915L22.5619 8.63862C21.2035 5.36683 18.8999 4.04765 17.0185 1.17507C16.9213 1.02864 16.8269 0.88048 16.7354 0.730664C16.6883 0.652416 16.6441 0.572513 16.6031 0.491116C16.525 0.345139 16.4648 0.190857 16.4238 0.0314033C16.4239 0.0240423 16.4211 0.0169189 16.4161 0.0113905C16.4111 0.00586211 16.4041 0.00231526 16.3965 0.0014259C16.3891 -0.000475299 16.3813 -0.000475299 16.3739 0.0014259C16.3724 0.0014259 16.3699 0.00414288 16.368 0.00477684C16.3662 0.00532024 16.3621 0.00803722 16.3594 0.00921458L16.364 0.0014259C13.3462 1.70851 12.3222 4.86854 12.2279 6.44918C12.3681 6.43986 12.5069 6.42844 12.6502 6.42844C13.721 6.43036 14.7722 6.70617 15.6969 7.22782C16.6215 7.74948 17.3867 8.49838 17.9146 9.39838C17.0695 8.83286 16.0371 8.5907 15.0177 8.71886C19.3392 10.8062 18.1798 17.9942 12.1907 17.7228C11.6575 17.7017 11.1305 17.6035 10.6274 17.4315C10.5084 17.3884 10.3908 17.3419 10.2747 17.2919C10.2068 17.262 10.1388 17.2321 10.0719 17.1985L10.0802 17.2036C10.0215 17.1764 9.96322 17.1483 9.90538 17.1194C9.96154 17.1455 10.0142 17.1737 10.0719 17.1985C8.60469 16.466 7.39316 15.0812 7.24185 13.3999C7.24185 13.3999 7.79648 11.4033 11.213 11.4033C11.5822 11.4033 12.639 10.4076 12.658 10.1189C12.6533 10.0246 10.5623 9.2205 9.74704 8.44481C9.31148 8.03011 9.10466 7.83032 8.92148 7.68025C8.82245 7.59924 8.71895 7.52348 8.61144 7.45329C8.33771 6.5276 8.32605 5.54792 8.57769 4.6164C7.46941 5.13505 6.48464 5.87028 5.6857 6.77558H5.68007C5.20391 6.19252 5.23738 4.26989 5.26466 3.86823C5.12381 3.92296 4.98934 3.99193 4.86351 4.074C4.44318 4.36385 4.05021 4.68904 3.68919 5.04577C3.27787 5.4487 2.90218 5.88418 2.56607 6.34766V6.34938V6.3473C1.79365 7.40524 1.24577 8.60049 0.954039 9.86407L0.938008 9.94069C0.91532 10.0428 0.813977 10.5615 0.799352 10.6729C0.799352 10.6642 0.799352 10.6813 0.799352 10.6729C0.706655 11.2083 0.647454 11.7487 0.62207 12.291V12.3509C0.630133 21.2863 10.6481 26.8623 18.6543 22.3879C20.178 21.5363 21.4894 20.3718 22.4958 18.9765C23.5021 17.5813 24.1789 15.9895 24.4781 14.3137C24.4982 14.164 24.5146 14.0157 24.5326 13.8645C24.7801 11.8886 24.5122 9.88433 23.7533 8.034Z" fill="url(#paint11_linear_234_11447)"/>
</g>
<defs>
<linearGradient id="paint0_linear_234_11447" x1="22.1629" y1="3.7101" x2="2.88267" y2="22.9659" gradientUnits="userSpaceOnUse">
<stop offset="0.048" stop-color="#FFF44F"/>
<stop offset="0.111" stop-color="#FFE847"/>
<stop offset="0.225" stop-color="#FFC830"/>
<stop offset="0.368" stop-color="#FF980E"/>
<stop offset="0.401" stop-color="#FF8B16"/>
<stop offset="0.462" stop-color="#FF672A"/>
<stop offset="0.534" stop-color="#FF3647"/>
<stop offset="0.705" stop-color="#E31587"/>
</linearGradient>
<radialGradient id="paint1_radial_234_11447" cx="0" cy="0" r="1" gradientUnits="userSpaceOnUse" gradientTransform="translate(21.2417 2.6577) scale(25.0473 24.1967)">
<stop offset="0.129" stop-color="#FFBD4F"/>
<stop offset="0.186" stop-color="#FFAC31"/>
<stop offset="0.247" stop-color="#FF9D17"/>
<stop offset="0.283" stop-color="#FF980E"/>
<stop offset="0.403" stop-color="#FF563B"/>
<stop offset="0.467" stop-color="#FF3750"/>
<stop offset="0.71" stop-color="#F5156C"/>
<stop offset="0.782" stop-color="#EB0878"/>
<stop offset="0.86" stop-color="#E50080"/>
</radialGradient>
<radialGradient id="paint2_radial_234_11447" cx="0" cy="0" r="1" gradientUnits="userSpaceOnUse" gradientTransform="translate(12.0892 12.5499) scale(25.0473 24.1967)">
<stop offset="0.3" stop-color="#960E18"/>
<stop offset="0.351" stop-color="#B11927" stop-opacity="0.74"/>
<stop offset="0.435" stop-color="#DB293D" stop-opacity="0.343"/>
<stop offset="0.497" stop-color="#F5334B" stop-opacity="0.094"/>
<stop offset="0.53" stop-color="#FF3750" stop-opacity="0"/>
</radialGradient>
<radialGradient id="paint3_radial_234_11447" cx="0" cy="0" r="1" gradientUnits="userSpaceOnUse" gradientTransform="translate(15.1085 -2.83252) scale(18.1457 17.5295)">
<stop offset="0.132" stop-color="#FFF44F"/>
<stop offset="0.252" stop-color="#FFDC3E"/>
<stop offset="0.506" stop-color="#FF9D12"/>
<stop offset="0.526" stop-color="#FF980E"/>
</radialGradient>
<radialGradient id="paint4_radial_234_11447" cx="0" cy="0" r="1" gradientUnits="userSpaceOnUse" gradientTransform="translate(9.31852 18.872) scale(11.9261 11.5211)">
<stop offset="0.353" stop-color="#3A8EE6"/>
<stop offset="0.472" stop-color="#5C79F0"/>
<stop offset="0.669" stop-color="#9059FF"/>
<stop offset="1" stop-color="#C139E6"/>
</radialGradient>
<radialGradient id="paint5_radial_234_11447" cx="0" cy="0" r="1" gradientUnits="userSpaceOnUse" gradientTransform="translate(13.4615 10.5689) rotate(-13.1462) scale(6.31149 7.16464)">
<stop offset="0.206" stop-color="#9059FF" stop-opacity="0"/>
<stop offset="0.278" stop-color="#8C4FF3" stop-opacity="0.064"/>
<stop offset="0.747" stop-color="#7716A8" stop-opacity="0.45"/>
<stop offset="0.975" stop-color="#6E008B" stop-opacity="0.6"/>
</radialGradient>
<radialGradient id="paint6_radial_234_11447" cx="0" cy="0" r="1" gradientUnits="userSpaceOnUse" gradientTransform="translate(11.7726 1.66885) scale(8.57965 8.28826)">
<stop stop-color="#FFE226"/>
<stop offset="0.121" stop-color="#FFDB27"/>
<stop offset="0.295" stop-color="#FFC82A"/>
<stop offset="0.502" stop-color="#FFA930"/>
<stop offset="0.732" stop-color="#FF7E37"/>
<stop offset="0.792" stop-color="#FF7139"/>
</radialGradient>
<radialGradient id="paint7_radial_234_11447" cx="0" cy="0" r="1" gradientUnits="userSpaceOnUse" gradientTransform="translate(18.5166 -3.58913) scale(36.6055 35.3623)">
<stop offset="0.113" stop-color="#FFF44F"/>
<stop offset="0.456" stop-color="#FF980E"/>
<stop offset="0.622" stop-color="#FF5634"/>
<stop offset="0.716" stop-color="#FF3647"/>
<stop offset="0.904" stop-color="#E31587"/>
</radialGradient>
<radialGradient id="paint8_radial_234_11447" cx="0" cy="0" r="1" gradientUnits="userSpaceOnUse" gradientTransform="translate(15.4374 -1.62333) rotate(83.7659) scale(25.9281 17.6008)">
<stop stop-color="#FFF44F"/>
<stop offset="0.06" stop-color="#FFE847"/>
<stop offset="0.168" stop-color="#FFC830"/>
<stop offset="0.304" stop-color="#FF980E"/>
<stop offset="0.356" stop-color="#FF8B16"/>
<stop offset="0.455" stop-color="#FF672A"/>
<stop offset="0.57" stop-color="#FF3647"/>
<stop offset="0.737" stop-color="#E31587"/>
</radialGradient>
<radialGradient id="paint9_radial_234_11447" cx="0" cy="0" r="1" gradientUnits="userSpaceOnUse" gradientTransform="translate(11.5705 4.73817) scale(22.8534 22.0773)">
<stop offset="0.137" stop-color="#FFF44F"/>
<stop offset="0.48" stop-color="#FF980E"/>
<stop offset="0.592" stop-color="#FF5634"/>
<stop offset="0.655" stop-color="#FF3647"/>
<stop offset="0.904" stop-color="#E31587"/>
</radialGradient>
<radialGradient id="paint10_radial_234_11447" cx="0" cy="0" r="1" gradientUnits="userSpaceOnUse" gradientTransform="translate(17.6035 6.03072) scale(25.0129 24.1634)">
<stop offset="0.094" stop-color="#FFF44F"/>
<stop offset="0.231" stop-color="#FFE141"/>
<stop offset="0.509" stop-color="#FFAF1E"/>
<stop offset="0.626" stop-color="#FF980E"/>
</radialGradient>
<linearGradient id="paint11_linear_234_11447" x1="21.9233" y1="3.61067" x2="5.53802" y2="20.5717" gradientUnits="userSpaceOnUse">
<stop offset="0.167" stop-color="#FFF44F" stop-opacity="0.8"/>
<stop offset="0.266" stop-color="#FFF44F" stop-opacity="0.634"/>
<stop offset="0.489" stop-color="#FFF44F" stop-opacity="0.217"/>
<stop offset="0.6" stop-color="#FFF44F" stop-opacity="0"/>
</linearGradient>
<clipPath id="clip0_234_11447">
<rect width="24" height="24" fill="white" transform="translate(0.5)"/>
</clipPath>
</defs>
</svg>
