<svg width="121" height="121" viewBox="0 0 121 121" fill="none" xmlns="http://www.w3.org/2000/svg">
<rect x="12" y="12" width="97" height="97" rx="2" fill="#28566F"/>
<rect x="14.5" y="14.5" width="92" height="92" rx="1.5" fill="#28566F" stroke="white"/>
<path d="M81.826 87.565H38.174C36.0061 87.565 33.927 86.7039 32.3941 85.1709C30.8612 83.638 30 81.5589 30 79.3911V33H73.6305V79.3695" stroke="white" stroke-width="4" stroke-linecap="round" stroke-linejoin="round"/>
<path d="M73.6304 79.3914C73.6304 81.5621 74.4928 83.644 76.0277 85.1789C77.5626 86.7138 79.6445 87.5762 81.8152 87.5762C83.9859 87.5762 86.0677 86.7138 87.6027 85.1789C89.1376 83.644 89.9999 81.5621 89.9999 79.3914V49.3914H73.6304" stroke="white" stroke-width="4" stroke-linecap="round" stroke-linejoin="round"/>
<path d="M62.7173 43.9132H40.8912V54.8263H62.7173V43.9132Z" stroke="white" stroke-width="4" stroke-linecap="round" stroke-linejoin="round"/>
<path d="M40.8912 65.739H62.7173" stroke="white" stroke-width="4" stroke-linecap="round" stroke-linejoin="round"/>
<path d="M40.8912 76.652H62.7173" stroke="white" stroke-width="4" stroke-linecap="round" stroke-linejoin="round"/>
<rect x="121" y="45" width="2" height="12" transform="rotate(90 121 45)" fill="#CECCCC" fill-opacity="0.49"/>
<g style="mix-blend-mode:multiply" opacity="0.8">
<rect x="116" y="44" width="4" height="7" transform="rotate(90 116 44)" fill="#B3B3B3" fill-opacity="0.54"/>
</g>
<rect x="46" width="2" height="12" fill="#CECCCC" fill-opacity="0.49"/>
<g style="mix-blend-mode:multiply" opacity="0.8">
<rect x="45" y="5" width="4" height="7" fill="#B3B3B3" fill-opacity="0.54"/>
</g>
<rect y="74" width="2" height="12" transform="rotate(-90 0 74)" fill="#CECCCC" fill-opacity="0.49"/>
<g style="mix-blend-mode:multiply" opacity="0.8">
<rect x="5" y="75" width="4" height="7" transform="rotate(-90 5 75)" fill="#B3B3B3" fill-opacity="0.54"/>
</g>
<rect x="75" y="121" width="2" height="12" transform="rotate(180 75 121)" fill="#CECCCC" fill-opacity="0.49"/>
<g style="mix-blend-mode:multiply" opacity="0.8">
<rect x="76" y="116" width="4" height="7" transform="rotate(180 76 116)" fill="#B3B3B3" fill-opacity="0.54"/>
</g>
<rect x="121" y="54" width="2" height="12" transform="rotate(90 121 54)" fill="#CECCCC" fill-opacity="0.49"/>
<g style="mix-blend-mode:multiply" opacity="0.8">
<rect x="116" y="53" width="4" height="7" transform="rotate(90 116 53)" fill="#B3B3B3" fill-opacity="0.54"/>
</g>
<rect x="55" width="2" height="12" fill="#CECCCC" fill-opacity="0.49"/>
<g style="mix-blend-mode:multiply" opacity="0.8">
<rect x="54" y="5" width="4" height="7" fill="#B3B3B3" fill-opacity="0.54"/>
</g>
<rect y="65" width="2" height="12" transform="rotate(-90 0 65)" fill="#CECCCC" fill-opacity="0.49"/>
<g style="mix-blend-mode:multiply" opacity="0.8">
<rect x="5" y="66" width="4" height="7" transform="rotate(-90 5 66)" fill="#B3B3B3" fill-opacity="0.54"/>
</g>
<rect x="66" y="121" width="2" height="12" transform="rotate(180 66 121)" fill="#CECCCC" fill-opacity="0.49"/>
<g style="mix-blend-mode:multiply" opacity="0.8">
<rect x="67" y="116" width="4" height="7" transform="rotate(180 67 116)" fill="#B3B3B3" fill-opacity="0.54"/>
</g>
<rect x="121" y="63" width="2" height="12" transform="rotate(90 121 63)" fill="#CECCCC" fill-opacity="0.49"/>
<g style="mix-blend-mode:multiply" opacity="0.8">
<rect x="116" y="62" width="4" height="7" transform="rotate(90 116 62)" fill="#B3B3B3" fill-opacity="0.54"/>
</g>
<rect x="64" width="2" height="12" fill="#CECCCC" fill-opacity="0.49"/>
<g style="mix-blend-mode:multiply" opacity="0.8">
<rect x="63" y="5" width="4" height="7" fill="#B3B3B3" fill-opacity="0.54"/>
</g>
<rect y="56" width="2" height="12" transform="rotate(-90 0 56)" fill="#CECCCC" fill-opacity="0.49"/>
<g style="mix-blend-mode:multiply" opacity="0.8">
<rect x="5" y="57" width="4" height="7" transform="rotate(-90 5 57)" fill="#B3B3B3" fill-opacity="0.54"/>
</g>
<rect x="57" y="121" width="2" height="12" transform="rotate(180 57 121)" fill="#CECCCC" fill-opacity="0.49"/>
<g style="mix-blend-mode:multiply" opacity="0.8">
<rect x="58" y="116" width="4" height="7" transform="rotate(180 58 116)" fill="#B3B3B3" fill-opacity="0.54"/>
</g>
<rect x="121" y="72" width="2" height="12" transform="rotate(90 121 72)" fill="#CECCCC" fill-opacity="0.49"/>
<g style="mix-blend-mode:multiply" opacity="0.8">
<rect x="116" y="71" width="4" height="7" transform="rotate(90 116 71)" fill="#B3B3B3" fill-opacity="0.54"/>
</g>
<rect x="73" width="2" height="12" fill="#CECCCC" fill-opacity="0.49"/>
<g style="mix-blend-mode:multiply" opacity="0.8">
<rect x="72" y="5" width="4" height="7" fill="#B3B3B3" fill-opacity="0.54"/>
</g>
<rect y="47" width="2" height="12" transform="rotate(-90 0 47)" fill="#CECCCC" fill-opacity="0.49"/>
<g style="mix-blend-mode:multiply" opacity="0.8">
<rect x="5" y="48" width="4" height="7" transform="rotate(-90 5 48)" fill="#B3B3B3" fill-opacity="0.54"/>
</g>
<rect x="48" y="121" width="2" height="12" transform="rotate(180 48 121)" fill="#CECCCC" fill-opacity="0.49"/>
<g style="mix-blend-mode:multiply" opacity="0.8">
<rect x="49" y="116" width="4" height="7" transform="rotate(180 49 116)" fill="#B3B3B3" fill-opacity="0.54"/>
</g>
</svg>
