<svg width="29" height="31" viewBox="0 0 29 31" fill="none" xmlns="http://www.w3.org/2000/svg">
<path d="M4.43652 4.24023H9.95001" stroke="#616161" stroke-linecap="round"/>
<path d="M4.43652 6.83594H9.95001" stroke="#616161" stroke-linecap="round"/>
<path d="M4.43652 9.43164H14.8149" stroke="#616161" stroke-linecap="round"/>
<path d="M4.43652 12.0273H14.8149" stroke="#616161" stroke-linecap="round"/>
<path d="M4.43652 15.1914H14.8149" stroke="#616161" stroke-linecap="round"/>
<path d="M4.43652 17.7871H14.8149" stroke="#616161" stroke-linecap="round"/>
<path d="M4.43652 20.5H14.8149" stroke="#616161" stroke-linecap="round"/>
<path d="M4.43652 23.0957H14.8149" stroke="#616161" stroke-linecap="round"/>
<path d="M16.7187 1H2.23224C1.99341 1 1.7998 1.19361 1.7998 1.43243V25.2156C1.7998 25.4545 1.99341 25.6481 2.23224 25.6481H21.4714C21.7118 25.6481 21.906 25.452 21.9039 25.2117L21.7457 7.81065" stroke="#616161" stroke-width="2" stroke-linecap="round"/>
<path d="M16.7178 1L21.7448 7.64849" stroke="#616161" stroke-width="2" stroke-linecap="round"/>
<path d="M16.5566 1V7.21606C16.5566 7.45488 16.7502 7.64849 16.9891 7.64849H21.7458" stroke="#616161" stroke-width="2"/>
<rect width="13" height="13" transform="translate(15.7998 18)" fill="white"/>
<path d="M24.6616 25.584C24.705 25.2265 24.7375 24.869 24.7375 24.5007C24.7375 24.1323 24.705 23.7748 24.6616 23.4173H26.4925C26.5791 23.764 26.6333 24.1269 26.6333 24.5007C26.6333 24.8744 26.5791 25.2373 26.4925 25.584M23.7029 28.5957C24.0279 27.9944 24.2771 27.3444 24.4504 26.6673H26.0483C25.5235 27.571 24.6909 28.2555 23.7029 28.5957ZM23.5675 25.584H21.0325C20.9783 25.2265 20.9458 24.869 20.9458 24.5007C20.9458 24.1323 20.9783 23.7694 21.0325 23.4173H23.5675C23.6162 23.7694 23.6541 24.1323 23.6541 24.5007C23.6541 24.869 23.6162 25.2265 23.5675 25.584ZM22.3 28.8123C21.8504 28.1623 21.4875 27.4419 21.2654 26.6673H23.3346C23.1125 27.4419 22.7496 28.1623 22.3 28.8123ZM20.1333 22.334H18.5516C19.071 21.4279 19.903 20.7423 20.8916 20.4057C20.5666 21.0069 20.3229 21.6569 20.1333 22.334ZM18.5516 26.6673H20.1333C20.3229 27.3444 20.5666 27.9944 20.8916 28.5957C19.9051 28.2553 19.0743 27.5707 18.5516 26.6673ZM18.1075 25.584C18.0208 25.2373 17.9666 24.8744 17.9666 24.5007C17.9666 24.1269 18.0208 23.764 18.1075 23.4173H19.9383C19.895 23.7748 19.8625 24.1323 19.8625 24.5007C19.8625 24.869 19.895 25.2265 19.9383 25.584M22.3 20.1836C22.7496 20.8336 23.1125 21.5594 23.3346 22.334H21.2654C21.4875 21.5594 21.8504 20.8336 22.3 20.1836ZM26.0483 22.334H24.4504C24.2809 21.6631 24.0298 21.0155 23.7029 20.4057C24.6996 20.7469 25.5283 21.4348 26.0483 22.334ZM22.3 19.084C19.3046 19.084 16.8833 21.5215 16.8833 24.5007C16.8833 25.9372 17.454 27.315 18.4698 28.3308C18.9728 28.8338 19.5699 29.2328 20.2271 29.505C20.8843 29.7772 21.5886 29.9173 22.3 29.9173C23.7366 29.9173 25.1143 29.3466 26.1301 28.3308C27.146 27.315 27.7166 25.9372 27.7166 24.5007C27.7166 23.7893 27.5765 23.085 27.3043 22.4278C27.0321 21.7706 26.6331 21.1735 26.1301 20.6705C25.6271 20.1675 25.03 19.7685 24.3728 19.4963C23.7157 19.2241 23.0113 19.084 22.3 19.084Z" fill="#616161"/>
</svg>
