<svg width="798" height="929" viewBox="0 0 798 929" fill="none" xmlns="http://www.w3.org/2000/svg">
<g clip-path="url(#clip0_104_51)">
<path d="M168.5 801.642C160.363 801.642 152.409 799.229 145.643 794.708C138.877 790.188 133.604 783.762 130.49 776.244C127.376 768.727 126.561 760.454 128.149 752.473C129.736 744.493 133.654 737.162 139.408 731.408C145.162 725.654 152.493 721.736 160.474 720.148C168.455 718.561 176.727 719.376 184.245 722.49C191.762 725.604 198.188 730.877 202.709 737.643C207.229 744.408 209.642 752.363 209.642 760.5C209.642 771.411 205.308 781.876 197.592 789.592C189.876 797.307 179.412 801.642 168.5 801.642ZM168.5 740.42C164.529 740.42 160.647 741.598 157.345 743.804C154.042 746.011 151.469 749.147 149.949 752.816C148.429 756.485 148.032 760.522 148.806 764.417C149.581 768.312 151.494 771.89 154.302 774.698C157.11 777.506 160.688 779.419 164.583 780.194C168.478 780.968 172.515 780.571 176.184 779.051C179.853 777.531 182.989 774.958 185.196 771.656C187.402 768.353 188.58 764.471 188.58 760.5C188.58 755.174 186.464 750.067 182.699 746.301C178.933 742.536 173.826 740.42 168.5 740.42Z" fill="#212121"/>
<path d="M169.343 883.365C165.237 883.346 161.176 882.517 157.391 880.925C153.607 879.332 150.175 877.008 147.291 874.086C144.408 871.163 142.13 867.7 140.589 863.894C139.048 860.089 138.274 856.017 138.311 851.911C138.255 850.645 137.844 849.42 137.123 848.376C136.403 847.333 135.403 846.514 134.238 846.014C132.95 845.422 131.515 845.227 130.115 845.452C128.715 845.677 127.413 846.312 126.375 847.277C120.545 853.063 112.683 856.339 104.47 856.405C96.205 856.458 88.2454 853.284 82.2843 847.558C79.3887 844.664 77.0918 841.227 75.5247 837.444C73.9576 833.662 73.151 829.607 73.151 825.513C73.151 821.419 73.9576 817.364 75.5247 813.582C77.0918 809.799 79.3887 806.362 82.2843 803.467C83.2746 802.565 83.9859 801.398 84.3342 800.104C84.6825 798.81 84.6534 797.444 84.2501 796.166C83.5659 794.981 82.5843 793.995 81.4022 793.305C80.2201 792.615 78.8786 792.246 77.5101 792.234C69.2484 792.202 61.322 788.963 55.4019 783.2C49.4818 777.437 46.0307 769.6 45.776 761.342C45.7944 757.249 46.6189 753.199 48.2025 749.424C49.7861 745.649 52.0977 742.223 55.0054 739.341C57.9131 736.46 61.3599 734.179 65.1489 732.629C68.938 731.08 72.9952 730.292 77.0889 730.31C78.3554 730.255 79.5805 729.843 80.6237 729.123C81.6669 728.403 82.4858 727.403 82.9864 726.238C83.5778 724.95 83.7734 723.515 83.5484 722.115C83.3235 720.715 82.688 719.413 81.7226 718.375C75.9369 712.545 72.6611 704.683 72.5956 696.47C72.5238 692.37 73.269 688.297 74.7878 684.488C76.3066 680.678 78.5686 677.21 81.4418 674.284C84.3366 671.389 87.7734 669.092 91.556 667.525C95.3386 665.957 99.3928 665.151 103.487 665.151C107.582 665.151 111.636 665.957 115.418 667.525C119.201 669.092 122.638 671.389 125.533 674.284C126.544 675.246 127.785 675.932 129.137 676.276C130.49 676.62 131.908 676.611 133.256 676.25C134.484 675.577 135.526 674.608 136.286 673.431C137.046 672.255 137.5 670.907 137.608 669.51C137.605 661.224 140.827 653.262 146.594 647.312C152.361 641.362 160.218 637.891 168.5 637.635C172.594 637.672 176.64 638.515 180.408 640.115C184.176 641.716 187.592 644.043 190.461 646.964C193.329 649.885 195.594 653.342 197.127 657.138C198.659 660.934 199.429 664.995 199.392 669.089C199.445 670.374 199.837 671.622 200.527 672.706C201.217 673.791 202.182 674.675 203.323 675.267C204.563 675.722 205.905 675.819 207.197 675.545C208.488 675.272 209.676 674.64 210.625 673.722C216.455 667.937 224.317 664.661 232.53 664.595C236.637 664.467 240.727 665.186 244.544 666.708C248.362 668.23 251.824 670.522 254.716 673.442C257.612 676.336 259.908 679.773 261.476 683.556C263.043 687.338 263.849 691.393 263.849 695.487C263.849 699.581 263.043 703.636 261.476 707.418C259.908 711.201 257.612 714.638 254.716 717.532C253.826 718.584 253.218 719.844 252.948 721.195C252.678 722.545 252.755 723.943 253.171 725.255C253.844 726.484 254.813 727.526 255.99 728.286C257.167 729.046 258.515 729.5 259.911 729.608C268.124 729.713 275.98 732.984 281.84 738.739C287.7 744.495 291.112 752.29 291.365 760.5C291.328 764.594 290.485 768.64 288.885 772.408C287.284 776.176 284.957 779.592 282.036 782.46C279.116 785.329 275.658 787.594 271.862 789.127C268.066 790.659 264.005 791.429 259.911 791.392C258.627 791.445 257.379 791.837 256.294 792.527C255.209 793.217 254.325 794.182 253.733 795.323C253.278 796.562 253.182 797.905 253.455 799.196C253.728 800.488 254.36 801.676 255.278 802.625C261.063 808.455 264.339 816.317 264.405 824.53C264.477 828.63 263.731 832.703 262.212 836.512C260.694 840.321 258.432 843.79 255.558 846.716C252.664 849.611 249.227 851.908 245.444 853.475C241.662 855.043 237.607 855.849 233.513 855.849C229.419 855.849 225.364 855.043 221.582 853.475C217.799 851.908 214.362 849.611 211.468 846.716C210.519 845.798 209.331 845.166 208.039 844.893C206.748 844.62 205.405 844.716 204.166 845.171C202.981 845.855 201.995 846.837 201.305 848.019C200.616 849.201 200.246 850.543 200.234 851.911C200.13 860.124 196.859 867.98 191.103 873.84C185.348 879.7 177.552 883.112 169.343 883.365ZM131.29 824.249C135.014 824.206 138.703 824.972 142.102 826.496C147.117 828.586 151.418 832.087 154.484 836.573C157.55 841.059 159.248 846.339 159.373 851.771C159.334 854.479 160.355 857.096 162.217 859.063C164.079 861.03 166.636 862.193 169.343 862.302C172.049 862.088 174.572 860.851 176.398 858.842C178.224 856.833 179.216 854.204 179.172 851.49C179.205 846.039 180.778 840.708 183.71 836.112C186.641 831.516 190.812 827.842 195.741 825.513C200.869 823.38 206.513 822.815 211.962 823.89C217.411 824.964 222.418 827.63 226.352 831.551C228.214 833.413 230.739 834.459 233.373 834.459C236.006 834.459 238.531 833.413 240.393 831.551C242.256 829.689 243.302 827.163 243.302 824.53C243.302 821.897 242.256 819.371 240.393 817.509C236.497 813.56 233.857 808.545 232.807 803.097C231.758 797.649 232.345 792.013 234.496 786.898C236.711 781.971 240.3 777.787 244.833 774.848C249.365 771.91 254.65 770.34 260.052 770.329C262.723 770.368 265.304 769.362 267.245 767.526C269.186 765.69 270.333 763.169 270.443 760.5C270.262 757.781 269.035 755.238 267.019 753.405C265.002 751.572 262.354 750.592 259.631 750.671C254.134 750.521 248.789 748.838 244.198 745.811C239.608 742.784 235.956 738.533 233.653 733.54C231.552 728.361 231.004 722.681 232.076 717.196C233.148 711.71 235.794 706.655 239.691 702.648C240.613 701.726 241.345 700.632 241.844 699.427C242.343 698.222 242.6 696.931 242.6 695.627C242.6 694.324 242.343 693.032 241.844 691.828C241.345 690.623 240.613 689.529 239.691 688.607C238.769 687.685 237.675 686.953 236.47 686.454C235.266 685.955 233.974 685.699 232.671 685.699C231.367 685.699 230.076 685.955 228.871 686.454C227.666 686.953 226.572 687.685 225.65 688.607C221.702 692.273 216.783 694.727 211.479 695.675C206.175 696.623 200.71 696.025 195.737 693.953C190.763 691.88 186.491 688.421 183.429 683.988C180.368 679.554 178.646 674.333 178.47 668.948C178.509 666.277 177.503 663.696 175.667 661.755C173.831 659.814 171.31 658.667 168.641 658.557C165.922 658.738 163.379 659.965 161.546 661.982C159.713 663.998 158.733 666.646 158.811 669.37C158.662 674.866 156.979 680.211 153.951 684.802C150.924 689.392 146.674 693.045 141.681 695.347C136.501 697.448 130.822 697.996 125.336 696.924C119.851 695.852 114.796 693.206 110.789 689.309C109.867 688.387 108.772 687.655 107.568 687.156C106.363 686.657 105.072 686.401 103.768 686.401C102.464 686.401 101.173 686.657 99.9684 687.156C98.7638 687.655 97.6692 688.387 96.7472 689.309C95.8252 690.231 95.0939 691.325 94.5949 692.53C94.0959 693.735 93.8391 695.026 93.8391 696.33C93.8391 697.633 94.0959 698.925 94.5949 700.129C95.0939 701.334 95.8252 702.428 96.7472 703.35C100.62 707.315 103.234 712.337 104.258 717.785C105.283 723.232 104.673 728.86 102.504 733.961C100.414 738.977 96.9132 743.278 92.427 746.343C87.9407 749.409 82.6615 751.107 77.2293 751.232C74.5208 751.194 71.9041 752.214 69.9369 754.076C67.9698 755.939 66.8076 758.495 66.6981 761.202C66.912 763.908 68.1493 766.431 70.158 768.257C72.1667 770.083 74.7958 771.075 77.5101 771.031C82.9614 771.065 88.2923 772.638 92.8884 775.569C97.4845 778.501 101.159 782.671 103.487 787.6C105.62 792.728 106.185 798.373 105.11 803.821C104.036 809.27 101.37 814.278 97.4493 818.211C96.5273 819.133 95.7959 820.228 95.297 821.432C94.798 822.637 94.5412 823.928 94.5412 825.232C94.5412 826.536 94.798 827.827 95.297 829.032C95.7959 830.236 96.5273 831.331 97.4493 832.253C98.3713 833.175 99.4659 833.906 100.67 834.405C101.875 834.904 103.166 835.161 104.47 835.161C105.774 835.161 107.065 834.904 108.27 834.405C109.474 833.906 110.569 833.175 111.491 832.253C116.828 827.157 123.911 824.294 131.29 824.249Z" fill="#212121"/>
<path d="M367.458 594.167H189.542C186.171 594.167 182.939 595.506 180.556 597.889C178.172 600.272 176.833 603.505 176.833 606.875C176.833 610.245 178.172 613.478 180.556 615.861C182.939 618.244 186.171 619.583 189.542 619.583H367.458C370.829 619.583 374.061 618.244 376.445 615.861C378.828 613.478 380.167 610.245 380.167 606.875C380.167 603.505 378.828 600.272 376.445 597.889C374.061 595.506 370.829 594.167 367.458 594.167Z" fill="#5F338F"/>
<path d="M189.542 568.75H190.685L243.679 563.921C249.484 563.343 254.914 560.785 259.056 556.677L373.431 442.302C377.87 437.612 380.27 431.354 380.103 424.898C379.936 418.443 377.217 412.317 372.542 407.863L337.721 373.042C333.176 368.773 327.221 366.324 320.988 366.159C314.755 365.995 308.679 368.128 303.917 372.152L189.542 486.527C185.434 490.67 182.876 496.099 182.298 501.904L176.833 554.898C176.662 556.759 176.904 558.636 177.541 560.393C178.178 562.15 179.195 563.745 180.519 565.065C181.706 566.242 183.114 567.174 184.663 567.807C186.211 568.439 187.869 568.76 189.542 568.75ZM320.056 390.833L354.75 425.527L329.333 450.308L295.275 416.25L320.056 390.833ZM206.952 504.065L278.5 433.025L312.812 467.338L241.646 538.504L203.521 542.063L206.952 504.065Z" fill="#5F338F"/>
<path d="M400.5 847.642C392.363 847.642 384.409 845.229 377.643 840.708C370.877 836.188 365.604 829.762 362.49 822.244C359.376 814.727 358.561 806.454 360.149 798.473C361.736 790.493 365.654 783.162 371.408 777.408C377.162 771.654 384.493 767.736 392.474 766.148C400.454 764.561 408.727 765.376 416.245 768.49C423.762 771.604 430.188 776.877 434.709 783.643C439.229 790.408 441.642 798.363 441.642 806.5C441.642 817.411 437.308 827.876 429.592 835.592C421.876 843.307 411.412 847.642 400.5 847.642ZM400.5 786.42C396.529 786.42 392.647 787.598 389.345 789.804C386.042 792.011 383.469 795.147 381.949 798.816C380.429 802.485 380.032 806.522 380.806 810.417C381.581 814.312 383.494 817.89 386.302 820.698C389.11 823.506 392.688 825.419 396.583 826.194C400.478 826.968 404.515 826.571 408.184 825.051C411.853 823.531 414.989 820.958 417.196 817.656C419.402 814.353 420.58 810.471 420.58 806.5C420.58 801.174 418.464 796.067 414.699 792.301C410.933 788.536 405.826 786.42 400.5 786.42Z" fill="#212121"/>
<path d="M401.343 929.365C397.237 929.346 393.176 928.517 389.391 926.925C385.607 925.332 382.175 923.008 379.291 920.086C376.408 917.163 374.13 913.7 372.589 909.894C371.048 906.089 370.274 902.017 370.311 897.911C370.255 896.645 369.844 895.42 369.123 894.376C368.403 893.333 367.403 892.514 366.238 892.014C364.95 891.422 363.515 891.227 362.115 891.452C360.715 891.677 359.413 892.312 358.375 893.277C352.545 899.063 344.683 902.339 336.47 902.405C328.205 902.458 320.245 899.284 314.284 893.558C311.389 890.664 309.092 887.227 307.525 883.444C305.958 879.662 305.151 875.607 305.151 871.513C305.151 867.419 305.958 863.364 307.525 859.582C309.092 855.799 311.389 852.362 314.284 849.467C315.275 848.565 315.986 847.398 316.334 846.104C316.683 844.81 316.653 843.444 316.25 842.166C315.566 840.981 314.584 839.995 313.402 839.305C312.22 838.615 310.879 838.246 309.51 838.234C301.248 838.202 293.322 834.963 287.402 829.2C281.482 823.437 278.031 815.6 277.776 807.342C277.794 803.249 278.619 799.199 280.202 795.424C281.786 791.649 284.098 788.223 287.005 785.341C289.913 782.46 293.36 780.179 297.149 778.629C300.938 777.08 304.995 776.292 309.089 776.31C310.355 776.255 311.581 775.843 312.624 775.123C313.667 774.403 314.486 773.403 314.986 772.238C315.578 770.95 315.773 769.515 315.548 768.115C315.323 766.715 314.688 765.413 313.723 764.375C307.937 758.545 304.661 750.683 304.596 742.47C304.524 738.37 305.269 734.297 306.788 730.488C308.307 726.678 310.569 723.21 313.442 720.284C316.337 717.389 319.773 715.092 323.556 713.525C327.339 711.957 331.393 711.151 335.487 711.151C339.582 711.151 343.636 711.957 347.418 713.525C351.201 715.092 354.638 717.389 357.533 720.284C358.544 721.246 359.785 721.932 361.137 722.276C362.49 722.62 363.908 722.611 365.256 722.25C366.484 721.577 367.526 720.608 368.286 719.431C369.046 718.255 369.5 716.907 369.608 715.51C369.605 707.224 372.827 699.262 378.594 693.312C384.361 687.362 392.218 683.891 400.5 683.635C404.594 683.672 408.64 684.515 412.408 686.115C416.176 687.716 419.592 690.043 422.461 692.964C425.329 695.885 427.594 699.342 429.127 703.138C430.659 706.934 431.429 710.995 431.392 715.089C431.445 716.374 431.837 717.622 432.527 718.706C433.217 719.791 434.182 720.675 435.323 721.267C436.563 721.722 437.905 721.819 439.197 721.545C440.488 721.272 441.676 720.64 442.625 719.722C448.455 713.937 456.317 710.661 464.53 710.595C468.637 710.467 472.727 711.186 476.544 712.708C480.362 714.23 483.824 716.522 486.716 719.442C489.612 722.336 491.908 725.773 493.476 729.556C495.043 733.338 495.849 737.393 495.849 741.487C495.849 745.581 495.043 749.636 493.476 753.418C491.908 757.201 489.612 760.638 486.716 763.532C485.826 764.584 485.218 765.844 484.948 767.195C484.678 768.545 484.755 769.943 485.171 771.255C485.844 772.484 486.813 773.526 487.99 774.286C489.167 775.046 490.515 775.5 491.911 775.608C500.124 775.713 507.98 778.984 513.84 784.739C519.7 790.495 523.112 798.29 523.365 806.5C523.328 810.594 522.485 814.64 520.885 818.408C519.284 822.176 516.957 825.592 514.036 828.46C511.116 831.329 507.658 833.594 503.862 835.127C500.066 836.659 496.005 837.429 491.911 837.392C490.627 837.445 489.379 837.837 488.294 838.527C487.209 839.217 486.325 840.182 485.733 841.323C485.278 842.562 485.182 843.905 485.455 845.196C485.728 846.488 486.36 847.676 487.278 848.625C493.063 854.455 496.339 862.317 496.405 870.53C496.477 874.63 495.731 878.703 494.212 882.512C492.694 886.321 490.432 889.79 487.558 892.716C484.664 895.611 481.227 897.908 477.444 899.475C473.662 901.043 469.607 901.849 465.513 901.849C461.419 901.849 457.364 901.043 453.582 899.475C449.799 897.908 446.362 895.611 443.468 892.716C442.519 891.798 441.331 891.166 440.039 890.893C438.748 890.62 437.405 890.716 436.166 891.171C434.981 891.855 433.995 892.837 433.305 894.019C432.616 895.201 432.246 896.543 432.234 897.911C432.13 906.124 428.859 913.98 423.103 919.84C417.348 925.7 409.552 929.112 401.343 929.365ZM363.29 870.249C367.014 870.206 370.703 870.972 374.102 872.496C379.117 874.586 383.418 878.087 386.484 882.573C389.55 887.059 391.248 892.339 391.373 897.771C391.334 900.479 392.355 903.096 394.217 905.063C396.079 907.03 398.636 908.193 401.343 908.302C404.049 908.088 406.572 906.851 408.398 904.842C410.224 902.833 411.216 900.204 411.172 897.49C411.205 892.039 412.778 886.708 415.71 882.112C418.641 877.516 422.812 873.842 427.741 871.513C432.869 869.38 438.513 868.815 443.962 869.89C449.411 870.964 454.418 873.63 458.352 877.551C460.214 879.413 462.739 880.459 465.373 880.459C468.006 880.459 470.531 879.413 472.393 877.551C474.256 875.689 475.302 873.163 475.302 870.53C475.302 867.897 474.256 865.371 472.393 863.509C468.497 859.56 465.857 854.545 464.807 849.097C463.758 843.649 464.345 838.013 466.496 832.898C468.711 827.971 472.3 823.787 476.833 820.848C481.365 817.91 486.65 816.34 492.052 816.329C494.723 816.368 497.304 815.362 499.245 813.526C501.186 811.69 502.333 809.169 502.443 806.5C502.262 803.781 501.035 801.238 499.019 799.405C497.002 797.572 494.354 796.592 491.631 796.671C486.134 796.521 480.789 794.838 476.198 791.811C471.608 788.784 467.956 784.533 465.653 779.54C463.552 774.361 463.004 768.681 464.076 763.196C465.148 757.71 467.794 752.655 471.691 748.648C472.613 747.726 473.345 746.632 473.844 745.427C474.343 744.222 474.6 742.931 474.6 741.627C474.6 740.324 474.343 739.032 473.844 737.828C473.345 736.623 472.613 735.529 471.691 734.607C470.769 733.685 469.675 732.953 468.47 732.454C467.266 731.955 465.974 731.699 464.671 731.699C463.367 731.699 462.076 731.955 460.871 732.454C459.666 732.953 458.572 733.685 457.65 734.607C453.702 738.273 448.783 740.727 443.479 741.675C438.175 742.623 432.71 742.025 427.737 739.953C422.763 737.88 418.491 734.421 415.429 729.988C412.368 725.554 410.646 720.333 410.47 714.948C410.509 712.277 409.503 709.696 407.667 707.755C405.831 705.814 403.31 704.667 400.641 704.557C397.922 704.738 395.379 705.965 393.546 707.982C391.713 709.998 390.733 712.646 390.811 715.37C390.662 720.866 388.979 726.211 385.951 730.802C382.924 735.392 378.674 739.045 373.681 741.347C368.501 743.448 362.822 743.996 357.336 742.924C351.851 741.852 346.796 739.206 342.789 735.309C341.867 734.387 340.772 733.655 339.568 733.156C338.363 732.657 337.072 732.401 335.768 732.401C334.464 732.401 333.173 732.657 331.968 733.156C330.764 733.655 329.669 734.387 328.747 735.309C327.825 736.231 327.094 737.325 326.595 738.53C326.096 739.735 325.839 741.026 325.839 742.33C325.839 743.633 326.096 744.925 326.595 746.129C327.094 747.334 327.825 748.428 328.747 749.35C332.62 753.315 335.234 758.337 336.258 763.785C337.283 769.232 336.673 774.86 334.504 779.961C332.414 784.977 328.913 789.278 324.427 792.343C319.941 795.409 314.661 797.107 309.229 797.232C306.521 797.194 303.904 798.214 301.937 800.076C299.97 801.939 298.808 804.495 298.698 807.202C298.912 809.908 300.149 812.431 302.158 814.257C304.167 816.083 306.796 817.075 309.51 817.031C314.961 817.065 320.292 818.638 324.888 821.569C329.484 824.501 333.159 828.671 335.487 833.6C337.62 838.728 338.185 844.373 337.11 849.821C336.036 855.27 333.37 860.278 329.449 864.211C328.527 865.133 327.796 866.228 327.297 867.432C326.798 868.637 326.541 869.928 326.541 871.232C326.541 872.536 326.798 873.827 327.297 875.032C327.796 876.236 328.527 877.331 329.449 878.253C330.371 879.175 331.466 879.906 332.67 880.405C333.875 880.904 335.166 881.161 336.47 881.161C337.774 881.161 339.065 880.904 340.27 880.405C341.474 879.906 342.569 879.175 343.491 878.253C348.828 873.157 355.911 870.294 363.29 870.249Z" fill="#212121"/>
</g>
<path d="M87.8 263.378C84.776 263.378 82.2 262.762 80.072 261.53C77.944 260.298 76.306 258.548 75.158 256.28C74.038 253.984 73.478 251.282 73.478 248.174C73.478 245.066 74.038 242.378 75.158 240.11C76.306 237.842 77.944 236.092 80.072 234.86C82.2 233.628 84.776 233.012 87.8 233.012C89.9 233.012 91.776 233.32 93.428 233.936C95.08 234.552 96.522 235.448 97.754 236.624L96.242 240.11C94.898 238.962 93.582 238.136 92.294 237.632C91.034 237.128 89.564 236.876 87.884 236.876C84.692 236.876 82.256 237.856 80.576 239.816C78.896 241.776 78.056 244.562 78.056 248.174C78.056 251.786 78.896 254.586 80.576 256.574C82.256 258.534 84.692 259.514 87.884 259.514C89.564 259.514 91.034 259.262 92.294 258.758C93.582 258.254 94.898 257.414 96.242 256.238L97.754 259.724C96.522 260.9 95.08 261.81 93.428 262.454C91.776 263.07 89.9 263.378 87.8 263.378ZM102.776 263V247.082C102.776 246.214 102.748 245.346 102.692 244.478C102.664 243.582 102.608 242.7 102.524 241.832H106.64L107.102 247.292H106.43C106.71 245.976 107.186 244.884 107.858 244.016C108.53 243.148 109.342 242.504 110.294 242.084C111.274 241.664 112.296 241.454 113.36 241.454C113.808 241.454 114.186 241.482 114.494 241.538C114.802 241.566 115.11 241.622 115.418 241.706L115.376 245.486C114.9 245.29 114.48 245.178 114.116 245.15C113.78 245.094 113.36 245.066 112.856 245.066C111.624 245.066 110.574 245.346 109.706 245.906C108.838 246.438 108.18 247.166 107.732 248.09C107.284 249.014 107.06 250.008 107.06 251.072V263H102.776ZM128.191 263.378C124.775 263.378 122.087 262.412 120.127 260.48C118.167 258.548 117.187 255.874 117.187 252.458C117.187 250.246 117.607 248.314 118.447 246.662C119.315 245.01 120.505 243.736 122.017 242.84C123.557 241.916 125.335 241.454 127.351 241.454C129.339 241.454 131.005 241.874 132.349 242.714C133.693 243.554 134.715 244.744 135.415 246.284C136.115 247.796 136.465 249.588 136.465 251.66V253.004H120.505V250.568H133.567L132.853 251.114C132.853 249.014 132.377 247.39 131.425 246.242C130.501 245.066 129.157 244.478 127.393 244.478C125.433 244.478 123.921 245.164 122.857 246.536C121.793 247.88 121.261 249.742 121.261 252.122V252.542C121.261 255.034 121.863 256.91 123.067 258.17C124.299 259.43 126.035 260.06 128.275 260.06C129.507 260.06 130.655 259.892 131.719 259.556C132.811 259.192 133.847 258.604 134.827 257.792L136.213 260.69C135.233 261.558 134.043 262.23 132.643 262.706C131.243 263.154 129.759 263.378 128.191 263.378ZM149.439 263.378C147.563 263.378 145.925 262.944 144.525 262.076C143.125 261.208 142.033 259.948 141.249 258.296C140.493 256.644 140.115 254.684 140.115 252.416C140.115 250.12 140.493 248.16 141.249 246.536C142.033 244.912 143.125 243.666 144.525 242.798C145.925 241.902 147.563 241.454 149.439 241.454C151.287 241.454 152.897 241.916 154.269 242.84C155.641 243.764 156.551 245.024 156.999 246.62H156.537L156.957 241.832H161.073C160.989 242.7 160.905 243.568 160.821 244.436C160.765 245.276 160.737 246.102 160.737 246.914V263H156.495V258.296H156.957C156.509 259.864 155.585 261.11 154.185 262.034C152.813 262.93 151.231 263.378 149.439 263.378ZM150.489 260.06C152.309 260.06 153.765 259.416 154.857 258.128C155.977 256.84 156.537 254.936 156.537 252.416C156.537 249.896 155.977 248.006 154.857 246.746C153.765 245.458 152.309 244.814 150.489 244.814C148.641 244.814 147.157 245.458 146.037 246.746C144.945 248.006 144.399 249.896 144.399 252.416C144.399 254.936 144.945 256.84 146.037 258.128C147.129 259.416 148.613 260.06 150.489 260.06ZM175.158 263.378C172.862 263.378 171.126 262.762 169.95 261.53C168.774 260.27 168.186 258.394 168.186 255.902V245.108H164.07V241.832H168.186V236.246L172.428 235.112V241.832H178.308V245.108H172.428V255.524C172.428 257.092 172.708 258.212 173.268 258.884C173.828 259.556 174.64 259.892 175.704 259.892C176.236 259.892 176.698 259.85 177.09 259.766C177.51 259.654 177.888 259.528 178.224 259.388V262.832C177.804 263 177.314 263.126 176.754 263.21C176.194 263.322 175.662 263.378 175.158 263.378ZM191.765 263.378C188.349 263.378 185.661 262.412 183.701 260.48C181.741 258.548 180.761 255.874 180.761 252.458C180.761 250.246 181.181 248.314 182.021 246.662C182.889 245.01 184.079 243.736 185.591 242.84C187.131 241.916 188.909 241.454 190.925 241.454C192.913 241.454 194.579 241.874 195.923 242.714C197.267 243.554 198.289 244.744 198.989 246.284C199.689 247.796 200.039 249.588 200.039 251.66V253.004H184.079V250.568H197.141L196.427 251.114C196.427 249.014 195.951 247.39 194.999 246.242C194.075 245.066 192.731 244.478 190.967 244.478C189.007 244.478 187.495 245.164 186.431 246.536C185.367 247.88 184.835 249.742 184.835 252.122V252.542C184.835 255.034 185.437 256.91 186.641 258.17C187.873 259.43 189.609 260.06 191.849 260.06C193.081 260.06 194.229 259.892 195.293 259.556C196.385 259.192 197.421 258.604 198.401 257.792L199.787 260.69C198.807 261.558 197.617 262.23 196.217 262.706C194.817 263.154 193.333 263.378 191.765 263.378ZM229.796 263.378C226.772 263.378 224.196 262.762 222.068 261.53C219.94 260.298 218.302 258.548 217.154 256.28C216.034 253.984 215.474 251.282 215.474 248.174C215.474 245.066 216.034 242.378 217.154 240.11C218.302 237.842 219.94 236.092 222.068 234.86C224.196 233.628 226.772 233.012 229.796 233.012C231.896 233.012 233.772 233.32 235.424 233.936C237.076 234.552 238.518 235.448 239.75 236.624L238.238 240.11C236.894 238.962 235.578 238.136 234.29 237.632C233.03 237.128 231.56 236.876 229.88 236.876C226.688 236.876 224.252 237.856 222.572 239.816C220.892 241.776 220.052 244.562 220.052 248.174C220.052 251.786 220.892 254.586 222.572 256.574C224.252 258.534 226.688 259.514 229.88 259.514C231.56 259.514 233.03 259.262 234.29 258.758C235.578 258.254 236.894 257.414 238.238 256.238L239.75 259.724C238.518 260.9 237.076 261.81 235.424 262.454C233.772 263.07 231.896 263.378 229.796 263.378ZM252.451 263.378C250.351 263.378 248.531 262.944 246.991 262.076C245.451 261.18 244.261 259.92 243.421 258.296C242.581 256.644 242.161 254.684 242.161 252.416C242.161 250.148 242.581 248.202 243.421 246.578C244.261 244.926 245.451 243.666 246.991 242.798C248.531 241.902 250.351 241.454 252.451 241.454C254.551 241.454 256.371 241.902 257.911 242.798C259.479 243.666 260.683 244.926 261.523 246.578C262.391 248.202 262.825 250.148 262.825 252.416C262.825 254.684 262.391 256.644 261.523 258.296C260.683 259.92 259.479 261.18 257.911 262.076C256.371 262.944 254.551 263.378 252.451 263.378ZM252.451 260.06C254.299 260.06 255.769 259.416 256.861 258.128C257.953 256.84 258.499 254.936 258.499 252.416C258.499 249.896 257.953 248.006 256.861 246.746C255.769 245.458 254.299 244.814 252.451 244.814C250.631 244.814 249.175 245.458 248.083 246.746C246.991 248.006 246.445 249.896 246.445 252.416C246.445 254.936 246.977 256.84 248.041 258.128C249.133 259.416 250.603 260.06 252.451 260.06ZM267.784 263V246.914C267.784 246.102 267.742 245.276 267.658 244.436C267.602 243.568 267.532 242.7 267.448 241.832H271.564L271.942 246.284H271.438C272.082 244.716 273.076 243.526 274.42 242.714C275.764 241.874 277.318 241.454 279.082 241.454C281.574 241.454 283.45 242.14 284.71 243.512C285.998 244.884 286.642 247.012 286.642 249.896V263H282.4V250.148C282.4 248.272 282.022 246.928 281.266 246.116C280.538 245.276 279.418 244.856 277.906 244.856C276.114 244.856 274.686 245.416 273.622 246.536C272.558 247.628 272.026 249.112 272.026 250.988V263H267.784ZM293.94 263V245.108H289.824V241.832H295.116L293.94 242.924V239.564C293.94 237.072 294.556 235.182 295.788 233.894C297.048 232.578 298.868 231.92 301.248 231.92C301.808 231.92 302.41 231.962 303.054 232.046C303.698 232.13 304.244 232.27 304.692 232.466V235.91C304.356 235.77 303.936 235.658 303.432 235.574C302.928 235.462 302.438 235.406 301.962 235.406C300.73 235.406 299.778 235.77 299.106 236.498C298.462 237.198 298.14 238.304 298.14 239.816V242.672L297.51 241.832H311.58V263H307.338V245.108H298.182V263H293.94ZM307.002 237.422V233.012H311.916V237.422H307.002ZM327.316 272.408C325.412 272.408 323.676 272.184 322.108 271.736C320.568 271.288 319.182 270.616 317.95 269.72L319 266.612C319.868 267.2 320.722 267.662 321.562 267.998C322.402 268.362 323.284 268.628 324.208 268.796C325.132 268.964 326.084 269.048 327.064 269.048C329.08 269.048 330.592 268.53 331.6 267.494C332.636 266.486 333.154 265.016 333.154 263.084V257.414H333.574C333.126 258.982 332.202 260.228 330.802 261.152C329.43 262.048 327.834 262.496 326.014 262.496C324.082 262.496 322.402 262.076 320.974 261.236C319.574 260.368 318.482 259.15 317.698 257.582C316.942 255.986 316.564 254.11 316.564 251.954C316.564 249.798 316.942 247.936 317.698 246.368C318.482 244.8 319.574 243.596 320.974 242.756C322.402 241.888 324.082 241.454 326.014 241.454C327.862 241.454 329.458 241.916 330.802 242.84C332.174 243.736 333.084 244.968 333.532 246.536L333.154 246.2L333.532 241.832H337.648C337.536 242.7 337.452 243.568 337.396 244.436C337.34 245.276 337.312 246.102 337.312 246.914V262.58C337.312 265.772 336.458 268.208 334.75 269.888C333.07 271.568 330.592 272.408 327.316 272.408ZM327.022 259.178C328.87 259.178 330.34 258.548 331.432 257.288C332.552 256.028 333.112 254.25 333.112 251.954C333.112 249.658 332.552 247.894 331.432 246.662C330.34 245.43 328.87 244.814 327.022 244.814C325.118 244.814 323.606 245.43 322.486 246.662C321.394 247.894 320.848 249.658 320.848 251.954C320.848 254.25 321.394 256.028 322.486 257.288C323.606 258.548 325.118 259.178 327.022 259.178ZM351.017 263.378C348.469 263.378 346.551 262.692 345.263 261.32C344.003 259.92 343.373 257.778 343.373 254.894V241.832H347.615V254.81C347.615 256.574 347.979 257.876 348.707 258.716C349.435 259.556 350.541 259.976 352.025 259.976C353.705 259.976 355.063 259.416 356.099 258.296C357.135 257.176 357.653 255.692 357.653 253.844V241.832H361.895V263H357.779V258.464H358.325C357.737 260.032 356.799 261.25 355.511 262.118C354.223 262.958 352.725 263.378 351.017 263.378ZM368.024 263V247.082C368.024 246.214 367.996 245.346 367.94 244.478C367.912 243.582 367.856 242.7 367.772 241.832H371.888L372.35 247.292H371.678C371.958 245.976 372.434 244.884 373.106 244.016C373.778 243.148 374.59 242.504 375.542 242.084C376.522 241.664 377.544 241.454 378.608 241.454C379.056 241.454 379.434 241.482 379.742 241.538C380.05 241.566 380.358 241.622 380.666 241.706L380.624 245.486C380.148 245.29 379.728 245.178 379.364 245.15C379.028 245.094 378.608 245.066 378.104 245.066C376.872 245.066 375.822 245.346 374.954 245.906C374.086 246.438 373.428 247.166 372.98 248.09C372.532 249.014 372.308 250.008 372.308 251.072V263H368.024ZM391.841 263.378C389.965 263.378 388.327 262.944 386.927 262.076C385.527 261.208 384.435 259.948 383.651 258.296C382.895 256.644 382.517 254.684 382.517 252.416C382.517 250.12 382.895 248.16 383.651 246.536C384.435 244.912 385.527 243.666 386.927 242.798C388.327 241.902 389.965 241.454 391.841 241.454C393.689 241.454 395.299 241.916 396.671 242.84C398.043 243.764 398.953 245.024 399.401 246.62H398.939L399.359 241.832H403.475C403.391 242.7 403.307 243.568 403.223 244.436C403.167 245.276 403.139 246.102 403.139 246.914V263H398.897V258.296H399.359C398.911 259.864 397.987 261.11 396.587 262.034C395.215 262.93 393.633 263.378 391.841 263.378ZM392.891 260.06C394.711 260.06 396.167 259.416 397.259 258.128C398.379 256.84 398.939 254.936 398.939 252.416C398.939 249.896 398.379 248.006 397.259 246.746C396.167 245.458 394.711 244.814 392.891 244.814C391.043 244.814 389.559 245.458 388.439 246.746C387.347 248.006 386.801 249.896 386.801 252.416C386.801 254.936 387.347 256.84 388.439 258.128C389.531 259.416 391.015 260.06 392.891 260.06ZM417.561 263.378C415.265 263.378 413.529 262.762 412.353 261.53C411.177 260.27 410.589 258.394 410.589 255.902V245.108H406.473V241.832H410.589V236.246L414.831 235.112V241.832H420.711V245.108H414.831V255.524C414.831 257.092 415.111 258.212 415.671 258.884C416.231 259.556 417.043 259.892 418.107 259.892C418.639 259.892 419.101 259.85 419.493 259.766C419.913 259.654 420.291 259.528 420.627 259.388V262.832C420.207 263 419.717 263.126 419.157 263.21C418.597 263.322 418.065 263.378 417.561 263.378ZM424.587 263V241.832H428.829V263H424.587ZM424.251 237.422V233.012H429.165V237.422H424.251ZM444.118 263.378C442.018 263.378 440.198 262.944 438.658 262.076C437.118 261.18 435.928 259.92 435.088 258.296C434.248 256.644 433.828 254.684 433.828 252.416C433.828 250.148 434.248 248.202 435.088 246.578C435.928 244.926 437.118 243.666 438.658 242.798C440.198 241.902 442.018 241.454 444.118 241.454C446.218 241.454 448.038 241.902 449.578 242.798C451.146 243.666 452.35 244.926 453.19 246.578C454.058 248.202 454.492 250.148 454.492 252.416C454.492 254.684 454.058 256.644 453.19 258.296C452.35 259.92 451.146 261.18 449.578 262.076C448.038 262.944 446.218 263.378 444.118 263.378ZM444.118 260.06C445.966 260.06 447.436 259.416 448.528 258.128C449.62 256.84 450.166 254.936 450.166 252.416C450.166 249.896 449.62 248.006 448.528 246.746C447.436 245.458 445.966 244.814 444.118 244.814C442.298 244.814 440.842 245.458 439.75 246.746C438.658 248.006 438.111 249.896 438.111 252.416C438.111 254.936 438.644 256.84 439.708 258.128C440.8 259.416 442.27 260.06 444.118 260.06ZM459.45 263V246.914C459.45 246.102 459.408 245.276 459.324 244.436C459.268 243.568 459.198 242.7 459.114 241.832H463.23L463.608 246.284H463.104C463.748 244.716 464.742 243.526 466.086 242.714C467.43 241.874 468.984 241.454 470.748 241.454C473.24 241.454 475.116 242.14 476.376 243.512C477.664 244.884 478.308 247.012 478.308 249.896V263H474.066V250.148C474.066 248.272 473.688 246.928 472.932 246.116C472.204 245.276 471.084 244.856 469.572 244.856C467.78 244.856 466.352 245.416 465.288 246.536C464.224 247.628 463.692 249.112 463.692 250.988V263H459.45Z" fill="#323130"/>
<path d="M782 30.75L795.875 16.875L782 3" stroke="#8A8886" stroke-width="4.11111" stroke-linecap="round" stroke-linejoin="round"/>
<path d="M418 201C500.5 51 589 7.49908 793 17" stroke="#8A8886" stroke-width="3"/>
<defs>
<clipPath id="clip0_104_51">
<rect width="553" height="589" fill="white" transform="translate(0 340)"/>
</clipPath>
</defs>
</svg>
