<svg width="14" height="14" viewBox="0 0 14 14" fill="none" xmlns="http://www.w3.org/2000/svg">
<path d="M4.66699 3.5H11.667V4.86111H4.66699V3.5ZM4.66699 6.41667H11.667V7.77778H4.66699V6.41667ZM4.66699 9.33333H11.667V10.6944H4.66699V9.33333Z" fill="#605BFF"/>
<path d="M2.33301 9.33333H3.69412V10.6944H2.33301V9.33333ZM2.33301 6.41667H3.69412V7.77778H2.33301V6.41667ZM2.33301 3.5H3.69412V4.86111H2.33301V3.5Z" fill="#605BFF"/>
<path d="M11.4719 4.86111H4.86079C4.80922 4.86111 4.75976 4.84063 4.72329 4.80416C4.68683 4.76769 4.66634 4.71824 4.66634 4.66667V3.69444C4.66634 3.64287 4.68683 3.59342 4.72329 3.55695C4.75976 3.52049 4.80922 3.5 4.86079 3.5H11.4719C11.5235 3.5 11.5729 3.52049 11.6094 3.55695C11.6459 3.59342 11.6663 3.64287 11.6663 3.69444V4.66667C11.6663 4.71824 11.6459 4.76769 11.6094 4.80416C11.5729 4.84063 11.5235 4.86111 11.4719 4.86111ZM11.4719 7.77778H4.86079C4.80922 7.77778 4.75976 7.75729 4.72329 7.72083C4.68683 7.68436 4.66634 7.6349 4.66634 7.58333V6.61111C4.66634 6.55954 4.68683 6.51008 4.72329 6.47362C4.75976 6.43715 4.80922 6.41667 4.86079 6.41667H11.4719C11.5235 6.41667 11.5729 6.43715 11.6094 6.47362C11.6459 6.51008 11.6663 6.55954 11.6663 6.61111V7.58333C11.6663 7.6349 11.6459 7.68436 11.6094 7.72083C11.5729 7.75729 11.5235 7.77778 11.4719 7.77778ZM11.4719 10.6944H4.86079C4.80922 10.6944 4.75976 10.674 4.72329 10.6375C4.68683 10.601 4.66634 10.5516 4.66634 10.5V9.52778C4.66634 9.47621 4.68683 9.42675 4.72329 9.39028C4.75976 9.35382 4.80922 9.33333 4.86079 9.33333H11.4719C11.5235 9.33333 11.5729 9.35382 11.6094 9.39028C11.6459 9.42675 11.6663 9.47621 11.6663 9.52778V10.5C11.6663 10.5516 11.6459 10.601 11.6094 10.6375C11.5729 10.674 11.5235 10.6944 11.4719 10.6944ZM3.49967 4.86111H2.52745C2.47588 4.86111 2.42642 4.84063 2.38996 4.80416C2.35349 4.76769 2.33301 4.71824 2.33301 4.66667V3.69444C2.33301 3.64287 2.35349 3.59342 2.38996 3.55695C2.42642 3.52049 2.47588 3.5 2.52745 3.5H3.49967C3.55124 3.5 3.6007 3.52049 3.63717 3.55695C3.67363 3.59342 3.69412 3.64287 3.69412 3.69444V4.66667C3.69412 4.71824 3.67363 4.76769 3.63717 4.80416C3.6007 4.84063 3.55124 4.86111 3.49967 4.86111ZM3.49967 7.77778H2.52745C2.47588 7.77778 2.42642 7.75729 2.38996 7.72083C2.35349 7.68436 2.33301 7.6349 2.33301 7.58333V6.61111C2.33301 6.55954 2.35349 6.51008 2.38996 6.47362C2.42642 6.43715 2.47588 6.41667 2.52745 6.41667H3.49967C3.55124 6.41667 3.6007 6.43715 3.63717 6.47362C3.67363 6.51008 3.69412 6.55954 3.69412 6.61111V7.58333C3.69412 7.6349 3.67363 7.68436 3.63717 7.72083C3.6007 7.75729 3.55124 7.77778 3.49967 7.77778ZM3.49967 10.6944H2.52745C2.47588 10.6944 2.42642 10.674 2.38996 10.6375C2.35349 10.601 2.33301 10.5516 2.33301 10.5V9.52778C2.33301 9.47621 2.35349 9.42675 2.38996 9.39028C2.42642 9.35382 2.47588 9.33333 2.52745 9.33333H3.49967C3.55124 9.33333 3.6007 9.35382 3.63717 9.39028C3.67363 9.42675 3.69412 9.47621 3.69412 9.52778V10.5C3.69412 10.5516 3.67363 10.601 3.63717 10.6375C3.6007 10.674 3.55124 10.6944 3.49967 10.6944Z" stroke="#605BFF" stroke-width="0.388889" stroke-miterlimit="10" stroke-linecap="round" stroke-linejoin="round"/>
</svg>
