<svg width="18" height="14" viewBox="0 0 18 14" fill="none" xmlns="http://www.w3.org/2000/svg">
<path d="M2 1H16" stroke="#212121" stroke-linecap="round"/>
<path d="M2 5H16" stroke="#212121" stroke-linecap="round"/>
<path d="M2 9H10.6154" stroke="#212121" stroke-linecap="round"/>
<path d="M2 13H10.6154" stroke="#212121" stroke-linecap="round"/>
<rect width="10" height="10" transform="translate(8 4)" fill="white"/>
<path d="M12.9982 10.2205C12.7567 10.2205 12.5207 10.1489 12.3199 10.0147C12.1192 9.88058 11.9627 9.68991 11.8703 9.46684C11.7779 9.24376 11.7537 8.99829 11.8008 8.76147C11.8479 8.52465 11.9642 8.30712 12.1349 8.13638C12.3057 7.96565 12.5232 7.84937 12.76 7.80227C12.9968 7.75516 13.2423 7.77934 13.4654 7.87174C13.6884 7.96414 13.8791 8.12062 14.0133 8.32138C14.1474 8.52215 14.219 8.75818 14.219 8.99964C14.219 9.32343 14.0904 9.63395 13.8614 9.8629C13.6325 10.0919 13.322 10.2205 12.9982 10.2205ZM12.9982 8.40381C12.8803 8.40381 12.7651 8.43875 12.6672 8.50423C12.5692 8.5697 12.4928 8.66275 12.4477 8.77163C12.4026 8.8805 12.3908 9.0003 12.4138 9.11588C12.4368 9.23146 12.4935 9.33763 12.5769 9.42096C12.6602 9.50429 12.7664 9.56104 12.8819 9.58403C12.9975 9.60702 13.1173 9.59522 13.2262 9.55012C13.3351 9.50502 13.4281 9.42865 13.4936 9.33067C13.5591 9.23269 13.594 9.11749 13.594 8.99964C13.594 8.84162 13.5312 8.69007 13.4195 8.57832C13.3078 8.46658 13.1562 8.40381 12.9982 8.40381V8.40381Z" fill="#212121"/>
<path d="M13.0241 12.6457C12.9023 12.6451 12.7817 12.6205 12.6695 12.5733C12.5572 12.526 12.4553 12.4571 12.3697 12.3703C12.2842 12.2836 12.2166 12.1808 12.1709 12.0679C12.1251 11.955 12.1022 11.8342 12.1033 11.7123C12.1016 11.6748 12.0894 11.6384 12.068 11.6074C12.0467 11.5765 12.017 11.5522 11.9824 11.5373C11.9442 11.5198 11.9016 11.514 11.8601 11.5207C11.8185 11.5273 11.7799 11.5462 11.7491 11.5748C11.5761 11.7465 11.3428 11.8437 11.0991 11.8457C10.8538 11.8472 10.6176 11.7531 10.4408 11.5832C10.3548 11.4973 10.2867 11.3953 10.2402 11.283C10.1937 11.1708 10.1697 11.0505 10.1697 10.929C10.1697 10.8075 10.1937 10.6872 10.2402 10.575C10.2867 10.4627 10.3548 10.3607 10.4408 10.2748C10.4701 10.2481 10.4912 10.2134 10.5016 10.175C10.5119 10.1366 10.5111 10.0961 10.4991 10.0582C10.4788 10.023 10.4497 9.99374 10.4146 9.97328C10.3795 9.95282 10.3397 9.94187 10.2991 9.9415C10.0539 9.94054 9.81873 9.84442 9.64306 9.67342C9.46739 9.50241 9.36498 9.26988 9.35742 9.02484C9.35797 8.90336 9.38243 8.78319 9.42943 8.67117C9.47642 8.55915 9.54501 8.45749 9.63129 8.37198C9.71757 8.28647 9.81985 8.2188 9.93229 8.17282C10.0447 8.12684 10.1651 8.10346 10.2866 8.104C10.3242 8.10236 10.3605 8.09015 10.3915 8.06877C10.4224 8.0474 10.4467 8.01773 10.4616 7.98317C10.4791 7.94493 10.4849 7.90235 10.4783 7.86081C10.4716 7.81927 10.4527 7.78065 10.4241 7.74984C10.2524 7.57684 10.1552 7.34356 10.1533 7.09984C10.1511 6.97817 10.1732 6.8573 10.2183 6.74427C10.2634 6.63125 10.3305 6.52832 10.4158 6.4415C10.5017 6.35558 10.6036 6.28742 10.7159 6.24092C10.8281 6.19442 10.9484 6.17048 11.0699 6.17048C11.1914 6.17048 11.3117 6.19442 11.424 6.24092C11.5362 6.28742 11.6382 6.35558 11.7241 6.4415C11.7541 6.47005 11.7909 6.4904 11.831 6.50062C11.8712 6.51083 11.9133 6.51056 11.9533 6.49984C11.9897 6.47987 12.0206 6.45112 12.0432 6.4162C12.0657 6.38128 12.0792 6.34128 12.0824 6.29984C12.0823 6.05396 12.1779 5.8177 12.3491 5.64114C12.5202 5.46457 12.7533 5.36159 12.9991 5.354C13.1206 5.35509 13.2406 5.3801 13.3524 5.42759C13.4643 5.47509 13.5656 5.54414 13.6507 5.63081C13.7359 5.71748 13.8031 5.82007 13.8485 5.93271C13.894 6.04536 13.9169 6.16586 13.9158 6.28734C13.9173 6.32546 13.929 6.36249 13.9494 6.39469C13.9699 6.42688 13.9986 6.45309 14.0324 6.47067C14.0692 6.48417 14.109 6.48703 14.1473 6.47893C14.1857 6.47082 14.2209 6.45207 14.2491 6.42484C14.4221 6.25315 14.6554 6.15595 14.8991 6.154C15.021 6.15018 15.1423 6.17152 15.2556 6.21669C15.3689 6.26185 15.4716 6.32987 15.5574 6.4165C15.6433 6.5024 15.7115 6.60438 15.758 6.71663C15.8045 6.82887 15.8284 6.94918 15.8284 7.07067C15.8284 7.19217 15.8045 7.31247 15.758 7.42471C15.7115 7.53696 15.6433 7.63894 15.5574 7.72484C15.531 7.75604 15.513 7.79343 15.505 7.83351C15.4969 7.87359 15.4992 7.91505 15.5116 7.954C15.5316 7.99046 15.5603 8.02137 15.5952 8.04392C15.6301 8.06648 15.6701 8.07997 15.7116 8.08317C15.9553 8.08628 16.1884 8.18334 16.3623 8.35412C16.5362 8.52491 16.6374 8.75622 16.6449 8.99984C16.6438 9.12131 16.6188 9.24138 16.5713 9.35319C16.5238 9.465 16.4548 9.56636 16.3681 9.65148C16.2814 9.7366 16.1789 9.80382 16.0662 9.84929C15.9536 9.89476 15.8331 9.9176 15.7116 9.9165C15.6735 9.91808 15.6364 9.92971 15.6042 9.95019C15.572 9.97068 15.5458 9.9993 15.5283 10.0332V10.0332C15.5148 10.0699 15.5119 10.1098 15.52 10.1481C15.5281 10.1864 15.5469 10.2217 15.5741 10.2498C15.7458 10.4228 15.843 10.6561 15.8449 10.8998C15.8471 11.0215 15.8249 11.1424 15.7799 11.2554C15.7348 11.3684 15.6677 11.4714 15.5824 11.5582C15.4965 11.6441 15.3945 11.7123 15.2823 11.7588C15.1701 11.8053 15.0497 11.8292 14.9283 11.8292C14.8068 11.8292 14.6865 11.8053 14.5742 11.7588C14.462 11.7123 14.36 11.6441 14.2741 11.5582C14.2459 11.5309 14.2107 11.5122 14.1723 11.5041C14.134 11.496 14.0942 11.4988 14.0574 11.5123C14.0223 11.5326 13.993 11.5618 13.9725 11.5968C13.9521 11.6319 13.9411 11.6717 13.9408 11.7123C13.9376 11.956 13.8406 12.1891 13.6698 12.363C13.499 12.5369 13.2677 12.6382 13.0241 12.6457ZM11.8949 10.8915C12.0054 10.8902 12.1149 10.913 12.2158 10.9582C12.3646 11.0202 12.4922 11.1241 12.5832 11.2572C12.6741 11.3903 12.7245 11.547 12.7283 11.7082C12.7271 11.7885 12.7574 11.8662 12.8126 11.9246C12.8679 11.9829 12.9438 12.0174 13.0241 12.0207C13.1044 12.0143 13.1793 11.9776 13.2334 11.918C13.2876 11.8584 13.3171 11.7804 13.3158 11.6998C13.3167 11.5381 13.3634 11.3799 13.4504 11.2435C13.5374 11.1071 13.6612 10.9981 13.8074 10.929C13.9596 10.8657 14.1271 10.8489 14.2888 10.8808C14.4504 10.9127 14.599 10.9918 14.7158 11.1082C14.771 11.1634 14.8459 11.1945 14.9241 11.1945C15.0022 11.1945 15.0772 11.1634 15.1324 11.1082C15.1877 11.0529 15.2187 10.978 15.2187 10.8998C15.2187 10.8217 15.1877 10.7468 15.1324 10.6915C15.0168 10.5743 14.9385 10.4255 14.9073 10.2638C14.8762 10.1022 14.8936 9.93493 14.9574 9.78317C15.0231 9.63696 15.1296 9.51281 15.2641 9.42561C15.3987 9.3384 15.5555 9.29184 15.7158 9.2915C15.795 9.29266 15.8716 9.26282 15.9292 9.20834C15.9868 9.15386 16.0208 9.07905 16.0241 8.99984C16.0187 8.91916 15.9823 8.8437 15.9225 8.78931C15.8627 8.73492 15.7841 8.70584 15.7033 8.70817C15.5402 8.70374 15.3815 8.65378 15.2453 8.56396C15.1091 8.47413 15.0007 8.34801 14.9324 8.19984C14.8701 8.04615 14.8538 7.87763 14.8856 7.71485C14.9174 7.55207 14.996 7.40207 15.1116 7.28317C15.1389 7.25581 15.1606 7.22333 15.1755 7.18759C15.1903 7.15184 15.1979 7.11353 15.1979 7.07484C15.1979 7.03615 15.1903 6.99783 15.1755 6.96209C15.1606 6.92634 15.1389 6.89386 15.1116 6.8665C15.0842 6.83915 15.0517 6.81744 15.016 6.80264C14.9803 6.78783 14.9419 6.78021 14.9033 6.78021C14.8646 6.78021 14.8263 6.78783 14.7905 6.80264C14.7548 6.81744 14.7223 6.83915 14.6949 6.8665C14.5778 6.97531 14.4318 7.04812 14.2744 7.07624C14.117 7.10437 13.9549 7.08663 13.8073 7.02514C13.6597 6.96365 13.5329 6.861 13.4421 6.72944C13.3512 6.59788 13.3002 6.44296 13.2949 6.28317C13.2961 6.2039 13.2662 6.12732 13.2118 6.06972C13.1573 6.01213 13.0825 5.97809 13.0033 5.97484C12.9226 5.98019 12.8471 6.01661 12.7927 6.07644C12.7383 6.13627 12.7093 6.21485 12.7116 6.29567C12.7072 6.45877 12.6572 6.61739 12.5674 6.7536C12.4776 6.88981 12.3514 6.99819 12.2033 7.0665C12.0496 7.12886 11.881 7.14513 11.7183 7.11331C11.5555 7.08149 11.4055 7.00297 11.2866 6.88734C11.2592 6.85998 11.2268 6.83828 11.191 6.82347C11.1553 6.80866 11.1169 6.80104 11.0783 6.80104C11.0396 6.80104 11.0013 6.80866 10.9655 6.82347C10.9298 6.83828 10.8973 6.85998 10.8699 6.88734C10.8426 6.9147 10.8209 6.94718 10.8061 6.98292C10.7912 7.01867 10.7836 7.05698 10.7836 7.09567C10.7836 7.13436 10.7912 7.17267 10.8061 7.20842C10.8209 7.24417 10.8426 7.27665 10.8699 7.304C10.9849 7.42165 11.0624 7.57068 11.0928 7.73232C11.1232 7.89395 11.1051 8.06097 11.0408 8.21234C10.9787 8.36116 10.8748 8.48879 10.7417 8.57976C10.6086 8.67073 10.4519 8.72112 10.2908 8.72484C10.2104 8.72369 10.1327 8.75397 10.0744 8.80923C10.016 8.86448 9.98151 8.94036 9.97826 9.02067C9.9846 9.10097 10.0213 9.17584 10.0809 9.23003C10.1405 9.28421 10.2185 9.31365 10.2991 9.31234C10.4608 9.31333 10.619 9.36001 10.7554 9.447C10.8918 9.53398 11.0008 9.65774 11.0699 9.804C11.1332 9.95616 11.15 10.1237 11.1181 10.2853C11.0862 10.447 11.0071 10.5956 10.8908 10.7123C10.8634 10.7397 10.8417 10.7722 10.8269 10.8079C10.8121 10.8437 10.8045 10.882 10.8045 10.9207C10.8045 10.9594 10.8121 10.9977 10.8269 11.0334C10.8417 11.0692 10.8634 11.1016 10.8908 11.129C10.9181 11.1564 10.9506 11.1781 10.9863 11.1929C11.0221 11.2077 11.0604 11.2153 11.0991 11.2153C11.1378 11.2153 11.1761 11.2077 11.2118 11.1929C11.2476 11.1781 11.2801 11.1564 11.3074 11.129C11.4658 10.9778 11.676 10.8928 11.8949 10.8915V10.8915Z" fill="#212121"/>
</svg>
