<svg width="16" height="16" viewBox="0 0 16 16" fill="none" xmlns="http://www.w3.org/2000/svg">
<g clip-path="url(#clip0_18_106680)">
<path d="M9.71317 3.99888V2.85603C9.71317 2.55292 9.59276 2.26223 9.37843 2.0479C9.16411 1.83358 8.87342 1.71317 8.57031 1.71317H7.42745M4.57031 11.9989H1.71317C1.41007 11.9989 1.11937 11.8785 0.905048 11.6641C0.69072 11.4498 0.570313 11.1591 0.570312 10.856V2.85603C0.570312 2.55292 0.69072 2.26223 0.905048 2.0479C1.11937 1.83358 1.41007 1.71317 1.71317 1.71317H2.85603M9.71317 9.71317H13.1417M9.71317 11.9989H13.1417M14.2846 6.2846H8.57031C8.26721 6.2846 7.97652 6.40501 7.76219 6.61933C7.54786 6.83366 7.42745 7.12435 7.42745 7.42745V14.2846C7.42745 14.5877 7.54786 14.8784 7.76219 15.0927C7.97652 15.307 8.26721 15.4275 8.57031 15.4275H14.2846C14.5877 15.4275 14.8784 15.307 15.0927 15.0927C15.307 14.8784 15.4275 14.5877 15.4275 14.2846V7.42745C15.4275 7.12435 15.307 6.83366 15.0927 6.61933C14.8784 6.40501 14.5877 6.2846 14.2846 6.2846ZM7.71317 0.570312H2.57031L3.03888 2.42174C3.06743 2.54566 3.1373 2.65617 3.237 2.7351C3.3367 2.81403 3.46029 2.85668 3.58746 2.85603H6.69603C6.82319 2.85668 6.94678 2.81403 7.04648 2.7351C7.14618 2.65617 7.21605 2.54566 7.2446 2.42174L7.71317 0.570312Z" stroke="#212121" stroke-linecap="round" stroke-linejoin="round"/>
</g>
<defs>
<clipPath id="clip0_18_106680">
<rect width="16" height="16" fill="white"/>
</clipPath>
</defs>
</svg>
