<svg width="25" height="24" viewBox="0 0 25 24" fill="none" xmlns="http://www.w3.org/2000/svg">
<path d="M13.343 13.4625L13.35 13.4297C13.4859 12.8695 13.657 12.1711 13.5234 11.5383C13.4344 11.0391 13.0664 10.8445 12.7523 10.8305C12.382 10.8141 12.0516 11.025 11.9695 11.332C11.8148 11.8945 11.9531 12.6633 12.2062 13.643C11.8875 14.4023 11.3789 15.5062 11.0063 16.1625C10.3125 16.5211 9.38203 17.0742 9.24375 17.7727C9.21562 17.9016 9.24844 18.0656 9.32578 18.2133C9.4125 18.3773 9.55078 18.5039 9.7125 18.5648C9.78281 18.5906 9.86719 18.6117 9.96563 18.6117C10.3781 18.6117 11.0461 18.2789 11.9367 16.7508C12.0727 16.7063 12.2133 16.6594 12.3492 16.6125C12.9867 16.3969 13.6477 16.1719 14.2453 16.0711C14.9062 16.425 15.6586 16.6523 16.1695 16.6523C16.6758 16.6523 16.875 16.3523 16.95 16.1719C17.0813 15.8555 17.018 15.457 16.8047 15.2438C16.4953 14.9391 15.743 14.8594 14.5711 15.0047C13.9945 14.6531 13.6172 14.175 13.343 13.4625ZM10.7719 17.0227C10.4461 17.4961 10.2 17.7328 10.0664 17.8359C10.2234 17.5477 10.5305 17.243 10.7719 17.0227ZM12.825 11.5031C12.9469 11.7117 12.9305 12.3422 12.8367 12.6609C12.7219 12.1945 12.7055 11.5336 12.7734 11.4562C12.7922 11.4586 12.8086 11.4727 12.825 11.5031ZM12.7875 14.3273C13.0383 14.7609 13.3547 15.1336 13.7039 15.4102C13.1977 15.525 12.7359 15.7148 12.3234 15.8836C12.225 15.9234 12.1289 15.9633 12.0352 16.0008C12.3469 15.4359 12.607 14.7961 12.7875 14.3273V14.3273ZM16.4344 15.8625C16.4367 15.8672 16.4391 15.8742 16.425 15.8836H16.4203L16.4156 15.8906C16.3969 15.9023 16.2047 16.0148 15.3773 15.6891C16.3289 15.6445 16.432 15.8602 16.4344 15.8625V15.8625ZM20.9203 6.76406L15.8766 1.72031C15.7359 1.57969 15.5461 1.5 15.3469 1.5H5.39062C4.97578 1.5 4.64062 1.83516 4.64062 2.25V21.75C4.64062 22.1648 4.97578 22.5 5.39062 22.5H20.3906C20.8055 22.5 21.1406 22.1648 21.1406 21.75V7.29609C21.1406 7.09687 21.0609 6.90469 20.9203 6.76406V6.76406ZM19.4109 7.64062H15V3.22969L19.4109 7.64062ZM19.4531 20.8125H6.32812V3.1875H13.4062V8.25C13.4062 8.51107 13.51 8.76145 13.6946 8.94606C13.8792 9.13066 14.1296 9.23438 14.3906 9.23438H19.4531V20.8125Z" fill="#212121"/>
</svg>
