<svg width="24" height="24" viewBox="0 0 24 24" fill="none" xmlns="http://www.w3.org/2000/svg">
<path d="M4.20974 20.52C4.1135 20.521 4.01802 20.503 3.92877 20.4669C3.83953 20.4309 3.7583 20.3776 3.68974 20.31C3.61115 20.2324 3.55067 20.1383 3.51264 20.0346C3.47461 19.9309 3.45996 19.82 3.46974 19.71L3.77974 15.87C3.79304 15.6917 3.87132 15.5244 3.99974 15.4L15.0597 4.34001C15.676 3.76292 16.4959 3.45367 17.3397 3.48001C18.1781 3.48651 18.9826 3.81187 19.5897 4.39001C20.1721 4.98801 20.507 5.78396 20.5274 6.61843C20.5478 7.4529 20.2522 8.26427 19.6997 8.89001L8.62974 20C8.50585 20.1235 8.34361 20.201 8.16974 20.22L4.27974 20.57L4.20974 20.52ZM5.20974 16.26L4.99974 19L7.73974 18.75L18.6397 7.83001C18.8523 7.57849 18.9881 7.27124 19.0312 6.94479C19.0742 6.61833 19.0226 6.28637 18.8826 5.98836C18.7425 5.69034 18.5199 5.43879 18.2411 5.2636C17.9623 5.0884 17.639 4.99691 17.3097 5.00001C17.0933 4.98627 16.8764 5.01639 16.6719 5.08856C16.4674 5.16073 16.2796 5.27347 16.1197 5.42001L5.20974 16.26Z" fill="#212121"/>
</svg>
