<svg width="8" height="14" viewBox="0 0 8 14" fill="none" xmlns="http://www.w3.org/2000/svg">
<path d="M0.846653 14C0.756441 13.9995 0.667229 13.9811 0.584234 13.9457C0.460432 13.8951 0.354619 13.8086 0.280431 13.6973C0.206243 13.586 0.167078 13.4551 0.167984 13.3213V0.652851C0.172887 0.524073 0.214354 0.399353 0.287535 0.293276C0.360717 0.187199 0.462589 0.104151 0.581236 0.0538446C0.699883 0.00353825 0.830401 -0.0119472 0.957526 0.00919967C1.08465 0.0303465 1.20313 0.0872511 1.2991 0.173259L7.63334 6.5075C7.76043 6.63475 7.83182 6.80724 7.83182 6.98709C7.83182 7.16694 7.76043 7.33943 7.63334 7.46668L1.2991 13.8009C1.17768 13.9203 1.01673 13.9912 0.846653 14ZM1.52532 2.2907V11.6835L6.22171 6.98709L1.52532 2.2907Z" fill="#6C757D"/>
</svg>
