<svg width="25" height="24" viewBox="0 0 25 24" fill="none" xmlns="http://www.w3.org/2000/svg">
<path d="M8.42969 9.0625H16.4297C16.9601 9.0625 17.4688 9.27321 17.8439 9.64829C18.219 10.0234 18.4297 10.5321 18.4297 11.0625V14.5625C18.4296 15.7872 18.0208 16.9769 17.2682 17.943C16.5156 18.9092 15.4621 19.5967 14.2747 19.8965C14.388 20.1253 14.4411 20.3792 14.4289 20.6342C14.4167 20.8892 14.3396 21.1369 14.205 21.3538C14.0703 21.5707 13.8825 21.7496 13.6593 21.8736C13.4361 21.9977 13.185 22.0627 12.9297 22.0625H11.9297C11.6744 22.0627 11.4233 21.9977 11.2001 21.8736C10.9769 21.7496 10.7891 21.5707 10.6544 21.3538C10.5197 21.1369 10.4426 20.8892 10.4304 20.6342C10.4182 20.3792 10.4713 20.1253 10.5847 19.8965C9.39725 19.5967 8.34379 18.9092 7.59117 17.943C6.83856 16.9769 6.42981 15.7872 6.42969 14.5625V11.0625C6.42969 10.5321 6.6404 10.0234 7.01547 9.64829C7.39055 9.27321 7.89925 9.0625 8.42969 9.0625ZM10.4297 8.0625H8.42969V3.0625C8.42969 2.79728 8.53504 2.54293 8.72258 2.35539C8.91012 2.16786 9.16447 2.0625 9.42969 2.0625C9.6949 2.0625 9.94926 2.16786 10.1368 2.35539C10.3243 2.54293 10.4297 2.79728 10.4297 3.0625V8.0625ZM16.4297 8.0625H14.4297V3.0625C14.4297 2.79728 14.535 2.54293 14.7226 2.35539C14.9101 2.16786 15.1645 2.0625 15.4297 2.0625C15.6949 2.0625 15.9493 2.16786 16.1368 2.35539C16.3243 2.54293 16.4297 2.79728 16.4297 3.0625V8.0625Z" fill="#616161"/>
</svg>
