<svg width="21" height="21" viewBox="0 0 21 21" fill="none" xmlns="http://www.w3.org/2000/svg">
<path d="M10.6562 9.84375V10.3438H11.1562H16.6206C16.6629 10.3449 16.7031 10.3621 16.733 10.392C16.7626 10.4217 16.7798 10.4614 16.7812 10.5032C16.7804 10.5435 16.764 10.5819 16.7355 10.6105C16.7062 10.6398 16.6664 10.6562 16.625 10.6562H11.1562H10.6562V11.1562V16.625C10.6562 16.6664 10.6398 16.7062 10.6105 16.7355C10.5819 16.764 10.5435 16.7804 10.5032 16.7812C10.4614 16.7798 10.4217 16.7626 10.392 16.733C10.3621 16.7031 10.3449 16.6629 10.3438 16.6206V11.1562V10.6562H9.84375H4.375C4.33356 10.6562 4.29382 10.6398 4.26451 10.6105C4.23521 10.5812 4.21875 10.5414 4.21875 10.5C4.21875 10.4586 4.23521 10.4188 4.26451 10.3895C4.29382 10.3602 4.33356 10.3438 4.375 10.3438H9.84375H10.3438V9.84375V4.375C10.3438 4.33356 10.3602 4.29382 10.3895 4.26451C10.4188 4.23521 10.4586 4.21875 10.5 4.21875C10.5414 4.21875 10.5812 4.23521 10.6105 4.26451C10.6398 4.29382 10.6562 4.33356 10.6562 4.375V9.84375Z" fill="white" stroke="white"/>
</svg>
