<svg width="41" height="40" viewBox="0 0 41 40" fill="none" xmlns="http://www.w3.org/2000/svg">
<path d="M32.1562 27.9219H8.82292C8.05072 27.9175 7.31139 27.6088 6.76536 27.0628C6.21932 26.5167 5.91063 25.7774 5.90625 25.0052V8.33854C5.91063 7.56634 6.21932 6.82702 6.76536 6.28098C7.31139 5.73495 8.05072 5.42625 8.82292 5.42188H32.1562C32.9284 5.42625 33.6678 5.73495 34.2138 6.28098C34.7598 6.82702 35.0685 7.56634 35.0729 8.33854V25.0052C35.0685 25.7774 34.7598 26.5167 34.2138 27.0628C33.6678 27.6088 32.9284 27.9175 32.1562 27.9219V27.9219ZM8.82292 7.92187C8.71241 7.92187 8.60643 7.96577 8.52829 8.04391C8.45015 8.12205 8.40625 8.22803 8.40625 8.33854V25.0052C8.40625 25.1157 8.45015 25.2217 8.52829 25.2998C8.60643 25.378 8.71241 25.4219 8.82292 25.4219H32.1562C32.2668 25.4219 32.3727 25.378 32.4509 25.2998C32.529 25.2217 32.5729 25.1157 32.5729 25.0052V8.33854C32.5729 8.22803 32.529 8.12205 32.4509 8.04391C32.3727 7.96577 32.2668 7.92187 32.1562 7.92187H8.82292Z" fill="#212121"/>
<path d="M25.4883 34.5885H20.4883C20.1581 34.5842 19.8427 34.4511 19.6092 34.2177C19.3757 33.9842 19.2426 33.6687 19.2383 33.3385V26.6719C19.2383 26.3404 19.37 26.0224 19.6044 25.788C19.8388 25.5536 20.1568 25.4219 20.4883 25.4219C20.8198 25.4219 21.1377 25.5536 21.3722 25.788C21.6066 26.0224 21.7383 26.3404 21.7383 26.6719V32.0885H25.4883C25.8198 32.0885 26.1377 32.2202 26.3722 32.4547C26.6066 32.6891 26.7383 33.007 26.7383 33.3385C26.7383 33.6701 26.6066 33.988 26.3722 34.2224C26.1377 34.4568 25.8198 34.5885 25.4883 34.5885Z" fill="#212121"/>
<path d="M20.4883 34.5859H15.4883C15.1568 34.5859 14.8388 34.4542 14.6044 34.2198C14.37 33.9854 14.2383 33.6675 14.2383 33.3359C14.2383 33.0044 14.37 32.6865 14.6044 32.4521C14.8388 32.2176 15.1568 32.0859 15.4883 32.0859H20.4883C20.8198 32.0859 21.1377 32.2176 21.3722 32.4521C21.6066 32.6865 21.7383 33.0044 21.7383 33.3359C21.7383 33.6675 21.6066 33.9854 21.3722 34.2198C21.1377 34.4542 20.8198 34.5859 20.4883 34.5859Z" fill="#212121"/>
<path d="M20.9401 23.0156C16.0818 23.0156 13.7984 17.8573 13.6984 17.6406C13.6654 17.5614 13.6484 17.4764 13.6484 17.3906C13.6484 17.3048 13.6654 17.2198 13.6984 17.1406C13.7984 16.924 16.0818 11.7656 20.9401 11.7656C25.7984 11.7656 28.0818 16.924 28.1818 17.1406C28.2148 17.2198 28.2318 17.3048 28.2318 17.3906C28.2318 17.4764 28.2148 17.5614 28.1818 17.6406C28.0818 17.8573 25.7984 23.0156 20.9401 23.0156ZM14.9651 17.3906C15.4568 18.349 17.4651 21.7656 20.9401 21.7656C24.4151 21.7656 26.4234 18.349 26.9151 17.3906C26.4234 16.4323 24.4151 13.0156 20.9401 13.0156C17.4651 13.0156 15.4568 16.4323 14.9651 17.3906Z" fill="#212121"/>
<path d="M20.9388 20.0964C20.4031 20.0964 19.8795 19.9375 19.4341 19.6399C18.9888 19.3423 18.6416 18.9193 18.4366 18.4245C18.2316 17.9296 18.178 17.385 18.2825 16.8597C18.387 16.3343 18.645 15.8517 19.0237 15.4729C19.4025 15.0942 19.8851 14.8362 20.4104 14.7317C20.9358 14.6272 21.4804 14.6809 21.9752 14.8858C22.4701 15.0908 22.8931 15.438 23.1907 15.8834C23.4883 16.3287 23.6471 16.8524 23.6471 17.388C23.6449 18.1056 23.3589 18.7932 22.8515 19.3007C22.344 19.8081 21.6564 20.0942 20.9388 20.0964ZM20.9388 15.9297C20.6504 15.9297 20.3684 16.0152 20.1286 16.1755C19.8888 16.3357 19.7019 16.5635 19.5915 16.8299C19.4811 17.0964 19.4522 17.3896 19.5085 17.6725C19.5648 17.9554 19.7037 18.2153 19.9076 18.4192C20.1116 18.6232 20.3714 18.7621 20.6543 18.8183C20.9372 18.8746 21.2304 18.8457 21.4969 18.7353C21.7634 18.625 21.9911 18.4381 22.1514 18.1982C22.3116 17.9584 22.3971 17.6765 22.3971 17.388C22.3949 17.0019 22.2406 16.6323 21.9676 16.3592C21.6946 16.0862 21.3249 15.9319 20.9388 15.9297Z" fill="#212121"/>
</svg>
