<svg width="24" height="24" viewBox="0 0 24 24" fill="none" xmlns="http://www.w3.org/2000/svg">
<path d="M16.53 5.46997C16.4613 5.39628 16.3785 5.33718 16.2865 5.29619C16.1945 5.2552 16.0952 5.23316 15.9945 5.23138C15.8938 5.2296 15.7938 5.24813 15.7004 5.28585C15.607 5.32357 15.5222 5.37971 15.451 5.45093C15.3797 5.52215 15.3236 5.60698 15.2859 5.70037C15.2482 5.79376 15.2296 5.89379 15.2314 5.99449C15.2332 6.0952 15.2552 6.19451 15.2962 6.28651C15.3372 6.37851 15.3963 6.46131 15.47 6.52997L16.53 5.46997ZM19 8.99997L19.53 9.52997C19.6705 9.38934 19.7493 9.19872 19.7493 8.99997C19.7493 8.80122 19.6705 8.6106 19.53 8.46997L19 8.99997ZM15.47 11.47C15.3963 11.5386 15.3372 11.6214 15.2962 11.7134C15.2552 11.8054 15.2332 11.9047 15.2314 12.0054C15.2296 12.1062 15.2482 12.2062 15.2859 12.2996C15.3236 12.393 15.3797 12.4778 15.451 12.549C15.5222 12.6202 15.607 12.6764 15.7004 12.7141C15.7938 12.7518 15.8938 12.7703 15.9945 12.7686C16.0952 12.7668 16.1945 12.7447 16.2865 12.7038C16.3785 12.6628 16.4613 12.6037 16.53 12.53L15.47 11.47ZM19 17.75C19.1989 17.75 19.3897 17.671 19.5303 17.5303C19.671 17.3896 19.75 17.1989 19.75 17C19.75 16.8011 19.671 16.6103 19.5303 16.4696C19.3897 16.329 19.1989 16.25 19 16.25V17.75ZM15.47 6.52997L18.47 9.52997L19.53 8.46997L16.53 5.46997L15.47 6.52997ZM18.47 8.46997L15.47 11.47L16.53 12.53L19.53 9.52997L18.47 8.46997ZM19 8.24997H8V9.74997H19V8.24997ZM3.25 13C3.25 14.2597 3.75045 15.4679 4.64124 16.3587C5.53204 17.2495 6.74022 17.75 8 17.75V16.25C7.13805 16.25 6.3114 15.9076 5.7019 15.2981C5.09241 14.6886 4.75 13.8619 4.75 13H3.25ZM8 8.24997C6.74022 8.24997 5.53204 8.75042 4.64124 9.64121C3.75045 10.532 3.25 11.7402 3.25 13H4.75C4.75 12.138 5.09241 11.3114 5.7019 10.7019C6.3114 10.0924 7.13805 9.74997 8 9.74997V8.24997ZM19 16.25H8V17.75H19V16.25Z" fill="#212121"/>
</svg>
