<svg width="12" height="14" viewBox="0 0 12 14" fill="none" xmlns="http://www.w3.org/2000/svg">
<path d="M5.99986 14C4.46325 14 2.98957 13.3895 1.90302 12.303C0.816472 11.2164 0.206055 9.74277 0.206055 8.20616C0.206055 6.66955 0.816472 5.19587 1.90302 4.10932C2.98957 3.02277 4.46325 2.41235 5.99986 2.41235H7.99772C8.15668 2.41235 8.30913 2.4755 8.42154 2.5879C8.53394 2.7003 8.59708 2.85275 8.59708 3.01171C8.59708 3.17067 8.53394 3.32312 8.42154 3.43552C8.30913 3.54793 8.15668 3.61107 7.99772 3.61107H5.99986C5.09104 3.61107 4.20263 3.88057 3.44697 4.38548C2.69131 4.8904 2.10234 5.60805 1.75455 6.4477C1.40676 7.28734 1.31576 8.21126 1.49307 9.10262C1.67037 9.99398 2.10801 10.8127 2.75064 11.4554C3.39328 12.098 4.21204 12.5357 5.1034 12.713C5.99476 12.8903 6.91868 12.7993 7.75832 12.4515C8.59797 12.1037 9.31562 11.5147 9.82054 10.7591C10.3255 10.0034 10.5949 9.11498 10.5949 8.20616C10.5949 8.0472 10.6581 7.89475 10.7705 7.78235C10.8829 7.66995 11.0353 7.6068 11.1943 7.6068C11.3533 7.6068 11.5057 7.66995 11.6181 7.78235C11.7305 7.89475 11.7937 8.0472 11.7937 8.20616C11.7916 9.74212 11.1805 11.2146 10.0944 12.3007C9.00827 13.3868 7.53582 13.9979 5.99986 14Z" fill="#6C757D"/>
<path d="M6.00005 6.00854C5.9213 6.00891 5.84327 5.99355 5.77054 5.96336C5.69781 5.93317 5.63184 5.88876 5.57651 5.83273C5.46426 5.72035 5.40122 5.56801 5.40122 5.40918C5.40122 5.25035 5.46426 5.09802 5.57651 4.98564L7.55039 3.01175L5.57651 1.03786C5.51762 0.982986 5.47039 0.916817 5.43763 0.843296C5.40487 0.769775 5.38726 0.690409 5.38584 0.609933C5.38442 0.529456 5.39922 0.449519 5.42936 0.374888C5.45951 0.300257 5.50438 0.232462 5.56129 0.175548C5.61821 0.118634 5.686 0.0737664 5.76063 0.0436218C5.83526 0.0134773 5.9152 -0.00132663 5.99567 9.32772e-05C6.07615 0.00151319 6.15552 0.019128 6.22904 0.0518865C6.30256 0.0846451 6.36873 0.131876 6.4236 0.190763L8.82104 2.5882C8.93328 2.70058 8.99632 2.85292 8.99632 3.01175C8.99632 3.17058 8.93328 3.32291 8.82104 3.43529L6.4236 5.83273C6.36826 5.88876 6.30229 5.93317 6.22956 5.96336C6.15683 5.99355 6.0788 6.00891 6.00005 6.00854Z" fill="#212121"/>
</svg>
