<svg width="25" height="24" viewBox="0 0 25 24" fill="none" xmlns="http://www.w3.org/2000/svg">
<path fill-rule="evenodd" clip-rule="evenodd" d="M12.9453 4C15.3389 4 17.3918 5.0787 18.7522 7H14.9453V9H21.9453V2H19.9453V5.27035C18.2202 3.18251 15.7495 2 12.9453 2C7.42246 2 2.94531 6.47715 2.94531 12H4.94531C4.94531 7.58172 8.52703 4 12.9453 4ZM12.9453 20C10.5517 20 8.49885 18.9213 7.13838 17H10.9453V15H3.94531V22H5.94531V18.7297C7.67042 20.8175 10.1411 22 12.9453 22C18.4682 22 22.9453 17.5228 22.9453 12H20.9453C20.9453 16.4183 17.3636 20 12.9453 20Z" fill="#212121"/>
</svg>
