<svg width="28" height="28" viewBox="0 0 28 28" fill="none" xmlns="http://www.w3.org/2000/svg">
<path d="M15.75 5.25H8.75C7.7875 5.25 7 6.0375 7 7V21C7 21.9625 7.7875 22.75 8.75 22.75H19.25C20.2125 22.75 21 21.9625 21 21V10.5L15.75 5.25ZM19.25 21H8.75V7H14.875V11.375H19.25V21ZM11.375 14.875V20.125H9.625V14.875H11.375ZM16.625 16.625V20.125H18.375V16.625H16.625ZM13.125 13.125V20.125H14.875V13.125H13.125Z" fill="#212121"/>
<rect x="27" y="1" width="26" height="26" rx="7" transform="rotate(90 27 1)" stroke="#212121" stroke-width="2"/>
</svg>
