<svg width="24" height="24" viewBox="0 0 24 24" fill="none" xmlns="http://www.w3.org/2000/svg">
<rect x="0.5" y="0.5" width="23" height="23" rx="3.5" stroke="#605BFF"/>
<path d="M18.22 20.75H5.78C5.43321 20.7359 5.09262 20.6535 4.7777 20.5075C4.46279 20.3616 4.17974 20.155 3.94475 19.8996C3.70976 19.6442 3.52745 19.3449 3.40823 19.019C3.28902 18.693 3.23525 18.3468 3.25 18V15C3.25 14.8011 3.32901 14.6103 3.46967 14.4697C3.61032 14.329 3.80108 14.25 4 14.25C4.19891 14.25 4.38968 14.329 4.53033 14.4697C4.67098 14.6103 4.75 14.8011 4.75 15V18C4.72418 18.2969 4.81364 18.5924 4.99983 18.8251C5.18602 19.0579 5.45464 19.21 5.75 19.25H18.22C18.5153 19.21 18.784 19.0579 18.9702 18.8251C19.1564 18.5924 19.2458 18.2969 19.22 18V15C19.22 14.8011 19.299 14.6103 19.4397 14.4697C19.5803 14.329 19.7711 14.25 19.97 14.25C20.1689 14.25 20.3597 14.329 20.5003 14.4697C20.641 14.6103 20.72 14.8011 20.72 15V18C20.7499 18.6954 20.5041 19.3744 20.0359 19.8894C19.5677 20.4045 18.9151 20.7137 18.22 20.75Z" fill="#605BFF"/>
<path d="M12 15.7498C11.9015 15.7503 11.8038 15.7311 11.7128 15.6933C11.6218 15.6555 11.5392 15.6 11.47 15.5298L7.47 11.5298C7.33752 11.3877 7.2654 11.1996 7.26882 11.0053C7.27225 10.811 7.35096 10.6256 7.48838 10.4882C7.62579 10.3508 7.81118 10.2721 8.00548 10.2687C8.19978 10.2652 8.38782 10.3374 8.53 10.4698L12 13.9398L15.47 10.4698C15.6122 10.3374 15.8002 10.2652 15.9945 10.2687C16.1888 10.2721 16.3742 10.3508 16.5116 10.4882C16.649 10.6256 16.7277 10.811 16.7312 11.0053C16.7346 11.1996 16.6625 11.3877 16.53 11.5298L12.53 15.5298C12.4608 15.6 12.3782 15.6555 12.2872 15.6933C12.1962 15.7311 12.0985 15.7503 12 15.7498V15.7498Z" fill="#605BFF"/>
<path d="M12 15.75C11.8019 15.7474 11.6126 15.6676 11.4725 15.5275C11.3324 15.3874 11.2526 15.1981 11.25 15V4C11.25 3.80109 11.329 3.61032 11.4697 3.46967C11.6103 3.32902 11.8011 3.25 12 3.25C12.1989 3.25 12.3897 3.32902 12.5303 3.46967C12.671 3.61032 12.75 3.80109 12.75 4V15C12.7474 15.1981 12.6676 15.3874 12.5275 15.5275C12.3874 15.6676 12.1981 15.7474 12 15.75V15.75Z" fill="#605BFF"/>
</svg>
