<svg width="24" height="24" viewBox="0 0 24 24" fill="none" xmlns="http://www.w3.org/2000/svg">
<path d="M15.5 10.7C15.2613 10.7 15.0324 10.6052 14.8636 10.4364C14.6948 10.2676 14.6 10.0387 14.6 9.8C14.6 9.56131 14.6948 9.33239 14.8636 9.1636C15.0324 8.99482 15.2613 8.9 15.5 8.9C15.7387 8.9 15.9676 8.99482 16.1364 9.1636C16.3052 9.33239 16.4 9.56131 16.4 9.8C16.4 10.0387 16.3052 10.2676 16.1364 10.4364C15.9676 10.6052 15.7387 10.7 15.5 10.7ZM15.5 14.3C15.2613 14.3 15.0324 14.2052 14.8636 14.0364C14.6948 13.8676 14.6 13.6387 14.6 13.4C14.6 13.1613 14.6948 12.9324 14.8636 12.7636C15.0324 12.5948 15.2613 12.5 15.5 12.5C15.7387 12.5 15.9676 12.5948 16.1364 12.7636C16.3052 12.9324 16.4 13.1613 16.4 13.4C16.4 13.6387 16.3052 13.8676 16.1364 14.0364C15.9676 14.2052 15.7387 14.3 15.5 14.3ZM14.6 17C14.6 17.2387 14.6948 17.4676 14.8636 17.6364C15.0324 17.8052 15.2613 17.9 15.5 17.9C15.7387 17.9 15.9676 17.8052 16.1364 17.6364C16.3052 17.4676 16.4 17.2387 16.4 17C16.4 16.7613 16.3052 16.5324 16.1364 16.3636C15.9676 16.1948 15.7387 16.1 15.5 16.1C15.2613 16.1 15.0324 16.1948 14.8636 16.3636C14.6948 16.5324 14.6 16.7613 14.6 17ZM13.4 9.8C13.4 9.64087 13.3368 9.48826 13.2243 9.37574C13.1117 9.26321 12.9591 9.2 12.8 9.2H8.6C8.44087 9.2 8.28826 9.26321 8.17574 9.37574C8.06321 9.48826 8 9.64087 8 9.8C8 9.95913 8.06321 10.1117 8.17574 10.2243C8.28826 10.3368 8.44087 10.4 8.6 10.4H12.8C12.9591 10.4 13.1117 10.3368 13.2243 10.2243C13.3368 10.1117 13.4 9.95913 13.4 9.8ZM13.4 13.4C13.4 13.2409 13.3368 13.0883 13.2243 12.9757C13.1117 12.8632 12.9591 12.8 12.8 12.8H8.6C8.44087 12.8 8.28826 12.8632 8.17574 12.9757C8.06321 13.0883 8 13.2409 8 13.4C8 13.5591 8.06321 13.7117 8.17574 13.8243C8.28826 13.9368 8.44087 14 8.6 14H12.8C12.9591 14 13.1117 13.9368 13.2243 13.8243C13.3368 13.7117 13.4 13.5591 13.4 13.4ZM13.4 17C13.4 16.8409 13.3368 16.6883 13.2243 16.5757C13.1117 16.4632 12.9591 16.4 12.8 16.4H8.6C8.44087 16.4 8.28826 16.4632 8.17574 16.5757C8.06321 16.6883 8 16.8409 8 17C8 17.1591 8.06321 17.3117 8.17574 17.4243C8.28826 17.5368 8.44087 17.6 8.6 17.6H12.8C12.9591 17.6 13.1117 17.5368 13.2243 17.4243C13.3368 17.3117 13.4 17.1591 13.4 17ZM10.4 2C10.0276 1.99981 9.66432 2.11511 9.36021 2.33003C9.0561 2.54495 8.82613 2.84891 8.702 3.2H6.8C6.32261 3.2 5.86477 3.38964 5.52721 3.72721C5.18964 4.06477 5 4.52261 5 5V19.4C5 19.8774 5.18964 20.3352 5.52721 20.6728C5.86477 21.0104 6.32261 21.2 6.8 21.2H17.6C18.0774 21.2 18.5352 21.0104 18.8728 20.6728C19.2104 20.3352 19.4 19.8774 19.4 19.4V5C19.4 4.52261 19.2104 4.06477 18.8728 3.72721C18.5352 3.38964 18.0774 3.2 17.6 3.2H15.698C15.5739 2.84891 15.3439 2.54495 15.0398 2.33003C14.7357 2.11511 14.3724 1.99981 14 2H10.4ZM9.8 3.8C9.8 3.64087 9.86321 3.48826 9.97574 3.37574C10.0883 3.26321 10.2409 3.2 10.4 3.2H14C14.1591 3.2 14.3117 3.26321 14.4243 3.37574C14.5368 3.48826 14.6 3.64087 14.6 3.8C14.6 3.95913 14.5368 4.11174 14.4243 4.22426C14.3117 4.33679 14.1591 4.4 14 4.4H10.4C10.2409 4.4 10.0883 4.33679 9.97574 4.22426C9.86321 4.11174 9.8 3.95913 9.8 3.8ZM6.8 4.4H8.702C8.82613 4.75109 9.0561 5.05505 9.36021 5.26997C9.66432 5.48489 10.0276 5.6002 10.4 5.6H14C14.3724 5.6002 14.7357 5.48489 15.0398 5.26997C15.3439 5.05505 15.5739 4.75109 15.698 4.4H17.6C17.7591 4.4 17.9117 4.46321 18.0243 4.57574C18.1368 4.68826 18.2 4.84087 18.2 5V19.4C18.2 19.5591 18.1368 19.7117 18.0243 19.8243C17.9117 19.9368 17.7591 20 17.6 20H6.8C6.64087 20 6.48826 19.9368 6.37574 19.8243C6.26321 19.7117 6.2 19.5591 6.2 19.4V5C6.2 4.84087 6.26321 4.68826 6.37574 4.57574C6.48826 4.46321 6.64087 4.4 6.8 4.4V4.4Z" fill="#212121"/>
</svg>
