<svg preserveAspectRatio="xMidYMid meet" viewBox="0 0 60 96" fill="none" xmlns="http://www.w3.org/2000/svg">
<path d="M1.93596 38.3081C3.60249 37.3587 5.24881 36.2881 7.04664 35.4195C10.5338 33.8658 14.4251 33.4625 18.1568 34.2681C23.9543 35.4195 28.7418 38.3889 33.2464 41.9947C32.5293 41.5099 28.4489 39.7222 25.5198 42.3179C25.3077 42.4997 17.4397 48.5901 13.6319 51.3272C9.82418 54.0644 4.5418 52.519 1.82486 48.8224C-1.30619 44.5601 1.79456 38.5909 1.93596 38.3081Z" fill="url(#paint0_linear_0_1)"/>
<path d="M57.2342 38.3079L57.2948 38.3786L38.256 4.97735C37.355 3.44636 36.0661 2.18008 34.5194 1.30629C32.9727 0.432502 31.2229 -0.0178954 29.4466 0.00054428C27.6702 0.018984 25.9302 0.505608 24.4019 1.41132C22.8737 2.31703 21.6114 3.60979 20.7424 5.15916C20.7424 5.15916 15.2378 14.9866 13.5006 18.0166C13.5713 17.9156 13.642 17.8348 13.7127 17.7439C12.7228 19.3802 2.32979 37.5907 1.92578 38.3079C3.57992 37.2601 5.28563 36.296 7.03646 35.4192C10.5237 33.8655 14.4149 33.4622 18.1466 34.2678C22.6689 35.2547 26.9241 37.2083 30.6203 39.9946L42.6496 49.317C42.6496 49.317 50.9822 56.4376 57.3251 48.8221C58.5671 47.347 59.2405 45.4764 59.2238 43.5482C59.2072 41.62 58.5015 39.7613 57.2342 38.3079Z" fill="white"/>
<path d="M18.0755 80.0616C18.1181 80.1348 18.152 80.2128 18.1765 80.2939C18.1879 80.3811 18.1879 80.4693 18.1765 80.5565C18.1785 80.678 18.1544 80.7986 18.1058 80.91C18.0519 81.0214 17.9723 81.1184 17.8735 81.1928C17.782 81.284 17.6663 81.3471 17.5402 81.3746C17.4156 81.4277 17.2816 81.4552 17.1463 81.4554C16.9469 81.4619 16.7501 81.4092 16.5806 81.3039C16.4205 81.1839 16.295 81.0236 16.217 80.8393C14.6885 77.3985 12.3924 72.1902 9.32873 65.2144L2.46063 80.8393C2.38295 81.0296 2.24906 81.1917 2.07682 81.3039C1.91318 81.4054 1.72394 81.4579 1.53141 81.4554C1.38941 81.456 1.2487 81.4285 1.11731 81.3746C0.997295 81.3232 0.885097 81.2552 0.784004 81.1726C0.677015 81.0889 0.590636 80.9818 0.5315 80.8595C0.478376 80.7488 0.447493 80.6287 0.440599 80.506C0.428655 80.429 0.428655 80.3507 0.440599 80.2737C0.459533 80.2015 0.48315 80.1307 0.5113 80.0616L8.14702 63.1842C8.19435 63.0683 8.26285 62.9621 8.34902 62.8711C8.43752 62.7828 8.53578 62.7049 8.64192 62.6388C8.73251 62.5742 8.83578 62.5294 8.94493 62.5075C9.06361 62.4759 9.18572 62.459 9.30853 62.457C9.4315 62.4568 9.5539 62.4738 9.67214 62.5075C9.79538 62.5487 9.91389 62.6029 10.0256 62.6691C10.1333 62.7287 10.2291 62.8074 10.3084 62.9014C10.3958 62.9755 10.4591 63.074 10.4903 63.1842C11.7629 66.0056 13.0254 68.8235 14.2778 71.6381C15.5302 74.4526 16.7961 77.2605 18.0755 80.0616Z" fill="white"/>
<path d="M34.9426 62.6488C35.1034 62.5492 35.2888 62.4967 35.4779 62.4973C35.7633 62.4919 36.0404 62.5927 36.2556 62.7801C36.3533 62.861 36.4313 62.9631 36.4838 63.0785C36.5363 63.194 36.5619 63.3199 36.5587 63.4467C36.5599 63.591 36.5252 63.7333 36.4577 63.8608L28.8825 80.728C28.7909 80.9528 28.6276 81.141 28.4179 81.2634C28.2069 81.3872 27.9657 81.4502 27.721 81.4452C27.4863 81.4472 27.2556 81.3843 27.0544 81.2634C26.8319 81.1483 26.6568 80.9589 26.5595 80.728C24.8963 77.0045 22.378 71.3921 19.0046 63.8911C18.9577 63.7686 18.9337 63.6385 18.9339 63.5073C18.9302 63.3698 18.9616 63.2336 19.0252 63.1116C19.0889 62.9897 19.1826 62.886 19.2975 62.8104C19.5024 62.6258 19.7691 62.5249 20.0449 62.5276C20.2409 62.5198 20.4345 62.5729 20.5991 62.6796C20.7637 62.7863 20.8911 62.9414 20.964 63.1235C22.479 66.5373 24.7482 71.6648 27.7715 78.506C28.9027 75.9473 31.1618 70.8198 34.5487 63.1235C34.6369 62.9339 34.7726 62.7704 34.9426 62.6488Z" fill="white"/>
<path d="M40.377 72.0023C40.371 70.7353 40.6254 69.4805 41.1244 68.3158C41.5977 67.1858 42.2834 66.1572 43.1444 65.2857C44.0132 64.4214 45.0425 63.7352 46.1745 63.2657C47.3392 62.7726 48.5912 62.5186 49.856 62.5186C51.1208 62.5186 52.3727 62.7726 53.5375 63.2657C54.6695 63.7352 55.6988 64.4214 56.5675 65.2857C57.4285 66.1572 58.1143 67.1858 58.5876 68.3158C59.0865 69.4805 59.3409 70.7353 59.335 72.0023C59.3314 73.2693 59.0631 74.5216 58.5472 75.6788C57.5843 77.9547 55.7729 79.7661 53.4971 80.7289C52.3307 81.2337 51.0713 81.4883 49.8004 81.4763C48.5428 81.4854 47.2973 81.2308 46.1442 80.7289C45.0143 80.2553 43.9858 79.5696 43.1141 78.7088C42.2514 77.8388 41.5654 76.8098 41.0941 75.6788C40.6024 74.5164 40.3582 73.2643 40.377 72.0023ZM42.397 72.0023C42.3914 73.0028 42.5944 73.9935 42.9929 74.9112C43.7426 76.6792 45.1415 78.0926 46.9017 78.8603C47.8228 79.2535 48.814 79.4561 49.8156 79.4561C50.8171 79.4561 51.8083 79.2535 52.7295 78.8603C54.5201 78.1027 55.9467 76.6797 56.7089 74.891C57.1021 73.9734 57.3048 72.9855 57.3048 71.9872C57.3048 70.9889 57.1021 70.001 56.7089 69.0834C56.332 68.1929 55.7867 67.3836 55.103 66.6998C54.4203 66.0195 53.6149 65.4745 52.7295 65.0938C51.8066 64.7074 50.8161 64.5084 49.8156 64.5084C48.8151 64.5084 47.8246 64.7074 46.9017 65.0938C46.0162 65.4745 45.2109 66.0195 44.5281 66.6998C43.8445 67.3836 43.2992 68.1929 42.9222 69.0834C42.5328 69.9997 42.3368 70.9866 42.3465 71.9821L42.397 72.0023Z" fill="white"/>
<path d="M10.4148 93H9.30682L12.5114 84.2727H13.6023L16.8068 93H15.6989L13.0909 85.6534H13.0227L10.4148 93ZM10.8239 89.5909H15.2898V90.5284H10.8239V89.5909ZM22.6662 87.9205L21.7628 88.1761C21.706 88.0256 21.6222 87.8793 21.5114 87.7372C21.4034 87.5923 21.2557 87.473 21.0682 87.3793C20.8807 87.2855 20.6406 87.2386 20.348 87.2386C19.9474 87.2386 19.6136 87.331 19.3466 87.5156C19.0824 87.6974 18.9503 87.929 18.9503 88.2102C18.9503 88.4602 19.0412 88.6577 19.223 88.8026C19.4048 88.9474 19.6889 89.0682 20.0753 89.1648L21.0469 89.4034C21.6321 89.5455 22.0682 89.7628 22.3551 90.0554C22.642 90.3452 22.7855 90.7187 22.7855 91.1761C22.7855 91.5511 22.6776 91.8864 22.4616 92.1818C22.2486 92.4773 21.9503 92.7102 21.5668 92.8807C21.1832 93.0511 20.7372 93.1364 20.2287 93.1364C19.5611 93.1364 19.0085 92.9915 18.571 92.7017C18.1335 92.4119 17.8565 91.9886 17.7401 91.4318L18.6946 91.1932C18.7855 91.5455 18.9574 91.8097 19.2102 91.9858C19.4659 92.1619 19.7997 92.25 20.2116 92.25C20.6804 92.25 21.0526 92.1506 21.3281 91.9517C21.6065 91.75 21.7457 91.5085 21.7457 91.2273C21.7457 91 21.6662 90.8097 21.5071 90.6562C21.348 90.5 21.1037 90.3835 20.7741 90.3068L19.6832 90.0511C19.0838 89.9091 18.6435 89.6889 18.3622 89.3906C18.0838 89.0895 17.9446 88.7131 17.9446 88.2614C17.9446 87.892 18.0483 87.5653 18.2557 87.2812C18.4659 86.9972 18.7514 86.7741 19.1122 86.6122C19.4759 86.4503 19.8878 86.3693 20.348 86.3693C20.9957 86.3693 21.5043 86.5114 21.8736 86.7955C22.2457 87.0795 22.5099 87.4545 22.6662 87.9205ZM28.9357 87.9205L28.0323 88.1761C27.9755 88.0256 27.8917 87.8793 27.7809 87.7372C27.6729 87.5923 27.5252 87.473 27.3377 87.3793C27.1502 87.2855 26.9102 87.2386 26.6175 87.2386C26.217 87.2386 25.8832 87.331 25.6161 87.5156C25.3519 87.6974 25.2198 87.929 25.2198 88.2102C25.2198 88.4602 25.3107 88.6577 25.4925 88.8026C25.6744 88.9474 25.9585 89.0682 26.3448 89.1648L27.3164 89.4034C27.9016 89.5455 28.3377 89.7628 28.6246 90.0554C28.9116 90.3452 29.055 90.7187 29.055 91.1761C29.055 91.5511 28.9471 91.8864 28.7312 92.1818C28.5181 92.4773 28.2198 92.7102 27.8363 92.8807C27.4528 93.0511 27.0067 93.1364 26.4982 93.1364C25.8306 93.1364 25.2781 92.9915 24.8406 92.7017C24.4031 92.4119 24.1261 91.9886 24.0096 91.4318L24.9641 91.1932C25.055 91.5455 25.2269 91.8097 25.4798 91.9858C25.7354 92.1619 26.0692 92.25 26.4812 92.25C26.9499 92.25 27.3221 92.1506 27.5977 91.9517C27.8761 91.75 28.0153 91.5085 28.0153 91.2273C28.0153 91 27.9357 90.8097 27.7766 90.6562C27.6175 90.5 27.3732 90.3835 27.0437 90.3068L25.9528 90.0511C25.3533 89.9091 24.913 89.6889 24.6317 89.3906C24.3533 89.0895 24.2141 88.7131 24.2141 88.2614C24.2141 87.892 24.3178 87.5653 24.5252 87.2812C24.7354 86.9972 25.021 86.7741 25.3817 86.6122C25.7454 86.4503 26.1573 86.3693 26.6175 86.3693C27.2653 86.3693 27.7738 86.5114 28.1431 86.7955C28.5153 87.0795 28.7795 87.4545 28.9357 87.9205ZM34.6939 90.3239V86.4545H35.6996V93H34.6939V91.892H34.6257C34.4723 92.2244 34.2337 92.5071 33.9098 92.7401C33.5859 92.9702 33.1768 93.0852 32.6825 93.0852C32.2734 93.0852 31.9098 92.9957 31.5916 92.8168C31.2734 92.6349 31.0234 92.3622 30.8416 91.9986C30.6598 91.6321 30.5689 91.1705 30.5689 90.6136V86.4545H31.5746V90.5455C31.5746 91.0227 31.7081 91.4034 31.9751 91.6875C32.245 91.9716 32.5888 92.1136 33.0064 92.1136C33.2564 92.1136 33.5107 92.0497 33.7692 91.9219C34.0305 91.794 34.2493 91.598 34.4254 91.3338C34.6044 91.0696 34.6939 90.733 34.6939 90.3239ZM37.5415 93V86.4545H38.5131V87.4432H38.5813C38.7006 87.1193 38.9165 86.8565 39.229 86.6548C39.5415 86.4531 39.8938 86.3523 40.2859 86.3523C40.3597 86.3523 40.4521 86.3537 40.5629 86.3565C40.6737 86.3594 40.7575 86.3636 40.8143 86.3693V87.392C40.7802 87.3835 40.7021 87.3707 40.5799 87.3537C40.4606 87.3338 40.3342 87.3239 40.2006 87.3239C39.8825 87.3239 39.5984 87.3906 39.3484 87.5241C39.1012 87.6548 38.9052 87.8366 38.7603 88.0696C38.6183 88.2997 38.5472 88.5625 38.5472 88.858V93H37.5415ZM44.5515 93.1364C43.9208 93.1364 43.3768 92.9972 42.9194 92.7188C42.4648 92.4375 42.114 92.0455 41.8668 91.5426C41.6225 91.0369 41.5004 90.4489 41.5004 89.7784C41.5004 89.108 41.6225 88.517 41.8668 88.0057C42.114 87.4915 42.4577 87.0909 42.8981 86.804C43.3413 86.5142 43.8583 86.3693 44.4492 86.3693C44.7901 86.3693 45.1268 86.4261 45.4592 86.5398C45.7915 86.6534 46.0941 86.8381 46.3668 87.0938C46.6396 87.3466 46.8569 87.6818 47.0188 88.0994C47.1808 88.517 47.2617 89.0312 47.2617 89.642V90.0682H42.2163V89.1989H46.239C46.239 88.8295 46.1651 88.5 46.0174 88.2102C45.8725 87.9205 45.6651 87.6918 45.3952 87.5241C45.1282 87.3565 44.8129 87.2727 44.4492 87.2727C44.0487 87.2727 43.7021 87.3722 43.4094 87.571C43.1197 87.767 42.8967 88.0227 42.7404 88.3381C42.5842 88.6534 42.506 88.9915 42.506 89.3523V89.9318C42.506 90.4261 42.5913 90.8452 42.7617 91.1889C42.935 91.5298 43.1751 91.7898 43.4819 91.9688C43.7887 92.1449 44.1452 92.233 44.5515 92.233C44.8157 92.233 45.0543 92.196 45.2674 92.1222C45.4833 92.0455 45.6694 91.9318 45.8256 91.7812C45.9819 91.6278 46.1026 91.4375 46.1879 91.2102L47.1594 91.483C47.0572 91.8125 46.8853 92.1023 46.6438 92.3523C46.4023 92.5994 46.104 92.7926 45.7489 92.9318C45.3938 93.0682 44.9947 93.1364 44.5515 93.1364Z" fill="white"/>
<defs>
<linearGradient id="paint0_linear_0_1" x1="9.14747" y1="43.8026" x2="48.326" y2="34.7327" gradientUnits="userSpaceOnUse">
<stop stop-color="white"/>
<stop offset="1" stop-color="#534F47"/>
</linearGradient>
</defs>
</svg>
