<svg width="24" height="24" viewBox="0 0 24 24" fill="none" xmlns="http://www.w3.org/2000/svg">
<path d="M13.75 3.25H6.75C5.7875 3.25 5 4.0375 5 5V19C5 19.9625 5.7875 20.75 6.75 20.75H17.25C18.2125 20.75 19 19.9625 19 19V8.5L13.75 3.25ZM17.25 19H6.75V5H12.875V9.375H17.25V19ZM9.375 12.875V18.125H7.625V12.875H9.375ZM14.625 14.625V18.125H16.375V14.625H14.625ZM11.125 11.125V18.125H12.875V11.125H11.125Z" fill="#605BFF"/>
<rect x="13" y="13" width="8" height="8" rx="4" fill="white"/>
<path d="M17 19.25C15.0567 19.25 14.1433 17.1867 14.1033 17.1C14.0901 17.0683 14.0833 17.0343 14.0833 17C14.0833 16.9657 14.0901 16.9317 14.1033 16.9C14.1433 16.8133 15.0567 14.75 17 14.75C18.9433 14.75 19.8567 16.8133 19.8967 16.9C19.9099 16.9317 19.9167 16.9657 19.9167 17C19.9167 17.0343 19.9099 17.0683 19.8967 17.1C19.8567 17.1867 18.9433 19.25 17 19.25ZM14.61 17C14.8067 17.3833 15.61 18.75 17 18.75C18.39 18.75 19.1933 17.3833 19.39 17C19.1933 16.6167 18.39 15.25 17 15.25C15.61 15.25 14.8067 16.6167 14.61 17Z" fill="#605BFF"/>
<path d="M17 18.0832C16.7857 18.0832 16.5763 18.0196 16.3981 17.9006C16.22 17.7816 16.0811 17.6124 15.9991 17.4144C15.9171 17.2165 15.8957 16.9986 15.9375 16.7885C15.9793 16.5783 16.0825 16.3853 16.234 16.2338C16.3855 16.0823 16.5785 15.9791 16.7886 15.9373C16.9988 15.8955 17.2166 15.917 17.4146 15.999C17.6125 16.081 17.7817 16.2198 17.9007 16.398C18.0198 16.5761 18.0833 16.7856 18.0833 16.9998C18.0824 17.2869 17.968 17.5619 17.7651 17.7649C17.5621 17.9679 17.287 18.0823 17 18.0832ZM17 16.4165C16.8846 16.4165 16.7718 16.4507 16.6759 16.5148C16.58 16.5789 16.5052 16.67 16.4611 16.7766C16.4169 16.8832 16.4054 17.0005 16.4279 17.1136C16.4504 17.2268 16.5059 17.3307 16.5875 17.4123C16.6691 17.4939 16.773 17.5495 16.8862 17.572C16.9993 17.5945 17.1166 17.5829 17.2232 17.5388C17.3298 17.4946 17.4209 17.4198 17.485 17.3239C17.5491 17.228 17.5833 17.1152 17.5833 16.9998C17.5824 16.8454 17.5207 16.6975 17.4115 16.5883C17.3023 16.4791 17.1544 16.4174 17 16.4165Z" fill="#605BFF"/>
</svg>
