<svg width="24" height="24" viewBox="0 0 24 24" fill="none" xmlns="http://www.w3.org/2000/svg">
<path d="M8.50278 3.59844H6.60078C6.12339 3.59844 5.66555 3.78808 5.32799 4.12565C4.99042 4.46321 4.80078 4.92105 4.80078 5.39844V19.7984C4.80078 20.2758 4.99042 20.7337 5.32799 21.0712C5.66555 21.4088 6.12339 21.5984 6.60078 21.5984H17.4008C17.8782 21.5984 18.336 21.4088 18.6736 21.0712C19.0111 20.7337 19.2008 20.2758 19.2008 19.7984V5.39844C19.2008 4.92105 19.0111 4.46321 18.6736 4.12565C18.336 3.78808 17.8782 3.59844 17.4008 3.59844H15.4988C15.3747 3.24734 15.1447 2.94339 14.8406 2.72847C14.5365 2.51355 14.1732 2.39824 13.8008 2.39844H10.2008C9.82839 2.39824 9.4651 2.51355 9.16099 2.72847C8.85688 2.94339 8.62691 3.24734 8.50278 3.59844ZM10.2008 3.59844H13.8008C13.9599 3.59844 14.1125 3.66165 14.225 3.77417C14.3376 3.8867 14.4008 4.03931 14.4008 4.19844C14.4008 4.35757 14.3376 4.51018 14.225 4.6227C14.1125 4.73522 13.9599 4.79844 13.8008 4.79844H10.2008C10.0417 4.79844 9.88904 4.73522 9.77652 4.6227C9.66399 4.51018 9.60078 4.35757 9.60078 4.19844C9.60078 4.03931 9.66399 3.8867 9.77652 3.77417C9.88904 3.66165 10.0417 3.59844 10.2008 3.59844ZM10.8008 10.1984C10.8008 10.0393 10.864 9.8867 10.9765 9.77417C11.089 9.66165 11.2417 9.59844 11.4008 9.59844H15.6008C15.7599 9.59844 15.9125 9.66165 16.025 9.77417C16.1376 9.8867 16.2008 10.0393 16.2008 10.1984C16.2008 10.3576 16.1376 10.5102 16.025 10.6227C15.9125 10.7352 15.7599 10.7984 15.6008 10.7984H11.4008C11.2417 10.7984 11.089 10.7352 10.9765 10.6227C10.864 10.5102 10.8008 10.3576 10.8008 10.1984ZM10.8008 13.7984C10.8008 13.6393 10.864 13.4867 10.9765 13.3742C11.089 13.2617 11.2417 13.1984 11.4008 13.1984H15.6008C15.7599 13.1984 15.9125 13.2617 16.025 13.3742C16.1376 13.4867 16.2008 13.6393 16.2008 13.7984C16.2008 13.9576 16.1376 14.1102 16.025 14.2227C15.9125 14.3352 15.7599 14.3984 15.6008 14.3984H11.4008C11.2417 14.3984 11.089 14.3352 10.9765 14.2227C10.864 14.1102 10.8008 13.9576 10.8008 13.7984ZM10.8008 17.3984C10.8008 17.2393 10.864 17.0867 10.9765 16.9742C11.089 16.8617 11.2417 16.7984 11.4008 16.7984H15.6008C15.7599 16.7984 15.9125 16.8617 16.025 16.9742C16.1376 17.0867 16.2008 17.2393 16.2008 17.3984C16.2008 17.5576 16.1376 17.7102 16.025 17.8227C15.9125 17.9352 15.7599 17.9984 15.6008 17.9984H11.4008C11.2417 17.9984 11.089 17.9352 10.9765 17.8227C10.864 17.7102 10.8008 17.5576 10.8008 17.3984ZM9.60078 10.1984C9.60078 10.4371 9.50596 10.6661 9.33718 10.8348C9.16839 11.0036 8.93948 11.0984 8.70078 11.0984C8.46209 11.0984 8.23317 11.0036 8.06438 10.8348C7.8956 10.6661 7.80078 10.4371 7.80078 10.1984C7.80078 9.95974 7.8956 9.73082 8.06438 9.56204C8.23317 9.39326 8.46209 9.29844 8.70078 9.29844C8.93948 9.29844 9.16839 9.39326 9.33718 9.56204C9.50596 9.73082 9.60078 9.95974 9.60078 10.1984ZM9.60078 13.7984C9.60078 14.0371 9.50596 14.2661 9.33718 14.4348C9.16839 14.6036 8.93948 14.6984 8.70078 14.6984C8.46209 14.6984 8.23317 14.6036 8.06438 14.4348C7.8956 14.2661 7.80078 14.0371 7.80078 13.7984C7.80078 13.5597 7.8956 13.3308 8.06438 13.162C8.23317 12.9933 8.46209 12.8984 8.70078 12.8984C8.93948 12.8984 9.16839 12.9933 9.33718 13.162C9.50596 13.3308 9.60078 13.5597 9.60078 13.7984ZM8.70078 18.2984C8.46209 18.2984 8.23317 18.2036 8.06438 18.0348C7.8956 17.8661 7.80078 17.6371 7.80078 17.3984C7.80078 17.1597 7.8956 16.9308 8.06438 16.762C8.23317 16.5933 8.46209 16.4984 8.70078 16.4984C8.93948 16.4984 9.16839 16.5933 9.33718 16.762C9.50596 16.9308 9.60078 17.1597 9.60078 17.3984C9.60078 17.6371 9.50596 17.8661 9.33718 18.0348C9.16839 18.2036 8.93948 18.2984 8.70078 18.2984Z" fill="#605BFF"/>
</svg>
