<svg width="35" height="35" viewBox="0 0 56 60" fill="none" xmlns="http://www.w3.org/2000/svg">
<rect x="0.864198" y="32.321" width="54.2716" height="26.2716" rx="7.77778" fill="white" stroke="white" stroke-width="1.7284"/>
<rect x="9.8642" y="0.864198" width="35.6049" height="41.1358" rx="7.77778" fill="#5F338F" stroke="white" stroke-width="1.7284"/>
<rect x="10" y="45" width="35" height="6" rx="3" fill="#5F338F"/>
<rect x="7.25928" y="35.6049" width="40.7901" height="7.25926" fill="white"/>
<path d="M19.7392 17.3C19.7392 17.756 19.6227 18.1309 19.3896 18.4248C19.1565 18.7085 18.8829 18.8859 18.5688 18.9568C18.8829 19.0277 19.1565 19.2152 19.3896 19.5192C19.6227 19.8131 19.7392 20.1829 19.7392 20.6288V23.2888C19.7392 23.7043 19.8355 24.0235 20.028 24.2464C20.2205 24.4693 20.4688 24.5808 20.7728 24.5808H21.4872V25.7664H20.5752C19.8051 25.7664 19.2173 25.5739 18.812 25.1888C18.4168 24.8139 18.2192 24.2616 18.2192 23.532V20.948C18.2192 20.4717 18.1432 20.1272 17.9912 19.9144C17.8392 19.7016 17.5707 19.5496 17.1856 19.4584L16.7144 19.3216V18.6224L17.1856 18.4856C17.5707 18.3944 17.8392 18.2424 17.9912 18.0296C18.1432 17.8168 18.2192 17.4723 18.2192 16.996V14.412C18.2192 13.6925 18.4269 13.1403 18.8424 12.7552C19.268 12.3701 19.8456 12.1776 20.5752 12.1776H21.4872V13.3632H20.7728C20.4688 13.3632 20.2205 13.4747 20.028 13.6976C19.8355 13.9205 19.7392 14.2397 19.7392 14.6552V17.3Z" fill="white"/>
<path d="M39.0201 18.6224V19.3216L38.5337 19.4584C38.1385 19.5496 37.8649 19.7016 37.7129 19.9144C37.571 20.1272 37.5001 20.4717 37.5001 20.948V23.532C37.5001 24.2616 37.2974 24.8139 36.8921 25.1888C36.4867 25.5739 35.9041 25.7664 35.1441 25.7664H34.2321V24.5808H34.9617C35.2657 24.5808 35.5089 24.4693 35.6913 24.2464C35.8838 24.0235 35.9801 23.7043 35.9801 23.2888V20.6288C35.9801 20.1829 36.0966 19.8131 36.3297 19.5192C36.5627 19.2152 36.8363 19.0277 37.1505 18.9568C36.8363 18.8859 36.5627 18.7085 36.3297 18.4248C36.0966 18.1309 35.9801 17.756 35.9801 17.3V14.6552C35.9801 14.2397 35.8838 13.9205 35.6913 13.6976C35.5089 13.4747 35.2657 13.3632 34.9617 13.3632H34.2321V12.1776H35.1441C35.8737 12.1776 36.4462 12.3701 36.8617 12.7552C37.2873 13.1403 37.5001 13.6925 37.5001 14.412V16.996C37.5001 17.4723 37.571 17.8168 37.7129 18.0296C37.8649 18.2424 38.1385 18.3944 38.5337 18.4856L39.0201 18.6224Z" fill="white"/>
<circle cx="24" cy="19" r="1" fill="white"/>
<circle cx="28" cy="19" r="1" fill="white"/>
<circle cx="32" cy="19" r="1" fill="white"/>
</svg>
