<svg width="48" height="56" viewBox="0 0 48 56" fill="none" xmlns="http://www.w3.org/2000/svg">
<circle cx="24" cy="28" r="24" fill="#64748B"/>
<path d="M20.2266 28.1084H23.3877C25.5078 28.1084 27.0439 27.7148 27.9961 26.9277C28.9482 26.1406 29.4243 24.9727 29.4243 23.4238C29.4243 21.8496 28.9102 20.7197 27.8818 20.0342C26.8535 19.3486 25.3047 19.0059 23.2354 19.0059H20.2266V28.1084ZM20.2266 31.8789V43H15.6753V15.1592H23.54C27.1328 15.1592 29.7925 15.832 31.519 17.1777C33.2456 18.5234 34.1089 20.5547 34.1089 23.2715C34.1089 26.7373 32.3062 29.2065 28.7007 30.6792L36.5654 43H31.3857L24.7207 31.8789H20.2266Z" fill="white"/>
</svg>
