<svg width="48" height="48" viewBox="0 0 48 48" fill="none" xmlns="http://www.w3.org/2000/svg">
<circle cx="24" cy="24" r="24" fill="#212121"/>
<path d="M21.7188 23.2969H23.2812C24.8125 23.2969 25.9427 23.0417 26.6719 22.5312C27.401 22.0208 27.7656 21.2188 27.7656 20.125C27.7656 19.0417 27.3906 18.2708 26.6406 17.8125C25.901 17.3542 24.75 17.125 23.1875 17.125H21.7188V23.2969ZM21.7188 27.2344V36H16.875V13.1562H23.5312C26.6354 13.1562 28.9323 13.724 30.4219 14.8594C31.9115 15.9844 32.6562 17.6979 32.6562 20C32.6562 21.3438 32.2865 22.5417 31.5469 23.5938C30.8073 24.6354 29.7604 25.4531 28.4062 26.0469C31.8438 31.1823 34.0833 34.5 35.125 36H29.75L24.2969 27.2344H21.7188Z" fill="white"/>
</svg>
