<svg width="40" height="39" viewBox="0 0 40 39" fill="none" xmlns="http://www.w3.org/2000/svg">
<path d="M16.5043 19.393H11.8204L15.1209 9.69547H23.1055L26.4081 0H11.5535C9.42242 0 7.52969 1.33462 6.85533 3.31562L0.254209 22.7086C-0.249025 24.1868 0.00361125 25.8127 0.934695 27.0774C1.86578 28.3423 3.35919 29.0904 4.95241 29.0904H16.5064L19.807 19.393H16.5064H16.5043Z" fill="#3DDC91"/>
<path d="M38.6774 11.7082C37.7464 10.4434 36.2529 9.69531 34.6597 9.69531H23.1057L19.8052 19.3928H27.7897L24.4891 29.0902H16.5046L13.2041 38.7877H28.0586C30.1897 38.7877 32.0824 37.4531 32.7568 35.4721L39.3579 16.0792C39.8612 14.6009 39.6085 12.9751 38.6774 11.7102V11.7082Z" fill="#3DDC91"/>
</svg>
