<svg width="27" height="26" viewBox="0 0 27 26" fill="none" xmlns="http://www.w3.org/2000/svg">
<path d="M19.2482 22.4793H8.41629C7.62626 22.4793 6.8686 22.1655 6.30997 21.6069C5.75134 21.0483 5.4375 20.2906 5.4375 19.5006V6.50222C5.4375 5.7122 5.75134 4.95453 6.30997 4.3959C6.8686 3.83727 7.62626 3.52344 8.41629 3.52344H16.5402C16.7556 3.52363 16.9621 3.60934 17.1143 3.76174L21.9887 8.66861C22.1411 8.82082 22.2268 9.02732 22.227 9.24271V19.5006C22.227 20.2906 21.9132 21.0483 21.3546 21.6069C20.7959 22.1655 20.0383 22.4793 19.2482 22.4793ZM8.41629 5.14823C8.05718 5.14823 7.71279 5.29088 7.45887 5.54481C7.20494 5.79873 7.06229 6.14312 7.06229 6.50222V19.5006C7.06229 19.8597 7.20494 20.2041 7.45887 20.458C7.71279 20.7119 8.05718 20.8546 8.41629 20.8546H19.2482C19.6073 20.8546 19.9517 20.7119 20.2057 20.458C20.4596 20.2041 20.6022 19.8597 20.6022 19.5006V9.546L16.2045 5.14823H8.41629Z" fill="#212121"/>
<path d="M18.9779 21.6682H17.3531V14.8982H10.3123V21.6682H8.6875V14.6274C8.6875 14.2683 8.83015 13.9239 9.08408 13.67C9.338 13.4161 9.68239 13.2734 10.0415 13.2734H17.6239C17.983 13.2734 18.3274 13.4161 18.5813 13.67C18.8352 13.9239 18.9779 14.2683 18.9779 14.6274V21.6682Z" fill="#212121"/>
<path d="M14.3418 9.48111H10.074C9.89053 9.4797 9.70911 9.44215 9.54012 9.37062C9.37113 9.29908 9.21789 9.19496 9.08914 9.0642C8.96039 8.93344 8.85866 8.7786 8.78975 8.60852C8.72084 8.43845 8.68611 8.25646 8.68754 8.07296V4.33594H10.3123V7.85632H14.1035V4.33594H15.7283V8.07296C15.7297 8.25646 15.695 8.43845 15.6261 8.60852C15.5572 8.7786 15.4555 8.93344 15.3267 9.0642C15.198 9.19496 15.0447 9.29908 14.8757 9.37062C14.7067 9.44215 14.5253 9.4797 14.3418 9.48111Z" fill="#212121"/>
</svg>
