<svg width="41" height="40" viewBox="0 0 41 40" fill="none" xmlns="http://www.w3.org/2000/svg">
<path d="M29.168 34.5807H12.5013C11.2857 34.5807 10.1199 34.0978 9.2604 33.2383C8.40085 32.3788 7.91797 31.213 7.91797 29.9974V9.9974C7.91797 8.78182 8.40085 7.61603 9.2604 6.75649C10.1199 5.89695 11.2857 5.41406 12.5013 5.41406H25.0013C25.3327 5.41435 25.6504 5.54624 25.8846 5.78073L33.3846 13.3307C33.6191 13.5649 33.751 13.8827 33.7513 14.2141V29.9974C33.7513 31.213 33.2684 32.3788 32.4089 33.2383C31.5493 34.0978 30.3835 34.5807 29.168 34.5807ZM12.5013 7.91406C11.9488 7.91406 11.4189 8.13356 11.0282 8.52426C10.6375 8.91496 10.418 9.44486 10.418 9.9974V29.9974C10.418 30.5499 10.6375 31.0798 11.0282 31.4705C11.4189 31.8612 11.9488 32.0807 12.5013 32.0807H29.168C29.7205 32.0807 30.2504 31.8612 30.6411 31.4705C31.0318 31.0798 31.2513 30.5499 31.2513 29.9974V14.6807L24.4846 7.91406H12.5013Z" fill="#212121"/>
<path d="M28.7513 33.3385H26.2513V22.9219H15.418V33.3385H12.918V22.5052C12.918 21.9527 13.1375 21.4228 13.5282 21.0321C13.9189 20.6414 14.4488 20.4219 15.0013 20.4219H26.668C27.2205 20.4219 27.7504 20.6414 28.1411 21.0321C28.5318 21.4228 28.7513 21.9527 28.7513 22.5052V33.3385Z" fill="#212121"/>
<path d="M21.618 14.5807H15.0514C14.769 14.5785 14.4899 14.5208 14.2299 14.4107C13.9698 14.3006 13.7341 14.1404 13.536 13.9392C13.3379 13.738 13.1813 13.4998 13.0753 13.2381C12.9693 12.9764 12.9158 12.6964 12.918 12.4141V6.66406H15.418V12.0807H21.2514V6.66406H23.7514V12.4141C23.7536 12.6964 23.7001 12.9764 23.5941 13.2381C23.4881 13.4998 23.3315 13.738 23.1334 13.9392C22.9353 14.1404 22.6996 14.3006 22.4395 14.4107C22.1795 14.5208 21.9004 14.5785 21.618 14.5807Z" fill="#212121"/>
</svg>
