<svg width="210" height="210" viewBox="0 0 210 210" fill="none" xmlns="http://www.w3.org/2000/svg">
<rect width="210" height="210" rx="5" fill="#731A75"/>
<rect x="6.51515" y="6.51515" width="196.97" height="196.97" rx="3.24675" stroke="white" stroke-width="3.0303"/>
<path fill-rule="evenodd" clip-rule="evenodd" d="M52.6387 56.5505H156.36C161.672 56.5505 165.998 60.8655 166 66.1743V148.639C166 153.945 165.676 154.264 160.36 154.264H152V147.263H158.984L158.984 70.9954H50.0141V147.263H58V154.264H48.6387C43.3249 154.264 43 153.945 43 148.639V66.1743C43 60.8671 47.3249 56.5505 52.6387 56.5505ZM153.956 63.6304C153.956 61.3525 152.108 59.5051 149.826 59.5051C147.544 59.5051 145.696 61.3525 145.696 63.6304C145.696 65.9074 147.544 67.7549 149.826 67.7549C152.108 67.7549 153.956 65.909 153.956 63.6304ZM139.155 63.6304C139.155 61.3525 137.306 59.5051 135.025 59.5051C132.743 59.5051 130.896 61.3525 130.893 63.6304C130.893 65.9074 132.741 67.7549 135.025 67.7549C137.306 67.7549 139.155 65.909 139.155 63.6304Z" fill="#F7FCFB"/>
<path d="M136.373 140.112H134.299C133.92 140.114 133.55 139.998 133.239 139.782C132.928 139.565 132.691 139.258 132.561 138.903C132.331 138.302 132.088 137.714 131.824 137.135C131.664 136.79 131.614 136.404 131.681 136.03C131.748 135.656 131.929 135.311 132.199 135.044L133.669 133.57C134.718 132.513 135.307 131.085 135.307 129.596C135.307 128.107 134.718 126.678 133.669 125.622L128.37 120.323C127.313 119.274 125.885 118.685 124.396 118.685C122.907 118.685 121.478 119.274 120.422 120.323L118.952 121.792C118.684 122.061 118.339 122.241 117.965 122.308C117.591 122.375 117.206 122.326 116.861 122.167C116.282 121.903 115.694 121.656 115.089 121.418C114.731 121.288 114.422 121.052 114.204 120.74C113.986 120.428 113.869 120.056 113.871 119.676V117.614C113.867 116.125 113.274 114.697 112.22 113.645C111.166 112.593 109.738 112.001 108.248 112H100.752C100.012 111.998 99.2787 112.143 98.5945 112.425C97.9104 112.707 97.2886 113.121 96.7648 113.644C96.2409 114.166 95.8253 114.787 95.5418 115.471C95.2582 116.154 95.1122 116.887 95.1122 117.627V119.688C95.1135 120.067 94.9981 120.437 94.7816 120.748C94.5652 121.059 94.2583 121.296 93.9025 121.426C93.302 121.656 92.7142 121.899 92.1349 122.163C91.7899 122.323 91.4042 122.372 91.0301 122.305C90.656 122.238 90.3116 122.058 90.0435 121.788L88.5697 120.319C87.5133 119.269 86.0847 118.681 84.5957 118.681C83.1067 118.681 81.6781 119.269 80.6217 120.319L75.3357 125.63C74.2864 126.687 73.6976 128.115 73.6976 129.604C73.6976 131.093 74.2864 132.522 75.3357 133.578L76.8052 135.048C77.0752 135.315 77.256 135.66 77.3231 136.034C77.3902 136.408 77.3402 136.794 77.18 137.139C76.9159 137.718 76.6689 138.306 76.4389 138.911C76.3078 139.269 76.0691 139.577 75.7556 139.794C75.4422 140.01 75.0693 140.125 74.6883 140.121H72.6267C71.8874 140.121 71.1554 140.266 70.4725 140.549C69.7895 140.833 69.1691 141.247 68.6465 141.77C68.124 142.293 67.7096 142.914 67.4271 143.597C67.1446 144.28 66.9994 145.012 67 145.752V153.253C67 154.745 67.5928 156.176 68.648 157.231C69.7032 158.286 71.1344 158.879 72.6267 158.879H74.667C75.0458 158.878 75.4159 158.993 75.7268 159.21C76.0377 159.426 76.2745 159.733 76.4048 160.089C76.6348 160.69 76.8776 161.277 77.1417 161.857C77.3019 162.201 77.3518 162.587 77.2848 162.962C77.2177 163.336 77.0368 163.68 76.7669 163.948L75.2974 165.422C74.2481 166.478 73.6592 167.907 73.6592 169.396C73.6592 170.885 74.2481 172.313 75.2974 173.37L80.6302 178.664C81.6866 179.714 83.1152 180.302 84.6042 180.302C86.0932 180.302 87.5218 179.714 88.5783 178.664L90.0478 177.195C90.3162 176.926 90.6606 176.746 91.0346 176.679C91.4085 176.612 91.7941 176.661 92.1391 176.82C92.7184 177.084 93.3062 177.331 93.9111 177.57C94.2706 177.697 94.5817 177.934 94.8014 178.246C95.0211 178.558 95.1387 178.93 95.1378 179.312V181.373C95.1378 182.866 95.7306 184.297 96.7858 185.352C97.841 186.407 99.2722 187 100.764 187H108.248C109.741 187 111.172 186.407 112.227 185.352C113.282 184.297 113.875 182.866 113.875 181.373V179.299C113.874 178.92 113.989 178.55 114.206 178.239C114.422 177.928 114.729 177.691 115.085 177.561C115.685 177.331 116.273 177.088 116.852 176.824C117.197 176.665 117.583 176.615 117.957 176.682C118.331 176.749 118.676 176.93 118.944 177.199L120.417 178.669C121.474 179.718 122.903 180.307 124.392 180.307C125.881 180.307 127.309 179.718 128.366 178.669L133.664 173.37C134.714 172.313 135.302 170.885 135.302 169.396C135.302 167.907 134.714 166.478 133.664 165.422L132.195 163.952C131.925 163.685 131.744 163.34 131.677 162.966C131.61 162.592 131.66 162.206 131.82 161.861C132.084 161.282 132.331 160.694 132.57 160.089C132.699 159.731 132.936 159.422 133.248 159.204C133.559 158.986 133.931 158.869 134.312 158.871H136.373C137.866 158.871 139.297 158.278 140.352 157.223C141.407 156.167 142 154.736 142 153.244V145.743C142.001 145.004 141.855 144.272 141.573 143.589C141.29 142.905 140.876 142.285 140.353 141.762C139.831 141.239 139.21 140.824 138.528 140.541C137.845 140.258 137.113 140.112 136.373 140.112V140.112ZM138.247 153.236C138.247 153.733 138.05 154.209 137.699 154.561C137.347 154.912 136.87 155.11 136.373 155.11H134.299C133.16 155.113 132.049 155.462 131.112 156.109C130.174 156.756 129.455 157.671 129.047 158.734C128.848 159.26 128.634 159.777 128.404 160.285C127.933 161.324 127.789 162.482 127.99 163.605C128.191 164.728 128.727 165.764 129.528 166.576L130.994 168.046C131.168 168.22 131.307 168.426 131.401 168.654C131.496 168.882 131.544 169.126 131.544 169.372C131.544 169.619 131.496 169.863 131.401 170.091C131.307 170.318 131.168 170.525 130.994 170.699L125.695 175.998C125.343 176.349 124.867 176.546 124.37 176.546C123.873 176.546 123.397 176.349 123.046 175.998L121.576 174.528C120.765 173.726 119.729 173.189 118.605 172.988C117.482 172.787 116.324 172.932 115.285 173.404C114.778 173.634 114.258 173.83 113.739 174.047C112.676 174.454 111.761 175.173 111.114 176.11C110.467 177.046 110.118 178.157 110.114 179.295V181.356C110.114 181.853 109.916 182.33 109.565 182.682C109.214 183.033 108.737 183.23 108.24 183.23H100.752C100.255 183.23 99.778 183.033 99.4265 182.682C99.075 182.33 98.8776 181.853 98.8776 181.356V179.299C98.8738 178.16 98.5256 177.049 97.8787 176.112C97.2317 175.174 96.3163 174.455 95.2528 174.047C94.7275 173.848 94.2106 173.634 93.7024 173.404C92.6629 172.934 91.5054 172.789 90.3823 172.99C89.2592 173.191 88.2233 173.727 87.4112 174.528L85.9417 175.994C85.7676 176.168 85.5608 176.307 85.3331 176.401C85.1054 176.496 84.8614 176.544 84.6149 176.544C84.3684 176.544 84.1243 176.496 83.8966 176.401C83.6689 176.307 83.4621 176.168 83.2881 175.994V175.994L77.9893 170.699C77.6382 170.348 77.4409 169.871 77.4409 169.375C77.4409 168.878 77.6382 168.401 77.9893 168.05L79.4588 166.58C80.2602 165.768 80.7966 164.732 80.9974 163.609C81.1981 162.486 81.0537 161.329 80.5833 160.289C80.3533 159.782 80.1574 159.263 79.9401 158.743C79.5337 157.679 78.8149 156.763 77.8784 156.116C76.9418 155.468 75.8312 155.119 74.6925 155.114H72.6267C72.1297 155.114 71.653 154.917 71.3015 154.565C70.95 154.214 70.7526 153.737 70.7526 153.24V145.739C70.7526 145.242 70.95 144.765 71.3015 144.414C71.653 144.062 72.1297 143.865 72.6267 143.865H74.667C75.8059 143.861 76.917 143.513 77.8544 142.866C78.7917 142.219 79.5114 141.304 79.9188 140.24C80.1176 139.715 80.332 139.198 80.562 138.69C81.0324 137.65 81.1768 136.493 80.9761 135.369C80.7753 134.246 80.2389 133.211 79.4375 132.398L77.9638 130.929C77.7893 130.755 77.6508 130.548 77.5563 130.32C77.4619 130.093 77.4133 129.849 77.4133 129.602C77.4133 129.356 77.4619 129.112 77.5563 128.884C77.6508 128.656 77.7893 128.449 77.9638 128.275V128.275L83.2625 122.977C83.6139 122.625 84.0904 122.428 84.5872 122.428C85.084 122.428 85.5604 122.625 85.9119 122.977L87.3814 124.446C88.1928 125.248 89.2288 125.786 90.3521 125.986C91.4755 126.187 92.6334 126.042 93.6725 125.571C94.1794 125.341 94.6991 125.145 95.2187 124.927C96.2832 124.522 97.1999 123.803 97.8484 122.867C98.4969 121.93 98.8468 120.819 98.852 119.68V117.618C98.852 117.121 99.0495 116.644 99.4009 116.293C99.7524 115.942 100.229 115.744 100.726 115.744H108.248C108.745 115.744 109.222 115.942 109.574 116.293C109.925 116.644 110.122 117.121 110.122 117.618V119.68C110.126 120.819 110.474 121.93 111.121 122.867C111.768 123.805 112.684 124.524 113.747 124.932C114.273 125.13 114.789 125.345 115.298 125.575C116.337 126.046 117.495 126.191 118.618 125.991C119.741 125.79 120.777 125.253 121.589 124.45L123.058 122.985C123.412 122.636 123.888 122.44 124.385 122.44C124.882 122.44 125.359 122.636 125.712 122.985L131.011 128.284C131.362 128.635 131.559 129.112 131.559 129.609C131.559 130.105 131.362 130.582 131.011 130.933L129.541 132.403C128.74 133.215 128.203 134.251 128.003 135.374C127.802 136.497 127.946 137.654 128.417 138.694C128.647 139.201 128.843 139.72 129.06 140.24C129.467 141.303 130.186 142.218 131.123 142.865C132.059 143.512 133.169 143.86 134.307 143.865H136.369C136.866 143.865 137.343 144.062 137.694 144.414C138.046 144.765 138.243 145.242 138.243 145.739V153.24L138.247 153.236Z" fill="white" stroke="white"/>
<circle cx="105" cy="150" r="14" stroke="white" stroke-width="4"/>
</svg>
