<svg width="24" height="24" viewBox="0 0 24 24" fill="none" xmlns="http://www.w3.org/2000/svg">
<path d="M12.0003 14.9303C11.4208 14.9303 10.8543 14.7585 10.3725 14.4365C9.89066 14.1146 9.51511 13.657 9.29335 13.1216C9.07158 12.5862 9.01356 11.9971 9.12661 11.4287C9.23967 10.8603 9.51872 10.3383 9.92849 9.92849C10.3383 9.51872 10.8603 9.23967 11.4287 9.12661C11.9971 9.01356 12.5862 9.07158 13.1216 9.29335C13.657 9.51511 14.1146 9.89066 14.4365 10.3725C14.7585 10.8543 14.9303 11.4208 14.9303 12.0003C14.9303 12.7774 14.6216 13.5227 14.0721 14.0721C13.5227 14.6216 12.7774 14.9303 12.0003 14.9303ZM12.0003 10.5703C11.7175 10.5703 11.441 10.6542 11.2058 10.8113C10.9707 10.9684 10.7874 11.1918 10.6792 11.4531C10.5709 11.7144 10.5426 12.0019 10.5978 12.2793C10.653 12.5567 10.7892 12.8115 10.9892 13.0115C11.1891 13.2115 11.4439 13.3477 11.7213 13.4028C11.9987 13.458 12.2863 13.4297 12.5476 13.3215C12.8088 13.2132 13.0322 13.0299 13.1893 12.7948C13.3464 12.5596 13.4303 12.2831 13.4303 12.0003C13.4303 11.6211 13.2797 11.2573 13.0115 10.9892C12.7433 10.721 12.3796 10.5703 12.0003 10.5703V10.5703Z" fill="#212121"/>
<path d="M12.0598 20.75C11.7674 20.7487 11.4781 20.6896 11.2086 20.5762C10.9391 20.4628 10.6947 20.2973 10.4894 20.0892C10.284 19.881 10.1218 19.6344 10.012 19.3634C9.90227 19.0924 9.84713 18.8024 9.84977 18.51C9.84582 18.4198 9.81651 18.3326 9.76521 18.2583C9.71392 18.184 9.64271 18.1256 9.55977 18.09C9.468 18.0479 9.36579 18.034 9.2661 18.05C9.16641 18.066 9.07371 18.1112 8.99977 18.18C8.58458 18.592 8.02469 18.8253 7.43977 18.83C6.85115 18.8338 6.28429 18.6077 5.85977 18.2C5.65355 17.9938 5.48997 17.7491 5.37837 17.4797C5.26676 17.2103 5.20932 16.9216 5.20932 16.63C5.20932 16.3384 5.26676 16.0497 5.37837 15.7803C5.48997 15.5109 5.65355 15.2662 5.85977 15.06C5.93029 14.9957 5.98094 14.9126 6.00575 14.8205C6.03056 14.7283 6.02848 14.631 5.99977 14.54C5.95104 14.4556 5.88113 14.3854 5.79695 14.3363C5.71276 14.2872 5.61722 14.2609 5.51977 14.26C4.93139 14.2577 4.3669 14.027 3.94529 13.6166C3.52368 13.2062 3.2779 12.6481 3.25977 12.06C3.26108 11.7685 3.3198 11.48 3.43257 11.2112C3.54535 10.9424 3.70998 10.6984 3.91705 10.4931C4.12413 10.2879 4.3696 10.1255 4.63944 10.0152C4.90929 9.9048 5.19823 9.84868 5.48977 9.85C5.57996 9.84605 5.66721 9.81675 5.7415 9.76545C5.8158 9.71415 5.87412 9.64294 5.90977 9.56C5.95188 9.46823 5.96582 9.36603 5.94979 9.26633C5.93377 9.16664 5.88852 9.07395 5.81977 9C5.40772 8.58481 5.17444 8.02492 5.16977 7.44C5.16465 7.14801 5.21772 6.85792 5.32589 6.58665C5.43405 6.31538 5.59514 6.06836 5.79977 5.86C6.00592 5.65379 6.25068 5.49021 6.52006 5.3786C6.78945 5.267 7.07818 5.20955 7.36977 5.20955C7.66135 5.20955 7.95008 5.267 8.21947 5.3786C8.48885 5.49021 8.73361 5.65379 8.93976 5.86C9.01177 5.9285 9.10016 5.97735 9.19647 6.00187C9.29278 6.02638 9.39378 6.02574 9.48977 6C9.57727 5.95207 9.65145 5.88308 9.70557 5.79927C9.7597 5.71546 9.79208 5.61947 9.79977 5.52C9.79948 4.92989 10.029 4.36287 10.4397 3.93912C10.8504 3.51537 11.4099 3.2682 11.9998 3.25C12.2913 3.25261 12.5795 3.31263 12.8478 3.42662C13.1162 3.5406 13.3594 3.70633 13.5637 3.91434C13.768 4.12234 13.9293 4.36855 14.0385 4.63891C14.1476 4.90926 14.2024 5.19846 14.1998 5.49C14.2036 5.5815 14.2314 5.67038 14.2806 5.74764C14.3298 5.8249 14.3985 5.88781 14.4798 5.93C14.568 5.96241 14.6636 5.96927 14.7556 5.94982C14.8476 5.93036 14.9322 5.88537 14.9998 5.82C15.415 5.40796 15.9748 5.17467 16.5598 5.17C16.8523 5.16083 17.1435 5.21204 17.4154 5.32044C17.6872 5.42883 17.9338 5.59208 18.1398 5.8C18.346 6.00615 18.5096 6.25091 18.6212 6.5203C18.7328 6.78968 18.7902 7.07841 18.7902 7.37C18.7902 7.66159 18.7328 7.95032 18.6212 8.2197C18.5096 8.48909 18.346 8.73385 18.1398 8.94C18.0764 9.01489 18.0331 9.10463 18.0139 9.20082C17.9946 9.29701 18.0001 9.3965 18.0298 9.49C18.0777 9.57751 18.1467 9.65168 18.2305 9.70581C18.3143 9.75994 18.4103 9.79231 18.5098 9.8C19.0947 9.80745 19.6541 10.0404 20.0714 10.4503C20.4888 10.8602 20.7318 11.4153 20.7498 12C20.7472 12.2915 20.6871 12.5797 20.5731 12.848C20.4592 13.1164 20.2934 13.3597 20.0854 13.5639C19.8774 13.7682 19.6312 13.9296 19.3609 14.0387C19.0905 14.1478 18.8013 14.2026 18.5098 14.2C18.4183 14.2038 18.3294 14.2317 18.2521 14.2809C18.1749 14.33 18.112 14.3987 18.0698 14.48V14.48C18.0374 14.5683 18.0305 14.6638 18.0499 14.7558C18.0694 14.8478 18.1144 14.9324 18.1798 15C18.5918 15.4152 18.8251 15.9751 18.8298 16.56C18.8349 16.852 18.7818 17.1421 18.6736 17.4133C18.5655 17.6846 18.4044 17.9316 18.1998 18.14C17.9936 18.3462 17.7489 18.5098 17.4795 18.6214C17.2101 18.733 16.9214 18.7904 16.6298 18.7904C16.3382 18.7904 16.0494 18.733 15.7801 18.6214C15.5107 18.5098 15.2659 18.3462 15.0598 18.14C14.9922 18.0746 14.9076 18.0296 14.8156 18.0102C14.7236 17.9907 14.628 17.9976 14.5398 18.03C14.4554 18.0787 14.3851 18.1486 14.336 18.2328C14.2869 18.317 14.2606 18.4125 14.2598 18.51C14.2523 19.0949 14.0194 19.6544 13.6095 20.0717C13.1996 20.489 12.6444 20.732 12.0598 20.75ZM9.34977 16.54C9.61499 16.5369 9.87773 16.5915 10.1198 16.7C10.4769 16.8489 10.7833 17.0982 11.0016 17.4177C11.2199 17.7372 11.3409 18.1131 11.3498 18.5C11.347 18.6929 11.4197 18.8792 11.5523 19.0193C11.6849 19.1594 11.867 19.2422 12.0598 19.25C12.2525 19.2348 12.4322 19.1466 12.5622 19.0036C12.6923 18.8605 12.7629 18.6733 12.7598 18.48C12.7621 18.0918 12.8742 17.7121 13.0829 17.3848C13.2917 17.0575 13.5887 16.7958 13.9398 16.63C14.3049 16.4781 14.7069 16.4379 15.095 16.5144C15.483 16.5909 15.8396 16.7808 16.1198 17.06C16.2524 17.1926 16.4322 17.2671 16.6198 17.2671C16.8073 17.2671 16.9872 17.1926 17.1198 17.06C17.2524 16.9274 17.3269 16.7475 17.3269 16.56C17.3269 16.3725 17.2524 16.1926 17.1198 16.06C16.8423 15.7788 16.6543 15.4216 16.5795 15.0336C16.5048 14.6456 16.5466 14.2442 16.6998 13.88C16.8575 13.5291 17.1131 13.2311 17.4359 13.0218C17.7587 12.8126 18.135 12.7008 18.5198 12.7C18.71 12.7028 18.8938 12.6311 19.032 12.5004C19.1703 12.3696 19.252 12.1901 19.2598 12C19.2469 11.8064 19.1595 11.6253 19.0159 11.4947C18.8723 11.3642 18.6837 11.2944 18.4898 11.3C18.0983 11.2894 17.7176 11.1695 17.3907 10.9539C17.0638 10.7383 16.8037 10.4356 16.6398 10.08C16.4901 9.71114 16.4511 9.30669 16.5274 8.91602C16.6038 8.52535 16.7922 8.16536 17.0698 7.88C17.1354 7.81434 17.1875 7.73639 17.223 7.6506C17.2586 7.56481 17.2769 7.47286 17.2769 7.38C17.2769 7.28714 17.2586 7.19519 17.223 7.1094C17.1875 7.02361 17.1354 6.94566 17.0698 6.88C17.0041 6.81434 16.9262 6.76225 16.8404 6.72672C16.7546 6.69118 16.6626 6.67289 16.5698 6.67289C16.4769 6.67289 16.385 6.69118 16.2992 6.72672C16.2134 6.76225 16.1354 6.81434 16.0698 6.88C15.7886 7.14113 15.4383 7.31587 15.0606 7.38337C14.6828 7.45088 14.2937 7.4083 13.9395 7.26072C13.5853 7.11314 13.281 6.86679 13.063 6.55105C12.8449 6.2353 12.7223 5.86351 12.7098 5.48C12.7125 5.28976 12.6409 5.10595 12.5102 4.96773C12.3794 4.82951 12.1999 4.7478 12.0098 4.74C11.8161 4.75286 11.635 4.84026 11.5045 4.98385C11.374 5.12744 11.3042 5.31603 11.3098 5.51C11.2991 5.90145 11.1792 6.28212 10.9637 6.60903C10.7481 6.93593 10.4454 7.19605 10.0898 7.36C9.72091 7.50966 9.31646 7.54869 8.92579 7.47233C8.53512 7.39598 8.17513 7.20753 7.88977 6.93C7.8241 6.86434 7.74615 6.81225 7.66036 6.77672C7.57457 6.74118 7.48262 6.72289 7.38977 6.72289C7.29691 6.72289 7.20496 6.74118 7.11917 6.77672C7.03338 6.81225 6.95543 6.86434 6.88977 6.93C6.8241 6.99566 6.77202 7.07361 6.73648 7.1594C6.70095 7.24519 6.68266 7.33714 6.68266 7.43C6.68266 7.52286 6.70095 7.61481 6.73648 7.7006C6.77202 7.78639 6.8241 7.86434 6.88977 7.93C7.16561 8.21235 7.35173 8.57002 7.42469 8.95795C7.49765 9.34588 7.45418 9.74673 7.29977 10.11C7.15089 10.4672 6.90159 10.7735 6.58209 10.9918C6.2626 11.2101 5.88663 11.3311 5.49977 11.34C5.30687 11.3372 5.12052 11.4099 4.98043 11.5425C4.84033 11.6752 4.75757 11.8572 4.74977 12.05C4.765 12.2427 4.85312 12.4224 4.99617 12.5525C5.13922 12.6825 5.32646 12.7531 5.51977 12.75C5.90799 12.7524 6.28764 12.8644 6.61495 13.0732C6.94227 13.282 7.20393 13.579 7.36977 13.93C7.52167 14.2952 7.5619 14.6972 7.48536 15.0852C7.40883 15.4732 7.21896 15.8299 6.93977 16.11C6.8741 16.1757 6.82202 16.2536 6.78648 16.3394C6.75095 16.4252 6.73266 16.5171 6.73266 16.61C6.73266 16.7029 6.75095 16.7948 6.78648 16.8806C6.82202 16.9664 6.8741 17.0443 6.93977 17.11C7.00543 17.1757 7.08338 17.2277 7.16917 17.2633C7.25496 17.2988 7.34691 17.3171 7.43977 17.3171C7.53262 17.3171 7.62457 17.2988 7.71036 17.2633C7.79615 17.2277 7.8741 17.1757 7.93977 17.11C8.31986 16.7471 8.82427 16.5432 9.34977 16.54V16.54Z" fill="#212121"/>
</svg>
