<svg width="12" height="12" viewBox="0 0 12 12" fill="none" xmlns="http://www.w3.org/2000/svg">
<path fill-rule="evenodd" clip-rule="evenodd" d="M11.646 2.22072C11.7504 2.26249 11.8399 2.33467 11.903 2.42794C11.9661 2.5212 11.9999 2.63129 12 2.74398V9.25617C11.9999 9.36886 11.9661 9.47895 11.903 9.57221C11.8399 9.66548 11.7504 9.73766 11.646 9.77943L6.2085 11.9597C6.07441 12.0134 5.92484 12.0134 5.79075 11.9597L0.35325 9.77943C0.248977 9.73754 0.159604 9.66531 0.0966454 9.57206C0.0336867 9.4788 2.61449e-05 9.36878 0 9.25617L0 2.74398C2.61449e-05 2.63137 0.0336867 2.52135 0.0966454 2.4281C0.159604 2.33484 0.248977 2.26261 0.35325 2.22072L5.58225 0.123918L5.58525 0.123166L5.79075 0.0404666C5.92506 -0.0134889 6.07494 -0.0134889 6.20925 0.0404666L6.41475 0.123166L6.41775 0.123918L11.646 2.22072ZM10.6155 2.61692L6 4.46788L1.3845 2.61692L0.75 2.87179V3.17251L5.625 5.12722V11.0831L6 11.2334L6.375 11.0831V5.12797L11.25 3.17326V2.87254L10.6155 2.61768V2.61692Z" fill="#605BFF"/>
</svg>
