<svg width="24" height="24" viewBox="0 0 24 24" fill="none" xmlns="http://www.w3.org/2000/svg">
<path d="M10.5 8.2501C10.3071 8.23535 10.1276 8.1456 10 8.0001L8.00002 6.0001L6.00002 8.0001C5.94831 8.10837 5.87138 8.20266 5.77568 8.27504C5.67999 8.34742 5.56833 8.39579 5.45007 8.41608C5.33181 8.43637 5.21041 8.42799 5.09606 8.39164C4.98171 8.3553 4.87775 8.29205 4.79291 8.20721C4.70807 8.12237 4.64482 8.01841 4.60848 7.90406C4.57213 7.78971 4.56375 7.66831 4.58404 7.55005C4.60433 7.43179 4.6527 7.32013 4.72508 7.22444C4.79746 7.12874 4.89175 7.05181 5.00002 7.0001L7.50002 4.5001C7.64064 4.35965 7.83127 4.28076 8.03002 4.28076C8.22877 4.28076 8.41939 4.35965 8.56002 4.5001L11 7.0001C11.123 7.13761 11.191 7.31562 11.191 7.5001C11.191 7.68458 11.123 7.8626 11 8.0001C10.8724 8.1456 10.693 8.23535 10.5 8.2501V8.2501Z" fill="#212121"/>
<path d="M8 19.75C7.80189 19.7474 7.61263 19.6676 7.47253 19.5275C7.33244 19.3874 7.25259 19.1981 7.25 19V5C7.25 4.80109 7.32902 4.61032 7.46967 4.46967C7.61032 4.32902 7.80109 4.25 8 4.25C8.19891 4.25 8.38968 4.32902 8.53033 4.46967C8.67098 4.61032 8.75 4.80109 8.75 5V19C8.74741 19.1981 8.66756 19.3874 8.52747 19.5275C8.38737 19.6676 8.19811 19.7474 8 19.75V19.75Z" fill="#212121"/>
<path d="M16 19.75C15.9015 19.7505 15.8038 19.7313 15.7128 19.6935C15.6218 19.6557 15.5393 19.6001 15.47 19.53L13 17C12.8917 16.9483 12.7975 16.8714 12.7251 16.7757C12.6527 16.68 12.6043 16.5683 12.584 16.4501C12.5638 16.3318 12.5721 16.2104 12.6085 16.0961C12.6448 15.9817 12.7081 15.8778 12.7929 15.7929C12.8778 15.7081 12.9817 15.6448 13.0961 15.6085C13.2104 15.5721 13.3318 15.5638 13.4501 15.584C13.5683 15.6043 13.68 15.6527 13.7757 15.7251C13.8714 15.7975 13.9483 15.8917 14 16L16 18L18 16C18.0517 15.8917 18.1287 15.7975 18.2244 15.7251C18.32 15.6527 18.4317 15.6043 18.55 15.584C18.6682 15.5638 18.7896 15.5721 18.904 15.6085C19.0183 15.6448 19.1223 15.7081 19.2071 15.7929C19.292 15.8778 19.3552 15.9817 19.3916 16.0961C19.4279 16.2104 19.4363 16.3318 19.416 16.4501C19.3957 16.5683 19.3473 16.68 19.275 16.7757C19.2026 16.8714 19.1083 16.9483 19 17L16.5 19.5C16.3724 19.6455 16.193 19.7353 16 19.75Z" fill="#212121"/>
<path d="M16 19.75C15.8019 19.7474 15.6126 19.6676 15.4725 19.5275C15.3324 19.3874 15.2526 19.1981 15.25 19V5C15.25 4.80109 15.329 4.61032 15.4697 4.46967C15.6103 4.32902 15.8011 4.25 16 4.25C16.1989 4.25 16.3897 4.32902 16.5303 4.46967C16.671 4.61032 16.75 4.80109 16.75 5V19C16.7474 19.1981 16.6676 19.3874 16.5275 19.5275C16.3874 19.6676 16.1981 19.7474 16 19.75V19.75Z" fill="#212121"/>
</svg>
