<svg width="385" height="94" viewBox="0 0 385 94" fill="none" xmlns="http://www.w3.org/2000/svg">
<path d="M17.062 12.4878C17.062 11.1558 17.296 10.0038 17.764 9.0318C18.232 8.0598 18.91 7.3098 19.798 6.7818C20.698 6.2538 21.766 5.9898 23.002 5.9898C24.226 5.9898 25.282 6.2538 26.17 6.7818C27.058 7.3098 27.742 8.0598 28.222 9.0318C28.714 10.0038 28.96 11.1498 28.96 12.4698C28.96 13.8018 28.714 14.9598 28.222 15.9438C27.742 16.9158 27.052 17.6718 26.152 18.2118C25.264 18.7398 24.214 19.0038 23.002 19.0038C21.766 19.0038 20.704 18.7398 19.816 18.2118C18.928 17.6718 18.244 16.9158 17.764 15.9438C17.296 14.9598 17.062 13.8078 17.062 12.4878ZM19.024 12.4878C19.024 14.0238 19.36 15.2238 20.032 16.0878C20.704 16.9518 21.694 17.3838 23.002 17.3838C24.274 17.3838 25.258 16.9578 25.954 16.1058C26.65 15.2418 26.998 14.0358 26.998 12.4878C26.998 10.9398 26.65 9.7398 25.954 8.8878C25.27 8.0358 24.286 7.6098 23.002 7.6098C21.694 7.6098 20.704 8.0358 20.032 8.8878C19.36 9.7398 19.024 10.9398 19.024 12.4878ZM35.8053 19.0038C34.7853 19.0038 33.8613 18.8778 33.0333 18.6258C32.2053 18.3618 31.4853 17.9898 30.8733 17.5098L31.5033 16.0338C31.9113 16.3458 32.3313 16.6038 32.7633 16.8078C33.2073 17.0118 33.6753 17.1678 34.1673 17.2758C34.6713 17.3718 35.2173 17.4198 35.8053 17.4198C36.8133 17.4198 37.5513 17.2398 38.0193 16.8798C38.4993 16.5198 38.7393 16.0458 38.7393 15.4578C38.7393 14.9538 38.5713 14.5638 38.2353 14.2878C37.9113 14.0118 37.3353 13.7898 36.5073 13.6218L34.5453 13.2258C33.3813 12.9858 32.5113 12.5958 31.9353 12.0558C31.3713 11.5038 31.0893 10.7538 31.0893 9.8058C31.0893 9.0378 31.2933 8.3658 31.7013 7.7898C32.1093 7.2138 32.6733 6.7698 33.3933 6.4578C34.1253 6.1458 34.9773 5.9898 35.9493 5.9898C36.8493 5.9898 37.6773 6.1218 38.4333 6.3858C39.1893 6.6378 39.8253 7.0158 40.3413 7.5198L39.7293 8.9418C39.1893 8.4738 38.6133 8.1318 38.0013 7.9158C37.3893 7.6878 36.6933 7.5738 35.9133 7.5738C34.9893 7.5738 34.2633 7.7658 33.7353 8.1498C33.2193 8.5338 32.9613 9.0558 32.9613 9.7158C32.9613 10.2438 33.1233 10.6578 33.4473 10.9578C33.7833 11.2578 34.3353 11.4858 35.1033 11.6418L37.0653 12.0198C38.2773 12.2718 39.1713 12.6618 39.7473 13.1898C40.3233 13.7058 40.6113 14.4198 40.6113 15.3318C40.6113 16.0638 40.4133 16.7058 40.0173 17.2578C39.6333 17.8098 39.0813 18.2418 38.3613 18.5538C37.6413 18.8538 36.7893 19.0038 35.8053 19.0038Z" fill="#605E5C"/>
<path d="M26.5049 52.5958C26.0476 52.5958 25.6229 52.4885 25.2309 52.2738C24.8389 52.0498 24.5263 51.7465 24.2929 51.3638C24.0596 50.9811 23.9429 50.5565 23.9429 50.0898C23.9429 49.6605 24.0503 49.2545 24.2649 48.8718C24.4889 48.4891 24.7923 48.1811 25.1749 47.9478C25.5669 47.7051 26.0103 47.5838 26.5049 47.5838C26.9623 47.5838 27.3823 47.6958 27.7649 47.9198C28.1476 48.1345 28.4556 48.4285 28.6889 48.8018C28.9316 49.1751 29.0529 49.6045 29.0529 50.0898C29.0529 50.5471 28.9363 50.9671 28.7029 51.3498C28.4789 51.7325 28.1709 52.0358 27.7789 52.2598C27.3963 52.4838 26.9716 52.5958 26.5049 52.5958ZM40.92 53.8418L37.476 43.9718H38.694L41.704 52.8618H41.214L44.378 43.9718H45.302L48.298 52.8618H47.85L50.944 43.9718H52.092L48.62 53.8418H47.584L44.672 45.2878H44.966L41.928 53.8418H40.92ZM53.6783 53.8418V46.8138H54.8123V53.8418H53.6783ZM53.5383 45.2178V43.9438H54.9383V45.2178H53.5383ZM57.0142 53.8418V48.4378C57.0142 48.1765 57.0002 47.9105 56.9722 47.6398C56.9535 47.3598 56.9302 47.0845 56.9022 46.8138H57.9942L58.1342 48.3538H57.9662C58.1715 47.8125 58.4982 47.4018 58.9462 47.1218C59.4035 46.8325 59.9309 46.6878 60.5282 46.6878C61.3589 46.6878 61.9842 46.9118 62.4042 47.3598C62.8335 47.7985 63.0482 48.4938 63.0482 49.4458V53.8418H61.9142V49.5158C61.9142 48.8531 61.7789 48.3725 61.5082 48.0738C61.2469 47.7658 60.8362 47.6118 60.2762 47.6118C59.6229 47.6118 59.1049 47.8125 58.7222 48.2138C58.3395 48.6151 58.1482 49.1518 58.1482 49.8238V53.8418H57.0142ZM67.8773 53.9678C67.2613 53.9678 66.72 53.8231 66.2533 53.5338C65.7867 53.2351 65.4227 52.8151 65.1613 52.2738C64.9093 51.7325 64.7833 51.0838 64.7833 50.3278C64.7833 49.5625 64.9093 48.9091 65.1613 48.3678C65.4227 47.8265 65.7867 47.4111 66.2533 47.1218C66.72 46.8325 67.2613 46.6878 67.8773 46.6878C68.512 46.6878 69.058 46.8465 69.5153 47.1638C69.982 47.4811 70.2947 47.9105 70.4533 48.4518H70.2853V43.5378H71.4193V53.8418H70.2993V52.1618H70.4533C70.304 52.7218 69.996 53.1651 69.5293 53.4918C69.0627 53.8091 68.512 53.9678 67.8773 53.9678ZM68.1153 53.0438C68.778 53.0438 69.31 52.8151 69.7113 52.3578C70.1127 51.8911 70.3133 51.2145 70.3133 50.3278C70.3133 49.4318 70.1127 48.7551 69.7113 48.2978C69.31 47.8311 68.778 47.5978 68.1153 47.5978C67.4527 47.5978 66.9207 47.8311 66.5193 48.2978C66.1273 48.7551 65.9313 49.4318 65.9313 50.3278C65.9313 51.2145 66.1273 51.8911 66.5193 52.3578C66.9207 52.8151 67.4527 53.0438 68.1153 53.0438ZM76.4959 53.9678C75.8239 53.9678 75.2359 53.8231 74.7319 53.5338C74.2372 53.2351 73.8545 52.8151 73.5839 52.2738C73.3132 51.7231 73.1779 51.0745 73.1779 50.3278C73.1779 49.5718 73.3132 48.9231 73.5839 48.3818C73.8545 47.8405 74.2372 47.4251 74.7319 47.1358C75.2359 46.8371 75.8239 46.6878 76.4959 46.6878C77.1772 46.6878 77.7652 46.8371 78.2599 47.1358C78.7639 47.4251 79.1512 47.8405 79.4219 48.3818C79.7019 48.9231 79.8419 49.5718 79.8419 50.3278C79.8419 51.0745 79.7019 51.7231 79.4219 52.2738C79.1512 52.8151 78.7639 53.2351 78.2599 53.5338C77.7652 53.8231 77.1772 53.9678 76.4959 53.9678ZM76.4959 53.0438C77.1679 53.0438 77.6999 52.8151 78.0919 52.3578C78.4839 51.8911 78.6799 51.2145 78.6799 50.3278C78.6799 49.4318 78.4792 48.7551 78.0779 48.2978C77.6859 47.8311 77.1585 47.5978 76.4959 47.5978C75.8332 47.5978 75.3059 47.8311 74.9139 48.2978C74.5219 48.7551 74.3259 49.4318 74.3259 50.3278C74.3259 51.2145 74.5219 51.8911 74.9139 52.3578C75.3059 52.8151 75.8332 53.0438 76.4959 53.0438ZM83.3902 53.8418L80.7862 46.8138H81.9902L84.1602 53.0018H83.7962L86.0362 46.8138H87.0162L89.2142 53.0018H88.8642L91.0482 46.8138H92.1962L89.5782 53.8418H88.4862L86.2182 47.5558H86.7782L84.4962 53.8418H83.3902ZM95.8835 53.9678C95.3235 53.9678 94.8008 53.8931 94.3155 53.7438C93.8301 53.5851 93.4288 53.3658 93.1115 53.0858L93.5035 52.2878C93.8488 52.5585 94.2221 52.7591 94.6235 52.8898C95.0341 53.0205 95.4588 53.0858 95.8975 53.0858C96.4575 53.0858 96.8775 52.9878 97.1575 52.7918C97.4468 52.5865 97.5915 52.3065 97.5915 51.9518C97.5915 51.6811 97.4981 51.4665 97.3115 51.3078C97.1341 51.1398 96.8401 51.0091 96.4295 50.9158L95.1275 50.6498C94.5301 50.5191 94.0821 50.2998 93.7835 49.9918C93.4848 49.6745 93.3355 49.2731 93.3355 48.7878C93.3355 48.3771 93.4428 48.0178 93.6575 47.7098C93.8721 47.3925 94.1848 47.1451 94.5955 46.9678C95.0061 46.7811 95.4868 46.6878 96.0375 46.6878C96.5508 46.6878 97.0221 46.7671 97.4515 46.9258C97.8901 47.0751 98.2541 47.2945 98.5435 47.5838L98.1375 48.3678C97.8575 48.0971 97.5355 47.8965 97.1715 47.7658C96.8168 47.6258 96.4481 47.5558 96.0655 47.5558C95.5148 47.5558 95.0995 47.6678 94.8195 47.8918C94.5488 48.1065 94.4135 48.3911 94.4135 48.7458C94.4135 49.0165 94.4975 49.2405 94.6655 49.4178C94.8428 49.5858 95.1135 49.7118 95.4775 49.7958L96.7795 50.0618C97.4141 50.2018 97.8855 50.4211 98.1935 50.7198C98.5108 51.0091 98.6695 51.4011 98.6695 51.8958C98.6695 52.3158 98.5528 52.6845 98.3195 53.0018C98.0861 53.3098 97.7595 53.5478 97.3395 53.7158C96.9288 53.8838 96.4435 53.9678 95.8835 53.9678ZM104.617 53.8418L109.475 44.4618V44.9658H103.959V43.9718H110.525V44.8398L105.891 53.8418H104.617ZM118.86 53.9678C118.235 53.9678 117.689 53.8231 117.222 53.5338C116.755 53.2351 116.391 52.8151 116.13 52.2738C115.878 51.7325 115.752 51.0838 115.752 50.3278C115.752 49.5625 115.878 48.9091 116.13 48.3678C116.391 47.8265 116.755 47.4111 117.222 47.1218C117.689 46.8325 118.235 46.6878 118.86 46.6878C119.495 46.6878 120.041 46.8511 120.498 47.1778C120.965 47.4951 121.273 47.9291 121.422 48.4798H121.254L121.408 46.8138H122.5C122.472 47.0845 122.444 47.3598 122.416 47.6398C122.397 47.9105 122.388 48.1765 122.388 48.4378V53.8418H121.254V52.1898H121.408C121.259 52.7405 120.951 53.1745 120.484 53.4918C120.017 53.8091 119.476 53.9678 118.86 53.9678ZM119.084 53.0438C119.756 53.0438 120.288 52.8151 120.68 52.3578C121.072 51.8911 121.268 51.2145 121.268 50.3278C121.268 49.4318 121.072 48.7551 120.68 48.2978C120.288 47.8311 119.756 47.5978 119.084 47.5978C118.421 47.5978 117.889 47.8311 117.488 48.2978C117.096 48.7551 116.9 49.4318 116.9 50.3278C116.9 51.2145 117.096 51.8911 117.488 52.3578C117.889 52.8151 118.421 53.0438 119.084 53.0438ZM124.581 53.8418V48.4378C124.581 48.1765 124.567 47.9105 124.539 47.6398C124.52 47.3598 124.497 47.0845 124.469 46.8138H125.561L125.701 48.3538H125.533C125.738 47.8125 126.065 47.4018 126.513 47.1218C126.97 46.8325 127.497 46.6878 128.095 46.6878C128.925 46.6878 129.551 46.9118 129.971 47.3598C130.4 47.7985 130.615 48.4938 130.615 49.4458V53.8418H129.481V49.5158C129.481 48.8531 129.345 48.3725 129.075 48.0738C128.813 47.7658 128.403 47.6118 127.843 47.6118C127.189 47.6118 126.671 47.8125 126.289 48.2138C125.906 48.6151 125.715 49.1518 125.715 49.8238V53.8418H124.581ZM135.444 53.9678C134.828 53.9678 134.286 53.8231 133.82 53.5338C133.353 53.2351 132.989 52.8151 132.728 52.2738C132.476 51.7325 132.35 51.0838 132.35 50.3278C132.35 49.5625 132.476 48.9091 132.728 48.3678C132.989 47.8265 133.353 47.4111 133.82 47.1218C134.286 46.8325 134.828 46.6878 135.444 46.6878C136.078 46.6878 136.624 46.8465 137.082 47.1638C137.548 47.4811 137.861 47.9105 138.02 48.4518H137.852V43.5378H138.986V53.8418H137.866V52.1618H138.02C137.87 52.7218 137.562 53.1651 137.096 53.4918C136.629 53.8091 136.078 53.9678 135.444 53.9678ZM135.682 53.0438C136.344 53.0438 136.876 52.8151 137.278 52.3578C137.679 51.8911 137.88 51.2145 137.88 50.3278C137.88 49.4318 137.679 48.7551 137.278 48.2978C136.876 47.8311 136.344 47.5978 135.682 47.5978C135.019 47.5978 134.487 47.8311 134.086 48.2978C133.694 48.7551 133.498 49.4318 133.498 50.3278C133.498 51.2145 133.694 51.8911 134.086 52.3578C134.487 52.8151 135.019 53.0438 135.682 53.0438ZM147.503 53.9678C146.877 53.9678 146.331 53.8231 145.865 53.5338C145.398 53.2351 145.034 52.8151 144.773 52.2738C144.521 51.7325 144.395 51.0838 144.395 50.3278C144.395 49.5625 144.521 48.9091 144.773 48.3678C145.034 47.8265 145.398 47.4111 145.865 47.1218C146.331 46.8325 146.877 46.6878 147.503 46.6878C148.137 46.6878 148.683 46.8511 149.141 47.1778C149.607 47.4951 149.915 47.9291 150.065 48.4798H149.897L150.051 46.8138H151.143C151.115 47.0845 151.087 47.3598 151.059 47.6398C151.04 47.9105 151.031 48.1765 151.031 48.4378V53.8418H149.897V52.1898H150.051C149.901 52.7405 149.593 53.1745 149.127 53.4918C148.66 53.8091 148.119 53.9678 147.503 53.9678ZM147.727 53.0438C148.399 53.0438 148.931 52.8151 149.323 52.3578C149.715 51.8911 149.911 51.2145 149.911 50.3278C149.911 49.4318 149.715 48.7551 149.323 48.2978C148.931 47.8311 148.399 47.5978 147.727 47.5978C147.064 47.5978 146.532 47.8311 146.131 48.2978C145.739 48.7551 145.543 49.4318 145.543 50.3278C145.543 51.2145 145.739 51.8911 146.131 52.3578C146.532 52.8151 147.064 53.0438 147.727 53.0438ZM156.751 53.9678C156.117 53.9678 155.571 53.8091 155.113 53.4918C154.656 53.1651 154.348 52.7218 154.189 52.1618H154.343V53.8418H153.223V43.5378H154.357V48.4518H154.189C154.348 47.9105 154.656 47.4811 155.113 47.1638C155.571 46.8465 156.117 46.6878 156.751 46.6878C157.386 46.6878 157.932 46.8371 158.389 47.1358C158.856 47.4251 159.215 47.8405 159.467 48.3818C159.729 48.9231 159.859 49.5718 159.859 50.3278C159.859 51.0838 159.729 51.7325 159.467 52.2738C159.206 52.8151 158.842 53.2351 158.375 53.5338C157.918 53.8231 157.377 53.9678 156.751 53.9678ZM156.513 53.0438C157.176 53.0438 157.708 52.8151 158.109 52.3578C158.511 51.9005 158.711 51.2238 158.711 50.3278C158.711 49.4318 158.511 48.7551 158.109 48.2978C157.708 47.8311 157.176 47.5978 156.513 47.5978C155.851 47.5978 155.319 47.8311 154.917 48.2978C154.525 48.7551 154.329 49.4318 154.329 50.3278C154.329 51.2145 154.525 51.8911 154.917 52.3578C155.319 52.8151 155.851 53.0438 156.513 53.0438ZM164.502 53.9678C163.83 53.9678 163.242 53.8231 162.738 53.5338C162.243 53.2351 161.86 52.8151 161.59 52.2738C161.319 51.7231 161.184 51.0745 161.184 50.3278C161.184 49.5718 161.319 48.9231 161.59 48.3818C161.86 47.8405 162.243 47.4251 162.738 47.1358C163.242 46.8371 163.83 46.6878 164.502 46.6878C165.183 46.6878 165.771 46.8371 166.266 47.1358C166.77 47.4251 167.157 47.8405 167.428 48.3818C167.708 48.9231 167.848 49.5718 167.848 50.3278C167.848 51.0745 167.708 51.7231 167.428 52.2738C167.157 52.8151 166.77 53.2351 166.266 53.5338C165.771 53.8231 165.183 53.9678 164.502 53.9678ZM164.502 53.0438C165.174 53.0438 165.706 52.8151 166.098 52.3578C166.49 51.8911 166.686 51.2145 166.686 50.3278C166.686 49.4318 166.485 48.7551 166.084 48.2978C165.692 47.8311 165.164 47.5978 164.502 47.5978C163.839 47.5978 163.312 47.8311 162.92 48.2978C162.528 48.7551 162.332 49.4318 162.332 50.3278C162.332 51.2145 162.528 51.8911 162.92 52.3578C163.312 52.8151 163.839 53.0438 164.502 53.0438ZM171.592 53.8418L168.582 46.8138H169.814L172.334 53.0018H171.956L174.504 46.8138H175.68L172.67 53.8418H171.592ZM179.984 53.9678C178.883 53.9678 178.015 53.6505 177.38 53.0158C176.745 52.3718 176.428 51.4805 176.428 50.3418C176.428 49.6045 176.568 48.9651 176.848 48.4238C177.128 47.8731 177.52 47.4485 178.024 47.1498C178.528 46.8418 179.107 46.6878 179.76 46.6878C180.404 46.6878 180.945 46.8231 181.384 47.0938C181.823 47.3645 182.159 47.7518 182.392 48.2558C182.625 48.7505 182.742 49.3385 182.742 50.0198V50.4398H177.296V49.7258H182L181.762 49.9078C181.762 49.1611 181.594 48.5778 181.258 48.1578C180.922 47.7378 180.423 47.5278 179.76 47.5278C179.06 47.5278 178.514 47.7751 178.122 48.2698C177.73 48.7551 177.534 49.4131 177.534 50.2438V50.3698C177.534 51.2471 177.749 51.9145 178.178 52.3718C178.617 52.8198 179.228 53.0438 180.012 53.0438C180.432 53.0438 180.824 52.9831 181.188 52.8618C181.561 52.7311 181.916 52.5211 182.252 52.2318L182.644 53.0298C182.336 53.3285 181.944 53.5618 181.468 53.7298C181.001 53.8885 180.507 53.9678 179.984 53.9678Z" fill="#605E5C"/>
<circle cx="4" cy="12.8418" r="4" fill="#605E5C"/>
<line x1="217" y1="47" x2="217" y2="87" stroke="#605E5C" stroke-width="2"/>
<path d="M253.505 52.754C253.048 52.754 252.623 52.6467 252.231 52.432C251.839 52.208 251.526 51.9047 251.293 51.522C251.06 51.1393 250.943 50.7147 250.943 50.248C250.943 49.8187 251.05 49.4127 251.265 49.03C251.489 48.6473 251.792 48.3393 252.175 48.106C252.567 47.8633 253.01 47.742 253.505 47.742C253.962 47.742 254.382 47.854 254.765 48.078C255.148 48.2927 255.456 48.5867 255.689 48.96C255.932 49.3333 256.053 49.7627 256.053 50.248C256.053 50.7053 255.936 51.1253 255.703 51.508C255.479 51.8907 255.171 52.194 254.779 52.418C254.396 52.642 253.972 52.754 253.505 52.754ZM265.246 54V44.13H266.254L270.216 53.076H269.81L273.772 44.13H274.78V54H273.716V45.628H274.136L270.398 54H269.628L265.876 45.628H266.296V54H265.246ZM280.008 54.126C279.336 54.126 278.748 53.9813 278.244 53.692C277.749 53.3933 277.366 52.9733 277.096 52.432C276.825 51.8813 276.69 51.2327 276.69 50.486C276.69 49.73 276.825 49.0813 277.096 48.54C277.366 47.9987 277.749 47.5833 278.244 47.294C278.748 46.9953 279.336 46.846 280.008 46.846C280.689 46.846 281.277 46.9953 281.772 47.294C282.276 47.5833 282.663 47.9987 282.934 48.54C283.214 49.0813 283.354 49.73 283.354 50.486C283.354 51.2327 283.214 51.8813 282.934 52.432C282.663 52.9733 282.276 53.3933 281.772 53.692C281.277 53.9813 280.689 54.126 280.008 54.126ZM280.008 53.202C280.68 53.202 281.212 52.9733 281.604 52.516C281.996 52.0493 282.192 51.3727 282.192 50.486C282.192 49.59 281.991 48.9133 281.59 48.456C281.198 47.9893 280.67 47.756 280.008 47.756C279.345 47.756 278.818 47.9893 278.426 48.456C278.034 48.9133 277.838 49.59 277.838 50.486C277.838 51.3727 278.034 52.0493 278.426 52.516C278.818 52.9733 279.345 53.202 280.008 53.202ZM284.634 54V53.244L289.366 47.56L289.38 47.854H284.634V46.972H290.43V47.728L285.642 53.44L285.628 53.118H290.584V54H284.634ZM292.299 54V46.972H293.433V54H292.299ZM292.159 45.376V44.102H293.559V45.376H292.159ZM295.635 54V43.696H296.769V54H295.635ZM298.971 54V43.696H300.105V54H298.971ZM304.981 54.126C304.356 54.126 303.81 53.9813 303.343 53.692C302.877 53.3933 302.513 52.9733 302.251 52.432C301.999 51.8907 301.873 51.242 301.873 50.486C301.873 49.7207 301.999 49.0673 302.251 48.526C302.513 47.9847 302.877 47.5693 303.343 47.28C303.81 46.9907 304.356 46.846 304.981 46.846C305.616 46.846 306.162 47.0093 306.619 47.336C307.086 47.6533 307.394 48.0873 307.543 48.638H307.375L307.529 46.972H308.621C308.593 47.2427 308.565 47.518 308.537 47.798C308.519 48.0687 308.509 48.3347 308.509 48.596V54H307.375V52.348H307.529C307.38 52.8987 307.072 53.3327 306.605 53.65C306.139 53.9673 305.597 54.126 304.981 54.126ZM305.205 53.202C305.877 53.202 306.409 52.9733 306.801 52.516C307.193 52.0493 307.389 51.3727 307.389 50.486C307.389 49.59 307.193 48.9133 306.801 48.456C306.409 47.9893 305.877 47.756 305.205 47.756C304.543 47.756 304.011 47.9893 303.609 48.456C303.217 48.9133 303.021 49.59 303.021 50.486C303.021 51.3727 303.217 52.0493 303.609 52.516C304.011 52.9733 304.543 53.202 305.205 53.202ZM314.478 54V44.13H320.638V45.082H315.64V48.54H320.33V49.492H315.64V54H314.478ZM322.213 54V46.972H323.347V54H322.213ZM322.073 45.376V44.102H323.473V45.376H322.073ZM325.521 54V48.666C325.521 48.386 325.512 48.1013 325.493 47.812C325.484 47.5227 325.465 47.2427 325.437 46.972H326.529L326.669 48.68L326.473 48.694C326.567 48.274 326.73 47.9287 326.963 47.658C327.197 47.3873 327.472 47.1867 327.789 47.056C328.107 46.916 328.438 46.846 328.783 46.846C328.923 46.846 329.045 46.8507 329.147 46.86C329.259 46.8693 329.362 46.8927 329.455 46.93L329.441 47.938C329.301 47.8913 329.171 47.8633 329.049 47.854C328.937 47.8353 328.807 47.826 328.657 47.826C328.247 47.826 327.887 47.924 327.579 48.12C327.281 48.316 327.052 48.568 326.893 48.876C326.744 49.184 326.669 49.5107 326.669 49.856V54H325.521ZM333.675 54.126C332.574 54.126 331.706 53.8087 331.071 53.174C330.437 52.53 330.119 51.6387 330.119 50.5C330.119 49.7627 330.259 49.1233 330.539 48.582C330.819 48.0313 331.211 47.6067 331.715 47.308C332.219 47 332.798 46.846 333.451 46.846C334.095 46.846 334.637 46.9813 335.075 47.252C335.514 47.5227 335.85 47.91 336.083 48.414C336.317 48.9087 336.433 49.4967 336.433 50.178V50.598H330.987V49.884H335.691L335.453 50.066C335.453 49.3193 335.285 48.736 334.949 48.316C334.613 47.896 334.114 47.686 333.451 47.686C332.751 47.686 332.205 47.9333 331.813 48.428C331.421 48.9133 331.225 49.5713 331.225 50.402V50.528C331.225 51.4053 331.44 52.0727 331.869 52.53C332.308 52.978 332.919 53.202 333.703 53.202C334.123 53.202 334.515 53.1413 334.879 53.02C335.253 52.8893 335.607 52.6793 335.943 52.39L336.335 53.188C336.027 53.4867 335.635 53.72 335.159 53.888C334.693 54.0467 334.198 54.126 333.675 54.126ZM338.533 54V47.854H337.161V46.972H338.841L338.533 47.266V46.09C338.533 45.2967 338.733 44.69 339.135 44.27C339.536 43.85 340.11 43.64 340.857 43.64C341.043 43.64 341.235 43.6587 341.431 43.696C341.636 43.724 341.804 43.766 341.935 43.822V44.76C341.823 44.7133 341.683 44.676 341.515 44.648C341.356 44.6107 341.193 44.592 341.025 44.592C340.735 44.592 340.488 44.6527 340.283 44.774C340.077 44.886 339.923 45.0587 339.821 45.292C339.718 45.5253 339.667 45.824 339.667 46.188V47.21L339.485 46.972H341.627V47.854H339.667V54H338.533ZM345.592 54.126C344.92 54.126 344.332 53.9813 343.828 53.692C343.333 53.3933 342.95 52.9733 342.68 52.432C342.409 51.8813 342.274 51.2327 342.274 50.486C342.274 49.73 342.409 49.0813 342.68 48.54C342.95 47.9987 343.333 47.5833 343.828 47.294C344.332 46.9953 344.92 46.846 345.592 46.846C346.273 46.846 346.861 46.9953 347.356 47.294C347.86 47.5833 348.247 47.9987 348.518 48.54C348.798 49.0813 348.938 49.73 348.938 50.486C348.938 51.2327 348.798 51.8813 348.518 52.432C348.247 52.9733 347.86 53.3933 347.356 53.692C346.861 53.9813 346.273 54.126 345.592 54.126ZM345.592 53.202C346.264 53.202 346.796 52.9733 347.188 52.516C347.58 52.0493 347.776 51.3727 347.776 50.486C347.776 49.59 347.575 48.9133 347.174 48.456C346.782 47.9893 346.254 47.756 345.592 47.756C344.929 47.756 344.402 47.9893 344.01 48.456C343.618 48.9133 343.422 49.59 343.422 50.486C343.422 51.3727 343.618 52.0493 344.01 52.516C344.402 52.9733 344.929 53.202 345.592 53.202ZM349.603 54L352.753 50.094V50.654L349.771 46.972H351.143L353.397 49.842H352.991L355.231 46.972H356.589L353.649 50.64V50.122L356.771 54H355.385L352.977 50.934H353.397L350.961 54H349.603ZM253.505 70.754C253.048 70.754 252.623 70.6467 252.231 70.432C251.839 70.208 251.526 69.9047 251.293 69.522C251.06 69.1393 250.943 68.7147 250.943 68.248C250.943 67.8187 251.05 67.4127 251.265 67.03C251.489 66.6473 251.792 66.3393 252.175 66.106C252.567 65.8633 253.01 65.742 253.505 65.742C253.962 65.742 254.382 65.854 254.765 66.078C255.148 66.2927 255.456 66.5867 255.689 66.96C255.932 67.3333 256.053 67.7627 256.053 68.248C256.053 68.7053 255.936 69.1253 255.703 69.508C255.479 69.8907 255.171 70.194 254.779 70.418C254.396 70.642 253.972 70.754 253.505 70.754ZM269.768 72.126C268.685 72.126 267.78 71.9253 267.052 71.524C266.324 71.1227 265.778 70.544 265.414 69.788C265.05 69.032 264.868 68.1267 264.868 67.072C264.868 66.0267 265.059 65.126 265.442 64.37C265.825 63.614 266.375 63.0307 267.094 62.62C267.813 62.2093 268.681 62.004 269.698 62.004C270.417 62.004 271.037 62.1113 271.56 62.326C272.092 62.5313 272.568 62.8393 272.988 63.25L272.554 64.16C272.246 63.8893 271.947 63.6747 271.658 63.516C271.378 63.3573 271.084 63.2407 270.776 63.166C270.468 63.082 270.109 63.04 269.698 63.04C268.531 63.04 267.635 63.3947 267.01 64.104C266.394 64.804 266.086 65.798 266.086 67.086C266.086 68.3833 266.385 69.3773 266.982 70.068C267.589 70.7587 268.527 71.104 269.796 71.104C270.263 71.104 270.706 71.062 271.126 70.978C271.555 70.8847 271.971 70.754 272.372 70.586L272.12 71.216V67.744H269.6V66.834H273.114V71.412C272.713 71.6267 272.204 71.7993 271.588 71.93C270.981 72.0607 270.375 72.126 269.768 72.126ZM278.23 72.126C277.558 72.126 276.97 71.9813 276.466 71.692C275.972 71.3933 275.589 70.9733 275.318 70.432C275.048 69.8813 274.912 69.2327 274.912 68.486C274.912 67.73 275.048 67.0813 275.318 66.54C275.589 65.9987 275.972 65.5833 276.466 65.294C276.97 64.9953 277.558 64.846 278.23 64.846C278.912 64.846 279.5 64.9953 279.994 65.294C280.498 65.5833 280.886 65.9987 281.156 66.54C281.436 67.0813 281.576 67.73 281.576 68.486C281.576 69.2327 281.436 69.8813 281.156 70.432C280.886 70.9733 280.498 71.3933 279.994 71.692C279.5 71.9813 278.912 72.126 278.23 72.126ZM278.23 71.202C278.902 71.202 279.434 70.9733 279.826 70.516C280.218 70.0493 280.414 69.3727 280.414 68.486C280.414 67.59 280.214 66.9133 279.812 66.456C279.42 65.9893 278.893 65.756 278.23 65.756C277.568 65.756 277.04 65.9893 276.648 66.456C276.256 66.9133 276.06 67.59 276.06 68.486C276.06 69.3727 276.256 70.0493 276.648 70.516C277.04 70.9733 277.568 71.202 278.23 71.202ZM286.228 72.126C285.556 72.126 284.968 71.9813 284.464 71.692C283.97 71.3933 283.587 70.9733 283.316 70.432C283.046 69.8813 282.91 69.2327 282.91 68.486C282.91 67.73 283.046 67.0813 283.316 66.54C283.587 65.9987 283.97 65.5833 284.464 65.294C284.968 64.9953 285.556 64.846 286.228 64.846C286.91 64.846 287.498 64.9953 287.992 65.294C288.496 65.5833 288.884 65.9987 289.154 66.54C289.434 67.0813 289.574 67.73 289.574 68.486C289.574 69.2327 289.434 69.8813 289.154 70.432C288.884 70.9733 288.496 71.3933 287.992 71.692C287.498 71.9813 286.91 72.126 286.228 72.126ZM286.228 71.202C286.9 71.202 287.432 70.9733 287.824 70.516C288.216 70.0493 288.412 69.3727 288.412 68.486C288.412 67.59 288.212 66.9133 287.81 66.456C287.418 65.9893 286.891 65.756 286.228 65.756C285.566 65.756 285.038 65.9893 284.646 66.456C284.254 66.9133 284.058 67.59 284.058 68.486C284.058 69.3727 284.254 70.0493 284.646 70.516C285.038 70.9733 285.566 71.202 286.228 71.202ZM294.436 75.122C293.83 75.122 293.27 75.0473 292.756 74.898C292.243 74.7487 291.781 74.52 291.37 74.212L291.706 73.358C291.996 73.5633 292.28 73.7267 292.56 73.848C292.84 73.9693 293.13 74.058 293.428 74.114C293.727 74.1793 294.044 74.212 294.38 74.212C295.071 74.212 295.594 74.03 295.948 73.666C296.303 73.302 296.48 72.784 296.48 72.112V70.054H296.62C296.471 70.6047 296.163 71.0433 295.696 71.37C295.23 71.6873 294.684 71.846 294.058 71.846C293.414 71.846 292.854 71.706 292.378 71.426C291.912 71.1367 291.548 70.7307 291.286 70.208C291.034 69.676 290.908 69.0507 290.908 68.332C290.908 67.6227 291.034 67.0067 291.286 66.484C291.548 65.9613 291.912 65.56 292.378 65.28C292.854 64.9907 293.414 64.846 294.058 64.846C294.693 64.846 295.239 65.0047 295.696 65.322C296.163 65.6393 296.471 66.078 296.62 66.638L296.48 66.498L296.606 64.972H297.712C297.675 65.2427 297.647 65.518 297.628 65.798C297.61 66.0687 297.6 66.3347 297.6 66.596V71.958C297.6 73.0033 297.33 73.792 296.788 74.324C296.256 74.856 295.472 75.122 294.436 75.122ZM294.268 70.922C294.95 70.922 295.486 70.698 295.878 70.25C296.27 69.7927 296.466 69.1533 296.466 68.332C296.466 67.5107 296.27 66.876 295.878 66.428C295.486 65.98 294.95 65.756 294.268 65.756C293.596 65.756 293.06 65.98 292.658 66.428C292.257 66.876 292.056 67.5107 292.056 68.332C292.056 69.1533 292.257 69.7927 292.658 70.25C293.06 70.698 293.596 70.922 294.268 70.922ZM299.778 72V61.696H300.912V72H299.778ZM306.236 72.126C305.134 72.126 304.266 71.8087 303.632 71.174C302.997 70.53 302.68 69.6387 302.68 68.5C302.68 67.7627 302.82 67.1233 303.1 66.582C303.38 66.0313 303.772 65.6067 304.276 65.308C304.78 65 305.358 64.846 306.012 64.846C306.656 64.846 307.197 64.9813 307.636 65.252C308.074 65.5227 308.41 65.91 308.644 66.414C308.877 66.9087 308.994 67.4967 308.994 68.178V68.598H303.548V67.884H308.252L308.014 68.066C308.014 67.3193 307.846 66.736 307.51 66.316C307.174 65.896 306.674 65.686 306.012 65.686C305.312 65.686 304.766 65.9333 304.374 66.428C303.982 66.9133 303.786 67.5713 303.786 68.402V68.528C303.786 69.4053 304 70.0727 304.43 70.53C304.868 70.978 305.48 71.202 306.264 71.202C306.684 71.202 307.076 71.1413 307.44 71.02C307.813 70.8893 308.168 70.6793 308.504 70.39L308.896 71.188C308.588 71.4867 308.196 71.72 307.72 71.888C307.253 72.0467 306.758 72.126 306.236 72.126ZM318.803 72.126C317.814 72.126 316.974 71.9207 316.283 71.51C315.593 71.0993 315.061 70.516 314.687 69.76C314.323 69.004 314.141 68.1033 314.141 67.058C314.141 66.0127 314.323 65.1167 314.687 64.37C315.061 63.614 315.593 63.0307 316.283 62.62C316.974 62.2093 317.814 62.004 318.803 62.004C319.503 62.004 320.129 62.1113 320.679 62.326C321.23 62.5407 321.711 62.8533 322.121 63.264L321.687 64.188C321.239 63.796 320.796 63.5113 320.357 63.334C319.919 63.1473 319.405 63.054 318.817 63.054C317.688 63.054 316.829 63.404 316.241 64.104C315.653 64.804 315.359 65.7887 315.359 67.058C315.359 68.3273 315.653 69.3167 316.241 70.026C316.829 70.726 317.688 71.076 318.817 71.076C319.405 71.076 319.919 70.9873 320.357 70.81C320.796 70.6233 321.239 70.3293 321.687 69.928L322.121 70.866C321.711 71.2673 321.23 71.58 320.679 71.804C320.129 72.0187 319.503 72.126 318.803 72.126ZM323.95 72V61.696H325.084V66.526H324.902C325.098 65.9753 325.424 65.56 325.882 65.28C326.348 64.9907 326.885 64.846 327.492 64.846C328.332 64.846 328.957 65.0747 329.368 65.532C329.778 65.98 329.984 66.6613 329.984 67.576V72H328.85V67.646C328.85 66.9927 328.719 66.5167 328.458 66.218C328.206 65.9193 327.795 65.77 327.226 65.77C326.572 65.77 326.05 65.9707 325.658 66.372C325.275 66.7733 325.084 67.3007 325.084 67.954V72H323.95ZM332.125 72V66.666C332.125 66.386 332.116 66.1013 332.097 65.812C332.088 65.5227 332.069 65.2427 332.041 64.972H333.133L333.273 66.68L333.077 66.694C333.17 66.274 333.334 65.9287 333.567 65.658C333.8 65.3873 334.076 65.1867 334.393 65.056C334.71 64.916 335.042 64.846 335.387 64.846C335.527 64.846 335.648 64.8507 335.751 64.86C335.863 64.8693 335.966 64.8927 336.059 64.93L336.045 65.938C335.905 65.8913 335.774 65.8633 335.653 65.854C335.541 65.8353 335.41 65.826 335.261 65.826C334.85 65.826 334.491 65.924 334.183 66.12C333.884 66.316 333.656 66.568 333.497 66.876C333.348 67.184 333.273 67.5107 333.273 67.856V72H332.125ZM340.041 72.126C339.369 72.126 338.781 71.9813 338.277 71.692C337.782 71.3933 337.399 70.9733 337.129 70.432C336.858 69.8813 336.723 69.2327 336.723 68.486C336.723 67.73 336.858 67.0813 337.129 66.54C337.399 65.9987 337.782 65.5833 338.277 65.294C338.781 64.9953 339.369 64.846 340.041 64.846C340.722 64.846 341.31 64.9953 341.805 65.294C342.309 65.5833 342.696 65.9987 342.967 66.54C343.247 67.0813 343.387 67.73 343.387 68.486C343.387 69.2327 343.247 69.8813 342.967 70.432C342.696 70.9733 342.309 71.3933 341.805 71.692C341.31 71.9813 340.722 72.126 340.041 72.126ZM340.041 71.202C340.713 71.202 341.245 70.9733 341.637 70.516C342.029 70.0493 342.225 69.3727 342.225 68.486C342.225 67.59 342.024 66.9133 341.623 66.456C341.231 65.9893 340.703 65.756 340.041 65.756C339.378 65.756 338.851 65.9893 338.459 66.456C338.067 66.9133 337.871 67.59 337.871 68.486C337.871 69.3727 338.067 70.0493 338.459 70.516C338.851 70.9733 339.378 71.202 340.041 71.202ZM345.155 72V66.596C345.155 66.3347 345.141 66.0687 345.113 65.798C345.094 65.518 345.071 65.2427 345.043 64.972H346.135L346.275 66.512H346.107C346.293 65.98 346.587 65.5693 346.989 65.28C347.399 64.9907 347.894 64.846 348.473 64.846C349.061 64.846 349.537 64.986 349.901 65.266C350.274 65.546 350.526 65.98 350.657 66.568H350.447C350.624 66.036 350.937 65.616 351.385 65.308C351.833 65 352.355 64.846 352.953 64.846C353.727 64.846 354.311 65.07 354.703 65.518C355.095 65.9567 355.291 66.652 355.291 67.604V72H354.157V67.674C354.157 67.0113 354.04 66.5307 353.807 66.232C353.573 65.924 353.2 65.77 352.687 65.77C352.099 65.77 351.632 65.9753 351.287 66.386C350.951 66.7873 350.783 67.3287 350.783 68.01V72H349.649V67.674C349.649 67.0113 349.532 66.5307 349.299 66.232C349.065 65.924 348.692 65.77 348.179 65.77C347.591 65.77 347.129 65.9753 346.793 66.386C346.457 66.7873 346.289 67.3287 346.289 68.01V72H345.155ZM360.568 72.126C359.467 72.126 358.599 71.8087 357.964 71.174C357.329 70.53 357.012 69.6387 357.012 68.5C357.012 67.7627 357.152 67.1233 357.432 66.582C357.712 66.0313 358.104 65.6067 358.608 65.308C359.112 65 359.691 64.846 360.344 64.846C360.988 64.846 361.529 64.9813 361.968 65.252C362.407 65.5227 362.743 65.91 362.976 66.414C363.209 66.9087 363.326 67.4967 363.326 68.178V68.598H357.88V67.884H362.584L362.346 68.066C362.346 67.3193 362.178 66.736 361.842 66.316C361.506 65.896 361.007 65.686 360.344 65.686C359.644 65.686 359.098 65.9333 358.706 66.428C358.314 66.9133 358.118 67.5713 358.118 68.402V68.528C358.118 69.4053 358.333 70.0727 358.762 70.53C359.201 70.978 359.812 71.202 360.596 71.202C361.016 71.202 361.408 71.1413 361.772 71.02C362.145 70.8893 362.5 70.6793 362.836 70.39L363.228 71.188C362.92 71.4867 362.528 71.72 362.052 71.888C361.585 72.0467 361.091 72.126 360.568 72.126ZM253.505 88.754C253.048 88.754 252.623 88.6467 252.231 88.432C251.839 88.208 251.526 87.9047 251.293 87.522C251.06 87.1393 250.943 86.7147 250.943 86.248C250.943 85.8187 251.05 85.4127 251.265 85.03C251.489 84.6473 251.792 84.3393 252.175 84.106C252.567 83.8633 253.01 83.742 253.505 83.742C253.962 83.742 254.382 83.854 254.765 84.078C255.148 84.2927 255.456 84.5867 255.689 84.96C255.932 85.3333 256.053 85.7627 256.053 86.248C256.053 86.7053 255.936 87.1253 255.703 87.508C255.479 87.8907 255.171 88.194 254.779 88.418C254.396 88.642 253.972 88.754 253.505 88.754ZM265.246 90V80.13H266.254L270.216 89.076H269.81L273.772 80.13H274.78V90H273.716V81.628H274.136L270.398 90H269.628L265.876 81.628H266.296V90H265.246ZM277.124 90V82.972H278.258V90H277.124ZM276.984 81.376V80.102H278.384V81.376H276.984ZM283.414 90.126C282.723 90.126 282.121 89.9767 281.608 89.678C281.104 89.3793 280.712 88.9547 280.432 88.404C280.161 87.8533 280.026 87.2 280.026 86.444C280.026 85.6787 280.166 85.03 280.446 84.498C280.726 83.9567 281.118 83.546 281.622 83.266C282.135 82.986 282.732 82.846 283.414 82.846C283.862 82.846 284.296 82.9253 284.716 83.084C285.145 83.2427 285.5 83.4667 285.78 83.756L285.374 84.568C285.094 84.2973 284.786 84.0967 284.45 83.966C284.123 83.8353 283.801 83.77 283.484 83.77C282.756 83.77 282.191 83.9987 281.79 84.456C281.388 84.9133 281.188 85.5807 281.188 86.458C281.188 87.326 281.388 87.998 281.79 88.474C282.191 88.95 282.756 89.188 283.484 89.188C283.792 89.188 284.109 89.1273 284.436 89.006C284.772 88.8847 285.084 88.684 285.374 88.404L285.78 89.202C285.49 89.5007 285.131 89.7293 284.702 89.888C284.272 90.0467 283.843 90.126 283.414 90.126ZM287.363 90V84.666C287.363 84.386 287.354 84.1013 287.335 83.812C287.326 83.5227 287.307 83.2427 287.279 82.972H288.371L288.511 84.68L288.315 84.694C288.408 84.274 288.572 83.9287 288.805 83.658C289.038 83.3873 289.314 83.1867 289.631 83.056C289.948 82.916 290.28 82.846 290.625 82.846C290.765 82.846 290.886 82.8507 290.989 82.86C291.101 82.8693 291.204 82.8927 291.297 82.93L291.283 83.938C291.143 83.8913 291.012 83.8633 290.891 83.854C290.779 83.8353 290.648 83.826 290.499 83.826C290.088 83.826 289.729 83.924 289.421 84.12C289.122 84.316 288.894 84.568 288.735 84.876C288.586 85.184 288.511 85.5107 288.511 85.856V90H287.363ZM295.279 90.126C294.607 90.126 294.019 89.9813 293.515 89.692C293.02 89.3933 292.638 88.9733 292.367 88.432C292.096 87.8813 291.961 87.2327 291.961 86.486C291.961 85.73 292.096 85.0813 292.367 84.54C292.638 83.9987 293.02 83.5833 293.515 83.294C294.019 82.9953 294.607 82.846 295.279 82.846C295.96 82.846 296.548 82.9953 297.043 83.294C297.547 83.5833 297.934 83.9987 298.205 84.54C298.485 85.0813 298.625 85.73 298.625 86.486C298.625 87.2327 298.485 87.8813 298.205 88.432C297.934 88.9733 297.547 89.3933 297.043 89.692C296.548 89.9813 295.96 90.126 295.279 90.126ZM295.279 89.202C295.951 89.202 296.483 88.9733 296.875 88.516C297.267 88.0493 297.463 87.3727 297.463 86.486C297.463 85.59 297.262 84.9133 296.861 84.456C296.469 83.9893 295.942 83.756 295.279 83.756C294.616 83.756 294.089 83.9893 293.697 84.456C293.305 84.9133 293.109 85.59 293.109 86.486C293.109 87.3727 293.305 88.0493 293.697 88.516C294.089 88.9733 294.616 89.202 295.279 89.202ZM302.731 90.126C302.171 90.126 301.648 90.0513 301.163 89.902C300.678 89.7433 300.276 89.524 299.959 89.244L300.351 88.446C300.696 88.7167 301.07 88.9173 301.471 89.048C301.882 89.1787 302.306 89.244 302.745 89.244C303.305 89.244 303.725 89.146 304.005 88.95C304.294 88.7447 304.439 88.4647 304.439 88.11C304.439 87.8393 304.346 87.6247 304.159 87.466C303.982 87.298 303.688 87.1673 303.277 87.074L301.975 86.808C301.378 86.6773 300.93 86.458 300.631 86.15C300.332 85.8327 300.183 85.4313 300.183 84.946C300.183 84.5353 300.29 84.176 300.505 83.868C300.72 83.5507 301.032 83.3033 301.443 83.126C301.854 82.9393 302.334 82.846 302.885 82.846C303.398 82.846 303.87 82.9253 304.299 83.084C304.738 83.2333 305.102 83.4527 305.391 83.742L304.985 84.526C304.705 84.2553 304.383 84.0547 304.019 83.924C303.664 83.784 303.296 83.714 302.913 83.714C302.362 83.714 301.947 83.826 301.667 84.05C301.396 84.2647 301.261 84.5493 301.261 84.904C301.261 85.1747 301.345 85.3987 301.513 85.576C301.69 85.744 301.961 85.87 302.325 85.954L303.627 86.22C304.262 86.36 304.733 86.5793 305.041 86.878C305.358 87.1673 305.517 87.5593 305.517 88.054C305.517 88.474 305.4 88.8427 305.167 89.16C304.934 89.468 304.607 89.706 304.187 89.874C303.776 90.042 303.291 90.126 302.731 90.126ZM310.222 90.126C309.55 90.126 308.962 89.9813 308.458 89.692C307.964 89.3933 307.581 88.9733 307.31 88.432C307.04 87.8813 306.904 87.2327 306.904 86.486C306.904 85.73 307.04 85.0813 307.31 84.54C307.581 83.9987 307.964 83.5833 308.458 83.294C308.962 82.9953 309.55 82.846 310.222 82.846C310.904 82.846 311.492 82.9953 311.986 83.294C312.49 83.5833 312.878 83.9987 313.148 84.54C313.428 85.0813 313.568 85.73 313.568 86.486C313.568 87.2327 313.428 87.8813 313.148 88.432C312.878 88.9733 312.49 89.3933 311.986 89.692C311.492 89.9813 310.904 90.126 310.222 90.126ZM310.222 89.202C310.894 89.202 311.426 88.9733 311.818 88.516C312.21 88.0493 312.406 87.3727 312.406 86.486C312.406 85.59 312.206 84.9133 311.804 84.456C311.412 83.9893 310.885 83.756 310.222 83.756C309.56 83.756 309.032 83.9893 308.64 84.456C308.248 84.9133 308.052 85.59 308.052 86.486C308.052 87.3727 308.248 88.0493 308.64 88.516C309.032 88.9733 309.56 89.202 310.222 89.202ZM315.632 90V83.854H314.26V82.972H315.94L315.632 83.266V82.09C315.632 81.2967 315.833 80.69 316.234 80.27C316.635 79.85 317.209 79.64 317.956 79.64C318.143 79.64 318.334 79.6587 318.53 79.696C318.735 79.724 318.903 79.766 319.034 79.822V80.76C318.922 80.7133 318.782 80.676 318.614 80.648C318.455 80.6107 318.292 80.592 318.124 80.592C317.835 80.592 317.587 80.6527 317.382 80.774C317.177 80.886 317.023 81.0587 316.92 81.292C316.817 81.5253 316.766 81.824 316.766 82.188V83.21L316.584 82.972H318.726V83.854H316.766V90H315.632ZM322.162 90.126C321.472 90.126 320.944 89.93 320.58 89.538C320.216 89.1367 320.034 88.5347 320.034 87.732V83.854H318.662V82.972H320.034V81.054L321.168 80.732V82.972H323.184V83.854H321.168V87.606C321.168 88.166 321.262 88.5673 321.448 88.81C321.644 89.0433 321.934 89.16 322.316 89.16C322.494 89.16 322.652 89.146 322.792 89.118C322.932 89.0807 323.058 89.0387 323.17 88.992V89.944C323.04 90 322.881 90.042 322.694 90.07C322.517 90.1073 322.34 90.126 322.162 90.126ZM328.341 90V80.13H334.641V81.082H329.475V84.512H334.333V85.478H329.475V89.034H334.641V90H328.341ZM339.051 90.126C338.435 90.126 337.894 89.9813 337.427 89.692C336.96 89.3933 336.596 88.9733 336.335 88.432C336.083 87.8907 335.957 87.242 335.957 86.486C335.957 85.7207 336.083 85.0673 336.335 84.526C336.596 83.9847 336.96 83.5693 337.427 83.28C337.894 82.9907 338.435 82.846 339.051 82.846C339.686 82.846 340.232 83.0047 340.689 83.322C341.156 83.6393 341.468 84.0687 341.627 84.61H341.459V79.696H342.593V90H341.473V88.32H341.627C341.478 88.88 341.17 89.3233 340.703 89.65C340.236 89.9673 339.686 90.126 339.051 90.126ZM339.289 89.202C339.952 89.202 340.484 88.9733 340.885 88.516C341.286 88.0493 341.487 87.3727 341.487 86.486C341.487 85.59 341.286 84.9133 340.885 84.456C340.484 83.9893 339.952 83.756 339.289 83.756C338.626 83.756 338.094 83.9893 337.693 84.456C337.301 84.9133 337.105 85.59 337.105 86.486C337.105 87.3727 337.301 88.0493 337.693 88.516C338.094 88.9733 338.626 89.202 339.289 89.202ZM347.88 93.122C347.273 93.122 346.713 93.0473 346.2 92.898C345.686 92.7487 345.224 92.52 344.814 92.212L345.15 91.358C345.439 91.5633 345.724 91.7267 346.004 91.848C346.284 91.9693 346.573 92.058 346.872 92.114C347.17 92.1793 347.488 92.212 347.824 92.212C348.514 92.212 349.037 92.03 349.392 91.666C349.746 91.302 349.924 90.784 349.924 90.112V88.054H350.064C349.914 88.6047 349.606 89.0433 349.14 89.37C348.673 89.6873 348.127 89.846 347.502 89.846C346.858 89.846 346.298 89.706 345.822 89.426C345.355 89.1367 344.991 88.7307 344.73 88.208C344.478 87.676 344.352 87.0507 344.352 86.332C344.352 85.6227 344.478 85.0067 344.73 84.484C344.991 83.9613 345.355 83.56 345.822 83.28C346.298 82.9907 346.858 82.846 347.502 82.846C348.136 82.846 348.682 83.0047 349.14 83.322C349.606 83.6393 349.914 84.078 350.064 84.638L349.924 84.498L350.05 82.972H351.156C351.118 83.2427 351.09 83.518 351.072 83.798C351.053 84.0687 351.044 84.3347 351.044 84.596V89.958C351.044 91.0033 350.773 91.792 350.232 92.324C349.7 92.856 348.916 93.122 347.88 93.122ZM347.712 88.922C348.393 88.922 348.93 88.698 349.322 88.25C349.714 87.7927 349.91 87.1533 349.91 86.332C349.91 85.5107 349.714 84.876 349.322 84.428C348.93 83.98 348.393 83.756 347.712 83.756C347.04 83.756 346.503 83.98 346.102 84.428C345.7 84.876 345.5 85.5107 345.5 86.332C345.5 87.1533 345.7 87.7927 346.102 88.25C346.503 88.698 347.04 88.922 347.712 88.922ZM356.343 90.126C355.242 90.126 354.374 89.8087 353.739 89.174C353.105 88.53 352.787 87.6387 352.787 86.5C352.787 85.7627 352.927 85.1233 353.207 84.582C353.487 84.0313 353.879 83.6067 354.383 83.308C354.887 83 355.466 82.846 356.119 82.846C356.763 82.846 357.305 82.9813 357.743 83.252C358.182 83.5227 358.518 83.91 358.751 84.414C358.985 84.9087 359.101 85.4967 359.101 86.178V86.598H353.655V85.884H358.359L358.121 86.066C358.121 85.3193 357.953 84.736 357.617 84.316C357.281 83.896 356.782 83.686 356.119 83.686C355.419 83.686 354.873 83.9333 354.481 84.428C354.089 84.9133 353.893 85.5713 353.893 86.402V86.528C353.893 87.4053 354.108 88.0727 354.537 88.53C354.976 88.978 355.587 89.202 356.371 89.202C356.791 89.202 357.183 89.1413 357.547 89.02C357.921 88.8893 358.275 88.6793 358.611 88.39L359.003 89.188C358.695 89.4867 358.303 89.72 357.827 89.888C357.361 90.0467 356.866 90.126 356.343 90.126Z" fill="#605E5C"/>
<path d="M265.494 18.8418V6.1518H270.786C272.154 6.1518 273.204 6.4398 273.936 7.0158C274.68 7.5918 275.052 8.4018 275.052 9.4458C275.052 10.2258 274.818 10.8798 274.35 11.4078C273.882 11.9358 273.24 12.2898 272.424 12.4698V12.1998C273.36 12.3198 274.086 12.6498 274.602 13.1898C275.118 13.7298 275.376 14.4438 275.376 15.3318C275.376 16.4598 274.992 17.3298 274.224 17.9418C273.468 18.5418 272.4 18.8418 271.02 18.8418H265.494ZM267.312 17.3838H270.822C271.674 17.3838 272.34 17.2218 272.82 16.8978C273.312 16.5738 273.558 16.0278 273.558 15.2598C273.558 14.4918 273.312 13.9458 272.82 13.6218C272.34 13.2978 271.674 13.1358 270.822 13.1358H267.312V17.3838ZM267.312 11.6958H270.498C271.41 11.6958 272.094 11.5218 272.55 11.1738C273.006 10.8258 273.234 10.3158 273.234 9.6438C273.234 8.9718 273.006 8.4618 272.55 8.1138C272.094 7.7658 271.41 7.5918 270.498 7.5918H267.312V11.6958ZM277.618 18.8418V12.0198C277.618 11.6478 277.606 11.2758 277.582 10.9038C277.57 10.5198 277.546 10.1418 277.51 9.7698H279.274L279.472 12.1098H279.184C279.304 11.5458 279.508 11.0778 279.796 10.7058C280.084 10.3338 280.432 10.0578 280.84 9.8778C281.26 9.6978 281.698 9.6078 282.154 9.6078C282.346 9.6078 282.508 9.6198 282.64 9.6438C282.772 9.6558 282.904 9.6798 283.036 9.7158L283.018 11.3358C282.814 11.2518 282.634 11.2038 282.478 11.1918C282.334 11.1678 282.154 11.1558 281.938 11.1558C281.41 11.1558 280.96 11.2758 280.588 11.5158C280.216 11.7438 279.934 12.0558 279.742 12.4518C279.55 12.8478 279.454 13.2738 279.454 13.7298V18.8418H277.618ZM288.204 19.0038C287.304 19.0038 286.524 18.8178 285.864 18.4458C285.204 18.0618 284.694 17.5218 284.334 16.8258C283.974 16.1178 283.794 15.2778 283.794 14.3058C283.794 13.3338 283.974 12.4998 284.334 11.8038C284.694 11.0958 285.204 10.5558 285.864 10.1838C286.524 9.7998 287.304 9.6078 288.204 9.6078C289.104 9.6078 289.884 9.7998 290.544 10.1838C291.216 10.5558 291.732 11.0958 292.092 11.8038C292.464 12.4998 292.65 13.3338 292.65 14.3058C292.65 15.2778 292.464 16.1178 292.092 16.8258C291.732 17.5218 291.216 18.0618 290.544 18.4458C289.884 18.8178 289.104 19.0038 288.204 19.0038ZM288.204 17.5818C288.996 17.5818 289.626 17.3058 290.094 16.7538C290.562 16.2018 290.796 15.3858 290.796 14.3058C290.796 13.2258 290.562 12.4158 290.094 11.8758C289.626 11.3238 288.996 11.0478 288.204 11.0478C287.424 11.0478 286.8 11.3238 286.332 11.8758C285.864 12.4158 285.63 13.2258 285.63 14.3058C285.63 15.3858 285.858 16.2018 286.314 16.7538C286.782 17.3058 287.412 17.5818 288.204 17.5818ZM297.083 18.8418L293.645 9.7698H295.535L298.217 17.3298H297.749L300.503 9.7698H301.907L304.643 17.3298H304.193L306.875 9.7698H308.693L305.237 18.8418H303.581L300.737 11.1378H301.583L298.775 18.8418H297.083ZM313.305 19.0038C312.549 19.0038 311.853 18.9078 311.217 18.7158C310.581 18.5238 310.053 18.2538 309.633 17.9058L310.191 16.6638C310.635 16.9998 311.127 17.2518 311.667 17.4198C312.207 17.5878 312.759 17.6718 313.323 17.6718C313.983 17.6718 314.481 17.5578 314.817 17.3298C315.153 17.0898 315.321 16.7658 315.321 16.3578C315.321 16.0458 315.213 15.7938 314.997 15.6018C314.793 15.4098 314.451 15.2658 313.971 15.1698L312.243 14.8278C311.475 14.6598 310.893 14.3718 310.497 13.9638C310.101 13.5558 309.903 13.0338 309.903 12.3978C309.903 11.8578 310.047 11.3778 310.335 10.9578C310.635 10.5378 311.055 10.2078 311.595 9.9678C312.147 9.7278 312.789 9.6078 313.521 9.6078C314.193 9.6078 314.817 9.7038 315.393 9.8958C315.969 10.0878 316.449 10.3638 316.833 10.7238L316.257 11.9298C315.885 11.6178 315.465 11.3778 314.997 11.2098C314.529 11.0298 314.055 10.9398 313.575 10.9398C312.903 10.9398 312.405 11.0658 312.081 11.3178C311.757 11.5698 311.595 11.8998 311.595 12.3078C311.595 12.6198 311.691 12.8778 311.883 13.0818C312.087 13.2738 312.405 13.4238 312.837 13.5318L314.565 13.8738C315.381 14.0418 315.993 14.3178 316.401 14.7018C316.809 15.0858 317.013 15.6018 317.013 16.2498C317.013 16.8138 316.857 17.3058 316.545 17.7258C316.233 18.1458 315.801 18.4638 315.249 18.6798C314.697 18.8958 314.049 19.0038 313.305 19.0038ZM323.35 19.0038C321.886 19.0038 320.734 18.5898 319.894 17.7618C319.054 16.9338 318.634 15.7878 318.634 14.3238C318.634 13.3758 318.814 12.5478 319.174 11.8398C319.546 11.1318 320.056 10.5858 320.704 10.2018C321.364 9.8058 322.126 9.6078 322.99 9.6078C323.842 9.6078 324.556 9.7878 325.132 10.1478C325.708 10.5078 326.146 11.0178 326.446 11.6778C326.746 12.3258 326.896 13.0938 326.896 13.9818V14.5578H320.056V13.5138H325.654L325.348 13.7478C325.348 12.8478 325.144 12.1518 324.736 11.6598C324.34 11.1558 323.764 10.9038 323.008 10.9038C322.168 10.9038 321.52 11.1978 321.064 11.7858C320.608 12.3618 320.38 13.1598 320.38 14.1798V14.3598C320.38 15.4278 320.638 16.2318 321.154 16.7718C321.682 17.3118 322.426 17.5818 323.386 17.5818C323.914 17.5818 324.406 17.5098 324.862 17.3658C325.33 17.2098 325.774 16.9578 326.194 16.6098L326.788 17.8518C326.368 18.2238 325.858 18.5118 325.258 18.7158C324.658 18.9078 324.022 19.0038 323.35 19.0038ZM328.946 18.8418V12.0198C328.946 11.6478 328.934 11.2758 328.91 10.9038C328.898 10.5198 328.874 10.1418 328.838 9.7698H330.602L330.8 12.1098H330.512C330.632 11.5458 330.836 11.0778 331.124 10.7058C331.412 10.3338 331.76 10.0578 332.168 9.8778C332.588 9.6978 333.026 9.6078 333.482 9.6078C333.674 9.6078 333.836 9.6198 333.968 9.6438C334.1 9.6558 334.232 9.6798 334.364 9.7158L334.346 11.3358C334.142 11.2518 333.962 11.2038 333.806 11.1918C333.662 11.1678 333.482 11.1558 333.266 11.1558C332.738 11.1558 332.288 11.2758 331.916 11.5158C331.544 11.7438 331.262 12.0558 331.07 12.4518C330.878 12.8478 330.782 13.2738 330.782 13.7298V18.8418H328.946ZM338.794 19.0038C338.038 19.0038 337.342 18.9078 336.706 18.7158C336.07 18.5238 335.542 18.2538 335.122 17.9058L335.68 16.6638C336.124 16.9998 336.616 17.2518 337.156 17.4198C337.696 17.5878 338.248 17.6718 338.812 17.6718C339.472 17.6718 339.97 17.5578 340.306 17.3298C340.642 17.0898 340.81 16.7658 340.81 16.3578C340.81 16.0458 340.702 15.7938 340.486 15.6018C340.282 15.4098 339.94 15.2658 339.46 15.1698L337.732 14.8278C336.964 14.6598 336.382 14.3718 335.986 13.9638C335.59 13.5558 335.392 13.0338 335.392 12.3978C335.392 11.8578 335.536 11.3778 335.824 10.9578C336.124 10.5378 336.544 10.2078 337.084 9.9678C337.636 9.7278 338.278 9.6078 339.01 9.6078C339.682 9.6078 340.306 9.7038 340.882 9.8958C341.458 10.0878 341.938 10.3638 342.322 10.7238L341.746 11.9298C341.374 11.6178 340.954 11.3778 340.486 11.2098C340.018 11.0298 339.544 10.9398 339.064 10.9398C338.392 10.9398 337.894 11.0658 337.57 11.3178C337.246 11.5698 337.084 11.8998 337.084 12.3078C337.084 12.6198 337.18 12.8778 337.372 13.0818C337.576 13.2738 337.894 13.4238 338.326 13.5318L340.054 13.8738C340.87 14.0418 341.482 14.3178 341.89 14.7018C342.298 15.0858 342.502 15.6018 342.502 16.2498C342.502 16.8138 342.346 17.3058 342.034 17.7258C341.722 18.1458 341.29 18.4638 340.738 18.6798C340.186 18.8958 339.538 19.0038 338.794 19.0038Z" fill="#605E5C"/>
<circle cx="252" cy="12.8418" r="4" fill="#605E5C"/>
</svg>
