<svg width="402" height="145" viewBox="0 0 402 145" fill="none" xmlns="http://www.w3.org/2000/svg">
<path d="M99.704 24.216C98.344 24.216 97.112 24.048 96.008 23.712C94.904 23.36 93.944 22.864 93.128 22.224L93.968 20.256C94.512 20.672 95.072 21.016 95.648 21.288C96.24 21.56 96.864 21.768 97.52 21.912C98.192 22.04 98.92 22.104 99.704 22.104C101.048 22.104 102.032 21.864 102.656 21.384C103.296 20.904 103.616 20.272 103.616 19.488C103.616 18.816 103.392 18.296 102.944 17.928C102.512 17.56 101.744 17.264 100.64 17.04L98.024 16.512C96.472 16.192 95.312 15.672 94.544 14.952C93.792 14.216 93.416 13.216 93.416 11.952C93.416 10.928 93.688 10.032 94.232 9.264C94.776 8.496 95.528 7.904 96.488 7.488C97.464 7.072 98.6 6.864 99.896 6.864C101.096 6.864 102.2 7.04 103.208 7.392C104.216 7.728 105.064 8.232 105.752 8.904L104.936 10.8C104.216 10.176 103.448 9.72 102.632 9.432C101.816 9.128 100.888 8.976 99.848 8.976C98.616 8.976 97.648 9.232 96.944 9.744C96.256 10.256 95.912 10.952 95.912 11.832C95.912 12.536 96.128 13.088 96.56 13.488C97.008 13.888 97.744 14.192 98.768 14.4L101.384 14.904C103 15.24 104.192 15.76 104.96 16.464C105.728 17.152 106.112 18.104 106.112 19.32C106.112 20.296 105.848 21.152 105.32 21.888C104.808 22.624 104.072 23.2 103.112 23.616C102.152 24.016 101.016 24.216 99.704 24.216ZM108.439 29.448L107.863 27.48C108.615 27.32 109.239 27.128 109.735 26.904C110.247 26.68 110.671 26.384 111.007 26.016C111.343 25.664 111.631 25.208 111.871 24.648L112.471 23.232L112.423 24.216L107.167 11.904H109.759L113.839 21.984H113.191L117.271 11.904H119.767L114.223 24.864C113.871 25.664 113.495 26.336 113.095 26.88C112.695 27.424 112.263 27.864 111.799 28.2C111.335 28.536 110.823 28.8 110.263 28.992C109.703 29.184 109.095 29.336 108.439 29.448ZM125.584 24.216C124.576 24.216 123.648 24.088 122.8 23.832C121.952 23.576 121.248 23.216 120.688 22.752L121.432 21.096C122.024 21.544 122.68 21.88 123.4 22.104C124.12 22.328 124.856 22.44 125.608 22.44C126.488 22.44 127.152 22.288 127.6 21.984C128.048 21.664 128.272 21.232 128.272 20.688C128.272 20.272 128.128 19.936 127.84 19.68C127.568 19.424 127.112 19.232 126.472 19.104L124.168 18.648C123.144 18.424 122.368 18.04 121.84 17.496C121.312 16.952 121.048 16.256 121.048 15.408C121.048 14.688 121.24 14.048 121.624 13.488C122.024 12.928 122.584 12.488 123.304 12.168C124.04 11.848 124.896 11.688 125.872 11.688C126.768 11.688 127.6 11.816 128.368 12.072C129.136 12.328 129.776 12.696 130.288 13.176L129.52 14.784C129.024 14.368 128.464 14.048 127.84 13.824C127.216 13.584 126.584 13.464 125.944 13.464C125.048 13.464 124.384 13.632 123.952 13.968C123.52 14.304 123.304 14.744 123.304 15.288C123.304 15.704 123.432 16.048 123.688 16.32C123.96 16.576 124.384 16.776 124.96 16.92L127.264 17.376C128.352 17.6 129.168 17.968 129.712 18.48C130.256 18.992 130.528 19.68 130.528 20.544C130.528 21.296 130.32 21.952 129.904 22.512C129.488 23.072 128.912 23.496 128.176 23.784C127.44 24.072 126.576 24.216 125.584 24.216ZM137.972 24.216C136.66 24.216 135.668 23.864 134.996 23.16C134.324 22.44 133.988 21.368 133.988 19.944V13.776H131.636V11.904H133.988V8.712L136.412 8.064V11.904H139.772V13.776H136.412V19.728C136.412 20.624 136.572 21.264 136.892 21.648C137.212 22.032 137.676 22.224 138.284 22.224C138.588 22.224 138.852 22.2 139.076 22.152C139.316 22.088 139.532 22.016 139.724 21.936V23.904C139.484 24 139.204 24.072 138.884 24.12C138.564 24.184 138.26 24.216 137.972 24.216ZM147.462 24.216C145.51 24.216 143.974 23.664 142.854 22.56C141.734 21.456 141.174 19.928 141.174 17.976C141.174 16.712 141.414 15.608 141.894 14.664C142.39 13.72 143.07 12.992 143.934 12.48C144.814 11.952 145.83 11.688 146.982 11.688C148.118 11.688 149.07 11.928 149.838 12.408C150.606 12.888 151.19 13.568 151.59 14.448C151.99 15.312 152.19 16.336 152.19 17.52V18.288H143.07V16.896H150.534L150.126 17.208C150.126 16.008 149.854 15.08 149.31 14.424C148.782 13.752 148.014 13.416 147.006 13.416C145.886 13.416 145.022 13.808 144.414 14.592C143.806 15.36 143.502 16.424 143.502 17.784V18.024C143.502 19.448 143.846 20.52 144.534 21.24C145.238 21.96 146.23 22.32 147.51 22.32C148.214 22.32 148.87 22.224 149.478 22.032C150.102 21.824 150.694 21.488 151.254 21.024L152.046 22.68C151.486 23.176 150.806 23.56 150.006 23.832C149.206 24.088 148.358 24.216 147.462 24.216ZM154.971 24V14.808C154.971 14.344 154.947 13.872 154.899 13.392C154.867 12.896 154.827 12.4 154.779 11.904H157.131L157.347 14.448H157.059C157.395 13.568 157.907 12.888 158.595 12.408C159.299 11.928 160.139 11.688 161.115 11.688C162.107 11.688 162.915 11.928 163.539 12.408C164.179 12.872 164.619 13.592 164.859 14.568H164.475C164.795 13.688 165.339 12.992 166.107 12.48C166.875 11.952 167.763 11.688 168.771 11.688C170.115 11.688 171.123 12.08 171.795 12.864C172.467 13.648 172.803 14.864 172.803 16.512V24H170.379V16.632C170.379 15.576 170.195 14.816 169.827 14.352C169.475 13.872 168.899 13.632 168.099 13.632C167.171 13.632 166.435 13.952 165.891 14.592C165.347 15.232 165.075 16.096 165.075 17.184V24H162.651V16.632C162.651 15.576 162.467 14.816 162.099 14.352C161.747 13.872 161.171 13.632 160.371 13.632C159.443 13.632 158.715 13.952 158.187 14.592C157.659 15.232 157.395 16.096 157.395 17.184V24H154.971ZM182.89 24V7.08H190.066C191.874 7.08 193.258 7.52 194.218 8.4C195.194 9.264 195.682 10.464 195.682 12C195.682 13.536 195.194 14.744 194.218 15.624C193.258 16.504 191.874 16.944 190.066 16.944H185.386V24H182.89ZM185.386 14.952H189.802C190.938 14.952 191.794 14.696 192.37 14.184C192.946 13.672 193.234 12.944 193.234 12C193.234 11.072 192.946 10.352 192.37 9.84C191.794 9.328 190.938 9.072 189.802 9.072H185.386V14.952ZM198.189 24V14.904C198.189 14.408 198.173 13.912 198.141 13.416C198.125 12.904 198.093 12.4 198.045 11.904H200.397L200.661 15.024H200.277C200.437 14.272 200.709 13.648 201.093 13.152C201.477 12.656 201.941 12.288 202.485 12.048C203.045 11.808 203.629 11.688 204.237 11.688C204.493 11.688 204.709 11.704 204.885 11.736C205.061 11.752 205.237 11.784 205.413 11.832L205.389 13.992C205.117 13.88 204.877 13.816 204.669 13.8C204.477 13.768 204.237 13.752 203.949 13.752C203.245 13.752 202.645 13.912 202.149 14.232C201.653 14.536 201.277 14.952 201.021 15.48C200.765 16.008 200.637 16.576 200.637 17.184V24H198.189ZM212.712 24.216C210.76 24.216 209.224 23.664 208.104 22.56C206.984 21.456 206.424 19.928 206.424 17.976C206.424 16.712 206.664 15.608 207.144 14.664C207.64 13.72 208.32 12.992 209.184 12.48C210.064 11.952 211.08 11.688 212.232 11.688C213.368 11.688 214.32 11.928 215.088 12.408C215.856 12.888 216.44 13.568 216.84 14.448C217.24 15.312 217.44 16.336 217.44 17.52V18.288H208.32V16.896H215.784L215.376 17.208C215.376 16.008 215.104 15.08 214.56 14.424C214.032 13.752 213.264 13.416 212.256 13.416C211.136 13.416 210.272 13.808 209.664 14.592C209.056 15.36 208.752 16.424 208.752 17.784V18.024C208.752 19.448 209.096 20.52 209.784 21.24C210.488 21.96 211.48 22.32 212.76 22.32C213.464 22.32 214.12 22.224 214.728 22.032C215.352 21.824 215.944 21.488 216.504 21.024L217.296 22.68C216.736 23.176 216.056 23.56 215.256 23.832C214.456 24.088 213.608 24.216 212.712 24.216ZM220.407 18.384V16.44H227.439V18.384H220.407ZM230.837 24V14.904C230.837 14.408 230.821 13.912 230.789 13.416C230.773 12.904 230.741 12.4 230.693 11.904H233.045L233.309 15.024H232.925C233.085 14.272 233.357 13.648 233.741 13.152C234.125 12.656 234.589 12.288 235.133 12.048C235.693 11.808 236.277 11.688 236.885 11.688C237.141 11.688 237.357 11.704 237.533 11.736C237.709 11.752 237.885 11.784 238.061 11.832L238.037 13.992C237.765 13.88 237.525 13.816 237.317 13.8C237.125 13.768 236.885 13.752 236.597 13.752C235.893 13.752 235.293 13.912 234.797 14.232C234.301 14.536 233.925 14.952 233.669 15.48C233.413 16.008 233.285 16.576 233.285 17.184V24H230.837ZM245.36 24.216C243.408 24.216 241.872 23.664 240.752 22.56C239.632 21.456 239.072 19.928 239.072 17.976C239.072 16.712 239.312 15.608 239.792 14.664C240.288 13.72 240.968 12.992 241.832 12.48C242.712 11.952 243.728 11.688 244.88 11.688C246.016 11.688 246.968 11.928 247.736 12.408C248.504 12.888 249.088 13.568 249.488 14.448C249.888 15.312 250.088 16.336 250.088 17.52V18.288H240.968V16.896H248.432L248.024 17.208C248.024 16.008 247.752 15.08 247.208 14.424C246.68 13.752 245.912 13.416 244.904 13.416C243.784 13.416 242.92 13.808 242.312 14.592C241.704 15.36 241.4 16.424 241.4 17.784V18.024C241.4 19.448 241.744 20.52 242.432 21.24C243.136 21.96 244.128 22.32 245.408 22.32C246.112 22.32 246.768 22.224 247.376 22.032C248 21.824 248.592 21.488 249.152 21.024L249.944 22.68C249.384 23.176 248.704 23.56 247.904 23.832C247.104 24.088 246.256 24.216 245.36 24.216ZM261.534 29.184V21.312H261.798C261.542 22.208 261.014 22.92 260.214 23.448C259.43 23.96 258.526 24.216 257.502 24.216C256.43 24.216 255.494 23.968 254.694 23.472C253.894 22.976 253.27 22.256 252.822 21.312C252.39 20.368 252.174 19.248 252.174 17.952C252.174 16.64 252.39 15.52 252.822 14.592C253.27 13.664 253.894 12.952 254.694 12.456C255.494 11.944 256.43 11.688 257.502 11.688C258.558 11.688 259.478 11.952 260.262 12.48C261.046 13.008 261.566 13.728 261.822 14.64H261.558L261.798 11.904H264.15C264.102 12.4 264.054 12.896 264.006 13.392C263.974 13.872 263.958 14.344 263.958 14.808V29.184H261.534ZM258.102 22.32C259.142 22.32 259.974 21.952 260.598 21.216C261.238 20.48 261.558 19.392 261.558 17.952C261.558 16.512 261.238 15.432 260.598 14.712C259.974 13.976 259.142 13.608 258.102 13.608C257.046 13.608 256.198 13.976 255.558 14.712C254.934 15.432 254.622 16.512 254.622 17.952C254.622 19.392 254.934 20.48 255.558 21.216C256.182 21.952 257.03 22.32 258.102 22.32ZM271.791 24.216C270.335 24.216 269.239 23.824 268.503 23.04C267.783 22.24 267.423 21.016 267.423 19.368V11.904H269.847V19.32C269.847 20.328 270.055 21.072 270.471 21.552C270.887 22.032 271.519 22.272 272.367 22.272C273.327 22.272 274.103 21.952 274.695 21.312C275.287 20.672 275.583 19.824 275.583 18.768V11.904H278.007V24H275.655V21.408H275.967C275.631 22.304 275.095 23 274.359 23.496C273.623 23.976 272.767 24.216 271.791 24.216ZM281.557 24V11.904H283.981V24H281.557ZM281.365 9.384V6.864H284.173V9.384H281.365ZM291.686 24.216C290.678 24.216 289.75 24.088 288.902 23.832C288.054 23.576 287.35 23.216 286.79 22.752L287.534 21.096C288.126 21.544 288.782 21.88 289.502 22.104C290.222 22.328 290.958 22.44 291.71 22.44C292.59 22.44 293.254 22.288 293.702 21.984C294.15 21.664 294.374 21.232 294.374 20.688C294.374 20.272 294.23 19.936 293.942 19.68C293.67 19.424 293.214 19.232 292.574 19.104L290.27 18.648C289.246 18.424 288.47 18.04 287.942 17.496C287.414 16.952 287.15 16.256 287.15 15.408C287.15 14.688 287.342 14.048 287.726 13.488C288.126 12.928 288.686 12.488 289.406 12.168C290.142 11.848 290.998 11.688 291.974 11.688C292.87 11.688 293.702 11.816 294.47 12.072C295.238 12.328 295.878 12.696 296.39 13.176L295.622 14.784C295.126 14.368 294.566 14.048 293.942 13.824C293.318 13.584 292.686 13.464 292.046 13.464C291.15 13.464 290.486 13.632 290.054 13.968C289.622 14.304 289.406 14.744 289.406 15.288C289.406 15.704 289.534 16.048 289.79 16.32C290.062 16.576 290.486 16.776 291.062 16.92L293.366 17.376C294.454 17.6 295.27 17.968 295.814 18.48C296.358 18.992 296.63 19.68 296.63 20.544C296.63 21.296 296.422 21.952 296.006 22.512C295.59 23.072 295.014 23.496 294.278 23.784C293.542 24.072 292.678 24.216 291.686 24.216ZM299.487 24V11.904H301.911V24H299.487ZM299.295 9.384V6.864H302.103V9.384H299.295ZM310.168 24.216C308.856 24.216 307.864 23.864 307.192 23.16C306.52 22.44 306.184 21.368 306.184 19.944V13.776H303.832V11.904H306.184V8.712L308.608 8.064V11.904H311.968V13.776H308.608V19.728C308.608 20.624 308.768 21.264 309.088 21.648C309.408 22.032 309.872 22.224 310.48 22.224C310.784 22.224 311.048 22.2 311.272 22.152C311.512 22.088 311.728 22.016 311.92 21.936V23.904C311.68 24 311.4 24.072 311.08 24.12C310.76 24.184 310.456 24.216 310.168 24.216ZM319.657 24.216C317.705 24.216 316.169 23.664 315.049 22.56C313.929 21.456 313.369 19.928 313.369 17.976C313.369 16.712 313.609 15.608 314.089 14.664C314.585 13.72 315.265 12.992 316.129 12.48C317.009 11.952 318.025 11.688 319.177 11.688C320.313 11.688 321.265 11.928 322.033 12.408C322.801 12.888 323.385 13.568 323.785 14.448C324.185 15.312 324.385 16.336 324.385 17.52V18.288H315.265V16.896H322.729L322.321 17.208C322.321 16.008 322.049 15.08 321.505 14.424C320.977 13.752 320.209 13.416 319.201 13.416C318.081 13.416 317.217 13.808 316.609 14.592C316.001 15.36 315.697 16.424 315.697 17.784V18.024C315.697 19.448 316.041 20.52 316.729 21.24C317.433 21.96 318.425 22.32 319.705 22.32C320.409 22.32 321.065 22.224 321.673 22.032C322.297 21.824 322.889 21.488 323.449 21.024L324.241 22.68C323.681 23.176 323.001 23.56 322.201 23.832C321.401 24.088 320.553 24.216 319.657 24.216ZM331.319 24.216C330.311 24.216 329.383 24.088 328.535 23.832C327.687 23.576 326.983 23.216 326.423 22.752L327.167 21.096C327.759 21.544 328.415 21.88 329.135 22.104C329.855 22.328 330.591 22.44 331.343 22.44C332.223 22.44 332.887 22.288 333.335 21.984C333.783 21.664 334.007 21.232 334.007 20.688C334.007 20.272 333.863 19.936 333.575 19.68C333.303 19.424 332.847 19.232 332.207 19.104L329.903 18.648C328.879 18.424 328.103 18.04 327.575 17.496C327.047 16.952 326.783 16.256 326.783 15.408C326.783 14.688 326.975 14.048 327.359 13.488C327.759 12.928 328.319 12.488 329.039 12.168C329.775 11.848 330.631 11.688 331.607 11.688C332.503 11.688 333.335 11.816 334.103 12.072C334.871 12.328 335.511 12.696 336.023 13.176L335.255 14.784C334.759 14.368 334.199 14.048 333.575 13.824C332.951 13.584 332.319 13.464 331.679 13.464C330.783 13.464 330.119 13.632 329.687 13.968C329.255 14.304 329.039 14.744 329.039 15.288C329.039 15.704 329.167 16.048 329.423 16.32C329.695 16.576 330.119 16.776 330.695 16.92L332.999 17.376C334.087 17.6 334.903 17.968 335.447 18.48C335.991 18.992 336.263 19.68 336.263 20.544C336.263 21.296 336.055 21.952 335.639 22.512C335.223 23.072 334.647 23.496 333.911 23.784C333.175 24.072 332.311 24.216 331.319 24.216Z" fill="#323130"/>
<circle cx="10" cy="72" r="4" fill="#605E5C"/>
<path d="M23.062 71.646C23.062 70.314 23.296 69.162 23.764 68.19C24.232 67.218 24.91 66.468 25.798 65.94C26.698 65.412 27.766 65.148 29.002 65.148C30.226 65.148 31.282 65.412 32.17 65.94C33.058 66.468 33.742 67.218 34.222 68.19C34.714 69.162 34.96 70.308 34.96 71.628C34.96 72.96 34.714 74.118 34.222 75.102C33.742 76.074 33.052 76.83 32.152 77.37C31.264 77.898 30.214 78.162 29.002 78.162C27.766 78.162 26.704 77.898 25.816 77.37C24.928 76.83 24.244 76.074 23.764 75.102C23.296 74.118 23.062 72.966 23.062 71.646ZM25.024 71.646C25.024 73.182 25.36 74.382 26.032 75.246C26.704 76.11 27.694 76.542 29.002 76.542C30.274 76.542 31.258 76.116 31.954 75.264C32.65 74.4 32.998 73.194 32.998 71.646C32.998 70.098 32.65 68.898 31.954 68.046C31.27 67.194 30.286 66.768 29.002 66.768C27.694 66.768 26.704 67.194 26.032 68.046C25.36 68.898 25.024 70.098 25.024 71.646ZM41.8053 78.162C40.7853 78.162 39.8613 78.036 39.0333 77.784C38.2053 77.52 37.4853 77.148 36.8733 76.668L37.5033 75.192C37.9113 75.504 38.3313 75.762 38.7633 75.966C39.2073 76.17 39.6753 76.326 40.1673 76.434C40.6713 76.53 41.2173 76.578 41.8053 76.578C42.8133 76.578 43.5513 76.398 44.0193 76.038C44.4993 75.678 44.7393 75.204 44.7393 74.616C44.7393 74.112 44.5713 73.722 44.2353 73.446C43.9113 73.17 43.3353 72.948 42.5073 72.78L40.5453 72.384C39.3813 72.144 38.5113 71.754 37.9353 71.214C37.3713 70.662 37.0893 69.912 37.0893 68.964C37.0893 68.196 37.2933 67.524 37.7013 66.948C38.1093 66.372 38.6733 65.928 39.3933 65.616C40.1253 65.304 40.9773 65.148 41.9493 65.148C42.8493 65.148 43.6773 65.28 44.4333 65.544C45.1893 65.796 45.8253 66.174 46.3413 66.678L45.7293 68.1C45.1893 67.632 44.6133 67.29 44.0013 67.074C43.3893 66.846 42.6933 66.732 41.9133 66.732C40.9893 66.732 40.2633 66.924 39.7353 67.308C39.2193 67.692 38.9613 68.214 38.9613 68.874C38.9613 69.402 39.1233 69.816 39.4473 70.116C39.7833 70.416 40.3353 70.644 41.1033 70.8L43.0653 71.178C44.2773 71.43 45.1713 71.82 45.7473 72.348C46.3233 72.864 46.6113 73.578 46.6113 74.49C46.6113 75.222 46.4133 75.864 46.0173 76.416C45.6333 76.968 45.0813 77.4 44.3613 77.712C43.6413 78.012 42.7893 78.162 41.8053 78.162Z" fill="#605E5C"/>
<path d="M10.5049 111.754C10.0476 111.754 9.62292 111.647 9.23092 111.432C8.83892 111.208 8.52626 110.905 8.29292 110.522C8.05959 110.139 7.94292 109.715 7.94292 109.248C7.94292 108.819 8.05026 108.413 8.26492 108.03C8.48892 107.647 8.79226 107.339 9.17492 107.106C9.56692 106.863 10.0103 106.742 10.5049 106.742C10.9623 106.742 11.3823 106.854 11.7649 107.078C12.1476 107.293 12.4556 107.587 12.6889 107.96C12.9316 108.333 13.0529 108.763 13.0529 109.248C13.0529 109.705 12.9363 110.125 12.7029 110.508C12.4789 110.891 12.1709 111.194 11.7789 111.418C11.3963 111.642 10.9716 111.754 10.5049 111.754ZM22.246 113V103.13H23.254L27.216 112.076H26.81L30.772 103.13H31.78V113H30.716V104.628H31.136L27.398 113H26.628L22.876 104.628H23.296V113H22.246ZM36.7976 113.126C36.1722 113.126 35.6262 112.981 35.1596 112.692C34.6929 112.393 34.3289 111.973 34.0676 111.432C33.8156 110.891 33.6896 110.242 33.6896 109.486C33.6896 108.721 33.8156 108.067 34.0676 107.526C34.3289 106.985 34.6929 106.569 35.1596 106.28C35.6262 105.991 36.1722 105.846 36.7976 105.846C37.4322 105.846 37.9782 106.009 38.4356 106.336C38.9022 106.653 39.2102 107.087 39.3596 107.638H39.1916L39.3456 105.972H40.4376C40.4096 106.243 40.3816 106.518 40.3536 106.798C40.3349 107.069 40.3256 107.335 40.3256 107.596V113H39.1916V111.348H39.3456C39.1962 111.899 38.8882 112.333 38.4216 112.65C37.9549 112.967 37.4136 113.126 36.7976 113.126ZM37.0216 112.202C37.6936 112.202 38.2256 111.973 38.6176 111.516C39.0096 111.049 39.2056 110.373 39.2056 109.486C39.2056 108.59 39.0096 107.913 38.6176 107.456C38.2256 106.989 37.6936 106.756 37.0216 106.756C36.3589 106.756 35.8269 106.989 35.4256 107.456C35.0336 107.913 34.8376 108.59 34.8376 109.486C34.8376 110.373 35.0336 111.049 35.4256 111.516C35.8269 111.973 36.3589 112.202 37.0216 112.202ZM45.4721 113.126C44.7814 113.126 44.1794 112.977 43.6661 112.678C43.1621 112.379 42.7701 111.955 42.4901 111.404C42.2194 110.853 42.0841 110.2 42.0841 109.444C42.0841 108.679 42.2241 108.03 42.5041 107.498C42.7841 106.957 43.1761 106.546 43.6801 106.266C44.1934 105.986 44.7908 105.846 45.4721 105.846C45.9201 105.846 46.3541 105.925 46.7741 106.084C47.2034 106.243 47.5581 106.467 47.8381 106.756L47.4321 107.568C47.1521 107.297 46.8441 107.097 46.5081 106.966C46.1814 106.835 45.8594 106.77 45.5421 106.77C44.8141 106.77 44.2494 106.999 43.8481 107.456C43.4468 107.913 43.2461 108.581 43.2461 109.458C43.2461 110.326 43.4468 110.998 43.8481 111.474C44.2494 111.95 44.8141 112.188 45.5421 112.188C45.8501 112.188 46.1674 112.127 46.4941 112.006C46.8301 111.885 47.1428 111.684 47.4321 111.404L47.8381 112.202C47.5488 112.501 47.1894 112.729 46.7601 112.888C46.3308 113.047 45.9014 113.126 45.4721 113.126ZM52.8621 108.058C52.8621 107.013 53.0395 106.117 53.3941 105.37C53.7581 104.614 54.2761 104.031 54.9481 103.62C55.6295 103.209 56.4461 103.004 57.3981 103.004C58.3221 103.004 59.1248 103.209 59.8061 103.62C60.4875 104.031 61.0101 104.614 61.3741 105.37C61.7475 106.117 61.9341 107.008 61.9341 108.044C61.9341 109.089 61.7475 109.99 61.3741 110.746C61.0008 111.502 60.4735 112.09 59.7921 112.51C59.1201 112.921 58.3221 113.126 57.3981 113.126C56.4461 113.126 55.6341 112.921 54.9621 112.51C54.2901 112.09 53.7721 111.502 53.4081 110.746C53.0441 109.99 52.8621 109.094 52.8621 108.058ZM54.0801 108.058C54.0801 109.327 54.3601 110.321 54.9201 111.04C55.4801 111.749 56.3061 112.104 57.3981 112.104C58.4435 112.104 59.2555 111.749 59.8341 111.04C60.4221 110.321 60.7161 109.327 60.7161 108.058C60.7161 106.779 60.4268 105.79 59.8481 105.09C59.2695 104.381 58.4528 104.026 57.3981 104.026C56.3061 104.026 55.4801 104.381 54.9201 105.09C54.3601 105.79 54.0801 106.779 54.0801 108.058ZM67.2606 113.126C66.4673 113.126 65.7579 113.023 65.1326 112.818C64.5073 112.613 63.9613 112.319 63.4946 111.936L63.9146 111.012C64.2413 111.255 64.5679 111.46 64.8946 111.628C65.2306 111.787 65.5899 111.908 65.9726 111.992C66.3553 112.067 66.7846 112.104 67.2606 112.104C68.0913 112.104 68.7073 111.95 69.1086 111.642C69.5099 111.334 69.7106 110.923 69.7106 110.41C69.7106 109.971 69.5706 109.635 69.2906 109.402C69.0106 109.169 68.5206 108.982 67.8206 108.842L66.3506 108.548C65.4453 108.361 64.7686 108.058 64.3206 107.638C63.8819 107.218 63.6626 106.649 63.6626 105.93C63.6626 105.342 63.8119 104.829 64.1106 104.39C64.4186 103.951 64.8479 103.611 65.3986 103.368C65.9493 103.125 66.5886 103.004 67.3166 103.004C68.0166 103.004 68.6559 103.111 69.2346 103.326C69.8133 103.531 70.3079 103.835 70.7186 104.236L70.3126 105.132C69.8739 104.74 69.4119 104.46 68.9266 104.292C68.4506 104.115 67.9093 104.026 67.3026 104.026C66.5373 104.026 65.9306 104.194 65.4826 104.53C65.0439 104.857 64.8246 105.305 64.8246 105.874C64.8246 106.331 64.9646 106.691 65.2446 106.952C65.5246 107.204 65.9866 107.395 66.6306 107.526L68.1146 107.82C69.0666 108.016 69.7666 108.31 70.2146 108.702C70.6626 109.094 70.8866 109.645 70.8866 110.354C70.8866 110.895 70.7373 111.376 70.4386 111.796C70.1493 112.216 69.7339 112.543 69.1926 112.776C68.6513 113.009 68.0073 113.126 67.2606 113.126ZM78.3036 115.52C77.921 114.82 77.6036 114.134 77.3516 113.462C77.0996 112.799 76.913 112.127 76.7916 111.446C76.6796 110.765 76.6236 110.055 76.6236 109.318C76.6236 108.581 76.6796 107.871 76.7916 107.19C76.913 106.509 77.0996 105.837 77.3516 105.174C77.6036 104.502 77.921 103.821 78.3036 103.13H79.2556C78.7796 104.175 78.4156 105.211 78.1636 106.238C77.921 107.255 77.7996 108.282 77.7996 109.318C77.7996 110.345 77.921 111.376 78.1636 112.412C78.4156 113.439 78.7796 114.475 79.2556 115.52H78.3036ZM80.8847 113V103.13H81.8927L85.8547 112.076H85.4487L89.4107 103.13H90.4187V113H89.3547V104.628H89.7747L86.0367 113H85.2667L81.5147 104.628H81.9347V113H80.8847ZM95.6463 113.126C94.9743 113.126 94.3863 112.981 93.8823 112.692C93.3876 112.393 93.0049 111.973 92.7343 111.432C92.4636 110.881 92.3283 110.233 92.3283 109.486C92.3283 108.73 92.4636 108.081 92.7343 107.54C93.0049 106.999 93.3876 106.583 93.8823 106.294C94.3863 105.995 94.9743 105.846 95.6463 105.846C96.3276 105.846 96.9156 105.995 97.4103 106.294C97.9143 106.583 98.3016 106.999 98.5723 107.54C98.8523 108.081 98.9923 108.73 98.9923 109.486C98.9923 110.233 98.8523 110.881 98.5723 111.432C98.3016 111.973 97.9143 112.393 97.4103 112.692C96.9156 112.981 96.3276 113.126 95.6463 113.126ZM95.6463 112.202C96.3183 112.202 96.8503 111.973 97.2423 111.516C97.6343 111.049 97.8303 110.373 97.8303 109.486C97.8303 108.59 97.6296 107.913 97.2283 107.456C96.8363 106.989 96.3089 106.756 95.6463 106.756C94.9836 106.756 94.4563 106.989 94.0643 107.456C93.6723 107.913 93.4763 108.59 93.4763 109.486C93.4763 110.373 93.6723 111.049 94.0643 111.516C94.4563 111.973 94.9836 112.202 95.6463 112.202ZM100.76 113V107.596C100.76 107.335 100.746 107.069 100.718 106.798C100.7 106.518 100.676 106.243 100.648 105.972H101.74L101.88 107.512H101.712C101.918 106.971 102.244 106.56 102.692 106.28C103.15 105.991 103.677 105.846 104.274 105.846C105.105 105.846 105.73 106.07 106.15 106.518C106.58 106.957 106.794 107.652 106.794 108.604V113H105.66V108.674C105.66 108.011 105.525 107.531 105.254 107.232C104.993 106.924 104.582 106.77 104.022 106.77C103.369 106.77 102.851 106.971 102.468 107.372C102.086 107.773 101.894 108.31 101.894 108.982V113H100.76ZM111.455 113.126C110.765 113.126 110.237 112.93 109.873 112.538C109.509 112.137 109.327 111.535 109.327 110.732V106.854H107.955V105.972H109.327V104.054L110.461 103.732V105.972H112.477V106.854H110.461V110.606C110.461 111.166 110.555 111.567 110.741 111.81C110.937 112.043 111.227 112.16 111.609 112.16C111.787 112.16 111.945 112.146 112.085 112.118C112.225 112.081 112.351 112.039 112.463 111.992V112.944C112.333 113 112.174 113.042 111.987 113.07C111.81 113.107 111.633 113.126 111.455 113.126ZM116.912 113.126C115.81 113.126 114.942 112.809 114.308 112.174C113.673 111.53 113.356 110.639 113.356 109.5C113.356 108.763 113.496 108.123 113.776 107.582C114.056 107.031 114.448 106.607 114.952 106.308C115.456 106 116.034 105.846 116.688 105.846C117.332 105.846 117.873 105.981 118.312 106.252C118.75 106.523 119.086 106.91 119.32 107.414C119.553 107.909 119.67 108.497 119.67 109.178V109.598H114.224V108.884H118.928L118.69 109.066C118.69 108.319 118.522 107.736 118.186 107.316C117.85 106.896 117.35 106.686 116.688 106.686C115.988 106.686 115.442 106.933 115.05 107.428C114.658 107.913 114.462 108.571 114.462 109.402V109.528C114.462 110.405 114.676 111.073 115.106 111.53C115.544 111.978 116.156 112.202 116.94 112.202C117.36 112.202 117.752 112.141 118.116 112.02C118.489 111.889 118.844 111.679 119.18 111.39L119.572 112.188C119.264 112.487 118.872 112.72 118.396 112.888C117.929 113.047 117.434 113.126 116.912 113.126ZM121.377 113V107.666C121.377 107.386 121.367 107.101 121.349 106.812C121.339 106.523 121.321 106.243 121.293 105.972H122.385L122.525 107.68L122.329 107.694C122.422 107.274 122.585 106.929 122.819 106.658C123.052 106.387 123.327 106.187 123.645 106.056C123.962 105.916 124.293 105.846 124.639 105.846C124.779 105.846 124.9 105.851 125.003 105.86C125.115 105.869 125.217 105.893 125.311 105.93L125.297 106.938C125.157 106.891 125.026 106.863 124.905 106.854C124.793 106.835 124.662 106.826 124.513 106.826C124.102 106.826 123.743 106.924 123.435 107.12C123.136 107.316 122.907 107.568 122.749 107.876C122.599 108.184 122.525 108.511 122.525 108.856V113H121.377ZM129.531 113.126C128.429 113.126 127.561 112.809 126.927 112.174C126.292 111.53 125.975 110.639 125.975 109.5C125.975 108.763 126.115 108.123 126.395 107.582C126.675 107.031 127.067 106.607 127.571 106.308C128.075 106 128.653 105.846 129.307 105.846C129.951 105.846 130.492 105.981 130.931 106.252C131.369 106.523 131.705 106.91 131.939 107.414C132.172 107.909 132.289 108.497 132.289 109.178V109.598H126.843V108.884H131.547L131.309 109.066C131.309 108.319 131.141 107.736 130.805 107.316C130.469 106.896 129.969 106.686 129.307 106.686C128.607 106.686 128.061 106.933 127.669 107.428C127.277 107.913 127.081 108.571 127.081 109.402V109.528C127.081 110.405 127.295 111.073 127.725 111.53C128.163 111.978 128.775 112.202 129.559 112.202C129.979 112.202 130.371 112.141 130.735 112.02C131.108 111.889 131.463 111.679 131.799 111.39L132.191 112.188C131.883 112.487 131.491 112.72 131.015 112.888C130.548 113.047 130.053 113.126 129.531 113.126ZM133.662 116.178L133.396 115.24C133.835 115.137 134.199 115.016 134.488 114.876C134.787 114.745 135.034 114.568 135.23 114.344C135.426 114.12 135.594 113.84 135.734 113.504L136.098 112.678L136.07 113.154L133.004 105.972H134.236L136.77 112.146H136.406L138.912 105.972H140.102L136.854 113.588C136.667 114.036 136.462 114.409 136.238 114.708C136.014 115.016 135.771 115.263 135.51 115.45C135.258 115.646 134.978 115.8 134.67 115.912C134.362 116.024 134.026 116.113 133.662 116.178ZM147.704 113.126C147.078 113.126 146.532 112.981 146.066 112.692C145.599 112.393 145.235 111.973 144.974 111.432C144.722 110.891 144.596 110.242 144.596 109.486C144.596 108.721 144.722 108.067 144.974 107.526C145.235 106.985 145.599 106.569 146.066 106.28C146.532 105.991 147.078 105.846 147.704 105.846C148.338 105.846 148.884 106.009 149.342 106.336C149.808 106.653 150.116 107.087 150.266 107.638H150.098L150.252 105.972H151.344C151.316 106.243 151.288 106.518 151.26 106.798C151.241 107.069 151.232 107.335 151.232 107.596V113H150.098V111.348H150.252C150.102 111.899 149.794 112.333 149.328 112.65C148.861 112.967 148.32 113.126 147.704 113.126ZM147.928 112.202C148.6 112.202 149.132 111.973 149.524 111.516C149.916 111.049 150.112 110.373 150.112 109.486C150.112 108.59 149.916 107.913 149.524 107.456C149.132 106.989 148.6 106.756 147.928 106.756C147.265 106.756 146.733 106.989 146.332 107.456C145.94 107.913 145.744 108.59 145.744 109.486C145.744 110.373 145.94 111.049 146.332 111.516C146.733 111.973 147.265 112.202 147.928 112.202ZM153.424 113V107.596C153.424 107.335 153.41 107.069 153.382 106.798C153.364 106.518 153.34 106.243 153.312 105.972H154.404L154.544 107.512H154.376C154.582 106.971 154.908 106.56 155.356 106.28C155.814 105.991 156.341 105.846 156.938 105.846C157.769 105.846 158.394 106.07 158.814 106.518C159.244 106.957 159.458 107.652 159.458 108.604V113H158.324V108.674C158.324 108.011 158.189 107.531 157.918 107.232C157.657 106.924 157.246 106.77 156.686 106.77C156.033 106.77 155.515 106.971 155.132 107.372C154.75 107.773 154.558 108.31 154.558 108.982V113H153.424ZM164.287 113.126C163.671 113.126 163.13 112.981 162.663 112.692C162.197 112.393 161.833 111.973 161.571 111.432C161.319 110.891 161.193 110.242 161.193 109.486C161.193 108.721 161.319 108.067 161.571 107.526C161.833 106.985 162.197 106.569 162.663 106.28C163.13 105.991 163.671 105.846 164.287 105.846C164.922 105.846 165.468 106.005 165.925 106.322C166.392 106.639 166.705 107.069 166.863 107.61H166.695V102.696H167.829V113H166.709V111.32H166.863C166.714 111.88 166.406 112.323 165.939 112.65C165.473 112.967 164.922 113.126 164.287 113.126ZM164.525 112.202C165.188 112.202 165.72 111.973 166.121 111.516C166.523 111.049 166.723 110.373 166.723 109.486C166.723 108.59 166.523 107.913 166.121 107.456C165.72 106.989 165.188 106.756 164.525 106.756C163.863 106.756 163.331 106.989 162.929 107.456C162.537 107.913 162.341 108.59 162.341 109.486C162.341 110.373 162.537 111.049 162.929 111.516C163.331 111.973 163.863 112.202 164.525 112.202ZM176.346 113.126C175.721 113.126 175.175 112.981 174.708 112.692C174.242 112.393 173.878 111.973 173.616 111.432C173.364 110.891 173.238 110.242 173.238 109.486C173.238 108.721 173.364 108.067 173.616 107.526C173.878 106.985 174.242 106.569 174.708 106.28C175.175 105.991 175.721 105.846 176.346 105.846C176.981 105.846 177.527 106.009 177.984 106.336C178.451 106.653 178.759 107.087 178.908 107.638H178.74L178.894 105.972H179.986C179.958 106.243 179.93 106.518 179.902 106.798C179.884 107.069 179.874 107.335 179.874 107.596V113H178.74V111.348H178.894C178.745 111.899 178.437 112.333 177.97 112.65C177.504 112.967 176.962 113.126 176.346 113.126ZM176.57 112.202C177.242 112.202 177.774 111.973 178.166 111.516C178.558 111.049 178.754 110.373 178.754 109.486C178.754 108.59 178.558 107.913 178.166 107.456C177.774 106.989 177.242 106.756 176.57 106.756C175.908 106.756 175.376 106.989 174.974 107.456C174.582 107.913 174.386 108.59 174.386 109.486C174.386 110.373 174.582 111.049 174.974 111.516C175.376 111.973 175.908 112.202 176.57 112.202ZM185.595 113.126C184.96 113.126 184.414 112.967 183.957 112.65C183.5 112.323 183.192 111.88 183.033 111.32H183.187V113H182.067V102.696H183.201V107.61H183.033C183.192 107.069 183.5 106.639 183.957 106.322C184.414 106.005 184.96 105.846 185.595 105.846C186.23 105.846 186.776 105.995 187.233 106.294C187.7 106.583 188.059 106.999 188.311 107.54C188.572 108.081 188.703 108.73 188.703 109.486C188.703 110.242 188.572 110.891 188.311 111.432C188.05 111.973 187.686 112.393 187.219 112.692C186.762 112.981 186.22 113.126 185.595 113.126ZM185.357 112.202C186.02 112.202 186.552 111.973 186.953 111.516C187.354 111.059 187.555 110.382 187.555 109.486C187.555 108.59 187.354 107.913 186.953 107.456C186.552 106.989 186.02 106.756 185.357 106.756C184.694 106.756 184.162 106.989 183.761 107.456C183.369 107.913 183.173 108.59 183.173 109.486C183.173 110.373 183.369 111.049 183.761 111.516C184.162 111.973 184.694 112.202 185.357 112.202ZM193.345 113.126C192.673 113.126 192.085 112.981 191.581 112.692C191.087 112.393 190.704 111.973 190.433 111.432C190.163 110.881 190.027 110.233 190.027 109.486C190.027 108.73 190.163 108.081 190.433 107.54C190.704 106.999 191.087 106.583 191.581 106.294C192.085 105.995 192.673 105.846 193.345 105.846C194.027 105.846 194.615 105.995 195.109 106.294C195.613 106.583 196.001 106.999 196.271 107.54C196.551 108.081 196.691 108.73 196.691 109.486C196.691 110.233 196.551 110.881 196.271 111.432C196.001 111.973 195.613 112.393 195.109 112.692C194.615 112.981 194.027 113.126 193.345 113.126ZM193.345 112.202C194.017 112.202 194.549 111.973 194.941 111.516C195.333 111.049 195.529 110.373 195.529 109.486C195.529 108.59 195.329 107.913 194.927 107.456C194.535 106.989 194.008 106.756 193.345 106.756C192.683 106.756 192.155 106.989 191.763 107.456C191.371 107.913 191.175 108.59 191.175 109.486C191.175 110.373 191.371 111.049 191.763 111.516C192.155 111.973 192.683 112.202 193.345 112.202ZM200.436 113L197.426 105.972H198.658L201.178 112.16H200.8L203.348 105.972H204.524L201.514 113H200.436ZM208.828 113.126C207.726 113.126 206.858 112.809 206.224 112.174C205.589 111.53 205.272 110.639 205.272 109.5C205.272 108.763 205.412 108.123 205.692 107.582C205.972 107.031 206.364 106.607 206.868 106.308C207.372 106 207.95 105.846 208.604 105.846C209.248 105.846 209.789 105.981 210.228 106.252C210.666 106.523 211.002 106.91 211.236 107.414C211.469 107.909 211.586 108.497 211.586 109.178V109.598H206.14V108.884H210.844L210.606 109.066C210.606 108.319 210.438 107.736 210.102 107.316C209.766 106.896 209.266 106.686 208.604 106.686C207.904 106.686 207.358 106.933 206.966 107.428C206.574 107.913 206.378 108.571 206.378 109.402V109.528C206.378 110.405 206.592 111.073 207.022 111.53C207.46 111.978 208.072 112.202 208.856 112.202C209.276 112.202 209.668 112.141 210.032 112.02C210.405 111.889 210.76 111.679 211.096 111.39L211.488 112.188C211.18 112.487 210.788 112.72 210.312 112.888C209.845 113.047 209.35 113.126 208.828 113.126ZM213.394 115.52H212.456C212.932 114.475 213.291 113.439 213.534 112.412C213.786 111.385 213.912 110.359 213.912 109.332C213.912 108.296 213.786 107.265 213.534 106.238C213.291 105.211 212.932 104.175 212.456 103.13H213.394C213.795 103.821 214.117 104.502 214.36 105.174C214.612 105.837 214.794 106.513 214.906 107.204C215.027 107.885 215.088 108.595 215.088 109.332C215.088 110.06 215.027 110.769 214.906 111.46C214.794 112.141 214.612 112.813 214.36 113.476C214.117 114.148 213.795 114.829 213.394 115.52Z" fill="#605E5C"/>
<line x1="250" y1="91" x2="250" y2="131" stroke="#605E5C" stroke-width="2"/>
<path d="M291.505 103.754C291.048 103.754 290.623 103.647 290.231 103.432C289.839 103.208 289.526 102.905 289.293 102.522C289.06 102.139 288.943 101.715 288.943 101.248C288.943 100.819 289.05 100.413 289.265 100.03C289.489 99.6473 289.792 99.3393 290.175 99.106C290.567 98.8633 291.01 98.742 291.505 98.742C291.962 98.742 292.382 98.854 292.765 99.078C293.148 99.2927 293.456 99.5867 293.689 99.96C293.932 100.333 294.053 100.763 294.053 101.248C294.053 101.705 293.936 102.125 293.703 102.508C293.479 102.891 293.171 103.194 292.779 103.418C292.396 103.642 291.972 103.754 291.505 103.754ZM303.246 105V95.13H304.254L308.216 104.076H307.81L311.772 95.13H312.78V105H311.716V96.628H312.136L308.398 105H307.628L303.876 96.628H304.296V105H303.246ZM318.008 105.126C317.336 105.126 316.748 104.981 316.244 104.692C315.749 104.393 315.366 103.973 315.096 103.432C314.825 102.881 314.69 102.233 314.69 101.486C314.69 100.73 314.825 100.081 315.096 99.54C315.366 98.9987 315.749 98.5833 316.244 98.294C316.748 97.9953 317.336 97.846 318.008 97.846C318.689 97.846 319.277 97.9953 319.772 98.294C320.276 98.5833 320.663 98.9987 320.934 99.54C321.214 100.081 321.354 100.73 321.354 101.486C321.354 102.233 321.214 102.881 320.934 103.432C320.663 103.973 320.276 104.393 319.772 104.692C319.277 104.981 318.689 105.126 318.008 105.126ZM318.008 104.202C318.68 104.202 319.212 103.973 319.604 103.516C319.996 103.049 320.192 102.373 320.192 101.486C320.192 100.59 319.991 99.9133 319.59 99.456C319.198 98.9893 318.67 98.756 318.008 98.756C317.345 98.756 316.818 98.9893 316.426 99.456C316.034 99.9133 315.838 100.59 315.838 101.486C315.838 102.373 316.034 103.049 316.426 103.516C316.818 103.973 317.345 104.202 318.008 104.202ZM322.634 105V104.244L327.366 98.56L327.38 98.854H322.634V97.972H328.43V98.728L323.642 104.44L323.628 104.118H328.584V105H322.634ZM330.299 105V97.972H331.433V105H330.299ZM330.159 96.376V95.102H331.559V96.376H330.159ZM333.635 105V94.696H334.769V105H333.635ZM336.971 105V94.696H338.105V105H336.971ZM342.981 105.126C342.356 105.126 341.81 104.981 341.343 104.692C340.877 104.393 340.513 103.973 340.251 103.432C339.999 102.891 339.873 102.242 339.873 101.486C339.873 100.721 339.999 100.067 340.251 99.526C340.513 98.9847 340.877 98.5693 341.343 98.28C341.81 97.9907 342.356 97.846 342.981 97.846C343.616 97.846 344.162 98.0093 344.619 98.336C345.086 98.6533 345.394 99.0873 345.543 99.638H345.375L345.529 97.972H346.621C346.593 98.2427 346.565 98.518 346.537 98.798C346.519 99.0687 346.509 99.3347 346.509 99.596V105H345.375V103.348H345.529C345.38 103.899 345.072 104.333 344.605 104.65C344.139 104.967 343.597 105.126 342.981 105.126ZM343.205 104.202C343.877 104.202 344.409 103.973 344.801 103.516C345.193 103.049 345.389 102.373 345.389 101.486C345.389 100.59 345.193 99.9133 344.801 99.456C344.409 98.9893 343.877 98.756 343.205 98.756C342.543 98.756 342.011 98.9893 341.609 99.456C341.217 99.9133 341.021 100.59 341.021 101.486C341.021 102.373 341.217 103.049 341.609 103.516C342.011 103.973 342.543 104.202 343.205 104.202ZM352.478 105V95.13H358.638V96.082H353.64V99.54H358.33V100.492H353.64V105H352.478ZM360.213 105V97.972H361.347V105H360.213ZM360.073 96.376V95.102H361.473V96.376H360.073ZM363.521 105V99.666C363.521 99.386 363.512 99.1013 363.493 98.812C363.484 98.5227 363.465 98.2427 363.437 97.972H364.529L364.669 99.68L364.473 99.694C364.567 99.274 364.73 98.9287 364.963 98.658C365.197 98.3873 365.472 98.1867 365.789 98.056C366.107 97.916 366.438 97.846 366.783 97.846C366.923 97.846 367.045 97.8507 367.147 97.86C367.259 97.8693 367.362 97.8927 367.455 97.93L367.441 98.938C367.301 98.8913 367.171 98.8633 367.049 98.854C366.937 98.8353 366.807 98.826 366.657 98.826C366.247 98.826 365.887 98.924 365.579 99.12C365.281 99.316 365.052 99.568 364.893 99.876C364.744 100.184 364.669 100.511 364.669 100.856V105H363.521ZM371.675 105.126C370.574 105.126 369.706 104.809 369.071 104.174C368.437 103.53 368.119 102.639 368.119 101.5C368.119 100.763 368.259 100.123 368.539 99.582C368.819 99.0313 369.211 98.6067 369.715 98.308C370.219 98 370.798 97.846 371.451 97.846C372.095 97.846 372.637 97.9813 373.075 98.252C373.514 98.5227 373.85 98.91 374.083 99.414C374.317 99.9087 374.433 100.497 374.433 101.178V101.598H368.987V100.884H373.691L373.453 101.066C373.453 100.319 373.285 99.736 372.949 99.316C372.613 98.896 372.114 98.686 371.451 98.686C370.751 98.686 370.205 98.9333 369.813 99.428C369.421 99.9133 369.225 100.571 369.225 101.402V101.528C369.225 102.405 369.44 103.073 369.869 103.53C370.308 103.978 370.919 104.202 371.703 104.202C372.123 104.202 372.515 104.141 372.879 104.02C373.253 103.889 373.607 103.679 373.943 103.39L374.335 104.188C374.027 104.487 373.635 104.72 373.159 104.888C372.693 105.047 372.198 105.126 371.675 105.126ZM376.533 105V98.854H375.161V97.972H376.841L376.533 98.266V97.09C376.533 96.2967 376.733 95.69 377.135 95.27C377.536 94.85 378.11 94.64 378.857 94.64C379.043 94.64 379.235 94.6587 379.431 94.696C379.636 94.724 379.804 94.766 379.935 94.822V95.76C379.823 95.7133 379.683 95.676 379.515 95.648C379.356 95.6107 379.193 95.592 379.025 95.592C378.735 95.592 378.488 95.6527 378.283 95.774C378.077 95.886 377.923 96.0587 377.821 96.292C377.718 96.5253 377.667 96.824 377.667 97.188V98.21L377.485 97.972H379.627V98.854H377.667V105H376.533ZM383.592 105.126C382.92 105.126 382.332 104.981 381.828 104.692C381.333 104.393 380.95 103.973 380.68 103.432C380.409 102.881 380.274 102.233 380.274 101.486C380.274 100.73 380.409 100.081 380.68 99.54C380.95 98.9987 381.333 98.5833 381.828 98.294C382.332 97.9953 382.92 97.846 383.592 97.846C384.273 97.846 384.861 97.9953 385.356 98.294C385.86 98.5833 386.247 98.9987 386.518 99.54C386.798 100.081 386.938 100.73 386.938 101.486C386.938 102.233 386.798 102.881 386.518 103.432C386.247 103.973 385.86 104.393 385.356 104.692C384.861 104.981 384.273 105.126 383.592 105.126ZM383.592 104.202C384.264 104.202 384.796 103.973 385.188 103.516C385.58 103.049 385.776 102.373 385.776 101.486C385.776 100.59 385.575 99.9133 385.174 99.456C384.782 98.9893 384.254 98.756 383.592 98.756C382.929 98.756 382.402 98.9893 382.01 99.456C381.618 99.9133 381.422 100.59 381.422 101.486C381.422 102.373 381.618 103.049 382.01 103.516C382.402 103.973 382.929 104.202 383.592 104.202ZM387.603 105L390.753 101.094V101.654L387.771 97.972H389.143L391.397 100.842H390.991L393.231 97.972H394.589L391.649 101.64V101.122L394.771 105H393.385L390.977 101.934H391.397L388.961 105H387.603ZM291.505 121.754C291.048 121.754 290.623 121.647 290.231 121.432C289.839 121.208 289.526 120.905 289.293 120.522C289.06 120.139 288.943 119.715 288.943 119.248C288.943 118.819 289.05 118.413 289.265 118.03C289.489 117.647 289.792 117.339 290.175 117.106C290.567 116.863 291.01 116.742 291.505 116.742C291.962 116.742 292.382 116.854 292.765 117.078C293.148 117.293 293.456 117.587 293.689 117.96C293.932 118.333 294.053 118.763 294.053 119.248C294.053 119.705 293.936 120.125 293.703 120.508C293.479 120.891 293.171 121.194 292.779 121.418C292.396 121.642 291.972 121.754 291.505 121.754ZM307.768 123.126C306.685 123.126 305.78 122.925 305.052 122.524C304.324 122.123 303.778 121.544 303.414 120.788C303.05 120.032 302.868 119.127 302.868 118.072C302.868 117.027 303.059 116.126 303.442 115.37C303.825 114.614 304.375 114.031 305.094 113.62C305.813 113.209 306.681 113.004 307.698 113.004C308.417 113.004 309.037 113.111 309.56 113.326C310.092 113.531 310.568 113.839 310.988 114.25L310.554 115.16C310.246 114.889 309.947 114.675 309.658 114.516C309.378 114.357 309.084 114.241 308.776 114.166C308.468 114.082 308.109 114.04 307.698 114.04C306.531 114.04 305.635 114.395 305.01 115.104C304.394 115.804 304.086 116.798 304.086 118.086C304.086 119.383 304.385 120.377 304.982 121.068C305.589 121.759 306.527 122.104 307.796 122.104C308.263 122.104 308.706 122.062 309.126 121.978C309.555 121.885 309.971 121.754 310.372 121.586L310.12 122.216V118.744H307.6V117.834H311.114V122.412C310.713 122.627 310.204 122.799 309.588 122.93C308.981 123.061 308.375 123.126 307.768 123.126ZM316.23 123.126C315.558 123.126 314.97 122.981 314.466 122.692C313.972 122.393 313.589 121.973 313.318 121.432C313.048 120.881 312.912 120.233 312.912 119.486C312.912 118.73 313.048 118.081 313.318 117.54C313.589 116.999 313.972 116.583 314.466 116.294C314.97 115.995 315.558 115.846 316.23 115.846C316.912 115.846 317.5 115.995 317.994 116.294C318.498 116.583 318.886 116.999 319.156 117.54C319.436 118.081 319.576 118.73 319.576 119.486C319.576 120.233 319.436 120.881 319.156 121.432C318.886 121.973 318.498 122.393 317.994 122.692C317.5 122.981 316.912 123.126 316.23 123.126ZM316.23 122.202C316.902 122.202 317.434 121.973 317.826 121.516C318.218 121.049 318.414 120.373 318.414 119.486C318.414 118.59 318.214 117.913 317.812 117.456C317.42 116.989 316.893 116.756 316.23 116.756C315.568 116.756 315.04 116.989 314.648 117.456C314.256 117.913 314.06 118.59 314.06 119.486C314.06 120.373 314.256 121.049 314.648 121.516C315.04 121.973 315.568 122.202 316.23 122.202ZM324.228 123.126C323.556 123.126 322.968 122.981 322.464 122.692C321.97 122.393 321.587 121.973 321.316 121.432C321.046 120.881 320.91 120.233 320.91 119.486C320.91 118.73 321.046 118.081 321.316 117.54C321.587 116.999 321.97 116.583 322.464 116.294C322.968 115.995 323.556 115.846 324.228 115.846C324.91 115.846 325.498 115.995 325.992 116.294C326.496 116.583 326.884 116.999 327.154 117.54C327.434 118.081 327.574 118.73 327.574 119.486C327.574 120.233 327.434 120.881 327.154 121.432C326.884 121.973 326.496 122.393 325.992 122.692C325.498 122.981 324.91 123.126 324.228 123.126ZM324.228 122.202C324.9 122.202 325.432 121.973 325.824 121.516C326.216 121.049 326.412 120.373 326.412 119.486C326.412 118.59 326.212 117.913 325.81 117.456C325.418 116.989 324.891 116.756 324.228 116.756C323.566 116.756 323.038 116.989 322.646 117.456C322.254 117.913 322.058 118.59 322.058 119.486C322.058 120.373 322.254 121.049 322.646 121.516C323.038 121.973 323.566 122.202 324.228 122.202ZM332.436 126.122C331.83 126.122 331.27 126.047 330.756 125.898C330.243 125.749 329.781 125.52 329.37 125.212L329.706 124.358C329.996 124.563 330.28 124.727 330.56 124.848C330.84 124.969 331.13 125.058 331.428 125.114C331.727 125.179 332.044 125.212 332.38 125.212C333.071 125.212 333.594 125.03 333.948 124.666C334.303 124.302 334.48 123.784 334.48 123.112V121.054H334.62C334.471 121.605 334.163 122.043 333.696 122.37C333.23 122.687 332.684 122.846 332.058 122.846C331.414 122.846 330.854 122.706 330.378 122.426C329.912 122.137 329.548 121.731 329.286 121.208C329.034 120.676 328.908 120.051 328.908 119.332C328.908 118.623 329.034 118.007 329.286 117.484C329.548 116.961 329.912 116.56 330.378 116.28C330.854 115.991 331.414 115.846 332.058 115.846C332.693 115.846 333.239 116.005 333.696 116.322C334.163 116.639 334.471 117.078 334.62 117.638L334.48 117.498L334.606 115.972H335.712C335.675 116.243 335.647 116.518 335.628 116.798C335.61 117.069 335.6 117.335 335.6 117.596V122.958C335.6 124.003 335.33 124.792 334.788 125.324C334.256 125.856 333.472 126.122 332.436 126.122ZM332.268 121.922C332.95 121.922 333.486 121.698 333.878 121.25C334.27 120.793 334.466 120.153 334.466 119.332C334.466 118.511 334.27 117.876 333.878 117.428C333.486 116.98 332.95 116.756 332.268 116.756C331.596 116.756 331.06 116.98 330.658 117.428C330.257 117.876 330.056 118.511 330.056 119.332C330.056 120.153 330.257 120.793 330.658 121.25C331.06 121.698 331.596 121.922 332.268 121.922ZM337.778 123V112.696H338.912V123H337.778ZM344.236 123.126C343.134 123.126 342.266 122.809 341.632 122.174C340.997 121.53 340.68 120.639 340.68 119.5C340.68 118.763 340.82 118.123 341.1 117.582C341.38 117.031 341.772 116.607 342.276 116.308C342.78 116 343.358 115.846 344.012 115.846C344.656 115.846 345.197 115.981 345.636 116.252C346.074 116.523 346.41 116.91 346.644 117.414C346.877 117.909 346.994 118.497 346.994 119.178V119.598H341.548V118.884H346.252L346.014 119.066C346.014 118.319 345.846 117.736 345.51 117.316C345.174 116.896 344.674 116.686 344.012 116.686C343.312 116.686 342.766 116.933 342.374 117.428C341.982 117.913 341.786 118.571 341.786 119.402V119.528C341.786 120.405 342 121.073 342.43 121.53C342.868 121.978 343.48 122.202 344.264 122.202C344.684 122.202 345.076 122.141 345.44 122.02C345.813 121.889 346.168 121.679 346.504 121.39L346.896 122.188C346.588 122.487 346.196 122.72 345.72 122.888C345.253 123.047 344.758 123.126 344.236 123.126ZM356.803 123.126C355.814 123.126 354.974 122.921 354.283 122.51C353.593 122.099 353.061 121.516 352.687 120.76C352.323 120.004 352.141 119.103 352.141 118.058C352.141 117.013 352.323 116.117 352.687 115.37C353.061 114.614 353.593 114.031 354.283 113.62C354.974 113.209 355.814 113.004 356.803 113.004C357.503 113.004 358.129 113.111 358.679 113.326C359.23 113.541 359.711 113.853 360.121 114.264L359.687 115.188C359.239 114.796 358.796 114.511 358.357 114.334C357.919 114.147 357.405 114.054 356.817 114.054C355.688 114.054 354.829 114.404 354.241 115.104C353.653 115.804 353.359 116.789 353.359 118.058C353.359 119.327 353.653 120.317 354.241 121.026C354.829 121.726 355.688 122.076 356.817 122.076C357.405 122.076 357.919 121.987 358.357 121.81C358.796 121.623 359.239 121.329 359.687 120.928L360.121 121.866C359.711 122.267 359.23 122.58 358.679 122.804C358.129 123.019 357.503 123.126 356.803 123.126ZM361.95 123V112.696H363.084V117.526H362.902C363.098 116.975 363.424 116.56 363.882 116.28C364.348 115.991 364.885 115.846 365.492 115.846C366.332 115.846 366.957 116.075 367.368 116.532C367.778 116.98 367.984 117.661 367.984 118.576V123H366.85V118.646C366.85 117.993 366.719 117.517 366.458 117.218C366.206 116.919 365.795 116.77 365.226 116.77C364.572 116.77 364.05 116.971 363.658 117.372C363.275 117.773 363.084 118.301 363.084 118.954V123H361.95ZM370.125 123V117.666C370.125 117.386 370.116 117.101 370.097 116.812C370.088 116.523 370.069 116.243 370.041 115.972H371.133L371.273 117.68L371.077 117.694C371.17 117.274 371.334 116.929 371.567 116.658C371.8 116.387 372.076 116.187 372.393 116.056C372.71 115.916 373.042 115.846 373.387 115.846C373.527 115.846 373.648 115.851 373.751 115.86C373.863 115.869 373.966 115.893 374.059 115.93L374.045 116.938C373.905 116.891 373.774 116.863 373.653 116.854C373.541 116.835 373.41 116.826 373.261 116.826C372.85 116.826 372.491 116.924 372.183 117.12C371.884 117.316 371.656 117.568 371.497 117.876C371.348 118.184 371.273 118.511 371.273 118.856V123H370.125ZM378.041 123.126C377.369 123.126 376.781 122.981 376.277 122.692C375.782 122.393 375.399 121.973 375.129 121.432C374.858 120.881 374.723 120.233 374.723 119.486C374.723 118.73 374.858 118.081 375.129 117.54C375.399 116.999 375.782 116.583 376.277 116.294C376.781 115.995 377.369 115.846 378.041 115.846C378.722 115.846 379.31 115.995 379.805 116.294C380.309 116.583 380.696 116.999 380.967 117.54C381.247 118.081 381.387 118.73 381.387 119.486C381.387 120.233 381.247 120.881 380.967 121.432C380.696 121.973 380.309 122.393 379.805 122.692C379.31 122.981 378.722 123.126 378.041 123.126ZM378.041 122.202C378.713 122.202 379.245 121.973 379.637 121.516C380.029 121.049 380.225 120.373 380.225 119.486C380.225 118.59 380.024 117.913 379.623 117.456C379.231 116.989 378.703 116.756 378.041 116.756C377.378 116.756 376.851 116.989 376.459 117.456C376.067 117.913 375.871 118.59 375.871 119.486C375.871 120.373 376.067 121.049 376.459 121.516C376.851 121.973 377.378 122.202 378.041 122.202ZM383.155 123V117.596C383.155 117.335 383.141 117.069 383.113 116.798C383.094 116.518 383.071 116.243 383.043 115.972H384.135L384.275 117.512H384.107C384.293 116.98 384.587 116.569 384.989 116.28C385.399 115.991 385.894 115.846 386.473 115.846C387.061 115.846 387.537 115.986 387.901 116.266C388.274 116.546 388.526 116.98 388.657 117.568H388.447C388.624 117.036 388.937 116.616 389.385 116.308C389.833 116 390.355 115.846 390.953 115.846C391.727 115.846 392.311 116.07 392.703 116.518C393.095 116.957 393.291 117.652 393.291 118.604V123H392.157V118.674C392.157 118.011 392.04 117.531 391.807 117.232C391.573 116.924 391.2 116.77 390.687 116.77C390.099 116.77 389.632 116.975 389.287 117.386C388.951 117.787 388.783 118.329 388.783 119.01V123H387.649V118.674C387.649 118.011 387.532 117.531 387.299 117.232C387.065 116.924 386.692 116.77 386.179 116.77C385.591 116.77 385.129 116.975 384.793 117.386C384.457 117.787 384.289 118.329 384.289 119.01V123H383.155ZM398.568 123.126C397.467 123.126 396.599 122.809 395.964 122.174C395.329 121.53 395.012 120.639 395.012 119.5C395.012 118.763 395.152 118.123 395.432 117.582C395.712 117.031 396.104 116.607 396.608 116.308C397.112 116 397.691 115.846 398.344 115.846C398.988 115.846 399.529 115.981 399.968 116.252C400.407 116.523 400.743 116.91 400.976 117.414C401.209 117.909 401.326 118.497 401.326 119.178V119.598H395.88V118.884H400.584L400.346 119.066C400.346 118.319 400.178 117.736 399.842 117.316C399.506 116.896 399.007 116.686 398.344 116.686C397.644 116.686 397.098 116.933 396.706 117.428C396.314 117.913 396.118 118.571 396.118 119.402V119.528C396.118 120.405 396.333 121.073 396.762 121.53C397.201 121.978 397.812 122.202 398.596 122.202C399.016 122.202 399.408 122.141 399.772 122.02C400.145 121.889 400.5 121.679 400.836 121.39L401.228 122.188C400.92 122.487 400.528 122.72 400.052 122.888C399.585 123.047 399.091 123.126 398.568 123.126ZM291.505 139.754C291.048 139.754 290.623 139.647 290.231 139.432C289.839 139.208 289.526 138.905 289.293 138.522C289.06 138.139 288.943 137.715 288.943 137.248C288.943 136.819 289.05 136.413 289.265 136.03C289.489 135.647 289.792 135.339 290.175 135.106C290.567 134.863 291.01 134.742 291.505 134.742C291.962 134.742 292.382 134.854 292.765 135.078C293.148 135.293 293.456 135.587 293.689 135.96C293.932 136.333 294.053 136.763 294.053 137.248C294.053 137.705 293.936 138.125 293.703 138.508C293.479 138.891 293.171 139.194 292.779 139.418C292.396 139.642 291.972 139.754 291.505 139.754ZM303.246 141V131.13H304.254L308.216 140.076H307.81L311.772 131.13H312.78V141H311.716V132.628H312.136L308.398 141H307.628L303.876 132.628H304.296V141H303.246ZM315.124 141V133.972H316.258V141H315.124ZM314.984 132.376V131.102H316.384V132.376H314.984ZM321.414 141.126C320.723 141.126 320.121 140.977 319.608 140.678C319.104 140.379 318.712 139.955 318.432 139.404C318.161 138.853 318.026 138.2 318.026 137.444C318.026 136.679 318.166 136.03 318.446 135.498C318.726 134.957 319.118 134.546 319.622 134.266C320.135 133.986 320.732 133.846 321.414 133.846C321.862 133.846 322.296 133.925 322.716 134.084C323.145 134.243 323.5 134.467 323.78 134.756L323.374 135.568C323.094 135.297 322.786 135.097 322.45 134.966C322.123 134.835 321.801 134.77 321.484 134.77C320.756 134.77 320.191 134.999 319.79 135.456C319.388 135.913 319.188 136.581 319.188 137.458C319.188 138.326 319.388 138.998 319.79 139.474C320.191 139.95 320.756 140.188 321.484 140.188C321.792 140.188 322.109 140.127 322.436 140.006C322.772 139.885 323.084 139.684 323.374 139.404L323.78 140.202C323.49 140.501 323.131 140.729 322.702 140.888C322.272 141.047 321.843 141.126 321.414 141.126ZM325.363 141V135.666C325.363 135.386 325.354 135.101 325.335 134.812C325.326 134.523 325.307 134.243 325.279 133.972H326.371L326.511 135.68L326.315 135.694C326.408 135.274 326.572 134.929 326.805 134.658C327.038 134.387 327.314 134.187 327.631 134.056C327.948 133.916 328.28 133.846 328.625 133.846C328.765 133.846 328.886 133.851 328.989 133.86C329.101 133.869 329.204 133.893 329.297 133.93L329.283 134.938C329.143 134.891 329.012 134.863 328.891 134.854C328.779 134.835 328.648 134.826 328.499 134.826C328.088 134.826 327.729 134.924 327.421 135.12C327.122 135.316 326.894 135.568 326.735 135.876C326.586 136.184 326.511 136.511 326.511 136.856V141H325.363ZM333.279 141.126C332.607 141.126 332.019 140.981 331.515 140.692C331.02 140.393 330.638 139.973 330.367 139.432C330.096 138.881 329.961 138.233 329.961 137.486C329.961 136.73 330.096 136.081 330.367 135.54C330.638 134.999 331.02 134.583 331.515 134.294C332.019 133.995 332.607 133.846 333.279 133.846C333.96 133.846 334.548 133.995 335.043 134.294C335.547 134.583 335.934 134.999 336.205 135.54C336.485 136.081 336.625 136.73 336.625 137.486C336.625 138.233 336.485 138.881 336.205 139.432C335.934 139.973 335.547 140.393 335.043 140.692C334.548 140.981 333.96 141.126 333.279 141.126ZM333.279 140.202C333.951 140.202 334.483 139.973 334.875 139.516C335.267 139.049 335.463 138.373 335.463 137.486C335.463 136.59 335.262 135.913 334.861 135.456C334.469 134.989 333.942 134.756 333.279 134.756C332.616 134.756 332.089 134.989 331.697 135.456C331.305 135.913 331.109 136.59 331.109 137.486C331.109 138.373 331.305 139.049 331.697 139.516C332.089 139.973 332.616 140.202 333.279 140.202ZM340.731 141.126C340.171 141.126 339.648 141.051 339.163 140.902C338.678 140.743 338.276 140.524 337.959 140.244L338.351 139.446C338.696 139.717 339.07 139.917 339.471 140.048C339.882 140.179 340.306 140.244 340.745 140.244C341.305 140.244 341.725 140.146 342.005 139.95C342.294 139.745 342.439 139.465 342.439 139.11C342.439 138.839 342.346 138.625 342.159 138.466C341.982 138.298 341.688 138.167 341.277 138.074L339.975 137.808C339.378 137.677 338.93 137.458 338.631 137.15C338.332 136.833 338.183 136.431 338.183 135.946C338.183 135.535 338.29 135.176 338.505 134.868C338.72 134.551 339.032 134.303 339.443 134.126C339.854 133.939 340.334 133.846 340.885 133.846C341.398 133.846 341.87 133.925 342.299 134.084C342.738 134.233 343.102 134.453 343.391 134.742L342.985 135.526C342.705 135.255 342.383 135.055 342.019 134.924C341.664 134.784 341.296 134.714 340.913 134.714C340.362 134.714 339.947 134.826 339.667 135.05C339.396 135.265 339.261 135.549 339.261 135.904C339.261 136.175 339.345 136.399 339.513 136.576C339.69 136.744 339.961 136.87 340.325 136.954L341.627 137.22C342.262 137.36 342.733 137.579 343.041 137.878C343.358 138.167 343.517 138.559 343.517 139.054C343.517 139.474 343.4 139.843 343.167 140.16C342.934 140.468 342.607 140.706 342.187 140.874C341.776 141.042 341.291 141.126 340.731 141.126ZM348.222 141.126C347.55 141.126 346.962 140.981 346.458 140.692C345.964 140.393 345.581 139.973 345.31 139.432C345.04 138.881 344.904 138.233 344.904 137.486C344.904 136.73 345.04 136.081 345.31 135.54C345.581 134.999 345.964 134.583 346.458 134.294C346.962 133.995 347.55 133.846 348.222 133.846C348.904 133.846 349.492 133.995 349.986 134.294C350.49 134.583 350.878 134.999 351.148 135.54C351.428 136.081 351.568 136.73 351.568 137.486C351.568 138.233 351.428 138.881 351.148 139.432C350.878 139.973 350.49 140.393 349.986 140.692C349.492 140.981 348.904 141.126 348.222 141.126ZM348.222 140.202C348.894 140.202 349.426 139.973 349.818 139.516C350.21 139.049 350.406 138.373 350.406 137.486C350.406 136.59 350.206 135.913 349.804 135.456C349.412 134.989 348.885 134.756 348.222 134.756C347.56 134.756 347.032 134.989 346.64 135.456C346.248 135.913 346.052 136.59 346.052 137.486C346.052 138.373 346.248 139.049 346.64 139.516C347.032 139.973 347.56 140.202 348.222 140.202ZM353.632 141V134.854H352.26V133.972H353.94L353.632 134.266V133.09C353.632 132.297 353.833 131.69 354.234 131.27C354.635 130.85 355.209 130.64 355.956 130.64C356.143 130.64 356.334 130.659 356.53 130.696C356.735 130.724 356.903 130.766 357.034 130.822V131.76C356.922 131.713 356.782 131.676 356.614 131.648C356.455 131.611 356.292 131.592 356.124 131.592C355.835 131.592 355.587 131.653 355.382 131.774C355.177 131.886 355.023 132.059 354.92 132.292C354.817 132.525 354.766 132.824 354.766 133.188V134.21L354.584 133.972H356.726V134.854H354.766V141H353.632ZM360.162 141.126C359.472 141.126 358.944 140.93 358.58 140.538C358.216 140.137 358.034 139.535 358.034 138.732V134.854H356.662V133.972H358.034V132.054L359.168 131.732V133.972H361.184V134.854H359.168V138.606C359.168 139.166 359.262 139.567 359.448 139.81C359.644 140.043 359.934 140.16 360.316 140.16C360.494 140.16 360.652 140.146 360.792 140.118C360.932 140.081 361.058 140.039 361.17 139.992V140.944C361.04 141 360.881 141.042 360.694 141.07C360.517 141.107 360.34 141.126 360.162 141.126ZM366.341 141V131.13H372.641V132.082H367.475V135.512H372.333V136.478H367.475V140.034H372.641V141H366.341ZM377.051 141.126C376.435 141.126 375.894 140.981 375.427 140.692C374.96 140.393 374.596 139.973 374.335 139.432C374.083 138.891 373.957 138.242 373.957 137.486C373.957 136.721 374.083 136.067 374.335 135.526C374.596 134.985 374.96 134.569 375.427 134.28C375.894 133.991 376.435 133.846 377.051 133.846C377.686 133.846 378.232 134.005 378.689 134.322C379.156 134.639 379.468 135.069 379.627 135.61H379.459V130.696H380.593V141H379.473V139.32H379.627C379.478 139.88 379.17 140.323 378.703 140.65C378.236 140.967 377.686 141.126 377.051 141.126ZM377.289 140.202C377.952 140.202 378.484 139.973 378.885 139.516C379.286 139.049 379.487 138.373 379.487 137.486C379.487 136.59 379.286 135.913 378.885 135.456C378.484 134.989 377.952 134.756 377.289 134.756C376.626 134.756 376.094 134.989 375.693 135.456C375.301 135.913 375.105 136.59 375.105 137.486C375.105 138.373 375.301 139.049 375.693 139.516C376.094 139.973 376.626 140.202 377.289 140.202ZM385.88 144.122C385.273 144.122 384.713 144.047 384.2 143.898C383.686 143.749 383.224 143.52 382.814 143.212L383.15 142.358C383.439 142.563 383.724 142.727 384.004 142.848C384.284 142.969 384.573 143.058 384.872 143.114C385.17 143.179 385.488 143.212 385.824 143.212C386.514 143.212 387.037 143.03 387.392 142.666C387.746 142.302 387.924 141.784 387.924 141.112V139.054H388.064C387.914 139.605 387.606 140.043 387.14 140.37C386.673 140.687 386.127 140.846 385.502 140.846C384.858 140.846 384.298 140.706 383.822 140.426C383.355 140.137 382.991 139.731 382.73 139.208C382.478 138.676 382.352 138.051 382.352 137.332C382.352 136.623 382.478 136.007 382.73 135.484C382.991 134.961 383.355 134.56 383.822 134.28C384.298 133.991 384.858 133.846 385.502 133.846C386.136 133.846 386.682 134.005 387.14 134.322C387.606 134.639 387.914 135.078 388.064 135.638L387.924 135.498L388.05 133.972H389.156C389.118 134.243 389.09 134.518 389.072 134.798C389.053 135.069 389.044 135.335 389.044 135.596V140.958C389.044 142.003 388.773 142.792 388.232 143.324C387.7 143.856 386.916 144.122 385.88 144.122ZM385.712 139.922C386.393 139.922 386.93 139.698 387.322 139.25C387.714 138.793 387.91 138.153 387.91 137.332C387.91 136.511 387.714 135.876 387.322 135.428C386.93 134.98 386.393 134.756 385.712 134.756C385.04 134.756 384.503 134.98 384.102 135.428C383.7 135.876 383.5 136.511 383.5 137.332C383.5 138.153 383.7 138.793 384.102 139.25C384.503 139.698 385.04 139.922 385.712 139.922ZM394.343 141.126C393.242 141.126 392.374 140.809 391.739 140.174C391.105 139.53 390.787 138.639 390.787 137.5C390.787 136.763 390.927 136.123 391.207 135.582C391.487 135.031 391.879 134.607 392.383 134.308C392.887 134 393.466 133.846 394.119 133.846C394.763 133.846 395.305 133.981 395.743 134.252C396.182 134.523 396.518 134.91 396.751 135.414C396.985 135.909 397.101 136.497 397.101 137.178V137.598H391.655V136.884H396.359L396.121 137.066C396.121 136.319 395.953 135.736 395.617 135.316C395.281 134.896 394.782 134.686 394.119 134.686C393.419 134.686 392.873 134.933 392.481 135.428C392.089 135.913 391.893 136.571 391.893 137.402V137.528C391.893 138.405 392.108 139.073 392.537 139.53C392.976 139.978 393.587 140.202 394.371 140.202C394.791 140.202 395.183 140.141 395.547 140.02C395.921 139.889 396.275 139.679 396.611 139.39L397.003 140.188C396.695 140.487 396.303 140.72 395.827 140.888C395.361 141.047 394.866 141.126 394.343 141.126Z" fill="#605E5C"/>
<path d="M303.494 78V65.31H308.786C310.154 65.31 311.204 65.598 311.936 66.174C312.68 66.75 313.052 67.56 313.052 68.604C313.052 69.384 312.818 70.038 312.35 70.566C311.882 71.094 311.24 71.448 310.424 71.628V71.358C311.36 71.478 312.086 71.808 312.602 72.348C313.118 72.888 313.376 73.602 313.376 74.49C313.376 75.618 312.992 76.488 312.224 77.1C311.468 77.7 310.4 78 309.02 78H303.494ZM305.312 76.542H308.822C309.674 76.542 310.34 76.38 310.82 76.056C311.312 75.732 311.558 75.186 311.558 74.418C311.558 73.65 311.312 73.104 310.82 72.78C310.34 72.456 309.674 72.294 308.822 72.294H305.312V76.542ZM305.312 70.854H308.498C309.41 70.854 310.094 70.68 310.55 70.332C311.006 69.984 311.234 69.474 311.234 68.802C311.234 68.13 311.006 67.62 310.55 67.272C310.094 66.924 309.41 66.75 308.498 66.75H305.312V70.854ZM315.618 78V71.178C315.618 70.806 315.606 70.434 315.582 70.062C315.57 69.678 315.546 69.3 315.51 68.928H317.274L317.472 71.268H317.184C317.304 70.704 317.508 70.236 317.796 69.864C318.084 69.492 318.432 69.216 318.84 69.036C319.26 68.856 319.698 68.766 320.154 68.766C320.346 68.766 320.508 68.778 320.64 68.802C320.772 68.814 320.904 68.838 321.036 68.874L321.018 70.494C320.814 70.41 320.634 70.362 320.478 70.35C320.334 70.326 320.154 70.314 319.938 70.314C319.41 70.314 318.96 70.434 318.588 70.674C318.216 70.902 317.934 71.214 317.742 71.61C317.55 72.006 317.454 72.432 317.454 72.888V78H315.618ZM326.204 78.162C325.304 78.162 324.524 77.976 323.864 77.604C323.204 77.22 322.694 76.68 322.334 75.984C321.974 75.276 321.794 74.436 321.794 73.464C321.794 72.492 321.974 71.658 322.334 70.962C322.694 70.254 323.204 69.714 323.864 69.342C324.524 68.958 325.304 68.766 326.204 68.766C327.104 68.766 327.884 68.958 328.544 69.342C329.216 69.714 329.732 70.254 330.092 70.962C330.464 71.658 330.65 72.492 330.65 73.464C330.65 74.436 330.464 75.276 330.092 75.984C329.732 76.68 329.216 77.22 328.544 77.604C327.884 77.976 327.104 78.162 326.204 78.162ZM326.204 76.74C326.996 76.74 327.626 76.464 328.094 75.912C328.562 75.36 328.796 74.544 328.796 73.464C328.796 72.384 328.562 71.574 328.094 71.034C327.626 70.482 326.996 70.206 326.204 70.206C325.424 70.206 324.8 70.482 324.332 71.034C323.864 71.574 323.63 72.384 323.63 73.464C323.63 74.544 323.858 75.36 324.314 75.912C324.782 76.464 325.412 76.74 326.204 76.74ZM335.083 78L331.645 68.928H333.535L336.217 76.488H335.749L338.503 68.928H339.907L342.643 76.488H342.193L344.875 68.928H346.693L343.237 78H341.581L338.737 70.296H339.583L336.775 78H335.083ZM351.305 78.162C350.549 78.162 349.853 78.066 349.217 77.874C348.581 77.682 348.053 77.412 347.633 77.064L348.191 75.822C348.635 76.158 349.127 76.41 349.667 76.578C350.207 76.746 350.759 76.83 351.323 76.83C351.983 76.83 352.481 76.716 352.817 76.488C353.153 76.248 353.321 75.924 353.321 75.516C353.321 75.204 353.213 74.952 352.997 74.76C352.793 74.568 352.451 74.424 351.971 74.328L350.243 73.986C349.475 73.818 348.893 73.53 348.497 73.122C348.101 72.714 347.903 72.192 347.903 71.556C347.903 71.016 348.047 70.536 348.335 70.116C348.635 69.696 349.055 69.366 349.595 69.126C350.147 68.886 350.789 68.766 351.521 68.766C352.193 68.766 352.817 68.862 353.393 69.054C353.969 69.246 354.449 69.522 354.833 69.882L354.257 71.088C353.885 70.776 353.465 70.536 352.997 70.368C352.529 70.188 352.055 70.098 351.575 70.098C350.903 70.098 350.405 70.224 350.081 70.476C349.757 70.728 349.595 71.058 349.595 71.466C349.595 71.778 349.691 72.036 349.883 72.24C350.087 72.432 350.405 72.582 350.837 72.69L352.565 73.032C353.381 73.2 353.993 73.476 354.401 73.86C354.809 74.244 355.013 74.76 355.013 75.408C355.013 75.972 354.857 76.464 354.545 76.884C354.233 77.304 353.801 77.622 353.249 77.838C352.697 78.054 352.049 78.162 351.305 78.162ZM361.35 78.162C359.886 78.162 358.734 77.748 357.894 76.92C357.054 76.092 356.634 74.946 356.634 73.482C356.634 72.534 356.814 71.706 357.174 70.998C357.546 70.29 358.056 69.744 358.704 69.36C359.364 68.964 360.126 68.766 360.99 68.766C361.842 68.766 362.556 68.946 363.132 69.306C363.708 69.666 364.146 70.176 364.446 70.836C364.746 71.484 364.896 72.252 364.896 73.14V73.716H358.056V72.672H363.654L363.348 72.906C363.348 72.006 363.144 71.31 362.736 70.818C362.34 70.314 361.764 70.062 361.008 70.062C360.168 70.062 359.52 70.356 359.064 70.944C358.608 71.52 358.38 72.318 358.38 73.338V73.518C358.38 74.586 358.638 75.39 359.154 75.93C359.682 76.47 360.426 76.74 361.386 76.74C361.914 76.74 362.406 76.668 362.862 76.524C363.33 76.368 363.774 76.116 364.194 75.768L364.788 77.01C364.368 77.382 363.858 77.67 363.258 77.874C362.658 78.066 362.022 78.162 361.35 78.162ZM366.946 78V71.178C366.946 70.806 366.934 70.434 366.91 70.062C366.898 69.678 366.874 69.3 366.838 68.928H368.602L368.8 71.268H368.512C368.632 70.704 368.836 70.236 369.124 69.864C369.412 69.492 369.76 69.216 370.168 69.036C370.588 68.856 371.026 68.766 371.482 68.766C371.674 68.766 371.836 68.778 371.968 68.802C372.1 68.814 372.232 68.838 372.364 68.874L372.346 70.494C372.142 70.41 371.962 70.362 371.806 70.35C371.662 70.326 371.482 70.314 371.266 70.314C370.738 70.314 370.288 70.434 369.916 70.674C369.544 70.902 369.262 71.214 369.07 71.61C368.878 72.006 368.782 72.432 368.782 72.888V78H366.946ZM376.794 78.162C376.038 78.162 375.342 78.066 374.706 77.874C374.07 77.682 373.542 77.412 373.122 77.064L373.68 75.822C374.124 76.158 374.616 76.41 375.156 76.578C375.696 76.746 376.248 76.83 376.812 76.83C377.472 76.83 377.97 76.716 378.306 76.488C378.642 76.248 378.81 75.924 378.81 75.516C378.81 75.204 378.702 74.952 378.486 74.76C378.282 74.568 377.94 74.424 377.46 74.328L375.732 73.986C374.964 73.818 374.382 73.53 373.986 73.122C373.59 72.714 373.392 72.192 373.392 71.556C373.392 71.016 373.536 70.536 373.824 70.116C374.124 69.696 374.544 69.366 375.084 69.126C375.636 68.886 376.278 68.766 377.01 68.766C377.682 68.766 378.306 68.862 378.882 69.054C379.458 69.246 379.938 69.522 380.322 69.882L379.746 71.088C379.374 70.776 378.954 70.536 378.486 70.368C378.018 70.188 377.544 70.098 377.064 70.098C376.392 70.098 375.894 70.224 375.57 70.476C375.246 70.728 375.084 71.058 375.084 71.466C375.084 71.778 375.18 72.036 375.372 72.24C375.576 72.432 375.894 72.582 376.326 72.69L378.054 73.032C378.87 73.2 379.482 73.476 379.89 73.86C380.298 74.244 380.502 74.76 380.502 75.408C380.502 75.972 380.346 76.464 380.034 76.884C379.722 77.304 379.29 77.622 378.738 77.838C378.186 78.054 377.538 78.162 376.794 78.162Z" fill="#605E5C"/>
<circle cx="290" cy="72" r="4" fill="#605E5C"/>
</svg>
