<svg width="121" height="121" viewBox="0 0 121 121" fill="none" xmlns="http://www.w3.org/2000/svg">
<rect x="12" y="12" width="97" height="97" rx="2" fill="#3E8BB2"/>
<rect x="14.5" y="14.5" width="92" height="92" rx="1.5" fill="#3E8BB2" stroke="white"/>
<path d="M63.6 51V37.205" stroke="white" stroke-width="3"/>
<mask id="path-4-inside-1_503:67" fill="white">
<rect x="50.8889" y="50.6667" width="18.6667" height="18.6667" rx="2"/>
</mask>
<rect x="50.8889" y="50.6667" width="18.6667" height="18.6667" rx="2" fill="#3E8BB2" stroke="white" stroke-width="6" mask="url(#path-4-inside-1_503:67)"/>
<mask id="path-5-inside-2_503:67" fill="white">
<rect x="79.9259" y="52.7407" width="14.5185" height="14.5185" rx="2"/>
</mask>
<rect x="79.9259" y="52.7407" width="14.5185" height="14.5185" rx="2" fill="#3E8BB2" stroke="white" stroke-width="6" mask="url(#path-5-inside-2_503:67)"/>
<mask id="path-6-inside-3_503:67" fill="white">
<rect x="79.9259" y="73.4815" width="14.5185" height="14.5185" rx="2"/>
</mask>
<rect x="79.9259" y="73.4815" width="14.5185" height="14.5185" rx="2" fill="#3E8BB2" stroke="white" stroke-width="6" mask="url(#path-6-inside-3_503:67)"/>
<mask id="path-7-inside-4_503:67" fill="white">
<rect x="79.9259" y="32" width="14.5185" height="14.5185" rx="2"/>
</mask>
<rect x="79.9259" y="32" width="14.5185" height="14.5185" rx="2" fill="#3E8BB2" stroke="white" stroke-width="6" mask="url(#path-7-inside-4_503:67)"/>
<mask id="path-8-inside-5_503:67" fill="white">
<rect x="26" y="32" width="14.5185" height="14.5185" rx="2"/>
</mask>
<rect x="26" y="32" width="14.5185" height="14.5185" rx="2" fill="#3E8BB2" stroke="white" stroke-width="6" mask="url(#path-8-inside-5_503:67)"/>
<mask id="path-9-inside-6_503:67" fill="white">
<rect x="26" y="52.7407" width="14.5185" height="14.5185" rx="2"/>
</mask>
<rect x="26" y="52.7407" width="14.5185" height="14.5185" rx="2" fill="#3E8BB2" stroke="white" stroke-width="6" mask="url(#path-9-inside-6_503:67)"/>
<mask id="path-10-inside-7_503:67" fill="white">
<rect x="26" y="73.4815" width="14.5185" height="14.5185" rx="2"/>
</mask>
<rect x="26" y="73.4815" width="14.5185" height="14.5185" rx="2" fill="#3E8BB2" stroke="white" stroke-width="6" mask="url(#path-10-inside-7_503:67)"/>
<path d="M55.6 50.7599L55.6 38" stroke="white" stroke-width="3"/>
<path d="M55.7111 81.7778L55.7111 69.3035" stroke="white" stroke-width="3"/>
<path d="M64.0074 81.7778V69.3165" stroke="white" stroke-width="3"/>
<path d="M40.5 59.6371L50.8889 59.637" stroke="white" stroke-width="3"/>
<path d="M69.5 59.6371L80 59.637" stroke="white" stroke-width="3"/>
<line x1="63" y1="38.5" x2="80" y2="38.5" stroke="white" stroke-width="3"/>
<line x1="63.3333" y1="80.2778" x2="79.9259" y2="80.2778" stroke="black" stroke-width="3"/>
<line x1="63.3333" y1="80.2778" x2="79.9259" y2="80.2778" stroke="white" stroke-width="3"/>
<line x1="40.5186" y1="80.2778" x2="57.1112" y2="80.2778" stroke="white" stroke-width="3"/>
<path d="M40.5186 38.6L57 38.6" stroke="white" stroke-width="3"/>
<rect x="44" width="2" height="12" fill="#CECCCC" fill-opacity="0.49"/>
<g style="mix-blend-mode:multiply" opacity="0.8">
<rect x="43" y="5" width="4" height="7" fill="#B3B3B3" fill-opacity="0.54"/>
</g>
<rect y="74" width="2" height="12" transform="rotate(-90 0 74)" fill="#CECCCC" fill-opacity="0.49"/>
<g style="mix-blend-mode:multiply" opacity="0.8">
<rect x="5" y="75" width="4" height="7" transform="rotate(-90 5 75)" fill="#B3B3B3" fill-opacity="0.54"/>
</g>
<rect x="73" y="121" width="2" height="12" transform="rotate(180 73 121)" fill="#CECCCC" fill-opacity="0.49"/>
<g style="mix-blend-mode:multiply" opacity="0.8">
<rect x="74" y="116" width="4" height="7" transform="rotate(180 74 116)" fill="#B3B3B3" fill-opacity="0.54"/>
</g>
<rect x="121" y="45" width="2" height="12" transform="rotate(90 121 45)" fill="#CECCCC" fill-opacity="0.49"/>
<g style="mix-blend-mode:multiply" opacity="0.8">
<rect x="116" y="44" width="4" height="7" transform="rotate(90 116 44)" fill="#B3B3B3" fill-opacity="0.54"/>
</g>
<rect x="53" width="2" height="12" fill="#CECCCC" fill-opacity="0.49"/>
<g style="mix-blend-mode:multiply" opacity="0.8">
<rect x="52" y="5" width="4" height="7" fill="#B3B3B3" fill-opacity="0.54"/>
</g>
<rect y="65" width="2" height="12" transform="rotate(-90 0 65)" fill="#CECCCC" fill-opacity="0.49"/>
<g style="mix-blend-mode:multiply" opacity="0.8">
<rect x="5" y="66" width="4" height="7" transform="rotate(-90 5 66)" fill="#B3B3B3" fill-opacity="0.54"/>
</g>
<rect x="64" y="121" width="2" height="12" transform="rotate(180 64 121)" fill="#CECCCC" fill-opacity="0.49"/>
<g style="mix-blend-mode:multiply" opacity="0.8">
<rect x="65" y="116" width="4" height="7" transform="rotate(180 65 116)" fill="#B3B3B3" fill-opacity="0.54"/>
</g>
<rect x="121" y="54" width="2" height="12" transform="rotate(90 121 54)" fill="#CECCCC" fill-opacity="0.49"/>
<g style="mix-blend-mode:multiply" opacity="0.8">
<rect x="116" y="53" width="4" height="7" transform="rotate(90 116 53)" fill="#B3B3B3" fill-opacity="0.54"/>
</g>
<rect x="62" width="2" height="12" fill="#CECCCC" fill-opacity="0.49"/>
<g style="mix-blend-mode:multiply" opacity="0.8">
<rect x="61" y="5" width="4" height="7" fill="#B3B3B3" fill-opacity="0.54"/>
</g>
<rect y="56" width="2" height="12" transform="rotate(-90 0 56)" fill="#CECCCC" fill-opacity="0.49"/>
<g style="mix-blend-mode:multiply" opacity="0.8">
<rect x="5" y="57" width="4" height="7" transform="rotate(-90 5 57)" fill="#B3B3B3" fill-opacity="0.54"/>
</g>
<rect x="55" y="121" width="2" height="12" transform="rotate(180 55 121)" fill="#CECCCC" fill-opacity="0.49"/>
<g style="mix-blend-mode:multiply" opacity="0.8">
<rect x="56" y="116" width="4" height="7" transform="rotate(180 56 116)" fill="#B3B3B3" fill-opacity="0.54"/>
</g>
<rect x="121" y="63" width="2" height="12" transform="rotate(90 121 63)" fill="#CECCCC" fill-opacity="0.49"/>
<g style="mix-blend-mode:multiply" opacity="0.8">
<rect x="116" y="62" width="4" height="7" transform="rotate(90 116 62)" fill="#B3B3B3" fill-opacity="0.54"/>
</g>
<rect x="71" width="2" height="12" fill="#CECCCC" fill-opacity="0.49"/>
<g style="mix-blend-mode:multiply" opacity="0.8">
<rect x="70" y="5" width="4" height="7" fill="#B3B3B3" fill-opacity="0.54"/>
</g>
<rect y="47" width="2" height="12" transform="rotate(-90 0 47)" fill="#CECCCC" fill-opacity="0.49"/>
<g style="mix-blend-mode:multiply" opacity="0.8">
<rect x="5" y="48" width="4" height="7" transform="rotate(-90 5 48)" fill="#B3B3B3" fill-opacity="0.54"/>
</g>
<rect x="46" y="121" width="2" height="12" transform="rotate(180 46 121)" fill="#CECCCC" fill-opacity="0.49"/>
<g style="mix-blend-mode:multiply" opacity="0.8">
<rect x="47" y="116" width="4" height="7" transform="rotate(180 47 116)" fill="#B3B3B3" fill-opacity="0.54"/>
</g>
<rect x="121" y="72" width="2" height="12" transform="rotate(90 121 72)" fill="#CECCCC" fill-opacity="0.49"/>
<g style="mix-blend-mode:multiply" opacity="0.8">
<rect x="116" y="71" width="4" height="7" transform="rotate(90 116 71)" fill="#B3B3B3" fill-opacity="0.54"/>
</g>
<rect x="12" y="12" width="98" height="98" rx="2.33333" fill="#70829d"/>
<rect x="15.0404" y="15.0404" width="91.9192" height="91.9192" rx="1.51515" stroke="white" stroke-width="1.41414"/>
<path fill-rule="evenodd" clip-rule="evenodd" d="M36.5647 38.3903H84.9681C87.4472 38.3903 89.4659 40.4039 89.4667 42.8814V81.3649C89.4667 83.8412 89.3154 83.9898 86.8348 83.9898H82.9334V80.7229H86.1927L86.1926 45.1312H35.3399V80.7229H39.0667V83.9898H34.6981C32.2183 83.9898 32.0667 83.8412 32.0667 81.3649V42.8814C32.0667 40.4047 34.085 38.3903 36.5647 38.3903ZM83.8461 41.6942C83.8461 40.6312 82.9835 39.769 81.9187 39.769C80.8539 39.769 79.9913 40.6312 79.9913 41.6942C79.9913 42.7568 80.8539 43.6189 81.9187 43.6189C82.9835 43.6189 83.8461 42.7575 83.8461 41.6942ZM76.9388 41.6942C76.9388 40.6312 76.0763 39.769 75.0115 39.769C73.9467 39.769 73.085 40.6312 73.0834 41.6942C73.0834 42.7568 73.946 43.6189 75.0115 43.6189C76.0763 43.6189 76.9388 42.7575 76.9388 41.6942Z" fill="#F7FCFB"/>
<path d="M75.6409 77.3857H74.6728C74.4961 77.3863 74.3234 77.3324 74.1783 77.2314C74.0332 77.1304 73.9227 76.9872 73.8618 76.8212C73.7545 76.5409 73.6412 76.2666 73.518 75.9963C73.4432 75.8354 73.4199 75.6553 73.4512 75.4807C73.4825 75.306 73.5669 75.1453 73.6929 75.0203L74.3787 74.3325C74.8683 73.8395 75.1431 73.1729 75.1431 72.478C75.1431 71.7831 74.8683 71.1165 74.3787 70.6234L71.9059 68.1507C71.4129 67.661 70.7462 67.3862 70.0514 67.3862C69.3565 67.3862 68.6898 67.661 68.1968 68.1507L67.511 68.8365C67.3858 68.962 67.2251 69.046 67.0505 69.0773C66.876 69.1086 66.6961 69.0856 66.5351 69.0114C66.2647 68.8881 65.9904 68.7729 65.7082 68.6616C65.5411 68.6013 65.3968 68.4908 65.295 68.3452C65.1932 68.1997 65.139 68.0262 65.1397 67.8486V66.8865C65.1381 66.1915 64.861 65.5254 64.3692 65.0343C63.8774 64.5433 63.2109 64.2672 62.5159 64.2667H59.0175C58.6721 64.2659 58.33 64.3332 58.0108 64.4648C57.6915 64.5964 57.4013 64.7897 57.1569 65.0336C56.9124 65.2775 56.7185 65.5673 56.5861 65.8863C56.4538 66.2052 56.3857 66.5471 56.3857 66.8925V67.8545C56.3863 68.0313 56.3324 68.204 56.2314 68.3491C56.1304 68.4942 55.9872 68.6047 55.8212 68.6655C55.5409 68.7729 55.2666 68.8862 54.9963 69.0094C54.8353 69.0839 54.6553 69.107 54.4807 69.0757C54.3061 69.0445 54.1454 68.9602 54.0203 68.8345L53.3325 68.1487C52.8395 67.6591 52.1729 67.3842 51.478 67.3842C50.7831 67.3842 50.1165 67.6591 49.6234 68.1487L47.1567 70.6274C46.667 71.1204 46.3922 71.7871 46.3922 72.482C46.3922 73.1768 46.667 73.8435 47.1567 74.3365L47.8424 75.0223C47.9684 75.1472 48.0528 75.308 48.0841 75.4826C48.1154 75.6573 48.0921 75.8373 48.0173 75.9983C47.8941 76.2686 47.7788 76.5429 47.6715 76.8252C47.6103 76.9921 47.4989 77.1361 47.3526 77.2371C47.2063 77.3382 47.0323 77.3915 46.8545 77.3897H45.8925C45.5475 77.3897 45.2059 77.4577 44.8872 77.5898C44.5684 77.7218 44.2789 77.9154 44.035 78.1595C43.7912 78.4035 43.5978 78.6932 43.466 79.012C43.3341 79.3308 43.2664 79.6725 43.2667 80.0175V83.5179C43.2667 84.2143 43.5433 84.8822 44.0357 85.3746C44.5282 85.867 45.1961 86.1437 45.8925 86.1437H46.8446C47.0214 86.1431 47.1941 86.1969 47.3392 86.298C47.4843 86.399 47.5947 86.5422 47.6556 86.7082C47.7629 86.9884 47.8762 87.2628 47.9995 87.5331C48.0742 87.694 48.0975 87.8741 48.0662 88.0487C48.0349 88.2234 47.9505 88.3841 47.8245 88.5091L47.1388 89.1968C46.6491 89.6899 46.3743 90.3565 46.3743 91.0514C46.3743 91.7463 46.6491 92.4129 47.1388 92.9059L49.6274 95.3767C50.1204 95.8663 50.7871 96.1412 51.482 96.1412C52.1768 96.1412 52.8435 95.8663 53.3365 95.3767L54.0223 94.6909C54.1475 94.5654 54.3083 94.4814 54.4828 94.4501C54.6573 94.4188 54.8372 94.4418 54.9983 94.516C55.2686 94.6392 55.5429 94.7545 55.8252 94.8658C55.993 94.9255 56.1381 95.0357 56.2407 95.1813C56.3432 95.3269 56.398 95.5007 56.3976 95.6788V96.6409C56.3976 97.3373 56.6743 98.0052 57.1667 98.4976C57.6591 98.99 58.327 99.2667 59.0234 99.2667H62.5159C63.2123 99.2667 63.8802 98.99 64.3726 98.4976C64.865 98.0052 65.1417 97.3373 65.1417 96.6409V95.6729C65.1411 95.4961 65.1949 95.3234 65.2959 95.1783C65.3969 95.0332 65.5402 94.9227 65.7062 94.8619C65.9864 94.7545 66.2608 94.6412 66.5311 94.518C66.6921 94.4435 66.8721 94.4203 67.0466 94.4516C67.2212 94.4829 67.382 94.5672 67.5071 94.6929L68.1948 95.3787C68.6878 95.8683 69.3545 96.1431 70.0494 96.1431C70.7442 96.1431 71.4109 95.8683 71.9039 95.3787L74.3767 92.9059C74.8663 92.4129 75.1411 91.7463 75.1411 91.0514C75.1411 90.3565 74.8663 89.6899 74.3767 89.1968L73.6909 88.5111C73.5649 88.3861 73.4805 88.2254 73.4492 88.0507C73.4179 87.8761 73.4412 87.696 73.516 87.5351C73.6392 87.2647 73.7545 86.9904 73.8658 86.7082C73.9261 86.5411 74.0366 86.3968 74.1822 86.295C74.3277 86.1933 74.5012 86.139 74.6788 86.1397H75.6409C76.3373 86.1397 77.0052 85.863 77.4976 85.3706C77.99 84.8782 78.2667 84.2103 78.2667 83.5139V80.0135C78.2669 79.6685 78.1992 79.3268 78.0674 79.008C77.9355 78.6892 77.7421 78.3995 77.4983 78.1555C77.2544 77.9114 76.9649 77.7179 76.6462 77.5858C76.3275 77.4537 75.9859 77.3857 75.6409 77.3857V77.3857ZM76.5155 83.5099C76.5155 83.7419 76.4233 83.9643 76.2593 84.1284C76.0953 84.2924 75.8728 84.3845 75.6409 84.3845H74.6728C74.1413 84.3863 73.6228 84.5488 73.1854 84.8507C72.748 85.1526 72.4121 85.5798 72.222 86.0761C72.1292 86.3212 72.0292 86.5624 71.9218 86.7996C71.7023 87.2847 71.6349 87.8249 71.7286 88.349C71.8223 88.8731 72.0726 89.3565 72.4466 89.7355L73.1304 90.4213C73.2118 90.5025 73.2764 90.599 73.3205 90.7053C73.3646 90.8115 73.3873 90.9254 73.3873 91.0404C73.3873 91.1555 73.3646 91.2694 73.3205 91.3756C73.2764 91.4819 73.2118 91.5784 73.1304 91.6596L70.6576 94.1324C70.4936 94.2962 70.2713 94.3883 70.0394 94.3883C69.8076 94.3883 69.5853 94.2962 69.4213 94.1324L68.7355 93.4466C68.3568 93.0721 67.8734 92.8215 67.3491 92.7278C66.8249 92.6341 66.2845 92.7017 65.7996 92.9218C65.5631 93.0292 65.3206 93.1206 65.0781 93.222C64.582 93.412 64.1551 93.7475 63.8532 94.1846C63.5513 94.6216 63.3886 95.1397 63.3865 95.6709V96.6329C63.3865 96.8649 63.2943 97.0874 63.1303 97.2514C62.9663 97.4154 62.7439 97.5075 62.5119 97.5075H59.0175C58.7855 97.5075 58.563 97.4154 58.399 97.2514C58.235 97.0874 58.1429 96.8649 58.1429 96.6329V95.6729C58.1411 95.1414 57.9786 94.6228 57.6767 94.1854C57.3748 93.748 56.9476 93.4121 56.4513 93.222C56.2061 93.1292 55.965 93.0292 55.7278 92.9218C55.2427 92.7023 54.7025 92.635 54.1784 92.7286C53.6543 92.8223 53.1709 93.0726 52.7919 93.4466L52.1061 94.1304C52.0249 94.2118 51.9284 94.2764 51.8221 94.3205C51.7159 94.3646 51.602 94.3873 51.4869 94.3873C51.3719 94.3873 51.258 94.3646 51.1518 94.3205C51.0455 94.2764 50.949 94.2118 50.8678 94.1304V94.1304L48.395 91.6596C48.2311 91.4956 48.1391 91.2733 48.1391 91.0414C48.1391 90.8096 48.2311 90.5872 48.395 90.4232L49.0808 89.7375C49.4548 89.3585 49.7051 88.8751 49.7988 88.351C49.8924 87.8269 49.8251 87.2867 49.6055 86.8016C49.4982 86.5651 49.4068 86.3226 49.3054 86.0801C49.1157 85.5837 48.7803 85.1563 48.3432 84.854C47.9062 84.5518 47.3879 84.3888 46.8565 84.3865H45.8925C45.6605 84.3865 45.438 84.2944 45.274 84.1304C45.11 83.9663 45.0179 83.7439 45.0179 83.5119V80.0115C45.0179 79.7796 45.11 79.5571 45.274 79.3931C45.438 79.2291 45.6605 79.1369 45.8925 79.1369H46.8446C47.3761 79.1352 47.8946 78.9727 48.332 78.6708C48.7695 78.3689 49.1053 77.9417 49.2955 77.4454C49.3882 77.2002 49.4883 76.959 49.5956 76.7218C49.8151 76.2368 49.8825 75.6965 49.7888 75.1724C49.6951 74.6483 49.4448 74.1649 49.0708 73.7859L48.3831 73.1002C48.3017 73.0189 48.237 72.9224 48.193 72.8161C48.1489 72.7099 48.1262 72.596 48.1262 72.481C48.1262 72.366 48.1489 72.2521 48.193 72.1458C48.237 72.0396 48.3017 71.943 48.3831 71.8618V71.8618L50.8558 69.3891C51.0198 69.2252 51.2422 69.1332 51.474 69.1332C51.7058 69.1332 51.9282 69.2252 52.0922 69.3891L52.778 70.0748C53.1566 70.4493 53.6401 70.7 54.1643 70.7937C54.6886 70.8874 55.2289 70.8197 55.7138 70.5996C55.9504 70.4923 56.1929 70.4008 56.4354 70.2995C56.9321 70.1101 57.36 69.7748 57.6626 69.3377C57.9652 68.9006 58.1285 68.3822 58.1309 67.8505V66.8885C58.1309 66.6565 58.2231 66.4341 58.3871 66.2701C58.5511 66.106 58.7736 66.0139 59.0055 66.0139H62.5159C62.7478 66.0139 62.9703 66.106 63.1343 66.2701C63.2983 66.4341 63.3905 66.6565 63.3905 66.8885V67.8505C63.3922 68.382 63.5547 68.9006 63.8566 69.338C64.1585 69.7754 64.5857 70.1113 65.082 70.3014C65.3272 70.3942 65.5684 70.4942 65.8056 70.6016C66.2905 70.8217 66.8308 70.8893 67.3551 70.7956C67.8793 70.7019 68.3628 70.4513 68.7414 70.0768L69.4272 69.393C69.5921 69.23 69.8146 69.1386 70.0464 69.1386C70.2782 69.1386 70.5007 69.23 70.6656 69.393L73.1383 71.8658C73.3022 72.0298 73.3942 72.2521 73.3942 72.484C73.3942 72.7158 73.3022 72.9382 73.1383 73.1022L72.4525 73.7879C72.0786 74.1669 71.8282 74.6503 71.7346 75.1744C71.6409 75.6985 71.7083 76.2387 71.9278 76.7238C72.0351 76.9603 72.1266 77.2029 72.2279 77.4454C72.4179 77.9414 72.7535 78.3683 73.1905 78.6702C73.6276 78.9721 74.1457 79.1348 74.6768 79.1369H75.6389C75.8708 79.1369 76.0933 79.2291 76.2573 79.3931C76.4213 79.5571 76.5135 79.7796 76.5135 80.0115V83.5119L76.5155 83.5099Z" fill="white" stroke="white" stroke-width="0.466667"/>
<circle cx="61" cy="82" r="6.53333" stroke="white" stroke-width="1.86667"/>
</svg>
