<svg width="24" height="24" viewBox="0 0 24 24" fill="none" xmlns="http://www.w3.org/2000/svg">
<g clip-path="url(#clip0_3802_105704)">
<path d="M6 14.5V9C6 7.33333 6.58333 5.91667 7.75 4.75C8.91667 3.58333 10.3333 3 12 3C13.6667 3 15.0833 3.58333 16.25 4.75C17.4167 5.91667 18 7.33333 18 9V13.2L19.6 11.6C19.6 11.6 20.216 11.7407 20.5 12C20.8224 12.2944 21 13 21 13L17 17L13 13C13 13 13.1776 12.2944 13.5 12C13.784 11.7407 14.4 11.6 14.4 11.6L16 13.2V9C16 7.9 15.6083 6.95833 14.825 6.175C14.0417 5.39167 13.1 5 12 5C10.9 5 9.95833 5.39167 9.175 6.175C8.39167 6.95833 8 7.9 8 9V14.5C8 14.5 7.43662 15 7 15C6.56338 15 6 14.5 6 14.5Z" stroke="#605BFF"/>
<line x1="9" y1="16.5" x2="14" y2="16.5" stroke="#212121"/>
</g>
<defs>
<clipPath id="clip0_3802_105704">
<rect width="24" height="24" fill="white"/>
</clipPath>
</defs>
</svg>
