<svg width="24" height="24" viewBox="0 0 24 24" fill="none" xmlns="http://www.w3.org/2000/svg">
<path d="M13 17.17L11.41 15.58C11.41 15.58 10.7862 15.733 10.5 16C10.1807 16.2978 10 17 10 17L14 21L18 17C18 17 17.7753 16.2753 17.5 16C17.2247 15.7247 16.59 15.59 16.59 15.59L15 17.17L15 9C15 7.9 14.1 7 13 7L4 7C4 7 3.5 7.56338 3.5 8C3.5 8.43662 4 9 4 9L13 9L13 17.17Z" stroke="#605BFF"/>
<line x1="6" y1="21.5" x2="11" y2="21.5" stroke="#212121"/>
<line x1="17" y1="21.5" x2="22" y2="21.5" stroke="#212121"/>
</svg>
