<svg width="263" height="200" viewBox="0 0 263 200" fill="none" xmlns="http://www.w3.org/2000/svg">
    <path d="M245.001 199.318L17.0224 199.318C8.00497 199.318 0.683746 191.997 0.683746 182.98V17.0143C0.683746 8.00128 8.00166 0.683395 17.0147 0.683395L245.009 0.683395C254.022 0.683395 261.34 8.00128 261.34 17.0143V182.98C261.34 191.997 254.019 199.318 245.002 199.318H245.001Z" fill="white"/>
    <path d="M0 182.979V17.0135C0 7.61715 7.61715 0 17.0135 0H245.009C254.406 0 262.023 7.61715 262.023 17.0135V182.979C262.023 192.38 254.402 200 245.002 200H17.0223C7.62151 200 0.00109995 192.38 0.00109995 182.979H0ZM17.0135 1.36528C8.37187 1.36528 1.36528 8.37079 1.36528 17.0135V182.979C1.36528 191.625 8.37517 198.635 17.0212 198.635H245.001C253.647 198.635 260.657 191.625 260.657 182.979V17.0135C260.657 8.37188 253.651 1.36528 245.008 1.36528H17.0124H17.0135Z" fill="#292A2E"/>
    <path d="M0.683717 17.0113V30.8443H261.337V17.0113C261.337 7.99175 254.026 0.68042 245.006 0.68042H17.0135C7.99394 0.68042 0.682617 7.99175 0.682617 17.0113H0.683717Z" fill="#292A2E"/>
    <path d="M89.7011 53.1935H77.4016C77.1001 53.1935 76.8555 52.9489 76.8555 52.6474C76.8555 52.346 77.1001 52.1013 77.4016 52.1013H89.7011C90.0025 52.1013 90.2472 52.346 90.2472 52.6474C90.2472 52.9489 90.0025 53.1935 89.7011 53.1935Z" fill="#292A2E"/>
    <path d="M68.5311 53.1935H63.8772C63.5757 53.1935 63.3311 52.9489 63.3311 52.6474C63.3311 52.346 63.5757 52.1013 63.8772 52.1013H68.5311C68.8326 52.1013 69.0772 52.346 69.0772 52.6474C69.0772 52.9489 68.8326 53.1935 68.5311 53.1935Z" fill="#367CFF"/>
    <path d="M68.5311 63.0451H63.8772C63.5757 63.0451 63.3311 62.8004 63.3311 62.499C63.3311 62.1975 63.5757 61.9529 63.8772 61.9529H68.5311C68.8326 61.9529 69.0772 62.1975 69.0772 62.499C69.0772 62.8004 68.8326 63.0451 68.5311 63.0451Z" fill="#367CFF"/>
    <path d="M68.5311 72.8969H63.8772C63.5757 72.8969 63.3311 72.6523 63.3311 72.3508C63.3311 72.0493 63.5757 71.8047 63.8772 71.8047H68.5311C68.8326 71.8047 69.0772 72.0493 69.0772 72.3508C69.0772 72.6523 68.8326 72.8969 68.5311 72.8969Z" fill="#367CFF"/>
    <path d="M68.5311 82.749H63.8772C63.5757 82.749 63.3311 82.5043 63.3311 82.2028C63.3311 81.9014 63.5757 81.6567 63.8772 81.6567H68.5311C68.8326 81.6567 69.0772 81.9014 69.0772 82.2028C69.0772 82.5043 68.8326 82.749 68.5311 82.749Z" fill="#367CFF"/>
    <path d="M68.5311 92.6008H63.8772C63.5757 92.6008 63.3311 92.3561 63.3311 92.0547C63.3311 91.7532 63.5757 91.5085 63.8772 91.5085H68.5311C68.8326 91.5085 69.0772 91.7532 69.0772 92.0547C69.0772 92.3561 68.8326 92.6008 68.5311 92.6008Z" fill="#367CFF"/>
    <path d="M68.5311 102.453H63.8772C63.5757 102.453 63.3311 102.208 63.3311 101.906C63.3311 101.605 63.5757 101.36 63.8772 101.36H68.5311C68.8326 101.36 69.0772 101.605 69.0772 101.906C69.0772 102.208 68.8326 102.453 68.5311 102.453Z" fill="#367CFF"/>
    <path d="M68.5311 112.304H63.8772C63.5757 112.304 63.3311 112.06 63.3311 111.758C63.3311 111.457 63.5757 111.212 63.8772 111.212H68.5311C68.8326 111.212 69.0772 111.457 69.0772 111.758C69.0772 112.06 68.8326 112.304 68.5311 112.304Z" fill="#367CFF"/>
    <path d="M68.5311 122.156H63.8772C63.5757 122.156 63.3311 121.912 63.3311 121.61C63.3311 121.309 63.5757 121.064 63.8772 121.064H68.5311C68.8326 121.064 69.0772 121.309 69.0772 121.61C69.0772 121.912 68.8326 122.156 68.5311 122.156Z" fill="#367CFF"/>
    <path d="M68.5311 132.008H63.8772C63.5757 132.008 63.3311 131.764 63.3311 131.462C63.3311 131.161 63.5757 130.916 63.8772 130.916H68.5311C68.8326 130.916 69.0772 131.161 69.0772 131.462C69.0772 131.764 68.8326 132.008 68.5311 132.008Z" fill="#367CFF"/>
    <path d="M68.5311 141.86H63.8772C63.5757 141.86 63.3311 141.615 63.3311 141.314C63.3311 141.012 63.5757 140.768 63.8772 140.768H68.5311C68.8326 140.768 69.0772 141.012 69.0772 141.314C69.0772 141.615 68.8326 141.86 68.5311 141.86Z" fill="#367CFF"/>
    <path d="M68.5311 151.712H63.8772C63.5757 151.712 63.3311 151.467 63.3311 151.166C63.3311 150.864 63.5757 150.62 63.8772 150.62H68.5311C68.8326 150.62 69.0772 150.864 69.0772 151.166C69.0772 151.467 68.8326 151.712 68.5311 151.712Z" fill="#367CFF"/>
    <path d="M68.5311 161.564H63.8772C63.5757 161.564 63.3311 161.319 63.3311 161.018C63.3311 160.716 63.5757 160.472 63.8772 160.472H68.5311C68.8326 160.472 69.0772 160.716 69.0772 161.018C69.0772 161.319 68.8326 161.564 68.5311 161.564Z" fill="#367CFF"/>
    <path d="M68.5311 171.416H63.8772C63.5757 171.416 63.3311 171.171 63.3311 170.87C63.3311 170.568 63.5757 170.323 63.8772 170.323H68.5311C68.8326 170.323 69.0772 170.568 69.0772 170.87C69.0772 171.171 68.8326 171.416 68.5311 171.416Z" fill="#367CFF"/>
    <path d="M68.5311 181.268H63.8772C63.5757 181.268 63.3311 181.024 63.3311 180.722C63.3311 180.421 63.5757 180.176 63.8772 180.176H68.5311C68.8326 180.176 69.0772 180.421 69.0772 180.722C69.0772 181.024 68.8326 181.268 68.5311 181.268Z" fill="#367CFF"/>
    <path d="M99.5312 63.0453H88.3239C88.0225 63.0453 87.7778 62.8007 87.7778 62.4992C87.7778 62.1978 88.0225 61.9531 88.3239 61.9531H99.5312C99.8327 61.9531 100.077 62.1978 100.077 62.4992C100.077 62.8007 99.8327 63.0453 99.5312 63.0453Z" fill="#292A2E"/>
    <path d="M89.7011 122.156H77.4016C77.1001 122.156 76.8555 121.911 76.8555 121.61C76.8555 121.308 77.1001 121.064 77.4016 121.064H89.7011C90.0025 121.064 90.2472 121.308 90.2472 121.61C90.2472 121.911 90.0025 122.156 89.7011 122.156Z" fill="#292A2E"/>
    <path d="M99.5312 132.008H88.3239C88.0225 132.008 87.7778 131.763 87.7778 131.462C87.7778 131.16 88.0225 130.916 88.3239 130.916H99.5312C99.8327 130.916 100.077 131.16 100.077 131.462C100.077 131.763 99.8327 132.008 99.5312 132.008Z" fill="#292A2E"/>
    <path d="M162.88 72.8974H95.9695C95.668 72.8974 95.4233 72.6527 95.4233 72.3513C95.4233 72.0498 95.668 71.8052 95.9695 71.8052H162.88C163.181 71.8052 163.426 72.0498 163.426 72.3513C163.426 72.6527 163.181 72.8974 162.88 72.8974Z" fill="#292A2E"/>
    <path d="M221.955 72.8972H174.704C174.403 72.8972 174.158 72.6525 174.158 72.351C174.158 72.0496 174.403 71.8049 174.704 71.8049H221.955C222.256 71.8049 222.501 72.0496 222.501 72.351C222.501 72.6525 222.256 72.8972 221.955 72.8972Z" fill="#0CBC8B"/>
    <path d="M247.312 72.8972H232.828C232.526 72.8972 232.282 72.6525 232.282 72.351C232.282 72.0496 232.526 71.8049 232.828 71.8049H247.312C247.613 71.8049 247.858 72.0496 247.858 72.351C247.858 72.6525 247.613 72.8972 247.312 72.8972Z" fill="#292A2E"/>
    <path d="M195.647 92.601H95.9695C95.668 92.601 95.4233 92.3564 95.4233 92.0549C95.4233 91.7534 95.668 91.5088 95.9695 91.5088H195.647C195.948 91.5088 196.193 91.7534 196.193 92.0549C196.193 92.3564 195.948 92.601 195.647 92.601Z" fill="#292A2E"/>
    <path d="M221.955 92.601H207.471C207.169 92.601 206.925 92.3564 206.925 92.0549C206.925 91.7534 207.169 91.5088 207.471 91.5088H221.955C222.256 91.5088 222.501 91.7534 222.501 92.0549C222.501 92.3564 222.256 92.601 221.955 92.601Z" fill="#367CFF"/>
    <path d="M108.269 82.7492H95.9695C95.668 82.7492 95.4233 82.5045 95.4233 82.2031C95.4233 81.9016 95.668 81.657 95.9695 81.657H108.269C108.57 81.657 108.815 81.9016 108.815 82.2031C108.815 82.5045 108.57 82.7492 108.269 82.7492Z" fill="#0CBC8B"/>
    <path d="M189.188 82.7494H120.093C119.792 82.7494 119.547 82.5048 119.547 82.2033C119.547 81.9019 119.792 81.6572 120.093 81.6572H189.188C189.489 81.6572 189.734 81.9019 189.734 82.2033C189.734 82.5048 189.489 82.7494 189.188 82.7494Z" fill="#367CFF"/>
    <path d="M247.407 82.7494H202.341C202.039 82.7494 201.794 82.5048 201.794 82.2033C201.794 81.9019 202.039 81.6572 202.341 81.6572H247.407C247.708 81.6572 247.953 81.9019 247.953 82.2033C247.953 82.5048 247.708 82.7494 247.407 82.7494Z" fill="#292A2E"/>
    <path d="M162.88 102.452H95.9695C95.668 102.452 95.4233 102.208 95.4233 101.906C95.4233 101.605 95.668 101.36 95.9695 101.36H162.88C163.181 101.36 163.426 101.605 163.426 101.906C163.426 102.208 163.181 102.452 162.88 102.452Z" fill="#292A2E"/>
    <path d="M200.11 102.453H174.704C174.403 102.453 174.158 102.208 174.158 101.906C174.158 101.605 174.403 101.36 174.704 101.36H200.11C200.412 101.36 200.657 101.605 200.657 101.906C200.657 102.208 200.412 102.453 200.11 102.453Z" fill="#0CBC8B"/>
    <path d="M247.312 102.453H210.984C210.682 102.453 210.438 102.208 210.438 101.906C210.438 101.605 210.682 101.36 210.984 101.36H247.312C247.613 101.36 247.858 101.605 247.858 101.906C247.858 102.208 247.613 102.453 247.312 102.453Z" fill="#292A2E"/>
    <path d="M108.269 112.304H95.9695C95.668 112.304 95.4233 112.059 95.4233 111.758C95.4233 111.457 95.668 111.212 95.9695 111.212H108.269C108.57 111.212 108.815 111.457 108.815 111.758C108.815 112.059 108.57 112.304 108.269 112.304Z" fill="#367CFF"/>
    <path d="M189.188 112.304H120.093C119.792 112.304 119.547 112.059 119.547 111.758C119.547 111.457 119.792 111.212 120.093 111.212H189.188C189.489 111.212 189.734 111.457 189.734 111.758C189.734 112.059 189.489 112.304 189.188 112.304Z" fill="#0CBC8B"/>
    <path d="M160.695 151.712H93.7849C93.4834 151.712 93.2388 151.467 93.2388 151.165C93.2388 150.864 93.4834 150.619 93.7849 150.619H160.695C160.997 150.619 161.242 150.864 161.242 151.165C161.242 151.467 160.997 151.712 160.695 151.712Z" fill="#292A2E"/>
    <path d="M219.77 151.711H172.52C172.218 151.711 171.974 151.467 171.974 151.165C171.974 150.864 172.218 150.619 172.52 150.619H219.77C220.072 150.619 220.316 150.864 220.316 151.165C220.316 151.467 220.072 151.711 219.77 151.711Z" fill="#367CFF"/>
    <path d="M127.929 141.86H93.7849C93.4834 141.86 93.2388 141.615 93.2388 141.314C93.2388 141.012 93.4834 140.768 93.7849 140.768H127.929C128.23 140.768 128.475 141.012 128.475 141.314C128.475 141.615 128.23 141.86 127.929 141.86Z" fill="#0CBC8B"/>
    <path d="M187.004 141.86H139.753C139.452 141.86 139.207 141.615 139.207 141.314C139.207 141.012 139.452 140.768 139.753 140.768H187.004C187.305 140.768 187.55 141.012 187.55 141.314C187.55 141.615 187.305 141.86 187.004 141.86Z" fill="#367CFF"/>
    <path d="M245.223 141.86H200.156C199.855 141.86 199.61 141.615 199.61 141.314C199.61 141.012 199.855 140.768 200.156 140.768H245.223C245.524 140.768 245.769 141.012 245.769 141.314C245.769 141.615 245.524 141.86 245.223 141.86Z" fill="#292A2E"/>
    <path d="M193.462 171.416H93.7849C93.4834 171.416 93.2388 171.172 93.2388 170.87C93.2388 170.569 93.4834 170.324 93.7849 170.324H193.462C193.764 170.324 194.008 170.569 194.008 170.87C194.008 171.172 193.764 171.416 193.462 171.416Z" fill="#367CFF"/>
    <path d="M219.77 171.416H205.286C204.985 171.416 204.74 171.172 204.74 170.87C204.74 170.569 204.985 170.324 205.286 170.324H219.77C220.072 170.324 220.316 170.569 220.316 170.87C220.316 171.172 220.072 171.416 219.77 171.416Z" fill="#292A2E"/>
    <path d="M106.084 161.565H93.7849C93.4834 161.565 93.2388 161.32 93.2388 161.019C93.2388 160.717 93.4834 160.472 93.7849 160.472H106.084C106.386 160.472 106.63 160.717 106.63 161.019C106.63 161.32 106.386 161.565 106.084 161.565Z" fill="#367CFF"/>
    <path d="M187.004 161.565H117.909C117.607 161.565 117.363 161.32 117.363 161.019C117.363 160.717 117.607 160.473 117.909 160.473H187.004C187.305 160.473 187.55 160.717 187.55 161.019C187.55 161.32 187.305 161.565 187.004 161.565Z" fill="#292A2E"/>
    <path d="M245.223 161.565H200.156C199.855 161.565 199.61 161.32 199.61 161.019C199.61 160.717 199.855 160.473 200.156 160.473H245.223C245.524 160.473 245.769 160.717 245.769 161.019C245.769 161.32 245.524 161.565 245.223 161.565Z" fill="#0CBC8B"/>
    <path d="M160.695 181.268H93.7849C93.4834 181.268 93.2388 181.024 93.2388 180.722C93.2388 180.421 93.4834 180.176 93.7849 180.176H160.695C160.997 180.176 161.242 180.421 161.242 180.722C161.242 181.024 160.997 181.268 160.695 181.268Z" fill="#0CBC8B"/>
    <path d="M197.926 181.268H172.52C172.218 181.268 171.974 181.023 171.974 180.722C171.974 180.42 172.218 180.176 172.52 180.176H197.926C198.227 180.176 198.472 180.42 198.472 180.722C198.472 181.023 198.227 181.268 197.926 181.268Z" fill="#292A2E"/>
    <path d="M245.127 181.268H208.799C208.498 181.268 208.253 181.023 208.253 180.722C208.253 180.42 208.498 180.176 208.799 180.176H245.127C245.429 180.176 245.674 180.42 245.674 180.722C245.674 181.023 245.429 181.268 245.127 181.268Z" fill="#367CFF"/>
    <path d="M58.6902 191.811C58.3887 191.811 58.144 191.566 58.144 191.264V35.9953C58.144 35.6939 58.3887 35.4492 58.6902 35.4492C58.9916 35.4492 59.2363 35.6939 59.2363 35.9953V191.263C59.2363 191.565 58.9916 191.811 58.6902 191.811Z" fill="#292A2E"/>
    <path d="M241.59 25.6161C246.429 25.6161 250.352 21.6933 250.352 16.8543C250.352 12.0153 246.429 8.09253 241.59 8.09253C236.751 8.09253 232.829 12.0153 232.829 16.8543C232.829 21.6933 236.751 25.6161 241.59 25.6161Z" fill="white"/>
    <path d="M33.7125 42.8173H10.0637C9.76224 42.8173 9.51758 42.5727 9.51758 42.2712C9.51758 41.9698 9.76224 41.7251 10.0637 41.7251H33.7125C34.0139 41.7251 34.2586 41.9698 34.2586 42.2712C34.2586 42.5727 34.0139 42.8173 33.7125 42.8173Z" fill="#292A2E"/>
    <path d="M26.588 53.5888H10.0627C9.76126 53.5888 9.5166 53.3441 9.5166 53.0427C9.5166 52.7412 9.76126 52.4966 10.0627 52.4966H26.588C26.8895 52.4966 27.1341 52.7412 27.1341 53.0427C27.1341 53.3441 26.8895 53.5888 26.588 53.5888Z" fill="#292A2E"/>
    <path d="M41.12 64.3605H10.0627C9.76126 64.3605 9.5166 64.1159 9.5166 63.8144C9.5166 63.513 9.76126 63.2683 10.0627 63.2683H41.12C41.4215 63.2683 41.6661 63.513 41.6661 63.8144C41.6661 64.1159 41.4215 64.3605 41.12 64.3605Z" fill="#292A2E"/>
    <path d="M46.9138 75.1318H20.9856C20.6841 75.1318 20.4395 74.8871 20.4395 74.5857C20.4395 74.2842 20.6841 74.0396 20.9856 74.0396H46.9138C47.2153 74.0396 47.4599 74.2842 47.4599 74.5857C47.4599 74.8871 47.2153 75.1318 46.9138 75.1318Z" fill="#292A2E"/>
    <path d="M34.3763 85.9047H20.9846C20.6831 85.9047 20.4385 85.6601 20.4385 85.3586C20.4385 85.0572 20.6831 84.8125 20.9846 84.8125H34.3763C34.6778 84.8125 34.9224 85.0572 34.9224 85.3586C34.9224 85.6601 34.6778 85.9047 34.3763 85.9047Z" fill="#292A2E"/>
    <path d="M44.6344 96.676H20.9856C20.6841 96.676 20.4395 96.4313 20.4395 96.1299C20.4395 95.8284 20.6841 95.5837 20.9856 95.5837H44.6344C44.9358 95.5837 45.1805 95.8284 45.1805 96.1299C45.1805 96.4313 44.9358 96.676 44.6344 96.676Z" fill="#292A2E"/>
    <path d="M28.2983 107.447H10.0637C9.76224 107.447 9.51758 107.203 9.51758 106.901C9.51758 106.6 9.76224 106.355 10.0637 106.355H28.2983C28.5998 106.355 28.8444 106.6 28.8444 106.901C28.8444 107.203 28.5998 107.447 28.2983 107.447Z" fill="#292A2E"/>
    <path d="M22.0301 118.22H10.0637C9.76224 118.22 9.51758 117.975 9.51758 117.674C9.51758 117.373 9.76224 117.128 10.0637 117.128H22.0301C22.3315 117.128 22.5762 117.373 22.5762 117.674C22.5762 117.975 22.3315 118.22 22.0301 118.22Z" fill="#292A2E"/>
    <path d="M67.7888 40.5065V40.7031L74.6152 43.2371C74.8118 43.3135 74.9429 43.5101 74.9429 43.7286V43.9143C74.9429 44.0781 74.8664 44.2419 74.7244 44.3293C74.5824 44.4276 74.4076 44.4494 74.2438 44.3839L66.5327 41.3694C66.3361 41.2929 66.2051 41.0963 66.2051 40.8888V40.3318C66.2051 40.1133 66.3361 39.9276 66.5327 39.8512L74.2438 36.8257C74.3093 36.8039 74.3749 36.793 74.4405 36.793C74.5388 36.793 74.637 36.8257 74.7244 36.8803C74.8664 36.9786 74.9429 37.1316 74.9429 37.3063V37.492C74.9429 37.7104 74.8118 37.907 74.6152 37.9726L67.7888 40.5065Z" fill="#367CFF"/>
    <path d="M81.3207 34.5974L77.2358 47.1033C77.1703 47.3109 76.9737 47.4638 76.7443 47.4638C76.5805 47.4638 76.4276 47.3873 76.3402 47.2563C76.2419 47.1252 76.2092 46.9614 76.2529 46.7975L80.3378 34.3025C80.4142 34.0841 80.6108 33.9312 80.8402 33.9312C81.004 33.9312 81.146 34.0076 81.2443 34.1387C81.3426 34.2807 81.3754 34.4445 81.3207 34.5974Z" fill="#367CFF"/>
    <path d="M91.3515 40.3318V40.8888C91.3515 41.0963 91.2314 41.2929 91.0348 41.3694L83.3128 44.3839C83.1599 44.4494 82.9851 44.4276 82.8432 44.3293C82.7012 44.2419 82.6138 44.0781 82.6138 43.9143V43.7286C82.6138 43.5101 82.7448 43.3135 82.9524 43.2371L89.7787 40.7031V40.5065L82.9524 37.9726C82.7448 37.907 82.6138 37.7104 82.6138 37.492V37.3063C82.6138 37.1316 82.7012 36.9786 82.8432 36.8803C82.9305 36.8257 83.0288 36.793 83.1271 36.793C83.1927 36.793 83.2582 36.8039 83.3128 36.8257L91.0348 39.8512C91.2314 39.9276 91.3515 40.1133 91.3515 40.3318Z" fill="#367CFF"/>
</svg>