<svg width="19" height="15" viewBox="0 0 19 15" fill="none" xmlns="http://www.w3.org/2000/svg">
<path d="M14.3 1.29688H4.7C4.11652 1.29688 3.55694 1.52866 3.14436 1.94124C2.73178 2.35382 2.5 2.9134 2.5 3.49687V11.4969C2.5 12.0804 2.73178 12.6399 3.14436 13.0525C3.55694 13.4651 4.11652 13.6969 4.7 13.6969H14.3C14.8835 13.6969 15.4431 13.4651 15.8556 13.0525C16.2682 12.6399 16.5 12.0804 16.5 11.4969V3.49687C16.5 2.9134 16.2682 2.35382 15.8556 1.94124C15.4431 1.52866 14.8835 1.29688 14.3 1.29688ZM15.3 3.49687V6.89687H10.1V2.49687H14.3C14.5652 2.49687 14.8196 2.60223 15.0071 2.78977C15.1946 2.9773 15.3 3.23166 15.3 3.49687ZM4.7 2.49687H8.9V6.89687H3.7V3.49687C3.7 3.23166 3.80536 2.9773 3.99289 2.78977C4.18043 2.60223 4.43478 2.49687 4.7 2.49687ZM3.7 11.4969V8.09687H8.9V12.4969H4.7C4.43478 12.4969 4.18043 12.3915 3.99289 12.204C3.80536 12.0164 3.7 11.7621 3.7 11.4969ZM14.3 12.4969H10.1V8.09687H15.3V11.4969C15.3 11.7621 15.1946 12.0164 15.0071 12.204C14.8196 12.3915 14.5652 12.4969 14.3 12.4969Z" fill="#212121"/>
</svg>
