<svg width="16" height="16" viewBox="0 0 16 16" fill="none" xmlns="http://www.w3.org/2000/svg">
<path d="M12.8774 7.14801L8.55744 2.82801C8.51217 2.77915 8.4576 2.73983 8.39692 2.71236C8.33624 2.68488 8.27069 2.6698 8.20411 2.66801H3.17744C3.10978 2.66712 3.04263 2.67978 2.97994 2.70526C2.91726 2.73074 2.86031 2.76852 2.81246 2.81637C2.76461 2.86422 2.72684 2.92116 2.70136 2.98385C2.67588 3.04653 2.66321 3.11369 2.66411 3.18135V8.20801C2.6653 8.34233 2.71777 8.47111 2.81077 8.56801L7.13077 12.8813C7.41316 13.1627 7.79551 13.3206 8.19411 13.3206C8.5927 13.3206 8.97505 13.1627 9.25744 12.8813L12.8641 9.27468C13.1472 8.99406 13.3075 8.6127 13.31 8.2141C13.3125 7.8155 13.157 7.43216 12.8774 7.14801V7.14801ZM12.1708 8.56801L8.56411 12.1747C8.4684 12.2671 8.34052 12.3188 8.20744 12.3188C8.07436 12.3188 7.94648 12.2671 7.85077 12.1747L3.67744 8.00135V3.68135H7.99744L12.1708 7.85468C12.2632 7.95039 12.3149 8.07827 12.3149 8.21135C12.3149 8.34443 12.2632 8.4723 12.1708 8.56801V8.56801Z" fill="#212121"/>
<path d="M5.66146 6.5026C6.1217 6.5026 6.49479 6.12951 6.49479 5.66927C6.49479 5.20903 6.1217 4.83594 5.66146 4.83594C5.20122 4.83594 4.82812 5.20903 4.82812 5.66927C4.82812 6.12951 5.20122 6.5026 5.66146 6.5026Z" fill="#212121"/>
</svg>
