<svg width="235" height="200" viewBox="0 0 235 200" fill="none" xmlns="http://www.w3.org/2000/svg">
<g clip-path="url(#clip0_2320_2843)">
<path opacity="0.1" d="M233.518 137.894C227.11 105.584 189.572 79.7619 182.25 46.0905C168.943 3.25341 125.082 -3.51921 96.5809 15.0849C51.4201 44.5634 99.5973 51.8782 11.0517 121.623C-10.8122 138.844 -3.84536 214.863 64.9372 197.416C101.953 188.028 113.206 186.71 129.855 185.164C171.822 181.268 244.273 192.131 233.518 137.893V137.894Z" fill="#C3C2FF"/>
<path d="M183.383 145.992L118.52 180.25L53.7539 145.992V94.2603H183.383V145.992Z" fill="white"/>
<path d="M118.52 180.776C118.435 180.776 118.351 180.755 118.274 180.714L53.5085 146.456C53.3365 146.366 53.2285 146.187 53.2285 145.992V94.2608C53.2285 93.9707 53.4639 93.7354 53.7539 93.7354H183.383C183.673 93.7354 183.909 93.9707 183.909 94.2608V145.992C183.909 146.187 183.801 146.366 183.629 146.457L118.765 180.715C118.688 180.755 118.604 180.776 118.52 180.776ZM54.2794 145.676L118.52 179.656L182.858 145.675V94.7862H54.2794V145.676Z" fill="#262626"/>
<path d="M183.383 83.1596L118.52 48.9018L147.667 34.8525L212.53 69.1108L183.383 83.1596Z" fill="white"/>
<path d="M183.383 83.6848C183.299 83.6848 183.215 83.6646 183.138 83.6239L118.274 49.366C118.099 49.2731 117.991 49.0899 117.994 48.8915C117.998 48.6935 118.113 48.5144 118.291 48.4278L147.439 34.3786C147.589 34.3059 147.765 34.3088 147.912 34.3874L212.776 68.6452C212.951 68.7381 213.059 68.9214 213.056 69.1198C213.052 69.3178 212.937 69.4969 212.759 69.5834L183.612 83.6327C183.539 83.6676 183.461 83.6848 183.383 83.6848ZM119.685 48.923L183.394 82.5709L211.365 69.0891L147.656 35.4412L119.685 48.923Z" fill="#262626"/>
<path d="M53.7542 83.1591L118.618 48.9013L89.4706 34.8521L24.6069 69.1103L53.7542 83.1591Z" fill="white"/>
<path d="M53.7543 83.6847C53.6761 83.6847 53.5983 83.6674 53.526 83.6325L24.3788 69.5833C24.2002 69.4971 24.0854 69.3176 24.0816 69.1196C24.0783 68.9212 24.1863 68.738 24.3616 68.6451L89.2252 34.3873C89.3728 34.3086 89.5485 34.3061 89.699 34.3784L118.846 48.4277C119.025 48.5138 119.14 48.6933 119.143 48.8913C119.147 49.0897 119.039 49.273 118.863 49.3659L53.9998 83.6237C53.9229 83.6645 53.8388 83.6847 53.7543 83.6847ZM25.7727 69.0885L53.7434 82.5703L117.452 48.9224L89.4816 35.4406L25.7727 69.089V69.0885Z" fill="#262626"/>
<path d="M53.754 83.1597L118.618 117.418L85.267 135.67L20.4033 101.412L53.754 83.1597Z" fill="white"/>
<path d="M85.267 136.195C85.1825 136.195 85.0985 136.175 85.0216 136.135L20.1579 101.877C19.9868 101.786 19.8792 101.609 19.8779 101.416C19.8767 101.222 19.9813 101.044 20.1512 100.951L53.5019 82.6984C53.657 82.6135 53.8432 82.6123 53.9996 82.6946L118.863 116.952C119.034 117.043 119.142 117.22 119.143 117.414C119.144 117.607 119.04 117.786 118.87 117.878L85.5192 136.131C85.4406 136.174 85.3536 136.195 85.267 136.195ZM21.5131 101.404L85.2628 135.074L117.508 117.426L53.7587 83.756L21.5131 101.404Z" fill="#262626"/>
<path d="M183.383 83.1592L118.52 117.417L151.87 135.67L216.734 101.412L183.383 83.1592Z" fill="white"/>
<path d="M151.87 136.195C151.783 136.195 151.697 136.174 151.618 136.131L118.267 117.878C118.098 117.785 117.993 117.607 117.994 117.414C117.995 117.22 118.103 117.043 118.274 116.952L183.138 82.6946C183.294 82.6123 183.481 82.6135 183.635 82.6984L216.986 100.951C217.156 101.044 217.261 101.223 217.259 101.416C217.258 101.609 217.151 101.786 216.979 101.877L152.116 136.135C152.039 136.175 151.955 136.196 151.87 136.196V136.195ZM119.629 117.425L151.875 135.073L215.624 101.403L183.379 83.7556L119.629 117.425Z" fill="#262626"/>
<path d="M118.618 48.9014L53.7539 83.1592L118.52 117.417L183.383 83.1592L118.618 48.9014Z" fill="#262626"/>
<path d="M119.045 117.417H117.994V180.25H119.045V117.417Z" fill="#262626"/>
<path d="M82.1766 80.0491C82.093 80.0491 82.0081 80.0239 81.9341 79.9714C81.7449 79.8373 81.7 79.575 81.8345 79.3854C81.9122 79.2753 89.5092 68.2925 81.0283 58.2802C77.5486 54.1722 72.8412 52.5984 68.7979 52.5984C68.7604 52.5984 68.7226 52.5984 68.6856 52.5984C69.491 55.3962 69.3473 57.8838 68.2069 59.7922C67.1291 61.5963 65.2056 62.6565 63.2968 62.4908C61.6141 62.3454 60.2846 61.3109 59.6486 59.6527C58.7158 57.2197 59.6923 54.8599 62.2598 53.3403C63.6347 52.5265 65.4822 51.9767 67.5515 51.8187C67.0248 50.3727 66.2426 48.843 65.2123 47.2701C62.1501 42.5933 56.5691 39.3558 49.8995 38.3878C44.2479 37.5672 38.8314 38.5336 36.0987 40.848C35.9205 40.9985 35.6552 40.9754 35.5064 40.7989C35.3564 40.6219 35.3782 40.3562 35.5552 40.2062C38.4636 37.743 44.1412 36.7022 50.0201 37.5559C56.9281 38.5584 62.7213 41.9313 65.9155 46.8094C67.0366 48.5215 67.8756 50.1924 68.4242 51.7758C72.7731 51.6741 77.9105 53.2996 81.6689 57.7363C90.5773 68.2534 82.6012 79.7566 82.5192 79.8713C82.4373 79.9865 82.3078 80.0483 82.1762 80.0483L82.1766 80.0491ZM67.8231 52.6299C65.8117 52.7581 64.0147 53.2798 62.6885 54.065C60.4708 55.3777 59.6494 57.305 60.4342 59.353C60.9504 60.6989 62.0202 61.5379 63.3699 61.6548C64.9508 61.7914 66.5713 60.8918 67.4855 59.3622C68.533 57.6094 68.6293 55.2794 67.8231 52.6299Z" fill="#292A2E"/>
<path d="M148.225 55.8077C148.044 55.8077 147.878 55.6917 147.823 55.5105C147.8 55.4357 145.555 47.9594 146.727 39.5285C147.814 31.7109 152.126 21.449 166.496 16.9555C168.834 16.2245 170.889 15.7727 172.696 15.5343C173.372 11.3052 175.949 6.71755 181.709 3.55234C195.396 -3.9685 204.642 2.77932 204.734 2.84826C204.919 2.98781 204.956 3.25095 204.817 3.43632C204.678 3.62212 204.415 3.65911 204.228 3.52039C204.141 3.45482 195.305 -2.96009 182.114 4.28921C176.731 7.24718 174.266 11.4927 173.566 15.4339C179.904 14.8096 182.94 16.924 184.302 18.5213C186.034 20.5528 186.417 23.3473 185.275 25.6411C184.308 27.5856 182.446 28.6756 180.301 28.5453C176.761 28.3376 173.831 25.3599 172.839 20.9589C172.53 19.5881 172.418 18.0392 172.58 16.4175C170.775 16.6634 168.822 17.1098 166.747 17.7584C155.547 21.2607 149.091 28.6243 147.56 39.6446C146.413 47.8934 148.604 55.1919 148.627 55.2646C148.695 55.4866 148.569 55.722 148.348 55.7896C148.307 55.8022 148.266 55.8077 148.225 55.8077ZM173.438 16.3141C173.256 17.908 173.356 19.4318 173.659 20.7735C174.567 24.7996 177.193 27.5205 180.35 27.7059C182.146 27.8084 183.71 26.8996 184.523 25.2662C185.513 23.2746 185.176 20.8412 183.662 19.0661C181.697 16.7613 178.11 15.8302 173.438 16.3141Z" fill="#292A2E"/>
</g>
<defs>
<clipPath id="clip0_2320_2843">
<rect width="234.593" height="200" fill="white"/>
</clipPath>
</defs>
</svg>
