<svg width="24" height="24" viewBox="0 0 24 24" fill="none" xmlns="http://www.w3.org/2000/svg">
<path d="M18.53 9L13 3.47C12.8595 3.32931 12.6688 3.25018 12.47 3.25H8C7.27065 3.25 6.57118 3.53973 6.05546 4.05546C5.53973 4.57118 5.25 5.27065 5.25 6V18C5.25 18.7293 5.53973 19.4288 6.05546 19.9445C6.57118 20.4603 7.27065 20.75 8 20.75H16C16.7293 20.75 17.4288 20.4603 17.9445 19.9445C18.4603 19.4288 18.75 18.7293 18.75 18V9.5C18.7421 9.3116 18.6636 9.13309 18.53 9V9ZM13.25 5.81L16.19 8.75H13.25V5.81ZM16 19.25H8C7.66848 19.25 7.35054 19.1183 7.11612 18.8839C6.8817 18.6495 6.75 18.3315 6.75 18V6C6.75 5.66848 6.8817 5.35054 7.11612 5.11612C7.35054 4.8817 7.66848 4.75 8 4.75H11.75V9.5C11.7526 9.69811 11.8324 9.88737 11.9725 10.0275C12.1126 10.1676 12.3019 10.2474 12.5 10.25H17.25V18C17.25 18.3315 17.1183 18.6495 16.8839 18.8839C16.6495 19.1183 16.3315 19.25 16 19.25Z" fill="#212121"/>
<path d="M14.718 13.8187L14.75 13.8059L14.75 16.6279C14.75 16.6279 14.75 16.628 14.75 16.628C14.75 16.6345 14.748 16.6408 14.7445 16.646C14.7409 16.6513 14.7359 16.6553 14.7301 16.6576L14.73 16.6577L12.4375 17.5769V17.5415V14.7331L14.718 13.8187ZM12.1316 12.3003L14.1407 13.1061L12 13.9646L9.85913 13.106L11.8684 12.3003L11.87 12.2999L11.886 12.2935L11.9886 12.2522C11.9886 12.2522 11.9886 12.2522 11.9886 12.2522C11.9959 12.2493 12.0041 12.2493 12.0114 12.2522L12.114 12.2935L12.13 12.2999L12.1316 12.3003ZM9.28196 13.8183L11.5625 14.7327V17.5415V17.577L9.26982 16.6577C9.2641 16.6554 9.2591 16.6514 9.25553 16.6461C9.25195 16.6409 9.25 16.6345 9.25 16.628V13.8055L9.28196 13.8183Z" stroke="#212121" stroke-width="0.5"/>
</svg>
