<svg width="48" height="48" viewBox="0 0 48 48" fill="none" xmlns="http://www.w3.org/2000/svg">
    <path d="M41.19 21.9862C41.1056 21.6258 40.9337 21.2919 40.6894 21.0139C40.445 20.7359 40.1359 20.5224 39.7894 20.3925L29.5819 16.5656L32.2069 3.44058C32.3029 2.96055 32.2397 2.46233 32.0269 2.02147C31.8141 1.58061 31.4633 1.22118 31.0278 0.997689C30.5922 0.774199 30.0957 0.698845 29.6135 0.783058C29.1313 0.86727 28.6897 1.10645 28.3556 1.46433L7.35565 23.9643C7.103 24.2348 6.92095 24.5633 6.82564 24.9209C6.73034 25.2786 6.72471 25.6541 6.80927 26.0144C6.89383 26.3747 7.06596 26.7086 7.31041 26.9865C7.55485 27.2644 7.86407 27.4777 8.21065 27.6075L18.4181 31.4343L15.7931 44.5593C15.6972 45.0394 15.7604 45.5376 15.9732 45.9784C16.186 46.4193 16.5367 46.7787 16.9723 47.0022C17.4078 47.2257 17.9043 47.3011 18.3866 47.2169C18.8688 47.1326 19.3104 46.8935 19.6444 46.5356L40.6444 24.0356C40.8968 23.7652 41.0786 23.4367 41.1738 23.0792C41.269 22.7217 41.2745 22.3463 41.19 21.9862ZM21.7594 37.6743L23.2069 30.4406C23.3116 29.9167 23.2265 29.3727 22.9668 28.9058C22.7071 28.439 22.2897 28.0798 21.7894 27.8925L12.9375 24.5756L26.2369 10.3256L24.7894 17.5593C24.6847 18.0832 24.7698 18.6272 25.0295 19.0941C25.2892 19.5609 25.7066 19.9201 26.2069 20.1075L35.0625 23.4243L21.7594 37.6743Z" fill="#9E9E9E"/>
</svg>
