<svg width="24" height="24" viewBox="0 0 24 24" fill="none" xmlns="http://www.w3.org/2000/svg">
<path d="M12.0088 2.00781C6.50879 2.00781 2.00879 6.50781 2.00879 12.0078C2.00879 17.5078 6.50879 22.0078 12.0088 22.0078C17.5088 22.0078 22.0088 17.5078 22.0088 12.0078C22.0088 6.50781 17.5088 2.00781 12.0088 2.00781ZM12.0088 20.0078C7.59879 20.0078 4.00879 16.4178 4.00879 12.0078C4.00879 7.59781 7.59879 4.00781 12.0088 4.00781C16.4188 4.00781 20.0088 7.59781 20.0088 12.0078C20.0088 16.4178 16.4188 20.0078 12.0088 20.0078ZM12.5088 7.00781H11.0088V13.0078L16.2088 16.2078L17.0088 14.9078L12.5088 12.2078V7.00781Z" fill="#495057"/>
</svg>
