<svg width="24" height="24" viewBox="0 0 24 24" fill="none" xmlns="http://www.w3.org/2000/svg">
<path d="M15 14.7509C14.2444 14.7526 13.4959 14.605 12.7975 14.3167C12.0991 14.0284 11.4644 13.6051 10.93 13.0709V13.0709C9.98333 12.1289 9.39276 10.8876 9.259 9.55882C9.12524 8.23001 9.45659 6.89594 10.1965 5.78413C10.9365 4.67232 12.0392 3.85161 13.3166 3.46197C14.594 3.07233 15.967 3.13788 17.2015 3.64745C18.436 4.15702 19.4555 5.07905 20.0862 6.25629C20.7168 7.43354 20.9196 8.79311 20.6598 10.1031C20.4001 11.4132 19.6939 12.5925 18.6618 13.4401C17.6297 14.2876 16.3355 14.7509 15 14.7509V14.7509ZM15 4.75094C14.1609 4.75299 13.3413 5.00336 12.6443 5.47049C11.9473 5.93763 11.4041 6.60062 11.0833 7.37593C10.7625 8.15124 10.6784 9.00416 10.8415 9.82721C11.0046 10.6503 11.4077 11.4066 12 12.0009C12.4939 12.4965 13.1025 12.8625 13.7718 13.0664C14.4411 13.2703 15.1504 13.3059 15.8367 13.1698C16.523 13.0338 17.1651 12.7304 17.706 12.2867C18.2469 11.8429 18.6699 11.2724 18.9375 10.6259C19.205 9.97942 19.3087 9.27687 19.2396 8.58063C19.1704 7.88439 18.9303 7.21601 18.5408 6.6348C18.1513 6.0536 17.6243 5.57755 17.0066 5.24892C16.3889 4.92028 15.6997 4.74923 15 4.75094V4.75094Z" fill="#212121"/>
<path d="M4.50007 20.2506C4.30712 20.2358 4.12763 20.1461 4.00007 20.0006C3.87708 19.8631 3.80908 19.6851 3.80908 19.5006C3.80908 19.3161 3.87708 19.1381 4.00007 19.0006L10.4601 12.5306C10.602 12.39 10.7939 12.3116 10.9936 12.3125C11.0925 12.313 11.1903 12.3329 11.2815 12.3712C11.3727 12.4095 11.4555 12.4653 11.5251 12.5356C11.5947 12.6058 11.6497 12.6891 11.6872 12.7807C11.7246 12.8722 11.7436 12.9702 11.7431 13.0691C11.7427 13.168 11.7227 13.2658 11.6845 13.357C11.6462 13.4482 11.5903 13.531 11.5201 13.6006L5.00007 20.0006C4.8725 20.1461 4.69301 20.2358 4.50007 20.2506V20.2506Z" fill="#212121"/>
<path d="M8.00009 20.7508C7.90155 20.7513 7.80391 20.7321 7.7129 20.6943C7.62189 20.6565 7.53933 20.6009 7.47009 20.5308L5.47009 18.5308C5.33761 18.3886 5.26549 18.2006 5.26892 18.0063C5.27234 17.812 5.35106 17.6266 5.48847 17.4892C5.62588 17.3518 5.81127 17.2731 6.00557 17.2696C6.19987 17.2662 6.38792 17.3383 6.53009 17.4708L8.53009 19.4708C8.67054 19.6114 8.74943 19.8021 8.74943 20.0008C8.74943 20.1996 8.67054 20.3902 8.53009 20.5308C8.46085 20.6009 8.3783 20.6565 8.28728 20.6943C8.19627 20.7321 8.09863 20.7513 8.00009 20.7508V20.7508Z" fill="#212121"/>
<path d="M10.0002 18.7511C9.90161 18.7516 9.80397 18.7324 9.71296 18.6946C9.62195 18.6568 9.5394 18.6012 9.47015 18.5311L7.47015 16.5311C7.39647 16.4625 7.33736 16.3797 7.29637 16.2877C7.25538 16.1957 7.23334 16.0964 7.23156 15.9957C7.22979 15.8949 7.24831 15.7949 7.28603 15.7015C7.32375 15.6081 7.3799 15.5233 7.45112 15.4521C7.52233 15.3809 7.60717 15.3247 7.70056 15.287C7.79394 15.2493 7.89397 15.2308 7.99468 15.2325C8.09538 15.2343 8.19469 15.2564 8.28669 15.2973C8.37869 15.3383 8.46149 15.3974 8.53015 15.4711L10.5302 17.4711C10.6706 17.6118 10.7495 17.8024 10.7495 18.0011C10.7495 18.1999 10.6706 18.3905 10.5302 18.5311C10.4609 18.6012 10.3784 18.6568 10.2873 18.6946C10.1963 18.7324 10.0987 18.7516 10.0002 18.7511V18.7511Z" fill="#212121"/>
</svg>
