<svg width="24" height="24" viewBox="0 0 24 24" fill="none" xmlns="http://www.w3.org/2000/svg">
<path d="M8.53 6.53003C8.66248 6.38785 8.7346 6.19981 8.73118 6.00551C8.72775 5.81121 8.64903 5.62582 8.51162 5.48841C8.37421 5.35099 8.18882 5.27228 7.99452 5.26885C7.80022 5.26543 7.61217 5.33755 7.47 5.47003L8.53 6.53003ZM5 9.00003L4.47 8.47003C4.32955 8.61066 4.25066 8.80128 4.25066 9.00003C4.25066 9.19878 4.32955 9.3894 4.47 9.53003L5 9.00003ZM7.47 12.53C7.61217 12.6625 7.80022 12.7346 7.99452 12.7312C8.18882 12.7278 8.37421 12.6491 8.51162 12.5117C8.64903 12.3742 8.72775 12.1889 8.73118 11.9946C8.7346 11.8003 8.66248 11.6122 8.53 11.47L7.47 12.53ZM5 16.25C4.80109 16.25 4.61032 16.329 4.46967 16.4697C4.32902 16.6104 4.25 16.8011 4.25 17C4.25 17.1989 4.32902 17.3897 4.46967 17.5304C4.61032 17.671 4.80109 17.75 5 17.75V16.25ZM7.47 5.47003L4.47 8.47003L5.53 9.53003L8.53 6.53003L7.47 5.47003ZM4.47 9.53003L7.47 12.53L8.53 11.47L5.53 8.47003L4.47 9.53003ZM5 9.75003H16V8.25003H5V9.75003ZM19.25 13C19.25 13.862 18.9076 14.6886 18.2981 15.2981C17.6886 15.9076 16.862 16.25 16 16.25V17.75C17.2598 17.75 18.468 17.2496 19.3588 16.3588C20.2496 15.468 20.75 14.2598 20.75 13H19.25ZM16 9.75003C16.862 9.75003 17.6886 10.0924 18.2981 10.7019C18.9076 11.3114 19.25 12.1381 19.25 13H20.75C20.75 11.7403 20.2496 10.5321 19.3588 9.64127C18.468 8.75047 17.2598 8.25003 16 8.25003V9.75003ZM5 17.75H16V16.25H5V17.75Z" fill="#212121"/>
</svg>
