<svg width="24" height="24" viewBox="0 0 24 24" fill="none" xmlns="http://www.w3.org/2000/svg">
<path d="M16 19C16 19.55 15.55 20 15 20H9C8.45 20 8 19.55 8 19C8 18.45 8.45 18 9 18H15C15.55 18 16 18.45 16 19ZM11 7.98996V15C11 15.55 11.45 16 12 16C12.55 16 13 15.55 13 15V7.98996H14.79C15.24 7.98996 15.46 7.44996 15.14 7.13996L12.35 4.35996C12.2545 4.2684 12.1273 4.21729 11.995 4.21729C11.8627 4.21729 11.7355 4.2684 11.64 4.35996L8.86 7.13996C8.54 7.44996 8.76 7.98996 9.21 7.98996H11Z" fill="#212121"/>
</svg>
