<svg width="26" height="25" viewBox="0 0 26 25" fill="none" xmlns="http://www.w3.org/2000/svg">
<path d="M1 1H25" stroke="#212121" stroke-width="1.71429" stroke-linecap="round"/>
<path d="M1 15.769H15.7692" stroke="#212121" stroke-width="1.71429" stroke-linecap="round"/>
<path d="M1 8.38477H25" stroke="#212121" stroke-width="1.71429" stroke-linecap="round"/>
<path d="M1 23.1538H15.7692" stroke="#212121" stroke-width="1.71429" stroke-linecap="round"/>
<rect width="14.7692" height="14.7692" transform="translate(10.2305 10.231)" fill="white"/>
<path d="M17.6156 19.4187C17.259 19.4187 16.9104 19.3129 16.6138 19.1148C16.3173 18.9167 16.0862 18.6351 15.9498 18.3056C15.8133 17.9761 15.7776 17.6136 15.8471 17.2638C15.9167 16.9141 16.0884 16.5928 16.3406 16.3406C16.5928 16.0884 16.9141 15.9167 17.2638 15.8471C17.6136 15.7776 17.9761 15.8133 18.3056 15.9498C18.6351 16.0862 18.9167 16.3173 19.1148 16.6138C19.3129 16.9104 19.4187 17.259 19.4187 17.6156C19.4187 18.0938 19.2287 18.5524 18.8905 18.8905C18.5524 19.2287 18.0938 19.4187 17.6156 19.4187ZM17.6156 16.7356C17.4415 16.7356 17.2714 16.7872 17.1267 16.8839C16.982 16.9806 16.8692 17.118 16.8026 17.2788C16.736 17.4396 16.7185 17.6166 16.7525 17.7873C16.7864 17.958 16.8703 18.1148 16.9933 18.2378C17.1164 18.3609 17.2732 18.4447 17.4439 18.4787C17.6146 18.5126 17.7915 18.4952 17.9523 18.4286C18.1131 18.362 18.2506 18.2492 18.3473 18.1045C18.444 17.9598 18.4956 17.7896 18.4956 17.6156C18.4956 17.3822 18.4029 17.1584 18.2378 16.9933C18.0728 16.8283 17.849 16.7356 17.6156 16.7356V16.7356Z" fill="#212121"/>
<path d="M17.6537 23.0002C17.4737 22.9994 17.2957 22.963 17.1299 22.8933C16.9641 22.8235 16.8136 22.7216 16.6873 22.5935C16.5609 22.4654 16.4611 22.3137 16.3935 22.1469C16.326 21.9801 16.292 21.8016 16.2937 21.6217C16.2912 21.5662 16.2732 21.5125 16.2416 21.4668C16.2101 21.4211 16.1662 21.3852 16.1152 21.3633C16.0587 21.3373 15.9958 21.3288 15.9345 21.3386C15.8731 21.3485 15.8161 21.3763 15.7706 21.4187C15.5151 21.6722 15.1705 21.8158 14.8106 21.8187C14.4484 21.821 14.0995 21.6819 13.8383 21.431C13.7114 21.3041 13.6107 21.1535 13.542 20.9877C13.4734 20.8219 13.438 20.6442 13.438 20.4648C13.438 20.2854 13.4734 20.1077 13.542 19.9419C13.6107 19.7761 13.7114 19.6255 13.8383 19.4987C13.8817 19.4591 13.9129 19.4079 13.9281 19.3512C13.9434 19.2945 13.9421 19.2346 13.9244 19.1787C13.8945 19.1267 13.8514 19.0835 13.7996 19.0533C13.7478 19.0231 13.689 19.0069 13.6291 19.0063C13.267 19.0049 12.9196 18.863 12.6601 18.6104C12.4007 18.3578 12.2494 18.0144 12.2383 17.6525C12.2391 17.4731 12.2752 17.2956 12.3446 17.1302C12.414 16.9647 12.5153 16.8146 12.6428 16.6883C12.7702 16.562 12.9213 16.462 13.0873 16.3941C13.2534 16.3262 13.4312 16.2917 13.6106 16.2925C13.6661 16.2901 13.7198 16.272 13.7655 16.2405C13.8112 16.2089 13.8471 16.1651 13.8691 16.114C13.895 16.0576 13.9035 15.9947 13.8937 15.9333C13.8838 15.872 13.856 15.8149 13.8137 15.7694C13.5601 15.5139 13.4165 15.1694 13.4137 14.8094C13.4105 14.6297 13.4432 14.4512 13.5097 14.2843C13.5763 14.1173 13.6754 13.9653 13.8014 13.8371C13.9282 13.7102 14.0788 13.6095 14.2446 13.5409C14.4104 13.4722 14.5881 13.4368 14.7675 13.4368C14.947 13.4368 15.1246 13.4722 15.2904 13.5409C15.4562 13.6095 15.6068 13.7102 15.7337 13.8371C15.778 13.8793 15.8324 13.9093 15.8916 13.9244C15.9509 13.9395 16.0131 13.9391 16.0721 13.9233C16.126 13.8938 16.1716 13.8513 16.2049 13.7997C16.2382 13.7482 16.2582 13.6891 16.2629 13.6279C16.2627 13.2647 16.404 12.9158 16.6567 12.655C16.9094 12.3943 17.2538 12.2422 17.6167 12.231C17.7962 12.2326 17.9735 12.2695 18.1386 12.3396C18.3038 12.4098 18.4535 12.5118 18.5792 12.6398C18.7049 12.7678 18.8042 12.9193 18.8713 13.0857C18.9385 13.252 18.9722 13.43 18.9706 13.6094C18.9729 13.6657 18.9901 13.7204 19.0203 13.768C19.0506 13.8155 19.0929 13.8542 19.1429 13.8802C19.1972 13.9001 19.256 13.9044 19.3126 13.8924C19.3692 13.8804 19.4213 13.8527 19.4629 13.8125C19.7184 13.5589 20.0629 13.4154 20.4229 13.4125C20.6029 13.4069 20.7821 13.4384 20.9494 13.5051C21.1167 13.5718 21.2685 13.6722 21.3952 13.8002C21.5221 13.9271 21.6228 14.0777 21.6915 14.2434C21.7601 14.4092 21.7955 14.5869 21.7955 14.7663C21.7955 14.9458 21.7601 15.1235 21.6915 15.2892C21.6228 15.455 21.5221 15.6056 21.3952 15.7325C21.3562 15.7786 21.3296 15.8338 21.3177 15.893C21.3059 15.9522 21.3093 16.0134 21.3275 16.071C21.357 16.1248 21.3995 16.1705 21.451 16.2038C21.5026 16.2371 21.5617 16.257 21.6229 16.2617C21.9828 16.2663 22.3271 16.4097 22.5839 16.6619C22.8408 16.9141 22.9903 17.2558 23.0014 17.6156C22.9997 17.795 22.9628 17.9723 22.8927 18.1374C22.8225 18.3026 22.7205 18.4523 22.5925 18.578C22.4645 18.7037 22.313 18.803 22.1466 18.8702C21.9803 18.9373 21.8023 18.971 21.6229 18.9694C21.5666 18.9718 21.5119 18.9889 21.4643 19.0192C21.4168 19.0494 21.3781 19.0917 21.3521 19.1417V19.1417C21.3322 19.196 21.328 19.2549 21.3399 19.3115C21.3519 19.3681 21.3796 19.4201 21.4198 19.4617C21.6734 19.7172 21.8169 20.0618 21.8198 20.4217C21.823 20.6014 21.7903 20.7799 21.7237 20.9469C21.6572 21.1138 21.558 21.2658 21.4321 21.394C21.3053 21.5209 21.1546 21.6216 20.9889 21.6903C20.8231 21.759 20.6454 21.7943 20.466 21.7943C20.2865 21.7943 20.1089 21.759 19.9431 21.6903C19.7773 21.6216 19.6267 21.5209 19.4998 21.394C19.4582 21.3538 19.4062 21.3261 19.3496 21.3141C19.293 21.3022 19.2341 21.3064 19.1798 21.3263C19.1279 21.3563 19.0847 21.3993 19.0544 21.4512C19.0242 21.503 19.008 21.5618 19.0075 21.6217C19.0029 21.9817 18.8596 22.3259 18.6073 22.5828C18.3551 22.8396 18.0135 22.9891 17.6537 23.0002ZM15.986 20.4094C16.1492 20.4075 16.3109 20.4411 16.4598 20.5079C16.6796 20.5995 16.8681 20.7529 17.0025 20.9495C17.1368 21.1461 17.2113 21.3775 17.2167 21.6156C17.215 21.7343 17.2598 21.849 17.3414 21.9352C17.423 22.0214 17.535 22.0723 17.6537 22.0771C17.7723 22.0677 17.8828 22.0135 17.9629 21.9255C18.0429 21.8374 18.0864 21.7222 18.0844 21.6033C18.0859 21.3644 18.1548 21.1307 18.2833 20.9293C18.4118 20.7279 18.5946 20.5669 18.8106 20.4648C19.0353 20.3713 19.2827 20.3466 19.5215 20.3937C19.7603 20.4408 19.9797 20.5576 20.1521 20.7294C20.2337 20.811 20.3444 20.8569 20.4598 20.8569C20.5752 20.8569 20.6859 20.811 20.7675 20.7294C20.8491 20.6478 20.895 20.5371 20.895 20.4217C20.895 20.3063 20.8491 20.1956 20.7675 20.114C20.5967 19.941 20.481 19.7212 20.435 19.4824C20.389 19.2437 20.4148 18.9966 20.5091 18.7725C20.6061 18.5566 20.7634 18.3732 20.9621 18.2444C21.1607 18.1156 21.3923 18.0468 21.6291 18.0463C21.7461 18.048 21.8592 18.004 21.9443 17.9235C22.0294 17.843 22.0796 17.7326 22.0844 17.6156C22.0765 17.4964 22.0227 17.385 21.9344 17.3046C21.846 17.2243 21.73 17.1814 21.6106 17.1848C21.3697 17.1783 21.1354 17.1045 20.9343 16.9718C20.7331 16.8391 20.573 16.6529 20.4721 16.434C20.38 16.207 20.356 15.9582 20.403 15.7177C20.45 15.4773 20.566 15.2558 20.7367 15.0802C20.7771 15.0398 20.8092 14.9918 20.8311 14.939C20.8529 14.8862 20.8642 14.8296 20.8642 14.7725C20.8642 14.7154 20.8529 14.6588 20.8311 14.606C20.8092 14.5532 20.7771 14.5052 20.7367 14.4648C20.6963 14.4244 20.6484 14.3923 20.5956 14.3705C20.5428 14.3486 20.4862 14.3374 20.4291 14.3374C20.3719 14.3374 20.3153 14.3486 20.2625 14.3705C20.2097 14.3923 20.1618 14.4244 20.1214 14.4648C19.9483 14.6255 19.7328 14.733 19.5003 14.7746C19.2679 14.8161 19.0284 14.7899 18.8104 14.6991C18.5924 14.6083 18.4052 14.4567 18.271 14.2624C18.1368 14.0681 18.0614 13.8393 18.0537 13.6033C18.0554 13.4862 18.0113 13.3731 17.9308 13.288C17.8504 13.203 17.7399 13.1527 17.6229 13.1479C17.5037 13.1558 17.3923 13.2096 17.312 13.2979C17.2316 13.3863 17.1887 13.5024 17.1921 13.6217C17.1856 13.8626 17.1118 14.0969 16.9791 14.298C16.8465 14.4992 16.6602 14.6593 16.4414 14.7602C16.2144 14.8523 15.9655 14.8763 15.7251 14.8293C15.4847 14.7823 15.2631 14.6664 15.0875 14.4956C15.0471 14.4552 14.9991 14.4231 14.9463 14.4012C14.8935 14.3794 14.837 14.3681 14.7798 14.3681C14.7227 14.3681 14.6661 14.3794 14.6133 14.4012C14.5605 14.4231 14.5125 14.4552 14.4721 14.4956C14.4317 14.536 14.3997 14.5839 14.3778 14.6367C14.3559 14.6895 14.3447 14.7461 14.3447 14.8033C14.3447 14.8604 14.3559 14.917 14.3778 14.9698C14.3997 15.0226 14.4317 15.0706 14.4721 15.111C14.6419 15.2847 14.7564 15.5048 14.8013 15.7435C14.8462 15.9823 14.8195 16.2289 14.7244 16.4525C14.6328 16.6723 14.4794 16.8608 14.2828 16.9952C14.0862 17.1295 13.8548 17.2039 13.6167 17.2094C13.498 17.2077 13.3834 17.2524 13.2972 17.3341C13.2109 17.4157 13.16 17.5277 13.1552 17.6463C13.1646 17.7649 13.2188 17.8755 13.3068 17.9555C13.3949 18.0356 13.5101 18.079 13.6291 18.0771C13.868 18.0786 14.1016 18.1475 14.303 18.276C14.5044 18.4045 14.6655 18.5872 14.7675 18.8033C14.861 19.028 14.8857 19.2754 14.8386 19.5142C14.7915 19.753 14.6747 19.9724 14.5029 20.1448C14.4625 20.1852 14.4304 20.2332 14.4086 20.286C14.3867 20.3388 14.3754 20.3954 14.3754 20.4525C14.3754 20.5096 14.3867 20.5662 14.4086 20.619C14.4304 20.6718 14.4625 20.7198 14.5029 20.7602C14.5433 20.8006 14.5913 20.8326 14.6441 20.8545C14.6969 20.8764 14.7534 20.8876 14.8106 20.8876C14.8677 20.8876 14.9243 20.8764 14.9771 20.8545C15.0299 20.8326 15.0779 20.8006 15.1183 20.7602C15.3522 20.5369 15.6626 20.4114 15.986 20.4094V20.4094Z" fill="#212121"/>
</svg>
