<svg width="16" height="16" viewBox="0 0 16 16" fill="none" xmlns="http://www.w3.org/2000/svg">
<path d="M4.66406 4.66536V11.332M2.66406 5.33203V10.6654M6.66406 4.66536C6.66406 4.31174 6.80454 3.9726 7.05459 3.72256C7.30464 3.47251 7.64377 3.33203 7.9974 3.33203H11.9974C12.351 3.33203 12.6902 3.47251 12.9402 3.72256C13.1903 3.9726 13.3307 4.31174 13.3307 4.66536V11.332C13.3307 11.6857 13.1903 12.0248 12.9402 12.2748C12.6902 12.5249 12.351 12.6654 11.9974 12.6654H7.9974C7.64377 12.6654 7.30464 12.5249 7.05459 12.2748C6.80454 12.0248 6.66406 11.6857 6.66406 11.332V4.66536Z" stroke="#212121" stroke-width="1.33333" stroke-linecap="round" stroke-linejoin="round"/>
</svg>
