<svg width="16" height="16" viewBox="0 0 16 16" fill="none" xmlns="http://www.w3.org/2000/svg">
<path d="M4.66699 4.66683V11.3335M2.66699 5.3335V10.6668M6.66699 4.66683C6.66699 4.31321 6.80747 3.97407 7.05752 3.72402C7.30757 3.47397 7.6467 3.3335 8.00033 3.3335H12.0003C12.3539 3.3335 12.6931 3.47397 12.9431 3.72402C13.1932 3.97407 13.3337 4.31321 13.3337 4.66683V11.3335C13.3337 11.6871 13.1932 12.0263 12.9431 12.2763C12.6931 12.5264 12.3539 12.6668 12.0003 12.6668H8.00033C7.6467 12.6668 7.30757 12.5264 7.05752 12.2763C6.80747 12.0263 6.66699 11.6871 6.66699 11.3335V4.66683Z" stroke="#212121" stroke-width="1.33333" stroke-linecap="round" stroke-linejoin="round"/>
</svg>
