<svg width="15" height="14" viewBox="0 0 15 14" fill="none" xmlns="http://www.w3.org/2000/svg">
<g clip-path="url(#clip0_5822_126715)">
<path d="M8.3 12.3996H2.7C2.11652 12.3996 1.55694 12.1678 1.14436 11.7552C0.731785 11.3427 0.5 10.7831 0.5 10.1996V3.79961C0.5 3.21613 0.731785 2.65655 1.14436 2.24397C1.55694 1.83139 2.11652 1.59961 2.7 1.59961H8.3C8.88348 1.59961 9.44306 1.83139 9.85564 2.24397C10.2682 2.65655 10.5 3.21613 10.5 3.79961V10.1996C10.5 10.7831 10.2682 11.3427 9.85564 11.7552C9.44306 12.1678 8.88348 12.3996 8.3 12.3996ZM2.7 2.79961C2.43478 2.79961 2.18043 2.90497 1.99289 3.0925C1.80536 3.28004 1.7 3.53439 1.7 3.79961V10.1996C1.7 10.4648 1.80536 10.7192 1.99289 10.9067C2.18043 11.0943 2.43478 11.1996 2.7 11.1996H8.3C8.56522 11.1996 8.81957 11.0943 9.00711 10.9067C9.19464 10.7192 9.3 10.4648 9.3 10.1996V3.79961C9.3 3.53439 9.19464 3.28004 9.00711 3.0925C8.81957 2.90497 8.56522 2.79961 8.3 2.79961H2.7Z" fill="#212121"/>
<path d="M13.9008 10.7991C13.7909 10.7974 13.6834 10.7671 13.5888 10.7111L9.58878 8.31114C9.50091 8.25765 9.42827 8.18246 9.37784 8.0928C9.3274 8.00314 9.30087 7.90201 9.30078 7.79914V6.19914C9.30087 6.09627 9.3274 5.99515 9.37784 5.90548C9.42827 5.81582 9.50091 5.74063 9.58878 5.68714L13.5888 3.28714C13.6807 3.23216 13.7857 3.20313 13.8928 3.20312C13.9998 3.20312 14.1049 3.23216 14.1968 3.28714C14.2888 3.33933 14.3654 3.41491 14.4188 3.50623C14.4721 3.59755 14.5004 3.70136 14.5008 3.80714V10.2071C14.5004 10.3129 14.4721 10.4167 14.4188 10.5081C14.3654 10.5994 14.2888 10.675 14.1968 10.7271C14.1065 10.7776 14.0042 10.8025 13.9008 10.7991V10.7991ZM10.5008 7.46314L13.3008 9.14314V4.85514L10.5008 6.53514V7.46314Z" fill="#212121"/>
</g>
<defs>
<clipPath id="clip0_5822_126715">
<rect width="14" height="14" fill="white" transform="translate(0.5)"/>
</clipPath>
</defs>
</svg>
