<svg width="14" height="12" viewBox="0 0 14 12" fill="none" xmlns="http://www.w3.org/2000/svg">
<path d="M7.8 11.4001H2.2C1.61652 11.4001 1.05694 11.1683 0.644365 10.7557C0.231785 10.3432 0 9.78357 0 9.2001V2.8001C0 2.21662 0.231785 1.65704 0.644365 1.24446C1.05694 0.831883 1.61652 0.600098 2.2 0.600098H7.8C8.38348 0.600098 8.94306 0.831883 9.35564 1.24446C9.76822 1.65704 10 2.21662 10 2.8001V9.2001C10 9.78357 9.76822 10.3432 9.35564 10.7557C8.94306 11.1683 8.38348 11.4001 7.8 11.4001ZM2.2 1.8001C1.93478 1.8001 1.68043 1.90545 1.49289 2.09299C1.30536 2.28053 1.2 2.53488 1.2 2.8001V9.2001C1.2 9.46531 1.30536 9.71967 1.49289 9.90721C1.68043 10.0947 1.93478 10.2001 2.2 10.2001H7.8C8.06522 10.2001 8.31957 10.0947 8.50711 9.90721C8.69464 9.71967 8.8 9.46531 8.8 9.2001V2.8001C8.8 2.53488 8.69464 2.28053 8.50711 2.09299C8.31957 1.90545 8.06522 1.8001 7.8 1.8001H2.2Z" fill="#6C757D"/>
<path d="M13.3998 9.80012C13.2899 9.79841 13.1824 9.76808 13.0878 9.71212L9.0878 7.31212C8.99993 7.25862 8.92729 7.18344 8.87686 7.09377C8.82642 7.00411 8.79989 6.90299 8.7998 6.80012V5.20012C8.79989 5.09724 8.82642 4.99612 8.87686 4.90646C8.92729 4.8168 8.99993 4.74161 9.0878 4.68812L13.0878 2.28812C13.1797 2.23314 13.2847 2.2041 13.3918 2.2041C13.4989 2.2041 13.6039 2.23314 13.6958 2.28812C13.7878 2.3403 13.8644 2.41589 13.9178 2.50721C13.9712 2.59853 13.9995 2.70234 13.9998 2.80812V9.20812C13.9995 9.3139 13.9712 9.41771 13.9178 9.50903C13.8644 9.60035 13.7878 9.67593 13.6958 9.72812C13.6055 9.77862 13.5032 9.80352 13.3998 9.80012ZM9.9998 6.46412L12.7998 8.14412V3.85612L9.9998 5.53612V6.46412Z" fill="#6C757D"/>
</svg>
