<svg width="24" height="24" viewBox="0 0 24 24" fill="none" xmlns="http://www.w3.org/2000/svg">
<path d="M9.047 14.5L9 8" stroke="#212121" stroke-width="1.5" stroke-miterlimit="10" stroke-linecap="round"/>
<path d="M6.75403 12.395L8.72203 14.362C8.7646 14.4049 8.81523 14.4389 8.87101 14.4621C8.92679 14.4854 8.98661 14.4973 9.04703 14.4973C9.10745 14.4973 9.16727 14.4854 9.22305 14.4621C9.27882 14.4389 9.32946 14.4049 9.37203 14.362L11.34 12.395" stroke="#212121" stroke-width="1.5" stroke-linecap="round" stroke-linejoin="round"/>
<path d="M12 5.31982H6.09501C5.62223 5.31982 5.1541 5.41308 4.71741 5.59424C4.28072 5.77541 3.88406 6.04093 3.55013 6.3756C3.2162 6.71028 2.95156 7.10753 2.77136 7.54462C2.59117 7.98171 2.49896 8.45005 2.50001 8.92282V15.0848C2.50001 16.0383 2.87877 16.9527 3.55296 17.6269C3.88679 17.9607 4.2831 18.2255 4.71926 18.4062C5.15543 18.5868 5.62291 18.6798 6.09501 18.6798H12C12.9535 18.6798 13.8679 18.3011 14.5421 17.6269C15.2163 16.9527 15.595 16.0383 15.595 15.0848V8.92382C15.5963 8.45093 15.5043 7.98242 15.3242 7.54516C15.1441 7.10789 14.8795 6.71047 14.5455 6.37566C14.2116 6.04085 13.8148 5.77525 13.378 5.59407C12.9412 5.41289 12.4729 5.31969 12 5.31982ZM21.5 9.43782V14.5728C21.5 14.8228 21.429 15.0688 21.295 15.2808C21.1595 15.4936 20.9673 15.6644 20.74 15.7738C20.5144 15.8868 20.2603 15.9299 20.01 15.8978C19.7633 15.8685 19.5292 15.7723 19.333 15.6198L16.108 13.0318C15.953 12.9045 15.8276 12.7448 15.7407 12.564C15.6538 12.3831 15.6075 12.1854 15.605 11.9848C15.605 11.7848 15.65 11.5888 15.738 11.4098C15.83 11.2418 15.956 11.0948 16.108 10.9778L19.333 8.41082C19.5293 8.25787 19.7638 8.16171 20.011 8.13282C20.261 8.10082 20.515 8.14382 20.74 8.25682C20.9646 8.36269 21.155 8.52954 21.2894 8.73835C21.4237 8.94716 21.4967 9.18953 21.5 9.43782Z" stroke="#212121" stroke-width="1.5" stroke-linecap="round" stroke-linejoin="round"/>
<path d="M6 16H12" stroke="#212121" stroke-width="1.5" stroke-linecap="round"/>
</svg>
