<svg width="24" height="24" viewBox="0 0 24 24" fill="none" xmlns="http://www.w3.org/2000/svg">
<path d="M11.6999 20H3C2.44771 20 2 19.5523 2 19V5C2 4.44771 2.44771 4 3 4H21C21.5523 4 22 4.44771 22 5V12.7501" stroke="black" stroke-width="1.2" stroke-linecap="round" stroke-linejoin="round"/>
<path d="M16.38 6.2998H5.82C5.09096 6.2998 4.5 6.46769 4.5 6.6748V8.9248C4.5 9.13192 5.09096 9.2998 5.82 9.2998H16.38C17.109 9.2998 17.7 9.13192 17.7 8.9248V6.6748C17.7 6.46769 17.109 6.2998 16.38 6.2998Z" fill="black" stroke="black" stroke-width="0.6" stroke-linejoin="round"/>
<path d="M11.52 10.5H5.28C4.84921 10.5 4.5 10.6679 4.5 10.875V13.125C4.5 13.3321 4.84921 13.5 5.28 13.5H11.52C11.9508 13.5 12.3 13.3321 12.3 13.125V10.875C12.3 10.6679 11.9508 10.5 11.52 10.5Z" fill="black" stroke="black" stroke-width="0.6" stroke-linejoin="round"/>
<path d="M9.9 14.7002H5.1C4.76862 14.7002 4.5 14.8681 4.5 15.0752V17.3252C4.5 17.5323 4.76862 17.7002 5.1 17.7002H9.9C10.2314 17.7002 10.5 17.5323 10.5 17.3252V15.0752C10.5 14.8681 10.2314 14.7002 9.9 14.7002Z" fill="black" stroke="black" stroke-width="0.6" stroke-linejoin="round"/>
<g clip-path="url(#clip0_712_26997)">
<path d="M16.9502 13.2559C13.8755 13.2559 12.3096 16.3496 12.3096 16.3496C12.3096 16.3496 13.8755 19.4434 16.9502 19.4434C20.0252 19.4434 21.5908 16.3496 21.5908 16.3496C21.5908 16.3496 20.0252 13.2559 16.9502 13.2559ZM16.9502 18.9273C14.388 18.9273 13.083 16.3496 13.083 16.3496C13.083 16.3496 14.388 13.7713 16.9502 13.7713C19.5127 13.7713 20.8174 16.3496 20.8174 16.3496C20.8174 16.3496 19.5127 18.9273 16.9502 18.9273Z" fill="black"/>
<path d="M16.9344 18.5934C15.6976 18.5934 14.6914 17.5871 14.6914 16.3504C14.6914 15.1137 15.6976 14.1074 16.9344 14.1074C18.1711 14.1074 19.1773 15.1137 19.1773 16.3504C19.1773 17.5871 18.1713 18.5934 16.9344 18.5934ZM16.9344 14.5715C15.9535 14.5715 15.1555 15.3695 15.1555 16.3504C15.1555 17.3313 15.9535 18.1293 16.9344 18.1293C17.9152 18.1293 18.7133 17.3313 18.7133 16.3504C18.7133 15.3695 17.9152 14.5715 16.9344 14.5715Z" fill="black"/>
<path d="M18.0947 16.349C18.0947 16.9907 17.5751 17.5107 16.9352 17.5107C16.7827 17.5107 16.6317 17.4807 16.4908 17.4223C16.3499 17.3639 16.2219 17.2783 16.1141 17.1704C16.0063 17.0625 15.9208 16.9344 15.8625 16.7935C15.8043 16.6526 15.7743 16.5015 15.7744 16.349C15.7744 15.7085 16.2939 15.1904 16.9352 15.1904C17.5751 15.1904 18.0947 15.7086 18.0947 16.349Z" fill="black"/>
</g>
<defs>
<clipPath id="clip0_712_26997">
<rect width="9.9" height="9.9" fill="white" transform="translate(12 11.4004)"/>
</clipPath>
</defs>
</svg>
