<svg width="23" height="23" viewBox="0 0 23 23" fill="none" xmlns="http://www.w3.org/2000/svg">
<path d="M13.0754 11.491L19.6687 18.0842M11.6626 14.7876C11.6626 15.406 11.7844 16.0184 12.0211 16.5898C12.2578 17.1612 12.6047 17.6804 13.042 18.1177C13.4793 18.555 13.9984 18.9019 14.5698 19.1386C15.1412 19.3752 15.7536 19.497 16.3721 19.497C16.9905 19.497 17.6029 19.3752 18.1743 19.1386C18.7457 18.9019 19.2648 18.555 19.7021 18.1177C20.1395 17.6804 20.4864 17.1612 20.723 16.5898C20.9597 16.0184 21.0815 15.406 21.0815 14.7876C21.0815 14.1691 20.9597 13.5567 20.723 12.9854C20.4864 12.414 20.1395 11.8948 19.7021 11.4575C19.2648 11.0202 18.7457 10.6733 18.1743 10.4366C17.6029 10.1999 16.9905 10.0781 16.3721 10.0781C15.7536 10.0781 15.1412 10.1999 14.5698 10.4366C13.9984 10.6733 13.4793 11.0202 13.042 11.4575C12.6047 11.8948 12.2578 12.414 12.0211 12.9854C11.7844 13.5567 11.6626 14.1691 11.6626 14.7876Z" stroke="#D9342B" stroke-linecap="round" stroke-linejoin="round"/>
<path fill-rule="evenodd" clip-rule="evenodd" d="M1.10435 22.724C1.22109 22.7712 1.34601 22.7948 1.47191 22.7935L1.56348 22.8589L6.65231 22.401C6.87977 22.3762 7.092 22.2747 7.25408 22.1132L11.6454 17.706L10.287 16.273L6.0898 20.478L2.50537 20.805L2.78009 17.2206L17.0524 3.03991C17.2615 2.84821 17.5072 2.70073 17.7747 2.60631C18.0422 2.5119 18.326 2.4725 18.6091 2.49047C19.0399 2.48642 19.4627 2.6061 19.8274 2.83529C20.1922 3.06448 20.4834 3.39356 20.6667 3.78341C20.8499 4.17327 20.9173 4.60753 20.861 5.0346C20.8047 5.46166 20.627 5.86359 20.349 6.19263L17.5144 9.03241L18.0676 8.50803L19.4048 9.91863L21.7357 7.57931C22.4584 6.76072 22.8451 5.6993 22.8184 4.60767C22.7917 3.51603 22.3536 2.47478 21.5918 1.69248C20.7975 0.936173 19.7451 0.510544 18.6484 0.502034C17.5444 0.467573 16.4719 0.872137 15.6657 1.62707L1.19719 16.0956C1.02919 16.2584 0.926781 16.4771 0.909391 16.7104L0.503854 21.7338C0.491057 21.8778 0.510219 22.0228 0.559971 22.1585C0.609723 22.2942 0.688836 22.4172 0.791655 22.5188C0.881334 22.6071 0.987604 22.6769 1.10435 22.724Z" fill="#212121"/>
</svg>
