<svg width="26" height="28" viewBox="0 0 26 28" fill="none" xmlns="http://www.w3.org/2000/svg">
<rect x="1.25" y="3.25" width="19.5" height="19.5" rx="3.75" stroke="#212121" stroke-width="1.5"/>
<rect x="5.375" y="0.625" width="3.75" height="2.25" rx="0.525" stroke="#212121" stroke-width="0.75"/>
<rect x="12.875" y="0.625" width="3.75" height="2.25" rx="0.525" stroke="#212121" stroke-width="0.75"/>
<path d="M5 6.25H12.5" stroke="#212121" stroke-width="0.75" stroke-linecap="round"/>
<path d="M5 7.54785H12.5" stroke="#212121" stroke-width="0.75" stroke-linecap="round"/>
<path d="M5 9.79785H15.5" stroke="#212121" stroke-width="0.75" stroke-linecap="round"/>
<path d="M5 11.0957H15.5" stroke="#212121" stroke-width="0.75" stroke-linecap="round"/>
<path d="M5 13.3457H16.25" stroke="#212121" stroke-width="0.75" stroke-linecap="round"/>
<path d="M5 14.6436H16.25" stroke="#212121" stroke-width="0.75" stroke-linecap="round"/>
<path d="M5 16.75H16.25" stroke="#212121" stroke-width="0.75" stroke-linecap="round"/>
<path d="M5 18.0479H16.25" stroke="#212121" stroke-width="0.75" stroke-linecap="round"/>
<rect width="12" height="12" transform="translate(14 15.5)" fill="#DCDCDC"/>
<path d="M20 24.875C17.085 24.875 15.715 21.78 15.655 21.65C15.6352 21.6025 15.625 21.5515 15.625 21.5C15.625 21.4485 15.6352 21.3975 15.655 21.35C15.715 21.22 17.085 18.125 20 18.125C22.915 18.125 24.285 21.22 24.345 21.35C24.3648 21.3975 24.375 21.4485 24.375 21.5C24.375 21.5515 24.3648 21.6025 24.345 21.65C24.285 21.78 22.915 24.875 20 24.875ZM16.415 21.5C16.71 22.075 17.915 24.125 20 24.125C22.085 24.125 23.29 22.075 23.585 21.5C23.29 20.925 22.085 18.875 20 18.875C17.915 18.875 16.71 20.925 16.415 21.5Z" fill="#212121"/>
<path d="M20 23.125C19.6786 23.125 19.3644 23.0297 19.0972 22.8511C18.83 22.6726 18.6217 22.4188 18.4987 22.1219C18.3757 21.8249 18.3435 21.4982 18.4062 21.183C18.4689 20.8678 18.6237 20.5782 18.851 20.351C19.0782 20.1237 19.3678 19.9689 19.683 19.9062C19.9982 19.8435 20.3249 19.8757 20.6219 19.9987C20.9188 20.1217 21.1726 20.33 21.3511 20.5972C21.5297 20.8644 21.625 21.1786 21.625 21.5C21.6237 21.9306 21.4521 22.3431 21.1476 22.6476C20.8431 22.9521 20.4306 23.1237 20 23.125ZM20 20.625C19.8269 20.625 19.6578 20.6763 19.5139 20.7725C19.37 20.8686 19.2578 21.0053 19.1916 21.1652C19.1254 21.325 19.1081 21.501 19.1418 21.6707C19.1756 21.8404 19.2589 21.9963 19.3813 22.1187C19.5037 22.2411 19.6596 22.3244 19.8293 22.3582C19.999 22.3919 20.175 22.3746 20.3348 22.3084C20.4947 22.2422 20.6314 22.13 20.7275 21.9861C20.8237 21.8422 20.875 21.6731 20.875 21.5C20.8737 21.2683 20.7811 21.0465 20.6173 20.8827C20.4535 20.7189 20.2317 20.6263 20 20.625Z" fill="#212121"/>
</svg>
