<svg width="41" height="40" viewBox="0 0 41 40" fill="none" xmlns="http://www.w3.org/2000/svg">
<g opacity="0.6">
<path d="M23.319 16.2474H18.319C17.5468 16.243 16.8075 15.9343 16.2615 15.3883C15.7154 14.8423 15.4067 14.1029 15.4023 13.3307V8.33073C15.4067 7.55853 15.7154 6.8192 16.2615 6.27317C16.8075 5.72713 17.5468 5.41844 18.319 5.41406H23.319C24.0912 5.41844 24.8305 5.72713 25.3766 6.27317C25.9226 6.8192 26.2313 7.55853 26.2357 8.33073V13.3307C26.2313 14.1029 25.9226 14.8423 25.3766 15.3883C24.8305 15.9343 24.0912 16.243 23.319 16.2474V16.2474ZM18.319 7.91406C18.2085 7.91406 18.1025 7.95796 18.0244 8.0361C17.9462 8.11424 17.9023 8.22022 17.9023 8.33073V13.3307C17.9023 13.4412 17.9462 13.5472 18.0244 13.6254C18.1025 13.7035 18.2085 13.7474 18.319 13.7474H23.319C23.4295 13.7474 23.5355 13.7035 23.6136 13.6254C23.6918 13.5472 23.7357 13.4412 23.7357 13.3307V8.33073C23.7357 8.22022 23.6918 8.11424 23.6136 8.0361C23.5355 7.95796 23.4295 7.91406 23.319 7.91406H18.319Z" fill="#212121"/>
<path d="M10.8203 32.9089H7.48698C6.71478 32.9045 5.97545 32.5958 5.42942 32.0497C4.88338 31.5037 4.57469 30.7644 4.57031 29.9922V26.6589C4.57469 25.8867 4.88338 25.1473 5.42942 24.6013C5.97545 24.0553 6.71478 23.7466 7.48698 23.7422H10.8203C11.5925 23.7466 12.3318 24.0553 12.8779 24.6013C13.4239 25.1473 13.7326 25.8867 13.737 26.6589V29.9922C13.7326 30.7644 13.4239 31.5037 12.8779 32.0497C12.3318 32.5958 11.5925 32.9045 10.8203 32.9089V32.9089ZM7.48698 26.2422C7.37647 26.2422 7.27049 26.2861 7.19235 26.3642C7.11421 26.4424 7.07031 26.5483 7.07031 26.6589V29.9922C7.07031 30.1027 7.11421 30.2087 7.19235 30.2868C7.27049 30.365 7.37647 30.4089 7.48698 30.4089H10.8203C10.9308 30.4089 11.0368 30.365 11.1149 30.2868C11.1931 30.2087 11.237 30.1027 11.237 29.9922V26.6589C11.237 26.5483 11.1931 26.4424 11.1149 26.3642C11.0368 26.2861 10.9308 26.2422 10.8203 26.2422H7.48698Z" fill="#212121"/>
<path d="M22.4844 32.9089H19.151C18.3788 32.9045 17.6395 32.5958 17.0935 32.0497C16.5474 31.5037 16.2388 30.7644 16.2344 29.9922V26.6589C16.2388 25.8867 16.5474 25.1473 17.0935 24.6013C17.6395 24.0553 18.3788 23.7466 19.151 23.7422H22.4844C23.2566 23.7466 23.9959 24.0553 24.5419 24.6013C25.088 25.1473 25.3967 25.8867 25.401 26.6589V29.9922C25.3967 30.7644 25.088 31.5037 24.5419 32.0497C23.9959 32.5958 23.2566 32.9045 22.4844 32.9089V32.9089ZM19.151 26.2422C19.0405 26.2422 18.9346 26.2861 18.8564 26.3642C18.7783 26.4424 18.7344 26.5483 18.7344 26.6589V29.9922C18.7344 30.1027 18.7783 30.2087 18.8564 30.2868C18.9346 30.365 19.0405 30.4089 19.151 30.4089H22.4844C22.5949 30.4089 22.7009 30.365 22.779 30.2868C22.8571 30.2087 22.901 30.1027 22.901 29.9922V26.6589C22.901 26.5483 22.8571 26.4424 22.779 26.3642C22.7009 26.2861 22.5949 26.2422 22.4844 26.2422H19.151Z" fill="#212121"/>
<path d="M34.1563 32.9089H30.8229C30.0507 32.9045 29.3114 32.5958 28.7654 32.0497C28.2193 31.5037 27.9106 30.7644 27.9062 29.9922V26.6589C27.9106 25.8867 28.2193 25.1473 28.7654 24.6013C29.3114 24.0553 30.0507 23.7466 30.8229 23.7422H34.1563C34.9284 23.7466 35.6678 24.0553 36.2138 24.6013C36.7598 25.1473 37.0685 25.8867 37.0729 26.6589V29.9922C37.0685 30.7644 36.7598 31.5037 36.2138 32.0497C35.6678 32.5958 34.9284 32.9045 34.1563 32.9089ZM30.8229 26.2422C30.7124 26.2422 30.6064 26.2861 30.5283 26.3642C30.4501 26.4424 30.4063 26.5483 30.4063 26.6589V29.9922C30.4063 30.1027 30.4501 30.2087 30.5283 30.2868C30.6064 30.365 30.7124 30.4089 30.8229 30.4089H34.1563C34.2668 30.4089 34.3727 30.365 34.4509 30.2868C34.529 30.2087 34.5729 30.1027 34.5729 29.9922V26.6589C34.5729 26.5483 34.529 26.4424 34.4509 26.3642C34.3727 26.2861 34.2668 26.2422 34.1563 26.2422H30.8229Z" fill="#212121"/>
<path d="M32.4896 26.25C32.1594 26.2457 31.844 26.1126 31.6105 25.8791C31.377 25.6456 31.2439 25.3302 31.2396 25V21.6667C31.2396 21.5562 31.1957 21.4502 31.1175 21.372C31.0394 21.2939 30.9334 21.25 30.8229 21.25H10.8229C10.7124 21.25 10.6064 21.2939 10.5283 21.372C10.4501 21.4502 10.4062 21.5562 10.4062 21.6667V25C10.4062 25.3315 10.2746 25.6495 10.0401 25.8839C9.80571 26.1183 9.48777 26.25 9.15625 26.25C8.82473 26.25 8.50679 26.1183 8.27237 25.8839C8.03795 25.6495 7.90625 25.3315 7.90625 25V21.6667C7.91063 20.8945 8.21932 20.1551 8.76536 19.6091C9.31139 19.0631 10.0507 18.7544 10.8229 18.75H30.8229C31.5951 18.7544 32.3344 19.0631 32.8805 19.6091C33.4265 20.1551 33.7352 20.8945 33.7396 21.6667V25C33.7353 25.3302 33.6022 25.6456 33.3687 25.8791C33.1352 26.1126 32.8198 26.2457 32.4896 26.25V26.25Z" fill="#212121"/>
<path d="M20.8203 26.25C20.4901 26.2457 20.1747 26.1126 19.9412 25.8791C19.7077 25.6456 19.5746 25.3302 19.5703 25V15C19.5703 14.6685 19.702 14.3505 19.9364 14.1161C20.1709 13.8817 20.4888 13.75 20.8203 13.75C21.1518 13.75 21.4698 13.8817 21.7042 14.1161C21.9386 14.3505 22.0703 14.6685 22.0703 15V25C22.066 25.3302 21.9329 25.6456 21.6994 25.8791C21.4659 26.1126 21.1505 26.2457 20.8203 26.25V26.25Z" fill="#212121"/>
</g>
</svg>
