<svg width="25" height="24" viewBox="0 0 25 24" fill="none" xmlns="http://www.w3.org/2000/svg">
<g clip-path="url(#clip0_18_160068)">
<path d="M24.0016 11.745C23.1194 9.46324 21.588 7.48996 19.5967 6.06906C17.6053 4.64817 15.2412 3.84193 12.7966 3.75C10.3519 3.84193 7.98785 4.64817 5.99646 6.06906C4.00507 7.48996 2.47368 9.46324 1.59156 11.745C1.53198 11.9098 1.53198 12.0902 1.59156 12.255C2.47368 14.5368 4.00507 16.51 5.99646 17.9309C7.98785 19.3518 10.3519 20.1581 12.7966 20.25C15.2412 20.1581 17.6053 19.3518 19.5967 17.9309C21.588 16.51 23.1194 14.5368 24.0016 12.255C24.0611 12.0902 24.0611 11.9098 24.0016 11.745ZM12.7966 18.75C8.82156 18.75 4.62156 15.8025 3.09906 12C4.62156 8.1975 8.82156 5.25 12.7966 5.25C16.7716 5.25 20.9716 8.1975 22.4941 12C20.9716 15.8025 16.7716 18.75 12.7966 18.75Z" fill="#616161"/>
<path d="M12.7969 7.5C11.9069 7.5 11.0368 7.76392 10.2968 8.25839C9.55679 8.75285 8.98001 9.45566 8.63942 10.2779C8.29882 11.1002 8.20971 12.005 8.38334 12.8779C8.55698 13.7508 8.98556 14.5526 9.6149 15.182C10.2442 15.8113 11.0461 16.2399 11.919 16.4135C12.7919 16.5872 13.6967 16.4981 14.519 16.1575C15.3412 15.8169 16.044 15.2401 16.5385 14.5001C17.033 13.76 17.2969 12.89 17.2969 12C17.2969 10.8065 16.8228 9.66193 15.9789 8.81802C15.1349 7.97411 13.9904 7.5 12.7969 7.5ZM12.7969 15C12.2035 15 11.6235 14.8241 11.1302 14.4944C10.6368 14.1648 10.2523 13.6962 10.0252 13.1481C9.79818 12.5999 9.73877 11.9967 9.85452 11.4147C9.97028 10.8328 10.256 10.2982 10.6756 9.87868C11.0951 9.45912 11.6297 9.1734 12.2116 9.05764C12.7935 8.94189 13.3967 9.0013 13.9449 9.22836C14.4931 9.45542 14.9616 9.83994 15.2913 10.3333C15.6209 10.8266 15.7969 11.4067 15.7969 12C15.7969 12.7957 15.4808 13.5587 14.9182 14.1213C14.3556 14.6839 13.5925 15 12.7969 15Z" fill="#616161"/>
</g>
<defs>
<clipPath id="clip0_18_160068">
<rect width="24" height="24" fill="white" transform="translate(0.796875)"/>
</clipPath>
</defs>
</svg>
