<svg width="16" height="16" viewBox="0 0 16 16" fill="none" xmlns="http://www.w3.org/2000/svg">
<path d="M10.9068 9.33398C10.9602 8.89398 11.0002 8.45398 11.0002 8.00065C11.0002 7.54732 10.9602 7.10732 10.9068 6.66732H13.1602C13.2668 7.09398 13.3335 7.54065 13.3335 8.00065C13.3335 8.46065 13.2668 8.90732 13.1602 9.33398M9.72683 13.0407C10.1268 12.3006 10.4335 11.5007 10.6468 10.6673H12.6135C11.9676 11.7795 10.9429 12.622 9.72683 13.0407ZM9.56016 9.33398H6.44016C6.3735 8.89398 6.3335 8.45398 6.3335 8.00065C6.3335 7.54732 6.3735 7.10065 6.44016 6.66732H9.56016C9.62016 7.10065 9.66683 7.54732 9.66683 8.00065C9.66683 8.45398 9.62016 8.89398 9.56016 9.33398ZM8.00016 13.3073C7.44683 12.5073 7.00016 11.6207 6.72683 10.6673H9.2735C9.00016 11.6207 8.5535 12.5073 8.00016 13.3073ZM5.3335 5.33398H3.38683C4.02607 4.21879 5.05003 3.37498 6.26683 2.96065C5.86683 3.70065 5.56683 4.50065 5.3335 5.33398ZM3.38683 10.6673H5.3335C5.56683 11.5007 5.86683 12.3006 6.26683 13.0407C5.05258 12.6218 4.03006 11.7791 3.38683 10.6673ZM2.84016 9.33398C2.7335 8.90732 2.66683 8.46065 2.66683 8.00065C2.66683 7.54065 2.7335 7.09398 2.84016 6.66732H5.0935C5.04016 7.10732 5.00016 7.54732 5.00016 8.00065C5.00016 8.45398 5.04016 8.89398 5.0935 9.33398M8.00016 2.68732C8.5535 3.48732 9.00016 4.38065 9.2735 5.33398H6.72683C7.00016 4.38065 7.44683 3.48732 8.00016 2.68732ZM12.6135 5.33398H10.6468C10.4382 4.50829 10.1292 3.71125 9.72683 2.96065C10.9535 3.38065 11.9735 4.22732 12.6135 5.33398ZM8.00016 1.33398C4.3135 1.33398 1.3335 4.33398 1.3335 8.00065C1.3335 9.76876 2.03587 11.4645 3.28612 12.7147C3.90517 13.3338 4.6401 13.8248 5.44894 14.1598C6.25778 14.4949 7.12468 14.6673 8.00016 14.6673C9.76827 14.6673 11.464 13.9649 12.7142 12.7147C13.9644 11.4645 14.6668 9.76876 14.6668 8.00065C14.6668 7.12517 14.4944 6.25827 14.1594 5.44943C13.8243 4.64059 13.3333 3.90566 12.7142 3.28661C12.0951 2.66755 11.3602 2.17649 10.5514 1.84145C9.74255 1.50642 8.87564 1.33398 8.00016 1.33398Z" fill="#605E5C"/>
<g clip-path="url(#clip0_5498_194629)">
<rect x="4" y="8" width="8" height="8" rx="4" fill="white"/>
<path d="M7.08324 15.3327L6.9499 14.266C6.87768 14.2382 6.80968 14.2049 6.7459 14.166C6.6819 14.1271 6.61935 14.0855 6.55824 14.041L5.56657 14.4577L4.6499 12.8743L5.50824 12.2243C5.50268 12.1855 5.4999 12.1479 5.4999 12.1117V11.8867C5.4999 11.8507 5.50268 11.8132 5.50824 11.7743L4.6499 11.1243L5.56657 9.54102L6.55824 9.95768C6.61935 9.91324 6.68324 9.87157 6.7499 9.83268C6.81657 9.79379 6.88324 9.76046 6.9499 9.73268L7.08324 8.66602H8.91657L9.0499 9.73268C9.12212 9.76046 9.19024 9.79379 9.25424 9.83268C9.31801 9.87157 9.38046 9.91324 9.44157 9.95768L10.4332 9.54102L11.3499 11.1243L10.4916 11.7743C10.4971 11.8132 10.4999 11.8507 10.4999 11.8867V12.1117C10.4999 12.1479 10.4943 12.1855 10.4832 12.2243L11.3416 12.8743L10.4249 14.4577L9.44157 14.041C9.38046 14.0855 9.31657 14.1271 9.2499 14.166C9.18324 14.2049 9.11657 14.2382 9.0499 14.266L8.91657 15.3327H7.08324ZM8.01657 13.166C8.33879 13.166 8.61379 13.0521 8.84157 12.8243C9.06935 12.5966 9.18324 12.3216 9.18324 11.9993C9.18324 11.6771 9.06935 11.4021 8.84157 11.1743C8.61379 10.9466 8.33879 10.8327 8.01657 10.8327C7.68879 10.8327 7.41235 10.9466 7.18724 11.1743C6.96235 11.4021 6.8499 11.6771 6.8499 11.9993C6.8499 12.3216 6.96235 12.5966 7.18724 12.8243C7.41235 13.0521 7.68879 13.166 8.01657 13.166Z" fill="#605E5C"/>
</g>
<defs>
<clipPath id="clip0_5498_194629">
<rect x="4" y="8" width="8" height="8" rx="4" fill="white"/>
</clipPath>
</defs>
</svg>
