<svg width="214" height="280" viewBox="0 0 214 280" fill="none" xmlns="http://www.w3.org/2000/svg">
<g clip-path="url(#clip0_66_158)">
<path d="M61.9521 266.065L66.5625 267.44L74.0525 250.287L67.2481 248.258L61.9521 266.065Z" fill="#FFB8B8"/>
<path d="M67.6723 264.899L67.6677 264.897L62.6529 263.72L62.6484 263.719L61.4869 263.448L57.495 273.668L57.2803 274.215L60.5559 275.195L60.8253 274.667L62.059 272.27L62.5299 275.177L62.6308 275.81L71.3117 278.403C71.8277 278.557 72.3614 278.494 72.8105 278.26C73.2915 278.021 73.6761 277.587 73.8393 277.028C74.7144 275.424 68.6001 269.564 67.9726 268.311L68.9051 265.183L67.6723 264.899Z" fill="#323130"/>
<path d="M91.4845 210.043L90.9478 211.43L89.386 215.454L72.6331 258.313L60.8559 255.414C63.0725 239.22 64.6384 229.193 70.2345 220.576C71.7843 218.189 73.6482 215.907 75.9183 213.632C75.9183 213.632 66.9767 213.605 56.4754 213.39C55.5537 213.371 54.6169 213.352 53.6723 213.325C44.9786 213.121 35.6857 212.786 29.7163 212.23C26.084 211.893 23.5763 210.155 21.9325 207.711C17.2279 200.751 19.4684 188.049 22.3762 185.63L42.0328 177.803L49.9598 192.074L50.7892 193.564L80.3138 195.637C84.6215 195.939 88.2817 198.905 89.4766 203.06L91.4845 210.043H91.4845Z" fill="#323130"/>
<path d="M13.1398 0L11.6982 236.264L214 201.137V0H13.1398ZM46.4565 200.175H14.1009V167.775H46.4565V200.175ZM46.4565 166.812H14.1009V134.412H46.4565V166.812ZM46.4565 133.45H14.1009V101.05H46.4565V133.45ZM46.4565 100.087H14.1009V67.6871H46.4565V100.087ZM46.4565 66.7248H14.1009V34.3249H46.4565V66.7248ZM46.4565 33.3625H14.1009V33.3625C14.1009 15.4684 28.587 0.962378 46.4565 0.962378H46.4565V33.3625V33.3625ZM79.7729 200.175H47.4176V167.775H79.7729V200.175ZM79.7729 166.812H47.4176V134.412H79.7729V166.812ZM79.7729 133.45H47.4176V101.05H79.7729V133.45ZM79.7729 100.087H47.4176V67.6871H79.7729V100.087ZM79.7729 66.7248H47.4176V66.7247C47.4176 48.8308 61.9035 34.3249 79.7729 34.3249H79.7729V66.7248ZM79.7729 33.3625H47.4176V0.962378H79.7729V33.3625V33.3625ZM113.09 200.175H80.734V167.775H113.09V200.175ZM113.09 166.812H80.734V134.412H113.09V166.812ZM113.09 133.45H80.734V101.05H113.09V133.45ZM113.09 100.087H80.734V67.6871H113.09V100.087ZM113.09 66.7248H80.734V34.3249H113.09V66.7248V66.7248ZM113.09 33.3625H80.734V0.962378H113.09V33.3625V33.3625ZM146.406 200.175H114.051V167.775H146.406V200.175ZM146.406 166.812H114.051V134.412H146.406V166.812ZM146.406 133.45H114.051V101.05H146.406V133.45ZM146.406 100.087H114.051V67.6871H146.406V100.087ZM146.406 66.7248H114.051V34.3249H146.406V66.7248V66.7248ZM146.406 33.3625H114.051V0.962378H146.406V33.3625V33.3625ZM179.723 200.175H179.723C161.853 200.175 147.367 185.669 147.367 167.775V167.775H179.723V200.175ZM179.723 166.812H147.367V134.412H179.723V166.812ZM179.723 133.45H147.367V101.05H179.723V133.45ZM179.723 100.087H147.367V67.6871H179.723V100.087ZM179.723 66.7248H147.367V34.3249H179.723V66.7248V66.7248ZM179.723 33.3625H147.367V0.962378H179.723V33.3625V33.3625ZM180.684 200.175H180.684V167.775H213.039V167.775C213.039 185.669 198.553 200.175 180.684 200.175ZM213.039 166.812H180.684V134.412H213.039V166.812ZM213.039 133.45H180.684V101.05H213.039V133.45ZM213.039 100.087H180.684V67.6871H213.039V100.087ZM213.039 66.7247H180.684V66.7247C180.684 48.8308 195.17 34.3249 213.039 34.3249H213.039V66.7247ZM213.039 33.3625H180.684V0.962378H213.039V33.3625V33.3625Z" fill="#C4C4C4"/>
<path d="M69.0746 101.415L65.1254 112.426L58.5293 111.044L63.1182 99.5518C62.9911 99.1959 62.9128 98.8158 62.894 98.4186C62.7913 96.2583 64.457 94.4237 66.6144 94.3209C68.7717 94.2181 70.6038 95.8861 70.7064 98.0464C70.7718 99.4241 70.1163 100.667 69.0745 101.415H69.0746Z" fill="#FFB8B8"/>
<path d="M69.7302 104.402L60.7887 128.48L59.4965 131.954C58.3297 135.097 55.118 136.978 51.8078 136.462L31.0416 133.213L29.5068 123.68L51.9077 125.655L55.6534 115.816L60.6233 102.756L61.7573 102.959L68.1085 104.107L69.7302 104.402V104.402Z" fill="#5F338F"/>
<path d="M30.8701 264.812L34.7363 267.678L47.6167 254.109L41.9105 249.879L30.8701 264.812Z" fill="#FFB8B8"/>
<path d="M35.7646 268.98L37.7052 266.356L36.6429 265.665L32.3241 262.842L31.323 262.191L24.0917 270.439L23.7041 270.881L26.4492 272.916L26.8835 272.514L28.8549 270.682L28.3116 273.572L28.1911 274.208L35.4689 279.604C35.9035 279.926 36.4248 280.049 36.9237 279.983C37.4609 279.92 37.9692 279.644 38.3152 279.176C39.6846 277.967 35.9285 270.374 35.7646 268.98H35.7646Z" fill="#323130"/>
<path d="M114.051 167.454C77.4862 167.454 47.7383 137.665 47.7383 101.05C47.7383 64.4341 77.4862 34.6455 114.051 34.6455C150.616 34.6455 180.364 64.4343 180.364 101.05C180.364 137.665 150.616 167.454 114.051 167.454ZM114.051 35.6079C78.016 35.6079 65.9983 63.5213 65.9983 99.606C65.9983 135.691 78.016 166.491 114.051 166.491C150.086 166.491 179.403 137.134 179.403 101.05C179.403 64.9651 150.086 35.6079 114.051 35.6079Z" fill="#323130"/>
<path d="M81.6732 102.621L111.061 132.049C111.146 132.162 111.237 132.271 111.339 132.374C111.955 132.991 112.764 133.295 113.571 133.289C114.378 133.295 115.186 132.991 115.802 132.374C115.905 132.271 115.995 132.162 116.081 132.049L145.468 102.621C146.688 101.4 146.688 99.4195 145.468 98.1981C144.248 96.9766 142.271 96.9766 141.051 98.1981L116.694 122.588V70.8281C116.694 69.1007 115.296 67.7003 113.571 67.7003C111.846 67.7003 110.447 69.1007 110.447 70.8281V122.588L86.0904 98.1981C84.8706 96.9766 82.8929 96.9766 81.6732 98.1981C80.4534 99.4195 80.4534 101.4 81.6732 102.621Z" fill="#5F338F"/>
<path d="M37.6466 164.566L42.3838 180.037L20.8281 182.37L28.5166 162.642L37.6466 164.566Z" fill="#FFB8B8"/>
<path d="M78.0108 224.235L77.0353 225.356L74.2002 228.609L43.8934 263.211L33.8023 256.474C41.385 242 46.2623 233.103 54.4505 226.905C56.7186 225.187 59.2462 223.676 62.1534 222.31C62.1534 222.31 53.7538 219.24 43.951 215.463C43.0909 215.131 42.2163 214.794 41.3369 214.447C33.2304 211.295 24.605 207.816 19.1798 205.261C15.8786 203.707 14.1102 201.219 13.3943 198.361C11.3328 190.215 17.7526 179.032 21.3085 177.747L42.4518 177.078L45.061 193.198L45.3349 194.882C45.3349 194.882 53.081 198.631 61.2116 202.379C62.4321 202.937 63.6575 203.5 64.8684 204.049C66.7905 204.915 68.6646 205.752 70.4041 206.508C70.4438 206.525 70.4836 206.542 70.5235 206.559C75.5645 208.74 78.7024 213.847 78.3371 219.333L78.0108 224.235Z" fill="#323130"/>
<path d="M42.923 152.594C42.4088 156.27 42.2887 159.744 42.9326 161.679C43.1038 162.193 45.6677 165.953 45.8158 166.491C47.1392 171.295 41.491 172.265 41.491 172.265L19.8226 179.469C18.5748 179.883 17.5245 178.436 18.3217 177.389C20.099 175.055 21.7225 171.683 21.6068 167.217C21.4265 160.258 18.3508 149.189 16.6507 143.561C15.9511 141.245 16.1198 138.757 17.1216 136.555L19.5405 131.239L23.058 123.516L24.192 117.891L34.2831 118.372L35.5277 122.948L44.9172 137.302C45.2968 137.884 45.5467 138.534 45.6572 139.202C45.8062 140.04 45.7341 140.916 45.441 141.738C44.4655 144.476 43.4708 148.648 42.923 152.594H42.923Z" fill="#5F338F"/>
<path d="M101.79 134.9L90.2899 136.963L88.1963 130.549L100.433 128.8C100.677 128.513 100.967 128.255 101.302 128.041C103.12 126.874 105.539 127.405 106.704 129.226C107.869 131.048 107.339 133.47 105.52 134.636C104.36 135.38 102.957 135.431 101.79 134.9Z" fill="#FFB8B8"/>
<path d="M24.7617 134.821L26.2198 136.389C29.7556 140.193 34.6016 142.511 39.7785 142.875L59.1162 144.233L95.0333 137.471L92.8463 128.873L58.8926 134.733L24.7617 134.821H24.7617Z" fill="#5F338F"/>
<path d="M0.00459678 110.095C-0.0994856 114.58 1.57423 118.923 3.97866 122.737C4.69306 120.51 5.97739 118.484 7.3168 116.552C6.61755 120.69 7.38317 125.047 9.36304 128.745C9.43721 128.797 9.50694 128.844 9.58208 128.886C11.542 130.066 14.0267 130.544 16.1468 129.692C11.7663 124.963 11.2088 117.129 14.8814 111.825C15.9212 110.32 17.266 108.989 17.91 107.277C18.9268 104.544 17.9494 101.535 17.3327 98.6861C16.7562 96.0345 16.6552 92.879 18.4317 90.9357C18.0669 90.4135 17.3741 90.0525 16.7207 90.1468C15.6254 90.3018 14.8281 91.2551 14.3203 92.237C13.8126 93.2189 13.4777 94.3072 12.77 95.1552C11.4595 96.7426 9.22773 97.1179 7.34697 97.9545C2.79218 99.9861 0.113782 105.105 0.00459678 110.095Z" fill="#323130"/>
<path d="M38.3443 107.531C38.084 106.618 39.878 112.195 39.0123 112.295C35.0694 112.748 29.6569 115.106 26.9107 116.206C26.787 116.192 26.6633 116.178 26.5433 116.16C26.2487 116.127 25.9613 116.081 25.6776 116.027C19.2832 114.815 16.8242 104.979 16.8242 104.889C16.8242 104.447 17.884 92.3021 19.5535 92.1224C19.9864 92.0756 20.4265 92.0505 20.8739 92.0505H25.0168C25.8971 91.8635 26.77 91.7341 27.6175 91.673H27.6248C35.9652 91.0367 42.5415 96.1272 41.9268 102.321C41.9232 102.329 41.9159 102.336 41.9123 102.343C41.734 102.609 41.5776 102.861 41.4394 103.102C41.3048 103.328 41.192 103.544 41.0939 103.749C40.3336 105.33 42.2877 107.321 40.992 107.692C39.2687 108.187 45.5244 124.427 38.7033 124.427C42.0212 125.372 39.0623 110.047 38.3443 107.531L38.3443 107.531Z" fill="#323130"/>
<path d="M30.8987 117.061C36.316 117.061 40.7076 112.663 40.7076 107.238C40.7076 101.814 36.316 97.416 30.8987 97.416C25.4814 97.416 21.0898 101.814 21.0898 107.238C21.0898 112.663 25.4814 117.061 30.8987 117.061Z" fill="#FFB8B8"/>
<path d="M41.9267 102.858C41.763 102.944 41.603 103.023 41.4393 103.102C41.2684 103.185 41.0974 103.267 40.9265 103.343C37.6419 104.835 34.9685 105 33.3462 102.858C33.3026 101.736 33.0516 100.621 32.6006 99.5861C32.6843 100.733 32.3714 101.901 31.7349 102.858H28.4686C25.104 105.094 23.3763 105.327 25.7115 112.668C26.3626 114.714 28.9514 126.617 27.9329 128.382C27.6383 128.35 24.5039 115.312 24.2202 115.258C17.8257 114.047 13.7628 103.498 14.283 102.901C14.283 101.146 14.6904 99.4891 15.4215 98.0079C16.3672 96.0846 17.8548 94.4668 19.6917 93.356C20.7756 92.8275 21.9177 92.3997 23.1035 92.0725C23.1326 92.0653 23.1581 92.0582 23.1872 92.051C23.5473 91.9539 23.9146 91.864 24.282 91.7885C25.0349 91.6303 25.7988 91.5117 26.5808 91.4398C26.6354 91.4362 26.6899 91.4326 26.7408 91.4326C27.0609 91.4326 27.3592 91.5225 27.6174 91.6735C27.6211 91.6735 27.6211 91.6771 27.6247 91.6771C27.8139 91.7885 27.9812 91.9359 28.1121 92.1121C28.3376 92.3997 28.4686 92.7592 28.4686 93.151H32.1059C32.2405 93.151 32.3751 93.1546 32.5097 93.1618C37.5765 93.3631 41.6503 97.3536 41.9122 102.344C41.9231 102.516 41.9267 102.685 41.9267 102.858L41.9267 102.858Z" fill="#323130"/>
<path d="M26.9429 93.2464C26.9429 96.8203 24.0497 99.7175 20.4807 99.7175C16.9118 99.7175 14.0186 96.8203 14.0186 93.2464C14.0186 89.6726 16.9118 86.7754 20.4807 86.7754C24.0497 86.7754 26.9429 89.6726 26.9429 93.2464Z" fill="#323130"/>
</g>
<defs>
<clipPath id="clip0_66_158">
<rect width="214" height="280" fill="white"/>
</clipPath>
</defs>
</svg>
