<svg width="268" height="280" viewBox="0 0 268 280" fill="none" xmlns="http://www.w3.org/2000/svg">
<path d="M84.8737 280C131.748 280 169.747 277.392 169.747 274.175C169.747 270.958 131.748 268.351 84.8737 268.351C37.9993 268.351 0 270.958 0 274.175C0 277.392 37.9993 280 84.8737 280Z" fill="white"/>
<path d="M118.71 163.754C119.543 159.076 123.855 156.327 128.155 155.226C133.062 153.971 138.293 154.125 143.287 154.692C153.344 155.832 163.218 158.915 173.424 158.437C182.297 157.99 190.898 155.222 198.367 150.41C205.88 145.581 211.934 138.795 215.878 130.781C219.85 122.717 221.611 113.743 220.983 104.775C220.899 103.66 220.772 102.55 220.616 101.443C220.504 100.651 219.301 100.988 219.412 101.775C220.627 110.691 219.372 119.769 215.784 128.021C212.261 136.189 206.537 143.216 199.251 148.319C191.987 153.392 183.498 156.429 174.664 157.114C164.589 157.85 154.799 154.954 144.898 153.642C139.897 152.98 134.797 152.733 129.804 153.601C125.382 154.371 120.845 156.349 118.574 160.446C118.057 161.372 117.697 162.378 117.507 163.422C117.367 164.207 118.57 164.544 118.71 163.754H118.71Z" fill="#323130"/>
<path d="M215.929 104.012C244.651 104.012 267.935 80.728 267.935 52.0059C267.935 23.2839 244.651 0 215.929 0C187.207 0 163.923 23.2839 163.923 52.0059C163.923 80.728 187.207 104.012 215.929 104.012Z" fill="#5F338F"/>
<path d="M196.375 54.9181C203.727 54.9181 209.688 48.9574 209.688 41.6045C209.688 34.2517 203.727 28.291 196.375 28.291C189.022 28.291 183.061 34.2517 183.061 41.6045C183.061 48.9574 189.022 54.9181 196.375 54.9181Z" fill="white"/>
<path d="M200.546 68.2314C200.655 70.2523 201.534 72.1546 203.002 73.5475C204.47 74.9403 206.416 75.7179 208.44 75.7203H230.074C232.098 75.7179 234.044 74.9403 235.512 73.5475C236.98 72.1546 237.859 70.2523 237.968 68.2314H200.546Z" fill="white"/>
<path d="M191.382 53.0461C195.288 53.0461 198.455 49.8795 198.455 45.9733C198.455 42.0671 195.288 38.9005 191.382 38.9005C187.476 38.9005 184.309 42.0671 184.309 45.9733C184.309 49.8795 187.476 53.0461 191.382 53.0461Z" fill="#323130"/>
<path d="M193.878 44.7249C194.797 44.7249 195.542 43.9798 195.542 43.0607C195.542 42.1416 194.797 41.3965 193.878 41.3965C192.959 41.3965 192.214 42.1416 192.214 43.0607C192.214 43.9798 192.959 44.7249 193.878 44.7249Z" fill="white"/>
<path d="M239.644 55.1261C246.996 55.1261 252.957 49.1654 252.957 41.8125C252.957 34.4597 246.996 28.499 239.644 28.499C232.291 28.499 226.33 34.4597 226.33 41.8125C226.33 49.1654 232.291 55.1261 239.644 55.1261Z" fill="white"/>
<path d="M234.651 53.046C238.557 53.046 241.724 49.8794 241.724 45.9732C241.724 42.067 238.557 38.9004 234.651 38.9004C230.745 38.9004 227.578 42.067 227.578 45.9732C227.578 49.8794 230.745 53.046 234.651 53.046Z" fill="#323130"/>
<path d="M237.147 44.7249C238.066 44.7249 238.811 43.9798 238.811 43.0607C238.811 42.1416 238.066 41.3965 237.147 41.3965C236.228 41.3965 235.483 42.1416 235.483 43.0607C235.483 43.9798 236.228 44.7249 237.147 44.7249Z" fill="white"/>
<path d="M216.761 61.575C219.518 61.575 221.754 59.3397 221.754 56.5824C221.754 53.8251 219.518 51.5898 216.761 51.5898C214.004 51.5898 211.769 53.8251 211.769 56.5824C211.769 59.3397 214.004 61.575 216.761 61.575Z" fill="#323130"/>
<path d="M224.25 101.1H215.097V108.172H224.25V101.1Z" fill="#5F338F"/>
<path d="M92.8877 240.109C92.8877 240.109 98.7608 257.308 96.2437 263.601L103.795 270.313L108.409 264.44C108.409 264.44 103.375 259.406 103.795 255.63C104.214 251.855 104.634 238.431 104.634 238.431L92.8877 240.109Z" fill="#FFB8B8"/>
<path d="M120.992 273.668C120.649 273.868 120.322 274.058 120.021 274.232H93.9831C93.7418 274.094 93.548 273.886 93.4274 273.635C93.3068 273.385 93.2651 273.104 93.3078 272.829C93.4291 272.206 93.7404 270.94 94.1256 269.484C95.0383 266.038 96.3785 261.527 96.6687 262.007C96.6694 262.007 96.6701 262.007 96.6707 262.008C96.6714 262.008 96.672 262.008 96.6725 262.009C96.6729 262.009 96.6733 262.01 96.6736 262.011C96.6738 262.011 96.674 262.012 96.6739 262.013C97.0802 262.762 97.9192 266.117 100.019 265.701C102.119 265.278 105.475 264.44 105.475 264.44C105.475 264.44 104.277 261.749 105.422 260.662C105.668 260.433 105.98 260.287 106.314 260.245C108.83 259.828 108.83 263.601 108.83 263.601L118.058 268.634C118.854 268.854 119.63 269.138 120.38 269.484C122.253 270.359 124.105 271.858 120.992 273.668Z" fill="#323130"/>
<path d="M76.1074 233.816L65.2002 246.821L62.2637 253.533L66.0392 256.47L69.3953 255.211C69.3953 255.211 72.3318 247.66 75.2683 246.402C78.2049 245.143 85.3365 236.753 85.3365 236.753L76.1074 233.816Z" fill="#FFB8B8"/>
<path d="M98.9701 223.836L93.4075 234.148L89.4221 241.531C88.1469 242.29 86.4479 242.278 84.6188 241.829C83.7665 241.611 82.9309 241.332 82.1186 240.994C77.1264 238.951 72.063 234.895 72.063 234.895L81.6445 222.922L84.774 219.016L85.5166 218.085L89.0949 219.616L95.4085 222.314L98.9701 223.836Z" fill="#323130"/>
<path d="M74.1446 134.796L69.7012 153.023L74.275 176.406C74.275 176.406 74.3876 185.966 78.579 185.24C82.7703 184.515 78.3779 174.874 78.3779 174.874L76.3277 155.7L82.8825 136.758C83.4135 135.223 82.743 133.576 81.205 132.637C78.6096 131.052 74.9214 132.179 74.1446 134.796Z" fill="#FFB8B8"/>
<path d="M89.7411 119.081L85.9656 130.828L78.834 127.052C78.834 127.052 81.7705 118.662 81.7705 117.403C81.7705 116.145 89.7411 119.081 89.7411 119.081Z" fill="#FFB8B8"/>
<path d="M86.8047 123.696C91.6702 123.696 95.6144 119.752 95.6144 114.887C95.6144 110.021 91.6702 106.077 86.8047 106.077C81.9393 106.077 77.9951 110.021 77.9951 114.887C77.9951 119.752 81.9393 123.696 86.8047 123.696Z" fill="#FFB8B8"/>
<path d="M89.1119 133.554L87.4339 131.876L87.0144 129.779C87.0144 129.779 81.5608 122.647 76.9462 125.164C75.5042 125.951 74.4308 127.761 73.6366 129.879C71.6137 135.415 71.8024 141.517 74.1635 146.918L81.5608 164.178L98.341 162.5L95.4045 151.593C95.4045 151.593 98.341 144.881 92.8875 140.266L89.1119 133.554Z" fill="#5F338F"/>
<path opacity="0.3" d="M98.9705 223.836L93.4079 234.148L89.4226 241.531C88.1473 242.29 86.4483 242.278 84.6192 241.829C84.3004 239.706 86.205 228.489 84.7073 219.343L84.7744 219.016L85.517 218.085L89.0954 219.616L95.4089 222.314L98.9705 223.836Z" fill="white"/>
<path d="M98.9702 161.452C98.9702 161.452 88.063 154.74 80.5119 163.13L80.9314 165.647C80.9314 165.647 74.6388 172.779 78.4144 187.881C82.1899 202.983 88.063 242.417 88.063 242.417C88.063 242.417 101.907 243.256 108.199 238.641C108.199 238.641 106.102 186.622 98.9702 181.588V161.452Z" fill="#323130"/>
<path d="M76.2267 138.086L88.0632 152.642L109.458 163.129C109.458 163.129 117.142 168.816 119.097 165.039C121.052 161.261 110.717 158.934 110.717 158.934L94.2014 148.98L83.0706 132.31C82.1689 130.96 80.4513 130.499 78.7735 131.156C75.9421 132.266 74.6117 135.886 76.2267 138.086Z" fill="#FFB8B8"/>
<path d="M68.3846 254.29C68.3846 254.29 70.9559 251.056 72.492 253.094C74.0281 255.131 70.6806 256.877 70.6806 256.877L70.4858 267.388C70.4858 267.388 72.3125 275.425 67.3806 272.32C62.4488 269.215 62.2548 268.843 61.2846 266.983C60.3145 265.124 58.3099 257.653 56.5798 255.243C54.8497 252.834 53.2654 247.982 55.3191 247.384C57.3728 246.786 66.9457 244.656 66.4688 245.366C65.9919 246.075 63.4044 248.371 64.7464 250.037C66.0885 251.702 68.3846 254.29 68.3846 254.29Z" fill="#323130"/>
<path d="M91.4184 107.368C91.4184 107.357 91.4192 107.346 91.4192 107.336C91.4192 104.929 90.7057 102.577 89.3689 100.577C88.0321 98.5761 86.1321 97.0168 83.9091 96.096C81.6861 95.1752 79.24 94.9343 76.8801 95.4037C74.5202 95.8731 72.3525 97.0318 70.6511 98.7332C68.9497 100.435 67.7911 102.602 67.3217 104.962C66.8522 107.322 67.0932 109.768 68.0139 111.991C68.9347 114.214 70.494 116.114 72.4947 117.451C74.4953 118.788 76.8474 119.501 79.2535 119.501C79.5362 119.501 80.6538 121.618 80.9316 121.599C80.9482 115.177 85.1023 107.799 91.4184 107.368Z" fill="#323130"/>
<path d="M66.2489 106.077C70.651 106.077 74.2195 102.508 74.2195 98.1063C74.2195 93.7043 70.651 90.1357 66.2489 90.1357C61.8469 90.1357 58.2783 93.7043 58.2783 98.1063C58.2783 102.508 61.8469 106.077 66.2489 106.077Z" fill="#323130"/>
<path d="M65.8833 86.0318C67.804 86.0197 69.6643 86.7025 71.1211 87.9544C72.5778 89.2062 73.5328 90.9426 73.8098 92.8432C74.0868 94.7439 73.6672 96.6806 72.6284 98.2962C71.5895 99.9118 70.0015 101.097 68.1573 101.634C69.2992 101.632 70.4274 101.385 71.4654 100.908C72.5034 100.432 73.4268 99.7385 74.1731 98.8742C74.9194 98.0098 75.4711 96.9951 75.7908 95.8988C76.1104 94.8025 76.1907 93.6503 76.026 92.5202C75.8613 91.3902 75.4555 90.3088 74.8362 89.3494C74.2169 88.39 73.3985 87.5749 72.4365 86.9595C71.4746 86.3441 70.3915 85.9428 69.2608 85.7827C68.1302 85.6227 66.9783 85.7076 65.8833 86.0318Z" fill="#323130"/>
<path d="M84.707 104.818H91.0927C92.5144 104.818 93.8779 105.383 94.8831 106.388C95.8884 107.394 96.4532 108.757 96.4532 110.179V112.369H84.707V104.818Z" fill="#323130"/>
</svg>
