<svg width="534" height="280" viewBox="0 0 534 280" fill="none" xmlns="http://www.w3.org/2000/svg">
<g clip-path="url(#clip0_210_676)">
<path d="M532.105 204.098C529.312 221.852 520.658 239.084 506.376 249.989C492.321 260.729 474.314 264.545 456.93 267.825C436.081 271.765 415.175 275.365 394.211 278.627C391.24 279.101 388.266 279.559 385.29 280H263.187C263.064 279.835 262.933 279.664 262.81 279.492C262.611 279.204 262.412 278.916 262.22 278.627C262.11 278.463 262 278.291 261.89 278.12H338.479C340.652 278.118 342.736 277.254 344.273 275.718C345.811 274.182 346.676 272.099 346.68 269.925V167.698C347.174 166.147 347.634 164.589 348.052 163.01C350.006 155.66 351.276 148.146 351.847 140.562C352.259 135.278 352.383 129.994 352.293 124.702C352.04 110.16 350.139 95.618 348.073 81.1787C347.922 80.115 347.764 79.0444 347.613 77.9807C346.158 67.9473 344.834 57.0286 349.891 48.2374C355.677 38.1766 368.517 33.9834 380.081 35.0128C400.882 36.8726 418.403 52.8012 427.509 71.5983C436.61 90.3886 438.648 111.759 439.478 132.622C439.917 143.685 439.869 155.242 438.325 166.339C443.541 154.411 448.761 142.484 453.986 130.556C456.772 124.195 459.703 117.627 464.864 112.974C475.652 103.236 493.495 105.198 505.018 114.065C516.533 122.939 522.847 136.959 527.047 150.87C532.249 168.075 534.905 186.344 532.105 204.098Z" fill="#008C5D"/>
<path d="M486.089 107.667C493.632 121.028 497.093 136.348 497.011 151.637C496.894 166.795 493.541 181.753 487.175 195.51C481.418 207.932 473.396 219.173 463.522 228.656C453.776 238.119 442.212 245.506 429.529 250.371C414.813 255.886 398.896 257.399 383.404 254.753C381.252 254.384 379.116 253.935 376.995 253.408C375.709 253.091 375.16 255.076 376.448 255.394C392.569 259.39 409.475 258.903 425.34 253.988C438.553 249.737 450.745 242.801 461.151 233.615C471.687 224.404 480.399 213.297 486.836 200.871C493.879 187.266 497.988 172.335 498.897 157.043C499.797 141.525 497.195 125.731 490.484 111.654C489.671 109.948 488.798 108.273 487.867 106.628C487.724 106.402 487.499 106.241 487.24 106.177C486.98 106.114 486.706 106.154 486.476 106.289C486.245 106.424 486.076 106.643 486.004 106.9C485.931 107.157 485.962 107.432 486.089 107.667H486.089Z" fill="white"/>
<path d="M376.827 34.7406C385.191 50.1592 391.71 66.5099 396.247 83.4543C405.33 117.391 406.698 152.932 400.25 187.467C397.031 204.721 391.781 221.534 384.61 237.554C377.46 253.439 367.165 270.177 349.581 275.739C347.597 276.364 345.563 276.818 343.501 277.098C342.194 277.277 342.75 279.261 344.048 279.083C362.238 276.587 374.877 261.475 382.804 246.071C391.006 230.132 396.846 212.824 400.73 195.349C408.427 160.481 408.15 124.325 399.92 89.579C395.831 72.2697 389.72 55.5015 381.713 39.6203C380.707 37.6314 379.671 35.6585 378.605 33.7014C377.971 32.5371 376.193 33.5752 376.827 34.7406V34.7406Z" fill="white"/>
<path d="M290.734 31.7461H167.479C164.977 31.7494 162.579 32.7446 160.81 34.5135C159.041 36.2825 158.046 38.6808 158.043 41.1824V102.941H177.012C178.399 102.937 179.764 103.287 180.978 103.958C182.192 104.63 183.215 105.6 183.95 106.777L190.524 117.243L196.811 127.242L197.991 129.122L205.183 140.562L205.266 140.693H300.171V41.1824C300.168 38.6807 299.172 36.2825 297.403 34.5135C295.634 32.7446 293.236 31.7494 290.734 31.7461Z" fill="#CCCCCC"/>
<path d="M241.879 50.6256H180.807C179.188 50.6256 177.635 51.2688 176.49 52.4136C175.345 53.5584 174.702 55.1111 174.702 56.7301C174.702 58.349 175.345 59.9017 176.49 61.0466C177.635 62.1914 179.188 62.8345 180.807 62.8345H241.879C243.498 62.8345 245.05 62.1914 246.195 61.0466C247.34 59.9017 247.983 58.349 247.983 56.7301C247.983 55.1111 247.34 53.5584 246.195 52.4136C245.05 51.2688 243.498 50.6256 241.879 50.6256Z" fill="white"/>
<path d="M275.746 80.6022H181.362C179.595 80.6022 177.9 81.3043 176.65 82.554C175.401 83.8037 174.699 85.4986 174.699 87.2659C174.699 89.0333 175.401 90.7282 176.65 91.9779C177.9 93.2276 179.595 93.9297 181.362 93.9297H275.746C277.513 93.9297 279.208 93.2276 280.458 91.9779C281.708 90.7282 282.41 89.0333 282.41 87.2659C282.41 85.4986 281.708 83.8037 280.458 82.554C279.208 81.3043 277.513 80.6022 275.746 80.6022Z" fill="white"/>
<path d="M281.772 107.758C281.235 106.612 280.384 105.643 279.317 104.964C278.25 104.284 277.011 103.923 275.746 103.922H181.362C181.218 103.922 181.081 103.929 180.937 103.936C182.168 104.608 183.206 105.587 183.95 106.777L190.524 117.243H275.746C276.867 117.243 277.969 116.96 278.952 116.421C279.934 115.881 280.764 115.102 281.365 114.156C281.966 113.21 282.319 112.128 282.39 111.009C282.461 109.891 282.248 108.773 281.772 107.758Z" fill="white"/>
<path d="M282.341 133.006C282.124 131.411 281.337 129.948 280.124 128.888C278.912 127.828 277.356 127.243 275.746 127.242H196.811L197.991 129.122L205.183 140.562H275.746C277.133 140.565 278.485 140.13 279.61 139.32C280.474 138.704 281.178 137.891 281.664 136.948C282.15 136.005 282.403 134.959 282.403 133.898C282.404 133.6 282.383 133.302 282.341 133.006Z" fill="white"/>
<path d="M357.681 84.9326L348.073 81.1787L300.171 62.4845L242.86 40.1187C240.527 39.2134 237.93 39.27 235.639 40.276C233.348 41.2819 231.549 43.1553 230.637 45.4854L228.633 50.6256L223.864 62.8345L216.932 80.6022L211.73 93.9297L207.832 103.922L202.63 117.243L198.725 127.242L198.616 127.53L197.991 129.122L205.183 140.562L205.266 140.693H338.479C339.702 140.691 340.909 140.965 342.013 141.492C343.116 142.019 344.087 142.787 344.854 143.74L345.417 142.312L352.293 124.702L363.041 97.162C363.948 94.8293 363.893 92.2319 362.888 89.9395C361.884 87.647 360.011 85.8465 357.681 84.9326Z" fill="#5F338F"/>
<path d="M305.304 84.7542L300.171 82.7502L248.412 62.5531C246.903 61.969 245.223 62.0056 243.741 62.6549C242.259 63.3041 241.093 64.5134 240.499 66.0188C239.914 67.5289 239.951 69.2091 240.602 70.692C241.252 72.1749 242.464 73.3397 243.972 73.9316L261.067 80.6022L282.211 88.8512L300.171 95.865L300.864 96.1326C302.372 96.7182 304.051 96.6813 305.532 96.0302C307.013 95.3791 308.175 94.1669 308.763 92.6597C309.352 91.1525 309.318 89.4736 308.669 87.9914C308.021 86.5092 306.81 85.3449 305.304 84.7542Z" fill="white"/>
<path d="M325.947 124.997L300.171 114.937L281.772 107.758L271.944 103.922L246.346 93.9297L238.028 90.6836C236.477 90.0778 234.754 90.075 233.201 90.6758C231.647 91.2767 230.375 92.4375 229.635 93.9297C229.553 94.1013 229.471 94.2797 229.402 94.465C229.084 95.2797 228.929 96.1491 228.947 97.0236C228.965 97.8981 229.155 98.7605 229.506 99.5616C229.857 100.363 230.362 101.087 230.993 101.692C231.624 102.298 232.369 102.773 233.183 103.091L235.311 103.922L269.432 117.243L300.171 129.239L321.102 137.412C321.872 137.713 322.691 137.867 323.518 137.865C325.072 137.868 326.578 137.327 327.776 136.336C328.973 135.346 329.787 133.967 330.075 132.44C330.363 130.913 330.109 129.333 329.355 127.974C328.601 126.614 327.396 125.562 325.947 124.997H325.947Z" fill="white"/>
<path d="M300.171 139.965L298.517 139.32L282.341 133.006L267.566 127.242L241.94 117.243L229.546 112.404C228.73 112.085 227.86 111.93 226.985 111.948C226.109 111.965 225.246 112.155 224.444 112.507C223.642 112.858 222.917 113.365 222.311 113.997C221.705 114.628 221.229 115.374 220.911 116.189C220.593 117.005 220.439 117.876 220.458 118.751C220.477 119.627 220.668 120.49 221.021 121.291C221.373 122.093 221.88 122.817 222.513 123.422C223.146 124.028 223.891 124.502 224.708 124.819L230.912 127.242L261.863 139.32L265.047 140.562L265.376 140.693H302.031L300.171 139.965Z" fill="white"/>
<path d="M237.562 140.562L234.377 139.32L221.07 134.125C220.141 133.761 219.141 133.611 218.145 133.685C217.15 133.76 216.184 134.058 215.319 134.557C214.454 135.056 213.713 135.743 213.15 136.568C212.587 137.392 212.216 138.333 212.066 139.32C212 139.731 211.975 140.147 211.991 140.562C211.99 140.606 211.992 140.649 211.998 140.693H237.898L237.562 140.562Z" fill="white"/>
<path d="M265.047 140.562L261.863 139.32H212.066C212 139.731 211.975 140.147 211.991 140.562H205.183L205.266 140.693H265.376L265.047 140.562ZM265.047 140.562H205.183L205.266 140.693H265.376L265.047 140.562ZM265.047 140.562H205.183L205.266 140.693H265.376L265.047 140.562ZM265.376 140.693L265.047 140.562H205.183L205.266 140.693H265.376ZM145.271 278.12C143.099 278.116 141.017 277.252 139.481 275.716C137.945 274.18 137.08 272.098 137.077 269.925V111.142C137.079 108.968 137.943 106.884 139.479 105.347C141.015 103.81 143.098 102.944 145.271 102.941H158.043V101.568H145.271C142.734 101.573 140.303 102.583 138.509 104.378C136.716 106.172 135.708 108.605 135.705 111.142V269.925C135.707 271.761 136.236 273.557 137.23 275.1C138.225 276.642 139.641 277.867 141.311 278.627H262.22C262.11 278.463 262 278.291 261.89 278.12H145.271ZM345.417 142.312C344.526 141.367 343.45 140.613 342.257 140.099C341.064 139.584 339.778 139.319 338.479 139.32H206.027L198.616 127.53L198.437 127.242L192.151 117.243L185.11 106.043C184.247 104.674 183.052 103.547 181.636 102.764C180.22 101.982 178.629 101.57 177.012 101.568H145.271C142.734 101.573 140.303 102.583 138.509 104.378C136.716 106.172 135.708 108.605 135.705 111.142V269.925C135.707 271.761 136.236 273.557 137.23 275.1C138.225 276.642 139.641 277.867 141.311 278.627C142.553 279.199 143.904 279.494 145.271 279.492H338.479C339.848 279.494 341.201 279.199 342.446 278.627C344.116 277.867 345.532 276.642 346.526 275.1C347.52 273.557 348.05 271.761 348.052 269.925V148.894C348.054 146.442 347.11 144.085 345.417 142.312ZM346.68 269.925C346.676 272.099 345.811 274.182 344.273 275.718C342.736 277.254 340.652 278.118 338.479 278.12H145.271C143.099 278.116 141.017 277.252 139.481 275.716C137.945 274.18 137.08 272.098 137.077 269.925V111.142C137.079 108.968 137.943 106.884 139.479 105.347C141.015 103.81 143.098 102.944 145.271 102.941H177.012C178.399 102.937 179.764 103.287 180.978 103.958C182.193 104.63 183.215 105.6 183.95 106.777L190.524 117.243L196.811 127.242L197.991 129.122L205.183 140.562L205.266 140.693H338.479C340.653 140.694 342.738 141.559 344.276 143.097C345.813 144.634 346.678 146.719 346.68 148.894V269.925ZM265.047 140.562H205.183L205.266 140.693H265.376L265.047 140.562ZM265.047 140.562H205.183L205.266 140.693H265.376L265.047 140.562ZM265.047 140.562H205.183L205.266 140.693H265.376L265.047 140.562ZM265.047 140.562L261.863 139.32H206.027L198.616 127.53L197.991 129.122L205.183 140.562L205.266 140.693H265.376L265.047 140.562Z" fill="#323130"/>
<path d="M107.696 197.49L103.765 205.709L70.1945 194.458L75.9956 182.328L107.696 197.49Z" fill="#FFB8B8"/>
<path d="M98.2442 211.219L106.19 194.606L116.17 199.379L103.816 225.209L103.052 224.844C100.608 223.675 98.7283 221.583 97.8266 219.027C96.9248 216.472 97.075 213.664 98.2442 211.219Z" fill="#323130"/>
<path d="M115.61 270.884L106.505 270.576L106.121 235.134L116.795 235.764L115.61 270.884Z" fill="#FFB8B8"/>
<path d="M99.2433 267.727L117.648 268.348L117.275 279.404L88.6594 278.439L88.688 277.593C88.7794 274.885 89.9428 272.324 91.9223 270.474C93.9018 268.624 96.5352 267.636 99.2433 267.727Z" fill="#323130"/>
<path d="M130.272 122.554C130.272 122.554 102.406 115.495 89.7732 125.898L82.7138 146.334L54.476 186.461L95.3465 210.983L102.778 192.406L84.9431 183.489L106.493 164.911L102.778 263L116.896 265.23C116.896 265.23 148.107 144.104 130.272 122.554Z" fill="#323130"/>
<path d="M87.9951 128.921L88.3347 128.317C91.915 121.952 91.3349 111.587 90.2179 104.013C89.2823 97.6693 89.3104 86.4895 89.4987 78.2275C89.5452 75.4389 90.5398 72.7491 92.3187 70.601C94.0977 68.4529 96.5549 66.9745 99.286 66.4091C107.763 64.6449 118.171 64.2712 123.62 64.2051L123.624 64.5767L123.62 64.2051C125.1 64.1992 126.524 64.7739 127.586 65.8058C128.648 66.8376 129.263 68.2446 129.299 69.7247C129.465 78.6216 129.413 94.8457 127.205 103.55C123.928 116.47 129.053 125.249 129.105 125.336L129.414 125.853L87.9951 128.921Z" fill="#5F338F"/>
<path d="M73.6608 164.551C74.5679 164.116 75.3688 163.488 76.0069 162.711C76.6451 161.934 77.105 161.026 77.3543 160.051C77.6036 159.077 77.6363 158.06 77.45 157.071C77.2636 156.083 76.8629 155.148 76.2759 154.331L92.0025 86.5142H80.1128L66.2333 152.994C64.9267 154.071 64.0605 155.59 63.7989 157.263C63.5373 158.936 63.8985 160.647 64.814 162.072C65.7295 163.496 67.1358 164.535 68.7663 164.992C70.3968 165.449 72.1383 165.292 73.6608 164.551Z" fill="#FFB8B8"/>
<path d="M169.285 97.7957L143.04 72.9694L135.947 82.9L153.68 98.5051L130.424 116.973C130.256 116.962 130.089 116.947 129.918 116.947C128.486 116.946 127.085 117.357 125.882 118.131C124.678 118.905 123.723 120.01 123.13 121.312C122.538 122.615 122.334 124.061 122.541 125.477C122.749 126.893 123.36 128.219 124.302 129.296C125.244 130.374 126.476 131.157 127.851 131.553C129.227 131.949 130.687 131.94 132.057 131.527C133.428 131.115 134.65 130.316 135.578 129.227C136.507 128.138 137.102 126.804 137.292 125.386L137.365 125.459L169.285 97.7957Z" fill="#FFB8B8"/>
<path d="M97.6167 67.2808C97.6167 67.2808 81.2276 64.5926 79.7414 77.2253C78.2552 89.8581 77.5121 89.8581 77.5121 89.8581C77.5121 89.8581 89.4017 87.6288 92.3741 90.6012C95.3465 93.5736 97.6167 67.2808 97.6167 67.2808Z" fill="#5F338F"/>
<path d="M122.098 65.3358C122.098 65.3358 135.474 63.1065 141.419 69.0513C147.363 74.9961 150.336 76.4823 150.336 76.4823C150.336 76.4823 136.96 83.9133 142.162 90.6012C142.162 90.6012 128.043 83.9133 125.814 86.1426C123.584 88.3719 122.098 65.3358 122.098 65.3358Z" fill="#5F338F"/>
<path d="M110.366 22.1931C106.147 18.8234 105.038 12.3201 107.486 7.50723C109.934 2.69438 115.469 -0.205212 120.864 0.0113289C126.26 0.22787 131.343 3.32542 134.469 7.7284C138.86 13.9134 139.781 22.5097 145.62 27.3518C150.893 31.7253 158.447 31.6 165.289 31.2521C167.596 31.1348 169.977 30.9988 172.046 29.9741C174.116 28.9494 175.807 26.7881 175.54 24.4942C177.259 27.2153 176.262 31.0304 173.955 33.2755C171.649 35.5206 168.366 36.4611 165.169 36.8357C159.53 37.4284 153.833 36.542 148.64 34.2636C143.448 31.9853 138.938 28.3937 135.555 23.8424C133.175 20.5583 131.337 16.7341 128.071 14.3296C124.804 11.9251 119.357 11.7577 117.352 15.2835C116.36 17.0273 116.457 19.2147 115.545 21.0015C114.633 22.7883 111.671 23.7518 110.793 21.9481" fill="#323130"/>
<path d="M109.721 58.0286C121.092 58.0286 130.31 48.8109 130.31 37.4403C130.31 26.0697 121.092 16.852 109.721 16.852C98.3506 16.852 89.1329 26.0697 89.1329 37.4403C89.1329 48.8109 98.3506 58.0286 109.721 58.0286Z" fill="#323130"/>
<path d="M109.597 59.6403C118.906 59.6403 126.453 52.0937 126.453 42.7846C126.453 33.4755 118.906 25.9289 109.597 25.9289C100.288 25.9289 92.7412 33.4755 92.7412 42.7846C92.7412 52.0937 100.288 59.6403 109.597 59.6403Z" fill="#FFB8B8"/>
<path d="M94.2278 30.4051C96.5186 30.9062 95.7689 34.749 97.5791 36.2396C99.212 37.5842 101.564 36.2014 103.619 35.7008C106.213 35.0688 108.929 35.9946 111.325 37.1749C113.72 38.3552 116.03 39.82 118.644 40.3699C121.257 40.9197 124.355 40.3 125.82 38.0671C127.221 35.9322 126.705 33.0531 125.609 30.7468C124.247 27.8792 122.108 25.4505 119.436 23.7358C116.764 22.0211 113.666 21.089 110.491 21.045C107.317 21.001 104.193 21.8469 101.475 23.4869C98.7561 25.1269 96.5513 27.4954 95.1098 30.3241" fill="#323130"/>
<path d="M491.374 279.314C491.374 279.496 491.301 279.67 491.173 279.798C491.044 279.927 490.87 279.999 490.688 280H0.686277C0.504265 280 0.329707 279.928 0.201005 279.799C0.0723035 279.67 0 279.496 0 279.314C0 279.132 0.0723035 278.957 0.201005 278.828C0.329707 278.7 0.504265 278.627 0.686277 278.627H490.688C490.87 278.628 491.044 278.7 491.173 278.829C491.301 278.958 491.374 279.132 491.374 279.314Z" fill="#323130"/>
<path d="M238.138 247.06C258.605 247.06 275.197 230.468 275.197 210.001C275.197 189.534 258.605 172.942 238.138 172.942C217.671 172.942 201.079 189.534 201.079 210.001C201.079 230.468 217.671 247.06 238.138 247.06Z" fill="#5F338F"/>
<path d="M243.975 211.23V190.785H233.446V211.23H228.53L233.62 220.045L238.71 228.862L243.801 220.045L248.891 211.229L243.975 211.23Z" fill="white"/>
</g>
<defs>
<clipPath id="clip0_210_676">
<rect width="533.238" height="280" fill="white"/>
</clipPath>
</defs>
</svg>
