<svg width="225" height="180" viewBox="0 0 225 180" fill="none" xmlns="http://www.w3.org/2000/svg">
<g clip-path="url(#clip0_624_642)">
<path d="M142.155 177.788L137.375 175.776L134.095 151.812H90.4254L86.8709 175.678L82.5941 177.816C82.3895 177.918 82.2254 178.087 82.1284 178.294C82.0315 178.501 82.0073 178.735 82.0599 178.958C82.1125 179.18 82.2387 179.379 82.4181 179.521C82.5975 179.663 82.8195 179.74 83.0483 179.74H141.761C141.996 179.74 142.223 179.659 142.404 179.51C142.586 179.362 142.71 179.155 142.757 178.925C142.803 178.696 142.768 178.457 142.659 178.25C142.549 178.042 142.371 177.879 142.155 177.788Z" fill="#E6E6E6"/>
<path d="M219.759 155H5.24049C4.11497 154.997 3.03641 154.549 2.24144 153.752C1.44647 152.955 1.00001 151.876 1 150.75V120.5H224V150.75C224 151.876 223.554 152.955 222.759 153.752C221.964 154.549 220.885 154.997 219.759 155Z" fill="#CCCCCC"/>
<path d="M224.224 134.797H0.804199V5.36353C0.80577 4.00519 1.34609 2.70295 2.30659 1.74248C3.2671 0.782008 4.56937 0.24175 5.9277 0.240234H219.101C220.459 0.241763 221.761 0.782027 222.722 1.74249C223.682 2.70296 224.223 4.00519 224.224 5.36353V134.797Z" fill="#3F3D56"/>
<path d="M210.88 125.403H14.1481C13.1009 125.401 12.0969 124.985 11.3564 124.244C10.6159 123.504 10.1994 122.5 10.1982 121.453V13.5842C10.1994 12.537 10.6159 11.533 11.3564 10.7925C12.0969 10.052 13.1009 9.63548 14.1481 9.63428H210.88C211.927 9.63548 212.931 10.052 213.672 10.7925C214.412 11.533 214.829 12.537 214.83 13.5842V121.453C214.829 122.5 214.412 123.504 213.672 124.244C212.931 124.985 211.927 125.401 210.88 125.403Z" fill="white"/>
<path d="M209.028 179.99H18.5283C18.3957 179.99 18.2685 179.938 18.1748 179.844C18.081 179.75 18.0283 179.623 18.0283 179.49C18.0283 179.358 18.081 179.23 18.1748 179.137C18.2685 179.043 18.3957 178.99 18.5283 178.99H209.028C209.161 178.99 209.288 179.043 209.382 179.137C209.476 179.23 209.528 179.358 209.528 179.49C209.528 179.623 209.476 179.75 209.382 179.844C209.288 179.938 209.161 179.99 209.028 179.99Z" fill="#CCCCCC"/>
<g clip-path="url(#clip1_624_642)">
<path d="M181.593 95.1601C181.596 95.7193 181.377 96.2568 180.983 96.6544C180.59 97.0519 180.055 97.2768 179.496 97.2797H87.2051C86.6458 97.2768 86.1107 97.0519 85.7173 96.6544C85.3239 96.2569 85.1045 95.7194 85.1075 95.1602V32.1196C85.1045 31.5604 85.3239 31.0229 85.7172 30.6254C86.1106 30.2279 86.6458 30.0029 87.205 30H179.496C180.055 30.0029 180.59 30.2279 180.983 30.6254C181.377 31.0228 181.596 31.5603 181.593 32.1196V95.1601Z" fill="#E6E6E6"/>
<path d="M180.505 94.1278C180.505 94.6714 180.289 95.1927 179.904 95.5771C179.52 95.9614 178.999 96.1774 178.455 96.1774H88.3088C87.7652 96.1774 87.2439 95.9614 86.8596 95.5771C86.4752 95.1927 86.2593 94.6714 86.2593 94.1278V33.1809C86.2593 32.6373 86.4752 32.116 86.8596 31.7316C87.2439 31.3473 87.7652 31.1313 88.3088 31.1313H178.459C179.002 31.1324 179.522 31.3489 179.906 31.7331C180.289 32.1173 180.505 32.638 180.505 33.1809V94.1278Z" fill="white"/>
<path d="M91.0774 33.7773H175.783C176.106 33.7773 176.415 33.9055 176.643 34.1337C176.871 34.3618 176.999 34.6712 176.999 34.9939V92.0782C176.999 92.4008 176.871 92.7103 176.643 92.9384C176.415 93.1666 176.106 93.2947 175.783 93.2947H91.0774C90.9176 93.2947 90.7594 93.2633 90.6118 93.2021C90.4642 93.141 90.3301 93.0514 90.2171 92.9384C90.1042 92.8255 90.0146 92.6913 89.9534 92.5437C89.8923 92.3961 89.8608 92.238 89.8608 92.0782V34.9939C89.8608 34.8341 89.8923 34.6759 89.9534 34.5283C90.0146 34.3807 90.1042 34.2466 90.2171 34.1337C90.3301 34.0207 90.4642 33.9311 90.6118 33.8699C90.7594 33.8088 90.9176 33.7773 91.0774 33.7773Z" fill="#E6E6E6"/>
<path d="M92.1496 35.1465H174.619C174.941 35.1465 175.251 35.2747 175.479 35.5028C175.707 35.7309 175.835 36.0404 175.835 36.363V90.4012C175.835 90.7239 175.707 91.0333 175.479 91.2614C175.251 91.4896 174.941 91.6178 174.619 91.6178H92.1496C91.827 91.6178 91.5176 91.4896 91.2894 91.2614C91.0613 91.0333 90.9331 90.7239 90.9331 90.4012V36.363C90.9331 36.0404 91.0613 35.7309 91.2894 35.5028C91.5176 35.2747 91.827 35.1465 92.1496 35.1465Z" fill="white"/>
<path d="M160.287 102.72C160.29 103.279 160.071 103.817 159.677 104.214C159.284 104.612 158.749 104.837 158.19 104.84H65.8989C65.622 104.838 65.3481 104.782 65.0928 104.675C64.8376 104.568 64.6059 104.411 64.4111 104.214C64.2164 104.018 64.0622 103.784 63.9576 103.528C63.853 103.272 63.7999 102.997 63.8013 102.72V39.6797C63.7984 39.1205 64.0177 38.583 64.4111 38.1855C64.8045 37.7879 65.3396 37.563 65.8989 37.5601H158.19C158.749 37.563 159.284 37.7879 159.677 38.1854C160.071 38.5829 160.29 39.1204 160.287 39.6796V102.72Z" fill="#E6E6E6"/>
<path d="M159.198 101.688C159.198 102.231 158.982 102.753 158.598 103.137C158.214 103.521 157.692 103.737 157.149 103.737H67.0027C66.4591 103.737 65.9378 103.521 65.5534 103.137C65.1691 102.753 64.9531 102.231 64.9531 101.688V40.7409C64.9531 40.1974 65.1691 39.6761 65.5534 39.2917C65.9378 38.9073 66.4591 38.6914 67.0027 38.6914H157.153C157.696 38.6925 158.216 38.9089 158.6 39.2932C158.983 39.6774 159.198 40.1981 159.198 40.7409V101.688Z" fill="white"/>
<path d="M69.7712 41.3379H154.477C154.799 41.3379 155.109 41.4661 155.337 41.6942C155.565 41.9223 155.693 42.2318 155.693 42.5544V99.6388C155.693 99.9614 155.565 100.271 155.337 100.499C155.109 100.727 154.799 100.855 154.477 100.855H69.7712C69.4486 100.855 69.1391 100.727 68.911 100.499C68.6829 100.271 68.5547 99.9614 68.5547 99.6388V42.5544C68.5547 42.2318 68.6829 41.9223 68.911 41.6942C69.1391 41.4661 69.4486 41.3379 69.7712 41.3379Z" fill="#E6E6E6"/>
<path d="M70.843 42.707H153.312C153.635 42.707 153.944 42.8352 154.172 43.0633C154.4 43.2915 154.529 43.6009 154.529 43.9236V97.9618C154.529 98.2844 154.4 98.5938 154.172 98.822C153.944 99.0501 153.635 99.1783 153.312 99.1783H70.843C70.5203 99.1783 70.2109 99.0501 69.9828 98.822C69.7546 98.5938 69.6265 98.2844 69.6265 97.9618V43.9236C69.6265 43.6009 69.7546 43.2915 69.9828 43.0633C70.2109 42.8352 70.5203 42.707 70.843 42.707Z" fill="white"/>
<path d="M139.393 111.38C139.396 111.94 139.177 112.477 138.783 112.875C138.39 113.272 137.855 113.497 137.296 113.5H45.0049C44.4457 113.497 43.9105 113.272 43.5171 112.875C43.1237 112.477 42.9043 111.94 42.9073 111.38V48.3398C42.9043 47.7806 43.1237 47.2431 43.5171 46.8456C43.9104 46.4481 44.4456 46.2231 45.0048 46.2202H137.295C137.572 46.2217 137.846 46.2776 138.102 46.3849C138.357 46.4922 138.588 46.6487 138.783 46.8456C138.978 47.0424 139.132 47.2756 139.237 47.532C139.341 47.7884 139.395 48.0629 139.393 48.3398V111.38Z" fill="#E6E6E6"/>
<path d="M138.304 110.348C138.304 110.892 138.088 111.413 137.704 111.797C137.32 112.182 136.798 112.398 136.255 112.398H46.1086C45.565 112.398 45.0437 112.182 44.6594 111.797C44.275 111.413 44.0591 110.892 44.0591 110.348V49.4011C44.0591 48.8575 44.275 48.3362 44.6594 47.9519C45.0437 47.5675 45.565 47.3516 46.1086 47.3516H136.259C136.802 47.3527 137.322 47.5691 137.706 47.9533C138.089 48.3376 138.304 48.8582 138.304 49.4011V110.348Z" fill="white"/>
<path d="M48.8772 49.9976H133.583C133.905 49.9976 134.215 50.1257 134.443 50.3539C134.671 50.582 134.799 50.8914 134.799 51.2141V108.298C134.799 108.621 134.671 108.93 134.443 109.159C134.215 109.387 133.905 109.515 133.583 109.515H48.8772C48.5545 109.515 48.2451 109.387 48.017 109.159C47.7888 108.93 47.6606 108.621 47.6606 108.298V51.2141C47.6606 50.8914 47.7888 50.582 48.017 50.3539C48.2451 50.1257 48.5545 49.9976 48.8772 49.9976Z" fill="#E6E6E6"/>
<path d="M49.9494 51.3667H132.418C132.741 51.3667 133.051 51.4949 133.279 51.723C133.507 51.9512 133.635 52.2606 133.635 52.5832V106.621C133.635 106.944 133.507 107.254 133.279 107.482C133.051 107.71 132.741 107.838 132.418 107.838H49.9494C49.6268 107.838 49.3174 107.71 49.0892 107.482C48.8611 107.254 48.7329 106.944 48.7329 106.621V52.5832C48.7329 52.2606 48.8611 51.9512 49.0892 51.723C49.3174 51.4949 49.6268 51.3667 49.9494 51.3667Z" fill="white"/>
<path d="M110.895 63.0726V100.462C110.895 100.68 110.808 100.89 110.653 101.045C110.499 101.199 110.289 101.286 110.07 101.286H70.8941C70.6754 101.286 70.4657 101.199 70.3111 101.045C70.1565 100.89 70.0695 100.68 70.0693 100.462V58.6739C70.0695 58.4552 70.1565 58.2455 70.3111 58.0909C70.4657 57.9362 70.6754 57.8493 70.8941 57.8491H105.122L110.895 63.0726Z" fill="#5F338F"/>
<path d="M77.0025 66.9488C76.8672 66.9511 76.7381 67.0065 76.6432 67.103C76.5483 67.1995 76.4951 67.3295 76.4951 67.4649C76.4951 67.6003 76.5483 67.7302 76.6432 67.8268C76.7381 67.9233 76.8672 67.9787 77.0025 67.981H90.6117C90.6796 67.9824 90.7472 67.9704 90.8105 67.9456C90.8738 67.9208 90.9316 67.8838 90.9805 67.8366C91.0294 67.7895 91.0686 67.7331 91.0957 67.6708C91.1228 67.6084 91.1373 67.5414 91.1384 67.4734C91.1396 67.4054 91.1272 67.3379 91.1022 67.2747C91.0772 67.2116 91.0399 67.1539 90.9925 67.1052C90.9451 67.0565 90.8886 67.0175 90.8262 66.9907C90.7637 66.9639 90.6966 66.9496 90.6286 66.9488C90.623 66.9487 90.6173 66.9487 90.6117 66.9488H77.0025Z" fill="white"/>
<path d="M77.0026 71.7901C76.8672 71.7924 76.7382 71.8478 76.6432 71.9443C76.5483 72.0408 76.4951 72.1708 76.4951 72.3062C76.4951 72.4416 76.5483 72.5715 76.6432 72.6681C76.7382 72.7646 76.8672 72.82 77.0026 72.8223H103.945C104.082 72.824 104.214 72.7715 104.311 72.6764C104.409 72.5812 104.466 72.4512 104.468 72.3146C104.47 72.1781 104.418 72.0463 104.323 71.948C104.229 71.8496 104.099 71.7929 103.962 71.7901C103.957 71.79 103.951 71.79 103.945 71.7901H77.0026Z" fill="white"/>
<path d="M77.0026 76.6314C76.8672 76.6337 76.7382 76.6891 76.6432 76.7856C76.5483 76.8822 76.4951 77.0121 76.4951 77.1475C76.4951 77.2829 76.5483 77.4129 76.6432 77.5094C76.7382 77.6059 76.8672 77.6613 77.0026 77.6636H103.945C104.013 77.665 104.081 77.6529 104.144 77.6281C104.207 77.6034 104.265 77.5663 104.314 77.5192C104.363 77.472 104.402 77.4157 104.429 77.3533C104.456 77.291 104.471 77.224 104.472 77.156C104.473 77.0881 104.461 77.0206 104.436 76.9574C104.411 76.8942 104.373 76.8366 104.326 76.7879C104.279 76.7391 104.222 76.7002 104.16 76.6734C104.097 76.6465 104.03 76.6323 103.962 76.6314C103.957 76.6313 103.951 76.6313 103.945 76.6314H77.0026Z" fill="white"/>
<path d="M77.0025 81.4722C76.8672 81.4745 76.7381 81.5299 76.6432 81.6265C76.5483 81.723 76.4951 81.8529 76.4951 81.9883C76.4951 82.1237 76.5483 82.2537 76.6432 82.3502C76.7381 82.4467 76.8672 82.5021 77.0025 82.5044H103.945C104.013 82.5058 104.081 82.4938 104.144 82.469C104.207 82.4442 104.265 82.4072 104.314 82.36C104.363 82.3129 104.402 82.2565 104.429 82.1942C104.456 82.1319 104.471 82.0648 104.472 81.9968C104.473 81.9289 104.461 81.8614 104.436 81.7982C104.411 81.735 104.373 81.6774 104.326 81.6286C104.279 81.5799 104.222 81.541 104.16 81.5141C104.097 81.4873 104.03 81.4731 103.962 81.4722C103.957 81.4721 103.951 81.4721 103.945 81.4722H77.0025Z" fill="white"/>
<path d="M77.0025 86.3135C76.8672 86.3158 76.7381 86.3712 76.6432 86.4678C76.5483 86.5643 76.4951 86.6943 76.4951 86.8296C76.4951 86.965 76.5483 87.095 76.6432 87.1915C76.7381 87.288 76.8672 87.3434 77.0025 87.3457H103.945C104.013 87.3471 104.081 87.3351 104.144 87.3103C104.207 87.2856 104.265 87.2485 104.314 87.2014C104.363 87.1542 104.402 87.0978 104.429 87.0355C104.456 86.9732 104.471 86.9061 104.472 86.8382C104.473 86.7702 104.461 86.7027 104.436 86.6395C104.411 86.5763 104.373 86.5187 104.326 86.4699C104.279 86.4212 104.222 86.3823 104.16 86.3555C104.097 86.3286 104.03 86.3144 103.962 86.3135C103.957 86.3135 103.951 86.3135 103.945 86.3135H77.0025Z" fill="white"/>
<path d="M77.0025 91.1549C76.8672 91.1572 76.7381 91.2125 76.6432 91.3091C76.5483 91.4056 76.4951 91.5356 76.4951 91.671C76.4951 91.8063 76.5483 91.9363 76.6432 92.0328C76.7381 92.1294 76.8672 92.1847 77.0025 92.187H103.945C104.013 92.1884 104.081 92.1764 104.144 92.1516C104.207 92.1269 104.265 92.0898 104.314 92.0427C104.363 91.9955 104.402 91.9391 104.429 91.8768C104.456 91.8145 104.471 91.7474 104.472 91.6795C104.473 91.6115 104.461 91.544 104.436 91.4808C104.411 91.4176 104.373 91.36 104.326 91.3113C104.279 91.2625 104.222 91.2236 104.16 91.1968C104.097 91.1699 104.03 91.1557 103.962 91.1549C103.957 91.1548 103.951 91.1548 103.945 91.1549H77.0025Z" fill="white"/>
<path d="M110.895 63.0726H105.672C105.526 63.0726 105.386 63.0147 105.283 62.9116C105.18 62.8084 105.122 62.6686 105.122 62.5228V57.8491L110.895 63.0726Z" fill="#6C63FF"/>
<path opacity="0.2" d="M110.895 63.0726H105.672C105.526 63.0726 105.386 63.0147 105.283 62.9116C105.18 62.8084 105.122 62.6686 105.122 62.5228V57.8491L110.895 63.0726Z" fill="black"/>
</g>
</g>
<defs>
<clipPath id="clip0_624_642">
<rect width="224" height="180" fill="white" transform="translate(0.5)"/>
</clipPath>
<clipPath id="clip1_624_642">
<rect width="138.686" height="83.5" fill="white" transform="translate(42.9072 30)"/>
</clipPath>
</defs>
</svg>
