<svg width="224" height="180" viewBox="0 0 224 180" fill="none" xmlns="http://www.w3.org/2000/svg">
<path d="M141.655 177.789L136.875 175.776L133.595 151.812H89.9254L86.3709 175.678L82.0941 177.816C81.8895 177.919 81.7254 178.087 81.6284 178.294C81.5315 178.501 81.5073 178.735 81.5599 178.958C81.6125 179.181 81.7387 179.379 81.9181 179.521C82.0975 179.663 82.3195 179.74 82.5483 179.74H141.261C141.496 179.74 141.723 179.659 141.904 179.511C142.086 179.362 142.21 179.155 142.257 178.926C142.303 178.696 142.268 178.457 142.159 178.25C142.049 178.043 141.871 177.88 141.655 177.789Z" fill="#E6E6E6"/>
<path d="M219.259 155H4.74049C3.61497 154.997 2.53641 154.549 1.74144 153.752C0.946466 152.955 0.500008 151.876 0.5 150.75V120.5H223.5V150.75C223.5 151.876 223.054 152.955 222.259 153.752C221.464 154.549 220.385 154.997 219.259 155Z" fill="#CCCCCC"/>
<path d="M223.724 134.797H0.304199V5.36353C0.30577 4.00519 0.846087 2.70295 1.80659 1.74248C2.7671 0.782008 4.06937 0.24175 5.4277 0.240234H218.601C219.959 0.241763 221.261 0.782027 222.222 1.74249C223.182 2.70296 223.723 4.00519 223.724 5.36353V134.797Z" fill="#3F3D56"/>
<path d="M210.38 125.403H13.6481C12.6009 125.401 11.5969 124.985 10.8564 124.244C10.1159 123.504 9.69942 122.5 9.69824 121.453V13.5842C9.69941 12.537 10.1159 11.533 10.8564 10.7925C11.5969 10.052 12.6009 9.63548 13.6481 9.63428H210.38C211.427 9.63548 212.431 10.052 213.172 10.7925C213.912 11.533 214.329 12.537 214.33 13.5842V121.453C214.329 122.5 213.912 123.504 213.172 124.244C212.431 124.985 211.427 125.401 210.38 125.403Z" fill="white"/>
<path d="M208.528 179.99H18.0283C17.8957 179.99 17.7685 179.938 17.6748 179.844C17.581 179.75 17.5283 179.623 17.5283 179.49C17.5283 179.358 17.581 179.23 17.6748 179.137C17.7685 179.043 17.8957 178.99 18.0283 178.99H208.528C208.661 178.99 208.788 179.043 208.882 179.137C208.976 179.23 209.028 179.358 209.028 179.49C209.028 179.623 208.976 179.75 208.882 179.844C208.788 179.938 208.661 179.99 208.528 179.99Z" fill="#CCCCCC"/>
<g clip-path="url(#clip0_624_611)">
<path d="M181.404 95.1601C181.407 95.7193 181.187 96.2568 180.793 96.6543C180.4 97.0518 179.864 97.2768 179.304 97.2797H86.9325C86.6554 97.2783 86.3812 97.2223 86.1257 97.115C85.8702 97.0077 85.6384 96.8512 85.4434 96.6544C85.2485 96.4576 85.0942 96.2243 84.9895 95.9679C84.8848 95.7115 84.8316 95.4371 84.833 95.1602V32.1196C84.8301 31.5604 85.0497 31.0229 85.4434 30.6254C85.8371 30.2279 86.3727 30.0029 86.9325 30H179.304C179.581 30.0014 179.856 30.0574 180.111 30.1647C180.367 30.272 180.598 30.4285 180.793 30.6254C180.988 30.8222 181.143 31.0554 181.247 31.3118C181.352 31.5682 181.405 31.8427 181.404 32.1196V32.1196V95.1601Z" fill="#E6E6E6"/>
<path d="M180.314 94.1278C180.314 94.6714 180.098 95.1927 179.713 95.5771C179.328 95.9614 178.807 96.1774 178.263 96.1774H88.0372C87.4931 96.1774 86.9714 95.9614 86.5867 95.5771C86.202 95.1927 85.9858 94.6714 85.9858 94.1278V33.1809C85.9858 32.6373 86.202 32.116 86.5867 31.7316C86.9714 31.3473 87.4931 31.1313 88.0372 31.1313H178.267C178.81 31.1324 179.331 31.3489 179.715 31.7331C180.098 32.1173 180.314 32.638 180.314 33.1809V94.1278Z" fill="white"/>
<path d="M90.8079 33.7773H175.588C175.911 33.7773 176.221 33.9055 176.449 34.1337C176.677 34.3618 176.805 34.6712 176.805 34.9939V92.0782C176.805 92.4008 176.677 92.7103 176.449 92.9384C176.221 93.1665 175.911 93.2947 175.588 93.2947H90.8079C90.485 93.2947 90.1753 93.1665 89.947 92.9384C89.7186 92.7103 89.5903 92.4008 89.5903 92.0782V34.9939C89.5903 34.6712 89.7186 34.3618 89.947 34.1337C90.1753 33.9055 90.485 33.7773 90.8079 33.7773Z" fill="#E6E6E6"/>
<path d="M91.8812 35.1465H174.423C174.746 35.1465 175.055 35.2747 175.284 35.5028C175.512 35.7309 175.64 36.0404 175.64 36.363V90.4012C175.64 90.7239 175.512 91.0333 175.284 91.2614C175.055 91.4896 174.746 91.6178 174.423 91.6178H91.8812C91.5582 91.6178 91.2485 91.4896 91.0202 91.2614C90.7919 91.0333 90.6636 90.7239 90.6636 90.4012V36.363C90.6636 36.0404 90.7919 35.7309 91.0202 35.5028C91.2485 35.2747 91.5582 35.1465 91.8812 35.1465Z" fill="white"/>
<path d="M150.161 72.6857C149.836 72.6854 149.515 72.6171 149.218 72.485C149.149 72.4543 149.083 72.417 149.022 72.3734L143.023 68.1545C142.719 67.9405 142.471 67.6566 142.299 67.3267C142.128 66.9968 142.038 66.6306 142.038 66.2588V60.5052C142.038 60.1335 142.128 59.7672 142.299 59.4373C142.471 59.1074 142.719 58.8235 143.023 58.6095L149.022 54.3907C149.083 54.3471 149.149 54.3097 149.218 54.2791C149.572 54.1221 149.959 54.0559 150.344 54.0863C150.73 54.1168 151.101 54.243 151.426 54.4535C151.75 54.664 152.016 54.9522 152.201 55.2917C152.385 55.6313 152.482 56.0116 152.482 56.3979V70.3661C152.482 70.9811 152.238 71.5709 151.802 72.0058C151.367 72.4407 150.777 72.685 150.161 72.685L150.161 72.6857Z" fill="#3F3D56"/>
<path d="M136.736 73.8169H120.005C116.592 73.8141 113.825 71.6096 113.822 68.8894V57.8748C113.825 55.1546 116.592 52.9501 120.005 52.9473H136.779C140.169 52.9505 142.915 55.1392 142.919 57.84V68.8894C142.915 71.6096 140.149 73.8141 136.736 73.8169Z" fill="#3F3D56"/>
<path d="M166.539 88.1428C169.288 88.1428 171.515 85.917 171.515 83.1713C171.515 80.4255 169.288 78.1997 166.539 78.1997C163.791 78.1997 161.563 80.4255 161.563 83.1713C161.563 85.917 163.791 88.1428 166.539 88.1428Z" fill="#E6E6E6"/>
<path d="M169.124 83.0823L165.157 80.7943C165.142 80.7853 165.124 80.7805 165.106 80.7805C165.088 80.7805 165.07 80.7853 165.054 80.7943C165.039 80.8033 165.026 80.8163 165.017 80.832C165.008 80.8476 165.003 80.8654 165.003 80.8834V85.4593C165.003 85.4774 165.008 85.4952 165.017 85.5108C165.026 85.5264 165.039 85.5394 165.054 85.5485C165.07 85.5575 165.088 85.5622 165.106 85.5622C165.124 85.5622 165.142 85.5575 165.157 85.5485L169.124 83.2605C169.139 83.2515 169.152 83.2385 169.161 83.2228C169.171 83.2072 169.175 83.1894 169.175 83.1714C169.175 83.1533 169.171 83.1356 169.161 83.1199C169.152 83.1043 169.139 83.0913 169.124 83.0823L165.157 80.7943C165.142 80.7853 165.124 80.7805 165.106 80.7805C165.088 80.7805 165.07 80.7853 165.054 80.7943C165.039 80.8033 165.026 80.8163 165.017 80.832C165.008 80.8476 165.003 80.8654 165.003 80.8834V85.4593C165.003 85.4774 165.008 85.4952 165.017 85.5108C165.026 85.5264 165.039 85.5394 165.054 85.5485C165.07 85.5575 165.088 85.5622 165.106 85.5622C165.124 85.5622 165.142 85.5575 165.157 85.5485L169.124 83.2605C169.139 83.2515 169.152 83.2385 169.161 83.2228C169.171 83.2072 169.175 83.1894 169.175 83.1714C169.175 83.1533 169.171 83.1356 169.161 83.1199C169.152 83.1043 169.139 83.0913 169.124 83.0823Z" fill="white"/>
<path d="M160.078 102.72C160.081 103.28 159.862 103.817 159.468 104.215C159.074 104.612 158.539 104.837 157.979 104.84H65.6073C65.3302 104.839 65.056 104.783 64.8005 104.675C64.545 104.568 64.3132 104.412 64.1182 104.215C63.9233 104.018 63.769 103.785 63.6643 103.528C63.5596 103.272 63.5064 102.997 63.5078 102.72V39.6799C63.5049 39.1207 63.7245 38.5832 64.1182 38.1857C64.5119 37.7882 65.0475 37.5632 65.6073 37.5603H157.979C158.256 37.5617 158.53 37.6177 158.786 37.725C159.041 37.8323 159.273 37.9888 159.468 38.1857C159.663 38.3825 159.817 38.6157 159.922 38.8721C160.027 39.1285 160.08 39.403 160.078 39.6799V39.6799V102.72Z" fill="#E6E6E6"/>
<path d="M158.989 101.688C158.989 102.232 158.773 102.753 158.388 103.137C158.004 103.522 157.482 103.738 156.938 103.738H66.7125C66.1684 103.738 65.6467 103.522 65.262 103.137C64.8773 102.753 64.6611 102.232 64.6611 101.688V40.7412C64.6611 40.1976 64.8773 39.6763 65.262 39.2919C65.6467 38.9076 66.1684 38.6917 66.7125 38.6917H156.942C157.485 38.6927 158.006 38.9092 158.39 39.2934C158.774 39.6776 158.989 40.1983 158.989 40.7412V101.688Z" fill="white"/>
<path d="M69.4832 41.3376H154.263C154.586 41.3376 154.896 41.4658 155.124 41.694C155.353 41.9221 155.481 42.2315 155.481 42.5542V99.6385C155.481 99.9611 155.353 100.271 155.124 100.499C154.896 100.727 154.586 100.855 154.263 100.855H69.4832C69.1603 100.855 68.8506 100.727 68.6222 100.499C68.3939 100.271 68.2656 99.9611 68.2656 99.6385V42.5542C68.2656 42.2315 68.3939 41.9221 68.6222 41.694C68.8506 41.4658 69.1603 41.3376 69.4832 41.3376Z" fill="#E6E6E6"/>
<path d="M70.5565 42.7068H153.098C153.421 42.7068 153.731 42.835 153.959 43.0631C154.187 43.2912 154.316 43.6007 154.316 43.9233V97.9615C154.316 98.2842 154.187 98.5936 153.959 98.8217C153.731 99.0499 153.421 99.1781 153.098 99.1781H70.5565C70.2335 99.1781 69.9238 99.0499 69.6955 98.8217C69.4671 98.5936 69.3389 98.2842 69.3389 97.9615V43.9233C69.3389 43.6007 69.4671 43.2912 69.6955 43.0631C69.9238 42.835 70.2335 42.7068 70.5565 42.7068Z" fill="white"/>
<path d="M128.836 80.246C128.511 80.2458 128.19 80.1774 127.893 80.0453C127.824 80.0146 127.758 79.9773 127.697 79.9337L121.698 75.7148C121.394 75.5008 121.145 75.2169 120.974 74.887C120.802 74.5571 120.713 74.1909 120.713 73.8191V68.0655C120.713 67.6938 120.802 67.3275 120.974 66.9976C121.145 66.6677 121.394 66.3838 121.698 66.1698L127.697 61.951C127.758 61.9074 127.824 61.87 127.893 61.8394C128.246 61.6824 128.634 61.6162 129.019 61.6466C129.405 61.6771 129.776 61.8033 130.101 62.0138C130.425 62.2243 130.691 62.5125 130.876 62.8521C131.06 63.1916 131.157 63.5719 131.157 63.9582V77.9264C131.157 78.5414 130.912 79.1312 130.477 79.5661C130.042 80.001 129.452 80.2453 128.836 80.2453L128.836 80.246Z" fill="#3F3D56"/>
<path d="M115.411 81.3772H98.6802C95.2668 81.3744 92.5006 79.1699 92.4971 76.4497V65.4351C92.5006 62.7149 95.2668 60.5104 98.6802 60.5076H115.455C118.844 60.5108 121.59 62.6995 121.594 65.4003V76.4497C121.591 79.1699 118.825 81.3744 115.411 81.3772Z" fill="#3F3D56"/>
<path d="M145.214 95.7031C147.962 95.7031 150.19 93.4773 150.19 90.7316C150.19 87.9859 147.962 85.76 145.214 85.76C142.466 85.76 140.238 87.9859 140.238 90.7316C140.238 93.4773 142.466 95.7031 145.214 95.7031Z" fill="#E6E6E6"/>
<path d="M147.799 90.6426L143.832 88.3546C143.817 88.3456 143.799 88.3408 143.781 88.3408C143.763 88.3408 143.745 88.3456 143.729 88.3546C143.714 88.3636 143.701 88.3766 143.692 88.3923C143.682 88.4079 143.678 88.4257 143.678 88.4437V93.0196C143.678 93.0377 143.683 93.0555 143.692 93.0711C143.701 93.0867 143.714 93.0997 143.729 93.1088C143.745 93.1178 143.763 93.1225 143.781 93.1225C143.799 93.1225 143.817 93.1178 143.832 93.1088L147.799 90.8208C147.814 90.8118 147.827 90.7988 147.836 90.7831C147.845 90.7675 147.85 90.7497 147.85 90.7317C147.85 90.7136 147.845 90.6959 147.836 90.6802C147.827 90.6646 147.814 90.6516 147.799 90.6426L143.832 88.3546C143.817 88.3456 143.799 88.3408 143.781 88.3408C143.763 88.3408 143.745 88.3456 143.729 88.3546C143.714 88.3636 143.701 88.3766 143.692 88.3923C143.682 88.4079 143.678 88.4257 143.678 88.4437V93.0196C143.678 93.0377 143.683 93.0555 143.692 93.0711C143.701 93.0867 143.714 93.0997 143.729 93.1088C143.745 93.1178 143.763 93.1226 143.781 93.1226C143.799 93.1226 143.817 93.1178 143.832 93.1088L147.799 90.8208C147.814 90.8118 147.827 90.7988 147.836 90.7831C147.845 90.7675 147.85 90.7497 147.85 90.7317C147.85 90.7136 147.845 90.6959 147.836 90.6802C147.827 90.6646 147.814 90.6516 147.799 90.6426Z" fill="white"/>
<path d="M139.166 111.38C139.169 111.94 138.95 112.477 138.556 112.875C138.162 113.272 137.627 113.497 137.067 113.5H44.6952C44.4181 113.499 44.1439 113.443 43.8884 113.335C43.6329 113.228 43.4011 113.071 43.2061 112.875C43.0112 112.678 42.8569 112.445 42.7522 112.188C42.6474 111.932 42.5943 111.657 42.5957 111.38V48.3398C42.5928 47.7806 42.8123 47.2431 43.2061 46.8456C43.5998 46.4481 44.1354 46.2231 44.6952 46.2202H137.067C137.344 46.2217 137.618 46.2776 137.874 46.3849C138.129 46.4922 138.361 46.6487 138.556 46.8456C138.751 47.0424 138.905 47.2756 139.01 47.532C139.115 47.7884 139.168 48.0629 139.166 48.3398V48.3398V111.38Z" fill="#E6E6E6"/>
<path d="M138.077 110.348C138.077 110.892 137.861 111.413 137.476 111.797C137.091 112.182 136.569 112.398 136.025 112.398H45.7999C45.2558 112.398 44.7341 112.182 44.3494 111.797C43.9647 111.413 43.7485 110.892 43.7485 110.348V49.4011C43.7485 48.8575 43.9647 48.3362 44.3494 47.9519C44.7341 47.5675 45.2558 47.3516 45.7999 47.3516H136.029C136.573 47.3527 137.093 47.5691 137.477 47.9533C137.861 48.3376 138.077 48.8582 138.077 49.4011V110.348Z" fill="white"/>
<path d="M48.5711 49.9976H133.351C133.674 49.9976 133.984 50.1257 134.212 50.3539C134.44 50.582 134.569 50.8914 134.569 51.2141V108.298C134.569 108.621 134.44 108.93 134.212 109.159C133.984 109.387 133.674 109.515 133.351 109.515H48.5711C48.2482 109.515 47.9385 109.387 47.7101 109.159C47.4818 108.93 47.3535 108.621 47.3535 108.298V51.2141C47.3535 50.8914 47.4818 50.582 47.7101 50.3539C47.9385 50.1257 48.2482 49.9976 48.5711 49.9976Z" fill="#E6E6E6"/>
<path d="M49.6439 51.3667H132.185C132.345 51.3667 132.504 51.3982 132.651 51.4593C132.799 51.5204 132.933 51.61 133.046 51.723C133.159 51.836 133.249 51.9701 133.31 52.1177C133.371 52.2653 133.403 52.4235 133.403 52.5832V106.621C133.403 106.781 133.371 106.939 133.31 107.087C133.249 107.235 133.159 107.369 133.046 107.482C132.933 107.595 132.799 107.684 132.651 107.745C132.504 107.806 132.345 107.838 132.185 107.838H49.6439C49.3209 107.838 49.0112 107.71 48.7829 107.482C48.5546 107.254 48.4263 106.944 48.4263 106.621V52.5832C48.4263 52.2606 48.5546 51.9512 48.7829 51.723C49.0112 51.4949 49.3209 51.3667 49.6439 51.3667Z" fill="white"/>
<path d="M107.924 88.9061C107.599 88.9059 107.278 88.8375 106.981 88.7054C106.912 88.6748 106.846 88.6374 106.784 88.5938L100.786 84.375C100.481 84.161 100.233 83.8771 100.062 83.5472C99.8904 83.2173 99.8009 82.851 99.8008 82.4793V76.7257C99.8009 76.3539 99.8904 75.9877 100.062 75.6578C100.233 75.3279 100.481 75.044 100.786 74.83L106.784 70.6111C106.846 70.5675 106.912 70.5302 106.981 70.4995C107.334 70.3426 107.721 70.2763 108.107 70.3068C108.492 70.3372 108.864 70.4635 109.188 70.674C109.513 70.8845 109.779 71.1726 109.964 71.5122C110.148 71.8518 110.245 72.232 110.245 72.6184V86.5866C110.245 87.2016 110 87.7914 109.565 88.2262C109.13 88.6611 108.539 88.9054 107.924 88.9054L107.924 88.9061Z" fill="#5F338F"/>
<path d="M94.4985 90.0371H77.7676C74.3542 90.0344 71.588 87.8298 71.5845 85.1096V74.095C71.588 71.3748 74.3542 69.1703 77.7676 69.1675H94.5422C97.9312 69.1707 100.678 71.3594 100.682 74.0603V85.1096C100.678 87.8298 97.9119 90.0344 94.4985 90.0371Z" fill="#5F338F"/>
<path d="M124.302 104.363C127.05 104.363 129.278 102.137 129.278 99.3917C129.278 96.646 127.05 94.4202 124.302 94.4202C121.554 94.4202 119.326 96.646 119.326 99.3917C119.326 102.137 121.554 104.363 124.302 104.363Z" fill="#3F3D56"/>
<path d="M126.886 99.3025L122.92 97.0145C122.904 97.0055 122.887 97.0007 122.869 97.0007C122.851 97.0007 122.833 97.0055 122.817 97.0145C122.801 97.0236 122.788 97.0365 122.779 97.0522C122.77 97.0678 122.766 97.0856 122.766 97.1036V101.68C122.766 101.698 122.77 101.715 122.779 101.731C122.788 101.747 122.801 101.76 122.817 101.769C122.833 101.778 122.851 101.782 122.869 101.782C122.887 101.782 122.904 101.778 122.92 101.769L126.886 99.4807C126.902 99.4717 126.915 99.4587 126.924 99.4431C126.933 99.4274 126.938 99.4097 126.938 99.3916C126.938 99.3735 126.933 99.3558 126.924 99.3402C126.915 99.3245 126.902 99.3115 126.886 99.3025L122.92 97.0145C122.904 97.0055 122.887 97.0007 122.869 97.0007C122.851 97.0007 122.833 97.0055 122.817 97.0145C122.801 97.0236 122.788 97.0365 122.779 97.0522C122.77 97.0678 122.766 97.0856 122.766 97.1036V101.68C122.766 101.698 122.77 101.715 122.779 101.731C122.788 101.747 122.801 101.76 122.817 101.769C122.833 101.778 122.851 101.782 122.869 101.782C122.887 101.782 122.904 101.778 122.92 101.769L126.886 99.4807C126.902 99.4717 126.915 99.4587 126.924 99.4431C126.933 99.4274 126.938 99.4097 126.938 99.3916C126.938 99.3735 126.933 99.3558 126.924 99.3401C126.915 99.3245 126.902 99.3115 126.886 99.3025Z" fill="white"/>
</g>
<defs>
<clipPath id="clip0_624_611">
<rect width="138.808" height="83.5" fill="white" transform="translate(42.5957 30)"/>
</clipPath>
</defs>
</svg>
