<svg width="22" height="21" viewBox="0 0 22 21" fill="none" xmlns="http://www.w3.org/2000/svg">
<g id="Group 1">
<path id="Ellipse 1" d="M20.6538 10.3125C20.6538 15.7199 16.1543 20.125 10.5769 20.125C4.99958 20.125 0.5 15.7199 0.5 10.3125C0.5 4.90506 4.99958 0.5 10.5769 0.5C16.1543 0.5 20.6538 4.90506 20.6538 10.3125Z" fill="white" stroke="#952769"/>
<g id="Vector">
<path d="M12.7329 16.5C12.8359 16.5 12.9389 16.4728 13.0419 16.4183C13.4282 16.2277 13.5827 15.7649 13.4025 15.3564C13.4025 15.3564 11.9861 11.9257 11.7286 10.6733C11.6256 10.2376 11.574 9.06683 11.5483 8.52228C11.5483 8.33168 11.6513 8.16832 11.8058 8.11386L14.9734 7.10644C15.3597 6.99753 15.5914 6.53465 15.4884 6.12624C15.3854 5.71782 14.9476 5.47277 14.5613 5.58168C14.5613 5.58168 11.6256 6.58911 10.5697 6.58911C9.53959 6.58911 6.62955 5.60891 6.62955 5.60891C6.24326 5.5 5.80547 5.6906 5.67671 6.09901C5.54794 6.53465 5.77972 6.99753 6.19176 7.10644L9.35932 8.11386C9.51384 8.16832 9.6426 8.33168 9.61685 8.52228C9.5911 9.06683 9.53959 10.2376 9.43658 10.6733C9.17906 11.9257 7.76266 15.3564 7.76266 15.3564C7.5824 15.7649 7.76266 16.2277 8.1232 16.4183C8.22621 16.4728 8.32922 16.5 8.43223 16.5C8.71551 16.5 8.99879 16.3366 9.1018 16.0371L10.6212 12.7698L12.0633 16.0644C12.1921 16.3366 12.4496 16.5 12.7329 16.5Z" fill="#952769"/>
<path d="M10.6212 5.7995C11.4177 5.7995 12.0633 5.11685 12.0633 4.27475C12.0633 3.43266 11.4177 2.75 10.6212 2.75C9.82473 2.75 9.17906 3.43266 9.17906 4.27475C9.17906 5.11685 9.82473 5.7995 10.6212 5.7995Z" fill="#952769"/>
<path d="M12.7329 16.5C12.8359 16.5 12.9389 16.4728 13.0419 16.4183C13.4282 16.2277 13.5827 15.7649 13.4025 15.3564C13.4025 15.3564 11.9861 11.9257 11.7286 10.6733C11.6256 10.2376 11.574 9.06683 11.5483 8.52228C11.5483 8.33168 11.6513 8.16832 11.8058 8.11386L14.9734 7.10644C15.3597 6.99753 15.5914 6.53465 15.4884 6.12624C15.3854 5.71782 14.9476 5.47277 14.5613 5.58168C14.5613 5.58168 11.6256 6.58911 10.5697 6.58911C9.53959 6.58911 6.62955 5.60891 6.62955 5.60891C6.24326 5.5 5.80547 5.6906 5.67671 6.09901C5.54794 6.53465 5.77972 6.99753 6.19176 7.10644L9.35932 8.11386C9.51384 8.16832 9.6426 8.33168 9.61685 8.52228C9.5911 9.06683 9.53959 10.2376 9.43658 10.6733C9.17906 11.9257 7.76266 15.3564 7.76266 15.3564C7.5824 15.7649 7.76266 16.2277 8.1232 16.4183C8.22621 16.4728 8.32922 16.5 8.43223 16.5C8.71551 16.5 8.99879 16.3366 9.1018 16.0371L10.6212 12.7698L12.0633 16.0644C12.1921 16.3366 12.4496 16.5 12.7329 16.5Z" stroke="#952769" stroke-width="0.25"/>
<path d="M10.6212 5.7995C11.4177 5.7995 12.0633 5.11685 12.0633 4.27475C12.0633 3.43266 11.4177 2.75 10.6212 2.75C9.82473 2.75 9.17906 3.43266 9.17906 4.27475C9.17906 5.11685 9.82473 5.7995 10.6212 5.7995Z" stroke="#952769" stroke-width="0.25"/>
</g>
</g>
</svg>
