<svg width="121" height="121" viewBox="0 0 121 121" fill="none" xmlns="http://www.w3.org/2000/svg">
<rect x="12" y="12" width="97" height="97" rx="2" fill="#3E8BB2"/>
<rect x="14.5" y="14.5" width="92" height="92" rx="1.5" fill="#3E8BB2" stroke="white"/>
<path d="M63.6 51V37.205" stroke="white" stroke-width="2.8"/>
<mask id="path-5-inside-1" fill="white">
<rect x="50.8889" y="50.6667" width="18.6667" height="18.6667" rx="2"/>
</mask>
<rect x="50.8889" y="50.6667" width="18.6667" height="18.6667" rx="2" fill="#3E8BB2" stroke="white" stroke-width="5.6" mask="url(#path-5-inside-1)"/>
<mask id="path-6-inside-2" fill="white">
<rect x="79.9259" y="52.7407" width="14.5185" height="14.5185" rx="2"/>
</mask>
<rect x="79.9259" y="52.7407" width="14.5185" height="14.5185" rx="2" fill="#3E8BB2" stroke="white" stroke-width="5.6" mask="url(#path-6-inside-2)"/>
<mask id="path-7-inside-3" fill="white">
<rect x="79.9259" y="73.4815" width="14.5185" height="14.5185" rx="2"/>
</mask>
<rect x="79.9259" y="73.4815" width="14.5185" height="14.5185" rx="2" fill="#3E8BB2" stroke="white" stroke-width="5.6" mask="url(#path-7-inside-3)"/>
<mask id="path-8-inside-4" fill="white">
<rect x="79.9259" y="32" width="14.5185" height="14.5185" rx="2"/>
</mask>
<rect x="79.9259" y="32" width="14.5185" height="14.5185" rx="2" fill="#3E8BB2" stroke="white" stroke-width="5.6" mask="url(#path-8-inside-4)"/>
<mask id="path-9-inside-5" fill="white">
<rect x="26" y="32" width="14.5185" height="14.5185" rx="2"/>
</mask>
<rect x="26" y="32" width="14.5185" height="14.5185" rx="2" fill="#3E8BB2" stroke="white" stroke-width="5.6" mask="url(#path-9-inside-5)"/>
<mask id="path-10-inside-6" fill="white">
<rect x="26" y="52.7407" width="14.5185" height="14.5185" rx="2"/>
</mask>
<rect x="26" y="52.7407" width="14.5185" height="14.5185" rx="2" fill="#3E8BB2" stroke="white" stroke-width="5.6" mask="url(#path-10-inside-6)"/>
<mask id="path-11-inside-7" fill="white">
<rect x="26" y="73.4815" width="14.5185" height="14.5185" rx="2"/>
</mask>
<rect x="26" y="73.4815" width="14.5185" height="14.5185" rx="2" fill="#3E8BB2" stroke="white" stroke-width="5.6" mask="url(#path-11-inside-7)"/>
<path d="M55.6 50.7599L55.6 38" stroke="white" stroke-width="2.8"/>
<path d="M55.7111 81.7778L55.7111 69.3035" stroke="white" stroke-width="2.8"/>
<path d="M64.0074 81.7778V69.3165" stroke="white" stroke-width="2.8"/>
<path d="M40.5 59.6371L50.8889 59.6371" stroke="white" stroke-width="2.8"/>
<path d="M69.5 59.637L80 59.637" stroke="white" stroke-width="2.8"/>
<line x1="63" y1="38.6" x2="80" y2="38.6" stroke="white" stroke-width="2.8"/>
<line x1="63.3333" y1="80.7408" x2="79.9259" y2="80.7408" stroke="black" stroke-width="2.07407"/>
<line x1="63.3333" y1="80.3778" x2="79.9259" y2="80.3778" stroke="white" stroke-width="2.8"/>
<line x1="40.5186" y1="80.3778" x2="57.1112" y2="80.3778" stroke="white" stroke-width="2.8"/>
<path d="M40.5186 38.6L57 38.6" stroke="white" stroke-width="2.8"/>
<rect x="44" width="2" height="12" fill="#CECCCC" fill-opacity="0.49"/>
<g style="mix-blend-mode:multiply" opacity="0.8">
<rect x="43" y="5" width="4" height="7" fill="#B3B3B3" fill-opacity="0.54"/>
</g>
<rect y="74" width="2" height="12" transform="rotate(-90 0 74)" fill="#CECCCC" fill-opacity="0.49"/>
<g style="mix-blend-mode:multiply" opacity="0.8">
<rect x="5" y="75" width="4" height="7" transform="rotate(-90 5 75)" fill="#B3B3B3" fill-opacity="0.54"/>
</g>
<rect x="73" y="121" width="2" height="12" transform="rotate(180 73 121)" fill="#CECCCC" fill-opacity="0.49"/>
<g style="mix-blend-mode:multiply" opacity="0.8">
<rect x="74" y="116" width="4" height="7" transform="rotate(180 74 116)" fill="#B3B3B3" fill-opacity="0.54"/>
</g>
<rect x="121" y="45" width="2" height="12" transform="rotate(90 121 45)" fill="#CECCCC" fill-opacity="0.49"/>
<g style="mix-blend-mode:multiply" opacity="0.8">
<rect x="116" y="44" width="4" height="7" transform="rotate(90 116 44)" fill="#B3B3B3" fill-opacity="0.54"/>
</g>
<rect x="53" width="2" height="12" fill="#CECCCC" fill-opacity="0.49"/>
<g style="mix-blend-mode:multiply" opacity="0.8">
<rect x="52" y="5" width="4" height="7" fill="#B3B3B3" fill-opacity="0.54"/>
</g>
<rect y="65" width="2" height="12" transform="rotate(-90 0 65)" fill="#CECCCC" fill-opacity="0.49"/>
<g style="mix-blend-mode:multiply" opacity="0.8">
<rect x="5" y="66" width="4" height="7" transform="rotate(-90 5 66)" fill="#B3B3B3" fill-opacity="0.54"/>
</g>
<rect x="64" y="121" width="2" height="12" transform="rotate(180 64 121)" fill="#CECCCC" fill-opacity="0.49"/>
<g style="mix-blend-mode:multiply" opacity="0.8">
<rect x="65" y="116" width="4" height="7" transform="rotate(180 65 116)" fill="#B3B3B3" fill-opacity="0.54"/>
</g>
<rect x="121" y="54" width="2" height="12" transform="rotate(90 121 54)" fill="#CECCCC" fill-opacity="0.49"/>
<g style="mix-blend-mode:multiply" opacity="0.8">
<rect x="116" y="53" width="4" height="7" transform="rotate(90 116 53)" fill="#B3B3B3" fill-opacity="0.54"/>
</g>
<rect x="62" width="2" height="12" fill="#CECCCC" fill-opacity="0.49"/>
<g style="mix-blend-mode:multiply" opacity="0.8">
<rect x="61" y="5" width="4" height="7" fill="#B3B3B3" fill-opacity="0.54"/>
</g>
<rect y="56" width="2" height="12" transform="rotate(-90 0 56)" fill="#CECCCC" fill-opacity="0.49"/>
<g style="mix-blend-mode:multiply" opacity="0.8">
<rect x="5" y="57" width="4" height="7" transform="rotate(-90 5 57)" fill="#B3B3B3" fill-opacity="0.54"/>
</g>
<rect x="55" y="121" width="2" height="12" transform="rotate(180 55 121)" fill="#CECCCC" fill-opacity="0.49"/>
<g style="mix-blend-mode:multiply" opacity="0.8">
<rect x="56" y="116" width="4" height="7" transform="rotate(180 56 116)" fill="#B3B3B3" fill-opacity="0.54"/>
</g>
<rect x="121" y="63" width="2" height="12" transform="rotate(90 121 63)" fill="#CECCCC" fill-opacity="0.49"/>
<g style="mix-blend-mode:multiply" opacity="0.8">
<rect x="116" y="62" width="4" height="7" transform="rotate(90 116 62)" fill="#B3B3B3" fill-opacity="0.54"/>
</g>
<rect x="71" width="2" height="12" fill="#CECCCC" fill-opacity="0.49"/>
<g style="mix-blend-mode:multiply" opacity="0.8">
<rect x="70" y="5" width="4" height="7" fill="#B3B3B3" fill-opacity="0.54"/>
</g>
<rect y="47" width="2" height="12" transform="rotate(-90 0 47)" fill="#CECCCC" fill-opacity="0.49"/>
<g style="mix-blend-mode:multiply" opacity="0.8">
<rect x="5" y="48" width="4" height="7" transform="rotate(-90 5 48)" fill="#B3B3B3" fill-opacity="0.54"/>
</g>
<rect x="46" y="121" width="2" height="12" transform="rotate(180 46 121)" fill="#CECCCC" fill-opacity="0.49"/>
<g style="mix-blend-mode:multiply" opacity="0.8">
<rect x="47" y="116" width="4" height="7" transform="rotate(180 47 116)" fill="#B3B3B3" fill-opacity="0.54"/>
</g>
<rect x="121" y="72" width="2" height="12" transform="rotate(90 121 72)" fill="#CECCCC" fill-opacity="0.49"/>
<g style="mix-blend-mode:multiply" opacity="0.8">
<rect x="116" y="71" width="4" height="7" transform="rotate(90 116 71)" fill="#B3B3B3" fill-opacity="0.54"/>
</g>
</svg>
