<svg width="121" height="121" viewBox="0 0 121 121" fill="none" xmlns="http://www.w3.org/2000/svg">
<rect x="12" y="12" width="97" height="97" rx="2" fill="#411980"/>
<rect x="14.5" y="14.5" width="92" height="92" rx="1.5" fill="#411980" stroke="white"/>
<path d="M37.5563 31.5H83.4437C85.0484 31.505 86.5859 32.1447 87.7206 33.2794C88.8555 34.4142 89.4952 35.9521 89.5 37.557V83.443C89.4952 85.0479 88.8555 86.5858 87.7206 87.7206C86.5858 88.8555 85.0479 89.4952 83.443 89.5H37.557C35.9521 89.4952 34.4142 88.8555 33.2794 87.7206C32.1447 86.5859 31.505 85.0484 31.5 83.4437V37.5563C31.505 35.9516 32.1447 34.4141 33.2794 33.2794C34.4141 32.1447 35.9516 31.505 37.5563 31.5ZM83.4444 83.9444H83.9444V83.4444V37.5556V37.0556H83.4444H37.5556H37.0556V37.5556V83.4444V83.9444H37.5556H83.4444ZM43.4956 76.3889L51.4986 66.1159L57.5259 73.3733L57.9236 73.8522L58.3054 73.3606L66.9179 62.274L77.5265 76.3889H43.4956Z" fill="white" stroke="white"/>
<rect y="75" width="2" height="12" transform="rotate(-90 0 75)" fill="#CECCCC" fill-opacity="0.49"/>
<g style="mix-blend-mode:multiply" opacity="0.8">
<rect x="5" y="76" width="4" height="7" transform="rotate(-90 5 76)" fill="#B3B3B3" fill-opacity="0.54"/>
</g>
<rect x="75" y="121" width="2" height="12" transform="rotate(180 75 121)" fill="#CECCCC" fill-opacity="0.49"/>
<g style="mix-blend-mode:multiply" opacity="0.8">
<rect x="76" y="116" width="4" height="7" transform="rotate(180 76 116)" fill="#B3B3B3" fill-opacity="0.54"/>
</g>
<rect x="46" width="2" height="12" fill="#CECCCC" fill-opacity="0.49"/>
<g style="mix-blend-mode:multiply" opacity="0.8">
<rect x="45" y="5" width="4" height="7" fill="#B3B3B3" fill-opacity="0.54"/>
</g>
<rect x="121" y="46" width="2" height="12" transform="rotate(90 121 46)" fill="#CECCCC" fill-opacity="0.49"/>
<g style="mix-blend-mode:multiply" opacity="0.8">
<rect x="116" y="45" width="4" height="7" transform="rotate(90 116 45)" fill="#B3B3B3" fill-opacity="0.54"/>
</g>
<rect y="66" width="2" height="12" transform="rotate(-90 0 66)" fill="#CECCCC" fill-opacity="0.49"/>
<g style="mix-blend-mode:multiply" opacity="0.8">
<rect x="5" y="67" width="4" height="7" transform="rotate(-90 5 67)" fill="#B3B3B3" fill-opacity="0.54"/>
</g>
<rect x="66" y="121" width="2" height="12" transform="rotate(180 66 121)" fill="#CECCCC" fill-opacity="0.49"/>
<g style="mix-blend-mode:multiply" opacity="0.8">
<rect x="67" y="116" width="4" height="7" transform="rotate(180 67 116)" fill="#B3B3B3" fill-opacity="0.54"/>
</g>
<rect x="55" width="2" height="12" fill="#CECCCC" fill-opacity="0.49"/>
<g style="mix-blend-mode:multiply" opacity="0.8">
<rect x="54" y="5" width="4" height="7" fill="#B3B3B3" fill-opacity="0.54"/>
</g>
<rect x="121" y="55" width="2" height="12" transform="rotate(90 121 55)" fill="#CECCCC" fill-opacity="0.49"/>
<g style="mix-blend-mode:multiply" opacity="0.8">
<rect x="116" y="54" width="4" height="7" transform="rotate(90 116 54)" fill="#B3B3B3" fill-opacity="0.54"/>
</g>
<rect y="57" width="2" height="12" transform="rotate(-90 0 57)" fill="#CECCCC" fill-opacity="0.49"/>
<g style="mix-blend-mode:multiply" opacity="0.8">
<rect x="5" y="58" width="4" height="7" transform="rotate(-90 5 58)" fill="#B3B3B3" fill-opacity="0.54"/>
</g>
<rect x="57" y="121" width="2" height="12" transform="rotate(180 57 121)" fill="#CECCCC" fill-opacity="0.49"/>
<g style="mix-blend-mode:multiply" opacity="0.8">
<rect x="58" y="116" width="4" height="7" transform="rotate(180 58 116)" fill="#B3B3B3" fill-opacity="0.54"/>
</g>
<rect x="64" width="2" height="12" fill="#CECCCC" fill-opacity="0.49"/>
<g style="mix-blend-mode:multiply" opacity="0.8">
<rect x="63" y="5" width="4" height="7" fill="#B3B3B3" fill-opacity="0.54"/>
</g>
<rect x="121" y="64" width="2" height="12" transform="rotate(90 121 64)" fill="#CECCCC" fill-opacity="0.49"/>
<g style="mix-blend-mode:multiply" opacity="0.8">
<rect x="116" y="63" width="4" height="7" transform="rotate(90 116 63)" fill="#B3B3B3" fill-opacity="0.54"/>
</g>
<rect y="48" width="2" height="12" transform="rotate(-90 0 48)" fill="#CECCCC" fill-opacity="0.49"/>
<g style="mix-blend-mode:multiply" opacity="0.8">
<rect x="5" y="49" width="4" height="7" transform="rotate(-90 5 49)" fill="#B3B3B3" fill-opacity="0.54"/>
</g>
<rect x="48" y="121" width="2" height="12" transform="rotate(180 48 121)" fill="#CECCCC" fill-opacity="0.49"/>
<g style="mix-blend-mode:multiply" opacity="0.8">
<rect x="49" y="116" width="4" height="7" transform="rotate(180 49 116)" fill="#B3B3B3" fill-opacity="0.54"/>
</g>
<rect x="73" width="2" height="12" fill="#CECCCC" fill-opacity="0.49"/>
<g style="mix-blend-mode:multiply" opacity="0.8">
<rect x="72" y="5" width="4" height="7" fill="#B3B3B3" fill-opacity="0.54"/>
</g>
<rect x="121" y="73" width="2" height="12" transform="rotate(90 121 73)" fill="#CECCCC" fill-opacity="0.49"/>
<g style="mix-blend-mode:multiply" opacity="0.8">
<rect x="116" y="72" width="4" height="7" transform="rotate(90 116 72)" fill="#B3B3B3" fill-opacity="0.54"/>
</g>
</svg>
