<svg width="20" height="22" viewBox="0 0 20 22" fill="none" xmlns="http://www.w3.org/2000/svg">
<path d="M1 5.00006H3H19" stroke="white" stroke-width="2" stroke-linecap="round" stroke-linejoin="round"/>
<path d="M6.00012 5V3C6.00012 2.46957 6.21084 1.96086 6.58591 1.58579C6.96098 1.21071 7.46969 1 8.00012 1H12.0001C12.5306 1 13.0393 1.21071 13.4143 1.58579C13.7894 1.96086 14.0001 2.46957 14.0001 3V5M17.0001 5V19C17.0001 19.5304 16.7894 20.0391 16.4143 20.4142C16.0393 20.7893 15.5306 21 15.0001 21H5.00012C4.46969 21 3.96098 20.7893 3.58591 20.4142C3.21084 20.0391 3.00012 19.5304 3.00012 19V5H17.0001Z" stroke="white" stroke-width="2" stroke-linecap="round" stroke-linejoin="round"/>
<path d="M7.99988 10.0002V16.0002" stroke="white" stroke-width="2" stroke-linecap="round" stroke-linejoin="round"/>
<path d="M12.0001 10.0002V16.0002" stroke="white" stroke-width="2" stroke-linecap="round" stroke-linejoin="round"/>
</svg>
