<svg width="24" height="24" viewBox="0 0 24 24" fill="none" xmlns="http://www.w3.org/2000/svg">
<path d="M18.9844 18V8.01562H5.01562V18H18.9844ZM18.9844 3.98438C19.5469 3.98438 20.0156 4.1875 20.3906 4.59375C20.7969 4.96875 21 5.4375 21 6V18C21 18.5312 20.7969 19 20.3906 19.4062C19.9844 19.8125 19.5156 20.0156 18.9844 20.0156H5.01562C4.45312 20.0156 3.96875 19.8281 3.5625 19.4531C3.1875 19.0469 3 18.5625 3 18V6C3 5.4375 3.1875 4.96875 3.5625 4.59375C3.96875 4.1875 4.45312 3.98438 5.01562 3.98438H18.9844Z" fill="white"/>
<rect x="6" y="9" width="1.5" height="1.5" fill="white"/>
<line x1="8.25" y1="9.5625" x2="18" y2="9.5625" stroke="white" stroke-width="0.375"/>
<rect x="6" y="11.25" width="1.5" height="1.5" fill="white"/>
<line x1="8.25" y1="11.8125" x2="18" y2="11.8125" stroke="white" stroke-width="0.375"/>
<rect x="6" y="13.5" width="1.5" height="1.5" fill="white"/>
<line x1="8.25" y1="14.0625" x2="18" y2="14.0625" stroke="white" stroke-width="0.375"/>
<rect x="6" y="15.75" width="1.5" height="1.5" fill="white"/>
<line x1="8.25" y1="16.3125" x2="18" y2="16.3125" stroke="white" stroke-width="0.375"/>
</svg>
