<svg width="24" height="24" viewBox="0 0 24 24" fill="none" xmlns="http://www.w3.org/2000/svg">
<rect width="24" height="24" rx="0.659794" fill="#323130"/>
<mask id="path-2-inside-1_3_92" fill="white">
<rect x="0.494843" y="0.494846" width="23.0103" height="23.0103" rx="0.659794"/>
</mask>
<rect x="0.494843" y="0.494846" width="23.0103" height="23.0103" rx="0.659794" fill="#323130" stroke="white" stroke-width="2" mask="url(#path-2-inside-1_3_92)"/>
<path d="M17.906 12.1271C18.2694 12.1271 18.5673 12.4224 18.5329 12.7842C18.4138 14.0346 17.9566 15.2336 17.2046 16.25C16.3217 17.4432 15.079 18.3216 13.6595 18.7556C12.24 19.1897 10.7186 19.1566 9.31926 18.6612C7.91995 18.1658 6.71664 17.2343 5.88644 16.0038C5.05623 14.7732 4.64299 13.3086 4.70755 11.8256C4.7721 10.3426 5.31103 8.91952 6.24501 7.76577C7.179 6.61201 8.4587 5.78857 9.89576 5.41663C11.1197 5.09985 12.4027 5.12485 13.6067 5.48259C13.9551 5.58612 14.1174 5.97291 13.9814 6.30993C13.8453 6.64696 13.4623 6.80579 13.1117 6.71005C12.1714 6.45329 11.1765 6.44475 10.2256 6.69086C9.06137 6.99217 8.02467 7.65926 7.26804 8.59393C6.51141 9.5286 6.07481 10.6815 6.02252 11.8829C5.97023 13.0843 6.305 14.2707 6.97756 15.2676C7.65011 16.2645 8.62493 17.0191 9.75853 17.4205C10.8921 17.8218 12.1246 17.8486 13.2746 17.4969C14.4246 17.1453 15.4313 16.4338 16.1465 15.4671C16.7308 14.6775 17.0954 13.7517 17.2093 12.7837C17.2518 12.4227 17.5425 12.1271 17.906 12.1271Z" fill="white"/>
<path d="M13.3608 11.4636C12.9964 11.4636 12.701 11.759 12.701 12.1234C12.701 12.4878 12.9964 12.7832 13.3608 12.7832L13.3608 11.4636ZM13.3608 12.7832L18.5567 12.7832L18.5567 11.4636L13.3608 11.4636L13.3608 12.7832Z" fill="white"/>
<path d="M8.50882 19.9967C8.50868 19.9967 8.50855 19.9967 8.50843 19.9967L8.47473 19.9833L8.46202 19.9844C8.44621 19.9496 8.43093 19.8921 8.42781 19.8067C8.42361 19.6914 8.44293 19.5531 8.48545 19.4146L8.48585 19.4133L8.51209 19.3251L10.4685 14.0459L10.5298 13.8808L10.3609 13.8305L8.65413 13.3225C8.65342 13.322 8.65212 13.3209 8.65026 13.3188C8.64466 13.3127 8.63529 13.2994 8.62586 13.2747C8.6065 13.2239 8.59441 13.1443 8.59981 13.0407L8.59987 13.0407L8.59998 13.036C8.60244 12.9326 8.62134 12.8164 8.65584 12.7005C8.69034 12.5846 8.73806 12.477 8.79254 12.3891L8.79304 12.3882L10.4608 9.662L13.7203 4.60995L13.7203 4.60996L13.7217 4.60776C13.7882 4.50102 13.8507 4.44973 13.8874 4.43429C13.8932 4.43185 13.8973 4.43077 13.8998 4.43029C13.9008 4.43128 13.9022 4.43272 13.9038 4.43474L13.9037 4.43478L13.9065 4.43804C13.9267 4.46176 13.9553 4.52681 13.9597 4.64736C13.9639 4.76267 13.9446 4.90095 13.9021 5.03941L13.9021 5.03941L13.9017 5.04077L13.8754 5.12895L11.919 10.4081L11.8578 10.5733L12.0266 10.6235L13.7373 11.1327C13.738 11.1333 13.7393 11.1344 13.7412 11.1364C13.7468 11.1425 13.7562 11.1558 13.7656 11.1806C13.785 11.2314 13.797 11.3109 13.7917 11.4145L13.7916 11.4145L13.7915 11.4192C13.789 11.5226 13.7701 11.6388 13.7356 11.7547C13.7011 11.8706 13.6534 11.9782 13.5989 12.0662L13.5984 12.067L11.9307 14.7932L8.67269 19.8429C8.67244 19.8433 8.67219 19.8437 8.67194 19.844C8.62235 19.9178 8.57525 19.9622 8.54004 19.9834C8.52311 19.9936 8.51267 19.9961 8.50882 19.9967ZM13.7388 11.1332C13.7387 11.1331 13.7386 11.1331 13.7385 11.1331L13.7388 11.1332Z" stroke="white" stroke-width="0.329897"/>
</svg>
