<svg width="22" height="22" viewBox="0 0 22 22" fill="none" xmlns="http://www.w3.org/2000/svg">
<path d="M20.2722 8.0542H1.45996" stroke="#5F338F" stroke-width="1.7" stroke-linecap="round" stroke-linejoin="round"/>
<path d="M20.2722 13.9712H1.45996" stroke="#5F338F" stroke-width="1.7" stroke-linecap="round" stroke-linejoin="round"/>
<path d="M10.8622 20.8719C16.309 20.8719 20.7244 16.4564 20.7244 11.0097C20.7244 5.56292 16.309 1.14746 10.8622 1.14746C5.41546 1.14746 1 5.56292 1 11.0097C1 16.4564 5.41546 20.8719 10.8622 20.8719Z" stroke="#323130" stroke-width="1.7" stroke-linecap="round" stroke-linejoin="round"/>
<path d="M10.8629 20.8709C13.0415 20.8709 14.8077 16.4554 14.8077 11.0087C14.8077 5.56194 13.0415 1.14648 10.8629 1.14648C8.68415 1.14648 6.91797 5.56194 6.91797 11.0087C6.91797 16.4554 8.68415 20.8709 10.8629 20.8709Z" stroke="#323130" stroke-width="1.7" stroke-linecap="round" stroke-linejoin="round"/>
</svg>
