<svg width="60" height="60" xmlns="http://www.w3.org/2000/svg">
 <g>
  <title>background</title>
  <rect x="-1" y="-1" width="5.774113" height="5.774113" id="canvas_background" fill="none"/>
 </g>

 <g>
  <title>Layer 1</title>
  <ellipse fill="#ffbb78" stroke-width="0" cx="30.062571" cy="30.06257" id="svg_5" rx="29.909275" ry="29.971846" stroke="#ffbb78"/>
  <ellipse fill="#a9b800" stroke="#a9b800" stroke-width="0" stroke-opacity="null" fill-opacity="null" cx="7.536759" cy="41.638337" id="svg_7"/>
  <path fill="#ffffff" stroke-width="0" d="m30.024102,11.209316c2.030388,0.002538 3.970055,0.350043 5.807011,0.930589l-1.453818,2.485466l10.319748,0l-2.580597,-4.417749l-2.578627,-4.416428l-1.35741,2.327174c-2.544002,-0.919383 -5.286532,-1.433921 -8.154458,-1.433921c-13.200851,0 -23.900555,10.577148 -23.900555,23.625925c0,5.415671 1.863406,10.391487 4.964524,14.37813l3.634203,-2.7582c-2.508098,-3.221755 -4.016104,-7.242056 -4.024286,-11.618626c0.018267,-10.549764 8.65291,-19.086185 19.324262,-19.10236l0.000002,0l0.000001,0zm18.93855,4.72791l-3.634195,2.759521c2.507466,3.220528 4.01548,7.238296 4.022379,11.616166c-0.018269,10.549677 -8.65291,19.084877 -19.324883,19.102262c-1.891136,-0.002417 -3.700372,-0.306378 -5.425152,-0.814713l1.36809,-2.338453l-10.319702,0l2.578688,4.415304l2.580549,4.421394l1.438694,-2.467953c2.440015,0.839646 5.051435,1.308081 7.778832,1.3093c13.202756,-0.002432 23.900624,-10.579589 23.903725,-23.628375c-0.003101,-5.41566 -1.867832,-10.390261 -4.967027,-14.374451l0,-0.000002l0.000002,0z" id="svg_3" stroke="#a9b800"/>
  <text fill="#ffffff" stroke-width="0" x="28.57838" y="32.08102" id="svg_8" font-size="24" font-family="Helvetica, Arial, sans-serif" text-anchor="start" xml:space="preserve" transform="matrix(1.6093161278716934,0,0,1.2991049354462092,-29.959664183897303,-0.1782047456365321) " stroke="#a9b800" font-weight="bold">C</text>
 </g>
</svg>