<svg width="60" height="60" xmlns="http://www.w3.org/2000/svg">
 <!-- Created with Method Draw - http://github.com/duopixel/Method-Draw/ -->
 <g>
  <title>Layer 1</title>
  <path stroke="#355264" id="svg_1" d="m49.776723,23.287696c0.042756,-0.466315 0.06751,-0.937411 0.06751,-1.413291c0,-8.254964 -6.296418,-14.94598 -14.064551,-14.94598c-6.028629,0 -11.157127,4.039002 -13.157668,9.706517c-1.325444,-1.544816 -3.215719,-2.532446 -5.337778,-2.532446c-4.001083,0 -7.243806,3.445945 -7.243806,7.697777c0,0.502185 0.051757,0.992414 0.13952,1.465901c-5.337778,0.935021 -9.422124,5.825345 -9.422124,11.760693c0,6.604927 5.038485,11.956784 11.251641,11.956784l35.723958,0c6.215406,0 11.25164,-5.351857 11.25164,-11.956784c0.00225,-5.861215 -3.971829,-10.715669 -9.208343,-11.73917z" stroke-width="1.5" fill="#355264"/>
  <text stroke="#355264" transform="matrix(1.0664669275283813,0,0,1.0741136074066162,-1.5983218979090452,-3.407570892113654) " xml:space="preserve" text-anchor="start" font-family="Helvetica, Arial, sans-serif" font-size="24" id="svg_2" y="40.612842" x="22.849342" stroke-width="0" fill="#ffffff">D</text>
 </g>
</svg>