<svg width="60" height="60" xmlns="http://www.w3.org/2000/svg">
 <!-- Created with Method Draw - http://github.com/duopixel/Method-Draw/ -->

 <g>
  <title>background</title>
  <rect fill="none" id="canvas_background" height="402" width="582" y="-1" x="-1"/>
 </g>
 <g>
  <title>Layer 1</title>
  <path fill="#00897b" stroke-width="1.5" d="m49.77672,23.2877c0.04276,-0.46632 0.06751,-0.93742 0.06751,-1.4133c0,-8.25496 -6.29642,-14.94598 -14.06455,-14.94598c-6.02863,0 -11.15713,4.03901 -13.15767,9.70652c-1.32544,-1.54481 -3.21572,-2.53244 -5.33777,-2.53244c-4.00109,0 -7.24381,3.44594 -7.24381,7.69777c0,0.50219 0.05176,0.99242 0.13952,1.4659c-5.33778,0.93502 -9.42212,5.82535 -9.42212,11.7607c0,6.60492 5.03848,11.95678 11.25164,11.95678l35.72395,0c6.21541,0 11.25164,-5.35186 11.25164,-11.95678c0.00225,-5.86122 -3.97182,-10.71567 -9.20834,-11.73917z" id="svg_1" stroke="#00897b"/>
  <text fill="#ffffff" stroke-width="0" x="22.849342" y="40.612842" id="svg_2" font-size="24" font-family="Helvetica, Arial, sans-serif" text-anchor="start" xml:space="preserve" transform="matrix(1.0664669275283813,0,0,1.0741136074066162,-1.5983218979090452,-3.407570892113654) " stroke="#355264">D</text>
 </g>
</svg>